<svg width="446" height="285" viewBox="0 0 446 285" fill="none" xmlns="http://www.w3.org/2000/svg">
<mask id="mask0" mask-type="alpha" maskUnits="userSpaceOnUse" x="0" y="18" width="446" height="268">
<path d="M362.812 285.446H0V37.8684C11.3677 36.449 21.9747 34.2772 31 29.8256C82.9983 4.17798 112.088 30.1116 119 36.9456C126.592 44.5349 159.772 44.2613 172.359 44.1576C172.908 44.153 173.417 44.1488 173.884 44.1456C177.072 44.115 180.135 43.8356 183.115 43.5638C191.913 42.7611 199.982 42.025 208.396 47.9596C217.25 54.2116 222.202 63.2618 227.163 72.3283C231.538 80.3233 235.92 88.3309 242.99 94.4437C255.859 105.5 273.34 110.422 289.596 104.323C297.339 101.431 303.854 96.1438 310.364 90.8598C319.15 83.7296 327.928 76.6055 339.704 75.3828C359.248 73.4106 377.646 92.5876 380.029 111.191C383.067 135.449 387.001 150.767 412.106 161.307C413.844 162.031 415.614 162.715 417.389 163.401C423.296 165.685 429.254 167.988 434.253 171.837C446.881 181.644 449.689 201.694 440.811 214.93C433.743 225.431 421.407 229.617 409.397 233.691C403.925 235.548 398.522 237.381 393.715 239.778C375.604 248.801 361.726 265.945 362.812 285.446Z" fill="#C4C4C4"/>
</mask>
<g mask="url(#mask0)">
<path d="M0 -3.26685L-1.3026e-05 294.733L455 294.733L455 -3.26683L0 -3.26685Z" fill="url(#paint0_linear)"/>
<path opacity="0.2" d="M106.654 321.556C120.315 318.609 134.081 315.38 147.772 314.248C171.136 312.222 194.95 316.225 216.171 325.958C237.865 335.804 256.493 351.266 276.552 364.107L316.752 326.699C287.886 319.842 261.019 305.229 232.715 296.006C192.334 282.914 149.358 280.897 107.045 278.998C93.9882 278.435 80.4513 277.95 67.4176 279.392L106.654 321.556ZM352.1 235.95C335.574 225.717 316.073 221.2 296.879 218.794C270.558 215.464 243.055 215.815 218.541 225.914C205.942 231.189 194.305 238.886 181.097 242.517C164.705 247.084 146.556 244.811 131.881 236.171C121.595 230.266 113.127 221.563 102.023 217.156C93.2705 213.693 83.6456 213.252 74.1976 213.2C56.6363 213.143 39.2175 214.428 21.8493 216.956C18.298 217.497 14.7467 218.038 11.0966 218.67L-56.9012 145.599C-32.991 139.011 -7.11839 146.81 16.1149 156.329C40.5704 166.369 65.2258 178.802 91.755 178.989C130.408 179.134 163.876 153.702 200.413 141.075C249.515 124.126 296.454 135.354 343.146 153.445L417.484 233.329L380.445 267.797C374.713 254.705 364.33 243.547 352.1 235.95Z" fill="url(#paint1_linear)"/>
<path d="M404.786 170.053L405.629 173.138C405.877 174.197 405.836 175.341 405.611 176.287L404.646 179.212C404.547 179.304 404.731 179.501 404.83 179.409L407.816 178.657C408.875 178.409 410.019 178.45 410.959 178.865L413.975 179.928C414.067 180.027 414.264 179.843 414.172 179.744L413.329 176.659C413.081 175.601 413.122 174.457 413.347 173.51L414.312 170.586C414.411 170.494 414.227 170.296 414.128 170.388L411.142 171.14C410.083 171.389 408.939 171.348 408 170.932L404.983 169.87C404.892 169.771 404.793 169.863 404.786 170.053Z" fill="#EFEFEF"/>
<path d="M414.349 201.322C414.809 201.816 415.479 201.745 415.874 201.377C416.368 200.917 416.297 200.247 415.929 199.852C415.47 199.358 414.799 199.429 414.404 199.797C413.91 200.257 413.982 200.927 414.349 201.322Z" fill="#EFEFEF"/>
<path d="M418.717 199.284C418.598 199.948 419.057 200.442 419.721 200.561C420.385 200.68 420.879 200.221 420.899 199.649C421.019 198.985 420.559 198.491 419.896 198.372C419.33 198.161 418.837 198.62 418.717 199.284Z" fill="#EFEFEF"/>
<path d="M420.132 194.466C420.408 194.763 420.789 194.776 421.085 194.5C421.382 194.225 421.395 193.843 421.12 193.547C420.844 193.251 420.463 193.237 420.166 193.513C419.87 193.789 419.856 194.17 420.132 194.466Z" fill="#EFEFEF"/>
<path opacity="0.05" d="M218.195 162.437C202.04 174.429 179.225 171.057 167.237 154.905C155.249 138.753 158.627 115.938 174.782 103.946C190.938 91.9535 213.753 95.3257 225.741 111.478C237.729 127.63 234.351 150.445 218.195 162.437Z" fill="white"/>
<path d="M219.2 157.58C205.726 170.118 184.642 169.362 172.107 155.892C159.572 142.422 160.333 121.338 173.807 108.8C187.281 96.2614 208.365 97.017 220.9 110.487C233.435 123.958 232.674 145.042 219.2 157.58Z" fill="url(#paint2_linear)"/>
<path opacity="0.5" d="M220.496 124.313C214.486 108.348 197.616 99.7257 181.343 103.629C182.508 103.098 183.672 102.567 184.837 102.036C202.06 95.5896 221.219 104.294 227.562 121.607C234.004 138.829 225.294 157.989 207.979 164.336C206.722 164.769 205.466 165.201 204.216 165.442C219.285 157.869 226.506 140.278 220.496 124.313Z" fill="url(#paint3_linear)"/>
<path opacity="0.5" d="M218.669 148.493C215.768 149.534 212.398 147.696 209.497 148.737C208.24 149.169 207.253 150.088 206.18 150.718C196.808 156.491 182.777 148.543 174.409 155.593C174.014 155.961 173.619 156.328 173.125 156.788C171.74 155.497 170.552 154.023 169.371 152.358C170.042 152.287 170.706 152.406 171.377 152.334C175.684 152.012 178.971 148.216 183.193 147.603C185.974 147.226 188.708 148.183 191.462 148.568C198.588 149.491 205.47 146.588 211.419 143.079C214.736 141.098 223.499 133.68 229.86 131.999C230.025 135.346 229.527 138.573 228.746 141.695C227.412 141.647 226.261 141.797 224.49 143.261C222.422 145 221.281 147.537 218.669 148.493Z" fill="url(#paint4_linear)"/>
<path opacity="0.5" d="M175.528 158.974C179.416 157.013 184.429 155.666 186.046 155.819C187.38 155.867 188.708 156.105 190.043 156.153C191.949 156.222 193.975 155.626 195.861 156.266C196.709 156.583 197.458 156.992 198.312 157.118C201.921 157.629 204.296 152.655 207.919 152.785C208.3 152.799 208.773 152.911 209.141 153.306C209.968 154.195 209.157 155.502 208.176 156.23C206.306 157.786 204.168 158.855 201.937 159.825C199.898 160.802 197.858 161.779 195.818 162.755C193.291 164.001 190.482 165.141 187.833 164.474C185.375 163.813 183.864 163.377 182.339 163.322C179.993 162.188 177.754 160.772 175.528 158.974Z" fill="url(#paint5_linear)"/>
<path opacity="0.5" d="M169.66 136.427C171.066 137.146 172.55 138.345 174.089 138.018C176.207 137.521 176.783 134.774 178.272 133.204C181.828 129.895 187.764 134.69 192.493 133.237C196.256 132.131 198.729 127.065 202.621 127.682C203.949 127.92 205.249 128.921 206.597 128.588C208.327 128.268 209.158 126.389 209.884 124.792C212.562 119.352 217.296 115.131 222.915 112.85C224.923 115.404 226.535 118.325 227.661 121.516C228.008 122.482 228.355 123.449 228.603 124.508C227.354 124.75 226.019 124.702 224.698 124.273C223.568 123.851 222.543 123.146 221.307 123.006C218.073 122.699 216.311 126.55 215.721 129.678C215.131 132.807 213.843 136.77 210.679 137.134C207.996 137.419 205.805 134.668 203.037 134.665C198.264 134.684 196.739 142.552 192.05 142.862C188.605 143.12 185.988 138.922 182.542 139.18C179.859 139.466 178.231 142.271 175.541 142.747C171.693 143.564 167.933 139.325 164.255 140.72C164.157 140.812 164.058 140.904 163.966 140.805C163.555 138.977 163.235 137.247 163.106 135.524C165.507 135.133 167.788 135.406 169.66 136.427Z" fill="url(#paint6_linear)"/>
<path opacity="0.5" d="M218.964 108.604C215.715 108.679 212.474 108.563 210.441 109.349C207.928 110.213 205.643 112.709 205.928 115.391C206.084 116.352 206.523 117.417 206.58 118.469C206.603 120.475 204.444 122.115 202.432 122.33C200.42 122.544 198.35 121.706 196.365 121.158C195.518 120.841 194.67 120.524 193.802 120.779C192.355 121.205 191.622 122.992 190.161 123.799C188.707 124.415 187.019 123.591 185.909 122.597C184.708 121.504 183.993 120.142 182.594 119.232C180.171 117.618 176.909 118.074 174.467 119.609C172.025 121.144 170.128 123.463 168.238 125.59C166.742 127.35 165.056 129.104 163.377 130.666C163.873 124.861 165.887 119.302 169.209 114.553C171.462 115.588 173.723 116.433 175.762 115.456C177.216 114.84 178.232 113.158 179.954 113.029C181.677 112.9 183.239 114.578 184.955 114.64C188.959 114.783 189.496 107.835 193.259 106.729C194.805 106.211 196.592 106.943 198.23 106.525C200.545 105.844 201.976 103.223 203.295 101.075C209.184 101.858 214.525 104.627 218.964 108.604Z" fill="url(#paint7_linear)"/>
<path opacity="0.4" d="M391.196 186.939C399.394 187.232 405.735 194.046 405.439 202.244C405.143 210.442 398.328 216.784 390.129 216.49C381.931 216.197 375.591 209.383 375.887 201.185C376.084 193.079 382.998 186.645 391.196 186.939Z" fill="url(#paint8_linear)"/>
<path opacity="0.4" d="M172.086 172.309C180.284 172.603 186.625 179.416 186.329 187.615C186.033 195.813 179.218 202.155 171.019 201.861C162.821 201.567 156.481 194.754 156.777 186.556C157.164 178.456 163.98 172.114 172.086 172.309Z" fill="url(#paint9_linear)"/>
<path opacity="0.4" d="M113.856 108.942C113.502 108.166 116.24 106.355 120.609 104.316C119.821 99.7062 122.472 95.0286 127.018 93.3779C131.563 91.7272 136.557 93.5289 139.089 97.4377C143.72 96.0764 146.883 95.7125 147.237 96.4888C147.591 97.2651 144.853 99.076 140.484 101.115C141.272 105.725 138.621 110.402 134.075 112.053C129.529 113.704 124.535 111.902 122.004 107.993C117.373 109.355 114.111 109.81 113.856 108.942ZM119.468 106.852C119.553 107.142 120.315 107.169 121.374 106.921C121.289 106.631 121.106 106.434 121.02 106.145C120.935 105.855 120.85 105.566 120.857 105.375C119.877 106.104 119.383 106.563 119.468 106.852ZM141.526 98.6705C141.441 98.3811 140.679 98.3538 139.62 98.6022C139.705 98.8916 139.888 99.089 139.974 99.3785C140.059 99.6679 140.144 99.9573 140.137 100.148C141.117 99.4194 141.611 98.9599 141.526 98.6705Z" fill="url(#paint10_linear)"/>
<path d="M245.418 129.311L246.262 132.396C246.51 133.455 246.469 134.599 246.145 135.637L245.081 138.654C244.982 138.745 245.166 138.943 245.265 138.851L248.35 138.007C249.409 137.759 250.553 137.8 251.591 138.123L254.607 139.186C254.699 139.285 254.897 139.101 254.805 139.002L253.962 135.917C253.714 134.858 253.755 133.714 254.079 132.676L255.142 129.66C255.241 129.568 255.057 129.37 254.958 129.462L251.873 130.306C250.814 130.555 249.67 130.514 248.632 130.19L245.616 129.127C245.425 129.121 245.327 129.213 245.418 129.311Z" fill="#EFEFEF"/>
<path d="M238.335 188.047L238.675 189.204C238.852 189.592 238.74 190.066 238.634 190.348L238.211 191.479L238.303 191.577L239.461 191.237C239.849 191.06 240.322 191.172 240.605 191.278L241.735 191.7L241.834 191.608L241.494 190.451C241.317 190.063 241.43 189.589 241.535 189.307L241.958 188.176L241.866 188.078L240.708 188.418C240.32 188.595 239.847 188.483 239.564 188.377L238.335 188.047Z" fill="#EFEFEF"/>
<path d="M110.783 122.672L111.123 123.83C111.299 124.218 111.187 124.691 111.081 124.974L110.659 126.104L110.751 126.203L111.908 125.863C112.296 125.686 112.77 125.798 113.052 125.904L114.182 126.326L114.281 126.234L113.941 125.076C113.764 124.688 113.877 124.215 113.982 123.932L114.405 122.802L114.313 122.703L113.155 123.044C112.767 123.221 112.294 123.108 112.011 123.003L110.783 122.672C110.881 122.58 110.783 122.672 110.783 122.672Z" fill="#EFEFEF"/>
<path d="M210.884 221.331L211.38 223.448C211.543 224.218 211.516 224.98 211.298 225.736L210.65 227.813C210.551 227.905 210.643 228.004 210.742 227.912L212.86 227.415C213.629 227.252 214.392 227.279 215.148 227.497L217.224 228.144C217.316 228.243 217.415 228.151 217.323 228.052L216.827 225.934C216.664 225.165 216.691 224.402 216.909 223.646L217.557 221.57C217.656 221.478 217.564 221.379 217.465 221.471L215.347 221.968C214.578 222.131 213.815 222.104 213.059 221.886L210.983 221.239C210.983 221.239 210.983 221.239 210.884 221.331Z" fill="#EFEFEF"/>
<path d="M332.942 211.482C333.494 212.074 334.447 212.109 335.04 211.557C335.632 211.006 335.667 210.052 335.115 209.46C334.564 208.867 333.611 208.833 333.018 209.385C332.333 209.837 332.299 210.791 332.942 211.482Z" fill="#EFEFEF"/>
<path d="M163.286 51.1517C163.837 51.7442 164.791 51.7784 165.383 51.2269C165.976 50.6754 166.01 49.7221 165.459 49.1297C164.908 48.5372 163.954 48.503 163.362 49.0545C162.868 49.514 162.735 50.5592 163.286 51.1517Z" fill="#EFEFEF"/>
<path d="M154.359 168.906C154.818 169.399 155.489 169.328 155.884 168.96C156.378 168.501 156.307 167.83 155.939 167.435C155.48 166.941 154.809 167.013 154.414 167.38C154.019 167.748 153.991 168.511 154.359 168.906Z" fill="#EFEFEF"/>
<path d="M215.581 260.443C216.132 261.036 217.086 261.07 217.678 260.518C218.271 259.967 218.305 259.014 217.754 258.421C217.203 257.829 216.249 257.795 215.657 258.346C215.064 258.897 215.03 259.851 215.581 260.443Z" fill="#EFEFEF"/>
<path d="M188.553 210.603C188.335 210.806 187.993 210.794 187.79 210.576C187.587 210.358 187.6 210.016 187.818 209.813C188.036 209.61 188.377 209.622 188.58 209.841C188.783 210.059 188.771 210.4 188.553 210.603Z" fill="#EFEFEF"/>
<path d="M218.038 253.182C217.766 253.435 217.339 253.42 217.085 253.147C216.831 252.875 216.847 252.448 217.119 252.194C217.392 251.94 217.819 251.956 218.073 252.228C218.326 252.501 218.311 252.928 218.038 253.182Z" fill="#EFEFEF"/>
<path d="M207.04 256.415C207.316 256.711 207.697 256.724 207.993 256.449C208.29 256.173 208.303 255.792 208.028 255.495C207.752 255.199 207.371 255.186 207.075 255.461C206.87 255.836 206.856 256.217 207.04 256.415Z" fill="#EFEFEF"/>
<path d="M107.903 138.987C108.179 139.284 108.56 139.297 108.857 139.021C109.153 138.746 109.167 138.364 108.891 138.068C108.615 137.772 108.234 137.758 107.938 138.034C107.641 138.31 107.628 138.691 107.903 138.987Z" fill="#EFEFEF"/>
<path d="M165.036 87.2952C165.495 87.789 166.166 87.7175 166.561 87.3499C167.055 86.8903 166.984 86.2196 166.616 85.8246C166.157 85.3309 165.486 85.4023 165.091 85.77C164.696 86.1376 164.668 86.9002 165.036 87.2952Z" fill="#EFEFEF"/>
<path d="M169.603 85.0722C169.483 85.7361 169.943 86.2298 170.607 86.3491C171.271 86.4683 171.764 86.0087 171.884 85.3448C172.003 84.6809 171.544 84.1872 170.88 84.068C170.216 83.9487 169.623 84.5002 169.603 85.0722Z" fill="#EFEFEF"/>
<path d="M338.801 284.522C338.682 285.186 339.141 285.68 339.805 285.799C340.469 285.918 340.963 285.459 341.082 284.795C341.202 284.131 340.742 283.637 340.078 283.518C339.506 283.497 338.822 283.95 338.801 284.522Z" fill="#EFEFEF"/>
<path d="M275.507 168.38C275.388 169.043 275.847 169.537 276.511 169.656C277.175 169.776 277.669 169.316 277.788 168.652C277.908 167.988 277.448 167.495 276.784 167.375C276.212 167.355 275.627 167.716 275.507 168.38Z" fill="#EFEFEF"/>
<path d="M200.182 187.252C199.95 188.389 200.77 189.469 202.006 189.608C203.143 189.84 204.222 189.02 204.363 187.784C204.594 186.647 203.774 185.567 202.538 185.428C201.303 185.288 200.223 186.108 200.182 187.252Z" fill="#EFEFEF"/>
<path d="M171.018 80.2549C171.293 80.5512 171.675 80.5648 171.971 80.2891C172.267 80.0133 172.281 79.632 172.005 79.3358C171.73 79.0395 171.348 79.0259 171.052 79.3016C170.756 79.5774 170.742 79.9587 171.018 80.2549Z" fill="#EFEFEF"/>
<path d="M217.424 87.741C217.7 88.0372 218.081 88.0508 218.377 87.7751C218.673 87.4994 218.687 87.1181 218.412 86.8218C218.136 86.5256 217.755 86.5119 217.458 86.7877C217.254 87.1622 217.24 87.5435 217.424 87.741Z" fill="#EFEFEF"/>
<path d="M333.164 282.029C333.44 282.325 333.821 282.339 334.117 282.063C334.414 281.787 334.427 281.406 334.152 281.11C333.876 280.814 333.495 280.8 333.199 281.076C332.994 281.45 332.98 281.832 333.164 282.029Z" fill="#EFEFEF"/>
<path d="M283.05 176.286C282.777 176.539 282.35 176.524 282.097 176.251C281.843 175.979 281.858 175.552 282.131 175.298C282.404 175.044 282.831 175.06 283.084 175.332C283.338 175.605 283.323 176.032 283.05 176.286Z" fill="#EFEFEF"/>
<path d="M245.856 167.412C246.132 167.708 246.513 167.722 246.81 167.446C247.106 167.171 247.12 166.789 246.844 166.493C246.569 166.197 246.187 166.183 245.891 166.459C245.595 166.735 245.581 167.116 245.856 167.412Z" fill="#EFEFEF"/>
<path d="M209.377 196.936C209.837 197.43 210.599 197.457 211.093 196.998C211.587 196.538 211.615 195.776 211.155 195.282C210.696 194.788 209.933 194.761 209.439 195.221C208.938 195.871 209.01 196.541 209.377 196.936Z" fill="#EFEFEF"/>
<path d="M323.071 212.561C323.347 212.857 323.728 212.87 324.025 212.595C324.321 212.319 324.335 211.938 324.059 211.641C323.783 211.345 323.402 211.332 323.106 211.607C322.809 211.883 322.888 212.363 323.071 212.561Z" fill="#EFEFEF"/>
<path d="M156.989 172.723C156.716 172.977 156.289 172.962 156.035 172.689C155.781 172.416 155.797 171.989 156.07 171.736C156.342 171.482 156.769 171.497 157.023 171.77C157.277 172.043 157.261 172.469 156.989 172.723Z" fill="#EFEFEF"/>
</g>
<path d="M317.002 254.264C335.982 239.899 360.276 236.795 380.817 244.705C389.668 247.957 400.089 247.178 405.132 239.985C410.346 233.019 403.413 220.319 388.924 216.891C357.763 209.733 326.101 219.303 304.766 240.424C295.144 250.016 292.868 262.045 296.417 264.157C300.363 266.323 308.669 260.393 317.002 254.264Z" fill="url(#paint11_radial)"/>
<path d="M309.33 255.628C329.694 232.753 362.42 227.176 388.251 240.678C392.225 242.646 396.954 242.088 399.009 238.933C401.291 235.607 399.147 230.655 394.209 228.35C361.803 214.139 324.42 224.129 303.731 250.803C300.545 254.813 299.685 259.551 301.361 260.593C302.838 261.607 306.227 259.042 309.33 255.628Z" fill="url(#paint12_radial)"/>
<path d="M393.118 224.556C394.623 225.372 396.127 226.188 396.981 227.319C398.381 230.346 398.365 233.379 397.384 236.076C395.041 238.382 390.737 238.797 387.359 236.911C361.527 223.41 328.548 229.356 308.553 252.484C306.608 254.845 304.32 256.754 302.623 257.328C301.592 254.554 302.48 249.618 305.434 244.361C326.443 219.755 362.045 210.935 393.118 224.556Z" fill="url(#paint13_radial)"/>
<path d="M304.65 254.371C325.566 227.525 362.75 217.508 395.327 231.946C399.329 233.715 401.638 237.476 401.026 240.427C399.053 242.986 396.226 244.415 393.057 245.392C391.866 245.227 390.505 244.835 389.37 244.273C363.538 230.772 330.614 236.321 310.448 259.223C310.195 259.593 309.969 259.764 309.743 259.935C306.662 261.733 303.835 263.162 301.597 263.256C301.024 261.558 302.143 257.868 304.65 254.371Z" fill="url(#paint14_radial)"/>
<path d="M378.969 236.152C380.441 243.034 387.314 247.428 394.192 245.954C401.07 244.481 405.462 237.602 403.991 230.72C402.519 223.837 395.646 219.443 388.768 220.917C381.89 222.391 377.498 229.269 378.969 236.152Z" fill="url(#paint15_radial)"/>
<path opacity="0.5" d="M377.526 236.356C379.284 244.088 386.895 248.989 394.595 247.427C402.321 245.666 407.221 238.049 405.463 230.317C403.903 222.613 396.292 217.711 388.593 219.274C380.668 221.007 375.768 228.624 377.526 236.356Z" fill="url(#paint16_radial)"/>
<path d="M403.771 232.308C402.3 225.426 395.427 221.032 388.549 222.505C383.765 223.46 380.211 227.217 379.009 231.502C379.726 226.34 383.561 222.016 388.968 220.945C395.675 219.245 402.548 223.639 403.992 230.72C404.51 232.815 404.433 234.828 403.931 236.985C404.152 235.397 403.975 233.753 403.771 232.308Z" fill="url(#paint17_radial)"/>
<path opacity="0.25" d="M388.174 242.691C395.052 241.217 399.444 234.339 397.973 227.456C397.312 224.936 396.027 222.532 394.236 220.866C399.141 221.952 403.065 225.734 403.991 230.72C405.463 237.602 401.07 244.48 394.192 245.954C389.805 246.964 385.551 245.564 382.508 242.714C384.492 242.989 386.306 243.038 388.174 242.691Z" fill="url(#paint18_radial)"/>
<path opacity="0.25" d="M380.745 226.279C380.58 227.471 380.812 228.717 381.043 229.963C382.542 236.647 389.045 240.788 395.725 239.286C399.688 238.42 402.68 235.799 404.394 232.192C404.929 238.54 400.674 244.425 394.419 245.783C387.541 247.257 380.668 242.863 379.197 235.98C378.249 232.611 378.943 229.065 380.745 226.279Z" fill="url(#paint19_radial)"/>
<path d="M398.431 228.531C399.285 229.662 400.591 230.45 401.467 229.965C402.145 229.452 402.14 228.034 401.313 226.705C400.486 225.376 399.153 224.787 398.475 225.3C397.797 225.813 397.802 227.23 398.431 228.531Z" fill="url(#paint20_radial)"/>
<path d="M398.25 225.471C398.872 225.355 400.008 225.917 400.664 227.02C401.319 228.123 401.551 229.369 401.044 230.108C400.223 230.197 399.313 229.463 398.432 228.532C397.776 227.429 397.77 226.011 398.25 225.471Z" fill="url(#paint21_radial)"/>
<path d="M393.311 230.452C393.652 230.904 394.22 231.185 394.474 230.815C394.898 230.672 394.981 230.076 394.639 229.624C394.496 229.2 393.928 228.918 393.476 229.26C393.052 229.404 392.969 230 393.311 230.452Z" fill="url(#paint22_radial)"/>
<path d="M393.311 230.452C393.652 230.904 394.22 231.185 394.474 230.815C394.898 230.672 394.981 230.076 394.639 229.624C394.496 229.2 393.928 228.918 393.476 229.26C393.052 229.404 392.969 230 393.311 230.452Z" fill="url(#paint23_radial)"/>
<path d="M393.475 229.26C393.674 229.288 394.07 229.343 394.412 229.795C394.555 230.22 394.699 230.644 394.247 230.986C393.822 231.13 393.453 230.876 393.31 230.451C393.167 230.027 393.023 229.602 393.475 229.26Z" fill="url(#paint24_radial)"/>
<path d="M389.447 234.975C389.187 233.927 388.449 233.42 387.826 233.536C387.203 233.652 386.47 234.562 386.729 235.609C386.818 236.431 387.727 237.164 388.35 237.049C389.171 236.96 389.706 236.022 389.447 234.975Z" fill="url(#paint25_radial)"/>
<path d="M388.774 236.905C388.179 236.822 387.667 236.144 387.352 235.493C387.264 234.671 387.573 233.905 388.223 233.59C388.818 233.673 389.358 234.153 389.447 234.974C389.733 235.824 389.199 236.761 388.774 236.905Z" fill="url(#paint26_radial)"/>
<path d="M394.153 236.033C394.214 237.053 394.897 237.958 395.691 238.068C396.512 237.979 397.218 237.268 397.157 236.247C397.096 235.227 396.413 234.323 395.619 234.213C394.798 234.301 394.093 235.013 394.153 236.033Z" fill="url(#paint27_radial)"/>
<path d="M395.223 234.158C395.989 234.466 396.501 235.144 396.363 236.137C396.424 237.157 395.719 237.869 395.096 237.985C394.528 237.704 394.016 237.026 393.927 236.204C394.065 235.211 394.572 234.472 395.223 234.158Z" fill="url(#paint28_radial)"/>
<path d="M395.84 225.339C396.353 226.017 396.948 226.1 397.201 225.73C397.455 225.36 397.312 224.936 396.799 224.258C396.259 223.778 395.691 223.497 395.438 223.866C395.184 224.236 395.3 224.859 395.84 225.339Z" fill="url(#paint29_radial)"/>
<path d="M395.384 224.263C395.808 224.12 396.205 224.175 396.546 224.627C397.087 225.107 397.23 225.531 396.976 225.901C396.75 226.072 396.183 225.791 395.841 225.339C395.472 225.085 395.356 224.462 395.384 224.263Z" fill="url(#paint30_radial)"/>
<path d="M400.007 233.202C400.266 234.25 401.004 234.757 401.429 234.614C402.051 234.498 402.388 233.533 401.903 232.656C401.418 231.779 400.905 231.101 400.282 231.217C399.659 231.333 399.72 232.353 400.007 233.202Z" fill="url(#paint31_radial)"/>
<path d="M400.007 233.202C400.266 234.25 401.004 234.757 401.429 234.614C402.051 234.498 402.388 233.533 401.903 232.656C401.418 231.779 400.905 231.101 400.282 231.217C399.659 231.333 399.72 232.353 400.007 233.202Z" fill="url(#paint32_radial)"/>
<path d="M400.254 231.415C400.849 231.498 401.191 231.95 401.477 232.799C401.764 233.649 401.654 234.443 401.202 234.785C400.805 234.73 400.265 234.25 399.978 233.401C399.719 232.353 399.83 231.559 400.254 231.415Z" fill="url(#paint33_radial)"/>
<path d="M382.073 232.738C381.813 231.69 381.273 231.21 380.651 231.326C380.028 231.442 379.89 232.435 379.978 233.257C380.237 234.305 380.777 234.784 381.4 234.668C382.023 234.552 382.359 233.587 382.073 232.738Z" fill="url(#paint34_radial)"/>
<path d="M381.797 234.723C381.4 234.668 380.887 233.989 380.601 233.14C380.314 232.291 380.623 231.524 381.075 231.182C381.472 231.237 381.984 231.915 382.271 232.765C382.359 233.586 382.05 234.353 381.797 234.723Z" fill="url(#paint35_radial)"/>
<g opacity="0.5">
<path opacity="0.5" d="M386.014 240.771C385.502 240.093 384.934 239.812 384.482 240.154C384.058 240.298 384.146 241.119 384.658 241.797C385.198 242.277 385.766 242.558 386.19 242.415C386.642 242.073 386.527 241.45 386.014 240.771Z" fill="url(#paint36_radial)"/>
<path opacity="0.5" d="M386.014 240.771C385.502 240.093 384.934 239.812 384.482 240.154C384.058 240.298 384.146 241.119 384.658 241.797C385.198 242.277 385.766 242.558 386.19 242.415C386.642 242.073 386.527 241.45 386.014 240.771Z" fill="url(#paint37_radial)"/>
<path opacity="0.5" d="M386.218 242.217C385.793 242.36 385.452 241.908 384.911 241.428C384.57 240.976 384.454 240.353 384.707 239.983C385.132 239.84 385.474 240.292 386.014 240.772C386.554 241.251 386.471 241.847 386.218 242.217Z" fill="url(#paint38_radial)"/>
</g>
<path d="M384.773 235.136C384.432 234.684 383.864 234.403 383.638 234.574C383.412 234.745 383.329 235.34 383.671 235.793C384.013 236.245 384.58 236.526 384.806 236.355C385.032 236.184 385.115 235.588 384.773 235.136Z" fill="url(#paint39_radial)"/>
<path d="M384.835 236.156C384.636 236.128 384.041 236.046 383.898 235.621C383.556 235.169 383.611 234.772 383.666 234.375C383.865 234.402 384.46 234.485 384.603 234.91C384.917 235.56 385.06 235.985 384.835 236.156Z" fill="url(#paint40_radial)"/>
<path d="M387.088 225.743C388.02 224.861 388.383 223.697 387.871 223.019C387.358 222.34 386.113 222.572 384.955 223.626C384.024 224.508 383.434 225.843 384.173 226.35C384.685 227.029 385.931 226.797 387.088 225.743Z" fill="url(#paint41_radial)"/>
<path d="M387.088 225.743C388.02 224.861 388.383 223.697 387.871 223.019C387.358 222.34 386.113 222.572 384.955 223.626C384.024 224.508 383.434 225.843 384.173 226.35C384.685 227.029 385.931 226.797 387.088 225.743Z" fill="url(#paint42_radial)"/>
<path d="M384.345 226.577C384.229 225.953 384.565 224.988 385.496 224.106C386.428 223.223 387.475 222.964 388.043 223.245C388.158 223.868 387.822 224.833 386.891 225.716C386.158 226.626 385.111 226.885 384.345 226.577Z" fill="url(#paint43_radial)"/>
<path d="M390.052 223.321C390.703 223.007 390.956 222.637 390.813 222.213C390.67 221.788 390.074 221.705 389.623 222.047C389 222.163 388.719 222.731 388.89 222.957C389.033 223.382 389.43 223.437 390.052 223.321Z" fill="url(#paint44_radial)"/>
<path d="M388.863 223.156C388.89 222.957 389.144 222.588 389.766 222.472C390.191 222.328 390.786 222.411 390.957 222.637C390.929 222.836 390.676 223.205 390.053 223.321C389.629 223.465 389.033 223.382 388.863 223.156Z" fill="url(#paint45_radial)"/>
<path d="M399.296 239.782C398.844 240.124 398.761 240.72 398.932 240.946C399.103 241.172 399.726 241.056 400.177 240.714C400.629 240.372 400.712 239.776 400.541 239.55C400.199 239.098 399.775 239.241 399.296 239.782Z" fill="url(#paint46_radial)"/>
<path d="M399.296 239.782C398.844 240.124 398.761 240.72 398.932 240.946C399.103 241.172 399.726 241.056 400.177 240.714C400.629 240.372 400.712 239.776 400.541 239.55C400.199 239.098 399.775 239.241 399.296 239.782Z" fill="url(#paint47_radial)"/>
<path d="M400.371 239.324C400.542 239.55 400.261 240.118 400.007 240.488C399.555 240.83 399.131 240.973 398.933 240.946C398.762 240.72 399.043 240.152 399.296 239.782C399.748 239.44 400.173 239.297 400.371 239.324Z" fill="url(#paint48_radial)"/>
<path d="M383.253 237.353C382.597 236.25 381.461 235.688 380.784 236.201C380.106 236.714 380.139 237.933 380.993 239.063C381.649 240.166 382.784 240.728 383.462 240.215C383.942 239.675 383.908 238.456 383.253 237.353Z" fill="url(#paint49_radial)"/>
<path d="M383.49 240.017C382.867 240.133 381.93 239.598 381.247 238.694C380.563 237.789 380.503 236.769 380.784 236.201C381.407 236.085 382.344 236.62 383.027 237.524C383.71 238.428 383.969 239.476 383.49 240.017Z" fill="url(#paint50_radial)"/>
<path opacity="0.5" d="M382.2 228.91C382.172 229.108 382.542 229.362 382.768 229.191C382.966 229.219 383.22 228.849 383.049 228.623C383.076 228.424 382.707 228.171 382.481 228.342C382.255 228.513 382.228 228.711 382.2 228.91Z" fill="url(#paint51_radial)"/>
<path opacity="0.5" d="M382.916 231.033C382.889 231.232 383.087 231.259 383.285 231.287C383.484 231.314 383.511 231.116 383.539 230.917C383.566 230.719 383.368 230.691 383.17 230.663C382.944 230.834 382.916 231.033 382.916 231.033Z" fill="url(#paint52_radial)"/>
<path opacity="0.5" d="M400.106 236.859C400.078 237.057 400.448 237.311 400.674 237.14C400.872 237.168 401.126 236.798 400.955 236.572C400.982 236.373 400.585 236.318 400.387 236.291C400.161 236.462 399.935 236.633 400.106 236.859Z" fill="url(#paint53_radial)"/>
<path opacity="0.5" d="M398.562 233.407C398.534 233.605 398.733 233.633 398.931 233.66C399.13 233.688 399.157 233.489 399.185 233.291C399.212 233.092 399.041 232.866 398.815 233.037C398.617 233.01 398.589 233.208 398.562 233.407Z" fill="url(#paint54_radial)"/>
<path opacity="0.5" d="M394.655 241.162C394.771 241.785 395.509 242.292 396.33 242.204C396.953 242.088 397.46 241.349 397.372 240.527C397.256 239.904 396.518 239.396 395.697 239.485C395.046 239.799 394.539 240.538 394.655 241.162Z" fill="url(#paint55_radial)"/>
<path opacity="0.5" d="M392.721 239.072C392.693 239.27 393.062 239.524 393.288 239.353C393.487 239.38 393.74 239.011 393.569 238.785C393.597 238.586 393.228 238.333 393.002 238.504C392.776 238.675 392.55 238.846 392.721 239.072Z" fill="url(#paint56_radial)"/>
<path opacity="0.5" d="M392.843 241.112C393.014 241.338 393.212 241.366 393.41 241.394C393.609 241.421 393.636 241.223 393.664 241.024C393.691 240.825 393.493 240.798 393.295 240.77C392.898 240.715 392.87 240.914 392.843 241.112Z" fill="url(#paint57_radial)"/>
<path opacity="0.5" d="M402.597 236.395C402.569 236.594 402.768 236.621 402.966 236.649C403.164 236.676 403.192 236.478 403.22 236.279C403.247 236.081 403.049 236.053 402.85 236.025C402.652 235.998 402.426 236.169 402.597 236.395Z" fill="url(#paint58_radial)"/>
<path opacity="0.5" d="M397.731 230.66C397.703 230.859 397.901 230.887 398.1 230.914C398.298 230.942 398.326 230.743 398.353 230.544C398.381 230.346 398.182 230.318 397.984 230.291C397.758 230.462 397.731 230.66 397.731 230.66Z" fill="url(#paint59_radial)"/>
<path opacity="0.5" d="M392.296 224.644C392.439 225.069 392.808 225.323 393.205 225.378C393.63 225.234 393.911 224.666 393.767 224.242C393.624 223.817 393.255 223.563 392.83 223.707C392.406 223.85 392.153 224.22 392.296 224.644Z" fill="url(#paint60_radial)"/>
<path opacity="0.5" d="M395.112 227.666C395.085 227.865 395.283 227.892 395.482 227.92C395.68 227.947 395.708 227.749 395.735 227.55C395.763 227.352 395.564 227.324 395.366 227.297C395.167 227.269 394.942 227.44 395.112 227.666Z" fill="url(#paint61_radial)"/>
<path opacity="0.5" d="M393.365 222.769C393.338 222.968 393.707 223.221 393.933 223.05C394.159 222.879 394.385 222.708 394.214 222.482C394.241 222.284 393.872 222.03 393.646 222.201C393.448 222.174 393.393 222.571 393.365 222.769Z" fill="url(#paint62_radial)"/>
<path opacity="0.5" d="M396.738 223.237C396.711 223.436 396.909 223.463 397.108 223.491C397.306 223.518 397.334 223.32 397.361 223.121C397.389 222.923 397.19 222.895 396.992 222.868C396.766 223.039 396.738 223.237 396.738 223.237Z" fill="url(#paint63_radial)"/>
<path opacity="0.5" d="M387.827 226.25C387.943 226.874 388.483 227.353 389.304 227.265C389.927 227.149 390.235 226.382 390.12 225.759C390.004 225.136 389.464 224.656 388.615 224.943C387.992 225.059 387.711 225.627 387.827 226.25Z" fill="url(#paint64_radial)"/>
<path opacity="0.5" d="M391.095 228.93C391.067 229.128 391.436 229.382 391.662 229.211C391.861 229.239 392.114 228.869 391.943 228.643C391.971 228.444 391.602 228.191 391.376 228.362C391.376 228.362 391.122 228.731 391.095 228.93Z" fill="url(#paint65_radial)"/>
<path opacity="0.5" d="M382.359 226.301C382.332 226.499 382.53 226.527 382.728 226.554C382.927 226.582 382.954 226.383 382.982 226.185C383.037 225.788 382.839 225.76 382.64 225.733C382.414 225.904 382.387 226.102 382.359 226.301Z" fill="url(#paint66_radial)"/>
<path opacity="0.5" d="M384.503 231.253C384.674 231.479 384.845 231.705 385.044 231.733C385.269 231.562 385.495 231.391 385.523 231.192C385.352 230.966 385.181 230.74 384.983 230.713C384.586 230.657 384.333 231.027 384.503 231.253Z" fill="url(#paint67_radial)"/>
<path opacity="0.5" d="M385.192 233.575C385.165 233.773 385.534 234.027 385.76 233.856C385.958 233.884 386.212 233.514 386.041 233.288C386.069 233.089 385.699 232.836 385.473 233.007C385.275 232.979 385.021 233.349 385.192 233.575Z" fill="url(#paint68_radial)"/>
<path opacity="0.5" d="M390.814 236.783C390.787 236.982 391.156 237.236 391.382 237.065C391.58 237.092 391.834 236.723 391.663 236.496C391.691 236.298 391.321 236.044 391.095 236.215C390.869 236.386 390.842 236.585 390.814 236.783Z" fill="url(#paint69_radial)"/>
<path opacity="0.5" d="M385.606 237.882C385.579 238.081 385.948 238.334 386.174 238.163C386.372 238.191 386.626 237.821 386.455 237.595C386.483 237.397 386.113 237.143 385.887 237.314C385.689 237.286 385.661 237.485 385.606 237.882Z" fill="url(#paint70_radial)"/>
<path opacity="0.5" d="M386.008 239.354C385.98 239.553 386.179 239.58 386.377 239.608C386.576 239.635 386.603 239.437 386.631 239.238C386.658 239.04 386.46 239.012 386.261 238.985C386.261 238.985 386.035 239.156 386.008 239.354Z" fill="url(#paint71_radial)"/>
<path opacity="0.5" d="M386.846 243.518C386.989 243.943 387.358 244.196 387.783 244.053C388.207 243.909 388.46 243.54 388.317 243.115C388.174 242.691 387.805 242.437 387.38 242.581C386.956 242.724 386.702 243.094 386.846 243.518Z" fill="url(#paint72_radial)"/>
<path opacity="0.5" d="M385.401 243.722C385.374 243.921 385.572 243.949 385.771 243.976C385.969 244.004 385.997 243.805 386.024 243.607C386.052 243.408 385.853 243.38 385.655 243.353C385.429 243.524 385.401 243.722 385.401 243.722Z" fill="url(#paint73_radial)"/>
<path opacity="0.5" d="M383.016 241.975C382.989 242.173 383.187 242.201 383.187 242.201C383.386 242.228 383.413 242.03 383.413 242.03C383.441 241.831 383.242 241.804 383.242 241.804C383.071 241.578 383.044 241.776 383.016 241.975Z" fill="url(#paint74_radial)"/>
<path opacity="0.5" d="M379.532 235.015C379.505 235.214 379.703 235.241 379.902 235.269C380.1 235.297 380.128 235.098 380.155 234.899C380.183 234.701 379.984 234.673 379.786 234.646C379.56 234.817 379.532 235.015 379.532 235.015Z" fill="url(#paint75_radial)"/>
<path opacity="0.5" d="M379.879 229.6C379.852 229.798 380.05 229.826 380.05 229.826C380.249 229.853 380.276 229.655 380.276 229.655C380.304 229.456 380.105 229.429 380.105 229.429C380.105 229.429 379.907 229.401 379.879 229.6Z" fill="url(#paint76_radial)"/>
<path opacity="0.5" d="M384.763 232.301C385.628 236.266 389.519 238.83 393.68 237.991C397.643 237.124 400.233 233.031 399.368 229.066C398.502 225.101 394.413 222.51 390.45 223.377C386.488 224.243 383.925 228.137 384.763 232.301Z" fill="url(#paint77_radial)"/>
<g clip-path="url(#clip0)">
<path d="M327.308 197.034C348.378 197.034 365.459 179.864 365.459 158.683C365.459 137.502 348.378 120.331 327.308 120.331C306.238 120.331 289.157 137.502 289.157 158.683C289.157 179.864 306.238 197.034 327.308 197.034Z" fill="url(#paint78_radial)"/>
<path opacity="0.5" d="M293.055 162.601C293.055 141.407 310.122 124.249 331.205 124.249C340.832 124.249 349.572 127.811 356.305 133.748C349.336 125.674 339.06 120.569 327.603 120.569C306.52 120.569 289.452 137.726 289.452 158.92C289.452 170.438 294.531 180.768 302.504 187.773C296.598 181.064 293.055 172.219 293.055 162.601Z" fill="url(#paint79_radial)"/>
<path opacity="0.5" d="M298.488 177.621C288.921 158.801 296.303 135.707 315.083 126.03C323.646 121.637 333.095 120.806 341.718 123.003C331.855 119.025 320.398 119.203 310.24 124.487C291.46 134.104 284.019 157.198 293.645 176.077C298.842 186.348 308.055 193.235 318.331 195.788C310.004 192.463 302.858 186.229 298.488 177.621Z" fill="url(#paint80_radial)"/>
<path opacity="0.5" d="M344.257 124.309C351.049 130.186 355.419 138.854 355.419 148.59C355.419 166.222 341.187 180.471 323.706 180.471C306.166 180.471 291.992 166.163 291.992 148.59C291.992 146.75 292.169 144.909 292.464 143.128C290.338 147.878 289.157 153.161 289.157 158.683C289.157 179.877 306.225 197.034 327.308 197.034C348.391 197.034 365.459 179.877 365.459 158.683C365.459 143.603 356.837 130.602 344.257 124.309Z" fill="url(#paint81_radial)"/>
<path opacity="0.5" d="M315.851 121.696C324.769 121.222 333.864 124.546 340.537 131.552C352.585 144.316 352.112 164.501 339.356 176.612C326.659 188.723 306.579 188.248 294.532 175.424C293.232 174.059 292.11 172.634 291.106 171.15C292.819 176.077 295.595 180.708 299.374 184.686C313.902 200.062 338.057 200.656 353.294 186.111C368.53 171.565 369.18 147.225 354.711 131.908C344.376 121.043 329.257 117.6 315.851 121.696Z" fill="url(#paint82_radial)"/>
<g opacity="0.5">
<path opacity="0.5" d="M385.775 128.939C383.412 124.071 375.558 123.359 361.679 126.861C358.549 127.633 355.242 128.642 351.758 129.77C352.644 130.423 353.411 131.136 354.179 131.908C355.242 132.798 356.187 133.807 357.132 134.876C358.727 134.401 360.262 133.926 361.797 133.57C375.735 129.889 379.396 131.492 379.928 131.848C379.869 132.501 378.865 136.42 367.349 145.087C358.077 152.093 345.261 159.751 331.147 166.578C317.032 173.406 303.154 178.808 291.933 181.777C277.995 185.457 274.334 183.854 273.802 183.498C273.861 182.845 274.865 178.927 286.382 170.259C287.622 169.309 288.98 168.359 290.338 167.35C289.63 165.035 289.216 162.72 289.275 160.285C286.382 162.245 283.724 164.144 281.303 166.044C269.964 174.831 265.653 181.48 267.956 186.348C269.314 189.198 272.562 190.622 277.759 190.622C281.48 190.622 286.263 189.91 292.051 188.426C303.922 185.457 318.804 179.758 333.923 172.337C349.1 164.975 362.742 156.723 372.428 149.243C383.767 140.457 388.137 133.807 385.775 128.939Z" fill="url(#paint83_radial)"/>
</g>
<path opacity="0.5" d="M335.045 167.706C380.342 145.978 387.015 132.026 382.231 128.583C377.684 125.318 364.16 128.761 354.711 132.323C355.597 133.095 356.423 133.926 357.191 134.817C358.786 134.342 360.321 133.867 361.857 133.511C375.794 129.83 379.456 131.433 379.987 131.789C379.928 132.442 378.924 136.36 367.408 145.028C358.136 152.033 345.321 159.692 331.206 166.519C317.091 173.346 303.154 178.808 291.933 181.777C277.996 185.457 274.334 183.855 273.803 183.498C273.862 182.845 274.866 178.927 286.382 170.259C287.622 169.309 288.98 168.36 290.339 167.35C289.866 165.925 289.571 164.441 289.394 162.898C284.256 166.579 266.42 179.936 270.436 184.448C275.161 189.673 289.748 189.435 335.045 167.706Z" fill="url(#paint84_radial)"/>
</g>
<path fill-rule="evenodd" clip-rule="evenodd" d="M0.365234 40.1132C2.29071 39.5674 4.33639 38.9799 6.50495 38.357C17.7445 35.1289 32.285 30.9526 50.5005 26.733C76.5676 20.6945 87.1343 19.0928 101.5 28.733C104.642 30.8414 106.531 32.4886 108.11 33.8658C112.884 38.0285 114.829 39.7246 140 44.233C149.873 46.0012 162.19 45.2583 173.843 44.5555C188.621 43.6641 202.33 42.8372 208.628 47.2792C217.482 53.5312 222.434 62.5813 227.396 71.6479C231.77 79.6428 236.152 87.6505 243.222 93.7633C256.091 104.82 273.572 109.741 289.829 103.642C297.571 100.751 304.086 95.4633 310.597 90.1793C319.382 83.049 328.16 75.925 339.936 74.7024C359.48 72.7301 377.878 91.9072 380.261 110.51C383.299 134.769 387.233 150.086 412.338 160.627C414.076 161.351 415.846 162.035 417.621 162.721C423.528 165.004 429.486 167.308 434.485 171.157C440.336 175.662 444.099 182.478 445.553 189.785C443.621 177.211 439.378 170.473 431.345 165.603L430.883 165.327C422.712 160.44 414.31 155.414 407.913 148.346C399.443 138.906 398.035 129.029 396.488 118.169C394.398 103.5 392.052 87.0379 371.698 67.4408C359.98 56.2348 345.016 47.6805 328.769 48.2437C322.822 48.4415 316.897 49.6343 311.003 50.821C301.837 52.6666 292.743 54.4975 283.75 52.5485C271.631 49.8233 261.941 40.599 254.08 30.963C246.219 21.327 232.892 16.584 210.5 11.2331C202.402 9.29803 189.96 12.2584 176.074 15.5623C151.564 21.3942 122.555 28.2964 105 11.2331C87.3227 -5.94906 51.0513 0.404702 22.4812 5.4094C14.2635 6.84893 6.68291 8.17684 0.365234 8.80095V40.1132Z" fill="url(#paint85_linear)"/>
<defs>
<linearGradient id="paint0_linear" x1="414.535" y1="41.058" x2="29.4709" y2="264.407" gradientUnits="userSpaceOnUse">
<stop stop-color="#271A6B"/>
<stop offset="0.2115" stop-color="#2E1B71"/>
<stop offset="0.5268" stop-color="#431E81"/>
<stop offset="0.9052" stop-color="#64249B"/>
<stop offset="1" stop-color="#6D25A2"/>
</linearGradient>
<linearGradient id="paint1_linear" x1="285.285" y1="91.6463" x2="74.8746" y2="287.447" gradientUnits="userSpaceOnUse">
<stop stop-color="#BD1ACD"/>
<stop offset="0.193" stop-color="#B61BC9"/>
<stop offset="0.4806" stop-color="#A11EBE"/>
<stop offset="0.8258" stop-color="#8022AC"/>
<stop offset="1" stop-color="#6D25A2"/>
</linearGradient>
<linearGradient id="paint2_linear" x1="227.742" y1="121.583" x2="165.407" y2="144.808" gradientUnits="userSpaceOnUse">
<stop stop-color="#9796FE"/>
<stop offset="0.9927" stop-color="#FF7DFF"/>
</linearGradient>
<linearGradient id="paint3_linear" x1="227.742" y1="121.583" x2="192.946" y2="134.547" gradientUnits="userSpaceOnUse">
<stop stop-color="#9796FE"/>
<stop offset="0.9927" stop-color="#FF7DFF"/>
</linearGradient>
<linearGradient id="paint4_linear" x1="231.462" y1="136.441" x2="171.727" y2="158.697" gradientUnits="userSpaceOnUse">
<stop stop-color="#9796FE"/>
<stop offset="0.9927" stop-color="#FF7DFF"/>
</linearGradient>
<linearGradient id="paint5_linear" x1="208.945" y1="152.248" x2="177.431" y2="163.99" gradientUnits="userSpaceOnUse">
<stop stop-color="#9796FE"/>
<stop offset="0.9927" stop-color="#FF7DFF"/>
</linearGradient>
<linearGradient id="paint6_linear" x1="227.578" y1="121.142" x2="165.474" y2="144.281" gradientUnits="userSpaceOnUse">
<stop stop-color="#9796FE"/>
<stop offset="0.9927" stop-color="#FF7DFF"/>
</linearGradient>
<linearGradient id="paint7_linear" x1="217.96" y1="105.947" x2="162.07" y2="126.771" gradientUnits="userSpaceOnUse">
<stop stop-color="#9796FE"/>
<stop offset="0.9927" stop-color="#FF7DFF"/>
</linearGradient>
<linearGradient id="paint8_linear" x1="401.453" y1="191.682" x2="379.822" y2="211.811" gradientUnits="userSpaceOnUse">
<stop stop-color="#BD1ACD"/>
<stop offset="0.193" stop-color="#B61BC9"/>
<stop offset="0.4806" stop-color="#A11EBE"/>
<stop offset="0.8258" stop-color="#8022AC"/>
<stop offset="1" stop-color="#6D25A2"/>
</linearGradient>
<linearGradient id="paint9_linear" x1="182.393" y1="177.044" x2="160.762" y2="197.173" gradientUnits="userSpaceOnUse">
<stop stop-color="#BD1ACD"/>
<stop offset="0.193" stop-color="#B61BC9"/>
<stop offset="0.4806" stop-color="#A11EBE"/>
<stop offset="0.8258" stop-color="#8022AC"/>
<stop offset="1" stop-color="#6D25A2"/>
</linearGradient>
<linearGradient id="paint10_linear" x1="142.567" y1="91.5242" x2="118.459" y2="113.959" gradientUnits="userSpaceOnUse">
<stop stop-color="#BD1ACD"/>
<stop offset="0.193" stop-color="#B61BC9"/>
<stop offset="0.4806" stop-color="#A11EBE"/>
<stop offset="0.8258" stop-color="#8022AC"/>
<stop offset="1" stop-color="#6D25A2"/>
</linearGradient>
<radialGradient id="paint11_radial" cx="0" cy="0" r="1" gradientUnits="userSpaceOnUse" gradientTransform="translate(401.483 224.719) rotate(167.676) scale(110.389 88.0149)">
<stop offset="0.0814815" stop-color="#FFE245"/>
<stop offset="0.5259" stop-color="#DE007B" stop-opacity="0.4741"/>
<stop offset="1" stop-color="#E38427" stop-opacity="0"/>
</radialGradient>
<radialGradient id="paint12_radial" cx="0" cy="0" r="1" gradientUnits="userSpaceOnUse" gradientTransform="translate(395.207 227.251) rotate(167.676) scale(103.111 36.5295)">
<stop offset="0.0814815" stop-color="#FFE245"/>
<stop offset="0.5259" stop-color="#DE007B" stop-opacity="0.4741"/>
<stop offset="1" stop-color="#E38427" stop-opacity="0"/>
</radialGradient>
<radialGradient id="paint13_radial" cx="0" cy="0" r="1" gradientUnits="userSpaceOnUse" gradientTransform="translate(393.535 223.712) rotate(167.676) scale(93.5257 93.5762)">
<stop offset="0.0814815" stop-color="#FFE245"/>
<stop offset="0.5259" stop-color="#DE007B" stop-opacity="0.4741"/>
<stop offset="1" stop-color="#E38427" stop-opacity="0"/>
</radialGradient>
<radialGradient id="paint14_radial" cx="0" cy="0" r="1" gradientUnits="userSpaceOnUse" gradientTransform="translate(396.235 230.575) rotate(167.676) scale(96.7012 96.7534)">
<stop offset="0.0814815" stop-color="#FFE245"/>
<stop offset="0.5259" stop-color="#DE007B" stop-opacity="0.4741"/>
<stop offset="1" stop-color="#E38427" stop-opacity="0"/>
</radialGradient>
<radialGradient id="paint15_radial" cx="0" cy="0" r="1" gradientUnits="userSpaceOnUse" gradientTransform="translate(393.151 224.822) rotate(167.761) scale(20.1616 20.1725)">
<stop offset="0.0814815" stop-color="#FFE245"/>
<stop offset="0.9963" stop-color="#E38427"/>
</radialGradient>
<radialGradient id="paint16_radial" cx="0" cy="0" r="1" gradientUnits="userSpaceOnUse" gradientTransform="translate(393.343 223.812) rotate(167.761) scale(22.5426 22.5548)">
<stop offset="0.0814815" stop-color="#FFE245"/>
<stop offset="0.9963" stop-color="#E38427"/>
</radialGradient>
<radialGradient id="paint17_radial" cx="0" cy="0" r="1" gradientUnits="userSpaceOnUse" gradientTransform="translate(393.184 223.513) rotate(167.761) scale(16.7442 16.7533)">
<stop offset="0.0814815" stop-color="#FFE245"/>
<stop offset="0.9963" stop-color="#E38427"/>
</radialGradient>
<radialGradient id="paint18_radial" cx="0" cy="0" r="1" gradientUnits="userSpaceOnUse" gradientTransform="translate(394.149 225.621) rotate(167.761) scale(18.9181 18.9283)">
<stop offset="0.0814815" stop-color="#FFE245"/>
<stop offset="0.9963" stop-color="#E38427"/>
</radialGradient>
<radialGradient id="paint19_radial" cx="0" cy="0" r="1" gradientUnits="userSpaceOnUse" gradientTransform="translate(389.512 256.228) rotate(167.761) scale(17.5112 17.5207)">
<stop offset="0.0814815" stop-color="#FFE245"/>
<stop offset="0.9963" stop-color="#E38427"/>
</radialGradient>
<radialGradient id="paint20_radial" cx="0" cy="0" r="1" gradientUnits="userSpaceOnUse" gradientTransform="translate(397.361 224.913) rotate(147.818) scale(6.14996 6.1507)">
<stop offset="0.0814815" stop-color="#FFE245"/>
<stop offset="0.9963" stop-color="#E38427"/>
</radialGradient>
<radialGradient id="paint21_radial" cx="0" cy="0" r="1" gradientUnits="userSpaceOnUse" gradientTransform="translate(397.231 225.092) rotate(147.818) scale(5.949 5.94972)">
<stop offset="0.0814815" stop-color="#FFE245"/>
<stop offset="0.9963" stop-color="#E38427"/>
</radialGradient>
<radialGradient id="paint22_radial" cx="0" cy="0" r="1" gradientUnits="userSpaceOnUse" gradientTransform="translate(393.027 229.109) rotate(147.819) scale(3.00288 2.21)">
<stop offset="0.0814815" stop-color="#FFE245"/>
<stop offset="0.9963" stop-color="#E38427"/>
</radialGradient>
<radialGradient id="paint23_radial" cx="0" cy="0" r="1" gradientUnits="userSpaceOnUse" gradientTransform="translate(393.027 229.109) rotate(147.819) scale(3.00288 2.21)">
<stop offset="0.0814815" stop-color="#FFE245"/>
<stop offset="0.9963" stop-color="#E38427"/>
</radialGradient>
<radialGradient id="paint24_radial" cx="0" cy="0" r="1" gradientUnits="userSpaceOnUse" gradientTransform="translate(392.956 229.187) rotate(147.819) scale(2.9046 2.13767)">
<stop offset="0.0814815" stop-color="#FFE245"/>
<stop offset="0.9963" stop-color="#E38427"/>
</radialGradient>
<radialGradient id="paint25_radial" cx="0" cy="0" r="1" gradientUnits="userSpaceOnUse" gradientTransform="translate(389.135 237.477) rotate(-10.1188) scale(5.35083 3.93998)">
<stop offset="0.0814815" stop-color="#FFE245"/>
<stop offset="0.9963" stop-color="#E38427"/>
</radialGradient>
<radialGradient id="paint26_radial" cx="0" cy="0" r="1" gradientUnits="userSpaceOnUse" gradientTransform="translate(389.303 237.394) rotate(-10.1187) scale(5.17608 3.8113)">
<stop offset="0.0814815" stop-color="#FFE245"/>
<stop offset="0.9963" stop-color="#E38427"/>
</radialGradient>
<radialGradient id="paint27_radial" cx="0" cy="0" r="1" gradientUnits="userSpaceOnUse" gradientTransform="translate(394.934 233.594) rotate(-179.171) scale(5.82751 4.2916)">
<stop offset="0.0814815" stop-color="#FFE245"/>
<stop offset="0.9963" stop-color="#E38427"/>
</radialGradient>
<radialGradient id="paint28_radial" cx="0" cy="0" r="1" gradientUnits="userSpaceOnUse" gradientTransform="translate(394.738 233.647) rotate(-179.171) scale(5.63698 4.15129)">
<stop offset="0.0814815" stop-color="#FFE245"/>
<stop offset="0.9963" stop-color="#E38427"/>
</radialGradient>
<radialGradient id="paint29_radial" cx="0" cy="0" r="1" gradientUnits="userSpaceOnUse" gradientTransform="translate(395.012 224.002) rotate(136.373) scale(2.69992 2.69949)">
<stop offset="0.0814815" stop-color="#FFE245"/>
<stop offset="0.9963" stop-color="#E38427"/>
</radialGradient>
<radialGradient id="paint30_radial" cx="0" cy="0" r="1" gradientUnits="userSpaceOnUse" gradientTransform="translate(394.972 224.09) rotate(136.373) scale(2.61174 2.61133)">
<stop offset="0.0814815" stop-color="#FFE245"/>
<stop offset="0.9963" stop-color="#E38427"/>
</radialGradient>
<radialGradient id="paint31_radial" cx="0" cy="0" r="1" gradientUnits="userSpaceOnUse" gradientTransform="translate(399.85 230.859) rotate(162.899) scale(3.97878 3.98059)">
<stop offset="0.0814815" stop-color="#FFE245"/>
<stop offset="0.9963" stop-color="#E38427"/>
</radialGradient>
<radialGradient id="paint32_radial" cx="0" cy="0" r="1" gradientUnits="userSpaceOnUse" gradientTransform="translate(399.85 230.859) rotate(162.899) scale(3.97878 3.98059)">
<stop offset="0.0814815" stop-color="#FFE245"/>
<stop offset="0.9963" stop-color="#E38427"/>
</radialGradient>
<radialGradient id="paint33_radial" cx="0" cy="0" r="1" gradientUnits="userSpaceOnUse" gradientTransform="translate(399.737 230.948) rotate(162.899) scale(3.84897 3.85072)">
<stop offset="0.0814815" stop-color="#FFE245"/>
<stop offset="0.9963" stop-color="#E38427"/>
</radialGradient>
<radialGradient id="paint34_radial" cx="0" cy="0" r="1" gradientUnits="userSpaceOnUse" gradientTransform="translate(382.108 235.141) rotate(-13.667) scale(3.97862 3.98068)">
<stop offset="0.0814815" stop-color="#FFE245"/>
<stop offset="0.9963" stop-color="#E38427"/>
</radialGradient>
<radialGradient id="paint35_radial" cx="0" cy="0" r="1" gradientUnits="userSpaceOnUse" gradientTransform="translate(382.225 235.057) rotate(-13.667) scale(3.84861 3.8506)">
<stop offset="0.0814815" stop-color="#FFE245"/>
<stop offset="0.9963" stop-color="#E38427"/>
</radialGradient>
<radialGradient id="paint36_radial" cx="0" cy="0" r="1" gradientUnits="userSpaceOnUse" gradientTransform="translate(386.727 242.479) rotate(-34.022) scale(3.04595 3.04618)">
<stop offset="0.0814815" stop-color="#FFE245"/>
<stop offset="0.9963" stop-color="#E38427"/>
</radialGradient>
<radialGradient id="paint37_radial" cx="0" cy="0" r="1" gradientUnits="userSpaceOnUse" gradientTransform="translate(386.727 242.479) rotate(-34.022) scale(3.04595 3.04618)">
<stop offset="0.0814815" stop-color="#FFE245"/>
<stop offset="0.9963" stop-color="#E38427"/>
</radialGradient>
<radialGradient id="paint38_radial" cx="0" cy="0" r="1" gradientUnits="userSpaceOnUse" gradientTransform="translate(386.789 242.389) rotate(-34.022) scale(2.94657 2.94679)">
<stop offset="0.0814815" stop-color="#FFE245"/>
<stop offset="0.9963" stop-color="#E38427"/>
</radialGradient>
<radialGradient id="paint39_radial" cx="0" cy="0" r="1" gradientUnits="userSpaceOnUse" gradientTransform="translate(385.2 236.416) rotate(-34.022) scale(2.40995 2.41014)">
<stop offset="0.0814815" stop-color="#FFE245"/>
<stop offset="0.9963" stop-color="#E38427"/>
</radialGradient>
<radialGradient id="paint40_radial" cx="0" cy="0" r="1" gradientUnits="userSpaceOnUse" gradientTransform="translate(385.25 236.344) rotate(-34.0221) scale(2.3314 2.33158)">
<stop offset="0.0814815" stop-color="#FFE245"/>
<stop offset="0.9963" stop-color="#E38427"/>
</radialGradient>
<radialGradient id="paint41_radial" cx="0" cy="0" r="1" gradientUnits="userSpaceOnUse" gradientTransform="translate(384.004 227.396) rotate(48.1679) scale(5.6241 5.62476)">
<stop offset="0.0814815" stop-color="#FFE245"/>
<stop offset="0.9963" stop-color="#E38427"/>
</radialGradient>
<radialGradient id="paint42_radial" cx="0" cy="0" r="1" gradientUnits="userSpaceOnUse" gradientTransform="translate(384.004 227.396) rotate(48.1679) scale(5.6241 5.62476)">
<stop offset="0.0814815" stop-color="#FFE245"/>
<stop offset="0.9963" stop-color="#E38427"/>
</radialGradient>
<radialGradient id="paint43_radial" cx="0" cy="0" r="1" gradientUnits="userSpaceOnUse" gradientTransform="translate(384.185 227.487) rotate(48.168) scale(5.44055 5.44119)">
<stop offset="0.0814815" stop-color="#FFE245"/>
<stop offset="0.9963" stop-color="#E38427"/>
</radialGradient>
<radialGradient id="paint44_radial" cx="0" cy="0" r="1" gradientUnits="userSpaceOnUse" gradientTransform="translate(388.604 223.386) rotate(70.8967) scale(2.41075 2.40975)">
<stop offset="0.0814815" stop-color="#FFE245"/>
<stop offset="0.9963" stop-color="#E38427"/>
</radialGradient>
<radialGradient id="paint45_radial" cx="0" cy="0" r="1" gradientUnits="userSpaceOnUse" gradientTransform="translate(388.661 223.452) rotate(70.8967) scale(2.33179 2.33082)">
<stop offset="0.0814815" stop-color="#FFE245"/>
<stop offset="0.9963" stop-color="#E38427"/>
</radialGradient>
<radialGradient id="paint46_radial" cx="0" cy="0" r="1" gradientUnits="userSpaceOnUse" gradientTransform="translate(400.577 239.007) rotate(-134.252) scale(2.41004 2.41046)">
<stop offset="0.0814815" stop-color="#FFE245"/>
<stop offset="0.9963" stop-color="#E38427"/>
</radialGradient>
<radialGradient id="paint47_radial" cx="0" cy="0" r="1" gradientUnits="userSpaceOnUse" gradientTransform="translate(400.577 239.007) rotate(-134.252) scale(2.41004 2.41046)">
<stop offset="0.0814815" stop-color="#FFE245"/>
<stop offset="0.9963" stop-color="#E38427"/>
</radialGradient>
<radialGradient id="paint48_radial" cx="0" cy="0" r="1" gradientUnits="userSpaceOnUse" gradientTransform="translate(400.498 238.971) rotate(-134.252) scale(2.33129 2.3317)">
<stop offset="0.0814815" stop-color="#FFE245"/>
<stop offset="0.9963" stop-color="#E38427"/>
</radialGradient>
<radialGradient id="paint49_radial" cx="0" cy="0" r="1" gradientUnits="userSpaceOnUse" gradientTransform="translate(384.27 240.423) rotate(-34.2086) scale(5.32992 5.3303)">
<stop offset="0.0814815" stop-color="#FFE245"/>
<stop offset="0.9963" stop-color="#E38427"/>
</radialGradient>
<radialGradient id="paint50_radial" cx="0" cy="0" r="1" gradientUnits="userSpaceOnUse" gradientTransform="translate(384.379 240.265) rotate(-34.2085) scale(5.1558 5.15617)">
<stop offset="0.0814815" stop-color="#FFE245"/>
<stop offset="0.9963" stop-color="#E38427"/>
</radialGradient>
<radialGradient id="paint51_radial" cx="0" cy="0" r="1" gradientUnits="userSpaceOnUse" gradientTransform="translate(382.309 228.417) rotate(167.761) scale(0.933682 0.934187)">
<stop offset="0.0814815" stop-color="#FFE245"/>
<stop offset="0.9963" stop-color="#E38427"/>
</radialGradient>
<radialGradient id="paint52_radial" cx="0" cy="0" r="1" gradientUnits="userSpaceOnUse" gradientTransform="translate(383.035 230.769) rotate(167.761) scale(0.600156 0.600478)">
<stop offset="0.0814815" stop-color="#FFE245"/>
<stop offset="0.9963" stop-color="#E38427"/>
</radialGradient>
<radialGradient id="paint53_radial" cx="0" cy="0" r="1" gradientUnits="userSpaceOnUse" gradientTransform="translate(400.173 236.23) rotate(167.761) scale(1.0671 1.06767)">
<stop offset="0.0814815" stop-color="#FFE245"/>
<stop offset="0.9963" stop-color="#E38427"/>
</radialGradient>
<radialGradient id="paint54_radial" cx="0" cy="0" r="1" gradientUnits="userSpaceOnUse" gradientTransform="translate(398.672 232.931) rotate(167.761) scale(0.800271 0.800706)">
<stop offset="0.0814815" stop-color="#FFE245"/>
<stop offset="0.9963" stop-color="#E38427"/>
</radialGradient>
<radialGradient id="paint55_radial" cx="0" cy="0" r="1" gradientUnits="userSpaceOnUse" gradientTransform="translate(395.03 239.28) rotate(167.761) scale(3.06807 3.06973)">
<stop offset="0.0814815" stop-color="#FFE245"/>
<stop offset="0.9963" stop-color="#E38427"/>
</radialGradient>
<radialGradient id="paint56_radial" cx="0" cy="0" r="1" gradientUnits="userSpaceOnUse" gradientTransform="translate(392.746 238.432) rotate(167.761) scale(1.134 1.13461)">
<stop offset="0.0814815" stop-color="#FFE245"/>
<stop offset="0.9963" stop-color="#E38427"/>
</radialGradient>
<radialGradient id="paint57_radial" cx="0" cy="0" r="1" gradientUnits="userSpaceOnUse" gradientTransform="translate(393.011 240.514) rotate(167.761) scale(0.866979 0.867449)">
<stop offset="0.0814815" stop-color="#FFE245"/>
<stop offset="0.9963" stop-color="#E38427"/>
</radialGradient>
<radialGradient id="paint58_radial" cx="0" cy="0" r="1" gradientUnits="userSpaceOnUse" gradientTransform="translate(402.608 235.79) rotate(167.761) scale(0.866978 0.867449)">
<stop offset="0.0814815" stop-color="#FFE245"/>
<stop offset="0.9963" stop-color="#E38427"/>
</radialGradient>
<radialGradient id="paint59_radial" cx="0" cy="0" r="1" gradientUnits="userSpaceOnUse" gradientTransform="translate(397.833 230.311) rotate(167.761) scale(0.667061 0.667422)">
<stop offset="0.0814815" stop-color="#FFE245"/>
<stop offset="0.9963" stop-color="#E38427"/>
</radialGradient>
<radialGradient id="paint60_radial" cx="0" cy="0" r="1" gradientUnits="userSpaceOnUse" gradientTransform="translate(392.456 223.5) rotate(167.761) scale(1.86757 1.86858)">
<stop offset="0.0814815" stop-color="#FFE245"/>
<stop offset="0.9963" stop-color="#E38427"/>
</radialGradient>
<radialGradient id="paint61_radial" cx="0" cy="0" r="1" gradientUnits="userSpaceOnUse" gradientTransform="translate(395.154 227.21) rotate(167.761) scale(0.800472 0.800902)">
<stop offset="0.0814815" stop-color="#FFE245"/>
<stop offset="0.9963" stop-color="#E38427"/>
</radialGradient>
<radialGradient id="paint62_radial" cx="0" cy="0" r="1" gradientUnits="userSpaceOnUse" gradientTransform="translate(393.549 222.136) rotate(167.761) scale(0.933882 0.934389)">
<stop offset="0.0814815" stop-color="#FFE245"/>
<stop offset="0.9963" stop-color="#E38427"/>
</radialGradient>
<radialGradient id="paint63_radial" cx="0" cy="0" r="1" gradientUnits="userSpaceOnUse" gradientTransform="translate(396.829 222.903) rotate(167.761) scale(0.667061 0.667421)">
<stop offset="0.0814815" stop-color="#FFE245"/>
<stop offset="0.9963" stop-color="#E38427"/>
</radialGradient>
<radialGradient id="paint64_radial" cx="0" cy="0" r="1" gradientUnits="userSpaceOnUse" gradientTransform="translate(388.114 224.618) rotate(167.761) scale(2.73455 2.73602)">
<stop offset="0.0814815" stop-color="#FFE245"/>
<stop offset="0.9963" stop-color="#E38427"/>
</radialGradient>
<radialGradient id="paint65_radial" cx="0" cy="0" r="1" gradientUnits="userSpaceOnUse" gradientTransform="translate(391.305 228.247) rotate(167.761) scale(1.0671 1.06767)">
<stop offset="0.0814815" stop-color="#FFE245"/>
<stop offset="0.9963" stop-color="#E38427"/>
</radialGradient>
<radialGradient id="paint66_radial" cx="0" cy="0" r="1" gradientUnits="userSpaceOnUse" gradientTransform="translate(382.481 225.687) rotate(167.761) scale(0.866976 0.867445)">
<stop offset="0.0814815" stop-color="#FFE245"/>
<stop offset="0.9963" stop-color="#E38427"/>
</radialGradient>
<radialGradient id="paint67_radial" cx="0" cy="0" r="1" gradientUnits="userSpaceOnUse" gradientTransform="translate(384.629 230.517) rotate(167.761) scale(1.20071 1.20136)">
<stop offset="0.0814815" stop-color="#FFE245"/>
<stop offset="0.9963" stop-color="#E38427"/>
</radialGradient>
<radialGradient id="paint68_radial" cx="0" cy="0" r="1" gradientUnits="userSpaceOnUse" gradientTransform="translate(385.225 232.868) rotate(167.761) scale(1.0673 1.06787)">
<stop offset="0.0814815" stop-color="#FFE245"/>
<stop offset="0.9963" stop-color="#E38427"/>
</radialGradient>
<radialGradient id="paint69_radial" cx="0" cy="0" r="1" gradientUnits="userSpaceOnUse" gradientTransform="translate(390.956 236.207) rotate(167.761) scale(0.933684 0.934188)">
<stop offset="0.0814815" stop-color="#FFE245"/>
<stop offset="0.9963" stop-color="#E38427"/>
</radialGradient>
<radialGradient id="paint70_radial" cx="0" cy="0" r="1" gradientUnits="userSpaceOnUse" gradientTransform="translate(385.787 237.199) rotate(167.761) scale(1.00039 1.00093)">
<stop offset="0.0814815" stop-color="#FFE245"/>
<stop offset="0.9963" stop-color="#E38427"/>
</radialGradient>
<radialGradient id="paint71_radial" cx="0" cy="0" r="1" gradientUnits="userSpaceOnUse" gradientTransform="translate(386.176 238.875) rotate(167.761) scale(0.866976 0.867446)">
<stop offset="0.0814815" stop-color="#FFE245"/>
<stop offset="0.9963" stop-color="#E38427"/>
</radialGradient>
<radialGradient id="paint72_radial" cx="0" cy="0" r="1" gradientUnits="userSpaceOnUse" gradientTransform="translate(387.036 242.407) rotate(167.761) scale(1.73415 1.73509)">
<stop offset="0.0814815" stop-color="#FFE245"/>
<stop offset="0.9963" stop-color="#E38427"/>
</radialGradient>
<radialGradient id="paint73_radial" cx="0" cy="0" r="1" gradientUnits="userSpaceOnUse" gradientTransform="translate(385.522 243.447) rotate(167.761) scale(0.533647 0.533936)">
<stop offset="0.0814815" stop-color="#FFE245"/>
<stop offset="0.9963" stop-color="#E38427"/>
</radialGradient>
<radialGradient id="paint74_radial" cx="0" cy="0" r="1" gradientUnits="userSpaceOnUse" gradientTransform="translate(383.065 241.589) rotate(167.761) scale(0.466943 0.467196)">
<stop offset="0.0814815" stop-color="#FFE245"/>
<stop offset="0.9963" stop-color="#E38427"/>
</radialGradient>
<radialGradient id="paint75_radial" cx="0" cy="0" r="1" gradientUnits="userSpaceOnUse" gradientTransform="translate(379.638 234.678) rotate(167.761) scale(0.667062 0.667421)">
<stop offset="0.0814815" stop-color="#FFE245"/>
<stop offset="0.9963" stop-color="#E38427"/>
</radialGradient>
<radialGradient id="paint76_radial" cx="0" cy="0" r="1" gradientUnits="userSpaceOnUse" gradientTransform="translate(379.912 229.244) rotate(167.761) scale(0.466942 0.467192)">
<stop offset="0.0814815" stop-color="#FFE245"/>
<stop offset="0.9963" stop-color="#E38427"/>
</radialGradient>
<radialGradient id="paint77_radial" cx="0" cy="0" r="1" gradientUnits="userSpaceOnUse" gradientTransform="translate(392.977 225.645) rotate(167.761) scale(11.7465 11.7528)">
<stop offset="0.0814815" stop-color="#FFE245"/>
<stop offset="0.9963" stop-color="#E38427"/>
</radialGradient>
<radialGradient id="paint78_radial" cx="0" cy="0" r="1" gradientUnits="userSpaceOnUse" gradientTransform="translate(314.423 139.806) scale(76.1974 76.5983)">
<stop stop-color="#D1E1EE"/>
<stop offset="0.337" stop-color="#8EE1EE"/>
<stop offset="0.937" stop-color="#5E8DEC"/>
</radialGradient>
<radialGradient id="paint79_radial" cx="0" cy="0" r="1" gradientUnits="userSpaceOnUse" gradientTransform="translate(319.361 132.305) scale(57.7045 58.0081)">
<stop offset="0.00370374" stop-color="#8EE1EE"/>
<stop offset="0.937" stop-color="#5E8DEC"/>
</radialGradient>
<radialGradient id="paint80_radial" cx="0" cy="0" r="1" gradientUnits="userSpaceOnUse" gradientTransform="translate(308.201 138.653) rotate(-27.1944) scale(57.7678 57.9451)">
<stop offset="0.00370374" stop-color="#8EE1EE"/>
<stop offset="0.937" stop-color="#5E8DEC"/>
</radialGradient>
<radialGradient id="paint81_radial" cx="0" cy="0" r="1" gradientUnits="userSpaceOnUse" gradientTransform="translate(350.062 159.179) scale(145.773 146.54)">
<stop offset="0.00370374" stop-color="#8EE1EE"/>
<stop offset="0.937" stop-color="#5E8DEC"/>
</radialGradient>
<radialGradient id="paint82_radial" cx="0" cy="0" r="1" gradientUnits="userSpaceOnUse" gradientTransform="translate(343.9 142.999) rotate(-43.6753) scale(146.138 146.175)">
<stop offset="0.00370374" stop-color="#8EE1EE"/>
<stop offset="0.937" stop-color="#5E8DEC"/>
</radialGradient>
<radialGradient id="paint83_radial" cx="0" cy="0" r="1" gradientUnits="userSpaceOnUse" gradientTransform="translate(326.88 157.63) scale(48.0442 48.2969)">
<stop offset="0.00370374" stop-color="#8EE1EE"/>
<stop offset="0.937" stop-color="#5E8DEC"/>
</radialGradient>
<radialGradient id="paint84_radial" cx="0" cy="0" r="1" gradientUnits="userSpaceOnUse" gradientTransform="translate(326.693 157.284) scale(45.368 45.6067)">
<stop offset="0.00370374" stop-color="#8EE1EE"/>
<stop offset="0.937" stop-color="#5E8DEC"/>
</radialGradient>
<linearGradient id="paint85_linear" x1="351.527" y1="26.2721" x2="303.769" y2="100.408" gradientUnits="userSpaceOnUse">
<stop stop-color="#E2BAE7"/>
<stop offset="1" stop-color="white"/>
</linearGradient>
<clipPath id="clip0">
<rect width="119" height="77" fill="white" transform="translate(267.365 120.034)"/>
</clipPath>
</defs>
</svg>
