<svg width="320" height="319" viewBox="0 0 320 319" fill="none" xmlns="http://www.w3.org/2000/svg">
<g clip-path="url(#clip0)">
<mask id="mask0" mask-type="alpha" maskUnits="userSpaceOnUse" x="51" y="18" width="250" height="145">
<rect x="51" y="18" width="250" height="145" fill="#C4C4C4"/>
</mask>
<g mask="url(#mask0)">
<mask id="mask1" mask-type="alpha" maskUnits="userSpaceOnUse" x="51" y="18" width="250" height="146">
<rect x="51" y="18.001" width="250" height="145" fill="#C4C4C4"/>
</mask>
<g mask="url(#mask1)">
<path d="M28.3711 181.353L134.042 288.667L294.972 130.201L189.301 22.8865L28.3711 181.353Z" fill="url(#paint0_linear)"/>
<path opacity="0.2" d="M237.792 187.754C236.224 181.367 234.522 174.934 233.807 168.508C232.544 157.545 234.111 146.289 238.407 136.177C242.75 125.841 249.777 116.872 255.551 107.266L237.419 88.8521C234.577 102.522 228.06 115.355 224.098 128.792C218.475 147.962 218.097 168.206 217.767 188.135C217.675 194.285 217.627 200.659 218.478 206.771L237.792 187.754ZM194.26 73.4297C189.666 81.3397 187.8 90.5729 186.923 99.6344C185.707 112.06 186.237 124.993 191.313 136.391C193.962 142.248 197.738 147.62 199.621 153.785C201.987 161.435 201.159 170.003 197.29 177.021C194.649 181.938 190.667 186.037 188.742 191.319C187.229 195.483 187.149 200.016 187.25 204.461C187.457 212.723 188.293 220.9 189.713 229.037C190.014 230.7 190.316 232.364 190.662 234.072L157.192 267.03C153.775 255.87 157.1 243.596 161.269 232.54C165.667 220.902 171.188 209.139 170.924 196.657C170.478 178.472 158.07 163.066 151.645 146.046C143.019 123.173 147.677 100.943 155.567 78.7378L192.159 42.7066L208.865 59.6724C202.782 62.5427 197.671 67.5755 194.26 73.4297Z" fill="url(#paint1_linear)"/>
<path opacity="0.4" d="M231.405 165.706C229.969 165.695 228.81 164.518 228.777 163.037C228.787 161.6 229.963 160.442 231.445 160.409C232.882 160.42 234.04 161.597 234.074 163.078C234.017 164.559 232.841 165.717 231.405 165.706Z" fill="url(#paint2_linear)"/>
<path opacity="0.4" d="M164.301 122.891C164.33 119.03 167.451 115.957 171.311 115.988C175.172 116.018 178.246 119.139 178.217 123C178.187 126.861 175.066 129.934 171.206 129.903C167.39 129.918 164.271 126.751 164.301 122.891Z" fill="url(#paint3_linear)"/>
<path d="M273.84 152.436C265.843 153.181 258.197 149.216 251.235 143.774C245.968 139.692 240.892 134.266 234.353 132.239C226.695 129.8 221.86 133.847 215.149 136.802C203.618 141.919 192.493 134.784 187.005 124.505C183.198 117.382 182.017 107.317 174.69 102.681C168.346 98.6803 158.951 100.268 154.506 106.338C152.237 109.463 151.22 113.316 149.847 116.896C145.222 128.846 138.068 130.9 126.697 132.652C117.978 134.02 109.201 142.93 110.388 152.097C111.662 161.714 121.23 166.817 124.668 175.284C127.753 182.85 125.67 191.139 120.64 197.339C114.704 204.61 104.546 206.237 99.2326 214.231C95.6451 219.635 97.6726 224.589 97.897 230.516C98.0816 235.77 95.1712 240.685 91.5507 244.518C88.4278 247.86 84.6352 250.704 80.2258 252.016C75.8164 253.328 70.8353 253.065 66.9938 250.52C63.0626 247.976 59.9496 244.09 56.1993 241.367C51.5114 237.964 47.5094 232.904 43.8625 228.387C37.1464 220.119 31.4693 211.006 27.7289 201.055C25.9248 196.237 24.5279 191.019 25.6434 186C26.3868 182.683 28.0705 179.689 29.9325 176.875C34.3841 169.997 39.6397 163.663 45.5635 158.008C49.9049 153.822 55.0847 151.573 59.424 147.657C71.8104 136.351 82.4661 122.383 93.9614 110.173C117.269 85.4404 141.021 61.1602 165.354 37.3783C173.178 29.763 182.999 19.2903 195.053 22.3028C200.25 23.6006 204.807 26.5992 209.093 29.6856C239.68 51.3392 265.506 79.1957 287.137 109.758C290.202 114.046 293.221 118.559 294.529 123.687C297.013 133.538 291.633 144.36 283.021 149.366C279.864 151.226 276.85 152.145 273.84 152.436Z" fill="white"/>
<path d="M144.082 119.186C147.383 116.025 149.659 111.913 151.888 107.935C154.072 104.091 157.186 102.005 163.075 100.929C159.657 101.711 156.501 103.571 154.459 106.383C152.191 109.508 151.174 113.361 149.8 116.942C145.175 128.892 138.022 130.946 126.651 132.697C117.931 134.065 109.154 142.975 110.342 152.142C111.616 161.759 121.184 166.862 124.621 175.329C127.706 182.895 125.623 191.184 120.593 197.385C114.657 204.656 104.499 206.282 99.1861 214.276C95.5986 219.68 97.6261 224.634 97.8504 230.562C98.0351 235.815 95.1246 240.731 91.5042 244.563C89.0604 247.148 86.2149 249.415 83.0158 250.961C78.9091 247.876 75.574 243.675 73.77 238.857C72.0098 234.175 71.4647 229.098 71.727 224.117C72.0926 217.341 73.9406 210.442 78.0223 204.997C81.5145 200.31 86.4783 196.938 90.9068 193.111C95.3353 189.285 99.5458 184.605 100.667 178.867C101.977 171.874 98.4833 164.889 98.0436 157.747C97.5628 150.112 101.388 142.959 106.504 137.298C122.077 120.181 133.908 128.848 144.082 119.186Z" fill="url(#paint4_linear)"/>
<path d="M156.177 116.722L157.617 116.284C158.112 116.153 158.65 116.158 159.099 116.251L160.487 116.666C160.532 116.711 160.622 116.622 160.578 116.577L160.184 115.182C160.053 114.687 160.057 114.148 160.24 113.701L160.7 112.268C160.745 112.223 160.656 112.133 160.611 112.178L159.171 112.615C158.676 112.746 158.138 112.742 157.689 112.648L156.301 112.233C156.256 112.188 156.166 112.277 156.21 112.323L156.604 113.717C156.735 114.212 156.731 114.751 156.548 115.198L156.088 116.631C156.043 116.676 156.087 116.721 156.177 116.722Z" fill="#EFEFEF"/>
<path d="M227.243 146.19L227.963 146.016C228.233 145.928 228.457 145.975 228.681 146.022L229.398 146.207L229.443 146.162L229.269 145.443C229.181 145.173 229.228 144.949 229.275 144.724L229.46 144.008L229.415 143.962L228.695 144.136C228.425 144.224 228.201 144.177 227.977 144.131L227.26 143.945L227.215 143.99L227.389 144.71C227.477 144.98 227.43 145.204 227.384 145.428L227.243 146.19C227.198 146.234 227.154 146.189 227.243 146.19Z" fill="#EFEFEF"/>
<path d="M246.845 160.126L247.565 159.952C247.835 159.865 248.059 159.911 248.283 159.958L249 160.143L249.045 160.099L248.871 159.379C248.783 159.109 248.83 158.885 248.876 158.661L249.061 157.944L249.017 157.899L248.297 158.073C248.027 158.16 247.803 158.114 247.579 158.067L246.862 157.882L246.817 157.926L246.991 158.646C247.079 158.916 247.032 159.14 246.986 159.364L246.845 160.126C246.845 160.126 246.801 160.081 246.845 160.126Z" fill="#EFEFEF"/>
<path d="M176.62 149.968C176.891 149.701 176.895 149.252 176.628 148.98C176.36 148.709 175.911 148.705 175.64 148.973C175.369 149.24 175.365 149.689 175.633 149.96C175.855 150.276 176.303 150.28 176.62 149.968Z" fill="#EFEFEF"/>
<path d="M170.759 111.808C170.985 111.585 170.943 111.271 170.765 111.09C170.542 110.864 170.227 110.906 170.046 111.084C169.82 111.307 169.863 111.621 170.041 111.802C170.264 112.029 170.578 111.986 170.759 111.808Z" fill="#EFEFEF"/>
<path d="M169.743 109.78C170.056 109.828 170.283 109.605 170.33 109.291C170.377 108.977 170.154 108.751 169.885 108.749C169.571 108.702 169.345 108.924 169.298 109.238C169.206 109.507 169.429 109.733 169.743 109.78Z" fill="#EFEFEF"/>
<path d="M167.458 109.178C167.593 109.045 167.595 108.865 167.461 108.73C167.328 108.594 167.148 108.592 167.012 108.726C166.877 108.86 166.875 109.039 167.009 109.175C167.143 109.311 167.322 109.312 167.458 109.178Z" fill="#EFEFEF"/>
<path d="M210.901 146.242C211.215 146.289 211.441 146.066 211.489 145.752C211.536 145.439 211.313 145.212 210.999 145.165C210.685 145.118 210.459 145.34 210.412 145.654C210.41 145.923 210.632 146.239 210.901 146.242Z" fill="#EFEFEF"/>
<path d="M209.803 148.927C209.939 148.793 209.941 148.613 209.807 148.478C209.673 148.342 209.494 148.34 209.358 148.474C209.222 148.608 209.221 148.787 209.355 148.923C209.533 149.014 209.713 149.016 209.803 148.927Z" fill="#EFEFEF"/>
<path d="M177.259 154.597C177.394 154.464 177.396 154.284 177.262 154.148C177.128 154.013 176.949 154.011 176.813 154.145C176.677 154.279 176.676 154.458 176.81 154.594C176.943 154.73 177.168 154.686 177.259 154.597Z" fill="#EFEFEF"/>
</g>
</g>
</g>
<defs>
<linearGradient id="paint0_linear" x1="190.706" y1="52.9416" x2="130.375" y2="266.539" gradientUnits="userSpaceOnUse">
<stop stop-color="#271A6B"/>
<stop offset="0.2115" stop-color="#2E1B71"/>
<stop offset="0.5268" stop-color="#431E81"/>
<stop offset="0.9052" stop-color="#64249B"/>
<stop offset="1" stop-color="#6D25A2"/>
</linearGradient>
<linearGradient id="paint1_linear" x1="127.265" y1="106.777" x2="222.168" y2="203.156" gradientUnits="userSpaceOnUse">
<stop stop-color="#BD1ACD"/>
<stop offset="0.193" stop-color="#B61BC9"/>
<stop offset="0.4806" stop-color="#A11EBE"/>
<stop offset="0.8258" stop-color="#8022AC"/>
<stop offset="1" stop-color="#6D25A2"/>
</linearGradient>
<linearGradient id="paint2_linear" x1="229.562" y1="161.201" x2="233.251" y2="164.948" gradientUnits="userSpaceOnUse">
<stop stop-color="#BD1ACD"/>
<stop offset="0.193" stop-color="#B61BC9"/>
<stop offset="0.4806" stop-color="#A11EBE"/>
<stop offset="0.8258" stop-color="#8022AC"/>
<stop offset="1" stop-color="#6D25A2"/>
</linearGradient>
<linearGradient id="paint3_linear" x1="166.396" y1="118.003" x2="176.152" y2="127.911" gradientUnits="userSpaceOnUse">
<stop stop-color="#BD1ACD"/>
<stop offset="0.193" stop-color="#B61BC9"/>
<stop offset="0.4806" stop-color="#A11EBE"/>
<stop offset="0.8258" stop-color="#8022AC"/>
<stop offset="1" stop-color="#6D25A2"/>
</linearGradient>
<linearGradient id="paint4_linear" x1="87.4053" y1="147.333" x2="122.914" y2="168.814" gradientUnits="userSpaceOnUse">
<stop stop-color="#E2BAE7"/>
<stop offset="1" stop-color="white"/>
</linearGradient>
<clipPath id="clip0">
<rect width="176.006" height="275.303" fill="white" transform="matrix(0.701631 0.71254 0.71254 -0.701631 0 193.161)"/>
</clipPath>
</defs>
</svg>
