<svg xmlns="http://www.w3.org/2000/svg" xmlns:xlink="http://www.w3.org/1999/xlink" width="748" height="200" viewBox="0 0 748 200" version="1.1">
    <title>Bitget Logo (1)</title>
    <g id="9-4个人中心" stroke="none" stroke-width="1" fill="none" fill-rule="evenodd">
        <g id="Bitget-Logo-(1)" fill="#1DA2B4" fill-rule="nonzero">
            <path d="M510.912003,57.4368 C521.913003,57.4368 531.303003,61.8558 539.084003,70.6938 L539.688003,62.7396 C539.956003,60.7001 540.962003,59.6803 542.706003,59.6803 L564.640003,59.6803 C565.579003,59.6803 566.317003,59.9522 566.854003,60.4961 C567.390003,61.04 567.659003,61.7878 567.659003,62.7396 L567.659003,158.802 C567.659003,168.727 564.976003,176.749 559.609003,182.868 C554.378003,189.123 547.737003,193.542 539.688003,196.125 C531.773003,198.708 523.590003,200 515.138003,200 C506.686003,200 498.570003,198.776 490.789003,196.329 C483.143003,194.017 476.636003,190.89 471.270003,186.947 C470.465003,186.403 470.063003,185.655 470.063003,184.704 C470.063003,183.888 470.197003,183.276 470.465003,182.868 L478.313003,168.591 C479.118003,167.504 479.923003,166.96 480.728003,166.96 C481.399003,166.96 481.935003,167.096 482.338003,167.368 C486.899003,170.087 491.594003,172.058 496.424003,173.282 C501.387003,174.506 506.821003,175.118 512.723003,175.118 C519.565003,175.118 525.803003,173.622 531.438003,170.631 C537.072003,167.775 539.889003,162.949 539.889003,156.15 L539.889003,146.768 C532.108003,155.742 522.449003,160.229 510.912003,160.229 C501.924003,160.229 493.808003,157.918 486.564003,153.295 C479.319003,148.672 473.618003,142.417 469.459003,134.531 C465.435003,126.645 463.422003,118.079 463.422003,108.833 C463.422003,99.5871 465.435003,91.0211 469.459003,83.1349 C473.618003,75.2487 479.319003,68.9942 486.564003,64.3712 C493.808003,59.7483 501.924003,57.4368 510.912003,57.4368 Z M122.528003,57.142 C126.276003,57.142 129.856003,58.6933 132.412003,61.4251 L186.642003,119.388 C191.481003,124.56 191.481003,132.582 186.642003,137.754 L132.412003,195.717 C129.856003,198.449 126.276003,200 122.528003,200 L98.2723025,200 C95.2098025,200 93.6214025,196.36 95.7099025,194.128 L143.680003,142.857 L117.171003,142.857 L90.2158025,114.285 L143.680003,114.285 L90.2158025,57.142 L122.528003,57.142 Z M627.904003,57.4368 C637.160003,57.4368 645.344003,59.6803 652.454003,64.1673 C659.564003,68.6542 665.064003,74.7048 668.954003,82.3191 C672.845003,89.9333 674.790003,98.2274 674.790003,107.201 C674.790003,111.688 674.321003,114.952 673.381003,116.991 C672.442003,118.895 670.497003,119.846 667.546003,119.846 L607.781003,119.846 C609.257003,125.285 612.141003,129.432 616.434003,132.288 C620.861003,135.007 626.428003,136.367 633.136003,136.367 C636.490003,136.367 639.642003,135.959 642.594003,135.143 C645.679003,134.191 648.899003,132.628 652.253003,130.452 C652.923003,129.908 653.661003,129.636 654.466003,129.636 C655.137003,129.636 655.875003,130.044 656.679003,130.86 L667.143003,141.058 C667.680003,141.601 667.948003,142.281 667.948003,143.097 C667.948003,143.913 667.546003,144.729 666.741003,145.545 C661.911003,150.439 656.344003,154.247 650.039003,156.966 C643.868003,159.549 637.227003,160.841 630.117003,160.841 C620.056003,160.841 611.001003,158.53 602.952003,153.907 C595.037003,149.284 588.866003,143.029 584.439003,135.143 C580.012003,127.257 577.798003,118.555 577.798003,109.037 C577.798003,99.5191 579.945003,90.8171 584.237003,82.9309 C588.664003,75.0448 594.701003,68.8582 602.348003,64.3712 C609.995003,59.7483 618.513003,57.4368 627.904003,57.4368 Z M282.709003,17 C291.563003,17 299.143003,18.6316 305.448003,21.8949 C311.887003,25.1581 316.717003,29.5771 319.936003,35.1518 C323.290003,40.7265 324.967003,46.9811 324.967003,53.9155 C324.967003,60.9859 323.290003,67.1725 319.936003,72.4752 C316.717003,77.778 312.692003,81.4492 307.863003,83.4887 C315.375003,85.5282 321.814003,89.6753 327.180003,95.9299 C332.681003,102.184 335.431003,109.731 335.431003,118.569 C335.431003,132.301 331.071003,142.635 322.351003,149.57 C313.765003,156.368 300.618003,159.767 282.910003,159.767 L233.408003,159.767 C232.469003,159.767 231.731003,159.495 231.195003,158.951 C230.658003,158.407 230.390003,157.66 230.390003,156.708 L230.390003,20.0593 C230.390003,19.1075 230.658003,18.3597 231.195003,17.8158 C231.731003,17.2719 232.469003,17 233.408003,17 L282.709003,17 Z M725.129003,29.131 C726.068003,29.131 726.806003,29.403 727.342003,29.9469 C727.879003,30.4907 728.147003,31.2386 728.147003,32.1904 L728.147003,58.1789 L744.245003,58.1789 C745.184003,58.1789 745.922003,58.4509 746.459003,58.9947 C746.996003,59.5386 747.264003,60.2864 747.264003,61.2382 L747.264003,79.7979 C747.264003,80.7497 746.996003,81.4976 746.459003,82.0414 C745.922003,82.5853 745.184003,82.8572 744.245003,82.8572 L728.147003,82.8572 L728.147003,156.602 C728.147003,157.554 727.879003,158.301 727.342003,158.845 C726.806003,159.389 726.068003,159.661 725.129003,159.661 L700.981003,159.661 C700.042003,159.661 699.304003,159.389 698.768003,158.845 C698.231003,158.301 697.963003,157.554 697.963003,156.602 L697.963003,82.8572 L681.865003,82.8572 C680.926003,82.8572 680.188003,82.5853 679.651003,82.0414 C679.114003,81.4976 678.846003,80.7497 678.846003,79.7979 L678.846003,61.2382 C678.846003,60.2864 679.114003,59.5386 679.651003,58.9947 C680.188003,58.4509 680.926003,58.1789 681.865003,58.1789 L697.963003,58.1789 L697.963003,32.1904 C697.963003,31.2386 698.231003,30.4907 698.768003,29.9469 C699.304003,29.403 700.042003,29.131 700.981003,29.131 L725.129003,29.131 Z M434.189003,29.131 C435.128003,29.131 435.866003,29.403 436.403003,29.9469 C436.939003,30.4907 437.208003,31.2386 437.208003,32.1904 L437.208003,58.1789 L453.306003,58.1789 C454.245003,58.1789 454.983003,58.4509 455.519003,58.9947 C456.056003,59.5386 456.324003,60.2864 456.324003,61.2382 L456.324003,79.7979 C456.324003,80.7497 456.056003,81.4976 455.519003,82.0414 C454.983003,82.5853 454.245003,82.8572 453.306003,82.8572 L437.208003,82.8572 L437.208003,156.602 C437.208003,157.554 436.939003,158.301 436.403003,158.845 C435.866003,159.389 435.128003,159.661 434.189003,159.661 L410.042003,159.661 C409.103003,159.661 408.365003,159.389 407.828003,158.845 C407.292003,158.301 407.023003,157.554 407.023003,156.602 L407.023003,82.8572 L390.925003,82.8572 C389.986003,82.8572 389.248003,82.5853 388.712003,82.0414 C388.175003,81.4976 387.907003,80.7497 387.907003,79.7979 L387.907003,61.2382 C387.907003,60.2864 388.175003,59.5386 388.712003,58.9947 C389.248003,58.4509 389.986003,58.1789 390.925003,58.1789 L407.023003,58.1789 L407.023003,32.1904 C407.023003,31.2386 407.292003,30.4907 407.828003,29.9469 C408.365003,29.403 409.103003,29.131 410.042003,29.131 L434.189003,29.131 Z M373.742003,58.1058 C374.681003,58.1058 375.419003,58.3778 375.956003,58.9216 C376.493003,59.4655 376.761003,60.2133 376.761003,61.1651 L376.761003,156.529 C376.761003,157.48 376.493003,158.228 375.956003,158.772 C375.419003,159.316 374.681003,159.588 373.742003,159.588 L349.595003,159.588 C348.656003,159.588 347.918003,159.316 347.382003,158.772 C346.845003,158.228 346.577003,157.48 346.577003,156.529 L346.577003,61.1651 C346.577003,60.2133 346.845003,59.4655 347.382003,58.9216 C347.918003,58.3778 348.656003,58.1058 349.595003,58.1058 L373.742003,58.1058 Z M91.9992025,0 C95.0617025,0 96.6501025,3.63996 94.5617025,5.8721 L46.5919025,57.1432 L73.1008025,57.1432 L100.056003,85.7148 L46.5919025,85.7148 L100.056003,142.858 L67.7437025,142.858 C63.9956025,142.858 60.4159025,141.307 57.8600025,138.575 L3.6295225,80.6122 C-1.2098475,75.4398 -1.2098375,67.4182 3.6295325,62.2458 L57.8600025,4.28313 C60.4159025,1.55127 63.9956025,0 67.7437025,0 L91.9992025,0 Z M514.736003,85.1744 C508.430003,85.1744 503.131003,87.4859 498.839003,92.1088 C494.546003,96.5958 492.399003,102.103 492.399003,108.629 C492.399003,115.292 494.479003,120.934 498.637003,125.557 C502.930003,130.044 508.296003,132.288 514.736003,132.288 C520.907003,132.288 526.138003,129.908 530.431003,125.149 C534.724003,120.39 536.871003,114.884 536.871003,108.629 C536.871003,102.374 534.724003,96.9357 530.431003,92.3128 C526.138003,87.5539 520.907003,85.1744 514.736003,85.1744 Z M284.118003,98.3773 L261.580003,98.3773 L261.580003,131.826 L284.118003,131.826 C290.289003,131.826 295.185003,130.398 298.807003,127.543 C302.429003,124.687 304.240003,120.404 304.240003,114.694 C304.240003,109.119 302.429003,105.04 298.807003,102.456 C295.185003,99.737 290.289003,98.3773 284.118003,98.3773 Z M628.105003,83.3389 C622.873003,83.3389 618.379003,84.8345 614.623003,87.8258 C610.867003,90.6812 608.452003,94.8962 607.379003,100.471 L648.027003,100.471 C647.088003,94.8962 644.807003,90.6812 641.185003,87.8258 C637.563003,84.8345 633.203003,83.3389 628.105003,83.3389 Z M279.892003,44.9416 L261.580003,44.9416 L261.580003,72.2713 L279.892003,72.2713 C284.855003,72.2713 288.746003,71.1156 291.563003,68.8041 C294.380003,66.3567 295.789003,62.7535 295.789003,57.9946 C295.789003,49.2926 290.490003,44.9416 279.892003,44.9416 Z M361.669003,17 C366.230003,17 370.053003,18.6316 373.139003,21.8949 C376.224003,25.0222 377.767003,28.8973 377.767003,33.5202 C377.767003,38.0072 376.224003,41.8823 373.139003,45.1455 C370.053003,48.2728 366.230003,49.8365 361.669003,49.8365 C357.108003,49.8365 353.284003,48.2728 350.199003,45.1455 C347.113003,41.8823 345.570003,38.0072 345.570003,33.5202 C345.570003,28.8973 347.113003,25.0222 350.199003,21.8949 C353.284003,18.6316 357.108003,17 361.669003,17 Z" id="形状结合"/>
        </g>
    </g>
</svg>