<svg xmlns:xlink="http://www.w3.org/1999/xlink" xmlns="http://www.w3.org/2000/svg" viewBox="0 0 193.88 50.24" width="193.88"  height="50.24" ><defs><style>.cls-1,.cls-2{fill:#fff;}.cls-1{fill-rule:evenodd;}</style></defs><g id="Слой_2" data-name="Слой 2"><g id="BitMart_Logo" data-name="BitMart Logo"><path class="cls-1" d="M36.78,23.83c-.1-.08-.2-.14-.29-.22a14,14,0,0,0,2.38-8.24q0-7.21-5-11.29T20.29,0H5.88V2H20c4.92,0,9.37,1,12.09,3.36A13.83,13.83,0,0,1,36.37,12,9.87,9.87,0,0,0,32.69,7c-2-1.56-4.41-2.82-11.09-2.82H10.49v2s5-.06,10.86,0c5.7.07,7.78.71,9.7,2.12,2.45,1.82,4,4.05,4,7.18a7.72,7.72,0,0,1-2.66,5.84c-.2-.08-.4-.14-.6-.21L32,21a6.2,6.2,0,0,0,3-5.66A6.5,6.5,0,0,0,31.7,9.59C30.16,8.62,28.8,8,22.42,8h-8V9.26H22.2c5.65,0,7.8,1,8.45,1.41a5.22,5.22,0,0,1,2.94,4.62,5.6,5.6,0,0,1-2.42,4.54,8.6,8.6,0,0,1-1.51.63,27.93,27.93,0,0,0-6.51-.71H13.52v2h9.36c4.92,0,9.37,1,12.09,3.36a13.76,13.76,0,0,1,4.26,6.58,9.91,9.91,0,0,0-3.67-4.95c-2.06-1.56-4.42-2.82-11.1-2.82H9.36v2s9-.06,14.85,0c5.7.06,7.79.7,9.7,2.12,2.46,1.82,4,4.05,4,7.18s-1.55,5.16-4,7S27.51,44,25.94,44.07c-.6,0-8.25,0-8.25,0v2s3.81.05,6.16,0c5.41-.12,8.62-.44,11.6-2.66a9.87,9.87,0,0,0,4.29-8.27c0,.06,0,.12,0,.18a11.91,11.91,0,0,1-4.61,9.58c-2.83,2.34-7.87,3.37-12.92,3.37H6v2H22.34q9.12,0,14.26-4t5.13-11.15Q41.73,27.91,36.78,23.83Zm-2-1.39c-.18-.1-.35-.21-.53-.3a9.62,9.62,0,0,0,2.65-6.79c0,.06,0,.12,0,.18A11.65,11.65,0,0,1,34.75,22.44Zm-8,9.87H12.59V33.4H26.75Zm-.09,4.93V36.3H18.43v.94ZM6,33.4h4.19V32.31H6ZM3.37,37.31H16.1V36.22H3.37ZM6.51,9.18h5V8.27h-5Zm7.91,6.28H3.05v1.05H14.42Zm.93,30.44V44.58h-12V45.9Zm-15,4.26h3v-1.9h-3ZM26.69,12.25H7.87V13.3H26.69Zm-.36,4.26V15.46h-9v1.05Zm8.51,24a6,6,0,0,0,3-5.46,6.24,6.24,0,0,0-3.28-5.52C33,28.6,31.67,28,25.29,28H15.11v1.25h10c5.65,0,7.79,1,8.44,1.35a5.06,5.06,0,0,1,3,4.47A5.38,5.38,0,0,1,34,39.42c-1.32.71-3.72,1.35-7.95,1.35H0V42H26.18C31.29,42,33,41.47,34.84,40.51Z"/><path class="cls-2" d="M53.43,37.91V11h9.45a12,12,0,0,1,6.84,1.71,5.18,5.18,0,0,1,2.53,4.44,5.74,5.74,0,0,1-1.53,4,8.39,8.39,0,0,1-4.22,2.4v.08a9.36,9.36,0,0,1,5.38,2.05,5.68,5.68,0,0,1,2,4.51,6.54,6.54,0,0,1-3.06,5.59,13.19,13.19,0,0,1-7.71,2.14Zm3.89-24v8.69h4a8.85,8.85,0,0,0,5-1.25,4,4,0,0,0,1.83-3.52q0-3.92-6.38-3.92Zm0,11.52v9.68h5.29a9.16,9.16,0,0,0,5.31-1.32,4.14,4.14,0,0,0,1.89-3.6q0-4.76-8-4.76Z"/><path class="cls-2" d="M81.12,13.83a2.72,2.72,0,0,1-1.74-.57,1.72,1.72,0,0,1-.71-1.42,1.75,1.75,0,0,1,.71-1.44,2.72,2.72,0,0,1,1.74-.57,2.76,2.76,0,0,1,1.77.57,1.75,1.75,0,0,1,.73,1.44,1.71,1.71,0,0,1-.73,1.4A2.72,2.72,0,0,1,81.12,13.83ZM83,37.91h-3.8V18.7H83Z"/><path class="cls-2" d="M100.72,37.72a8.74,8.74,0,0,1-3.54.6C93,38.32,91,36.44,91,32.69V21.33H86.87V18.7H91V14l3.8-1V18.7h6v2.63h-6V32.15a3.86,3.86,0,0,0,.81,2.76,3.65,3.65,0,0,0,2.69.82,4.59,4.59,0,0,0,2.47-.64Z"/><path class="cls-2" d="M136.18,37.91h-3.56V21.31a46.62,46.62,0,0,1,.29-4.81h-.08a13.17,13.17,0,0,1-.92,2.39l-10.44,19h-1.75L109.3,19a12.53,12.53,0,0,1-.92-2.53h-.09a45.86,45.86,0,0,1,.17,4.84V37.91H105V13.17h4.73l9.38,17.25a18.66,18.66,0,0,1,1.41,3h.13c.61-1.36,1.1-2.37,1.47-3l9.57-17.18h4.48Z"/><path class="cls-2" d="M160.16,37.91h-3.8v-3h-.09a8.42,8.42,0,0,1-7.3,3.45,9,9,0,0,1-5.55-1.52,4.81,4.81,0,0,1-2-4q0-5.39,7.83-6.27l7.11-.81q0-4.89-4.89-4.89a13.46,13.46,0,0,0-7.74,2.36V20.05a17.41,17.41,0,0,1,8.07-1.8q8.35,0,8.36,7.17Zm-3.8-9.72-5.72.64a10.81,10.81,0,0,0-4,1.06,2.82,2.82,0,0,0-1.34,2.69,2.72,2.72,0,0,0,1.24,2.3,5.58,5.58,0,0,0,3.3.89,6.85,6.85,0,0,0,4.67-1.61,5.13,5.13,0,0,0,1.84-4.06Z"/><path class="cls-2" d="M178.75,21.81a5.56,5.56,0,0,0-2.88-.61,5.17,5.17,0,0,0-4.06,1.85,7.41,7.41,0,0,0-1.64,5.07v9.79h-3.8V18.7h3.8v4h.1a6.71,6.71,0,0,1,2.48-3.16,6.44,6.44,0,0,1,3.73-1.14,7.41,7.41,0,0,1,2.27.27Z"/><path class="cls-2" d="M193.88,37.72a8.83,8.83,0,0,1-3.55.6q-6.22,0-6.23-5.63V21.33H180V18.7h4.08V14l3.8-1V18.7h6v2.63h-6V32.15a3.86,3.86,0,0,0,.81,2.76,3.67,3.67,0,0,0,2.69.82,4.63,4.63,0,0,0,2.48-.64Z"/></g></g></svg>