<svg width="230" height="58" viewBox="0 0 230 58" fill="none" xmlns="http://www.w3.org/2000/svg">
<g clip-path="url(#clip0_2474_17949)">
<path d="M61.5537 39.3279H75.944V35.533H65.9026V30.8784H74.228V27.0802H65.9026V22.795H76.0045V19H61.5537V39.3279Z" fill="white"/>
<path d="M93.2701 31.7953L83.8431 19H77.3516L79.3732 21.5724V39.3916H83.719V26.0423L93.4547 39.3279H97.619V19H93.2701V31.7953Z" fill="white"/>
<path d="M55.0016 28.8695C56.9118 28.5033 58.5037 26.7268 58.5037 24.2181C58.4909 21.5088 56.533 19 52.6138 19H40L41.958 21.5088V39.3375H53.0532C56.9755 39.3375 58.994 36.8892 58.994 33.8265C58.9207 31.3082 57.192 29.1656 55.0016 28.8695ZM46.3069 22.8204H51.7574C53.2283 22.8204 54.1452 23.68 54.1452 24.9631C54.1452 26.2461 53.2283 27.1057 51.7574 27.1057H46.3069V22.8204ZM51.9389 35.5552H46.3069V30.8784H51.9389C53.5944 30.8784 54.5113 31.9195 54.5113 33.2057C54.5113 34.6734 53.5307 35.533 51.9389 35.533V35.5552Z" fill="white"/>
<path d="M161.239 31.7953H163.505V34.1862C162.333 35.1569 160.863 35.6963 159.341 35.7144C155.728 35.7144 153.158 32.9605 153.158 29.226C153.158 25.4916 155.728 22.7345 159.341 22.7345C160.27 22.7422 161.182 22.9815 161.995 23.4306C162.807 23.8798 163.495 24.5247 163.996 25.3069L167.425 23.3967C165.957 21.0821 163.381 19 159.281 19C153.525 19 148.749 22.9796 148.749 29.1656C148.749 35.3515 153.464 39.3279 159.281 39.3279C160.852 39.354 162.409 39.039 163.847 38.4047C165.284 37.7704 166.567 36.8319 167.606 35.6539V28.1245H158.3L161.239 31.7953Z" fill="white"/>
<path d="M141.646 31.7953L132.216 19H125.725L127.746 21.5724V39.3916H132.095V26.0423L141.831 39.3279H145.992V19H141.646V31.7953Z" fill="white"/>
<path d="M181.993 19H173.607L175.625 21.5724L175.259 22.5498L168.768 39.3916H173.667L174.941 35.9596H183.712L184.985 39.3916H189.882L181.993 19ZM176.058 32.1041L179.242 23.3458L182.426 32.1041H176.058Z" fill="white"/>
<path d="M123.215 19H118.866V39.3916H123.215V19Z" fill="white"/>
<path d="M115.377 22.4893V19H100.066V22.795H109.681L100.066 35.8386V39.3279H115.561V35.533H105.702L115.377 22.4893Z" fill="white"/>
</g>
<defs>
<clipPath id="clip0_2474_17949">
<rect width="150" height="20.3279" fill="white" transform="translate(40 19)"/>
</clipPath>
</defs>
</svg>
