<svg width="230" height="58" viewBox="0 0 230 58" fill="none" xmlns="http://www.w3.org/2000/svg">
<g clip-path="url(#clip0_2474_17926)">
<path d="M69.1564 36.7182C67.366 36.7182 65.7887 36.372 64.4244 35.6797C63.1 35.0215 62.0031 33.9817 61.2752 32.6943C60.5357 31.3962 60.166 29.8744 60.166 28.1288C60.166 26.3832 60.5357 24.8613 61.2752 23.5633C62.005 22.2742 63.1015 21.231 64.4253 20.5662C65.786 19.8662 67.3634 19.5162 69.1573 19.5162C70.222 19.5039 71.2841 19.6242 72.3191 19.8742C73.2309 20.1024 74.0997 20.4767 74.8919 20.9825V24.9473C74.1964 24.395 73.3983 23.9861 72.5438 23.7441C71.5631 23.4785 70.5501 23.351 69.5342 23.3655C67.9133 23.3655 66.6624 23.7865 65.7816 24.6286C64.9007 25.4707 64.4603 26.6386 64.4603 28.1324C64.4603 29.6273 64.9049 30.7994 65.7941 31.6487C66.6833 32.4979 67.93 32.9228 69.5342 32.9234C70.5628 32.9369 71.588 32.8015 72.5778 32.5215C73.4817 32.2507 74.3292 31.8192 75.0799 31.2476V35.1865C73.5855 36.2082 71.611 36.7188 69.1564 36.7182ZM84.543 36.7182C82.9692 36.7407 81.415 36.3673 80.0232 35.6323C78.7036 34.9327 77.6017 33.8838 76.8381 32.6003C76.0592 31.3022 75.6713 29.8103 75.6743 28.1243C75.6445 26.5513 76.047 25.0003 76.8381 23.6403C77.5991 22.3517 78.7014 21.2984 80.0232 20.5967C81.4186 19.8829 82.9635 19.5107 84.5309 19.5107C86.0983 19.5107 87.6432 19.8829 89.0386 20.5967C90.359 21.2965 91.4583 22.3505 92.213 23.6403C92.9983 25.0023 93.3979 26.5524 93.3687 28.1243C93.3687 29.8085 92.9831 31.3005 92.2121 32.6003C91.454 33.8851 90.3546 34.9346 89.0359 35.6323C87.6521 36.3654 86.1062 36.7388 84.5403 36.7182H84.543ZM84.543 32.8008C85.3417 32.8092 86.1294 32.6142 86.832 32.2341C87.5239 31.8564 88.0961 31.2923 88.4836 30.6058C88.9053 29.8492 89.1173 28.9938 89.0977 28.1279C89.1194 27.2673 88.9128 26.4164 88.4988 25.6616C88.1137 24.9773 87.5459 24.4135 86.8588 24.0333C86.151 23.6439 85.3543 23.445 84.5466 23.4559C83.7309 23.4432 82.9259 23.6421 82.2101 24.0333C81.523 24.4138 80.9549 24.9775 80.5692 25.6616C80.155 26.4164 79.9478 27.2672 79.9686 28.1279C79.9489 28.9923 80.1564 29.8466 80.5701 30.6058C80.953 31.2958 81.5264 31.8611 82.2218 32.2341C82.9376 32.6156 83.7381 32.8105 84.5492 32.8008H84.543ZM95.0167 19.8689H99.1946V36.3637H95.0203L95.0167 19.8689ZM101.318 19.8689H105.448L111.512 29.6855V19.8689H115.689V36.3637H111.587L105.499 26.5237V36.3637H101.321L101.318 19.8689Z" fill="white"/>
<path d="M127.21 36.3637C125.338 36.3637 123.694 36.0295 122.278 35.3611C120.925 34.7475 119.78 33.7518 118.986 32.4964C118.21 31.2539 117.822 29.7918 117.822 28.11C117.792 26.5369 118.194 24.9858 118.986 23.626C119.745 22.3389 120.849 21.2889 122.172 20.594C123.569 19.8877 125.113 19.5197 126.679 19.5197C128.245 19.5197 129.789 19.8877 131.187 20.594C132.509 21.2871 133.609 22.3377 134.361 23.626C135.146 24.9881 135.546 26.5381 135.517 28.11C135.51 29.0815 135.28 30.0383 134.844 30.9066C134.453 31.7519 133.885 32.5039 133.18 33.1123H135.944V36.369L127.21 36.3637ZM126.691 32.8008C127.49 32.8092 128.278 32.6142 128.98 32.2341C129.672 31.8564 130.245 31.2923 130.632 30.6058C131.054 29.8492 131.265 28.9937 131.245 28.1279C131.266 27.2672 131.058 26.4163 130.644 25.6616C130.258 24.9775 129.691 24.4138 129.004 24.0333C128.296 23.6439 127.499 23.445 126.691 23.4559C125.875 23.4433 125.07 23.6423 124.354 24.0333C123.667 24.4138 123.099 24.9775 122.714 25.6616C122.3 26.4163 122.092 27.2672 122.113 28.1279C122.093 28.9923 122.3 29.8467 122.714 30.6058C123.098 31.2957 123.671 31.861 124.367 32.2341C125.082 32.6146 125.881 32.8089 126.691 32.799V32.8008ZM144.628 36.7182C142.142 36.7182 140.27 36.0533 139.011 34.7237C137.752 33.394 137.123 31.6359 137.123 29.4492V19.8707H141.3V29.4967C141.3 30.5977 141.595 31.4315 142.185 31.9978C142.776 32.5642 143.59 32.8474 144.628 32.8474C145.666 32.8474 146.476 32.5642 147.059 31.9978C147.641 31.4315 147.933 30.5977 147.933 29.4967V19.8689H152.11V29.4474C152.11 31.6502 151.483 33.4125 150.23 34.7344C148.976 36.0563 147.109 36.7176 144.628 36.7182ZM162.515 36.7182C160.941 36.7406 159.387 36.3672 157.995 35.6323C156.676 34.9328 155.573 33.8839 154.809 32.6003C154.034 31.3023 153.646 29.8103 153.646 28.1243C153.616 26.5513 154.018 25.0002 154.809 23.6403C155.571 22.3517 156.673 21.2984 157.995 20.5967C159.391 19.8829 160.936 19.5107 162.503 19.5107C164.071 19.5107 165.616 19.8829 167.011 20.5967C168.331 21.2963 169.43 22.3503 170.184 23.6403C170.97 25.0021 171.37 26.5524 171.34 28.1243C171.34 29.8085 170.955 31.3005 170.183 32.6003C169.426 33.8853 168.326 34.9349 167.007 35.6323C165.624 36.3651 164.079 36.7385 162.513 36.7182H162.515ZM162.515 32.8008C163.314 32.8092 164.102 32.6142 164.804 32.2341C165.497 31.8568 166.069 31.2926 166.456 30.6058C166.878 29.8492 167.09 28.9938 167.07 28.1279C167.09 27.2672 166.883 26.4163 166.468 25.6616C166.083 24.9777 165.515 24.414 164.828 24.0333C164.12 23.6439 163.323 23.445 162.515 23.4559C161.7 23.4433 160.895 23.6423 160.179 24.0333C159.492 24.414 158.924 24.9777 158.539 25.6616C158.124 26.4163 157.917 27.2672 157.937 28.1279C157.918 28.9923 158.125 29.8467 158.539 30.6058C158.922 31.2957 159.496 31.861 160.191 32.2341C160.907 32.6158 161.708 32.8107 162.519 32.8008H162.515ZM172.989 19.8689H180.399C182.335 19.8689 183.849 20.3564 184.943 21.3316C186.036 22.3068 186.583 23.7068 186.583 25.5318C186.583 26.7595 186.314 27.8059 185.777 28.6713C185.242 29.5364 184.45 30.2128 183.512 30.6058L186.438 36.3637H182.141L179.521 31.1957H177.168V36.3637H172.991L172.989 19.8689ZM179.668 27.6794C180.504 27.6794 181.148 27.5183 181.603 27.196C182.057 26.8737 182.285 26.319 182.287 25.5318C182.287 24.7136 182.063 24.1512 181.614 23.8444C181.165 23.5377 180.517 23.3846 179.668 23.3852H177.167V27.6821L179.668 27.6794ZM193.307 19.8689H197.413L203.998 36.3637H199.727L198.404 32.9619H192.317L190.996 36.3637H186.699L193.307 19.8689ZM197.369 29.7554L195.363 24.2052L193.333 29.7554H197.369Z" fill="#FF9D00"/>
<path d="M41.5223 43.3711C39.5791 43.3744 37.6557 42.9818 35.8692 42.2172C34.1409 41.4777 32.5731 40.4087 31.2536 39.0697C29.209 36.9894 27.8232 34.3524 27.2696 31.4886C26.716 28.6248 27.0191 25.6613 28.141 22.9688C28.8681 21.227 29.925 19.642 31.2536 18.3013C32.594 16.9385 34.1923 15.8562 35.9554 15.1174C37.7184 14.3785 39.6108 13.998 41.5223 13.998C43.4339 13.998 45.3263 14.3785 47.0893 15.1174C48.8523 15.8562 50.4506 16.9385 51.7911 18.3013C54.3744 20.919 55.8894 24.4055 56.0403 28.0801C56.1913 31.7548 54.9674 35.3538 52.6075 38.1745L48.1978 38.1799C49.5608 37.1831 50.6933 35.9045 51.5183 34.4312C52.3434 32.9578 52.8416 31.3241 52.9792 29.641C53.1168 27.958 52.8905 26.2651 52.3157 24.6773C51.7409 23.0895 50.831 21.644 49.648 20.439C48.5894 19.3578 47.3255 18.4988 45.9306 17.9124C44.5357 17.3259 43.0378 17.0239 41.5246 17.0239C40.0114 17.0239 38.5134 17.3259 37.1185 17.9124C35.7236 18.4988 34.4598 19.3578 33.4012 20.439C31.7834 22.0947 30.6876 24.1892 30.2498 26.4622C29.812 28.7353 30.0515 31.0869 30.9385 33.225C31.5134 34.6073 32.3492 35.8659 33.4003 36.932C34.4436 37.9947 35.6842 38.8437 37.0526 39.4314C38.4648 40.0383 39.9862 40.35 41.5232 40.3472C41.6065 40.3472 41.6754 40.3472 41.7399 40.3472H50.348C47.8249 42.3097 44.7189 43.3739 41.5223 43.3711ZM41.5223 38.188C40.2749 38.1898 39.0403 37.9357 37.895 37.4414C36.7844 36.9615 35.7779 36.2698 34.9319 35.4048C34.0786 34.5355 33.4006 33.51 32.9348 32.3844C31.9581 30.0152 31.9581 27.3558 32.9348 24.9866C33.4007 23.8613 34.0787 22.8362 34.9319 21.9671C35.7776 21.1019 36.7842 20.4101 37.895 19.9306C39.0411 19.438 40.2754 19.184 41.5228 19.184C42.7702 19.184 44.0045 19.438 45.1505 19.9306C46.2612 20.4099 47.2675 21.1017 48.1127 21.9671C48.9665 22.8361 49.6447 23.8616 50.1099 24.9875C51.0866 27.3567 51.0866 30.0161 50.1099 32.3853C49.6444 33.5111 48.9663 34.5366 48.1127 35.4057C47.2673 36.2709 46.2611 36.9626 45.1505 37.4423C44.0048 37.9361 42.77 38.1899 41.5223 38.188ZM41.4122 21.3405C40.4575 21.3393 39.5128 21.535 38.6371 21.9152C37.7839 22.2861 37.0117 22.8208 36.3642 23.4889C35.7096 24.1594 35.1902 24.9496 34.8344 25.8164C34.0869 27.6413 34.0869 29.6868 34.8344 31.5116C35.1905 32.3783 35.7098 33.1685 36.3642 33.8391C37.011 34.5043 37.7812 35.037 38.6318 35.4075C39.5089 35.7867 40.4544 35.9822 41.41 35.9822C42.3656 35.9822 43.3111 35.7867 44.1882 35.4075C45.0392 35.0373 45.8097 34.5045 46.4566 33.8391L44.95 32.3173V32.3218C44.0524 33.2606 42.8187 33.8045 41.5201 33.8337C40.2216 33.8629 38.9646 33.3751 38.0257 32.4775C37.972 32.4268 37.9201 32.3749 37.87 32.3218C36.9288 31.3387 36.4035 30.0303 36.4035 28.6694C36.4035 27.3085 36.9288 26.0001 37.87 25.017C38.3145 24.5521 38.8463 24.1794 39.435 23.9201C40.0236 23.6607 40.6576 23.5199 41.3007 23.5056C41.9437 23.4913 42.5833 23.6038 43.1829 23.8367C43.7825 24.0696 44.3304 24.4184 44.7952 24.8631C44.848 24.9132 44.899 24.9651 44.95 25.017L46.4566 23.4952C45.8104 22.8268 45.0394 22.2915 44.1873 21.9197C43.3121 21.5374 42.3673 21.3402 41.4122 21.3405Z" fill="#FF9D00"/>
</g>
<defs>
<clipPath id="clip0_2474_17926">
<rect width="177" height="29.3712" fill="white" transform="translate(27 14)"/>
</clipPath>
</defs>
</svg>
