<svg width="230" height="58" viewBox="0 0 230 58" fill="none" xmlns="http://www.w3.org/2000/svg">
<path d="M2.89941 34.5799H8.5256V32.6471H7.97568C7.80647 32.6471 7.55266 32.353 7.55266 32.185V26.0925C7.55266 25.9245 7.80647 25.6303 7.97568 25.6303H8.5256V23.6135H2.89941V25.6303H3.40705C3.61856 25.6303 3.87236 25.9245 3.87236 26.0925V32.185C3.87236 32.353 3.61856 32.6471 3.40705 32.6471H2.89941V34.5799ZM8.90633 34.5799H14.0249V32.6471H13.0942V28.7816C13.3481 28.7396 13.5596 28.7396 13.7288 28.7396C14.4056 28.7396 14.744 28.8656 14.744 29.4539V34.5379H18.805V32.6051H18.5512C18.382 32.6051 18.1282 32.353 18.1282 32.185V28.1093C18.1282 26.5967 17.0706 26.1345 15.9708 26.1345C14.6594 26.1345 13.7288 26.6808 12.9673 27.4371C12.8827 26.5547 12.6712 26.3026 12.3751 26.3026H8.77942V28.3614H9.24474C9.41395 28.3614 9.66777 28.6135 9.66777 28.7816V32.269C9.66777 32.395 9.41395 32.6892 9.24474 32.6892H8.82172C8.90633 32.6892 8.90633 34.5799 8.90633 34.5799ZM18.8896 28.4455H19.6934V32.395C19.6934 34.3278 20.9202 34.79 22.7391 34.79C23.5006 34.79 24.1351 34.6639 24.5581 34.5379V32.6892H24.1351C23.3737 32.6892 23.1622 32.4791 23.1622 31.7648V28.4455H24.5158V26.3866H23.1622V24.2438H19.7357V26.3866H18.9319L18.8896 28.4455ZM33.3993 31.2186C33.3993 31.0925 33.4416 30.7984 33.4416 30.4203C33.4416 27.5211 32.0879 26.2606 29.3383 26.2606C26.5463 26.2606 24.8543 27.9413 24.8543 30.5463C24.8543 33.1513 26.1656 34.748 29.3806 34.748C31.2842 34.748 32.3841 34.4118 33.1455 33.9917V32.0169H31.3265C30.9881 32.4371 30.6074 32.6892 29.7613 32.6892C28.8307 32.6892 28.4076 32.227 28.323 31.2186C28.2807 31.2186 33.3993 31.2186 33.3993 31.2186ZM29.3383 28.1513C29.9305 28.1513 30.1843 28.5715 30.2689 29.5799H28.2807C28.4499 28.5715 28.7038 28.1513 29.3383 28.1513ZM33.9069 34.5799H38.9409V32.6471H38.0949V29.1597C38.5602 29.0337 39.2793 28.9076 40.3369 28.9076H40.7176V26.3866C40.4638 26.3026 40.3369 26.3026 40.2523 26.3026C39.1947 26.3026 38.6448 26.8068 38.0949 27.5211C38.0102 26.6387 37.7987 26.3866 37.5026 26.3866H33.9069V28.4455H34.3723C34.5415 28.4455 34.7953 28.6976 34.7953 28.8656V32.353C34.7953 32.5211 34.5415 32.7732 34.3723 32.7732H33.9492L33.9069 34.5799ZM41.1829 34.5799H46.3015V32.6471H45.3708V28.7816C45.6246 28.7396 45.8361 28.7396 46.0054 28.7396C46.6822 28.7396 47.0206 28.8656 47.0206 29.4539V34.5379H51.0816V32.6051H50.8278C50.6586 32.6051 50.4048 32.353 50.4048 32.185V28.1093C50.4048 26.5967 49.3472 26.1345 48.2474 26.1345C46.936 26.1345 46.0054 26.6808 45.2862 27.4371C45.2016 26.5547 44.9901 26.3026 44.694 26.3026H41.0983V28.3614H41.5636C41.7328 28.3614 41.9866 28.6135 41.9866 28.7816V32.269C41.9866 32.395 41.7328 32.6892 41.5636 32.6892H41.1406C41.1829 32.6892 41.1829 34.5799 41.1829 34.5799ZM54.0428 34.706C55.058 34.706 55.8195 34.4118 56.4117 33.7396C56.7078 34.3278 57.2154 34.706 58.273 34.706C59.0767 34.706 59.7113 34.5379 60.2189 34.2438V32.6471H59.9228C59.7536 32.6471 59.5421 32.395 59.5421 32.227V28.9497C59.5421 27.0169 58.3999 26.1766 55.8195 26.1766C54.1274 26.1766 52.816 26.4707 51.9277 26.7228V29.0337H53.3236C53.6621 28.7396 54.0851 28.4875 54.9311 28.4875C55.7349 28.4875 56.0733 28.7816 56.0733 29.3278V29.79C55.608 29.706 55.1849 29.6639 54.5927 29.6639C52.6468 29.6639 51.42 30.4203 51.42 32.227C51.4623 33.9497 52.6468 34.706 54.0428 34.706ZM55.4388 32.7732C55.0157 32.7732 54.6773 32.6051 54.6773 32.0169C54.6773 31.4287 54.9734 31.2186 55.5234 31.2186C55.7349 31.2186 55.9887 31.2606 56.1579 31.3026V32.5631C55.9464 32.6892 55.7349 32.7732 55.4388 32.7732ZM60.3458 28.4455H61.1496V32.395C61.1496 34.3278 62.3763 34.79 64.1953 34.79C64.9567 34.79 65.5913 34.6639 66.0143 34.5379V32.6892H65.549C64.7875 32.6892 64.576 32.4791 64.576 31.7648V28.4455H65.9297V26.3866H64.576V24.2438H61.1496V26.3866H60.3458V28.4455ZM66.395 34.5799H71.3867V32.6471H70.9637C70.7944 32.6471 70.5406 32.395 70.5406 32.227V27.1429C70.5406 26.6387 70.3714 26.3446 70.0753 26.3446H66.3104V28.4034H66.7757C66.9449 28.4034 67.1565 28.6555 67.1565 28.8236V32.311C67.1565 32.4791 66.9449 32.7312 66.7757 32.7312H66.3527V34.5799H66.395ZM68.8485 26.0925C69.7792 26.0925 70.4137 25.5463 70.4137 24.6639C70.4137 23.7816 69.7792 23.1934 68.8485 23.1934C67.9179 23.1934 67.2834 23.7816 67.2834 24.6639C67.2834 25.4623 67.9602 26.0925 68.8485 26.0925ZM76.2937 34.748C79.0011 34.748 80.947 33.1934 80.947 30.5463C80.947 27.9413 79.0011 26.2606 76.2937 26.2606C73.5864 26.2606 71.6405 27.9413 71.6405 30.5463C71.6828 33.1513 73.6287 34.748 76.2937 34.748ZM76.2937 32.6892C75.5746 32.6892 75.1093 32.0169 75.1093 30.5043C75.1093 28.9917 75.5746 28.3614 76.2937 28.3614C77.0129 28.3614 77.4782 28.9917 77.4782 30.5043C77.5205 32.0589 77.0129 32.6892 76.2937 32.6892ZM81.2854 34.5799H86.404V32.6471H85.4733V28.7816C85.7271 28.7396 85.9386 28.7396 86.1078 28.7396C86.7847 28.7396 87.1231 28.8656 87.1231 29.4539V34.5379H91.1841V32.6051H90.9303C90.7611 32.6051 90.5073 32.353 90.5073 32.185V28.1093C90.5073 26.5967 89.4497 26.1345 88.3499 26.1345C87.0385 26.1345 86.1078 26.6808 85.3464 27.4371C85.2618 26.5547 85.0503 26.3026 84.7542 26.3026H81.1585V28.3614H81.6238C81.793 28.3614 82.0468 28.6135 82.0468 28.7816V32.269C82.0468 32.395 81.793 32.6892 81.6238 32.6892H81.2008C81.2854 32.6892 81.2854 34.5799 81.2854 34.5799ZM94.1453 34.706C95.1605 34.706 95.922 34.4118 96.5142 33.7396C96.8103 34.3278 97.3179 34.706 98.3755 34.706C99.1792 34.706 99.8138 34.5379 100.321 34.2438V32.6471H100.025C99.8561 32.6471 99.6446 32.395 99.6446 32.227V28.9497C99.6446 27.0169 98.5024 26.1766 95.922 26.1766C94.2299 26.1766 92.9185 26.4707 92.0302 26.7228V29.0337H93.4261C93.7645 28.7396 94.1876 28.4875 95.0336 28.4875C95.8374 28.4875 96.1758 28.7816 96.1758 29.3278V29.79C95.7104 29.706 95.2874 29.6639 94.6952 29.6639C92.7493 29.6639 91.5225 30.4203 91.5225 32.227C91.6071 33.9497 92.7916 34.706 94.1453 34.706ZM95.5835 32.7732C95.1182 32.7732 94.8221 32.6051 94.8221 32.0169C94.8221 31.4287 95.1182 31.2186 95.6681 31.2186C95.8797 31.2186 96.1335 31.2606 96.3027 31.3026V32.5631C96.0489 32.6892 95.8374 32.7732 95.5835 32.7732ZM100.744 34.5799H105.821V32.6471H105.355C105.186 32.6471 104.975 32.395 104.975 32.227V24.3278C104.975 23.9076 104.763 23.6555 104.509 23.6555H100.702V25.6724H101.167C101.337 25.6724 101.548 25.9245 101.548 26.0925V32.269C101.548 32.4371 101.337 32.6892 101.167 32.6892H100.702V34.5799H100.744ZM108.655 34.5799H113.985C116.946 34.5799 118.765 33.5295 118.765 31.4287C118.765 29.9581 117.877 29.1597 116.269 28.9076V28.8236C117.623 28.4875 118.469 27.8572 118.469 26.5127C118.469 24.6219 116.904 23.6976 113.985 23.6976H108.697V25.6724H109.163C109.374 25.6724 109.628 25.9665 109.628 26.1345V32.227C109.628 32.395 109.374 32.6892 109.163 32.6892H108.697V34.5799H108.655ZM113.139 32.6051V30.0001H113.731C114.704 30.0001 115.085 30.4203 115.085 31.3026C115.085 32.185 114.704 32.6471 113.731 32.6471H113.139V32.6051ZM113.139 25.7564H113.689C114.577 25.7564 114.916 26.1766 114.916 26.9329C114.916 27.6892 114.535 28.1093 113.689 28.1093H113.139V25.7564ZM121.896 34.748C123.249 34.748 124.095 34.2438 124.814 33.4875C124.899 34.3698 125.153 34.6219 125.407 34.6219H128.918V32.6892H128.537C128.368 32.6892 128.156 32.4371 128.156 32.269V26.3866H123.926V28.4455H124.73V32.227C124.476 32.269 124.264 32.311 124.138 32.311C123.461 32.311 123.122 32.185 123.122 31.5547V26.4707H119.019V28.5295H119.357C119.484 28.5295 119.738 28.7816 119.738 28.9497V32.8572C119.696 34.3278 120.796 34.748 121.896 34.748ZM132.767 34.748C135.517 34.748 136.701 33.6976 136.701 31.8068C136.701 29.874 135.644 29.4118 133.571 29.1597C132.598 29.0337 132.302 28.9497 132.302 28.6976C132.302 28.4034 132.556 28.2354 133.232 28.2354C133.867 28.2354 134.29 28.4455 134.586 28.7816H136.363V26.6387C135.559 26.3866 134.628 26.2186 133.148 26.2186C130.864 26.2186 129.341 27.1009 129.341 28.9917C129.341 30.8404 130.398 31.4707 132.175 31.6808C133.232 31.8068 133.529 31.8908 133.529 32.227C133.529 32.6051 133.148 32.6892 132.598 32.6892C132.006 32.6892 131.414 32.395 131.16 31.9749H129.341V34.2438C130.06 34.4959 131.075 34.748 132.767 34.748ZM137.167 34.5799H142.158V32.6471H141.735C141.566 32.6471 141.312 32.395 141.312 32.227V27.1429C141.312 26.6387 141.143 26.3446 140.847 26.3446H137.082V28.4034H137.547C137.717 28.4034 137.928 28.6555 137.928 28.8236V32.311C137.928 32.4791 137.717 32.7312 137.547 32.7312H137.124L137.167 34.5799ZM139.62 26.0925C140.551 26.0925 141.228 25.5463 141.228 24.6639C141.228 23.7816 140.593 23.1934 139.62 23.1934C138.689 23.1934 138.055 23.7816 138.055 24.6639C138.055 25.4623 138.732 26.0925 139.62 26.0925ZM142.581 34.5799H147.658V32.6471H146.727V28.7816C146.981 28.7396 147.192 28.7396 147.361 28.7396C148.038 28.7396 148.377 28.8656 148.377 29.4539V34.5379H152.438V32.6051H152.184C152.015 32.6051 151.761 32.353 151.761 32.185V28.1093C151.761 26.5967 150.703 26.1345 149.603 26.1345C148.292 26.1345 147.361 26.6808 146.6 27.4371C146.515 26.5547 146.304 26.3026 146.008 26.3026H142.412V28.3614H142.877C143.047 28.3614 143.3 28.6135 143.3 28.7816V32.269C143.3 32.395 143.047 32.6892 142.877 32.6892H142.454C142.581 32.6892 142.581 34.5799 142.581 34.5799ZM161.279 31.2186C161.279 31.0925 161.321 30.7984 161.321 30.4203C161.321 27.5211 160.01 26.2606 157.218 26.2606C154.426 26.2606 152.734 27.9413 152.734 30.5463C152.734 33.1513 154.045 34.748 157.26 34.748C159.164 34.748 160.264 34.4118 160.983 33.9917V32.0169H159.164C158.825 32.4371 158.445 32.6892 157.599 32.6892C156.668 32.6892 156.245 32.227 156.16 31.2186H161.279ZM157.218 28.1513C157.81 28.1513 158.064 28.5715 158.148 29.5799H156.16C156.287 28.5715 156.583 28.1513 157.218 28.1513ZM165.213 34.748C167.963 34.748 169.147 33.6976 169.147 31.8068C169.147 29.874 168.09 29.4118 166.017 29.1597C165.044 29.0337 164.79 28.9497 164.79 28.6976C164.79 28.4034 165.044 28.2354 165.721 28.2354C166.355 28.2354 166.778 28.4455 167.032 28.7816H168.809V26.6387C168.005 26.3866 167.074 26.2186 165.594 26.2186C163.309 26.2186 161.786 27.1009 161.786 28.9917C161.786 30.8404 162.844 31.4707 164.621 31.6808C165.678 31.8068 165.974 31.8908 165.974 32.227C165.974 32.6051 165.594 32.6892 165.044 32.6892C164.452 32.6892 163.817 32.395 163.605 31.9749H161.786V34.2438C162.506 34.4959 163.521 34.748 165.213 34.748ZM172.954 34.748C175.704 34.748 176.888 33.6976 176.888 31.8068C176.888 29.874 175.831 29.4118 173.758 29.1597C172.785 29.0337 172.489 28.9497 172.489 28.6976C172.489 28.4034 172.743 28.2354 173.42 28.2354C174.054 28.2354 174.477 28.4455 174.773 28.7816H176.55V26.6387C175.746 26.3866 174.816 26.2186 173.335 26.2186C171.051 26.2186 169.528 27.1009 169.528 28.9917C169.528 30.8404 170.585 31.4707 172.362 31.6808C173.42 31.8068 173.716 31.8908 173.716 32.227C173.716 32.6051 173.335 32.6892 172.785 32.6892C172.193 32.6892 171.601 32.395 171.347 31.9749H169.528V34.2438C170.289 34.4959 171.304 34.748 172.954 34.748ZM182.092 34.5799H187.675V32.6471H187.168C186.956 32.6471 186.702 32.353 186.702 32.185V25.7564H187.591L187.845 27.7732H190.044V23.6976H179.807V27.7732H182.007L182.261 25.7564H183.149V32.185C183.149 32.353 182.895 32.6471 182.684 32.6471H182.176L182.092 34.5799ZM190.467 34.5799H195.459V32.6471H195.036C194.867 32.6471 194.613 32.395 194.613 32.227V27.1429C194.613 26.6387 194.444 26.3446 194.148 26.3446H190.383V28.4034H190.848C191.017 28.4034 191.229 28.6555 191.229 28.8236V32.311C191.229 32.4791 191.017 32.7312 190.848 32.7312H190.425C190.467 32.6892 190.467 34.5799 190.467 34.5799ZM192.963 26.0925C193.894 26.0925 194.571 25.5463 194.571 24.6639C194.571 23.7816 193.936 23.1934 192.963 23.1934C192.033 23.1934 191.398 23.7816 191.398 24.6639C191.398 25.4623 192.033 26.0925 192.963 26.0925ZM195.882 34.5799H200.831V32.6471H200.112V28.7816C200.366 28.7396 200.578 28.7396 200.705 28.7396C201.424 28.7396 201.551 28.8656 201.551 29.4539V34.5379H205.654V32.6051H204.935V28.7396C205.189 28.6976 205.4 28.6976 205.527 28.6976C206.246 28.6976 206.331 28.8236 206.331 29.4118V34.4959H210.392V32.5631H210.138C209.969 32.5631 209.715 32.311 209.715 32.1429V28.0673C209.715 26.5547 208.7 26.0925 207.6 26.0925C206.246 26.0925 205.442 26.7228 204.808 27.4371C204.554 26.3866 203.666 26.0925 202.735 26.0925C201.424 26.0925 200.578 26.7228 199.943 27.4371C199.858 26.4707 199.647 26.2186 199.351 26.2186H195.755V28.2774H196.22C196.39 28.2774 196.644 28.5295 196.644 28.6976V32.185C196.644 32.311 196.39 32.6051 196.22 32.6051H195.797V34.5799H195.882ZM219.233 31.2186C219.233 31.0925 219.275 30.7984 219.275 30.4203C219.275 27.5211 217.964 26.2606 215.172 26.2606C212.422 26.2606 210.688 27.9413 210.688 30.5463C210.688 33.1513 211.999 34.748 215.214 34.748C217.118 34.748 218.218 34.4118 218.937 33.9917V32.0169H217.118C216.779 32.4371 216.399 32.6892 215.553 32.6892C214.622 32.6892 214.199 32.227 214.114 31.2186H219.233ZM215.13 28.1513C215.722 28.1513 215.976 28.5715 216.06 29.5799H214.072C214.199 28.5715 214.537 28.1513 215.13 28.1513ZM223.167 34.748C225.917 34.748 227.101 33.6976 227.101 31.8068C227.101 29.874 226.044 29.4118 223.971 29.1597C222.998 29.0337 222.744 28.9497 222.744 28.6976C222.744 28.4034 222.998 28.2354 223.675 28.2354C224.309 28.2354 224.732 28.4455 224.986 28.7816H226.763V26.6387C225.959 26.3866 225.028 26.2186 223.548 26.2186C221.263 26.2186 219.74 27.1009 219.74 28.9917C219.74 30.8404 220.798 31.4707 222.575 31.6808C223.632 31.8068 223.928 31.8908 223.928 32.227C223.928 32.6051 223.548 32.6892 222.998 32.6892C222.406 32.6892 221.771 32.395 221.56 31.9749H219.74V34.2438C220.46 34.4959 221.475 34.748 223.167 34.748Z" fill="white"/>
</svg>
