<svg width="230" height="58" viewBox="0 0 230 58" fill="none" xmlns="http://www.w3.org/2000/svg">
<g clip-path="url(#clip0_2474_17935)">
<path d="M69.861 26.6071L69.5564 28.1043H69.4803C69.0997 27.2669 68.0339 26.0996 65.6739 26.0996C61.8674 26.0996 57.9848 29.0433 57.122 33.6871C56.3861 37.7474 58.3401 41.3254 62.8571 41.3254C64.5065 41.3254 66.4098 40.691 67.3994 39.2953H67.4756L67.1964 40.8179H71.4089L74.0481 26.6071H69.861ZM68.4906 33.6871C68.2115 35.0828 66.8919 37.3413 64.2528 37.3413C61.6644 37.3413 61.1315 35.0575 61.3599 33.7379C61.6644 32.1138 63.1108 30.0837 65.5724 30.0837C67.9831 30.1091 68.7951 32.0123 68.4906 33.6871Z" fill="white"/>
<path d="M76.4331 26.6071H80.3918L80.1127 28.1043H80.1888C80.6963 27.4192 81.686 26.0996 84.1221 26.0996L83.3354 30.4136C81.3307 30.439 79.8843 30.845 79.5036 33.0274L78.0572 40.8179H73.7939L76.4331 26.6071Z" fill="white"/>
<path d="M86.9901 21.0498H91.2533L89.2486 31.7586H89.3247L94.2478 26.6072H99.2469L92.7506 32.8498L96.4809 40.818H91.6594L88.9187 33.9664H88.8426L87.5992 40.818H83.3105L86.9901 21.0498Z" fill="white"/>
<path d="M106.072 26.0996C101.758 26.0996 97.9266 29.8046 97.2161 33.7633C96.4294 37.9757 99.2716 41.3 103.357 41.3C104.804 41.3 106.301 40.8686 107.62 40.0058C108.965 39.1938 110.209 37.9757 111.173 36.377H106.834C106.123 37.1129 105.311 37.6966 103.992 37.6966C102.342 37.6966 101.099 36.7069 101.175 35.0067H111.833C111.96 34.6768 112.036 34.4231 112.137 33.8901C112.949 29.5508 110.412 26.0996 106.072 26.0996ZM101.758 32.1392C102.088 31.3018 103.256 29.7031 105.463 29.7031C107.671 29.7031 108.204 31.3018 108.204 32.1392H101.758Z" fill="white"/>
<path d="M51.4882 21.0498L43.9768 32.3169H43.926V21.0498H40.2972L27 40.818H32.1514L39.612 29.5509H39.6882V40.818H43.3424L50.803 29.5509H50.8791V40.818H55.1424V21.0498H51.4882Z" fill="white"/>
<path d="M122.922 26.6072H120.232L121.019 22.3948H117.289L116.984 24.0189C116.654 25.8713 115.487 26.4296 113.939 26.6072H113.914L113.279 29.83H115.386L113.355 40.818H117.593L119.623 29.83H122.339L122.922 26.6072Z" fill="white"/>
<path d="M188.698 35.4383C187.303 38.6611 183.978 41.3002 180.146 41.3002C175.832 41.3002 173.168 37.8998 173.929 33.6619C174.716 29.5002 178.573 26.0998 182.836 26.0998C186.592 26.0998 189.18 28.612 189.256 32.0886H184.943C184.663 31.0989 184.029 30.0839 182.227 30.0839C180.223 29.9824 178.573 31.6318 178.192 33.6873C177.812 35.7682 178.878 37.3161 180.908 37.3161C182.659 37.3161 183.724 36.3011 184.333 35.4129H188.698V35.4383ZM153.476 16L145.203 21.0499H147.538L140.052 32.317H139.976V21.0499H136.321L128.835 32.317H128.759V21.0499H124.496V40.8181H128.201L135.687 29.551H135.763V40.8181H139.417L152.664 21.0499H154.77L153.476 16ZM161.546 40.8181H157.333L157.612 39.2955H157.536C156.546 40.6912 154.643 41.3256 152.994 41.3256C148.477 41.3256 146.523 37.7729 147.259 33.6873C148.096 29.0434 152.004 26.0998 155.81 26.0998C158.145 26.0998 159.236 27.2417 159.617 28.1045H159.693L159.998 26.6073H164.21L161.546 40.8181ZM154.389 37.3669C157.029 37.3669 158.348 35.083 158.627 33.7127C158.932 32.0125 158.12 30.1092 155.709 30.1092C153.273 30.1092 151.801 32.1394 151.497 33.7634C151.268 35.083 151.801 37.3669 154.389 37.3669ZM174.817 26.6073H172.153L172.94 22.3948H169.209L168.905 24.0189C168.575 25.8714 167.407 26.4297 165.86 26.6073H165.809L165.2 29.8301H167.306L165.276 40.8181H169.514L171.544 29.8301H174.259L174.817 26.6073ZM192.708 21.0499H196.946L195.651 28.1045H195.727C196.641 26.7849 197.859 26.0998 199.737 26.0998C201.082 26.0998 202.63 26.6073 203.34 27.6985C204.254 29.0942 204.152 30.3376 203.67 32.8753L202.224 40.8181H197.986L199.407 33.0783C199.534 32.3931 199.94 30.0839 197.681 30.0839C195.296 30.0839 194.89 32.2155 194.763 32.926L193.317 40.7927H189.079L192.708 21.0499Z" fill="#4DB74D"/>
</g>
<defs>
<clipPath id="clip0_2474_17935">
<rect width="177" height="25.3256" fill="white" transform="translate(27 16)"/>
</clipPath>
</defs>
</svg>
