<svg id="Layer_1" data-name="Layer 1" xmlns="http://www.w3.org/2000/svg" viewBox="0 0 953.2 356.5"><defs><style>.cls-1{fill:#fff;}</style></defs><path class="cls-1" d="M787.2,300.5a4.69,4.69,0,0,1-4.7-4.7v-160a4.69,4.69,0,0,1,4.7-4.7h31a4.69,4.69,0,0,1,4.7,4.7V295.9a4.69,4.69,0,0,1-4.7,4.7h-31Z" transform="translate(-72.4 -46.9)"/><path class="cls-1" d="M1022.7,272.5l-56.9-56.9,56.9-56.9a9.42,9.42,0,0,0,0-13.4l-17.1-17.1a9.42,9.42,0,0,0-13.4,0l-56.9,56.9-56.9-56.9a9.42,9.42,0,0,0-13.4,0l-17,17.2a9.42,9.42,0,0,0,0,13.4l56.9,56.9L848,272.5a9.42,9.42,0,0,0,0,13.4L865.1,303a9.42,9.42,0,0,0,13.4,0l56.9-56.9L992.3,303a9.42,9.42,0,0,0,13.4,0l17.1-17.1a9.47,9.47,0,0,0,2.8-6.7A10,10,0,0,0,1022.7,272.5Z" transform="translate(-72.4 -46.9)"/><path class="cls-1" d="M454.1,300.5a43.49,43.49,0,0,1-43.4-43.4V136.2a4.69,4.69,0,0,1,4.7-4.7h31.9a4.69,4.69,0,0,1,4.7,4.7V250.4a9,9,0,0,0,9,9h57.4a9,9,0,0,0,9-9V136.2a4.69,4.69,0,0,1,4.7-4.7H564a4.69,4.69,0,0,1,4.7,4.7V257.1a43.49,43.49,0,0,1-43.4,43.4Z" transform="translate(-72.4 -46.9)"/><path class="cls-1" d="M782.5,113V81.8a4.59,4.59,0,0,1,4.6-4.6h31.1a4.59,4.59,0,0,1,4.6,4.6V113a4.59,4.59,0,0,1-4.6,4.6H787.1A4.65,4.65,0,0,1,782.5,113Z" transform="translate(-72.4 -46.9)"/><path class="cls-1" d="M834,401a2.19,2.19,0,0,1-.7,1.7,2.34,2.34,0,0,1-1.7.7H812.2a2.19,2.19,0,0,1-1.7-.7,2.34,2.34,0,0,1-.7-1.7l-.3-58.3a2.19,2.19,0,0,1,.7-1.7,2.34,2.34,0,0,1,1.7-.7h19.7a2.19,2.19,0,0,1,1.7.7,2.34,2.34,0,0,1,.7,1.7Z" transform="translate(-72.4 -46.9)"/><path class="cls-1" d="M689.8,401a2.19,2.19,0,0,1-.7,1.7,2.34,2.34,0,0,1-1.7.7H668a2.19,2.19,0,0,1-1.7-.7,2.34,2.34,0,0,1-.7-1.7l-.3-58.3a2.19,2.19,0,0,1,.7-1.7,2.34,2.34,0,0,1,1.7-.7h19.7a2.19,2.19,0,0,1,1.7.7,2.34,2.34,0,0,1,.7,1.7V401Z" transform="translate(-72.4 -46.9)"/><path class="cls-1" d="M454.4,401a2.19,2.19,0,0,1-.7,1.7,2.34,2.34,0,0,1-1.7.7H432.6a2.19,2.19,0,0,1-1.7-.7,2.34,2.34,0,0,1-.7-1.7l-.3-58.3a2.19,2.19,0,0,1,.7-1.7,2.34,2.34,0,0,1,1.7-.7H452a2.19,2.19,0,0,1,1.7.7,2.34,2.34,0,0,1,.7,1.7V401Z" transform="translate(-72.4 -46.9)"/><path class="cls-1" d="M526,340.2h16.8a2.19,2.19,0,0,1,1.7.7,2.34,2.34,0,0,1,.7,1.7V401a2.19,2.19,0,0,1-.7,1.7,2.34,2.34,0,0,1-1.7.7H528.3a4.38,4.38,0,0,1-3.6-1.9L505,376.4V401a2.19,2.19,0,0,1-.7,1.7,2.34,2.34,0,0,1-1.7.7H485.8a2.19,2.19,0,0,1-1.7-.7,2.34,2.34,0,0,1-.7-1.7V342.7a2.19,2.19,0,0,1,.7-1.7,2.34,2.34,0,0,1,1.7-.7h14.6a4.23,4.23,0,0,1,3.5,1.8l19.7,27.2V342.8a2.19,2.19,0,0,1,.7-1.7A2,2,0,0,1,526,340.2Z" transform="translate(-72.4 -46.9)"/><path class="cls-1" d="M577.8,340.2h57.4a2.19,2.19,0,0,1,1.7.7,2.34,2.34,0,0,1,.7,1.7v13.7a2.19,2.19,0,0,1-.7,1.7,2.34,2.34,0,0,1-1.7.7H599.7v5.8h29.6a2.19,2.19,0,0,1,1.7.7,2.34,2.34,0,0,1,.7,1.7v13.6a2.19,2.19,0,0,1-.7,1.7,2.34,2.34,0,0,1-1.7.7H599.7V401a2.19,2.19,0,0,1-.7,1.7,2.34,2.34,0,0,1-1.7.7H577.8a2.19,2.19,0,0,1-1.7-.7,2.34,2.34,0,0,1-.7-1.7V342.7a2.19,2.19,0,0,1,.7-1.7A2.14,2.14,0,0,1,577.8,340.2Z" transform="translate(-72.4 -46.9)"/><path class="cls-1" d="M761.4,340.2h16.8a2.19,2.19,0,0,1,1.7.7,2.34,2.34,0,0,1,.7,1.7V401a2.19,2.19,0,0,1-.7,1.7,2.34,2.34,0,0,1-1.7.7H763.7a4.38,4.38,0,0,1-3.6-1.9l-19.7-25.1V401a2.19,2.19,0,0,1-.7,1.7,2.34,2.34,0,0,1-1.7.7H721.2a2.19,2.19,0,0,1-1.7-.7,2.34,2.34,0,0,1-.7-1.7V342.7a2.19,2.19,0,0,1,.7-1.7,2.34,2.34,0,0,1,1.7-.7h14.6a4.23,4.23,0,0,1,3.5,1.8L759,369.3V342.8a2.19,2.19,0,0,1,.7-1.7A2,2,0,0,1,761.4,340.2Z" transform="translate(-72.4 -46.9)"/><path class="cls-1" d="M858.6,340.2h62.3a2.19,2.19,0,0,1,1.7.7,2.34,2.34,0,0,1,.7,1.7v14.5a2.19,2.19,0,0,1-.7,1.7,2.34,2.34,0,0,1-1.7.7H901.5V401a2.19,2.19,0,0,1-.7,1.7,2.34,2.34,0,0,1-1.7.7H880.5a2.19,2.19,0,0,1-1.7-.7,2.34,2.34,0,0,1-.7-1.7V359.6H858.7a2.19,2.19,0,0,1-1.7-.7,2.34,2.34,0,0,1-.7-1.7V342.7a2.19,2.19,0,0,1,.7-1.7A2.09,2.09,0,0,1,858.6,340.2Z" transform="translate(-72.4 -46.9)"/><path class="cls-1" d="M989.5,340.2h18.9a2,2,0,0,1,1.4.6,1.73,1.73,0,0,1,.6,1.2,2.66,2.66,0,0,1-.3,1.2l-22.8,37.6V401a2.19,2.19,0,0,1-.7,1.7,2.34,2.34,0,0,1-1.7.7H965.7a2.19,2.19,0,0,1-1.7-.7,2.34,2.34,0,0,1-.7-1.7V380.9l-22.7-37.6a2.66,2.66,0,0,1-.3-1.2,1.73,1.73,0,0,1,.6-1.2,2,2,0,0,1,1.4-.6h19a3.94,3.94,0,0,1,3.7,2.1l10.2,17.9,10.5-17.7A4.22,4.22,0,0,1,989.5,340.2Z" transform="translate(-72.4 -46.9)"/><path class="cls-1" d="M716.1,131.6H650.3a4.69,4.69,0,0,0-4.7,4.7v31.8a4.69,4.69,0,0,0,4.7,4.7h59.9a9,9,0,0,1,9,9v68.7a9,9,0,0,1-9,9H641.1a9,9,0,0,1-9-9V197.1h0V85.1a9.28,9.28,0,0,0-4.6-8l-31.2-18a3.5,3.5,0,0,0-5.3,3.1v84.7h0V257.2a43.36,43.36,0,0,0,43.4,43.4H717a43.36,43.36,0,0,0,43.4-43.4V175.9A44.38,44.38,0,0,0,716.1,131.6Z" transform="translate(-72.4 -46.9)"/><path class="cls-1" d="M388.4,352a11.52,11.52,0,0,0-5.9-10.1L277.7,282.4a5.08,5.08,0,0,0-7.6,4.4v31.1l-18.9,10.9a41.8,41.8,0,0,1-41.8,0l-67.1-38.7a41.83,41.83,0,0,1-20.9-36.2V176.4a42,42,0,0,1,20.9-36.2l67.1-38.7a41.8,41.8,0,0,1,41.8,0l67.1,38.7a42,42,0,0,1,20.9,36.2v77.5c0,17.4-10.1,28.1-16.3,33.1a3.89,3.89,0,0,0,.5,6.4L359.1,314a5.8,5.8,0,0,0,7.3-1.2,90.82,90.82,0,0,0,21.7-58.9V176.4a91.09,91.09,0,0,0-45.4-78.6L275.7,59a91.22,91.22,0,0,0-90.8,0L117.8,97.7a91.09,91.09,0,0,0-45.4,78.6v77.5a91.09,91.09,0,0,0,45.4,78.6l67.1,38.7a91.22,91.22,0,0,0,90.8,0l27.8-16L376.1,396a8.26,8.26,0,0,0,12.3-7.2Z" transform="translate(-72.4 -46.9)"/></svg>