<svg width="151" height="92" viewBox="0 0 151 92" fill="none" xmlns="http://www.w3.org/2000/svg">
<path fill-rule="evenodd" clip-rule="evenodd" d="M124.966 8.67936C124.966 3.4739 120.415 -0.560408 115.247 0.0638246L7.63749 13.9298C3.27885 14.4563 0 18.155 0 22.5453V50.6838C0 54.4659 3.44536 57.312 7.15948 56.5979C10.8736 55.8838 14.319 58.7299 14.319 62.512V83.2659C14.319 88.4944 18.9083 92.5357 24.0949 91.8743L143.42 76.6582C147.753 76.1057 151 72.4182 151 68.0498V41.6617C151 36.5031 146.527 32.4835 141.398 33.0328L132.167 34.0214C128.32 34.4334 124.966 31.4187 124.966 27.5498V8.67936ZM103.941 63.125C102.564 63.295 101.724 62.5457 101.735 61.1937L101.777 55.9419C101.781 55.4626 102.17 55.0265 102.645 54.9678L105.549 54.6093C106.024 54.5506 106.413 54.1145 106.417 53.6352L106.444 50.2474C106.448 49.7681 106.066 49.4272 105.59 49.4859L102.545 49.8618C102.07 49.9205 101.687 49.5796 101.691 49.1003L101.722 45.2499C101.726 44.7707 101.343 44.4298 100.868 44.4885L100.724 44.5062C100.487 44.5355 100.259 44.6623 100.095 44.8565L92.6705 53.6411L92.6848 51.8749C92.6887 51.3956 92.3062 51.0547 91.8305 51.1135L90.9262 51.2251C89.1705 51.4418 87.7953 51.9977 86.634 53.0466C86.1423 53.4907 85.3864 53.4862 85.1213 52.9575L84.9065 52.529C84.7651 52.247 84.4654 52.0938 84.135 52.1346L81.1225 52.5065C80.6469 52.5652 80.2581 53.0013 80.2543 53.4806L80.1132 70.9578C80.1094 71.4371 80.4919 71.778 80.9675 71.7193L85.8131 71.1211C86.2887 71.0624 86.6775 70.6263 86.6814 70.147L86.753 61.266C86.7728 58.8111 87.7699 57.6572 90.0652 57.3738L91.7817 57.1619C92.2528 57.1038 92.6386 56.6755 92.6498 56.2017L94.3545 55.9913C94.8302 55.9325 95.2127 56.2735 95.2088 56.7527L95.1576 63.1075C95.1231 67.377 97.68 69.6561 101.882 69.1373L105.541 68.6856C106.017 68.6269 106.405 68.1908 106.409 67.7115L106.442 63.6833C106.445 63.204 106.063 62.8631 105.587 62.9218L103.941 63.125ZM51.6144 67.3812C51.6035 68.7332 52.4441 69.4825 53.8213 69.3125L55.4672 69.1093C55.9429 69.0506 56.3253 69.3915 56.3215 69.8707L56.289 73.899C56.2851 74.3783 55.8964 74.8144 55.4207 74.8731L51.762 75.3248C47.5598 75.8436 45.003 73.5645 45.0374 69.295L45.0887 62.9402C45.0926 62.4609 44.7101 62.12 44.2344 62.1787L42.461 62.3977C42.28 62.42 42.1125 62.3845 41.9746 62.3055L41.9772 62.3237C42.0447 62.795 41.6469 63.2446 41.1651 63.3041L36.7239 63.8524C36.2482 63.9111 35.8992 63.5442 35.6996 63.1358C35.4084 62.5398 34.749 62.319 33.8995 62.4238C32.8401 62.5546 32.1296 63.1755 32.1224 64.065C32.1138 65.1324 33.5593 65.2383 35.3577 65.3362L35.4692 65.342C38.487 65.4992 42.3749 65.7019 42.3363 70.4815C42.3039 74.502 38.9279 77.549 33.843 78.1768C29.0274 78.7713 25.9937 76.7598 25.5506 73.1493C25.4925 72.6759 25.8893 72.2276 26.3707 72.1682L30.9542 71.6023C31.4299 71.5436 31.7857 71.9029 31.9532 72.329C32.2642 73.1202 33.0685 73.4029 34.0235 73.285C34.977 73.1673 35.8991 72.5558 35.9072 71.5596C35.916 70.4566 34.4708 70.3151 32.6369 70.2572C29.6747 70.1253 25.7622 69.7197 25.7998 65.0588C25.8308 61.2162 29.1349 58.3203 34.008 57.7187C37.8605 57.2431 40.6473 58.5445 41.6424 61.0483C41.6805 60.9086 41.7508 60.7747 41.8487 60.659L49.9745 51.044C50.1387 50.8498 50.3664 50.723 50.6038 50.6937L50.7477 50.676C51.2233 50.6172 51.6058 50.9582 51.6019 51.4374L51.5709 55.2878C51.567 55.7671 51.9495 56.108 52.4252 56.0493L55.4698 55.6734C55.9454 55.6147 56.3279 55.9556 56.3241 56.4348L56.2967 59.8227C56.2929 60.302 55.9041 60.7381 55.4284 60.7968L52.5251 61.1552C52.0494 61.214 51.6607 61.6501 51.6568 62.1293L51.6144 67.3812ZM73.5077 53.4465C73.1824 53.4867 72.8857 53.715 72.7492 54.0302C72.5189 54.562 71.8754 54.787 71.4158 54.5454C70.0187 53.8111 68.3348 53.5165 66.4805 53.7454C60.654 54.4647 56.4529 59.213 56.405 65.1548C56.3568 71.1321 60.4892 74.8872 66.3157 74.1679C68.1805 73.9377 69.8757 73.2289 71.2965 72.1383C71.7072 71.823 72.2732 71.894 72.4581 72.3219C72.5694 72.5796 72.8321 72.7236 73.1247 72.6875L76.8655 72.2257C77.3412 72.167 77.7299 71.7309 77.7338 71.2516L77.8748 53.7743C77.8787 53.2951 77.4962 52.9542 77.0205 53.0129L73.5077 53.4465ZM67.2456 68.2239C64.7738 68.5291 62.988 66.8657 63.0084 64.3396C63.0285 61.849 64.8444 59.7766 67.3162 59.4714C69.7881 59.1662 71.5741 60.794 71.554 63.2846C71.5336 65.8107 69.7175 67.9187 67.2456 68.2239ZM116.954 47.4787C123.098 46.7202 127.3 50.6089 127.255 56.2304C127.252 56.5745 127.238 56.9084 127.213 57.2454C127.179 57.6881 126.806 58.0631 126.369 58.117L114.018 59.6417C113.477 59.7085 113.058 60.263 113.255 60.7447C113.854 62.2119 115.094 62.85 116.832 62.6355C118.144 62.4734 119.303 61.8257 119.986 60.8697C120.185 60.5926 120.471 60.3735 120.789 60.3342L125.672 59.7314C126.252 59.6598 126.661 60.176 126.425 60.74C124.777 64.6686 121.142 67.3994 116.789 67.9368C110.821 68.6736 106.478 64.8379 106.525 58.9673C106.573 53.0967 110.951 48.2198 116.954 47.4787ZM120.368 54.1294C119.672 52.9841 118.484 52.4792 116.912 52.6733C115.392 52.861 114.226 53.6601 113.539 54.9831C113.26 55.5198 113.673 56.0233 114.243 55.9529L119.655 55.2849C120.23 55.2138 120.652 54.5961 120.368 54.1294ZM139.219 45.2632C137.463 45.48 136.088 46.0359 134.926 47.0847C134.435 47.5288 133.679 47.5243 133.414 46.9956L133.199 46.5671C133.058 46.2852 132.758 46.1319 132.427 46.1727L129.415 46.5446C128.939 46.6033 128.551 47.0395 128.547 47.5187L128.406 64.996C128.402 65.4753 128.784 65.8162 129.26 65.7574L134.106 65.1592C134.581 65.1005 134.97 64.6644 134.974 64.1851L135.045 55.3042C135.065 52.8492 136.062 51.6954 138.358 51.412L140.074 51.2001C140.55 51.1414 140.939 50.7052 140.942 50.226L140.977 45.9131C140.981 45.4338 140.599 45.0929 140.123 45.1516L139.219 45.2632ZM103.122 15.2324C109.256 14.3987 113.448 18.2355 113.398 23.857C113.395 24.2011 113.38 24.5352 113.354 24.8724C113.321 25.3155 112.947 25.695 112.511 25.7542L100.181 27.43C99.6401 27.5035 99.2214 28.063 99.4174 28.5422C100.014 30.0019 101.252 30.6248 102.987 30.389C104.297 30.2109 105.454 29.5491 106.137 28.5848C106.336 28.3053 106.621 28.0827 106.94 28.0395L111.815 27.377C112.394 27.2983 112.802 27.8094 112.565 28.3763C110.917 32.3246 107.286 35.0997 102.939 35.6903C96.981 36.5 92.6483 32.7179 92.7006 26.8474C92.753 20.9769 97.1282 16.0469 103.122 15.2324ZM106.525 21.8406C105.83 20.7038 104.645 20.2136 103.075 20.4269C101.558 20.6332 100.393 21.4465 99.7058 22.7777C99.4272 23.3178 99.8393 23.8162 100.408 23.7389L105.811 23.0046C106.386 22.9265 106.808 22.3037 106.525 21.8406ZM84.9481 17.7732C83.004 18.0374 81.2206 19.0019 79.875 20.4112C79.4432 20.8634 78.7423 20.931 78.3387 20.5702C77.1592 19.5159 75.5268 19.0536 73.6308 19.3112C71.9188 19.5439 70.3094 20.373 69.0245 21.5976C68.529 22.0699 67.7449 22.0591 67.494 21.5074L67.3604 21.2137C67.2258 20.9176 66.919 20.7564 66.5781 20.8027L63.3802 21.2373C62.9053 21.3019 62.5169 21.7427 62.5126 22.222L62.3567 39.6991C62.3525 40.1784 62.734 40.5146 63.2089 40.45L68.0468 39.7926C68.5217 39.728 68.9101 39.2872 68.9144 38.8079L69.0006 29.1443C69.0219 26.7605 70.0205 25.3455 71.7833 25.1059C73.1583 24.9191 73.8895 25.8502 73.872 27.8071L73.7798 38.1467C73.7755 38.626 74.1571 38.9622 74.632 38.8976L79.2935 38.2641C79.7685 38.1996 80.1569 37.7587 80.1612 37.2795L80.2474 27.6159C80.269 25.1965 81.1967 23.8266 82.9948 23.5823C84.4051 23.3906 85.1016 24.2554 85.0835 26.2834L84.9913 36.6231C84.9871 37.1023 85.3686 37.4385 85.8435 37.374L90.6814 36.7165C91.1563 36.652 91.5447 36.2111 91.549 35.7319L91.6485 24.5739C91.6888 20.0554 89.0379 17.2174 84.9481 17.7732ZM24.943 33.2267C24.9473 32.7474 25.3357 32.3066 25.8107 32.242L37.6293 30.6359C38.1042 30.5713 38.488 30.9083 38.4611 31.3901C38.03 39.1276 32.7991 45.2224 25.3552 46.234C17.8103 47.2593 12.2534 42.542 12.321 34.9637C12.3886 27.3853 17.9378 21.1231 25.5179 20.093C31.617 19.2641 36.6243 22.1959 38.0378 27.2203C38.1791 27.7226 37.7672 28.2717 37.2296 28.3448L31.6758 29.0996C31.3306 29.1465 31.0264 28.976 30.8595 28.6956C29.8683 27.0301 27.8231 26.1762 25.5313 26.4876C21.8294 26.9907 19.3373 30.0301 19.3018 34.015C19.2666 37.9642 21.6751 40.3376 25.4123 39.8298C27.4828 39.5484 29.3161 38.4936 30.381 37.0572C30.7731 36.5284 30.3785 35.9566 29.7678 36.0396L25.7719 36.5827C25.297 36.6472 24.9155 36.311 24.9198 35.8317L24.943 33.2267ZM55.0198 22.8635C55.1563 22.5466 55.4527 22.3147 55.7775 22.2706L59.2847 21.7939C59.7597 21.7294 60.1412 22.0656 60.1369 22.5448L59.9811 40.022C59.9768 40.5012 59.5883 40.9421 59.1134 41.0066L55.3785 41.5142C55.0864 41.5539 54.8243 41.413 54.7133 41.1567C54.5291 40.7312 53.9642 40.6671 53.5539 40.9874C52.1345 42.0953 50.4416 42.8247 48.5798 43.0778C42.7625 43.8683 38.6403 40.1642 38.6936 34.187C38.7466 28.2453 42.9446 23.446 48.7619 22.6554C50.6133 22.4038 52.294 22.6778 53.6882 23.3949C54.1468 23.6308 54.7894 23.398 55.0198 22.8635ZM45.2866 33.291C45.264 35.8171 47.0453 37.4584 49.5132 37.123C51.9812 36.7876 53.7961 34.6576 53.8186 32.1315C53.8408 29.6409 52.0592 28.0352 49.5913 28.3706C47.1233 28.706 45.3088 30.8004 45.2866 33.291Z" fill="white"/>
</svg>
