<svg xmlns="http://www.w3.org/2000/svg" viewBox="0 0 205 40.3"><path d="M96.1 17.9c.6 0 1.2.2 1.6.6.4.5.6 1 .6 1.6 0 3.1-1.1 5.8-3.3 7.9-2.2 2.2-4.8 3.3-7.9 3.3s-5.8-1.1-7.9-3.3c-2.2-2.2-3.3-4.8-3.3-7.9 0-3.1 1.1-5.8 3.3-7.9 2.2-2.2 4.8-3.3 7.9-3.3 2.7 0 5.2.9 7.2 2.6.5.4.7.9.8 1.5 0 .6-.1 1.2-.5 1.6-.4.5-.9.7-1.5.8-.6.1-1.2-.1-1.6-.5-1.2-1-2.7-1.6-4.3-1.6-1.9 0-3.5.7-4.8 2-1.3 1.3-2 2.9-2 4.8s.7 3.5 2 4.8c1.3 1.3 2.9 2 4.8 2 1.5 0 2.8-.4 3.9-1.3 1.2-.8 2-1.9 2.4-3.2H89c-.6 0-1.2-.2-1.6-.7-.4-.4-.6-1-.6-1.6 0-.6.2-1.2.6-1.6.5-.4 1-.6 1.6-.6h7.1zM112.8 31.4c-3.1 0-5.8-1.1-7.9-3.3-2.2-2.2-3.3-4.8-3.3-7.9 0-3.1 1.1-5.8 3.3-7.9 2.2-2.2 4.8-3.3 7.9-3.3 3.1 0 5.8 1.1 7.9 3.3 2.2 2.2 3.3 4.8 3.3 7.9 0 3.1-1.1 5.8-3.3 7.9-2.1 2.2-4.8 3.3-7.9 3.3zm0-18c-1.9 0-3.5.7-4.8 2-1.3 1.3-2 2.9-2 4.8s.7 3.5 2 4.8c1.3 1.3 2.9 2 4.8 2s3.5-.7 4.8-2c1.3-1.3 2-2.9 2-4.8s-.7-3.5-2-4.8c-1.3-1.4-2.9-2-4.8-2zM127.5 13.4c-.6 0-1.2-.2-1.6-.6-.4-.5-.6-1-.6-1.6 0-.6.2-1.2.6-1.6.5-.4 1-.6 1.6-.6h15.4c.6 0 1.2.2 1.6.6.4.5.6 1 .6 1.6 0 .6-.2 1.2-.6 1.6-.5.4-1 .6-1.6.6h-5.5v15.8c0 .6-.2 1.1-.6 1.6-.5.5-1 .7-1.6.7-.6 0-1.1-.2-1.6-.7-.5-.4-.7-1-.7-1.6V13.4h-5.4zM162.2 8.9c1.9 0 3.5.7 4.8 2 1.3 1.3 2 2.9 2 4.8 0 1.4-.4 2.7-1.2 3.8 1.7 1.4 2.5 3.1 2.5 5.2 0 1.9-.7 3.5-2 4.8-1.3 1.3-2.9 2-4.8 2h-11.6c-.6 0-1.1-.2-1.6-.7-.5-.4-.7-1-.7-1.6v-18c0-.6.2-1.2.7-1.6.4-.4 1-.6 1.6-.6h10.3zm-8 9h8c.6 0 1.1-.2 1.6-.7.5-.4.7-1 .7-1.6 0-.6-.2-1.1-.7-1.6-.4-.5-1-.7-1.6-.7h-8v4.6zm9.3 9c.6 0 1.1-.2 1.6-.7.5-.4.7-1 .7-1.6 0-.6-.2-1.1-.7-1.6-.4-.5-1-.7-1.6-.7h-9.3v4.5h9.3zM178.9 31.4c-.6 0-1.2-.2-1.6-.6-.4-.5-.6-1-.6-1.6v-18c0-.6.2-1.2.6-1.6.5-.4 1-.6 1.6-.6.6 0 1.2.2 1.6.6.4.5.6 1 .6 1.6v18c0 .6-.2 1.2-.6 1.6-.4.4-.9.6-1.6.6zM187.3 13.4c-.6 0-1.2-.2-1.6-.6-.4-.5-.6-1-.6-1.6 0-.6.2-1.2.6-1.6.5-.4 1-.6 1.6-.6h15.4c.6 0 1.2.2 1.6.6.4.5.6 1 .6 1.6 0 .6-.2 1.2-.6 1.6-.5.4-1 .6-1.6.6h-5.5v15.8c0 .6-.2 1.1-.6 1.6-.5.5-1 .7-1.6.7-.6 0-1.1-.2-1.6-.7-.5-.4-.7-1-.7-1.6V13.4h-5.4zM2.9 23c1.6 0 2.9-1.3 2.9-2.9s-1.3-2.9-2.9-2.9-2.9 1.4-2.9 3S1.3 23 2.9 23zM22.9 34.8c1.6 0 2.9-1.3 2.9-2.9 0-1.6-1.3-2.9-2.9-2.9S20 30.3 20 31.9c.1 1.6 1.4 2.9 2.9 2.9z" fill="#fff"/><path d="M64.5 18c-.7-.7-1.4-.7-1.9-.7H31.5c1.3-6.6 7.2-11.5 14.1-11.5 3.8 0 7.4 1.5 10.1 4.2 1.1 1.1 2.9 1.2 4 .1 1.2-1.1 1.2-3 .1-4.2C56.1 2.1 51 0 45.6 0 40.8 0 36.4 1.7 33 4.5c-1.6 1.2-2.8 1.3-5.3 1.3h-4.8c-1.6 0-2.9 1.3-2.9 3 0 1.6 1.4 2.8 3 2.8H30.6l-2.9.4c-.4.1-.7.3-.8.6-.4 1-.7 2.1-1 3.2-.3 1-1.7 1.4-3.8 1.4H11.6c-1.6 0-3 1.2-3 2.8 0 1.6 1.3 3 2.9 3h18.1l-3 .5c-.5.1-.8.6-.7 1.1 2 9 10.1 15.7 19.7 15.7 10.8 0 19.6-8.5 20.1-19.2.1-1.1-.3-2.3-1.2-3.1zM45.6 34.6c-7 0-12.8-5-14.1-11.5h28.2c-1.3 6.5-7.1 11.5-14.1 11.5z" fill="#fff"/></svg>