<svg id="Слой_1" data-name="Слой 1" xmlns="http://www.w3.org/2000/svg" xmlns:xlink="http://www.w3.org/1999/xlink" viewBox="0 0 223 46"><defs><style>.cls-1,.cls-2,.cls-3,.cls-4,.cls-6,.cls-7{fill-rule:evenodd;}.cls-1{fill:url(#Безымянный_градиент_7);}.cls-2{fill:url(#Безымянный_градиент_6);}.cls-3{fill:#f9f9f9;}.cls-4{fill:#9d9d9d;}.cls-5{filter:url(#filter-4);}.cls-7{fill:#fff;}</style><linearGradient id="Безымянный_градиент_7" x1="-1358.16" y1="1468.51" x2="-1358.16" y2="1467.51" gradientTransform="matrix(47.31, 0, 0, -26.6, 64277.21, 39059.73)" gradientUnits="userSpaceOnUse"><stop offset="0" stop-color="#bababa"/><stop offset="1" stop-color="#9d9d9d"/></linearGradient><linearGradient id="Безымянный_градиент_6" x1="-1358.16" y1="1468.51" x2="-1358.16" y2="1467.51" gradientTransform="matrix(47.31, 0, 0, -26.6, 64277.16, 39079.26)" gradientUnits="userSpaceOnUse"><stop offset="0" stop-color="#797979"/><stop offset="1" stop-color="#505050"/></linearGradient><filter id="filter-4" x="-41.7%" y="-32.4%" width="183.3%" height="174.1%" name="filter-4"><feOffset result="shadowOffsetOuter1" dy="1" in="SourceAlpha"/><feGaussianBlur result="shadowBlurOuter1" stdDeviation="2.5" in="shadowOffsetOuter1"/><feColorMatrix values="0 0 0 0 0.15 0 0 0 0 0.15 0 0 0 0 0.29 0 0 0 0.18 0" in="shadowBlurOuter1"/></filter></defs><g id="Page-1"><g id="UO-website-Logo-V1"><g id="Group"><g id="Group-28"><path id="Combined-Shape" class="cls-1" d="M6.4,6.1l10.85,6.1V26.6L10.85,23,0,16.9Zm10.85,6.1V0H30.06V12.2L40.91,6.1l6.4,10.8L36.46,23Z"/><path id="Combined-Shape-2" data-name="Combined-Shape" class="cls-2" d="M36.46,23l10.85,6.1-6.4,10.8L30.06,33.8V46H17.25V33.8l6.4-3.6,6.41-3.6ZM17.25,19.4V33.8L6.4,39.9,0,29.1,10.85,23Z"/><g id="Group-27"><path id="Combined-Shape-3" data-name="Combined-Shape" class="cls-3" d="M73.13,22.18v4c0,2.12,1.8,3.25,3.9,3.25,2.3,0,4-1.13,4-3.25v-4h5.24v4c0,4.78-3.83,7.48-9.19,7.48-5.12,0-9.17-2.7-9.17-7.48v-4Zm30-8c2.78,0,4.79.75,6.14,2.17a5.66,5.66,0,0,1-.3,8.21c-1.29,1.19-3.11,1.88-5.84,1.88H97.59V33.1H92.35V14.17Zm.3,4.12H97.59v4h5.84a2.18,2.18,0,0,0,1.56-.53,2.1,2.1,0,0,0,.66-1.47,2.07,2.07,0,0,0-.63-1.48A2.2,2.2,0,0,0,103.43,18.29ZM70.5,13.14a2.64,2.64,0,1,1-2.73,2.64A2.68,2.68,0,0,1,70.5,13.14Zm13.13,0a2.64,2.64,0,1,1-2.73,2.64A2.68,2.68,0,0,1,83.63,13.14Z"/><path id="Combined-Shape-4" data-name="Combined-Shape" class="cls-3" d="M147.54,13.59c6.23,0,11.23,4.49,11.23,10s-5,10.09-11.23,10.09-11.11-4.49-11.11-10.09S141.31,13.59,147.54,13.59Zm20.45.58,8.65,10.32h0V14.17h5.27V33.1h-4.43l-8.63-10.29h0V33.1h-5.27V14.17Zm25.6,0V28.84h11V33.1H188.35V14.17Zm15.48,0L213,20l3.86-5.83H223l-7.52,10.35V33.1h-5.27V24.52l-7.55-10.35Zm-61.53,3.68a5.7,5.7,0,0,0-5.69,5.74,5.74,5.74,0,1,0,5.69-5.74Z"/><polygon id="Fill-23" class="cls-4" points="128.55 21.26 132.03 19.35 129.98 15.96 126.5 17.87 126.5 14.04 122.4 14.04 122.4 17.87 118.92 15.96 116.87 19.35 120.35 21.26 116.87 23.18 118.92 26.56 122.4 24.65 122.4 28.48 126.5 28.48 126.5 24.65 129.98 26.56 132.03 23.18 128.55 21.26"/></g></g><g id="Path-4"><g class="cls-5"><polygon id="path-3" class="cls-6" points="17.25 12.2 17.25 33.8 36.46 23 17.25 12.2"/></g><polygon id="path-3-2" data-name="path-3" class="cls-7" points="17.25 12.2 17.25 33.8 36.46 23 17.25 12.2"/></g></g></g></g></svg>