<svg width="651" height="167" viewBox="0 0 651 167" fill="none" xmlns="http://www.w3.org/2000/svg">
<path d="M187.46 125L210.4 25.0002H269.07L265 42.6502H226.72L221.28 66.1702H251.58L247.46 83.8202H217.31L211.87 107.35H250.25L246.25 124.99L187.46 125ZM269.09 42.6602L273.21 25.0002H337.61L333.5 42.6502H311.29L292.29 124.99H272L291 42.6502L269.09 42.6602ZM308.61 125L353.61 25.0002H388.61L385.52 125H365.23L365.82 107.65H336.7L328.91 125H308.61ZM365.52 42.6602L344.35 90.0002H366.55L368.61 42.6502L365.52 42.6602ZM444.41 25.0002C455.003 25.0002 462.796 27.2302 467.79 31.6902C472.783 36.1502 475.283 43.1835 475.29 52.7902C475.29 62.4035 473.183 70.4435 468.97 76.9102C465.205 83.0016 459.602 87.7395 452.97 90.4402L461 125H440.74L434.12 93.2402H420.12L412.8 125H392.51L415.59 25.0002H444.41ZM449.78 69.5602C452.811 65.5243 454.437 60.6072 454.41 55.5602C454.41 50.4602 453.576 46.9802 451.91 45.1202C450.25 43.2602 447.36 42.3202 443.24 42.3202H431.91L424.12 75.8502H437.21C439.663 75.9276 442.096 75.3932 444.29 74.2951C446.485 73.1969 448.371 71.5697 449.78 69.5602V69.5602ZM496.6 91.0002C495.775 94.2984 495.332 97.6807 495.28 101.08C495.28 104.073 496.28 106.157 498.28 107.33C500.28 108.503 503.81 109.09 508.87 109.09C513.916 109.09 517.717 107.757 520.27 105.09C522.823 102.423 524.823 97.7568 526.27 91.0902L541.56 25.0902H561.85L546.6 91.0002C543.753 103.56 539.12 112.653 532.7 118.28C526.28 123.907 517.776 126.727 507.19 126.74C485.816 126.74 475.13 119.19 475.13 104.09C475.166 98.6054 475.793 93.1406 477 87.7902L491.6 25.0002H511.89L496.6 91.0002ZM551.23 125L574.31 25.0002H606.52L611.81 103.38H613.57L631.37 25.0002H650.92L627.84 125H597.25L590.78 45.1602H589L570.34 125H551.23ZM3.9998 166.29L66.3598 117C66.5817 116.834 66.8386 116.721 67.1108 116.67C67.383 116.618 67.6634 116.63 67.9306 116.703C68.1977 116.776 68.4446 116.91 68.6525 117.093C68.8603 117.276 69.0235 117.504 69.1298 117.76L82.8998 157.18C83.0157 157.461 83.2003 157.708 83.4366 157.898C83.6729 158.089 83.9533 158.217 84.2521 158.271C84.5509 158.324 84.8584 158.302 85.1463 158.206C85.4342 158.11 85.6934 157.943 85.8998 157.72L141.25 108.88C141.45 108.657 141.702 108.486 141.984 108.383C142.265 108.28 142.568 108.249 142.865 108.291C143.162 108.334 143.444 108.449 143.685 108.627C143.927 108.805 144.121 109.039 144.25 109.31L164.1 149C164.267 149.331 164.532 149.604 164.859 149.78C165.185 149.957 165.558 150.029 165.927 149.988C166.296 149.946 166.643 149.793 166.923 149.549C167.202 149.304 167.4 148.98 167.49 148.62L201 2.48017C201.095 2.09999 201.065 1.69918 200.915 1.33737C200.764 0.975553 200.5 0.672068 200.163 0.472063C199.826 0.272058 199.433 0.186222 199.044 0.22732C198.654 0.268418 198.288 0.434252 198 0.700159L110.85 82.8602C110.628 83.0622 110.361 83.2064 110.07 83.28C109.779 83.3537 109.475 83.3544 109.184 83.2822C108.894 83.2099 108.625 83.067 108.403 82.866C108.18 82.6651 108.011 82.4123 107.91 82.1302L85.9998 26.2102C85.8848 25.8876 85.6812 25.604 85.4123 25.392C85.1434 25.18 84.8202 25.0481 84.4797 25.0115C84.1392 24.975 83.7953 25.0352 83.4876 25.1853C83.1798 25.3355 82.9206 25.5694 82.7398 25.8602L1.3198 163.86C1.05756 164.223 0.93836 164.67 0.984999 165.115C1.03164 165.561 1.24084 165.973 1.57259 166.274C1.90434 166.575 2.33534 166.743 2.78315 166.746C3.23095 166.749 3.66413 166.587 3.9998 166.29V166.29Z" fill="white"/>
</svg>
