<svg id="Слой_1" data-name="Слой 1" xmlns="http://www.w3.org/2000/svg" viewBox="0 0 133.57 38.61"><defs><style>.cls-1,.cls-2{fill:#fff;}.cls-2{fill-rule:evenodd;}</style></defs><path class="cls-1" d="M60.27,16.07a2.17,2.17,0,0,0,.74.49,2.35,2.35,0,0,0,.87.16,2.41,2.41,0,0,0,.88-.16,2.17,2.17,0,0,0,.74-.49,2.49,2.49,0,0,0,.49-.75,2.32,2.32,0,0,0,.16-.87,2.22,2.22,0,0,0-.16-.88,2.28,2.28,0,0,0-.49-.74,2.3,2.3,0,0,0-2.5-.51,2.09,2.09,0,0,0-.73.51,2.3,2.3,0,0,0-.5.74,2.41,2.41,0,0,0-.16.88,2.32,2.32,0,0,0,.66,1.62Z" transform="translate(-1.23 -2.77)"/><path class="cls-1" d="M59.87,18.27a.42.42,0,0,0-.09.14.51.51,0,0,0,0,.17v13a.51.51,0,0,0,0,.17A.39.39,0,0,0,60,32a.32.32,0,0,0,.17,0h3.4a.33.33,0,0,0,.17,0,.39.39,0,0,0,.23-.23.51.51,0,0,0,0-.17v-13a.51.51,0,0,0,0-.17.39.39,0,0,0-.23-.23.33.33,0,0,0-.17,0h-3.4a.33.33,0,0,0-.17,0,.42.42,0,0,0-.14.09" transform="translate(-1.23 -2.77)"/><path class="cls-2" d="M95.94,22.11a2.94,2.94,0,0,1,1.89-.62,2.82,2.82,0,0,1,1.85.62,2.71,2.71,0,0,1,1,1.76H94.91A2.83,2.83,0,0,1,95.94,22.11Zm8.27,4.06a3.32,3.32,0,0,0,.2-1.36,7.45,7.45,0,0,0-.82-3.47,6.28,6.28,0,0,0-2.33-2.52,6.38,6.38,0,0,0-3.45-.94,6.9,6.9,0,0,0-3.6,1,6.82,6.82,0,0,0-2.56,2.58,7.4,7.4,0,0,0-.9,3.63,7.16,7.16,0,0,0,.93,3.62,6.89,6.89,0,0,0,2.61,2.61,7.66,7.66,0,0,0,3.83,1,7.09,7.09,0,0,0,2.8-.54,7.37,7.37,0,0,0,2.35-1.58.61.61,0,0,0,.12-.16.37.37,0,0,0,0-.18.78.78,0,0,0,0-.16.6.6,0,0,0-.09-.13l-1.47-1.41a.42.42,0,0,0-.31-.17.49.49,0,0,0-.31.11,5.32,5.32,0,0,1-1.36.65,5.08,5.08,0,0,1-1.34.17,4.57,4.57,0,0,1-2.35-.56A3,3,0,0,1,95,26.56h8.42a.81.81,0,0,0,.82-.4" transform="translate(-1.23 -2.77)"/><path class="cls-2" d="M112.57,21.49a3,3,0,0,0-1.9.62,2.69,2.69,0,0,0-1,1.76h5.72a2.71,2.71,0,0,0-1-1.76A2.81,2.81,0,0,0,112.57,21.49Zm6.57,3.32a3.32,3.32,0,0,1-.2,1.36.83.83,0,0,1-.82.4H109.7a2.92,2.92,0,0,0,1.22,1.73,4.46,4.46,0,0,0,2.36.57,5.51,5.51,0,0,0,1.33-.17A5.7,5.7,0,0,0,116,28a.51.51,0,0,1,.31-.11.46.46,0,0,1,.31.17l1.47,1.42a.3.3,0,0,1,.09.13.26.26,0,0,1,0,.15.41.41,0,0,1,0,.19.44.44,0,0,1-.12.15,7.27,7.27,0,0,1-2.34,1.58,7.09,7.09,0,0,1-2.8.54,7.55,7.55,0,0,1-3.83-1,6.93,6.93,0,0,1-2.61-2.6,7.22,7.22,0,0,1-.93-3.63,7.4,7.4,0,0,1,.9-3.63,7,7,0,0,1,6.14-3.54,6.31,6.31,0,0,1,5.79,3.46,7.44,7.44,0,0,1,.82,3.46" transform="translate(-1.23 -2.77)"/><path class="cls-2" d="M129.82,27.47a3.25,3.25,0,0,1-4.51,0,3.28,3.28,0,0,1-.85-2.35,3.44,3.44,0,0,1,.85-2.38,2.77,2.77,0,0,1,1-.73,2.92,2.92,0,0,1,1.24-.24,3,3,0,0,1,1.22.23,3,3,0,0,1,1,.71,3.32,3.32,0,0,1,.9,2.41,3.19,3.19,0,0,1-.9,2.35Zm1.7-8.62a6.31,6.31,0,0,0-3.43-1,4.87,4.87,0,0,0-4,2l-.15-1.27c0-.29-.18-.43-.42-.43h-2.89a.51.51,0,0,0-.17,0,.39.39,0,0,0-.23.23.32.32,0,0,0,0,.17V37a.32.32,0,0,0,0,.17.6.6,0,0,0,.09.15.29.29,0,0,0,.14.08.51.51,0,0,0,.17,0H124a.47.47,0,0,0,.17,0,.29.29,0,0,0,.14-.08.46.46,0,0,0,.09-.15.47.47,0,0,0,0-.17v-6.2a4.8,4.8,0,0,0,3.63,1.44,6.5,6.5,0,0,0,5.84-3.52,7.48,7.48,0,0,0,.87-3.6,7.59,7.59,0,0,0-.87-3.65A6.6,6.6,0,0,0,131.52,18.85Z" transform="translate(-1.23 -2.77)"/><path class="cls-1" d="M74.29,18.16a.35.35,0,0,1,.17,0,.39.39,0,0,1,.23.23.33.33,0,0,1,0,.17v2.58a.33.33,0,0,1,0,.17.39.39,0,0,1-.23.23.33.33,0,0,1-.17,0H72v10a.5.5,0,0,1,0,.17.42.42,0,0,1-.09.14.38.38,0,0,1-.15.09.32.32,0,0,1-.17,0h-3.4A.3.3,0,0,1,68,32a.38.38,0,0,1-.15-.09.42.42,0,0,1-.09-.14.33.33,0,0,1,0-.17v-10H65.5a.5.5,0,0,1-.17,0,.42.42,0,0,1-.14-.09.46.46,0,0,1-.09-.15.3.3,0,0,1,0-.16V18.59a.32.32,0,0,1,0-.17.46.46,0,0,1,.09-.15l.14-.08a.51.51,0,0,1,.17,0h2.27V14.33a.3.3,0,0,1,0-.16.36.36,0,0,1,.24-.24.44.44,0,0,1,.16,0H71.6a.5.5,0,0,1,.17,0,.42.42,0,0,1,.14.09.38.38,0,0,1,.09.15.45.45,0,0,1,0,.16v3.83Z" transform="translate(-1.23 -2.77)"/><path class="cls-2" d="M51.44,28.16a3.33,3.33,0,0,0,2.07-.59,2.14,2.14,0,0,0,.77-1.79,1.93,1.93,0,0,0-.77-1.7,3.39,3.39,0,0,0-2.07-.57H48.27v4.65Zm1.65-10.27c0-1.21-.75-1.81-2.24-1.81H48.27v3.8h2.58a2.56,2.56,0,0,0,1.64-.48,1.88,1.88,0,0,0,.6-1.51Zm1.7,3.55a5.37,5.37,0,0,1,2.72,1.73,4.56,4.56,0,0,1,1.16,3.15,5.14,5.14,0,0,1-1.84,4.31Q55,32,51.27,32h-7a.33.33,0,0,1-.17,0,.39.39,0,0,1-.23-.23.33.33,0,0,1,0-.17v-19a.32.32,0,0,1,0-.17.39.39,0,0,1,.23-.23.51.51,0,0,1,.17,0h7a7,7,0,0,1,3.2.68,4.83,4.83,0,0,1,2,1.84,5,5,0,0,1,.71,2.61,4.69,4.69,0,0,1-.71,2.58,3.6,3.6,0,0,1-1.7,1.53" transform="translate(-1.23 -2.77)"/><path class="cls-1" d="M92.3,31.9a.5.5,0,0,0-.08-.26L84.33,21l7.61-8.2a.41.41,0,0,0,.15-.25.17.17,0,0,0,0-.1s0-.06-.09-.07a.24.24,0,0,0-.12-.07l-.13,0H87.87a.6.6,0,0,0-.27.06.58.58,0,0,0-.21.17l-7.31,7.92V12.72a.5.5,0,0,0,0-.17.42.42,0,0,0-.09-.14.38.38,0,0,0-.15-.09.45.45,0,0,0-.16,0H76.25a.51.51,0,0,0-.17,0,.39.39,0,0,0-.23.23.51.51,0,0,0,0,.17v19a.47.47,0,0,0,0,.17.46.46,0,0,0,.09.15.42.42,0,0,0,.14.09.5.5,0,0,0,.17,0h3.4l.17,0A.42.42,0,0,0,80,32a.38.38,0,0,0,.09-.15.47.47,0,0,0,0-.17V25.59l1.67-1.81,6,8.11a.53.53,0,0,0,.22.2.72.72,0,0,0,.29.06H92c.23,0,.34-.09.34-.26" transform="translate(-1.23 -2.77)"/><path class="cls-2" d="M35.37,13.62v1.94a1.1,1.1,0,0,1-.14.53,1.12,1.12,0,0,1-.39.39l-6.25,3.61,5.58,3.21a2.47,2.47,0,0,1,.88.88,2.42,2.42,0,0,1,.32,1.2v5.17a2.4,2.4,0,0,1-1.2,2.08L19.48,41.06a2.4,2.4,0,0,1-1.2.32,2.42,2.42,0,0,1-1.2-.32l-4.8-2.78a.44.44,0,0,1-.19-.19.52.52,0,0,1-.07-.27.54.54,0,0,1,.07-.27.5.5,0,0,1,.19-.19l15.87-9.13a.47.47,0,0,0,.1-.1.31.31,0,0,0,0-.13.32.32,0,0,0,0-.14.47.47,0,0,0-.1-.1l-5.89-3.4a1.09,1.09,0,0,0-1.07,0L5.07,33.64a.78.78,0,0,1-.8,0l-1.83-1a2.4,2.4,0,0,1-.88-.88,2.43,2.43,0,0,1-.33-1.2V28.4a.81.81,0,0,1,.4-.69L24.75,14.43a.22.22,0,0,0,.09-.1.2.2,0,0,0,0-.13.25.25,0,0,0,0-.14.2.2,0,0,0-.09-.09l-5.9-3.42a1.14,1.14,0,0,0-.54-.14,1.1,1.1,0,0,0-.53.14L2.05,19.61a.64.64,0,0,1-.27.07.64.64,0,0,1-.27-.07.52.52,0,0,1-.19-.2.5.5,0,0,1-.07-.27V13.59a2.4,2.4,0,0,1,1.2-2.08L17.13,3.09a2.41,2.41,0,0,1,2.4,0l14.65,8.45a2.37,2.37,0,0,1,.87.88A2.4,2.4,0,0,1,35.37,13.62Z" transform="translate(-1.23 -2.77)"/></svg>