<svg width="140" height="25" viewBox="0 0 140 25" fill="none" xmlns="http://www.w3.org/2000/svg">
<path fill-rule="evenodd" clip-rule="evenodd" d="M30.1832 9.30798L28.5438 10.9184C27.6613 11.7851 27.656 13.1961 28.5317 14.0696C28.5358 14.0735 28.5397 14.0775 28.5438 14.0816L30.1832 15.6918C31.0658 16.5585 31.071 17.9695 30.1953 18.843C30.1912 18.8471 30.1871 18.8509 30.1832 18.855L24.5855 24.3533C23.7078 25.2156 22.2915 25.2156 21.4138 24.3533L10.9565 14.0816C10.074 13.2146 10.0685 11.8039 10.9444 10.9304C10.9483 10.9263 10.9524 10.9222 10.9565 10.9184L21.4138 0.646669C22.2915 -0.215556 23.7078 -0.215556 24.5855 0.646669L30.1832 6.14476C31.0658 7.01173 31.071 8.4225 30.1953 9.29601C30.1912 9.30008 30.1871 9.30414 30.1832 9.30798Z" fill="white"/>
<path fill-rule="evenodd" clip-rule="evenodd" d="M10.6356 9.0452L8.99624 10.6554C8.1139 11.5223 8.10843 12.9331 8.98414 13.8066C8.98825 13.8107 8.99236 13.8148 8.99624 13.8186L10.6356 15.4288C11.5182 16.2957 11.5237 17.7067 10.6477 18.58C10.6436 18.5841 10.6397 18.5882 10.6356 18.5922L9.66637 19.5443C8.78837 20.4066 7.37235 20.4066 6.49452 19.5443L0.665488 13.8186C-0.217073 12.9519 -0.222503 11.5409 0.653372 10.6673C0.657387 10.6633 0.661426 10.6594 0.665488 10.6554L6.49452 4.92987C7.37235 4.06765 8.78837 4.06765 9.66637 4.92987L10.6356 5.88198C11.5182 6.74895 11.5237 8.15971 10.6477 9.03323C10.6436 9.03729 10.6397 9.04136 10.6356 9.0452Z" fill="white"/>
<path fill-rule="evenodd" clip-rule="evenodd" d="M39.5052 4.92987L45.334 10.6554C46.2166 11.5223 46.2221 12.9331 45.3463 13.8066C45.3422 13.8107 45.3381 13.8148 45.334 13.8186L39.5052 19.5443C38.6272 20.4066 37.2112 20.4066 36.3334 19.5443L30.5044 13.8186C29.6218 12.9519 29.6163 11.5409 30.4923 10.6673C30.4962 10.6635 30.5003 10.6594 30.5044 10.6554L36.3334 4.92987C37.2112 4.06765 38.6272 4.06765 39.5052 4.92987Z" fill="white"/>
<path d="M57.8788 1.32863C58.6489 1.32863 59.3572 1.51476 60.0035 1.88704C60.6498 2.24647 61.1655 2.74069 61.5506 3.3697C61.9356 3.98588 62.1281 4.68549 62.1281 5.46855C62.1281 6.23877 61.9356 6.9448 61.5506 7.58665C61.1655 8.21566 60.6498 8.7163 60.0035 9.08858C59.3572 9.46085 58.6489 9.64698 57.8788 9.64698H54.2278V14.8074H52V1.32863H57.8788ZM57.8376 7.64442C58.2089 7.64442 58.5458 7.54814 58.8483 7.35558C59.1509 7.15019 59.3915 6.88703 59.5703 6.56611C59.7628 6.23235 59.8591 5.8665 59.8591 5.46855C59.8591 4.86521 59.6597 4.35815 59.2609 3.94737C58.8621 3.53659 58.3877 3.33119 57.8376 3.33119H54.2278V7.64442H57.8376Z" fill="white"/>
<path d="M64.9497 14.8074V0.558409H67.0744V14.8074H64.9497Z" fill="white"/>
<path d="M80.4046 4.69833V14.8074H78.2593V13.2478C77.9293 13.6714 77.4411 14.0693 76.7948 14.4416C76.1485 14.8139 75.399 15 74.5464 15C73.6388 15 72.8068 14.7754 72.0505 14.3261C71.3079 13.8768 70.7165 13.2542 70.2765 12.4583C69.8364 11.6624 69.6164 10.751 69.6164 9.724C69.6164 8.69705 69.8433 7.79204 70.2971 7.00899C70.7509 6.21309 71.3766 5.59692 72.1742 5.16046C72.9718 4.71117 73.8794 4.48652 74.8971 4.48652C75.6534 4.48652 76.3135 4.64057 76.8773 4.94865C77.4549 5.25674 77.9156 5.61617 78.2593 6.02696V4.69833H80.4046ZM75.0414 13.1707C75.7015 13.1707 76.2791 13.0231 76.7742 12.7279C77.2692 12.4198 77.6543 12.009 77.9293 11.4955C78.2043 10.9692 78.3419 10.3787 78.3419 9.724C78.3419 9.08216 78.2043 8.50449 77.9293 7.99101C77.6543 7.47754 77.2692 7.07317 76.7742 6.77792C76.2791 6.46983 75.7015 6.31579 75.0414 6.31579C74.4089 6.31579 73.845 6.46341 73.35 6.75867C72.8549 7.05392 72.4699 7.45828 72.1948 7.97176C71.9198 8.48524 71.7823 9.06932 71.7823 9.724C71.7823 10.3787 71.9198 10.9692 72.1948 11.4955C72.4699 12.009 72.8549 12.4198 73.35 12.7279C73.845 13.0231 74.4089 13.1707 75.0414 13.1707Z" fill="white"/>
<path d="M87.2491 14.8074H85.1244V6.62388H82.876V4.69833H85.1244V2.1181H87.2491V4.69833H89.7656V6.62388H87.2491V14.8074Z" fill="white"/>
<path d="M93.5361 2.50321C93.0548 2.50321 92.6973 2.38768 92.4635 2.15661C92.2297 1.92555 92.1128 1.62388 92.1128 1.2516C92.1128 0.930681 92.2297 0.641849 92.4635 0.38511C92.6973 0.12837 93.0548 0 93.5361 0C94.0174 0 94.375 0.115533 94.6088 0.346598C94.8425 0.577664 94.9594 0.879333 94.9594 1.2516C94.9594 1.57253 94.8425 1.86136 94.6088 2.1181C94.375 2.37484 94.0174 2.50321 93.5361 2.50321ZM94.6294 14.8074H92.5048V4.69833H94.6294V14.8074Z" fill="white"/>
<path d="M103.939 4.48652C104.915 4.48652 105.672 4.67266 106.208 5.04493C106.744 5.4172 107.116 5.91784 107.322 6.54685C107.542 7.17587 107.652 7.87548 107.652 8.6457V14.8074H105.527V8.78049C105.527 8.29268 105.459 7.85623 105.321 7.47112C105.184 7.08601 104.95 6.78434 104.62 6.56611C104.29 6.34788 103.829 6.25802 103.238 6.29653C102.688 6.29653 102.199 6.40565 101.773 6.62388C101.347 6.8421 101.01 7.13094 100.762 7.49037C100.515 7.84981 100.391 8.24775 100.391 8.68421V14.8074H98.2664V4.69833H100.391V6.29653C100.721 5.82157 101.202 5.40436 101.835 5.04493C102.468 4.67266 103.169 4.48652 103.939 4.48652Z" fill="white"/>
<path d="M118.331 10.7831V4.69833H120.456V14.8074H118.331V13.19C118.015 13.665 117.548 14.0886 116.929 14.4608C116.324 14.8203 115.595 15 114.742 15C113.615 15 112.7 14.6406 111.999 13.9217C111.297 13.2028 110.947 12.208 110.947 10.9371V4.69833H113.071V10.3979C113.071 10.9114 113.154 11.3864 113.319 11.8229C113.498 12.2593 113.773 12.6123 114.144 12.8819C114.529 13.1386 115.017 13.267 115.609 13.267C116.351 13.267 116.991 13.0488 117.527 12.6123C118.063 12.1759 118.331 11.5661 118.331 10.7831Z" fill="white"/>
<path d="M129.356 4.52503C130.25 4.52503 130.965 4.71759 131.501 5.1027C132.038 5.47497 132.423 5.98845 132.657 6.64313C132.849 6.32221 133.131 6.00128 133.502 5.68036C133.874 5.3466 134.307 5.0706 134.802 4.85237C135.297 4.63415 135.826 4.52503 136.39 4.52503C137.325 4.52503 138.054 4.71759 138.577 5.1027C139.099 5.47497 139.464 5.98203 139.67 6.62388C139.89 7.25289 140 7.95892 140 8.74198V14.8074H137.855V8.85751C137.855 8.11297 137.703 7.50963 137.401 7.0475C137.098 6.58537 136.528 6.3543 135.689 6.3543C134.891 6.3543 134.231 6.59178 133.709 7.06675C133.2 7.52888 132.945 8.09371 132.945 8.76123V14.8074H130.8V8.819C130.8 8.10013 130.635 7.50963 130.305 7.0475C129.975 6.58537 129.432 6.3543 128.675 6.3543C128.153 6.3543 127.685 6.46342 127.273 6.68164C126.86 6.89987 126.537 7.1887 126.303 7.54814C126.07 7.89474 125.953 8.28627 125.953 8.72272V14.8074H123.807V4.69833H125.953V6.31579C126.283 5.85366 126.743 5.44288 127.335 5.08344C127.94 4.71117 128.614 4.52503 129.356 4.52503Z" fill="white"/>
<path d="M52 20.0419H55.2162V20.7682H52.7876V22.0601H54.8151V22.7863H52.7876V24.2039H55.2162V24.9302H52V20.0419Z" fill="white"/>
<path d="M60.5565 20.0419H61.3441V24.9302H60.6221L57.6539 21.2011C57.6831 21.4851 57.7098 21.7691 57.7341 22.0531C57.7633 22.3324 57.7779 22.6141 57.7779 22.898V24.9302H56.9902V20.0419H57.6976L60.6659 23.8478C60.6221 23.5079 60.5929 23.1425 60.5783 22.7514C60.5638 22.3557 60.5565 21.9879 60.5565 21.648V20.0419Z" fill="white"/>
<path d="M65.5592 20C65.8509 20 66.1207 20.0396 66.3687 20.1187C66.6166 20.1979 66.8354 20.3003 67.025 20.426C67.2147 20.5517 67.3629 20.6867 67.4699 20.831L66.9594 21.3408C66.7649 21.1639 66.551 21.0196 66.3176 20.9078C66.0843 20.7914 65.8314 20.7332 65.5592 20.7332C65.214 20.7332 64.9004 20.8101 64.6184 20.9637C64.3413 21.1173 64.1225 21.3268 63.962 21.5922C63.8016 21.8529 63.7214 22.1508 63.7214 22.486C63.7214 22.8166 63.8064 23.1169 63.9766 23.3869C64.1468 23.6569 64.3729 23.871 64.6548 24.0293C64.9417 24.1876 65.2529 24.2668 65.5883 24.2668C65.8314 24.2668 66.0599 24.2225 66.2739 24.1341C66.4878 24.041 66.6604 23.9153 66.7917 23.757C66.9278 23.5987 66.9959 23.4171 66.9959 23.2123C66.9959 23.189 66.9959 23.175 66.9959 23.1704H65.5446V22.4232H67.8054C67.8151 22.493 67.8224 22.5628 67.8273 22.6327C67.837 22.7025 67.8419 22.7723 67.8419 22.8422C67.8419 23.0982 67.8005 23.3496 67.7179 23.5964C67.6401 23.8431 67.5161 24.0573 67.3459 24.2388C67.1515 24.4716 66.8986 24.6578 66.5875 24.7975C66.2812 24.9325 65.9408 25 65.5665 25C65.197 25 64.8518 24.9372 64.5309 24.8115C64.21 24.6811 63.928 24.5019 63.6849 24.2737C63.4418 24.0456 63.2522 23.7803 63.116 23.4777C62.9848 23.1704 62.9191 22.8399 62.9191 22.486C62.9191 22.1322 62.9848 21.8063 63.116 21.5084C63.2522 21.2058 63.4394 20.9427 63.6776 20.7193C63.9207 20.4912 64.2027 20.3142 64.5236 20.1885C64.8445 20.0628 65.1897 20 65.5592 20Z" fill="white"/>
<path d="M71.5529 24.9302H69.1171V24.2318H69.9412V20.7402H69.1171V20.0419H71.5529V20.7402H70.7288V24.2318H71.5529V24.9302Z" fill="white"/>
<path d="M76.8661 20.0419H77.6537V24.9302H76.9317L73.9635 21.2011C73.9927 21.4851 74.0194 21.7691 74.0437 22.0531C74.0729 22.3324 74.0875 22.6141 74.0875 22.898V24.9302H73.2999V20.0419H74.0073L76.9755 23.8478C76.9317 23.5079 76.9026 23.1425 76.888 22.7514C76.8734 22.3557 76.8661 21.9879 76.8661 21.648V20.0419Z" fill="white"/>
<path d="M79.5934 20.0419H82.8096V20.7682H80.381V22.0601H82.4085V22.7863H80.381V24.2039H82.8096V24.9302H79.5934V20.0419Z" fill="white"/>
<path d="M84.5836 20.0419H87.7998V20.7682H85.3713V22.0601H87.3987V22.7863H85.3713V24.2039H87.7998V24.9302H84.5836V20.0419Z" fill="white"/>
<path d="M93.3589 21.5992C93.3589 21.8925 93.2665 22.1648 93.0818 22.4162C92.9019 22.6676 92.6661 22.8538 92.3744 22.9749L93.5631 24.9372L92.6077 24.9302L91.5284 23.0936H90.3615V24.9302H89.5739V20.0419H91.7472C92.0146 20.0419 92.2698 20.1047 92.5129 20.2304C92.7609 20.3561 92.9626 20.5354 93.1182 20.7682C93.2787 21.0009 93.3589 21.2779 93.3589 21.5992ZM91.6159 20.7682H90.3615V22.3673H91.8201C92.0535 22.3673 92.2334 22.2882 92.3598 22.1299C92.491 21.9716 92.5567 21.7924 92.5567 21.5922C92.5567 21.3361 92.4643 21.1359 92.2795 20.9916C92.0948 20.8426 91.8736 20.7682 91.6159 20.7682Z" fill="white"/>
<path d="M97.4014 24.9302H94.9656V24.2318H95.7897V20.7402H94.9656V20.0419H97.4014V20.7402H96.5773V24.2318H97.4014V24.9302Z" fill="white"/>
<path d="M102.715 20.0419H103.502V24.9302H102.78L99.812 21.2011C99.8412 21.4851 99.8679 21.7691 99.8923 22.0531C99.9214 22.3324 99.936 22.6141 99.936 22.898V24.9302H99.1484V20.0419H99.8558L102.824 23.8478C102.78 23.5079 102.751 23.1425 102.736 22.7514C102.722 22.3557 102.715 21.9879 102.715 21.648V20.0419Z" fill="white"/>
<path d="M107.717 20C108.009 20 108.279 20.0396 108.527 20.1187C108.775 20.1979 108.994 20.3003 109.183 20.426C109.373 20.5517 109.521 20.6867 109.628 20.831L109.118 21.3408C108.923 21.1639 108.709 21.0196 108.476 20.9078C108.242 20.7914 107.99 20.7332 107.717 20.7332C107.372 20.7332 107.059 20.8101 106.777 20.9637C106.499 21.1173 106.281 21.3268 106.12 21.5922C105.96 21.8529 105.88 22.1508 105.88 22.486C105.88 22.8166 105.965 23.1169 106.135 23.3869C106.305 23.6569 106.531 23.871 106.813 24.0293C107.1 24.1876 107.411 24.2668 107.746 24.2668C107.99 24.2668 108.218 24.2225 108.432 24.1341C108.646 24.041 108.819 23.9153 108.95 23.757C109.086 23.5987 109.154 23.4171 109.154 23.2123C109.154 23.189 109.154 23.175 109.154 23.1704H107.703V22.4232H109.964C109.973 22.493 109.981 22.5628 109.985 22.6327C109.995 22.7025 110 22.7723 110 22.8422C110 23.0982 109.959 23.3496 109.876 23.5964C109.798 23.8431 109.674 24.0573 109.504 24.2388C109.31 24.4716 109.057 24.6578 108.746 24.7975C108.439 24.9325 108.099 25 107.725 25C107.355 25 107.01 24.9372 106.689 24.8115C106.368 24.6811 106.086 24.5019 105.843 24.2737C105.6 24.0456 105.41 23.7803 105.274 23.4777C105.143 23.1704 105.077 22.8399 105.077 22.486C105.077 22.1322 105.143 21.8063 105.274 21.5084C105.41 21.2058 105.598 20.9427 105.836 20.7193C106.079 20.4912 106.361 20.3142 106.682 20.1885C107.003 20.0628 107.348 20 107.717 20Z" fill="white"/>
</svg>
