<svg id="Слой_1" data-name="Слой 1" xmlns="http://www.w3.org/2000/svg" viewBox="0 0 888.96 188.97"><defs><style>.cls-1{fill:#fff;}.cls-2{fill:#dadada;}.cls-3{fill:#c7c7c7;}.cls-4{fill:#aeaeae;}.cls-5{fill:#818181;}</style></defs><g id="MoonStarterFull"><g id="Text"><path id="Pfad_9" data-name="Pfad 9" class="cls-1" d="M314.53,65.27v58.62a1.65,1.65,0,0,1-1.65,1.66H301.11a1.66,1.66,0,0,1-1.66-1.66V97.59a1.66,1.66,0,0,0-3.21-.58L286,124.47a1.66,1.66,0,0,1-1.56,1.08h-9.86a1.63,1.63,0,0,1-1.56-1.07L262.71,96.91a1.66,1.66,0,0,0-3.21.58v26.4a1.66,1.66,0,0,1-1.66,1.66H246.08a1.66,1.66,0,0,1-1.66-1.66V65.27a1.65,1.65,0,0,1,1.66-1.65h15a1.65,1.65,0,0,1,1.53,1l15.41,38a1.66,1.66,0,0,0,3.08,0l15.23-38a1.67,1.67,0,0,1,1.55-1h14.93a1.65,1.65,0,0,1,1.67,1.64v0Z" transform="translate(0 0.02)"/><path id="Pfad_10" data-name="Pfad 10" class="cls-1" d="M338,122.09a30.31,30.31,0,0,1-11.56-11.33,33.37,33.37,0,0,1,0-32.68A30.42,30.42,0,0,1,338,66.79a33.59,33.59,0,0,1,32,0,29.76,29.76,0,0,1,11.47,11.29,33.83,33.83,0,0,1,0,32.68A30.14,30.14,0,0,1,370,122.09a33.52,33.52,0,0,1-32,0m27.86-14.64a21.4,21.4,0,0,0,0-26.16A15.23,15.23,0,0,0,354,76.39a15.42,15.42,0,0,0-12,4.86,21.58,21.58,0,0,0,0,26.24,16.88,16.88,0,0,0,23.81,0" transform="translate(0 0.02)"/><path id="Pfad_11" data-name="Pfad 11" class="cls-1" d="M405.89,122.09a30.38,30.38,0,0,1-11.56-11.33,33.37,33.37,0,0,1,0-32.68,30.63,30.63,0,0,1,11.56-11.29,33.61,33.61,0,0,1,32,0,29.9,29.9,0,0,1,11.47,11.29,33.81,33.81,0,0,1-.05,32.68,30.08,30.08,0,0,1-11.47,11.33,33.52,33.52,0,0,1-32,0m27.87-14.64a21.43,21.43,0,0,0,0-26.16,17,17,0,0,0-23.81,0,21.55,21.55,0,0,0,0,26.24,15.39,15.39,0,0,0,11.95,4.89,15.18,15.18,0,0,0,11.86-4.93" transform="translate(0 0.02)"/><path id="Pfad_12" data-name="Pfad 12" class="cls-1" d="M515,125.55H502.45a1.67,1.67,0,0,1-1.38-.74L479.38,92a1.66,1.66,0,0,0-3.05.92v31a1.66,1.66,0,0,1-1.66,1.66H462.91a1.66,1.66,0,0,1-1.66-1.66V65.27a1.65,1.65,0,0,1,1.66-1.65h12.52a1.63,1.63,0,0,1,1.4.74l21.69,33a1.66,1.66,0,0,0,3-.92V65.27a1.66,1.66,0,0,1,1.66-1.65H515a1.65,1.65,0,0,1,1.65,1.65v58.62a1.65,1.65,0,0,1-1.65,1.66Z" transform="translate(0 0.02)"/><path id="Pfad_13" data-name="Pfad 13" class="cls-1" d="M540,124a19.89,19.89,0,0,1-8.6-6.53,17.85,17.85,0,0,1-3.32-8.61A1.65,1.65,0,0,1,529.6,107h13a1.67,1.67,0,0,1,1.61,1.27,7.07,7.07,0,0,0,7.52,5.79,8.31,8.31,0,0,0,5.31-1.54,5.16,5.16,0,0,0,1.94-4.28,5.08,5.08,0,0,0-1.54-3.79,12.4,12.4,0,0,0-3.79-2.49,60.4,60.4,0,0,0-6.4-2.2,69.62,69.62,0,0,1-9.79-3.71,18.09,18.09,0,0,1-6.53-5.47,15.21,15.21,0,0,1-2.73-9.44,16.21,16.21,0,0,1,6.26-13.51,25.71,25.71,0,0,1,16.31-4.9,26.11,26.11,0,0,1,16.5,4.9,17.52,17.52,0,0,1,6.63,11.81,1.66,1.66,0,0,1-1.5,1.81H559.13A1.66,1.66,0,0,1,557.47,80a6.25,6.25,0,0,0-2.05-3.43,7.79,7.79,0,0,0-5.18-1.73,6.57,6.57,0,0,0-4.42,1.46,5.27,5.27,0,0,0-1.65,4.15A5.18,5.18,0,0,0,547,85.11a45.76,45.76,0,0,0,8.83,3.68,82.7,82.7,0,0,1,9.74,3.89,18.55,18.55,0,0,1,6.49,5.37,14.48,14.48,0,0,1,2.74,9.13,17.88,17.88,0,0,1-2.69,9.6,18.92,18.92,0,0,1-7.81,6.89,26.76,26.76,0,0,1-12.07,2.56A32.06,32.06,0,0,1,540,124" transform="translate(0 0.02)"/><path id="Pfad_14" data-name="Pfad 14" class="cls-1" d="M626.33,65.27V74a1.65,1.65,0,0,1-1.66,1.65H611.58a1.66,1.66,0,0,0-1.66,1.66v46.54a1.66,1.66,0,0,1-1.66,1.66H596.5a1.66,1.66,0,0,1-1.66-1.66V77.37a1.66,1.66,0,0,0-1.66-1.66H580.1a1.67,1.67,0,0,1-1.66-1.66h0V65.27a1.66,1.66,0,0,1,1.66-1.65h44.58A1.65,1.65,0,0,1,626.33,65.27Z" transform="translate(0 0.02)"/><path id="Pfad_15" data-name="Pfad 15" class="cls-1" d="M662.56,114.6H641.82a1.66,1.66,0,0,0-1.57,1.12l-2.9,8.69a1.67,1.67,0,0,1-1.57,1.13H623.51a1.66,1.66,0,0,1-1.66-1.66,1.85,1.85,0,0,1,.1-.57l21.2-58.57a1.66,1.66,0,0,1,1.56-1.1h15.13a1.65,1.65,0,0,1,1.56,1.1l21.2,58.61a1.66,1.66,0,0,1-1,2.13,1.91,1.91,0,0,1-.58.1H668.6a1.66,1.66,0,0,1-1.56-1.13l-2.95-8.7A1.64,1.64,0,0,0,662.56,114.6Zm-3.44-13.84L653.77,85a1.66,1.66,0,0,0-3.14,0l-5.29,15.81a1.66,1.66,0,0,0,1,2.1,1.82,1.82,0,0,0,.52.08h10.64a1.66,1.66,0,0,0,1.66-1.65,1.6,1.6,0,0,0-.09-.53Z" transform="translate(0 0.02)"/><path id="Pfad_16" data-name="Pfad 16" class="cls-1" d="M719.35,124.69,707.4,103a1.64,1.64,0,0,0-1.45-.83h-1a1.66,1.66,0,0,0-1.66,1.66v20.06a1.66,1.66,0,0,1-1.66,1.66H689.9a1.66,1.66,0,0,1-1.66-1.66V65.28a1.66,1.66,0,0,1,1.66-1.66h23.65A27.78,27.78,0,0,1,726,66.18a17.58,17.58,0,0,1,7.72,7,19.51,19.51,0,0,1,2.56,10,18.47,18.47,0,0,1-3.48,11,18.82,18.82,0,0,1-8.34,6.23,1.67,1.67,0,0,0-1,2.12,1.47,1.47,0,0,0,.14.28l11.8,20.25a1.66,1.66,0,0,1-.61,2.26,1.58,1.58,0,0,1-.82.22H720.81A1.65,1.65,0,0,1,719.35,124.69Zm-16-34.84A1.66,1.66,0,0,0,705,91.51h7.68a8.58,8.58,0,0,0,6.11-1.94l.22-.21a7.65,7.65,0,0,0,2-5.62,7.47,7.47,0,0,0-2-5.45,2,2,0,0,0-.21-.2,8.52,8.52,0,0,0-6.11-1.93H705a1.66,1.66,0,0,0-1.66,1.66Z" transform="translate(0 0.02)"/><path id="Pfad_17" data-name="Pfad 17" class="cls-1" d="M788.2,65.27V74a1.66,1.66,0,0,1-1.66,1.65H773.46a1.66,1.66,0,0,0-1.66,1.66v46.54a1.66,1.66,0,0,1-1.66,1.66H758.38a1.66,1.66,0,0,1-1.66-1.66V77.37a1.66,1.66,0,0,0-1.66-1.66H742a1.66,1.66,0,0,1-1.65-1.66V65.27A1.65,1.65,0,0,1,742,63.62h44.58A1.66,1.66,0,0,1,788.2,65.27Z" transform="translate(0 0.02)"/><path id="Pfad_18" data-name="Pfad 18" class="cls-1" d="M808.47,77.37v9.19a1.67,1.67,0,0,0,1.66,1.66H827a1.66,1.66,0,0,1,1.66,1.66v8.3A1.65,1.65,0,0,1,827,99.83H810.13a1.67,1.67,0,0,0-1.66,1.66h0v10.27a1.66,1.66,0,0,0,1.66,1.66h19.53a1.66,1.66,0,0,1,1.66,1.66v8.79a1.65,1.65,0,0,1-1.66,1.65h-34.6a1.65,1.65,0,0,1-1.66-1.65V65.27a1.65,1.65,0,0,1,1.66-1.65h34.6a1.65,1.65,0,0,1,1.66,1.65V74a1.65,1.65,0,0,1-1.66,1.65H810.13a1.67,1.67,0,0,0-1.66,1.66h0Z" transform="translate(0 0.02)"/><path id="Pfad_19" data-name="Pfad 19" class="cls-1" d="M872.05,124.69,860.11,103a1.66,1.66,0,0,0-1.46-.83h-1a1.66,1.66,0,0,0-1.66,1.66v20.06a1.67,1.67,0,0,1-1.66,1.66H842.59a1.66,1.66,0,0,1-1.65-1.66h0V65.28a1.66,1.66,0,0,1,1.65-1.66h23.66a27.81,27.81,0,0,1,12.44,2.56,17.55,17.55,0,0,1,7.71,7,19.51,19.51,0,0,1,2.56,10,18.47,18.47,0,0,1-3.48,11,18.85,18.85,0,0,1-8.35,6.26,1.67,1.67,0,0,0-1,2.12,2.39,2.39,0,0,0,.13.28l11.82,20.26a1.67,1.67,0,0,1-.61,2.27,1.72,1.72,0,0,1-.83.22H873.46a1.66,1.66,0,0,1-1.41-.89ZM856,89.85a1.67,1.67,0,0,0,1.66,1.66h7.7a8.55,8.55,0,0,0,6.22-2,7.63,7.63,0,0,0,2.07-5.73,7.44,7.44,0,0,0-2.07-5.56,8.55,8.55,0,0,0-6.22-2h-7.7A1.66,1.66,0,0,0,856,77.82Z" transform="translate(0 0.02)"/></g><g id="MoonFlame"><g id="Moon"><path id="Full_Moon" data-name="Full Moon" class="cls-2" d="M165.79,150.82a80.77,80.77,0,0,1-22.63,9.61A78.2,78.2,0,0,0,43.73,62.61,81.45,81.45,0,0,1,180.57,23.86l.46.47a81.44,81.44,0,0,1,6,107.4,14.34,14.34,0,0,0-21.27,19Z" transform="translate(0 0.02)"/><path id="Half_Moon" data-name="Half Moon" class="cls-3" d="M181,24.38,123.89,81.51a78.2,78.2,0,0,0-80.16-18.9A81.45,81.45,0,0,1,180.57,23.86Z" transform="translate(0 0.02)"/><circle id="Circle_2" data-name="Circle 2" class="cls-3" cx="169.43" cy="67.52" r="14"/><circle id="Circle_3" data-name="Circle 3" class="cls-4" cx="123.93" cy="37.99" r="23.5"/><circle id="Circle_4" data-name="Circle 4" class="cls-4" cx="77.93" cy="35.99" r="9.5"/><circle id="Circle_1" data-name="Circle 1" class="cls-3" cx="152.93" cy="103.99" r="5.5"/></g><path id="Flame" class="cls-5" d="M101.5,181.2s-2.61-7.37-5.33-17.27a41.9,41.9,0,0,1-8.07,11.32c-.56.56-1.13,1.12-1.73,1.66a57.51,57.51,0,0,1-10.28,7.82c-11.82,6.9-21.35,3.42-21.59,2.71s9-13.8,3.72-22c-4.38,4.31-11.13,10.67-18.44,15a57.93,57.93,0,0,1-24,7.36C11,188.29-.48,186.57,0,185.82c4-5.9,27.11-31.82,33.89-46.82,0,0-6.45-6.52-22.16-1.86h0c7.43-29.49,35.18-33,34.85-33.27-6.51-6.51-16.74-10.61-16.74-10.61.73-.8,1.47-1.59,2.24-2.36A57.34,57.34,0,0,1,112.17,173,56.61,56.61,0,0,1,101.5,181.2Z" transform="translate(0 0.02)"/></g></g></svg>