<svg width="800" height="275" viewBox="0 0 800 275" fill="none" xmlns="http://www.w3.org/2000/svg">
<path d="M382.726 15.2535C383.533 13.9648 383.253 12.2685 382.022 11.3765C371.555 3.79216 358.266 0 342.155 0C333.04 0 325.26 1.33627 318.815 4.00882C312.462 6.58921 307.582 10.2294 304.175 14.9294C300.861 19.6294 299.203 25.1127 299.203 31.3794C299.203 37.4618 300.584 42.3 303.347 45.8941C306.109 49.3961 309.7 52.0686 314.119 53.9118C318.539 55.7549 323.188 57.2294 328.068 58.3353L341.879 61.3765C344.641 62.0216 346.529 62.6667 347.542 63.3118C348.647 63.9569 349.199 64.9245 349.199 66.2147C349.199 67.4127 348.554 68.4265 347.265 69.2559C346.068 69.9931 343.813 70.3618 340.498 70.3618C336.999 70.3618 333.224 69.8549 329.173 68.8412C325.122 67.8275 321.209 66.4912 317.434 64.8324C314.482 63.4634 311.869 61.9819 309.593 60.3876C308.604 59.6949 307.215 59.9445 306.593 60.9796L296.394 77.9567C295.627 79.2319 295.906 80.8845 297.109 81.7596C300.247 84.0426 303.846 86.0492 307.904 87.7794C312.876 89.8069 318.262 91.3735 324.063 92.4794C329.864 93.4931 335.664 94 341.465 94C349.199 94 356.104 92.848 362.181 90.5441C368.35 88.2402 373.23 84.7382 376.821 80.0382C380.412 75.2461 382.207 69.1637 382.207 61.7912C382.207 54.4186 379.813 48.6588 375.025 44.5118C370.33 40.3647 363.332 37.2314 354.033 35.1118L341.465 32.2088C338.887 31.5637 336.723 30.9647 334.974 30.4118C333.316 29.8588 332.488 29.0294 332.488 27.9235C332.488 26.6333 333.178 25.6196 334.559 24.8824C336.033 24.0529 338.565 23.6382 342.155 23.6382C347.68 23.6382 352.79 24.5598 357.486 26.4029C361.634 28.0001 365.61 30.0471 369.414 32.544C370.372 33.1731 371.669 32.9132 372.278 31.9416L382.726 15.2535Z" fill="white"/>
<path d="M107.734 92.6176C106.078 92.6176 104.734 91.2745 104.734 89.6176V4.38235C104.734 2.7255 106.078 1.38235 107.734 1.38235H177.418C179.075 1.38235 180.418 2.7255 180.418 4.38235V22.0206C180.418 23.6774 179.075 25.0206 177.418 25.0206H136.914V36.3559H168.994C170.651 36.3559 171.994 37.699 171.994 39.3559V55.1971C171.994 56.8539 170.651 58.1971 168.994 58.1971H136.914V68.9794H179.076C180.733 68.9794 182.076 70.3226 182.076 71.9794V89.6176C182.076 91.2745 180.733 92.6176 179.076 92.6176H107.734Z" fill="white"/>
<path d="M288.592 91.0537C289.045 91.7174 288.57 92.6176 287.766 92.6176H252.078C251.325 92.6176 250.636 92.195 250.295 91.5239L238.835 68.9794L228.326 91.4645C227.997 92.1681 227.29 92.6176 226.514 92.6176H193.33C192.532 92.6176 192.055 91.7285 192.497 91.0639L221.71 47.1382L193.548 2.91954C193.124 2.25383 193.602 1.38235 194.391 1.38235H229.275C230.052 1.38235 230.759 1.83272 231.087 2.53721L241.183 24.1912L251.415 2.52823C251.745 1.82862 252.449 1.38235 253.223 1.38235H285.2C285.992 1.38235 286.47 2.2593 286.04 2.92472L258.033 46.3088L288.592 91.0537Z" fill="white"/>
<path fill-rule="evenodd" clip-rule="evenodd" d="M447.041 1.38235C459.379 1.38235 468.816 4.14706 475.353 9.67647C481.983 15.2059 485.297 23.1774 485.297 33.5912C485.297 43.9127 481.983 51.8843 475.353 57.5059C468.816 63.0353 459.379 65.8 447.041 65.8H430.882V89.6176C430.882 91.2745 429.539 92.6176 427.882 92.6176H401.703C400.046 92.6176 398.703 91.2745 398.703 89.6176V4.38235C398.703 2.7255 400.046 1.38235 401.703 1.38235H447.041ZM441.793 42.9912C445.291 42.9912 448.054 42.2539 450.079 40.7794C452.105 39.2127 453.118 36.8167 453.118 33.5912C453.118 30.3657 452.105 28.0157 450.079 26.5412C448.054 24.9745 445.291 24.1912 441.793 24.1912H430.882V42.9912H441.793Z" fill="white"/>
<path fill-rule="evenodd" clip-rule="evenodd" d="M580.6 12.3029C572.498 4.10098 561.173 0 546.625 0C537.05 0 528.763 1.84314 521.766 5.52941C514.86 9.21568 509.52 14.5608 505.745 21.5647C502.062 28.5686 500.221 37.0471 500.221 47C500.221 56.9529 502.062 65.4314 505.745 72.4353C509.52 79.4392 514.86 84.7843 521.766 88.4706C528.763 92.1569 537.05 94 546.625 94C561.173 94 572.498 89.899 580.6 81.6971C588.795 73.4951 592.892 61.9294 592.892 47C592.892 32.0706 588.795 20.5049 580.6 12.3029ZM536.267 29.7206C538.477 26.0343 541.93 24.1912 546.625 24.1912C551.321 24.1912 554.728 26.0343 556.845 29.7206C558.963 33.3147 560.022 39.0745 560.022 47C560.022 54.9255 558.963 60.7314 556.845 64.4176C554.728 68.0118 551.321 69.8088 546.625 69.8088C541.93 69.8088 538.477 68.0118 536.267 64.4176C534.149 60.7314 533.091 54.9255 533.091 47C533.091 39.0745 534.149 33.3147 536.267 29.7206Z" fill="white"/>
<path fill-rule="evenodd" clip-rule="evenodd" d="M660.084 1.38235C671.962 1.38235 681.077 4.0549 687.43 9.39999C693.783 14.6529 696.96 21.6569 696.96 30.4118C696.96 44.1431 691.251 53.2206 679.834 57.6441L699.139 88.0081C700.409 90.0053 698.974 92.6176 696.607 92.6176H668.927C667.82 92.6176 666.802 92.0074 666.281 91.0303L650.969 62.3441H642.13V89.6176C642.13 91.2745 640.787 92.6176 639.13 92.6176H613.641C611.984 92.6176 610.641 91.2745 610.641 89.6176V4.38235C610.641 2.7255 611.984 1.38235 613.641 1.38235H660.084ZM654.56 41.1941C657.967 41.1941 660.499 40.5951 662.156 39.3971C663.905 38.1069 664.78 35.8951 664.78 32.7618C664.78 29.7206 663.905 27.5549 662.156 26.2647C660.499 24.9745 657.967 24.3294 654.56 24.3294H642.13V41.1941H654.56Z" fill="white"/>
<path d="M797 25.0206C798.657 25.0206 800 23.6774 800 22.0206V4.38235C800 2.7255 798.657 1.38235 797 1.38235H713.781C712.124 1.38235 710.781 2.7255 710.781 4.38235V22.0206C710.781 23.6774 712.124 25.0206 713.781 25.0206H739.37V89.6176C739.37 91.2745 740.713 92.6176 742.37 92.6176H768.549C770.206 92.6176 771.549 91.2745 771.549 89.6176V25.0206H797Z" fill="white"/>
<path fill-rule="evenodd" clip-rule="evenodd" d="M44.7475 1.38212C59.0188 1.38212 69.7913 5.34486 77.0651 13.2704C84.3389 21.1958 87.9757 32.439 87.9757 46.9998C87.9757 61.4684 84.3389 72.7115 77.0651 80.7292C69.7913 88.6547 59.0188 92.6174 44.7475 92.6174H3C1.34315 92.6174 0 91.273 0 89.6147V4.38485C0 2.72649 1.34315 1.38212 3 1.38212H44.7475ZM29.9963 69.1708C29.3133 71.026 31.4451 72.6438 33.0455 71.4846L60.5841 51.5371C61.8108 50.6486 61.6444 48.771 60.2806 48.1125L46.1018 41.2656C45.1742 40.8176 44.7381 39.7378 45.0942 38.7705L50.5663 23.9069C51.2493 22.0516 49.1174 20.4338 47.5171 21.593L19.9784 41.5405C18.7518 42.429 18.9182 44.3066 20.2819 44.9651L34.4607 51.812C35.3883 52.26 35.8244 53.3398 35.4683 54.3071L29.9963 69.1708Z" fill="white"/>
<mask id="mask0_736_1131" style="mask-type:alpha" maskUnits="userSpaceOnUse" x="0" y="133" width="800" height="142">
<rect y="133" width="800" height="141.994" rx="70.9972" fill="#7d7d7d"/>
<rect y="133" width="800" height="141.994" rx="70.9972" fill="url(#paint0_linear_736_1131)"/>
<rect x="0.610526" y="133.611" width="798.779" height="140.773" rx="70.3867" stroke="url(#paint1_linear_736_1131)" stroke-opacity="0.3" stroke-width="1.22105"/>
</mask>
<g mask="url(#mask0_736_1131)">
<g filter="url(#filter0_f_736_1131)">
<mask id="mask1_736_1131" style="mask-type:alpha" maskUnits="userSpaceOnUse" x="-19" y="107" width="760" height="196">
<rect x="740.005" y="107.254" width="195.593" height="758.378" rx="97.7967" transform="rotate(90 740.005 107.254)" fill="white"/>
</mask>
<g mask="url(#mask1_736_1131)">
<rect x="740.005" y="107.254" width="195.593" height="758.378" rx="97.7967" transform="rotate(90 740.005 107.254)" fill="white"/>
<g filter="url(#filter1_f_736_1131)">
<ellipse cx="-20.2624" cy="250.081" rx="69.3417" ry="514.467" transform="rotate(90 -20.2624 250.081)" fill="#34E1EC"/>
</g>
<g filter="url(#filter2_f_736_1131)">
<ellipse cx="-122.493" cy="148.141" rx="60.7776" ry="513.929" transform="rotate(90 -122.493 148.141)" fill="#7d7d7d"/>
</g>
<g filter="url(#filter3_f_736_1131)">
<path d="M541.692 343.961C410.533 340.384 364.327 329.472 358.946 315.019C352.479 297.647 369.268 272.421 329.272 266.565C-217.798 186.462 564.424 128.912 789.855 135.061C1024.2 141.453 1645.7 210.965 1589.34 242.552C1532.98 274.138 776.042 350.353 541.692 343.961Z" fill="#7d7d7d"/>
</g>
<g filter="url(#filter4_f_736_1131)">
<ellipse cx="907.303" cy="166.096" rx="93.1002" ry="690.739" transform="rotate(90 907.303 166.096)" fill="#7d7d7d"/>
</g>
</g>
</g>
<mask id="mask2_736_1131" style="mask-type:alpha" maskUnits="userSpaceOnUse" x="-18" y="81" width="841" height="245">
<rect x="822.988" y="81.6401" width="243.627" height="840.282" rx="100" transform="rotate(90 822.988 81.6401)" fill="white"/>
</mask>
<g mask="url(#mask2_736_1131)">
<rect x="822.988" y="81.6401" width="243.627" height="840.282" rx="100" transform="rotate(90 822.988 81.6401)" fill="#7d7d7d"/>
<g filter="url(#filter5_f_736_1131)">
<ellipse cx="-132.669" cy="132.569" rx="75.7032" ry="569.433" transform="rotate(90 -132.669 132.569)" fill="#7d7d7d"/>
</g>
<g filter="url(#filter6_f_736_1131)">
<path d="M603.265 376.48C444.695 371.618 398.194 355.879 400.242 335.401C402.377 314.057 416.167 287.882 376.184 281.426C-246.069 180.95 627.326 108.585 878.228 116.278C1137.89 124.24 1826.5 210.823 1764.05 250.166C1701.61 289.51 862.924 384.441 603.265 376.48Z" fill="#7d7d7d"/>
</g>
<g filter="url(#filter7_f_736_1131)">
<ellipse cx="997.547" cy="150.538" rx="111.37" ry="775.54" transform="rotate(90 997.547 150.538)" fill="#7d7d7d"/>
</g>
<g filter="url(#filter8_f_736_1131)">
<ellipse cx="815.835" cy="159.886" rx="51.9066" ry="362.014" transform="rotate(90 815.835 159.886)" fill="#7d7d7d"/>
</g>
<g filter="url(#filter9_f_736_1131)">
<ellipse cx="847.115" cy="131.641" rx="63.414" ry="418.52" transform="rotate(90 847.115 131.641)" fill="#7d7d7d" fill-opacity="0.5"/>
</g>
<g filter="url(#filter10_f_736_1131)">
<ellipse cx="33.1994" cy="274.162" rx="63.414" ry="418.52" transform="rotate(90 33.1994 274.162)" fill="#7d7d7d" fill-opacity="0.4"/>
</g>
<g opacity="0.4" filter="url(#filter11_f_736_1131)">
<ellipse rx="40.4065" ry="333.765" transform="matrix(-0.934835 0.355083 -0.998709 -0.0507924 536.782 168.96)" fill="white"/>
</g>
</g>
<g filter="url(#filter12_f_736_1131)">
<rect x="34.2104" y="144.968" width="729.045" height="33.7761" rx="16.8881" fill="#EED1FF" fill-opacity="0.4"/>
</g>
<rect x="0.915788" y="133.916" width="798.168" height="140.602" rx="70.3008" stroke="url(#paint2_linear_736_1131)" stroke-opacity="0.3" stroke-width="1.83158"/>
</g>
<path d="M72.685 236.431L54.033 170.342H66.9087L78.8163 218.908H79.4295L92.1439 170.342H103.858L116.605 218.94H117.185L129.093 170.342H141.969L123.317 236.431H111.506L98.2752 190.059H97.7589L84.4959 236.431H72.685ZM151.179 236.431V170.342H194.163V180.378H163.151V198.32H191.936V208.356H163.151V226.395H194.421V236.431H151.179ZM207.286 236.431V170.342H232.585C237.361 170.342 241.33 171.095 244.493 172.601C247.677 174.085 250.054 176.118 251.625 178.7C253.217 181.281 254.013 184.207 254.013 187.477C254.013 190.166 253.496 192.468 252.464 194.383C251.431 196.276 250.043 197.814 248.301 198.997C246.558 200.181 244.611 201.03 242.46 201.547V202.192C244.805 202.321 247.053 203.042 249.204 204.354C251.377 205.645 253.152 207.474 254.529 209.84C255.906 212.207 256.594 215.068 256.594 218.424C256.594 221.845 255.766 224.921 254.109 227.653C252.453 230.364 249.957 232.504 246.623 234.075C243.288 235.645 239.093 236.431 234.037 236.431H207.286ZM219.258 226.427H232.134C236.479 226.427 239.609 225.599 241.524 223.942C243.46 222.264 244.428 220.113 244.428 217.488C244.428 215.53 243.944 213.766 242.976 212.196C242.008 210.604 240.631 209.356 238.846 208.453C237.06 207.527 234.93 207.065 232.456 207.065H219.258V226.427ZM219.258 198.449H231.101C233.166 198.449 235.027 198.072 236.684 197.319C238.34 196.545 239.642 195.458 240.588 194.06C241.556 192.64 242.04 190.962 242.04 189.026C242.04 186.466 241.137 184.358 239.33 182.701C237.544 181.045 234.887 180.216 231.359 180.216H219.258V198.449ZM290.991 237.334C286.344 237.334 282.214 236.538 278.599 234.946C275.007 233.354 272.167 231.138 270.08 228.299C267.993 225.459 266.885 222.178 266.756 218.456H278.89C278.997 220.242 279.589 221.802 280.665 223.135C281.74 224.448 283.171 225.47 284.957 226.201C286.742 226.933 288.743 227.298 290.959 227.298C293.325 227.298 295.423 226.889 297.252 226.072C299.08 225.233 300.511 224.071 301.543 222.587C302.576 221.102 303.082 219.392 303.06 217.456C303.082 215.455 302.565 213.691 301.511 212.164C300.457 210.636 298.93 209.442 296.929 208.582C294.95 207.721 292.562 207.291 289.765 207.291H283.924V198.062H289.765C292.067 198.062 294.078 197.664 295.799 196.868C297.542 196.072 298.908 194.953 299.898 193.512C300.887 192.049 301.371 190.36 301.35 188.445C301.371 186.573 300.952 184.949 300.091 183.572C299.252 182.174 298.058 181.088 296.509 180.313C294.982 179.539 293.185 179.151 291.12 179.151C289.098 179.151 287.226 179.517 285.505 180.249C283.784 180.98 282.397 182.023 281.342 183.379C280.288 184.713 279.729 186.305 279.664 188.155H268.144C268.23 184.454 269.295 181.206 271.339 178.409C273.404 175.591 276.158 173.397 279.6 171.826C283.042 170.234 286.904 169.438 291.185 169.438C295.595 169.438 299.424 170.266 302.673 171.923C305.943 173.558 308.471 175.763 310.256 178.538C312.042 181.313 312.935 184.379 312.935 187.735C312.956 191.457 311.859 194.576 309.643 197.094C307.449 199.611 304.566 201.256 300.995 202.031V202.547C305.642 203.193 309.202 204.914 311.676 207.71C314.172 210.486 315.409 213.938 315.387 218.069C315.387 221.769 314.333 225.082 312.225 228.008C310.138 230.912 307.255 233.193 303.576 234.849C299.919 236.506 295.724 237.334 290.991 237.334ZM351.467 236.431V170.342H376.767C381.543 170.342 385.512 171.095 388.675 172.601C391.859 174.085 394.236 176.118 395.806 178.7C397.398 181.281 398.194 184.207 398.194 187.477C398.194 190.166 397.678 192.468 396.645 194.383C395.613 196.276 394.225 197.814 392.483 198.997C390.74 200.181 388.793 201.03 386.642 201.547V202.192C388.987 202.321 391.235 203.042 393.386 204.354C395.559 205.645 397.334 207.474 398.711 209.84C400.088 212.207 400.776 215.068 400.776 218.424C400.776 221.845 399.948 224.921 398.291 227.653C396.635 230.364 394.139 232.504 390.805 234.075C387.47 235.645 383.275 236.431 378.219 236.431H351.467ZM363.44 226.427H376.315C380.661 226.427 383.791 225.599 385.706 223.942C387.642 222.264 388.61 220.113 388.61 217.488C388.61 215.53 388.126 213.766 387.158 212.196C386.19 210.604 384.813 209.356 383.027 208.453C381.242 207.527 379.112 207.065 376.638 207.065H363.44V226.427ZM363.44 198.449H375.283C377.348 198.449 379.209 198.072 380.865 197.319C382.522 196.545 383.823 195.458 384.77 194.06C385.738 192.64 386.222 190.962 386.222 189.026C386.222 186.466 385.319 184.358 383.512 182.701C381.726 181.045 379.069 180.216 375.541 180.216H363.44V198.449ZM412.1 236.431V170.342H455.084V180.378H424.072V198.32H452.857V208.356H424.072V226.395H455.342V236.431H412.1ZM465.302 180.378V170.342H518.031V180.378H497.604V236.431H485.729V180.378H465.302ZM526.201 180.378V170.342H578.93V180.378H558.503V236.431H546.628V180.378H526.201ZM601.976 170.342V236.431H590.004V170.342H601.976ZM670.16 170.342V236.431H659.511L628.37 191.414H627.821V236.431H615.849V170.342H626.563L657.671 215.391H658.252V170.342H670.16ZM728.388 191.446C727.85 189.704 727.108 188.144 726.161 186.767C725.236 185.369 724.118 184.175 722.805 183.185C721.515 182.196 720.03 181.453 718.352 180.958C716.674 180.442 714.845 180.184 712.866 180.184C709.316 180.184 706.154 181.077 703.379 182.862C700.604 184.648 698.42 187.273 696.828 190.736C695.257 194.178 694.472 198.374 694.472 203.322C694.472 208.313 695.257 212.54 696.828 216.004C698.398 219.467 700.582 222.103 703.379 223.91C706.176 225.696 709.424 226.588 713.124 226.588C716.48 226.588 719.385 225.943 721.837 224.652C724.311 223.361 726.215 221.533 727.549 219.166C728.883 216.778 729.55 213.981 729.55 210.776L732.26 211.196H714.318V201.837H741.135V209.776C741.135 215.434 739.93 220.328 737.52 224.458C735.111 228.589 731.798 231.773 727.581 234.01C723.365 236.226 718.524 237.334 713.06 237.334C706.972 237.334 701.625 235.968 697.022 233.236C692.439 230.482 688.857 226.578 686.276 221.522C683.716 216.445 682.436 210.421 682.436 203.451C682.436 198.115 683.189 193.35 684.694 189.155C686.222 184.96 688.352 181.4 691.084 178.474C693.816 175.526 697.022 173.289 700.7 171.762C704.379 170.213 708.381 169.438 712.705 169.438C716.362 169.438 719.772 169.976 722.934 171.052C726.097 172.106 728.904 173.612 731.357 175.569C733.831 177.527 735.864 179.851 737.456 182.54C739.048 185.229 740.091 188.198 740.586 191.446H728.388Z" fill="white"/>
<defs>
<filter id="filter0_f_736_1131" x="-107.483" y="18.1444" width="936.598" height="373.813" filterUnits="userSpaceOnUse" color-interpolation-filters="sRGB">
<feFlood flood-opacity="0" result="BackgroundImageFix"/>
<feBlend mode="normal" in="SourceGraphic" in2="BackgroundImageFix" result="shape"/>
<feGaussianBlur stdDeviation="44.555" result="effect1_foregroundBlur_736_1131"/>
</filter>
<filter id="filter1_f_736_1131" x="-658.761" y="56.7083" width="1277" height="386.746" filterUnits="userSpaceOnUse" color-interpolation-filters="sRGB">
<feFlood flood-opacity="0" result="BackgroundImageFix"/>
<feBlend mode="normal" in="SourceGraphic" in2="BackgroundImageFix" result="shape"/>
<feGaussianBlur stdDeviation="62.0157" result="effect1_foregroundBlur_736_1131"/>
</filter>
<filter id="filter2_f_736_1131" x="-829.092" y="-105.307" width="1413.2" height="506.896" filterUnits="userSpaceOnUse" color-interpolation-filters="sRGB">
<feFlood flood-opacity="0" result="BackgroundImageFix"/>
<feBlend mode="normal" in="SourceGraphic" in2="BackgroundImageFix" result="shape"/>
<feGaussianBlur stdDeviation="96.3352" result="effect1_foregroundBlur_736_1131"/>
</filter>
<filter id="filter3_f_736_1131" x="14.7104" y="10.5793" width="1702.25" height="457.792" filterUnits="userSpaceOnUse" color-interpolation-filters="sRGB">
<feFlood flood-opacity="0" result="BackgroundImageFix"/>
<feBlend mode="normal" in="SourceGraphic" in2="BackgroundImageFix" result="shape"/>
<feGaussianBlur stdDeviation="62.0158" result="effect1_foregroundBlur_736_1131"/>
</filter>
<filter id="filter4_f_736_1131" x="92.5327" y="-51.0354" width="1629.54" height="434.263" filterUnits="userSpaceOnUse" color-interpolation-filters="sRGB">
<feFlood flood-opacity="0" result="BackgroundImageFix"/>
<feBlend mode="normal" in="SourceGraphic" in2="BackgroundImageFix" result="shape"/>
<feGaussianBlur stdDeviation="62.0157" result="effect1_foregroundBlur_736_1131"/>
</filter>
<filter id="filter5_f_736_1131" x="-894.772" y="-135.805" width="1524.21" height="536.747" filterUnits="userSpaceOnUse" color-interpolation-filters="sRGB">
<feFlood flood-opacity="0" result="BackgroundImageFix"/>
<feBlend mode="normal" in="SourceGraphic" in2="BackgroundImageFix" result="shape"/>
<feGaussianBlur stdDeviation="96.3352" result="effect1_foregroundBlur_736_1131"/>
</filter>
<filter id="filter6_f_736_1131" x="32.7649" y="-8.31374" width="1859.3" height="509.297" filterUnits="userSpaceOnUse" color-interpolation-filters="sRGB">
<feFlood flood-opacity="0" result="BackgroundImageFix"/>
<feBlend mode="normal" in="SourceGraphic" in2="BackgroundImageFix" result="shape"/>
<feGaussianBlur stdDeviation="62.0158" result="effect1_foregroundBlur_736_1131"/>
</filter>
<filter id="filter7_f_736_1131" x="97.9752" y="-84.864" width="1799.14" height="470.804" filterUnits="userSpaceOnUse" color-interpolation-filters="sRGB">
<feFlood flood-opacity="0" result="BackgroundImageFix"/>
<feBlend mode="normal" in="SourceGraphic" in2="BackgroundImageFix" result="shape"/>
<feGaussianBlur stdDeviation="62.0157" result="effect1_foregroundBlur_736_1131"/>
</filter>
<filter id="filter8_f_736_1131" x="329.789" y="-16.0525" width="972.091" height="351.876" filterUnits="userSpaceOnUse" color-interpolation-filters="sRGB">
<feFlood flood-opacity="0" result="BackgroundImageFix"/>
<feBlend mode="normal" in="SourceGraphic" in2="BackgroundImageFix" result="shape"/>
<feGaussianBlur stdDeviation="62.0157" result="effect1_foregroundBlur_736_1131"/>
</filter>
<filter id="filter9_f_736_1131" x="337.53" y="-22.8375" width="1019.17" height="308.958" filterUnits="userSpaceOnUse" color-interpolation-filters="sRGB">
<feFlood flood-opacity="0" result="BackgroundImageFix"/>
<feBlend mode="normal" in="SourceGraphic" in2="BackgroundImageFix" result="shape"/>
<feGaussianBlur stdDeviation="45.5325" result="effect1_foregroundBlur_736_1131"/>
</filter>
<filter id="filter10_f_736_1131" x="-476.386" y="119.684" width="1019.17" height="308.958" filterUnits="userSpaceOnUse" color-interpolation-filters="sRGB">
<feFlood flood-opacity="0" result="BackgroundImageFix"/>
<feBlend mode="normal" in="SourceGraphic" in2="BackgroundImageFix" result="shape"/>
<feGaussianBlur stdDeviation="45.5325" result="effect1_foregroundBlur_736_1131"/>
</filter>
<filter id="filter11_f_736_1131" x="77.2524" y="22.7192" width="919.059" height="292.482" filterUnits="userSpaceOnUse" color-interpolation-filters="sRGB">
<feFlood flood-opacity="0" result="BackgroundImageFix"/>
<feBlend mode="normal" in="SourceGraphic" in2="BackgroundImageFix" result="shape"/>
<feGaussianBlur stdDeviation="62.0158" result="effect1_foregroundBlur_736_1131"/>
</filter>
<filter id="filter12_f_736_1131" x="-94.8686" y="15.8893" width="987.203" height="291.934" filterUnits="userSpaceOnUse" color-interpolation-filters="sRGB">
<feFlood flood-opacity="0" result="BackgroundImageFix"/>
<feBlend mode="normal" in="SourceGraphic" in2="BackgroundImageFix" result="shape"/>
<feGaussianBlur stdDeviation="64.5395" result="effect1_foregroundBlur_736_1131"/>
</filter>
<linearGradient id="paint0_linear_736_1131" x1="400" y1="133" x2="400" y2="274.994" gradientUnits="userSpaceOnUse">
<stop stop-color="#7d7d7d"/>
<stop offset="1" stop-color="#7d7d7d"/>
</linearGradient>
<linearGradient id="paint1_linear_736_1131" x1="400" y1="133" x2="400" y2="274.994" gradientUnits="userSpaceOnUse">
<stop stop-color="white"/>
<stop offset="1" stop-color="white" stop-opacity="0.3"/>
</linearGradient>
<linearGradient id="paint2_linear_736_1131" x1="400" y1="133" x2="400" y2="275.433" gradientUnits="userSpaceOnUse">
<stop stop-color="white"/>
<stop offset="1" stop-color="white" stop-opacity="0.3"/>
</linearGradient>
</defs>
</svg>
