<svg id="Слой_1" data-name="Слой 1" xmlns="http://www.w3.org/2000/svg" xmlns:xlink="http://www.w3.org/1999/xlink" viewBox="0 0 91.68 54.11"><defs><style>.cls-1{fill:url(#Безымянный_градиент_3);}.cls-2{fill:#fff;}</style><linearGradient id="Безымянный_градиент_3" x1="52.36" y1="36.67" x2="44.88" y2="58.5" gradientTransform="matrix(1, 0, 0, -1, 0, 64)" gradientUnits="userSpaceOnUse"><stop offset="0" stop-color="#bcbcbc"/><stop offset="1" stop-color="#848484"/></linearGradient></defs><path class="cls-1" d="M25.92,16v.27l.8,1.61s.52,1.21,0,1.88-3.44,6.05-4,6.72,0,.13-.13.13H19.45c-.13,0-.13-.13-.13-.27l3.83-5.77v-.41L22,16.48c0-.13-.13-.13-.26-.13l-2,.4a3.46,3.46,0,0,0-1.91.79,3.5,3.5,0,0,0-1.12,1.77l-1.72,5a2.22,2.22,0,0,1-.89,1.11,2.19,2.19,0,0,1-1.36.37H6.9s-1.59.13-.79-2.29,3.17-7.39,2.51-10.21-1.19-2.15.79-2.69,6.87-1.34,6.87-1.34a2.2,2.2,0,0,0,2.77,0C20.77,8.15,29.49,3.45,42.7,4S74.41,9.36,92.24,17.16a11.54,11.54,0,0,0,2.25.4c.66,0,.66,3.49-1.59,3.22a48,48,0,0,1-10.7-2.41,110.66,110.66,0,0,0-14.93-4.3c.27,1.74,1.19,5.91-1.58,7.25a80.67,80.67,0,0,0-7.27,4.44c0,.13-.13.13-.26,0L55.38,24a.46.46,0,0,1-.13-.27h.13a52.31,52.31,0,0,1,7.53-4.43,62.06,62.06,0,0,0-7.53,2.82l-1.58.8h-.13L51,20.78l1.72-.67,6.08-2.68s2-1.62.53-2.56-5.42-2.28-11.89-2.28A92.15,92.15,0,0,0,31.6,14.07s1.32,6,0,8.06l-4.36,5.51H27a11.51,11.51,0,0,1-3.7-.27c-.13,0-.13,0-.13-.14h.13c1.59-2,3.17-4,4.62-6.18,0,0,1.72-1.88.67-2.82S26.45,15,25.92,16Z" transform="translate(-4.54 -3.95)"/><path class="cls-2" d="M10.48,36a3.92,3.92,0,0,0-2.77,1.08H7.44V30.64H4.8a.27.27,0,0,0-.19.08.26.26,0,0,0-.07.19h0V51.74a.26.26,0,0,0,.07.19A.27.27,0,0,0,4.8,52H7.18c.26,0,.26-.14.26-.27V51.2h.13L8.9,52l1.58.26A3.59,3.59,0,0,0,12.15,52a3.82,3.82,0,0,0,1.37-1,4.51,4.51,0,0,0,1-1.68,4.61,4.61,0,0,0,.21-2V41a4.58,4.58,0,0,0-.19-2,4.48,4.48,0,0,0-1-1.68,3.43,3.43,0,0,0-3-1.35ZM11.8,47.17a1.88,1.88,0,0,1-.06.94,1.91,1.91,0,0,1-.47.8,2,2,0,0,1-.7.58,2.13,2.13,0,0,1-.88.23,1.88,1.88,0,0,1-.9-.2,1.92,1.92,0,0,1-.69-.61,2.58,2.58,0,0,1-.66-1.74V41.12a3.27,3.27,0,0,1,.66-1.88,2.22,2.22,0,0,1,1.59-.67,2.3,2.3,0,0,1,1.58.67,2.33,2.33,0,0,1,.46.88,2.42,2.42,0,0,1,.07,1Z" transform="translate(-4.54 -3.95)"/><path class="cls-2" d="M22.63,36a5.38,5.38,0,0,0-3.43,1.21,5,5,0,0,0-1.59,3.23c0,.13.14.27.27.13h2.51c.26,0,.26-.13.26-.27A2.69,2.69,0,0,1,21.31,39a1.69,1.69,0,0,1,.61-.41,1.6,1.6,0,0,1,.71-.13,2.05,2.05,0,0,1,.88.23,2.11,2.11,0,0,1,.71.58,2.62,2.62,0,0,1,.46.95,2.58,2.58,0,0,1,.07,1.07v.94c0,.13,0,.13-.13.13H22.9a8,8,0,0,0-4.23,1.21,5.28,5.28,0,0,0-1.58,4,4.49,4.49,0,0,0,.26,2,4.58,4.58,0,0,0,1.06,1.67,5.09,5.09,0,0,0,3,.94,3.71,3.71,0,0,0,1.74-.27,3.88,3.88,0,0,0,1.43-1.07h.13v.67c0,.13.13.27.4.27h2.24c.27,0,.4-.14.27-.27V41.12a4.85,4.85,0,0,0-.23-1.89,4.46,4.46,0,0,0-.94-1.65A4.62,4.62,0,0,0,23.16,36Zm2.12,11a2.33,2.33,0,0,1-.15,1.11,2.28,2.28,0,0,1-.64.91,2.63,2.63,0,0,1-1.85.81,2,2,0,0,1-.87-.19,1.94,1.94,0,0,1-.7-.54,2.08,2.08,0,0,1-.4-.8,2.22,2.22,0,0,1,0-.89,2.4,2.4,0,0,1,.2-1,2.23,2.23,0,0,1,.6-.85,2,2,0,0,1,.84-.57,2,2,0,0,1,1-.11h2Z" transform="translate(-4.54 -3.95)"/><path class="cls-2" d="M36.51,36a4.15,4.15,0,0,0-2.78,1.07h-.26V30.64c0-.27-.13-.27-.27-.27H30.83a.27.27,0,0,0-.27.27v21.1L31,52h2.38l.26-.27V51.2c-.13,0,0,0,0-.13h.13a4.36,4.36,0,0,0,1.32.8l1.46.27a4,4,0,0,0,1.73-.32,4.16,4.16,0,0,0,1.44-1,6,6,0,0,0,1.19-3.63V41a5.7,5.7,0,0,0-1.19-3.63,3.67,3.67,0,0,0-1.43-1.07A3.59,3.59,0,0,0,36.51,36ZM38,47.17a2.61,2.61,0,0,1-.66,1.75,2.11,2.11,0,0,1-.71.58,2,2,0,0,1-.88.22,1.74,1.74,0,0,1-.89-.2,1.9,1.9,0,0,1-.69-.6,2.56,2.56,0,0,1-.66-1.75V41.12a3.27,3.27,0,0,1,.66-1.88,2.21,2.21,0,0,1,1.58-.67,2.32,2.32,0,0,1,1.59.67A3.27,3.27,0,0,1,38,41.12Z" transform="translate(-4.54 -3.95)"/><path class="cls-2" d="M53,36.29H50.51l-.26.26L48,47.71h-.13L45.62,36.55c0-.13-.13-.26-.26-.13H42.85c-.27,0-.4,0-.4.27h.13l3.83,15.45h.14a22.24,22.24,0,0,1-.66,2.29,1.65,1.65,0,0,1-.37.57,1.61,1.61,0,0,1-.56.37,3.06,3.06,0,0,1-1.45.4h-.13l-.11,0a.16.16,0,0,0-.08.06.2.2,0,0,0-.06.09.3.3,0,0,0,0,.1v1.88a.13.13,0,0,0,0,.09.12.12,0,0,0,.09,0h.27a10.52,10.52,0,0,0,2.9-.4A3.31,3.31,0,0,0,48,56.17,16,16,0,0,0,49.19,53l4.09-16.53C53.28,36.29,53.15,36.29,53,36.29Z" transform="translate(-4.54 -3.95)"/><path class="cls-2" d="M65.57,36a4.94,4.94,0,0,0-2,.26,5,5,0,0,0-1.78,1.08A4.58,4.58,0,0,0,60.68,39a4.49,4.49,0,0,0-.26,2V47.3a4.55,4.55,0,0,0,.26,2,4.62,4.62,0,0,0,1.06,1.66A5,5,0,0,0,63.52,52a4.79,4.79,0,0,0,2,.27,5.22,5.22,0,0,0,3.7-1.35,4.83,4.83,0,0,0,1.12-1.65,4.78,4.78,0,0,0,.33-2V41a5.24,5.24,0,0,0-1.45-3.63,4.73,4.73,0,0,0-1.71-1.08A4.64,4.64,0,0,0,65.57,36Zm2.25,11.15a2.61,2.61,0,0,1-.66,1.75,2.32,2.32,0,0,1-.71.58,2,2,0,0,1-.88.22,1.81,1.81,0,0,1-.89-.19,1.85,1.85,0,0,1-.69-.61,2.06,2.06,0,0,1-.55-.79,2.25,2.25,0,0,1-.12-1V41.12A2.62,2.62,0,0,1,64,39.24a2.21,2.21,0,0,1,1.58-.67,2.38,2.38,0,0,1,1.59.67,3.27,3.27,0,0,1,.66,1.88Z" transform="translate(-4.54 -3.95)"/><path class="cls-2" d="M79.84,36a4.12,4.12,0,0,0-1.73.32,4,4,0,0,0-1.44,1c0,.13,0,.13-.13.13v-.8l-.27-.27H73.89l-.26.27V51.74a.27.27,0,0,0,.08.19.25.25,0,0,0,.18.08h2.38a.27.27,0,0,0,.27-.27V41.39a3.94,3.94,0,0,1,.66-2,2.25,2.25,0,0,1,1.58-.67,2.1,2.1,0,0,1,1.45.67,3.11,3.11,0,0,1,.53,2.15V51.87c0,.14.14.27.4.27h2.25c.26,0,.39-.13.26-.27V41.12a6.08,6.08,0,0,0-.93-3.76A3.67,3.67,0,0,0,79.84,36Z" transform="translate(-4.54 -3.95)"/><path class="cls-2" d="M95.56,45.56a5.11,5.11,0,0,0-1.45-1.48L92,43l-1.58-.8a2.5,2.5,0,0,1-.93-.67,1.71,1.71,0,0,1-.3-.5,1.41,1.41,0,0,1-.09-.58,2.11,2.11,0,0,1,2.11-1.88,2.09,2.09,0,0,1,.78.12,1.81,1.81,0,0,1,.67.42,1.64,1.64,0,0,1,.46.67,1.7,1.7,0,0,1,.07.81v.13l.4.27h2.11a.27.27,0,0,0,.27-.27,5,5,0,0,0-.33-1.81,4.69,4.69,0,0,0-1-1.55,5.86,5.86,0,0,0-7,0A4.77,4.77,0,0,0,87,43a6.93,6.93,0,0,0,1.32,1.48l2,.94,1.72.81.93.67a2.18,2.18,0,0,1,.39,1.21,1.68,1.68,0,0,1-.16.76,1.65,1.65,0,0,1-.5.58,2.13,2.13,0,0,1-1.45.68,2.4,2.4,0,0,1-1.59-.68,1.73,1.73,0,0,1-.49-.58,1.83,1.83,0,0,1-.17-.76v-.27a.26.26,0,0,0-.07-.19.27.27,0,0,0-.19-.08H86.44a.25.25,0,0,0-.18.08.27.27,0,0,0-.08.19v.27A4.46,4.46,0,0,0,87.5,51.2a6.51,6.51,0,0,0,7.27,0,4.52,4.52,0,0,0,1.07-1.45A4.33,4.33,0,0,0,96.22,48,4.57,4.57,0,0,0,95.56,45.56Z" transform="translate(-4.54 -3.95)"/><path class="cls-2" d="M57.38,30.37h-2c-.27,0-.53.14-.53.41V51.07a.7.7,0,0,0,.19.47.67.67,0,0,0,.47.2h1.72a.64.64,0,0,0,.38-.24.68.68,0,0,0,.15-.43V30.78a.45.45,0,0,0-.12-.29A.36.36,0,0,0,57.38,30.37Z" transform="translate(-4.54 -3.95)"/></svg>