<?xml version="1.0" encoding="utf-8"?>
<!-- Generator: Adobe Illustrator 25.4.1, SVG Export Plug-In . SVG Version: 6.00 Build 0)  -->
<svg version="1.1" id="Слой_1" xmlns="http://www.w3.org/2000/svg" xmlns:xlink="http://www.w3.org/1999/xlink" x="0px" y="0px"
	 viewBox="0 0 153 57.8" style="enable-background:new 0 0 153 57.8;" xml:space="preserve">
<style type="text/css">
	.st0{fill:#FFFFFF;}
	.st1{fill:#545454;}
</style>
<g id="Layer_2">
	<g id="Layer_1-2">
		<path class="st0" d="M66,28.6c-1.1-0.3-2.1-0.8-3-1.4l1.3-2.9c0.8,0.6,1.6,1,2.6,1.3c1,0.3,2,0.5,3,0.5c0.8,0.1,1.7-0.1,2.4-0.5
			c0.5-0.3,0.8-0.8,0.8-1.3c0-0.4-0.2-0.8-0.5-1c-0.4-0.3-0.8-0.5-1.2-0.6c-0.5-0.2-1.1-0.3-2-0.5c-1.1-0.2-2.1-0.5-3.1-0.9
			c-0.8-0.3-1.5-0.8-2.1-1.5c-0.6-0.8-0.9-1.7-0.9-2.7c0-0.9,0.3-1.9,0.8-2.6c0.6-0.8,1.4-1.5,2.4-1.9c1.2-0.5,2.5-0.7,3.9-0.7
			c1.1,0,2.1,0.1,3.1,0.4c0.9,0.2,1.8,0.6,2.7,1.1l-1.2,2.9c-1.4-0.8-3-1.3-4.6-1.3c-0.8-0.1-1.7,0.1-2.4,0.5
			c-0.5,0.3-0.8,0.8-0.8,1.4c0,0.6,0.3,1.1,0.8,1.3c0.9,0.4,1.8,0.6,2.7,0.8c1.1,0.2,2.1,0.5,3.1,0.9c0.8,0.3,1.6,0.8,2.1,1.4
			c0.6,0.8,0.9,1.7,0.8,2.7c0,0.9-0.3,1.8-0.8,2.6c-0.6,0.8-1.4,1.5-2.4,1.9c-1.2,0.5-2.6,0.7-3.9,0.7C68.5,29.2,67.2,29,66,28.6z"
			/>
		<path class="st0" d="M82.4,27.2c-1.4-1.5-2.1-3.6-2-5.6v-9.3h3.9v9.2c0,3,1.2,4.5,3.7,4.5c1,0.1,2-0.3,2.8-1.1
			c0.7-1,1.1-2.2,1-3.4v-9.2h3.8v9.3c0.1,2.1-0.6,4.1-2,5.6c-1.5,1.4-3.5,2.1-5.6,2C85.9,29.3,83.9,28.6,82.4,27.2z"/>
		<path class="st0" d="M110.1,12.9c1,0.4,1.9,1.2,2.5,2.1c0.6,1,0.9,2.1,0.9,3.2c0,1.1-0.3,2.2-0.9,3.2c-0.6,0.9-1.5,1.7-2.5,2.1
			c-1.2,0.5-2.5,0.8-3.8,0.7h-3.4v4.6H99V12.2h7.2C107.5,12.1,108.9,12.4,110.1,12.9z M108.7,20.4c0.6-0.5,1-1.3,0.9-2.1
			c0.1-0.8-0.3-1.6-0.9-2.1c-0.8-0.6-1.7-0.8-2.6-0.8h-3.2v5.8h3.1C106.9,21.2,107.9,20.9,108.7,20.4z"/>
		<path class="st0" d="M127.8,28.9l-3.2-4.6H121v4.6h-3.9V12.2h7.2c1.3,0,2.6,0.2,3.8,0.7c1,0.4,1.9,1.2,2.5,2.1
			c0.6,1,0.9,2.1,0.9,3.2c0.1,2.3-1.3,4.4-3.4,5.3l3.8,5.4H127.8z M126.8,16.1c-0.8-0.6-1.7-0.8-2.6-0.8H121v5.8h3.2
			c0.9,0.1,1.9-0.2,2.6-0.8c0.6-0.5,1-1.3,0.9-2.1C127.8,17.4,127.5,16.6,126.8,16.1L126.8,16.1z"/>
		<path class="st0" d="M147.4,25.3h-7.7l-1.5,3.6h-3.9l7.4-16.7h3.8l7.5,16.7h-4L147.4,25.3z M146.2,22.4l-2.6-6.4l-2.6,6.4H146.2z"
			/>
		<path class="st0" d="M66.2,45.1c-1-0.5-1.8-1.3-2.4-2.2c-1.1-2-1.1-4.4,0-6.4c0.6-1,1.4-1.7,2.4-2.2c2.1-1.1,4.7-1.1,6.8,0
			c3,1.6,4.2,5.3,2.6,8.4c-0.6,1.1-1.5,2-2.6,2.6C70.9,46.2,68.3,46.2,66.2,45.1z M71.6,43.1c0.6-0.3,1-0.8,1.4-1.4
			c0.6-1.3,0.6-2.7,0-4c-0.3-0.6-0.8-1.1-1.4-1.4c-1.2-0.7-2.7-0.7-3.9,0c-0.6,0.3-1,0.8-1.4,1.4c-0.6,1.3-0.6,2.7,0,4
			c0.3,0.6,0.8,1,1.4,1.4C68.9,43.7,70.3,43.7,71.6,43.1z"/>
		<path class="st0" d="M86.9,45.7l-2.3-3.4H82v3.4h-2.8V33.6h5.2c1,0,1.9,0.2,2.8,0.5c0.7,0.3,1.3,0.9,1.8,1.5
			c1.3,1.9,0.8,4.5-1.1,5.8c-0.2,0.2-0.5,0.3-0.7,0.4l2.7,3.9H86.9z M86.2,36.5c-0.6-0.4-1.2-0.6-1.9-0.5H82v4.2h2.3
			c0.7,0,1.4-0.2,1.9-0.6c0.4-0.4,0.7-1,0.6-1.6C86.9,37.4,86.6,36.8,86.2,36.5z"/>
		<path class="st0" d="M101.2,43.1h-5.6l-1.1,2.6h-2.9L97,33.6h2.8l5.4,12.1h-3L101.2,43.1z M100.3,41l-1.9-4.6L96.4,41H100.3z"/>
		<path class="st0" d="M109.2,45.1c-1-0.5-1.8-1.3-2.4-2.2c-1.1-2-1.1-4.5,0-6.5c0.6-0.9,1.4-1.7,2.4-2.2c1.9-1,4.2-1.1,6.2-0.2
			c0.8,0.4,1.6,0.9,2.1,1.6l-1.8,1.7c-0.7-0.9-1.9-1.4-3.1-1.4c-0.7,0-1.4,0.2-2,0.5c-0.6,0.3-1.1,0.8-1.4,1.4c-0.7,1.3-0.7,2.7,0,4
			c0.3,0.6,0.8,1,1.4,1.4c0.6,0.3,1.3,0.5,2,0.5c1.2,0,2.3-0.5,3.1-1.4l1.8,1.7c-0.6,0.7-1.3,1.3-2.2,1.6c-0.9,0.4-1.9,0.6-2.8,0.5
			C111.4,45.9,110.2,45.7,109.2,45.1z"/>
		<path class="st0" d="M120.2,33.6h2.8v9.8h6v2.3h-8.9L120.2,33.6z"/>
		<path class="st0" d="M140.7,43.5v2.2h-9.4V33.6h9.2v2.2h-6.4v2.6h5.6v2.2h-5.6v2.8H140.7z"/>
		<path class="st0" d="M145.1,45.5c-0.8-0.2-1.5-0.5-2.2-1l0.9-2.1c0.6,0.4,1.2,0.7,1.9,0.9c0.7,0.2,1.4,0.3,2.1,0.3
			c0.6,0,1.2-0.1,1.8-0.3c0.4-0.2,0.6-0.6,0.6-1c0-0.3-0.1-0.5-0.3-0.7c-0.3-0.2-0.5-0.4-0.9-0.5c-0.4-0.1-0.8-0.2-1.4-0.4
			c-0.8-0.2-1.5-0.4-2.3-0.7c-0.6-0.2-1.1-0.6-1.5-1.1c-0.4-0.5-0.7-1.2-0.6-1.9c0-0.7,0.2-1.3,0.6-1.9c0.4-0.6,1-1.1,1.7-1.4
			c0.9-0.4,1.8-0.5,2.8-0.5c0.8,0,1.5,0.1,2.3,0.3c0.7,0.2,1.3,0.4,1.9,0.8l-0.9,2.1c-1-0.6-2.2-1-3.4-1c-0.6,0-1.2,0.1-1.7,0.4
			c-0.4,0.2-0.6,0.6-0.6,1c0,0.4,0.3,0.8,0.6,0.9c0.6,0.3,1.3,0.5,2,0.6c0.8,0.2,1.5,0.4,2.3,0.7c0.6,0.2,1.1,0.5,1.5,1
			c0.4,0.5,0.7,1.2,0.6,1.9c0,0.7-0.2,1.3-0.6,1.9c-0.4,0.6-1,1.1-1.7,1.4c-0.9,0.4-1.9,0.5-2.8,0.5C146.9,45.9,146,45.8,145.1,45.5
			z"/>
		<circle class="st0" cx="28.9" cy="28.9" r="28.9"/>
		<path class="st1" d="M45.3,14.8c-0.7-1.7-1.8-3.3-3.2-4.6c-1.4-1.3-3-2.3-4.7-3c-1.2-0.5-2.4-0.8-3.7-0.9c-7.8-1.1-15,4.4-16,12.1
			c-0.3,2.2-0.1,4.4,0.6,6.4v0.1c-1.1,0.7-2,1.4-2.9,2.3c-1.3,1.4-2.4,3-3.1,4.7c-0.7,1.8-1,3.7-1,5.5c0,3.8,1.6,7.4,4.3,10.1
			c1.4,1.3,3,2.3,4.7,3c1.6,0.6,3.3,1,5,1h0.2C33.5,51.7,40,45.4,40,37.5c0-1.5-0.2-3-0.7-4.5c1.1-0.7,2.1-1.5,3-2.4
			c1.3-1.4,2.4-3,3.1-4.8c0.7-1.8,1-3.7,1-5.6C46.4,18.4,46.1,16.5,45.3,14.8z M32.7,14.5c0.5,0.1,1,0.2,1.5,0.4
			c0.7,0.3,1.3,0.7,1.8,1.3c0.5,0.6,0.8,1.2,1.1,1.9c0.2,0.7,0.3,1.4,0.3,2.1c-0.1,1.3-0.6,2.6-1.6,3.5l-3-7.8
			C32.8,15.4,32.7,14.9,32.7,14.5z M36.2,24.8c0.1-0.1,0.2-0.2,0.3-0.3c0.6-0.6,1-1.3,1.3-2.1c0.3-0.8,0.4-1.6,0.4-2.4
			c0-0.8-0.2-1.6-0.5-2.3c-0.3-0.7-0.8-1.3-1.4-1.9c-0.6-0.5-1.2-0.9-1.9-1.2c-0.5-0.2-1.1-0.3-1.6-0.3c0-0.9,0.3-1.8,0.7-2.6
			c0.6,0.1,1.2,0.3,1.8,0.6c1,0.5,1.9,1.1,2.7,1.9c0.7,0.8,1.3,1.8,1.7,2.8c0.4,1,0.5,2.1,0.5,3.1c0,1.1-0.2,2.1-0.7,3.1
			c-0.4,1-1,1.8-1.8,2.5c-0.3,0.2-0.5,0.4-0.8,0.6L36.2,24.8z M37.2,27.5c0.4-0.3,0.8-0.6,1.1-1c1.6-1.8,2.5-4.1,2.5-6.5
			c0-1.2-0.3-2.3-0.8-3.4c-0.5-1.1-1.1-2-2-2.8c-0.8-0.8-1.8-1.4-2.8-1.8c-0.6-0.2-1.2-0.4-1.9-0.4c0.3-0.5,0.6-1,1-1.4
			c0.3-0.3,0.6-0.6,1-0.8c0.3,0.1,0.6,0.2,0.8,0.3c1.3,0.6,2.5,1.4,3.5,2.5c1,1.1,1.8,2.3,2.4,3.7c0.5,1.4,0.8,2.8,0.8,4.2
			c-0.1,1.4-0.4,2.8-0.9,4.1c-0.6,1.3-1.4,2.4-2.4,3.4c-0.5,0.5-1.1,1-1.7,1.4L37.2,27.5z M22.2,48.3c-0.2-0.1-0.5-0.2-0.7-0.3
			c-1.3-0.6-2.5-1.4-3.5-2.5c-1-1.1-1.8-2.3-2.3-3.6c-0.5-1.4-0.8-2.8-0.8-4.2c0.1-1.4,0.4-2.8,0.9-4.2c0.6-1.3,1.4-2.4,2.4-3.4
			c0.5-0.5,1-0.9,1.6-1.3l0.6,1.6c-0.4,0.3-0.7,0.6-1,0.9c-1.6,1.8-2.5,4.1-2.4,6.5c0,1.2,0.3,2.3,0.8,3.4c0.5,1.1,1.1,2,2,2.8
			c0.8,0.8,1.8,1.4,2.8,1.8c0.5,0.2,1.1,0.3,1.7,0.4c-0.3,0.5-0.6,0.9-1,1.3C23,47.8,22.6,48,22.2,48.3L22.2,48.3z M22.6,45.5
			c-1-0.5-1.9-1.1-2.6-1.9c-0.7-0.8-1.3-1.8-1.7-2.8c-0.4-1-0.5-2.1-0.5-3.2c0-1.1,0.2-2.1,0.7-3.1c0.4-1,1-1.8,1.7-2.5
			c0.2-0.2,0.4-0.4,0.7-0.5l0.7,1.8c-0.1,0-0.1,0.1-0.1,0.2c-0.6,0.6-1,1.3-1.3,2.1c-0.3,0.8-0.4,1.6-0.4,2.4c0,0.8,0.2,1.6,0.5,2.3
			c0.4,0.7,0.8,1.3,1.4,1.9c0.6,0.5,1.2,0.9,1.9,1.2c0.5,0.2,1,0.3,1.5,0.3c0,0.9-0.3,1.8-0.7,2.6C23.7,45.9,23.2,45.7,22.6,45.5
			L22.6,45.5z M25,43.4c-0.5-0.1-0.9-0.2-1.4-0.4c-0.7-0.3-1.3-0.7-1.8-1.3c-0.5-0.5-0.8-1.2-1.1-1.9c-0.2-0.7-0.3-1.4-0.3-2.1
			c0.1-1.3,0.6-2.5,1.5-3.4l2.9,7.7C25,42.5,25,42.9,25,43.4z M13.1,42.9c-0.6-1.7-0.9-3.5-0.9-5.2c0.1-1.8,0.5-3.5,1.2-5.2
			c0.7-1.6,1.7-3.1,3-4.3c0.8-0.7,1.6-1.4,2.5-1.9l0.5,1.2c-0.7,0.5-1.4,1-2,1.6c-1.1,1.1-1.9,2.5-2.5,3.9c-0.5,1.5-0.8,3-0.8,4.5
			c0.1,1.5,0.4,3,1,4.5c0.6,1.4,1.5,2.7,2.6,3.7c1.1,1,2.4,1.8,3.8,2.4c0.2,0.1,0.4,0.1,0.6,0.2c-0.9,0.5-1.9,0.9-3,0.9
			c-0.4,0-0.8,0-1.1-0.1c-0.7-0.5-1.3-1.1-1.9-1.7C14.7,46.1,13.7,44.6,13.1,42.9z M44.5,25.4c-0.7,1.6-1.7,3.1-3,4.3
			c-0.8,0.8-1.7,1.5-2.7,2l-0.5-1.2c0.8-0.5,1.5-1.1,2.2-1.8c1.1-1.1,1.9-2.5,2.5-3.9c0.5-1.5,0.8-3,0.8-4.6c-0.1-1.5-0.4-3-1-4.5
			c-1.3-2.8-3.5-5-6.4-6.1c-0.3-0.1-0.5-0.2-0.8-0.2c1.3-0.8,2.9-1,4.3-0.7c0.7,0.5,1.3,1,1.9,1.7c1.3,1.3,2.3,2.8,2.9,4.6
			c0.6,1.7,0.9,3.4,0.9,5.2C45.6,22,45.2,23.7,44.5,25.4z"/>
	</g>
</g>
</svg>
