<?xml version="1.0" encoding="utf-8"?>
<!-- Generator: Adobe Illustrator 25.4.1, SVG Export Plug-In . SVG Version: 6.00 Build 0)  -->
<svg version="1.1" id="Слой_1" xmlns="http://www.w3.org/2000/svg" xmlns:xlink="http://www.w3.org/1999/xlink" x="0px" y="0px"
	 viewBox="0 0 126 28" style="enable-background:new 0 0 126 28;" xml:space="preserve">
<style type="text/css">
	.st0{fill:#FFFFFF;}
</style>
<g>
	<g>
		<path class="st0" d="M7.7,18.1c0,0,0.1,0,0.1,0l5.4,1.5l4.3,1.2c0.3-0.8,0.3-1.6-0.2-2.4c-0.5-0.8-1.2-1.3-2.2-1.6l-6.2-1.7
			C8,14.9,7.2,14.5,6.5,14c-0.7-0.6-1.3-1.2-1.8-1.9C4.2,11.3,4,10.6,3.9,9.8C3.8,8.9,3.9,8.1,4.3,7.3c0.3-0.8,0.8-1.5,1.5-2.1
			c0.7-0.6,1.5-1.1,2.4-1.4C9.1,3.4,10,3.2,11,3.1c1,0,2,0.1,3,0.3l3.6,1l0,0l7,1.9C25,5.6,24.9,4.8,24.5,4
			c-0.4-0.7-1.1-1.2-1.9-1.5l0,0l-0.1,0l-7.1-2c-1.5-0.4-3-0.6-4.5-0.5C9.9,0.1,9,0.2,8.2,0.4C7.6,0.6,7,0.8,6.5,1
			C5.2,1.5,4,2.2,2.9,3.2c-1,0.9-1.8,2-2.3,3.2C0.1,7.5-0.1,8.7,0.1,10c0.1,1.2,0.5,2.2,1,3.2c0,0.1,0.1,0.2,0.1,0.3
			c0.6,1.1,1.5,2,2.7,2.9C5,17.1,6.2,17.7,7.7,18.1L7.7,18.1z"/>
		<path class="st0" d="M26.6,18c-0.1-1.2-0.5-2.2-1-3.2c0-0.1-0.1-0.2-0.1-0.3c-0.6-1.1-1.5-2-2.7-2.9c-1.1-0.8-2.4-1.4-3.8-1.8
			c0,0-0.1,0-0.1,0l-5.4-1.5L9.2,7.1C8.8,7.9,8.9,8.7,9.3,9.5c0.5,0.8,1.2,1.3,2.2,1.6l6.2,1.7c0.9,0.3,1.8,0.7,2.5,1.2
			c0.7,0.6,1.3,1.2,1.8,1.9c0.4,0.7,0.7,1.5,0.8,2.3c0.1,0.8-0.1,1.6-0.4,2.4c-0.3,0.8-0.8,1.5-1.5,2.1c-0.7,0.6-1.5,1.1-2.4,1.4
			c-0.9,0.4-1.9,0.6-2.9,0.6c-1,0-2-0.1-3-0.3l-3.6-1l0,0l-7-1.9c-0.3,0.8-0.3,1.6,0.2,2.4c0.4,0.7,1.1,1.2,1.9,1.5l0,0l0.1,0l7.1,2
			c1.5,0.4,3,0.6,4.5,0.5c0.9-0.1,1.7-0.2,2.6-0.4c0.6-0.1,1.2-0.3,1.7-0.5c1.3-0.5,2.5-1.3,3.5-2.2c1-0.9,1.8-2,2.3-3.2
			C26.5,20.5,26.7,19.3,26.6,18L26.6,18z"/>
		<path class="st0" d="M41.1,22.7h-0.2c-1.4,0-2.7-0.4-3.7-1.2c-1-0.8-1.5-1.8-1.5-3v-5.1h4.4c1.4,0,2.7-0.3,3.7-0.9
			c1-0.6,1.5-1.3,1.5-2.1h-9.6V7.3c0-0.8-0.4-1.5-1.1-2.1C33.9,4.6,33,4.3,32,4.3v6.2c-1.6,0.3-2.8,0.9-3.4,1.8
			c-0.2,0.3-0.3,0.7-0.3,1H32v5.3c0,2.3,1.2,4.2,3.6,5.7c1.5,1,3.3,1.4,5.3,1.4h4.4c0-0.3-0.1-0.6-0.2-0.9
			C44.3,23.5,43,22.7,41.1,22.7L41.1,22.7z"/>
		<path class="st0" d="M60.1,11.9L60.1,11.9c-0.6-0.4-1.3-0.7-2-0.9c-0.3-0.1-0.6-0.2-1-0.3c-0.3-0.1-0.6-0.1-1.1-0.2
			c-0.3,0-0.7-0.1-1-0.1h-0.5c-2.6,0-4.9,0.7-6.8,2.3c-1.9,1.5-2.8,3.3-2.8,5.5c0,1.7,0.6,3.2,1.8,4.5c2,2.1,4.6,3.2,7.7,3.2h5.6
			c0-0.5-0.1-0.9-0.3-1.3c-0.8-1.3-2-1.9-3.6-1.9h-1.6c-1.6,0-2.9-0.4-4-1.3c-1.1-0.9-1.6-2-1.6-3.2c0-1.3,0.6-2.3,1.6-3.2
			c1.1-0.9,2.4-1.3,4-1.3c1.6,0,2.9,0.4,4,1.3c1.1,0.9,1.7,1.9,1.7,3.2v4.5c0,0.5,0.1,1,0.4,1.5c0.8,1.2,2,1.7,3.5,1.7v-7.7
			c0-2.1-0.9-4-2.8-5.5C60.9,12.4,60.5,12.1,60.1,11.9L60.1,11.9z M70.5,12.1c-0.2-0.3-0.4-0.6-0.7-0.8c-0.8-0.6-1.7-0.9-2.8-0.9
			v15.5c1.5,0,2.7-0.6,3.5-1.7c0.3-0.4,0.4-0.9,0.4-1.5v-4.5c0-1.3,0.6-2.3,1.7-3.2c1.1-0.9,2.4-1.3,4-1.3h0.9c1.1,0,2-0.3,2.8-0.9
			c0.4-0.4,0.7-0.8,1-1.3c0.1-0.3,0.2-0.7,0.2-1h-4.9C74.2,10.4,72.2,11,70.5,12.1L70.5,12.1z M94.2,13.4c1.4,0,2.7-0.3,3.7-0.9
			c1-0.6,1.5-1.3,1.5-2.1h-9.6V7.3c0-0.8-0.4-1.5-1.1-2.1c-0.7-0.6-1.6-0.9-2.6-0.9v6.2c-1.6,0.3-2.8,0.9-3.4,1.8
			c-0.2,0.3-0.3,0.7-0.3,1h3.8v5.3c0,2.3,1.2,4.2,3.6,5.7c1.5,1,3.3,1.4,5.3,1.4h4.4c0-0.3-0.1-0.6-0.2-0.9c-0.8-1.5-2.1-2.3-4-2.3
			H95c-1.4,0-2.7-0.4-3.7-1.2c-1-0.8-1.5-1.8-1.5-3v-5.1H94.2L94.2,13.4z M107.1,5.4c-1.2,1.4-1.9,2.9-1.9,4.7v0.3
			c-2.1,0.3-3.6,1-4.4,2.1c-0.2,0.4-0.4,0.8-0.4,1.2h4.7v12.3c1.1,0,2.1-0.3,2.9-1c0.8-0.6,1.2-1.4,1.2-2.3v-9h4.3
			c1.6,0,3-0.3,4.1-1c1.1-0.6,1.7-1.4,1.7-2.3h-10.1v-0.2c0-1.3,0.6-2.4,1.7-3.3c1.1-0.9,2.5-1.4,4.1-1.4h1.8c1.1,0,2.1-0.3,2.9-1
			c0.8-0.6,1.2-1.4,1.2-2.3h-5.9C111.8,2.1,109.2,3.2,107.1,5.4L107.1,5.4z M121.7,13.6v12.3c1.1,0,2-0.3,2.8-0.9
			c0.8-0.6,1.2-1.4,1.2-2.3V10.4c-1.1,0-2,0.3-2.8,0.9C122.1,11.9,121.7,12.7,121.7,13.6L121.7,13.6z M122.9,5.3
			c-0.8,0.6-1.2,1.4-1.2,2.3v1.1c1.1,0,2-0.3,2.8-0.9c0.8-0.6,1.2-1.4,1.2-2.3V4.3C124.6,4.3,123.7,4.6,122.9,5.3L122.9,5.3z"/>
	</g>
</g>
</svg>
