<?xml version="1.0" encoding="UTF-8"?>
<!DOCTYPE svg PUBLIC "-//W3C//DTD SVG 1.1//EN" "http://www.w3.org/Graphics/SVG/1.1/DTD/svg11.dtd">
<!-- Creator: CorelDRAW 2018 (64-Bit) -->
<svg xmlns="http://www.w3.org/2000/svg" xml:space="preserve" width="65mm" height="30mm" version="1.1" style="shape-rendering:geometricPrecision; text-rendering:geometricPrecision; image-rendering:optimizeQuality; fill-rule:evenodd; clip-rule:evenodd"
viewBox="0 0 6500 3000"
 xmlns:xlink="http://www.w3.org/1999/xlink">
 <defs>
  <style type="text/css">
   <![CDATA[
    .fil0 {fill:white}
   ]]>
  </style>
 </defs>
 <g id="Слой_x0020_1">
  <metadata id="CorelCorpID_0Corel-Layer"/>
  <g id="_2796243645280">
   <polygon class="fil0" points="831.05,245.29 67.24,1205.37 241.37,1205.37 1005.89,245.33 "/>
   <polygon class="fil0" points="1607.55,245.33 838.32,1205.57 1012.63,1205.57 1611.83,457.75 1611.83,1205.37 1748.35,1205.33 1748.3,245.39 "/>
   <path class="fil0" d="M4134.28 381.8c44.12,0 84.27,18.1 113.41,47.24 29.13,29.14 47.24,69.3 47.24,113.4 0,44.1 -18.11,84.25 -47.25,113.4 -29.15,29.15 -69.29,47.25 -113.39,47.25l-210.84 0 410.17 502.4 176.78 -0.11 -306.57 -374.05c53.97,-13.05 102.29,-40.91 140.36,-78.97 53.83,-53.83 87.25,-128.14 87.25,-209.93 0,-81.76 -33.41,-156.08 -87.23,-209.91 -53.83,-53.82 -128.13,-87.24 -209.93,-87.24l-970.47 0.01 117.18 136.51 853.29 0z"/>
   <path class="fil0" d="M4811.85 714.55c53.34,47.91 126.71,77.73 207.11,78.08 199.29,0.89 500.44,1.53 699.76,1.53 45.58,0 86.64,16.4 116.04,42.8 27.51,24.72 44.6,58.21 44.6,94.52 0,36.3 -17.08,69.81 -44.58,94.51 -29.39,26.4 -70.46,42.8 -116.06,42.8l-979.93 0 119.8 136.51 860.13 0c80.28,0 153.68,-29.88 207.24,-77.99 55.48,-49.82 89.91,-119.12 89.91,-195.84 0,-76.71 -34.45,-146.01 -89.93,-195.82 -53.57,-48.13 -126.98,-78.01 -207.22,-78.01 -199.27,0 -500,-0.1 -699.22,-0.98 -45.57,-0.2 -86.8,-16.79 -116.45,-43.43 -27.43,-24.63 -44.47,-57.97 -44.47,-94.16 0,-36.32 17.09,-69.82 44.6,-94.53 29.38,-26.38 70.44,-42.78 116.05,-42.78l942.03 0c0,0 -115.07,-136.51 -115.07,-136.51l-826.96 0c-80.28,0 -153.68,29.87 -207.25,77.98 -55.47,49.81 -89.91,119.13 -89.91,195.85 0,76.65 34.39,145.73 89.78,195.47z"/>
   <path class="fil0" d="M2921.33 1850.5c-86.97,-86.97 -206.99,-140.95 -339.06,-140.95l-685.92 0 -113.07 136.51 798.99 0c94.4,0 180.27,38.67 242.55,100.96 62.28,62.28 100.95,148.14 100.95,242.54 0,94.39 -38.67,180.26 -100.95,242.54 -62.28,62.28 -148.15,100.95 -242.55,100.95l-685.92 0 -108.36 136.51 794.28 0c132.07,0 252.09,-53.99 339.06,-140.95 86.97,-86.95 140.95,-206.98 140.95,-339.05 0,-132.07 -53.98,-252.09 -140.95,-339.06z"/>
   <path class="fil0" d="M2798.98 1068.83l-584.29 0 523.28 -665.73c218.48,278.14 411.65,524.25 630.22,802.32l173.05 -0.03c-236.45,-300.8 -517.52,-659.18 -753.87,-960.05l-98.8 -0.03 -746.3 960.03 960.67 0 -103.96 -136.51z"/>
   <path class="fil0" d="M3907.03 1709.61l-98.8 0.03c-236.35,300.88 -517.42,659.25 -753.86,960.05l173.04 0.03c218.58,-278.07 411.74,-524.18 630.23,-802.32l523.28 665.73 -584.3 0 0 0 -103.95 136.51 960.67 0 -746.31 -960.03z"/>
   <path class="fil0" d="M6352.13 1352.46c-34.54,-34.54 -82.29,-55.92 -135,-55.92 -52.71,0 -100.46,21.38 -135,55.92 -34.54,34.53 -55.92,82.29 -55.92,135 0,52.7 21.38,100.46 55.92,134.99 34.54,34.54 82.29,55.92 135,55.92 52.71,0 100.46,-21.38 135,-55.92 34.53,-34.53 55.91,-82.29 55.91,-134.99 0,-52.72 -21.38,-100.47 -55.91,-135zm-78.77 191.23c-14.38,14.38 -34.27,23.28 -56.23,23.28 -21.96,0 -41.85,-8.9 -56.24,-23.28 -14.38,-14.39 -23.28,-34.28 -23.28,-56.24 0,-21.96 8.9,-41.84 23.28,-56.23 14.39,-14.38 34.28,-23.29 56.24,-23.29 21.96,0 41.85,8.9 56.23,23.29 14.38,14.39 23.29,34.27 23.29,56.23 0,21.97 -8.9,41.85 -23.29,56.24z"/>
   <path class="fil0" d="M5936.92 1696.04c-127.67,-127.66 -304.07,-206.65 -498.9,-206.65 -194.83,0 -371.22,78.98 -498.89,206.66 -127.68,127.67 -206.65,304.06 -206.65,498.89 0,194.81 78.98,371.23 206.65,498.89 127.67,127.67 304.08,206.65 498.89,206.65 194.83,0 371.22,-78.98 498.89,-206.65 107.51,-107.5 179.82,-249.76 200.2,-408.27l6.46 -6.87c-1.47,-1.39 -3.21,-2.99 -4.74,-4.43 2.92,-26.07 4.74,-52.47 4.74,-79.32 0,-194.83 -78.99,-371.24 -206.65,-498.9zm-1054.14 675.64c108.1,38.18 225.9,32.77 344.86,4.03 139.2,-33.62 278.81,-97.99 404.89,-157.48 114.19,-53.89 210.47,-44.81 287.23,-13.64 36.53,14.83 68.89,34.82 97.11,55.54 -5.44,48.76 -17.25,95.49 -33.96,139.86 -45.46,-22.76 -99.07,-41.57 -156.67,-49.75 -81.62,-11.58 -171.26,-2.31 -256.59,45.86 -102.93,58.11 -247.78,118.1 -393.64,131.36 -80.64,7.32 -161.49,0.03 -235.32,-30 -23.91,-39.22 -43.73,-81.19 -57.91,-125.78zm1062.58 -230.29c-91.99,-37.37 -206.84,-48.5 -341.9,15.23 -123.18,58.13 -259.42,120.97 -391.83,152.96 -122.92,29.69 -243.25,32.4 -347.93,-19.85 -5.07,-30.92 -8.39,-62.44 -8.39,-94.79 0,-17.46 1.11,-34.65 2.62,-51.72 329.44,109.21 495.85,20.8 644.93,-59.21 137.53,-73.82 259.57,-138.52 507.85,5.39 5.4,29.48 8.48,59.73 9.27,90.58 -22.79,-14.21 -47.49,-27.58 -74.62,-38.59zm40.8 -142.61c-241.93,-120.9 -371.17,-52.27 -515.56,25.23 -138.47,74.32 -293.15,156.62 -602.78,50.88 10.5,-50.11 27.83,-97.62 50.3,-142.09 297.7,32.85 439.06,-9.63 561.76,-46.66 119.21,-35.98 220,-66.33 447.88,-6.25 23.82,36.97 43.34,76.83 58.4,118.89zm-125.63 -204.37c-188.51,-37.25 -286.68,-7.83 -400.11,26.4 -112.42,33.93 -241.56,72.55 -504.87,47.36 20.78,-30.62 44.35,-59.2 70.43,-85.27 20.28,-20.29 42.47,-38.56 65.56,-55.69 311.57,75.27 480.05,-5.53 591.89,-60.24 62.19,28.96 118.72,68.01 166.64,115.92 3.67,3.67 6.89,7.75 10.46,11.52zm-266.95 -160.54c-91.69,39.66 -220,75.85 -417.7,41.16 78.87,-39.85 167.74,-62.8 262.14,-62.8 53.96,-0.01 105.97,7.91 155.56,21.64zm-341.97 1112.77c194.08,-89.26 332.98,-69.52 459.48,-37.07 -81.48,43.32 -174.35,68.07 -273.07,68.07 -65.27,0 -127.81,-11.2 -186.41,-31zm598.45 -139.66c-19.17,19.17 -40.09,36.49 -61.77,52.86 -1.06,-0.3 -2.11,-0.57 -3.17,-0.86 -165.77,-45.68 -341.58,-94.04 -615.98,52.61 -52.95,-27.62 -101.32,-62.78 -143.16,-104.61 -6.03,-6.03 -11.44,-12.64 -17.2,-18.93 56.75,10.78 115.22,12.41 173.37,7.13 156.81,-14.24 311.38,-78.09 420.83,-139.89 70.47,-39.77 145.35,-47.32 213.92,-37.58 51.43,7.3 98.85,24.26 138.55,44.51 -27.73,53.57 -63.14,102.51 -105.39,144.76z"/>
  </g>
 </g>
</svg>
