<?xml version="1.0" encoding="utf-8"?>
<!-- Generator: Adobe Illustrator 25.4.1, SVG Export Plug-In . SVG Version: 6.00 Build 0)  -->
<svg version="1.1" id="Слой_1" xmlns="http://www.w3.org/2000/svg" xmlns:xlink="http://www.w3.org/1999/xlink" x="0px" y="0px"
	 viewBox="0 0 183 69" style="enable-background:new 0 0 183 69;" xml:space="preserve">
<style type="text/css">
	.st0{fill:#FFFFFF;}
	.st1{fill:url(#SVGID_1_);}
	.st2{fill:#FFFFFF;stroke:#FFFFFF;stroke-width:0.1028;}
</style>
<path class="st0" d="M99.8,23.4l0,19l-3.3,0l0-7.9l-8.9,0l0,7.9l-3.3,0l0-19l3.3,0l0,8l8.9,0l0-8L99.8,23.4z"/>
<path class="st0" d="M108.6,42.6c-1.4,0-2.6-0.3-3.7-0.9c-1.1-0.6-2-1.5-2.6-2.5c-0.6-1.1-0.9-2.3-0.9-3.6c0-1.3,0.3-2.5,0.9-3.5
	c0.6-1.1,1.5-1.9,2.6-2.6c1.1-0.6,2.4-0.9,3.7-0.9c1.4,0,2.6,0.3,3.7,0.9c1.1,0.6,2,1.5,2.6,2.6c0.6,1.1,0.9,2.2,0.9,3.5
	c0,1.3-0.3,2.5-0.9,3.6c-0.6,1.1-1.5,1.9-2.6,2.5C111.2,42.3,110,42.6,108.6,42.6z M108.6,39.5c0.7,0,1.4-0.2,2-0.5
	c0.6-0.4,1.1-0.8,1.4-1.4c0.3-0.6,0.5-1.3,0.5-2c0-0.7-0.2-1.4-0.5-2c-0.3-0.6-0.8-1.1-1.4-1.4c-0.6-0.4-1.3-0.5-2-0.5
	c-0.7,0-1.4,0.2-2.1,0.5c-0.6,0.4-1.1,0.8-1.4,1.4c-0.3,0.6-0.5,1.2-0.5,2c0,0.7,0.2,1.4,0.5,2c0.3,0.6,0.8,1.1,1.4,1.4
	C107.2,39.4,107.8,39.5,108.6,39.5z"/>
<path class="st0" d="M120.6,42.4l-3.3,0l0.1-20l3.3,0L120.6,42.4z"/>
<path class="st0" d="M129.7,42.7c-1.4,0-2.6-0.3-3.7-0.9c-1.1-0.6-2-1.5-2.6-2.5c-0.6-1.1-0.9-2.3-0.9-3.6c0-1.3,0.3-2.5,0.9-3.5
	c0.6-1.1,1.5-1.9,2.6-2.6c1.1-0.6,2.4-0.9,3.7-0.9c1.4,0,2.6,0.3,3.7,0.9c1.1,0.6,2,1.5,2.6,2.6c0.6,1.1,0.9,2.2,0.9,3.5
	c0,1.3-0.3,2.5-0.9,3.6c-0.6,1.1-1.5,1.9-2.6,2.5C132.3,42.4,131,42.7,129.7,42.7z M129.7,39.6c0.7,0,1.4-0.2,2-0.5
	c0.6-0.4,1.1-0.8,1.4-1.4c0.3-0.6,0.5-1.3,0.5-2c0-0.7-0.2-1.4-0.5-2c-0.3-0.6-0.8-1.1-1.4-1.4c-0.6-0.4-1.3-0.5-2-0.5
	c-0.7,0-1.4,0.2-2.1,0.5c-0.6,0.4-1.1,0.8-1.4,1.4c-0.3,0.6-0.5,1.2-0.5,2c0,0.7,0.2,1.4,0.5,2c0.3,0.6,0.8,1.1,1.4,1.4
	C128.2,39.4,128.9,39.6,129.7,39.6z"/>
<path class="st0" d="M141.6,42.4l-3.3,0l0-20l3.3,0L141.6,42.4z"/>
<path class="st0" d="M150.7,42.7c-1.4,0-2.6-0.3-3.7-0.9c-1.1-0.6-2-1.5-2.6-2.5c-0.6-1.1-0.9-2.3-0.9-3.6c0-1.3,0.3-2.5,0.9-3.5
	c0.6-1.1,1.5-1.9,2.6-2.6c1.1-0.6,2.4-0.9,3.7-0.9c1.4,0,2.6,0.3,3.7,0.9c1.1,0.6,2,1.5,2.6,2.6c0.6,1.1,0.9,2.2,0.9,3.5
	c0,1.3-0.3,2.5-0.9,3.6c-0.6,1.1-1.5,1.9-2.6,2.5C153.3,42.4,152.1,42.7,150.7,42.7z M150.7,39.6c0.7,0,1.4-0.2,2-0.5
	c0.6-0.4,1.1-0.8,1.4-1.4c0.3-0.6,0.5-1.3,0.5-2c0-0.7-0.2-1.4-0.5-2c-0.3-0.6-0.8-1.1-1.4-1.4c-0.6-0.4-1.3-0.5-2-0.5
	c-0.7,0-1.4,0.2-2.1,0.5c-0.6,0.4-1.1,0.8-1.4,1.4c-0.3,0.6-0.5,1.2-0.5,2c0,0.7,0.2,1.4,0.5,2c0.3,0.6,0.8,1.1,1.4,1.4
	C149.3,39.5,150,39.6,150.7,39.6z"/>
<path class="st0" d="M166.3,42.8c-1.4,0-2.6-0.3-3.7-0.9c-1.1-0.6-2-1.5-2.6-2.5c-0.6-1.1-0.9-2.3-0.9-3.6c0-1.3,0.3-2.5,0.9-3.5
	c0.6-1.1,1.5-1.9,2.6-2.6c1.1-0.6,2.4-0.9,3.7-0.9c1.4,0,2.6,0.3,3.7,0.9c1.1,0.6,2,1.5,2.6,2.6c0.6,1.1,0.9,2.2,0.9,3.5
	c0,1.3-0.3,2.5-0.9,3.6c-0.6,1.1-1.5,1.9-2.6,2.5C168.9,42.5,167.6,42.8,166.3,42.8z M166.3,39.7c0.7,0,1.4-0.2,2-0.5
	c0.6-0.4,1.1-0.8,1.4-1.4c0.3-0.6,0.5-1.3,0.5-2c0-0.7-0.2-1.4-0.5-2c-0.3-0.6-0.8-1.1-1.4-1.4c-0.6-0.4-1.3-0.5-2-0.5
	c-0.7,0-1.4,0.2-2.1,0.5c-0.6,0.4-1.1,0.8-1.4,1.4c-0.3,0.6-0.5,1.2-0.5,2c0,0.7,0.2,1.4,0.5,2c0.3,0.6,0.8,1.1,1.4,1.4
	C164.8,39.5,165.5,39.7,166.3,39.7z"/>
<path class="st0" d="M182.8,32.1l-3,0l0,10.4l-3.3,0l0-10.4l-2.1,0l0-3.1l2.1,0l0-4l3.3,0l0,4l3,0L182.8,32.1z"/>
<radialGradient id="SVGID_1_" cx="-1366.6699" cy="1492.2078" r="1" gradientTransform="matrix(34.1541 8.397954e-02 8.397954e-02 -34.1541 46586.8281 51114.0469)" gradientUnits="userSpaceOnUse">
	<stop  offset="0.5104" style="stop-color:#7C7C7C"/>
	<stop  offset="1" style="stop-color:#FFFFFF;stop-opacity:0"/>
</radialGradient>
<path class="st1" d="M34.7,68.4c18.9,0,34.2-15.2,34.2-34.1S53.7,0.2,34.9,0.1C16,0.1,0.7,15.3,0.6,34.2S15.8,68.4,34.7,68.4z"/>
<path class="st2" d="M34.7,33.1L34.7,33.1L47.5,2.6l0,0l0,0l-1.5-0.6l0,0l0,0L34.7,33.1z"/>
<path class="st2" d="M34.7,33.1L34.7,33.1L56.5,7.9l0,0l0,0l-1.4-1.1l0,0l0,0L34.7,33.1z"/>
<path class="st2" d="M34.7,33.1L34.7,33.1L52.2,4.9l0,0l0,0L50.8,4l0,0l0,0L34.7,33.1z"/>
<path class="st2" d="M34.7,33.2L34.7,33.2L14.5,6.6l0,0l0,0l-1.2,1.1l0,0l0,0L34.7,33.2z"/>
<path class="st2" d="M34.7,33.2L34.7,33.2L23.8,1.9l0,0l0,0l-1.5,0.6l0,0l0,0L34.7,33.2z"/>
<path class="st2" d="M34.7,33.2L34.7,33.2L19,4l0,0l0,0l-1.4,0.8l0,0l0,0L34.7,33.2z"/>
<path class="st2" d="M34.8,33.2l0-0.1l-34,4.5l-0.1,0l0,0.1l0.2,1.7l0,0.1l0.1,0L34.8,33.2z"/>
<path class="st2" d="M34.8,33.2l0-0.1L1.5,26.9l0,0l0,0L1,28.5l0,0.1l0.1,0L34.8,33.2z"/>
<path class="st2" d="M34.8,33.2l0-0.1L0.7,31.9l-0.1,0l0,0.1l-0.1,1.9l0,0.1l0.1,0L34.8,33.2z"/>
<path class="st2" d="M34.8,33.2L34.8,33.2L21.3,65.6l0,0l0,0l1.6,0.6l0,0l0-0.1L34.8,33.2z"/>
<path class="st2" d="M34.8,33.2L34.8,33.2L12,59.7l0,0l0,0l1.3,1.1l0,0l0,0L34.8,33.2z"/>
<path class="st2" d="M34.8,33.2L34.8,33.2L16.4,63l0,0l0,0l1.5,0.9l0,0l0,0L34.8,33.2z"/>
<path class="st2" d="M34.8,33.1L34.8,33.1L56,61l0,0l0,0l1.3-1.1l0,0l0,0L34.8,33.1z"/>
<path class="st2" d="M34.8,33.1L34.8,33.1l11.6,33.2l0,0.1l0,0l1.6-0.6l0,0l0,0L34.8,33.1z"/>
<path class="st2" d="M34.8,33.1L34.8,33.1l16.7,30.9l0,0l0,0l1.5-0.9l0,0l0,0L34.8,33.1z"/>
<path class="st2" d="M34.8,33.1l0,0.1l33.7-4.4l0.1,0l0-0.1l-0.3-1.6l0-0.1l-0.1,0L34.8,33.1z"/>
<path class="st2" d="M34.8,33.1l0,0.1l33.8,6.3l0.1,0l0-0.1l0.2-1.7l0-0.1l-0.1,0L34.8,33.1z"/>
<path class="st2" d="M34.8,33.1l0,0.1l34.2,1.2l0.1,0l0-0.1l0-1.9l0-0.1l-0.1,0L34.8,33.1z"/>
</svg>
