<svg width="33" height="32" viewBox="0 0 33 32" fill="none" xmlns="http://www.w3.org/2000/svg">
<path d="M32.0205 19.8721C29.8848 28.4429 21.2014 33.6593 12.6281 31.5204C4.05474 29.3815 -1.1593 20.7024 0.979792 12.1308C3.11888 3.55917 11.798 -1.65969 20.3694 0.479565C28.9407 2.61882 34.1596 11.2984 32.0205 19.8721Z" fill="#393939"/>
<path fill-rule="evenodd" clip-rule="evenodd" d="M16.8109 11.0657L13.1392 14.6817L11.0027 12.5776L16.8109 6.85715L22.621 12.5795L20.4845 14.6836L16.8109 11.0657ZM11.6303 16.1671L9.49387 14.0631L7.35742 16.1672L9.49387 18.2714L11.6303 16.1671ZM16.8109 21.2692L13.1392 17.6532L10.9996 19.7546L11.0025 19.7575L16.8109 25.4778L22.621 19.7556L22.622 19.7544L20.4844 17.6515L16.8109 21.2692ZM24.1281 18.2722L26.2644 16.1681L24.128 14.064L21.9915 16.1683L24.1281 18.2722ZM18.9781 16.1662H18.9789L16.811 14.031L14.645 16.1703L16.811 18.3035L18.9789 16.1684L18.98 16.1672L18.9781 16.1662Z" fill="#F4BB2B"/>
</svg>
