<svg width="20" height="20" viewBox="0 0 20 20" fill="none" xmlns="http://www.w3.org/2000/svg">
  <path d="M19.4531 6.33594H0.742188V8.67969H2.94922V15.4375L5.37109 14.3047V9.5L5.9375 8.67969H14.082L14.6484 9.5V14.3047L17.0703 15.4375V8.67969H19.4531V6.33594Z" fill="#0A42EA"/>
  <path d="M17.4707 17.2344C16.6465 17.2344 15.6828 16.5027 15.382 16.2219L14.9805 15.8438L14.5789 16.2219C14.2797 16.5035 13.3203 17.2344 12.4902 17.2344C11.666 17.2344 10.7023 16.5027 10.4016 16.2219L10 15.8438L9.59844 16.2219C9.29922 16.5035 8.34062 17.2344 7.50977 17.2344C6.68555 17.2344 5.72187 16.5027 5.42109 16.2219L5.01953 15.8438L4.61797 16.2219C4.31875 16.5035 3.35938 17.2344 2.5293 17.2344C1.92656 17.2344 1.19375 16.8438 0.708984 16.475L0 17.4094C0.397656 17.709 1.43633 18.4063 2.5293 18.4063C3.53398 18.4063 4.49727 17.8023 5.01953 17.4074C5.5418 17.8023 6.50391 18.4063 7.50977 18.4063C8.51562 18.4063 9.47773 17.8023 10 17.4074C10.5223 17.8023 11.4844 18.4063 12.4902 18.4063C13.4961 18.4063 14.4582 17.8023 14.9805 17.4074C15.5027 17.8023 16.4648 18.4063 17.4707 18.4063C18.5645 18.4063 19.6008 17.7098 19.9965 17.4105L19.2895 16.4762C18.8051 16.8438 18.073 17.2344 17.4707 17.2344Z" fill="#F4F4F4"/>
  <path d="M0 3.17188H2.38281V5.51562H0V9.03125H1.79688C1.95228 9.03125 2.10131 9.09298 2.2112 9.20287C2.32108 9.31275 2.38281 9.46179 2.38281 9.61719V14.8832C1.81133 14.8281 1.15547 14.4691 0.708984 14.1313L0 15.0656C0.397656 15.3652 1.43633 16.0625 2.5293 16.0625C3.53398 16.0625 4.49727 15.4586 5.01953 15.0637C5.5418 15.4586 6.50391 16.0625 7.50977 16.0625C8.51562 16.0625 9.47773 15.4586 10 15.0637C10.5223 15.4586 11.4844 16.0625 12.4902 16.0625C13.4961 16.0625 14.4582 15.4586 14.9805 15.0637C15.5027 15.4586 16.4648 16.0625 17.4707 16.0625C18.5645 16.0625 19.6008 15.366 19.9965 15.0668L19.2895 14.1324C18.8434 14.4695 18.1883 14.8281 17.6172 14.8832V9.61719C17.6172 9.46179 17.6789 9.31275 17.7888 9.20287C17.8987 9.09298 18.0477 9.03125 18.2031 9.03125H20V5.51562H17.6172V3.17188H20V2H0V3.17188ZM3.55469 3.17188H5.89844V5.51562H3.55469V3.17188ZM10.5859 5.51562V3.17188H12.9297V5.51562H10.5859ZM9.41406 5.51562H7.07031V3.17188H9.41406V5.51562ZM10.4016 13.8781L10 13.5L9.59844 13.8781C9.29922 14.1598 8.34062 14.8906 7.50977 14.8906C6.95391 14.8906 6.33516 14.5578 5.89844 14.2551V9.61719C5.89844 9.46179 5.96017 9.31275 6.07006 9.20287C6.17994 9.09298 6.32897 9.03125 6.48438 9.03125H13.5156C13.671 9.03125 13.8201 9.09298 13.9299 9.20287C14.0398 9.31275 14.1016 9.46179 14.1016 9.61719V14.2566C13.6664 14.5594 13.0496 14.8906 12.4902 14.8906C11.666 14.8906 10.7031 14.159 10.4016 13.8781ZM18.8281 7.85938H18.2031C17.7371 7.85989 17.2903 8.04526 16.9607 8.3748C16.6312 8.70434 16.4458 9.15115 16.4453 9.61719V14.6047C16.0169 14.3862 15.6222 14.107 15.2734 13.7758V9.61719C15.2729 9.15115 15.0876 8.70434 14.758 8.3748C14.4285 8.04526 13.9817 7.85989 13.5156 7.85938H6.48438C6.01833 7.85989 5.57153 8.04526 5.24198 8.3748C4.91244 8.70434 4.72708 9.15115 4.72656 9.61719V13.7758C4.37971 14.1098 3.98468 14.3899 3.55469 14.6066V9.61719C3.55417 9.15115 3.36881 8.70434 3.03927 8.3748C2.70972 8.04526 2.26292 7.85989 1.79688 7.85938H1.17188V6.6875H18.8281V7.85938ZM16.4453 5.51562H14.1016V3.17188H16.4453V5.51562Z" fill="#F4F4F4"/>
</svg>
