<svg width="36" height="36" viewBox="0 0 36 36" fill="none" xmlns="http://www.w3.org/2000/svg">
  <g opacity="0.4" clip-path="url(#clip0_1887_12613)">
    <path d="M7.48181 17.14C7.48178 16.939 7.52145 16.7399 7.59855 16.5543C7.67565 16.3686 7.78866 16.2 7.93109 16.0582C8.07352 15.9163 8.24256 15.804 8.42849 15.7277C8.61443 15.6515 8.81361 15.6127 9.01458 15.6136L11.5557 15.6219C11.9609 15.6219 12.3495 15.7829 12.636 16.0696C12.9225 16.3562 13.0835 16.7449 13.0835 17.1502V26.7627C13.3697 26.6779 13.7369 26.5874 14.1391 26.493C14.4183 26.4273 14.6672 26.2691 14.8453 26.0441C15.0235 25.8192 15.1204 25.5406 15.1205 25.2537V13.3302C15.1205 13.1295 15.16 12.9307 15.2368 12.7452C15.3136 12.5598 15.4261 12.3913 15.568 12.2493C15.7098 12.1074 15.8783 11.9948 16.0637 11.9179C16.249 11.8411 16.4477 11.8015 16.6484 11.8015H19.1946C19.5997 11.8016 19.9883 11.9626 20.2748 12.2492C20.5613 12.5358 20.7222 12.9245 20.7223 13.3298V24.3968C20.7223 24.3968 21.3595 24.1386 21.9807 23.8764C22.2114 23.7788 22.4082 23.6154 22.5466 23.4066C22.6851 23.1979 22.759 22.9529 22.7592 22.7024V9.5088C22.7592 9.30811 22.7987 9.10938 22.8755 8.92396C22.9522 8.73855 23.0647 8.57007 23.2066 8.42815C23.3485 8.28624 23.5169 8.17366 23.7022 8.09686C23.8876 8.02005 24.0862 7.98052 24.2868 7.98052H26.833C27.2382 7.98052 27.6268 8.14153 27.9133 8.42814C28.1999 8.71474 28.3609 9.10347 28.3609 9.5088V20.373C30.5684 18.7726 32.8056 16.8477 34.581 14.5331C34.8386 14.1971 35.0091 13.8026 35.0772 13.3847C35.1453 12.9668 35.1089 12.5386 34.9713 12.1382C33.7701 8.63602 31.5168 5.59053 28.5196 3.41812C25.5223 1.2457 21.9275 0.0524046 18.2266 0.00138771C8.24684 -0.132722 -0.000893989 8.01669 8.63531e-05 18.0012C-0.00971255 21.1606 0.814598 24.2666 2.38967 27.0052C2.60688 27.3797 2.92644 27.6845 3.31081 27.8837C3.69517 28.0829 4.12838 28.1682 4.55953 28.1296C5.04125 28.0872 5.64097 28.0273 6.35393 27.9436C6.66425 27.9082 6.95074 27.76 7.15884 27.527C7.36694 27.294 7.48211 26.9926 7.48242 26.6802V17.14" fill="white"/>
    <path d="M7.4259 32.5564C10.1098 34.5096 13.2816 35.682 16.5902 35.9439C19.8988 36.2057 23.2154 35.5469 26.173 34.0402C29.1306 32.5336 31.6138 30.2379 33.3481 27.407C35.0824 24.5762 36 21.3206 35.9994 18.0004C35.9994 17.586 35.9802 17.1762 35.9525 16.7686C29.3791 26.5754 17.2419 31.1602 7.42578 32.5568" fill="white"/>
  </g>
  <defs>
    <clipPath id="clip0_1887_12613">
      <rect width="36" height="36" fill="white"/>
    </clipPath>
  </defs>
</svg>
