<svg width="33" height="32" viewBox="0 0 33 32" fill="none" xmlns="http://www.w3.org/2000/svg">
<path d="M32.0205 19.8721C29.8848 28.4429 21.2014 33.6593 12.6281 31.5204C4.05474 29.3815 -1.1593 20.7024 0.979792 12.1308C3.11888 3.55917 11.798 -1.65969 20.3694 0.479565C28.9407 2.61882 34.1596 11.2984 32.0205 19.8721Z" fill="#F7931A"/>
<path d="M23.5568 13.7205C23.8749 11.5913 22.2537 10.4467 20.0367 9.68314L20.7568 6.79908L19.0006 6.36163L18.2991 9.16985C17.838 9.05497 17.3641 8.94585 16.893 8.83897L17.597 6.01219L15.8426 5.57474L15.1247 8.45768L11.5835 7.58054L11.1163 9.45594C11.1163 9.45594 12.419 9.7545 12.3915 9.77306C13.1025 9.95067 13.2315 10.4211 13.2097 10.7942L11.2395 18.6952C11.1524 18.9112 10.932 19.235 10.435 19.1112C10.4526 19.1368 9.1588 18.7912 9.1588 18.7912L8.28711 20.8039L11.8232 21.6967L11.0964 24.6143L12.8501 25.0518L13.5701 22.1655C14.0501 22.2954 14.5141 22.4154 14.9688 22.5284L14.2517 25.4012L16.0076 25.8387L16.7343 22.9266C19.7284 23.493 21.98 23.2645 22.9264 20.5586C23.6899 18.3785 22.8889 17.1209 21.3136 16.3004C22.4608 16.0348 23.3248 15.2805 23.5554 13.7216L23.5568 13.7205ZM19.5439 19.3461C18.9999 21.5261 15.3303 20.348 14.1395 20.052L15.1037 16.1871C16.2938 16.4841 20.11 17.0723 19.5446 19.3457L19.5439 19.3461ZM20.0886 13.6896C19.5935 15.6737 16.538 14.6656 15.5463 14.4183L16.4192 10.912C17.4113 11.1597 20.6035 11.6208 20.0873 13.6895" fill="white"/>
</svg>
