<svg width="11" height="13" viewBox="0 0 11 13" fill="none" xmlns="http://www.w3.org/2000/svg">
<path fill-rule="evenodd" clip-rule="evenodd" d="M1.83333 2.65909C1.83333 2.33274 2.10694 2.06818 2.44444 2.06818H8.55556C8.89306 2.06818 9.16667 2.33274 9.16667 2.65909V5.31818C9.16667 5.64453 8.89306 5.90909 8.55556 5.90909H2.44444C2.10694 5.90909 1.83333 5.64453 1.83333 5.31818V2.65909ZM3.05556 3.25V4.72727H7.94444V3.25H3.05556Z" fill="#FFA237"/>
<path d="M3.97222 7.09091C3.97222 7.41726 3.69862 7.68182 3.36111 7.68182C3.0236 7.68182 2.75 7.41726 2.75 7.09091C2.75 6.76456 3.0236 6.5 3.36111 6.5C3.69862 6.5 3.97222 6.76456 3.97222 7.09091Z" fill="#FFA237"/>
<path d="M3.36111 9.45455C3.69862 9.45455 3.97222 9.18999 3.97222 8.86364C3.97222 8.53729 3.69862 8.27273 3.36111 8.27273C3.0236 8.27273 2.75 8.53729 2.75 8.86364C2.75 9.18999 3.0236 9.45455 3.36111 9.45455Z" fill="#FFA237"/>
<path d="M3.97222 10.6364C3.97222 10.9627 3.69862 11.2273 3.36111 11.2273C3.0236 11.2273 2.75 10.9627 2.75 10.6364C2.75 10.31 3.0236 10.0455 3.36111 10.0455C3.69862 10.0455 3.97222 10.31 3.97222 10.6364Z" fill="#FFA237"/>
<path d="M5.5 7.68182C5.83751 7.68182 6.11111 7.41726 6.11111 7.09091C6.11111 6.76456 5.83751 6.5 5.5 6.5C5.16249 6.5 4.88889 6.76456 4.88889 7.09091C4.88889 7.41726 5.16249 7.68182 5.5 7.68182Z" fill="#FFA237"/>
<path d="M6.11111 8.86364C6.11111 9.18999 5.83751 9.45455 5.5 9.45455C5.16249 9.45455 4.88889 9.18999 4.88889 8.86364C4.88889 8.53729 5.16249 8.27273 5.5 8.27273C5.83751 8.27273 6.11111 8.53729 6.11111 8.86364Z" fill="#FFA237"/>
<path d="M5.5 11.2273C5.83751 11.2273 6.11111 10.9627 6.11111 10.6364C6.11111 10.31 5.83751 10.0455 5.5 10.0455C5.16249 10.0455 4.88889 10.31 4.88889 10.6364C4.88889 10.9627 5.16249 11.2273 5.5 11.2273Z" fill="#FFA237"/>
<path d="M8.25 7.09091C8.25 7.41726 7.9764 7.68182 7.63889 7.68182C7.30138 7.68182 7.02778 7.41726 7.02778 7.09091C7.02778 6.76456 7.30138 6.5 7.63889 6.5C7.9764 6.5 8.25 6.76456 8.25 7.09091Z" fill="#FFA237"/>
<path d="M7.63889 9.45455C7.9764 9.45455 8.25 9.18999 8.25 8.86364C8.25 8.53729 7.9764 8.27273 7.63889 8.27273C7.30138 8.27273 7.02778 8.53729 7.02778 8.86364C7.02778 9.18999 7.30138 9.45455 7.63889 9.45455Z" fill="#FFA237"/>
<path d="M8.25 10.6364C8.25 10.9627 7.9764 11.2273 7.63889 11.2273C7.30138 11.2273 7.02778 10.9627 7.02778 10.6364C7.02778 10.31 7.30138 10.0455 7.63889 10.0455C7.9764 10.0455 8.25 10.31 8.25 10.6364Z" fill="#FFA237"/>
<path fill-rule="evenodd" clip-rule="evenodd" d="M0 1.18182C0 0.529118 0.547207 0 1.22222 0H9.77778C10.4528 0 11 0.529118 11 1.18182V11.8182C11 12.4709 10.4528 13 9.77778 13H1.22222C0.547207 13 0 12.4709 0 11.8182V1.18182ZM9.77778 1.18182H1.22222V11.8182H9.77778V1.18182Z" fill="#FFA237"/>
</svg>
