<svg width="66" height="19" viewBox="0 0 66 19" fill="none" xmlns="http://www.w3.org/2000/svg">
  <path d="M12.6068 3.54285L7.49445 1.94983L2.38808 3.54285C2.30538 3.57162 2.23715 3.63305 2.1984 3.71378C2.15957 3.79441 2.15341 3.8877 2.18126 3.97313C2.20903 4.05854 2.2686 4.129 2.34668 4.1691C2.42485 4.20911 2.5152 4.21548 2.59791 4.1868L7.50919 2.66088L12.4353 4.1868C12.5147 4.20043 12.596 4.18317 12.6638 4.13847C12.7315 4.09377 12.7808 4.02464 12.8022 3.94462C12.8234 3.86452 12.8153 3.77919 12.7792 3.70492C12.7431 3.63075 12.6817 3.57303 12.6068 3.54285Z" fill="white"/>
  <path fill-rule="evenodd" clip-rule="evenodd" d="M14.7741 4.29441C14.824 4.34539 14.8571 4.41134 14.8687 4.48286C15.1444 6.41658 15.051 8.38747 14.5939 10.2842C13.8669 13.2657 12.0259 16.7295 7.66123 18.9298L7.51647 19L7.37465 18.9298C3.00408 16.7295 1.16895 13.2657 0.442005 10.2812C-0.0211164 8.38669 -0.121494 6.41702 0.146493 4.48286C0.158896 4.40833 0.19445 4.34008 0.247762 4.2883C0.301074 4.23652 0.369258 4.20412 0.442005 4.19598C0.508269 4.19084 0.574546 4.20562 0.632783 4.23873C0.691012 4.27175 0.738693 4.32158 0.770012 4.38213L3.72509 10.3483H11.2871L14.2422 4.38213C14.2742 4.3176 14.3252 4.2652 14.3878 4.23227C14.4503 4.19934 14.5213 4.18766 14.5906 4.19881C14.66 4.20996 14.7242 4.24342 14.7741 4.29441ZM0.663627 5.66083C0.575503 7.15879 0.707018 8.66193 1.05371 10.1194C1.43093 11.7413 2.13033 13.2645 3.10754 14.5924C4.08474 15.9204 5.31839 17.0244 6.73039 17.8342L3.24048 10.8488L0.663627 5.66083ZM4.06194 11.0349L7.49572 17.8983L10.9591 11.0349H4.06194ZM11.8854 14.5878C12.8628 13.261 13.5637 11.7396 13.9437 10.1194C14.2962 8.65881 14.4298 7.15099 14.3397 5.64861L11.7658 10.8366L8.26406 17.8281C9.67484 17.0178 10.9078 15.9145 11.8854 14.5878Z" fill="white"/>
  <path fill-rule="evenodd" clip-rule="evenodd" d="M20.0166 17.1105C20.1024 17.2014 20.2052 17.2732 20.3188 17.3216C20.4322 17.37 20.5541 17.394 20.6767 17.3919H25.3166V16.7399H20.6767C20.6368 16.7414 20.5969 16.7344 20.5597 16.7193C20.5224 16.704 20.4886 16.681 20.4602 16.6517C20.432 16.6223 20.4099 16.5872 20.3952 16.5486C20.3806 16.51 20.3738 16.4686 20.3753 16.4271V12.5618C20.3746 12.5214 20.3819 12.4813 20.3967 12.444C20.4114 12.4066 20.4334 12.3727 20.4612 12.3444C20.4894 12.3142 20.523 12.2902 20.5604 12.2738C20.5977 12.2574 20.6378 12.249 20.6783 12.249H25.3166V11.5955H20.6767C20.5543 11.5948 20.4331 11.6194 20.32 11.6676C20.2067 11.7159 20.1039 11.7868 20.0172 11.8765C19.9306 11.9662 19.862 12.0729 19.8153 12.1902C19.7686 12.3075 19.7448 12.4332 19.7452 12.5602V16.4271C19.7435 16.5542 19.7666 16.6803 19.8133 16.7977C19.8599 16.9152 19.929 17.0216 20.0166 17.1105ZM28.9103 11.597V17.3919H34.0099V16.7399H29.5404V14.8244H33.1311V14.1645H29.5404V12.249H34.0099V11.5955L28.9103 11.597ZM37.5976 17.3919V11.6064H42.254C42.5005 11.6084 42.7363 11.7109 42.9106 11.8917C43.0848 12.0725 43.1836 12.3171 43.1856 12.5727V14.2693C43.1867 14.3964 43.1633 14.5226 43.1167 14.6403C43.0701 14.7578 43.0013 14.8646 42.9143 14.9542C42.8284 15.0451 42.7255 15.117 42.612 15.1654C42.4985 15.2137 42.3767 15.2376 42.254 15.2356H41.4008L43.1539 17.381H42.3234L40.5792 15.2356L38.2277 15.2263V17.3919H37.5976ZM38.5291 14.5773H42.254C42.2929 14.5778 42.3315 14.5701 42.3675 14.5548C42.4035 14.5395 42.4362 14.5168 42.4635 14.4882C42.4914 14.46 42.5134 14.4262 42.5282 14.3888C42.543 14.3514 42.5502 14.3112 42.5495 14.2709V12.5712C42.5502 12.5308 42.543 12.4907 42.5282 12.4533C42.5134 12.4159 42.4914 12.3821 42.4635 12.3538C42.4374 12.3229 42.4052 12.2983 42.369 12.2815C42.3328 12.2648 42.2936 12.2564 42.254 12.2569H38.5291C38.4886 12.2571 38.4484 12.2657 38.4111 12.2824C38.3738 12.299 38.3401 12.3234 38.3121 12.3538C38.2847 12.3823 38.2631 12.4163 38.2487 12.4536C38.2341 12.4909 38.227 12.531 38.2277 12.5712V14.2693C38.227 14.3096 38.2341 14.3495 38.2487 14.3869C38.2631 14.4242 38.2847 14.4581 38.3121 14.4866C38.3711 14.5436 38.4486 14.5754 38.5291 14.5758V14.5773ZM48.9814 12.249V17.3919H49.6119V12.249H52.0884V11.5955H46.5006V12.2475L48.9814 12.249ZM55.4047 11.5955H56.0409V17.3904H55.4047V11.5955ZM59.8727 11.5955V17.3904H60.509V14.8244H62.3085L64.3889 17.3919H65.203L62.8621 14.4945L65.203 11.6048H64.3963L62.3164 14.1724H60.5102V11.5955H59.8727Z" fill="white"/>
  <path d="M22.9355 7.67887L21.5604 4.34973H21.1538L19.7764 7.67887H20.2259L20.5344 6.92492H22.1774L22.4859 7.67887H22.9355ZM21.3404 4.95926L21.3547 4.90296H21.3595L21.3715 4.95926L22.0267 6.55774H20.6851L21.3404 4.95926Z" fill="white"/>
  <path d="M25.4363 7.74742C26.2231 7.74742 26.7827 7.19175 26.7827 6.38883V4.34729H26.3594V6.36191C26.3594 6.90534 26.015 7.34596 25.4363 7.34596C24.8432 7.34596 24.5108 6.898 24.5108 6.35701V4.34729H24.0898V6.38883C24.0898 7.21377 24.6781 7.74742 25.4363 7.74742Z" fill="white"/>
  <path d="M29.7817 7.67887C30.8077 7.67887 31.4892 7.01305 31.4892 6.01186C31.4892 5.01556 30.8029 4.34973 29.7745 4.34973H28.5859V7.67887H29.7817ZM29.002 4.7365H29.7625C30.5709 4.7365 31.0611 5.24811 31.0611 6.02165C31.0611 6.79273 30.5685 7.28721 29.7721 7.28721H29.002V4.7365Z" fill="white"/>
  <path d="M33.5327 7.67887V4.34973H33.1094V7.67887H33.5327Z" fill="white"/>
  <path d="M36.5259 7.67887V4.73895H37.5566V4.34973H35.0742V4.73895H36.1026V7.67887H36.5259Z" fill="white"/>
  <path d="M41.284 7.67887V7.28721H39.5239V6.17097H41.0353V5.79889H39.5239V4.74384H41.2625V4.34973H39.1006V7.67887H41.284Z" fill="white"/>
  <path d="M44.0737 7.67887C45.0997 7.67887 45.7812 7.01305 45.7812 6.01186C45.7812 5.01556 45.0949 4.34973 44.0666 4.34973H42.8779V7.67887H44.0737ZM43.2941 4.7365H44.0546C44.8629 4.7365 45.3532 5.24811 45.3532 6.02165C45.3532 6.79273 44.8605 7.28721 44.0642 7.28721H43.2941V4.7365Z" fill="white"/>
  <path d="M51.1166 7.67887C51.6236 7.67887 52.0971 7.34106 52.0971 6.73888C52.0971 6.34966 51.8221 6.02165 51.4777 5.91883C51.7193 5.81113 51.9082 5.53206 51.9082 5.22608C51.9082 4.70467 51.5207 4.34973 50.9803 4.34973H49.5908V7.67887H51.1166ZM50.0189 4.72671H50.9635C51.2505 4.72671 51.4802 4.96171 51.4802 5.2579C51.4802 5.55899 51.2505 5.79399 50.9612 5.79399H50.0189V4.72671ZM50.0189 6.12935H51.0879C51.4108 6.12935 51.6619 6.38883 51.6619 6.70706C51.6619 7.04487 51.4084 7.297 51.0831 7.297H50.0189V6.12935Z" fill="white"/>
  <path d="M54.9232 7.67887L54.9208 6.40107L56.2362 4.34973H55.734L54.7128 6.0143H54.7104L53.6844 4.34973H53.1846L54.4999 6.40352V7.67887H54.9232Z" fill="white"/>
  <path d="M12.6068 3.54285L7.49445 1.94983L2.38808 3.54285C2.30538 3.57162 2.23715 3.63305 2.1984 3.71378C2.15957 3.79441 2.15341 3.8877 2.18126 3.97313C2.20903 4.05854 2.2686 4.129 2.34668 4.1691C2.42485 4.20911 2.5152 4.21548 2.59791 4.1868L7.50919 2.66088L12.4353 4.1868C12.5147 4.20043 12.596 4.18317 12.6638 4.13847C12.7315 4.09377 12.7808 4.02464 12.8022 3.94462C12.8234 3.86452 12.8153 3.77919 12.7792 3.70492C12.7431 3.63075 12.6817 3.57303 12.6068 3.54285Z" fill="white"/>
  <path fill-rule="evenodd" clip-rule="evenodd" d="M14.7741 4.29441C14.824 4.34539 14.8571 4.41134 14.8687 4.48286C15.1444 6.41658 15.051 8.38747 14.5939 10.2842C13.8669 13.2657 12.0259 16.7295 7.66123 18.9298L7.51647 19L7.37465 18.9298C3.00408 16.7295 1.16895 13.2657 0.442005 10.2812C-0.0211164 8.38669 -0.121494 6.41702 0.146493 4.48286C0.158896 4.40833 0.19445 4.34008 0.247762 4.2883C0.301074 4.23652 0.369258 4.20412 0.442005 4.19598C0.508269 4.19084 0.574546 4.20562 0.632783 4.23873C0.691012 4.27175 0.738693 4.32158 0.770012 4.38213L3.72509 10.3483H11.2871L14.2422 4.38213C14.2742 4.3176 14.3252 4.2652 14.3878 4.23227C14.4503 4.19934 14.5213 4.18766 14.5906 4.19881C14.66 4.20996 14.7242 4.24342 14.7741 4.29441ZM0.663627 5.66083C0.575503 7.15879 0.707018 8.66193 1.05371 10.1194C1.43093 11.7413 2.13033 13.2645 3.10754 14.5924C4.08474 15.9204 5.31839 17.0244 6.73039 17.8342L3.24048 10.8488L0.663627 5.66083ZM4.06194 11.0349L7.49572 17.8983L10.9591 11.0349H4.06194ZM11.8854 14.5878C12.8628 13.261 13.5637 11.7396 13.9437 10.1194C14.2962 8.65881 14.4298 7.15099 14.3397 5.64861L11.7658 10.8366L8.26406 17.8281C9.67484 17.0178 10.9078 15.9145 11.8854 14.5878Z" fill="white"/>
  <path fill-rule="evenodd" clip-rule="evenodd" d="M20.0166 17.1105C20.1024 17.2014 20.2052 17.2732 20.3188 17.3216C20.4322 17.37 20.5541 17.394 20.6767 17.3919H25.3166V16.7399H20.6767C20.6368 16.7414 20.5969 16.7344 20.5597 16.7193C20.5224 16.704 20.4886 16.681 20.4602 16.6517C20.432 16.6223 20.4099 16.5872 20.3952 16.5486C20.3806 16.51 20.3738 16.4686 20.3753 16.4271V12.5618C20.3746 12.5214 20.3819 12.4813 20.3967 12.444C20.4114 12.4066 20.4334 12.3727 20.4612 12.3444C20.4894 12.3142 20.523 12.2902 20.5604 12.2738C20.5977 12.2574 20.6378 12.249 20.6783 12.249H25.3166V11.5955H20.6767C20.5543 11.5948 20.4331 11.6194 20.32 11.6676C20.2067 11.7159 20.1039 11.7868 20.0172 11.8765C19.9306 11.9662 19.862 12.0729 19.8153 12.1902C19.7686 12.3075 19.7448 12.4332 19.7452 12.5602V16.4271C19.7435 16.5542 19.7666 16.6803 19.8133 16.7977C19.8599 16.9152 19.929 17.0216 20.0166 17.1105ZM28.9103 11.597V17.3919H34.0099V16.7399H29.5404V14.8244H33.1311V14.1645H29.5404V12.249H34.0099V11.5955L28.9103 11.597ZM37.5976 17.3919V11.6064H42.254C42.5005 11.6084 42.7363 11.7109 42.9106 11.8917C43.0848 12.0725 43.1836 12.3171 43.1856 12.5727V14.2693C43.1867 14.3964 43.1633 14.5226 43.1167 14.6403C43.0701 14.7578 43.0013 14.8646 42.9143 14.9542C42.8284 15.0451 42.7255 15.117 42.612 15.1654C42.4985 15.2137 42.3767 15.2376 42.254 15.2356H41.4008L43.1539 17.381H42.3234L40.5792 15.2356L38.2277 15.2263V17.3919H37.5976ZM38.5291 14.5773H42.254C42.2929 14.5778 42.3315 14.5701 42.3675 14.5548C42.4035 14.5395 42.4362 14.5168 42.4635 14.4882C42.4914 14.46 42.5134 14.4262 42.5282 14.3888C42.543 14.3514 42.5502 14.3112 42.5495 14.2709V12.5712C42.5502 12.5308 42.543 12.4907 42.5282 12.4533C42.5134 12.4159 42.4914 12.3821 42.4635 12.3538C42.4374 12.3229 42.4052 12.2983 42.369 12.2815C42.3328 12.2648 42.2936 12.2564 42.254 12.2569H38.5291C38.4886 12.2571 38.4484 12.2657 38.4111 12.2824C38.3738 12.299 38.3401 12.3234 38.3121 12.3538C38.2847 12.3823 38.2631 12.4163 38.2487 12.4536C38.2341 12.4909 38.227 12.531 38.2277 12.5712V14.2693C38.227 14.3096 38.2341 14.3495 38.2487 14.3869C38.2631 14.4242 38.2847 14.4581 38.3121 14.4866C38.3711 14.5436 38.4486 14.5754 38.5291 14.5758V14.5773ZM48.9814 12.249V17.3919H49.6119V12.249H52.0884V11.5955H46.5006V12.2475L48.9814 12.249ZM55.4047 11.5955H56.0409V17.3904H55.4047V11.5955ZM59.8727 11.5955V17.3904H60.509V14.8244H62.3085L64.3889 17.3919H65.203L62.8621 14.4945L65.203 11.6048H64.3963L62.3164 14.1724H60.5102V11.5955H59.8727Z" fill="white"/>
  <path d="M22.9355 7.67887L21.5604 4.34973H21.1538L19.7764 7.67887H20.2259L20.5344 6.92492H22.1774L22.4859 7.67887H22.9355ZM21.3404 4.95926L21.3547 4.90296H21.3595L21.3715 4.95926L22.0267 6.55774H20.6851L21.3404 4.95926Z" fill="white"/>
  <path d="M25.4363 7.74742C26.2231 7.74742 26.7827 7.19175 26.7827 6.38883V4.34729H26.3594V6.36191C26.3594 6.90534 26.015 7.34596 25.4363 7.34596C24.8432 7.34596 24.5108 6.898 24.5108 6.35701V4.34729H24.0898V6.38883C24.0898 7.21377 24.6781 7.74742 25.4363 7.74742Z" fill="white"/>
  <path d="M29.7817 7.67887C30.8077 7.67887 31.4892 7.01305 31.4892 6.01186C31.4892 5.01556 30.8029 4.34973 29.7745 4.34973H28.5859V7.67887H29.7817ZM29.002 4.7365H29.7625C30.5709 4.7365 31.0611 5.24811 31.0611 6.02165C31.0611 6.79273 30.5685 7.28721 29.7721 7.28721H29.002V4.7365Z" fill="white"/>
  <path d="M33.5327 7.67887V4.34973H33.1094V7.67887H33.5327Z" fill="white"/>
  <path d="M36.5259 7.67887V4.73895H37.5566V4.34973H35.0742V4.73895H36.1026V7.67887H36.5259Z" fill="white"/>
  <path d="M41.284 7.67887V7.28721H39.5239V6.17097H41.0353V5.79889H39.5239V4.74384H41.2625V4.34973H39.1006V7.67887H41.284Z" fill="white"/>
  <path d="M44.0737 7.67887C45.0997 7.67887 45.7812 7.01305 45.7812 6.01186C45.7812 5.01556 45.0949 4.34973 44.0666 4.34973H42.8779V7.67887H44.0737ZM43.2941 4.7365H44.0546C44.8629 4.7365 45.3532 5.24811 45.3532 6.02165C45.3532 6.79273 44.8605 7.28721 44.0642 7.28721H43.2941V4.7365Z" fill="white"/>
  <path d="M51.1166 7.67887C51.6236 7.67887 52.0971 7.34106 52.0971 6.73888C52.0971 6.34966 51.8221 6.02165 51.4777 5.91883C51.7193 5.81113 51.9082 5.53206 51.9082 5.22608C51.9082 4.70467 51.5207 4.34973 50.9803 4.34973H49.5908V7.67887H51.1166ZM50.0189 4.72671H50.9635C51.2505 4.72671 51.4802 4.96171 51.4802 5.2579C51.4802 5.55899 51.2505 5.79399 50.9612 5.79399H50.0189V4.72671ZM50.0189 6.12935H51.0879C51.4108 6.12935 51.6619 6.38883 51.6619 6.70706C51.6619 7.04487 51.4084 7.297 51.0831 7.297H50.0189V6.12935Z" fill="white"/>
  <path d="M54.9232 7.67887L54.9208 6.40107L56.2362 4.34973H55.734L54.7128 6.0143H54.7104L53.6844 4.34973H53.1846L54.4999 6.40352V7.67887H54.9232Z" fill="white"/>
  <path d="M65.7544 1.35634C64.395 1.35634 62.9861 0.077434 62.9721 0.0646218C62.8785 -0.0215406 62.7358 -0.0215406 62.6421 0.0646218C62.6281 0.0775337 61.2229 1.35634 59.8599 1.35634C59.7242 1.35634 59.6143 1.46795 59.6143 1.60561V4.59076C59.6143 7.00903 61.3865 7.97534 62.7195 8.49183C62.7478 8.50277 62.7774 8.50822 62.8071 8.50822C62.8368 8.50822 62.8665 8.50275 62.8947 8.49183C64.7639 7.76764 66 6.63799 66 4.59076V1.60561C66 1.46795 65.8901 1.35634 65.7544 1.35634Z" fill="url(#paint0_linear_1935_1380)"/>
  <path d="M62.8071 2.50928C61.8591 2.50928 61.0879 3.29202 61.0879 4.25413C61.0879 5.21624 61.8591 5.99898 62.8071 5.99898C63.7551 5.99898 64.5264 5.21624 64.5264 4.25413C64.5264 3.29202 63.7551 2.50928 62.8071 2.50928ZM63.472 4.18111L62.7352 4.9289C62.6872 4.97758 62.6244 5.00192 62.5615 5.00192C62.4987 5.00192 62.4358 4.97759 62.3879 4.9289L62.1423 4.67964C62.0463 4.58229 62.0463 4.42447 62.1423 4.32713C62.2382 4.22978 62.3937 4.22978 62.4896 4.32713L62.5615 4.40013L63.1247 3.8286C63.2206 3.73125 63.3761 3.73125 63.472 3.8286C63.5679 3.92595 63.5679 4.08376 63.472 4.18111Z" fill="url(#paint1_linear_1935_1380)"/>
  <defs>
    <linearGradient id="paint0_linear_1935_1380" x1="62.8071" y1="8.50822" x2="62.8071" y2="-4.05704e-06" gradientUnits="userSpaceOnUse">
      <stop stop-color="#00B59C"/>
      <stop offset="1" stop-color="#9CFFAC"/>
    </linearGradient>
    <linearGradient id="paint1_linear_1935_1380" x1="62.8071" y1="5.99898" x2="62.8071" y2="2.50928" gradientUnits="userSpaceOnUse">
      <stop stop-color="#C3FFE8"/>
      <stop offset="0.9973" stop-color="#F0FFF4"/>
    </linearGradient>
  </defs>
</svg>
