<svg width="96" height="27" viewBox="0 0 96 27" fill="none" xmlns="http://www.w3.org/2000/svg">
  <path d="M18.7134 4.9968L11.3956 2.75L4.08629 4.9968C3.9679 5.03737 3.87024 5.12401 3.81478 5.23787C3.7592 5.3516 3.75037 5.48318 3.79024 5.60366C3.82999 5.72413 3.91526 5.82351 4.02703 5.88006C4.13892 5.93649 4.26824 5.94548 4.38663 5.90503L11.4167 3.75286L18.468 5.90503C18.5816 5.92425 18.698 5.89991 18.7951 5.83686C18.892 5.77382 18.9625 5.67632 18.9931 5.56346C19.0235 5.45048 19.0119 5.33013 18.9602 5.22538C18.9086 5.12077 18.8206 5.03937 18.7134 4.9968Z" fill="white"/>
  <path fill-rule="evenodd" clip-rule="evenodd" d="M21.8157 6.05685C21.8871 6.12876 21.9345 6.22177 21.9511 6.32264C22.3457 9.04996 22.2121 11.8297 21.5577 14.5048C20.5171 18.71 17.8819 23.5953 11.6343 26.6986L11.4271 26.7976L11.2241 26.6986C4.96803 23.5953 2.34121 18.71 1.30066 14.5006C0.637743 11.8286 0.494062 9.05058 0.87766 6.32264C0.895413 6.21752 0.946305 6.12127 1.02262 6.04824C1.09893 5.9752 1.19653 5.92951 1.30066 5.91803C1.39551 5.91078 1.49038 5.93163 1.57374 5.97832C1.65709 6.02489 1.72534 6.09518 1.77017 6.18057L6.00008 14.5952H16.8244L21.0543 6.18057C21.1002 6.08956 21.1731 6.01565 21.2627 5.96921C21.3522 5.92277 21.4538 5.90629 21.5531 5.92202C21.6524 5.93775 21.7443 5.98494 21.8157 6.05685ZM1.61789 7.98405C1.49175 10.0968 1.68 12.2168 2.17625 14.2724C2.71621 16.5599 3.71734 18.7082 5.11612 20.5812C6.51489 22.4542 8.28074 24.0113 10.3019 25.1534L5.30641 15.3011L1.61789 7.98405ZM6.48225 15.5636L11.3974 25.2438L16.3549 15.5636H6.48225ZM17.6808 20.5747C19.0799 18.7034 20.0831 16.5576 20.6271 14.2724C21.1316 12.2124 21.3229 10.0858 21.1939 7.96682L17.5096 15.2839L12.4972 25.1448C14.5166 24.0019 16.2815 22.4458 17.6808 20.5747Z" fill="white"/>
  <path fill-rule="evenodd" clip-rule="evenodd" d="M29.3202 24.1327C29.4431 24.2609 29.5903 24.3622 29.7528 24.4305C29.9152 24.4987 30.0896 24.5325 30.2652 24.5296H36.9067V23.61H30.2652C30.208 23.6121 30.1509 23.6022 30.0976 23.5809C30.0443 23.5594 29.9959 23.527 29.9553 23.4856C29.9149 23.4442 29.8832 23.3947 29.8622 23.3402C29.8413 23.2858 29.8316 23.2274 29.8337 23.1689V17.7172C29.8327 17.6602 29.8431 17.6037 29.8643 17.551C29.8854 17.4983 29.9169 17.4505 29.9567 17.4106C29.997 17.368 30.0452 17.3342 30.0986 17.311C30.152 17.2879 30.2094 17.276 30.2674 17.2761H36.9067V16.3543H30.2652C30.09 16.3534 29.9164 16.388 29.7545 16.456C29.5924 16.5241 29.4452 16.6242 29.3212 16.7507C29.1972 16.8772 29.099 17.0276 29.0322 17.1931C28.9653 17.3586 28.9312 17.5359 28.9318 17.715V23.1689C28.9293 23.3481 28.9624 23.5259 29.0292 23.6915C29.0959 23.8572 29.1949 24.0073 29.3202 24.1327ZM42.0508 16.3565V24.5296H49.3504V23.61H42.9527V20.9084H48.0924V19.9777H42.9527V17.2761H49.3504V16.3543L42.0508 16.3565ZM54.4858 24.5296V16.3697H61.151C61.5038 16.3726 61.8413 16.5171 62.0908 16.7721C62.3402 17.0271 62.4816 17.3721 62.4844 17.7326V20.1255C62.4861 20.3048 62.4526 20.4827 62.3859 20.6487C62.3191 20.8145 62.2206 20.9651 62.0961 21.0914C61.9731 21.2197 61.8259 21.321 61.6634 21.3893C61.501 21.4575 61.3266 21.4912 61.151 21.4884H59.9297L62.4391 24.5142H61.2503L58.7537 21.4884L55.3877 21.4752V24.5296H54.4858ZM55.8192 20.5599H61.151C61.2066 20.5606 61.2619 20.5497 61.3134 20.5281C61.3649 20.5065 61.4117 20.4746 61.4509 20.4342C61.4908 20.3945 61.5223 20.3467 61.5435 20.294C61.5646 20.2413 61.575 20.1846 61.5739 20.1277V17.7304C61.575 17.6735 61.5646 17.6169 61.5435 17.5642C61.5223 17.5114 61.4908 17.4637 61.4509 17.4239C61.4135 17.3803 61.3674 17.3455 61.3156 17.3219C61.2638 17.2983 61.2076 17.2865 61.151 17.2872H55.8192C55.7611 17.2874 55.7036 17.2996 55.6502 17.3231C55.5968 17.3466 55.5486 17.3809 55.5085 17.4239C55.4693 17.4641 55.4384 17.512 55.4177 17.5646C55.3969 17.6172 55.3867 17.6737 55.3877 17.7304V20.1255C55.3867 20.1823 55.3969 20.2386 55.4177 20.2913C55.4384 20.344 55.4693 20.3918 55.5085 20.432C55.593 20.5123 55.7039 20.5572 55.8192 20.5578V20.5599ZM70.7806 17.2761V24.5296H71.6831V17.2761H75.2279V16.3543H67.2296V17.2739L70.7806 17.2761ZM79.975 16.3543H80.8856V24.5275H79.975V16.3543ZM86.3705 16.3543V24.5275H87.2812V20.9084H89.8571L92.8349 24.5296H94.0003L90.6495 20.4431L94.0003 16.3675H92.8456L89.8684 19.9888H87.283V16.3543H86.3705Z" fill="white"/>
  <path d="M33.4986 10.8302L31.5303 6.1348H30.9483L28.9766 10.8302H29.6201L30.0617 9.76685H32.4135L32.8551 10.8302H33.4986ZM31.2154 6.99448L31.2359 6.91507H31.2427L31.2599 6.99448L32.1978 9.24897H30.2774L31.2154 6.99448Z" fill="white"/>
  <path d="M37.0777 10.9269C38.2039 10.9269 39.0049 10.1432 39.0049 9.01074V6.13135H38.399V8.97277C38.399 9.73923 37.9061 10.3607 37.0777 10.3607C36.2287 10.3607 35.7529 9.72887 35.7529 8.96586V6.13135H35.1504V9.01074C35.1504 10.1742 35.9925 10.9269 37.0777 10.9269Z" fill="white"/>
  <path d="M43.2975 10.8302C44.7661 10.8302 45.7417 9.89114 45.7417 8.47906C45.7417 7.07388 44.7592 6.1348 43.2872 6.1348H41.5859V10.8302H43.2975ZM42.1815 6.6803H43.2701C44.4272 6.6803 45.1289 7.40187 45.1289 8.49287C45.1289 9.58041 44.4237 10.2778 43.2838 10.2778H42.1815V6.6803Z" fill="white"/>
  <path d="M48.6665 10.8302V6.1348H48.0605V10.8302H48.6665Z" fill="white"/>
  <path d="M52.951 10.8302V6.68375H54.4263V6.1348H50.873V6.68375H52.345V10.8302H52.951Z" fill="white"/>
  <path d="M59.7621 10.8302V10.2778H57.2426V8.70347H59.4061V8.17869H57.2426V6.69065H59.7313V6.1348H56.6367V10.8302H59.7621Z" fill="white"/>
  <path d="M63.7546 10.8302C65.2232 10.8302 66.1988 9.89114 66.1988 8.47906C66.1988 7.07388 65.2164 6.1348 63.7444 6.1348H62.043V10.8302H63.7546ZM62.6387 6.6803H63.7273C64.8843 6.6803 65.5861 7.40187 65.5861 8.49287C65.5861 9.58041 64.8809 10.2778 63.741 10.2778H62.6387V6.6803Z" fill="white"/>
  <path d="M73.8363 10.8302C74.562 10.8302 75.2398 10.3538 75.2398 9.50445C75.2398 8.9555 74.8462 8.49287 74.3532 8.34786C74.699 8.19595 74.9694 7.80236 74.9694 7.3708C74.9694 6.63541 74.4148 6.1348 73.6412 6.1348H71.6523V10.8302H73.8363ZM72.2651 6.66649H73.6172C74.028 6.66649 74.3567 6.99793 74.3567 7.41568C74.3567 7.84034 74.028 8.17178 73.6138 8.17178H72.2651V6.66649ZM72.2651 8.64478H73.7952C74.2574 8.64478 74.6168 9.01074 74.6168 9.45957C74.6168 9.93602 74.254 10.2916 73.7884 10.2916H72.2651V8.64478Z" fill="white"/>
  <path d="M79.2856 10.8302L79.2822 9.02801L81.165 6.1348H80.4461L78.9844 8.48251H78.981L77.5124 6.1348H76.7969L78.6797 9.03146V10.8302H79.2856Z" fill="white"/>
  <path d="M18.7134 4.9968L11.3956 2.75L4.08629 4.9968C3.9679 5.03737 3.87024 5.12401 3.81478 5.23787C3.7592 5.3516 3.75037 5.48318 3.79024 5.60366C3.82999 5.72413 3.91526 5.82351 4.02703 5.88006C4.13892 5.93649 4.26824 5.94548 4.38663 5.90503L11.4167 3.75286L18.468 5.90503C18.5816 5.92425 18.698 5.89991 18.7951 5.83686C18.892 5.77382 18.9625 5.67632 18.9931 5.56346C19.0235 5.45048 19.0119 5.33013 18.9602 5.22538C18.9086 5.12077 18.8206 5.03937 18.7134 4.9968Z" fill="white"/>
  <path fill-rule="evenodd" clip-rule="evenodd" d="M21.8157 6.05685C21.8871 6.12876 21.9345 6.22177 21.9511 6.32264C22.3457 9.04996 22.2121 11.8297 21.5577 14.5048C20.5171 18.71 17.8819 23.5953 11.6343 26.6986L11.4271 26.7976L11.2241 26.6986C4.96803 23.5953 2.34121 18.71 1.30066 14.5006C0.637743 11.8286 0.494062 9.05058 0.87766 6.32264C0.895413 6.21752 0.946305 6.12127 1.02262 6.04824C1.09893 5.9752 1.19653 5.92951 1.30066 5.91803C1.39551 5.91078 1.49038 5.93163 1.57374 5.97832C1.65709 6.02489 1.72534 6.09518 1.77017 6.18057L6.00008 14.5952H16.8244L21.0543 6.18057C21.1002 6.08956 21.1731 6.01565 21.2627 5.96921C21.3522 5.92277 21.4538 5.90629 21.5531 5.92202C21.6524 5.93775 21.7443 5.98494 21.8157 6.05685ZM1.61789 7.98405C1.49175 10.0968 1.68 12.2168 2.17625 14.2724C2.71621 16.5599 3.71734 18.7082 5.11612 20.5812C6.51489 22.4542 8.28074 24.0113 10.3019 25.1534L5.30641 15.3011L1.61789 7.98405ZM6.48225 15.5636L11.3974 25.2438L16.3549 15.5636H6.48225ZM17.6808 20.5747C19.0799 18.7034 20.0831 16.5576 20.6271 14.2724C21.1316 12.2124 21.3229 10.0858 21.1939 7.96682L17.5096 15.2839L12.4972 25.1448C14.5166 24.0019 16.2815 22.4458 17.6808 20.5747Z" fill="white"/>
  <path fill-rule="evenodd" clip-rule="evenodd" d="M29.3202 24.1327C29.4431 24.2609 29.5903 24.3622 29.7528 24.4305C29.9152 24.4987 30.0896 24.5325 30.2652 24.5296H36.9067V23.61H30.2652C30.208 23.6121 30.1509 23.6022 30.0976 23.5809C30.0443 23.5594 29.9959 23.527 29.9553 23.4856C29.9149 23.4442 29.8832 23.3947 29.8622 23.3402C29.8413 23.2858 29.8316 23.2274 29.8337 23.1689V17.7172C29.8327 17.6602 29.8431 17.6037 29.8643 17.551C29.8854 17.4983 29.9169 17.4505 29.9567 17.4106C29.997 17.368 30.0452 17.3342 30.0986 17.311C30.152 17.2879 30.2094 17.276 30.2674 17.2761H36.9067V16.3543H30.2652C30.09 16.3534 29.9164 16.388 29.7545 16.456C29.5924 16.5241 29.4452 16.6242 29.3212 16.7507C29.1972 16.8772 29.099 17.0276 29.0322 17.1931C28.9653 17.3586 28.9312 17.5359 28.9318 17.715V23.1689C28.9293 23.3481 28.9624 23.5259 29.0292 23.6915C29.0959 23.8572 29.1949 24.0073 29.3202 24.1327ZM42.0508 16.3565V24.5296H49.3504V23.61H42.9527V20.9084H48.0924V19.9777H42.9527V17.2761H49.3504V16.3543L42.0508 16.3565ZM54.4858 24.5296V16.3697H61.151C61.5038 16.3726 61.8413 16.5171 62.0908 16.7721C62.3402 17.0271 62.4816 17.3721 62.4844 17.7326V20.1255C62.4861 20.3048 62.4526 20.4827 62.3859 20.6487C62.3191 20.8145 62.2206 20.9651 62.0961 21.0914C61.9731 21.2197 61.8259 21.321 61.6634 21.3893C61.501 21.4575 61.3266 21.4912 61.151 21.4884H59.9297L62.4391 24.5142H61.2503L58.7537 21.4884L55.3877 21.4752V24.5296H54.4858ZM55.8192 20.5599H61.151C61.2066 20.5606 61.2619 20.5497 61.3134 20.5281C61.3649 20.5065 61.4117 20.4746 61.4509 20.4342C61.4908 20.3945 61.5223 20.3467 61.5435 20.294C61.5646 20.2413 61.575 20.1846 61.5739 20.1277V17.7304C61.575 17.6735 61.5646 17.6169 61.5435 17.5642C61.5223 17.5114 61.4908 17.4637 61.4509 17.4239C61.4135 17.3803 61.3674 17.3455 61.3156 17.3219C61.2638 17.2983 61.2076 17.2865 61.151 17.2872H55.8192C55.7611 17.2874 55.7036 17.2996 55.6502 17.3231C55.5968 17.3466 55.5486 17.3809 55.5085 17.4239C55.4693 17.4641 55.4384 17.512 55.4177 17.5646C55.3969 17.6172 55.3867 17.6737 55.3877 17.7304V20.1255C55.3867 20.1823 55.3969 20.2386 55.4177 20.2913C55.4384 20.344 55.4693 20.3918 55.5085 20.432C55.593 20.5123 55.7039 20.5572 55.8192 20.5578V20.5599ZM70.7806 17.2761V24.5296H71.6831V17.2761H75.2279V16.3543H67.2296V17.2739L70.7806 17.2761ZM79.975 16.3543H80.8856V24.5275H79.975V16.3543ZM86.3705 16.3543V24.5275H87.2812V20.9084H89.8571L92.8349 24.5296H94.0003L90.6495 20.4431L94.0003 16.3675H92.8456L89.8684 19.9888H87.283V16.3543H86.3705Z" fill="white"/>
  <path d="M33.4986 10.8302L31.5303 6.1348H30.9483L28.9766 10.8302H29.6201L30.0617 9.76685H32.4135L32.8551 10.8302H33.4986ZM31.2154 6.99448L31.2359 6.91507H31.2427L31.2599 6.99448L32.1978 9.24897H30.2774L31.2154 6.99448Z" fill="white"/>
  <path d="M37.0777 10.9269C38.2039 10.9269 39.0049 10.1432 39.0049 9.01074V6.13135H38.399V8.97277C38.399 9.73923 37.9061 10.3607 37.0777 10.3607C36.2287 10.3607 35.7529 9.72887 35.7529 8.96586V6.13135H35.1504V9.01074C35.1504 10.1742 35.9925 10.9269 37.0777 10.9269Z" fill="white"/>
  <path d="M43.2975 10.8302C44.7661 10.8302 45.7417 9.89114 45.7417 8.47906C45.7417 7.07388 44.7592 6.1348 43.2872 6.1348H41.5859V10.8302H43.2975ZM42.1815 6.6803H43.2701C44.4272 6.6803 45.1289 7.40187 45.1289 8.49287C45.1289 9.58041 44.4237 10.2778 43.2838 10.2778H42.1815V6.6803Z" fill="white"/>
  <path d="M48.6665 10.8302V6.1348H48.0605V10.8302H48.6665Z" fill="white"/>
  <path d="M52.951 10.8302V6.68375H54.4263V6.1348H50.873V6.68375H52.345V10.8302H52.951Z" fill="white"/>
  <path d="M59.7621 10.8302V10.2778H57.2426V8.70347H59.4061V8.17869H57.2426V6.69065H59.7313V6.1348H56.6367V10.8302H59.7621Z" fill="white"/>
  <path d="M63.7546 10.8302C65.2232 10.8302 66.1988 9.89114 66.1988 8.47906C66.1988 7.07388 65.2164 6.1348 63.7444 6.1348H62.043V10.8302H63.7546ZM62.6387 6.6803H63.7273C64.8843 6.6803 65.5861 7.40187 65.5861 8.49287C65.5861 9.58041 64.8809 10.2778 63.741 10.2778H62.6387V6.6803Z" fill="white"/>
  <path d="M73.8363 10.8302C74.562 10.8302 75.2398 10.3538 75.2398 9.50445C75.2398 8.9555 74.8462 8.49287 74.3532 8.34786C74.699 8.19595 74.9694 7.80236 74.9694 7.3708C74.9694 6.63541 74.4148 6.1348 73.6412 6.1348H71.6523V10.8302H73.8363ZM72.2651 6.66649H73.6172C74.028 6.66649 74.3567 6.99793 74.3567 7.41568C74.3567 7.84034 74.028 8.17178 73.6138 8.17178H72.2651V6.66649ZM72.2651 8.64478H73.7952C74.2574 8.64478 74.6168 9.01074 74.6168 9.45957C74.6168 9.93602 74.254 10.2916 73.7884 10.2916H72.2651V8.64478Z" fill="white"/>
  <path d="M79.2856 10.8302L79.2822 9.02801L81.165 6.1348H80.4461L78.9844 8.48251H78.981L77.5124 6.1348H76.7969L78.6797 9.03146V10.8302H79.2856Z" fill="white"/>
  <path d="M94.7891 1.91299C92.8431 1.91299 90.8265 0.109213 90.8065 0.0911426C90.6725 -0.0303809 90.4681 -0.0303809 90.3341 0.0911426C90.314 0.109354 88.3027 1.91299 86.3516 1.91299C86.1574 1.91299 86 2.07039 86 2.26455V6.47481C86 9.88553 88.5368 11.2484 90.4449 11.9769C90.4853 11.9923 90.5278 12 90.5703 12C90.6128 12 90.6553 11.9923 90.6957 11.9769C93.3712 10.9555 95.1406 9.36222 95.1406 6.47481V2.26455C95.1406 2.07039 94.9832 1.91299 94.7891 1.91299Z" fill="url(#paint0_linear_1900_9608)"/>
  <path d="M90.5703 3.53906C89.2134 3.53906 88.1094 4.64304 88.1094 6C88.1094 7.35696 89.2134 8.46094 90.5703 8.46094C91.9273 8.46094 93.0312 7.35696 93.0312 6C93.0312 4.64304 91.9273 3.53906 90.5703 3.53906ZM91.522 5.89702L90.4673 6.9517C90.3987 7.02035 90.3087 7.05469 90.2187 7.05469C90.1288 7.05469 90.0388 7.02037 89.9702 6.9517L89.6186 6.60014C89.4813 6.46284 89.4813 6.24026 89.6186 6.10296C89.7559 5.96566 89.9785 5.96566 90.1158 6.10296L90.2188 6.20592L91.0249 5.39984C91.1622 5.26254 91.3848 5.26254 91.5221 5.39984C91.6593 5.53713 91.6593 5.75972 91.522 5.89702Z" fill="url(#paint1_linear_1900_9608)"/>
  <defs>
    <linearGradient id="paint0_linear_1900_9608" x1="90.5703" y1="12" x2="90.5703" y2="-5.72205e-06" gradientUnits="userSpaceOnUse">
      <stop stop-color="#00B59C"/>
      <stop offset="1" stop-color="#9CFFAC"/>
    </linearGradient>
    <linearGradient id="paint1_linear_1900_9608" x1="90.5703" y1="8.46094" x2="90.5703" y2="3.53906" gradientUnits="userSpaceOnUse">
      <stop stop-color="#C3FFE8"/>
      <stop offset="0.9973" stop-color="#F0FFF4"/>
    </linearGradient>
  </defs>
</svg>
