<svg width="22" height="22" viewBox="0 0 22 22" fill="none" xmlns="http://www.w3.org/2000/svg">
<mask id="mask0" mask-type="alpha" maskUnits="userSpaceOnUse" x="0" y="0" width="22" height="22">
<rect width="22" height="22" fill="#222222"/>
</mask>
<g mask="url(#mask0)">
<path d="M11.778 2.20528C12.5442 1.36964 13.93 1.69714 14.2411 2.7874V2.7874C14.4651 3.5723 15.2925 4.01776 16.071 3.7726V3.7726C17.1525 3.43206 18.1888 4.40855 17.9131 5.50831V5.50831C17.7147 6.30005 18.2085 7.09953 19.0053 7.27649V7.27649C20.1121 7.52229 20.5214 8.88613 19.7328 9.70071V9.70071C19.165 10.2871 19.1929 11.2264 19.7945 11.7781V11.7781C20.6302 12.5444 20.3027 13.9301 19.2124 14.2412V14.2412C18.4275 14.4652 17.982 15.2926 18.2272 16.0712V16.0712C18.5677 17.1526 17.5913 18.189 16.4915 17.9133V17.9133C15.6998 17.7148 14.9003 18.2086 14.7233 19.0055V19.0055C14.4775 20.1123 13.1137 20.5215 12.2991 19.7329V19.7329C11.7127 19.1651 10.7734 19.1931 10.2217 19.7947V19.7947C9.45544 20.6303 8.0697 20.3028 7.75857 19.2125V19.2125C7.53458 18.4276 6.70717 17.9822 5.92862 18.2273V18.2273C4.84718 18.5679 3.81085 17.5914 4.08653 16.4916V16.4916C4.285 15.6999 3.79117 14.9004 2.99435 14.7234V14.7234C1.88753 14.4776 1.47828 13.1138 2.26691 12.2992V12.2992C2.83466 11.7128 2.80673 10.7735 2.20515 10.2219V10.2219C1.36951 9.45557 1.697 8.06983 2.78727 7.7587V7.7587C3.57217 7.53471 4.01763 6.7073 3.77247 5.92876V5.92876C3.43193 4.84732 4.40842 3.81098 5.50818 4.08667V4.08667C6.29992 4.28514 7.0994 3.79131 7.27636 2.99449V2.99449C7.52216 1.88766 8.886 1.47841 9.70057 2.26704V2.26704C10.287 2.83479 11.2263 2.80687 11.778 2.20528V2.20528Z" fill="#222222"/>
<path d="M8.93866 11.0265L10.6446 12.971L14.6096 8.77035" stroke="white" stroke-width="2" stroke-linecap="round" stroke-linejoin="round"/>
</g>
</svg>
