<svg width="22" height="22" viewBox="0 0 22 22" fill="none" xmlns="http://www.w3.org/2000/svg">
  <path d="M9.7345 2.26209C10.288 1.27261 11.712 1.27261 12.2655 2.26209C12.664 2.97443 13.5717 3.21764 14.273 2.79999C15.2471 2.21985 16.4803 2.93181 16.4649 4.06549C16.4538 4.88165 17.1183 5.54612 17.9345 5.53507C19.0682 5.51972 19.7801 6.75286 19.2 7.72699C18.7823 8.42828 19.0255 9.33596 19.7379 9.73447C20.7274 10.288 20.7274 11.7119 19.7379 12.2655C19.0255 12.664 18.7823 13.5717 19.2 14.273C19.7801 15.2471 19.0682 16.4802 17.9345 16.4649C17.1183 16.4538 16.4538 17.1183 16.4649 17.9344C16.4803 19.0681 15.2471 19.7801 14.273 19.1999C13.5717 18.7823 12.664 19.0255 12.2655 19.7379C11.712 20.7273 10.288 20.7273 9.7345 19.7379C9.33599 19.0255 8.42831 18.7823 7.72702 19.1999C6.75289 19.7801 5.51975 19.0681 5.5351 17.9344C5.54615 17.1183 4.88168 16.4538 4.06553 16.4649C2.93184 16.4802 2.21988 15.2471 2.80002 14.273C3.21767 13.5717 2.97446 12.664 2.26212 12.2655C1.27264 11.7119 1.27264 10.288 2.26212 9.73447C2.97446 9.33596 3.21767 8.42828 2.80002 7.72699C2.21988 6.75286 2.93184 5.51972 4.06552 5.53507C4.88168 5.54612 5.54615 4.88165 5.5351 4.06549C5.51975 2.93181 6.75289 2.21985 7.72702 2.79999C8.42831 3.21764 9.33599 2.97443 9.7345 2.26209Z" fill="#F4F4F4"/>
  <path d="M9 11.5L11.1074 13L14 7.99997" stroke="#7649FE" stroke-width="2" stroke-linecap="round" stroke-linejoin="round"/>
</svg>
