<svg width="20" height="20" viewBox="0 0 20 20" fill="none" xmlns="http://www.w3.org/2000/svg">
<g clip-path="url(#clip0_1067_7905)">
<path d="M17.6998 6.46562C17.5927 6.22548 17.4136 6.02455 17.1873 5.89062L10.4748 2.14062C10.3345 2.06178 10.1763 2.02036 10.0154 2.02036C9.85452 2.02036 9.69632 2.06178 9.55605 2.14062L2.84355 5.89062C2.61145 6.02202 2.42666 6.22321 2.31543 6.46562L9.9998 10.4687L17.6998 6.46562Z" fill="#FFCC00"/>
<path opacity="0.1" d="M17.1869 5.89062L10.4744 2.14062C10.3341 2.06178 10.1759 2.02036 10.015 2.02036C9.85413 2.02036 9.69593 2.06178 9.55566 2.14062L8.97754 2.45312L15.115 5.89062C15.3398 6.02552 15.5176 6.22626 15.6244 6.46562L8.96191 9.92812L9.99941 10.4687L17.6994 6.46562C17.5923 6.22548 17.4132 6.02455 17.1869 5.89062Z" fill="#222222"/>
<path d="M10 10.4687L2.3 6.46563C2.22623 6.62754 2.18788 6.80333 2.1875 6.98125V15L9.54063 19.1187C9.68089 19.1976 9.83909 19.239 10 19.239C10.1609 19.239 10.3191 19.1976 10.4594 19.1187L17.8125 15V6.98125C17.8121 6.80333 17.7738 6.62754 17.7 6.46563L10 10.4687Z" fill="white"/>
<path opacity="0.1" d="M8.75 10.4688L9.375 10.1563L2.3 6.46563C2.22623 6.62754 2.18788 6.80333 2.1875 6.98125V7.05625L8.75 10.4688Z" fill="#222222"/>
<path opacity="0.1" d="M17.7 6.46563L16.5625 7.05625V15L9.375 19.025L9.54063 19.1187C9.68089 19.1976 9.83909 19.239 10 19.239C10.1609 19.239 10.3191 19.1976 10.4594 19.1187L17.8125 15V6.98125C17.8121 6.80333 17.7738 6.62754 17.7 6.46563Z" fill="#222222"/>
<path d="M19.9215 13.8875C19.8812 13.815 19.8268 13.7512 19.7616 13.6998C19.6964 13.6485 19.6216 13.6107 19.5416 13.5886C19.4616 13.5665 19.378 13.5605 19.2957 13.5711C19.2133 13.5816 19.1339 13.6085 19.0621 13.65L18.4371 14.0031V7.05314C18.4373 6.71952 18.3485 6.39189 18.1799 6.10404C18.0112 5.81619 17.7689 5.57855 17.4777 5.41564L10.7621 1.65626C10.7178 1.63126 10.6719 1.60933 10.6246 1.59063V0.693757C10.6246 0.527996 10.5588 0.369025 10.4415 0.251815C10.3243 0.134604 10.1654 0.0687561 9.9996 0.0687561C9.83384 0.0687561 9.67487 0.134604 9.55766 0.251815C9.44045 0.369025 9.3746 0.527996 9.3746 0.693757V1.59063C9.32732 1.60933 9.28138 1.63126 9.2371 1.65626L2.52148 5.40626C2.22895 5.56995 1.98566 5.80906 1.81693 6.09871C1.6482 6.38835 1.5602 6.71793 1.5621 7.05314V14.0031L0.937102 13.65C0.86549 13.609 0.786497 13.5824 0.704632 13.5719C0.622767 13.5614 0.539633 13.5671 0.459978 13.5888C0.380323 13.6104 0.305706 13.6475 0.240387 13.6979C0.175068 13.7484 0.120327 13.8112 0.079289 13.8828C0.0382509 13.9544 0.0117196 14.0334 0.00120988 14.1153C-0.00929985 14.1972 -0.00358216 14.2803 0.0180365 14.36C0.0396551 14.4396 0.0767513 14.5142 0.127207 14.5795C0.177663 14.6449 0.24049 14.6996 0.312102 14.7406L9.23085 19.7406C9.46387 19.8709 9.72639 19.9393 9.99335 19.9393C10.2603 19.9393 10.5228 19.8709 10.7559 19.7406L19.6871 14.7406C19.7586 14.7001 19.8213 14.6458 19.8718 14.581C19.9223 14.5161 19.9594 14.4419 19.9812 14.3627C20.003 14.2834 20.0089 14.2007 19.9987 14.1192C19.9884 14.0376 19.9622 13.9589 19.9215 13.8875ZM9.3746 3.00938V6.63126C9.3746 6.79702 9.44045 6.95599 9.55766 7.0732C9.67487 7.19041 9.83384 7.25626 9.9996 7.25626C10.1654 7.25626 10.3243 7.19041 10.4415 7.0732C10.5588 6.95599 10.6246 6.79702 10.6246 6.63126V3.00938L16.6434 6.38126L9.9996 9.83439L3.35585 6.39689L9.3746 3.00938ZM9.84648 18.6344L2.8121 14.7031V7.50001L9.3746 10.9188V13.8188C9.3746 13.9845 9.44045 14.1435 9.55766 14.2607C9.67487 14.3779 9.83384 14.4438 9.9996 14.4438C10.1654 14.4438 10.3243 14.3779 10.4415 14.2607C10.5588 14.1435 10.6246 13.9845 10.6246 13.8188V10.9188L17.1871 7.50001V14.6875L10.1527 18.6438C10.1054 18.6684 10.0529 18.6813 9.9996 18.6813C9.94629 18.6813 9.89375 18.6684 9.84648 18.6438V18.6344Z" fill="#222222"/>
<path d="M10 16.9438C10.3452 16.9438 10.625 16.6639 10.625 16.3188C10.625 15.9736 10.3452 15.6938 10 15.6938C9.65482 15.6938 9.375 15.9736 9.375 16.3188C9.375 16.6639 9.65482 16.9438 10 16.9438Z" fill="#FFCC00"/>
</g>
<defs>
<clipPath id="clip0_1067_7905">
<rect width="20" height="20" fill="white"/>
</clipPath>
</defs>
</svg>
