<svg width="30" height="30" viewBox="0 0 30 30" fill="none" xmlns="http://www.w3.org/2000/svg">
<circle cx="15" cy="15" r="15" fill="#222222"/>
<path d="M16.75 10.625V10.625C16.75 10.0439 16.75 9.75332 16.6901 9.51404C16.5108 8.79819 15.9518 8.23925 15.236 8.05994C14.9967 8 14.7061 8 14.125 8H12C10.1144 8 9.17157 8 8.58579 8.58579C8 9.17157 8 10.1144 8 12V14.125C8 14.7061 8 14.9967 8.05994 15.236C8.23925 15.9518 8.79819 16.5108 9.51404 16.6901C9.75332 16.75 10.0439 16.75 10.625 16.75V16.75" stroke="#FFCC00" stroke-width="2"/>
<rect x="13.25" y="13.25" width="8.75" height="8.75" rx="2" stroke="#FFCC00" stroke-width="2"/>
</svg>
