<svg width="20" height="20" viewBox="0 0 20 20" fill="none" xmlns="http://www.w3.org/2000/svg">
<g clip-path="url(#clip0_1067_8001)">
<path d="M13.125 2.03125H1.25C0.904822 2.03125 0.625 2.31107 0.625 2.65625V17.3438C0.625 17.6889 0.904822 17.9688 1.25 17.9688H13.125C13.4702 17.9688 13.75 17.6889 13.75 17.3438V2.65625C13.75 2.31107 13.4702 2.03125 13.125 2.03125Z" fill="white"/>
<path d="M16.5625 8.59241L12.8125 5.46741L7.4762 6.99426C7.1229 7.09534 6.81213 7.30873 6.5909 7.60214C6.36966 7.89555 6.25 8.25303 6.25 8.6205V12.3451L16.5625 13.5951V14.5299H19.375V8.59241H16.5625Z" fill="#FFCC00"/>
<path d="M6.67625 15.2464L4.6875 15.4674L4.90847 13.4787L14.271 4.11612C14.5054 3.8817 14.8234 3.75 15.1549 3.75C15.4864 3.75 15.8044 3.8817 16.0388 4.11612C16.2732 4.35054 16.4049 4.66848 16.4049 5C16.4049 5.33152 16.2732 5.64946 16.0388 5.88388L6.67625 15.2464Z" fill="white"/>
<path d="M16.5625 14.6875H13.4375L9.60063 14.2079C9.27948 14.1677 8.98406 14.0117 8.76988 13.7691C8.55569 13.5264 8.4375 13.214 8.4375 12.8903C8.4375 12.5382 8.57739 12.2004 8.82641 11.9514C9.07542 11.7024 9.41315 11.5625 9.76531 11.5625H16.5625V14.6875Z" fill="#FFCC00"/>
<path opacity="0.1" d="M19.3188 8.59375H16.5625L14.8 7.12188L16.0375 5.88438C16.1536 5.76844 16.2458 5.63077 16.3087 5.47922C16.3717 5.32767 16.4041 5.1652 16.4043 5.00111C16.4044 4.83701 16.3722 4.67449 16.3096 4.52282C16.2469 4.37116 16.155 4.23333 16.0391 4.11719C15.9231 4.00105 15.7855 3.90888 15.6339 3.84595C15.4824 3.78302 15.3199 3.75055 15.1558 3.75041C14.9917 3.75026 14.8292 3.78244 14.6775 3.84511C14.5258 3.90777 14.388 3.99969 14.2719 4.11562L13.75 4.6375V3.3C13.5445 3.38704 13.3594 3.5158 13.2062 3.67813L12.0125 4.86875L6.67813 6.39687C6.19517 6.53597 5.77044 6.82812 5.46781 7.22937C5.16518 7.63063 5.00101 8.11929 5 8.62187V11.8813L3.84375 13.0406C3.74183 13.1397 3.67772 13.2712 3.6625 13.4125L3.44063 15.4C3.43113 15.493 3.44247 15.587 3.47382 15.6751C3.50517 15.7632 3.55575 15.8432 3.62187 15.9094C3.688 15.9755 3.76802 16.0261 3.85613 16.0574C3.94423 16.0888 4.03822 16.1001 4.13125 16.0906L6.11875 15.8687C6.25965 15.8522 6.39075 15.7883 6.49063 15.6875L7.92188 14.2594C8.20216 14.4855 8.53968 14.6293 8.89687 14.675L12.5 15.125V17.3438H0.625C0.625487 17.5094 0.691492 17.668 0.808596 17.7852C0.925701 17.9023 1.08439 17.9683 1.25 17.9688H13.125C13.2906 17.9682 13.4492 17.9021 13.5663 17.785C13.6834 17.668 13.7494 17.5093 13.75 17.3438V14.6875L19.3188 14.5312C19.3563 14.4344 19.3563 8.69063 19.3188 8.59375ZM6.25 8.62187C6.25021 8.39046 6.3256 8.16537 6.46481 7.98051C6.60402 7.79565 6.79952 7.66101 7.02187 7.59687L10.1906 6.69063L6.25 10.6313V8.62187ZM7.1875 12.7375C7.1892 12.8838 7.20701 13.0295 7.24062 13.1719L5.7625 14.65L4.77188 14.7594L4.88125 13.7688L14.0906 4.55938C14.2088 4.44512 14.3668 4.38125 14.5312 4.38125C14.6957 4.38125 14.8536 4.44512 14.9719 4.55938C15.0302 4.61731 15.0764 4.6862 15.108 4.76209C15.1396 4.83798 15.1558 4.91937 15.1558 5.00156C15.1558 5.08376 15.1396 5.16514 15.108 5.24103C15.0764 5.31692 15.0302 5.38582 14.9719 5.44375L9.62813 10.7844H9.14062C8.62268 10.7846 8.12601 10.9904 7.75976 11.3566C7.39352 11.7229 7.18769 12.2196 7.1875 12.7375ZM18.125 13.9062L12.85 13.9094L9.05312 13.4344C8.87564 13.4122 8.71329 13.3232 8.59915 13.1855C8.48501 13.0478 8.42768 12.8718 8.43884 12.6932C8.44999 12.5147 8.5288 12.3472 8.6592 12.2248C8.78959 12.1024 8.96177 12.0343 9.14062 12.0344L12.8125 12.0312C12.9783 12.0312 13.1372 11.9654 13.2544 11.8482C13.3717 11.731 13.4375 11.572 13.4375 11.4062C13.4375 11.2405 13.3717 11.0815 13.2544 10.9643C13.1372 10.8471 12.9783 10.7812 12.8125 10.7812H11.3969L14.1469 8.03437L15.5625 9.09375C15.6708 9.17464 15.8023 9.21848 15.9375 9.21875H18.125V13.9062ZM1.25 2.03125C1.08439 2.03173 0.925698 2.09774 0.808593 2.21484C0.691487 2.33195 0.625484 2.49064 0.625 2.65625H12.5C12.6656 2.65576 12.8243 2.58976 12.9414 2.47265C13.0585 2.35555 13.1245 2.19686 13.125 2.03125H1.25Z" fill="#222222"/>
<path opacity="0.1" d="M2.5 5.15625C2.84518 5.15625 3.125 4.87643 3.125 4.53125C3.125 4.18607 2.84518 3.90625 2.5 3.90625C2.15482 3.90625 1.875 4.18607 1.875 4.53125C1.875 4.87643 2.15482 5.15625 2.5 5.15625Z" fill="#222222"/>
<path d="M19.0625 7.96875H16.7703L15.6645 7.14121L16.4798 6.32599C16.8311 5.9746 17.0284 5.49805 17.0283 5.00118C17.0282 4.50431 16.8308 4.02782 16.4794 3.67654C16.128 3.32525 15.6515 3.12794 15.1546 3.12801C14.6577 3.12808 14.1812 3.32553 13.8299 3.67692L12.6384 4.86843L7.30407 6.39574C6.82092 6.535 6.39603 6.8273 6.09325 7.22873C5.79046 7.63016 5.62615 8.11901 5.625 8.62183V11.8819L4.46747 13.0394C4.36709 13.1396 4.30389 13.2711 4.28833 13.412L4.06646 15.3995C4.05687 15.4925 4.06813 15.5865 4.09943 15.6746C4.13073 15.7627 4.18128 15.8428 4.2474 15.9089C4.31351 15.975 4.39354 16.0256 4.48165 16.0569C4.56976 16.0882 4.66375 16.0995 4.75677 16.0899L6.74438 15.8681C6.88534 15.8523 7.01675 15.7891 7.117 15.6888L8.54583 14.2598C8.82674 14.4861 9.16511 14.6296 9.52302 14.6744L13.125 15.1247V17.3438H1.25V2.65625H13.125C13.2908 2.65625 13.4497 2.5904 13.5669 2.47319C13.6842 2.35598 13.75 2.19701 13.75 2.03125C13.75 1.86549 13.6842 1.70652 13.5669 1.58931C13.4497 1.4721 13.2908 1.40625 13.125 1.40625H1.25C0.918588 1.4066 0.600851 1.53841 0.366507 1.77276C0.132163 2.0071 0.000353217 2.32484 0 2.65625L0 17.3438C0.000353217 17.6752 0.132163 17.9929 0.366507 18.2272C0.600851 18.4616 0.918588 18.5934 1.25 18.5938H13.125C13.4564 18.5934 13.7741 18.4616 14.0085 18.2272C14.2428 17.9929 14.3746 17.6752 14.375 17.3438V15.159L19.0625 15.1562C19.3111 15.156 19.5494 15.0571 19.7251 14.8814C19.9009 14.7056 19.9997 14.4673 20 14.2188V8.90625C19.9997 8.65769 19.9009 8.41939 19.7251 8.24364C19.5494 8.06788 19.3111 7.96902 19.0625 7.96875ZM6.875 8.62183C6.87543 8.39054 6.95094 8.16566 7.09018 7.98099C7.22942 7.79632 7.42486 7.66185 7.64709 7.59781L10.8166 6.69031L6.875 10.6319V8.62183ZM6.38794 14.6501L5.39551 14.7609L5.50629 13.7683L14.7153 4.55932C14.8333 4.445 14.9913 4.38118 15.1556 4.38141C15.3199 4.38164 15.4777 4.4459 15.5954 4.56055C15.6538 4.61814 15.7003 4.68678 15.732 4.76247C15.7637 4.83817 15.78 4.9194 15.78 5.00146C15.7801 5.08352 15.7638 5.16477 15.7321 5.24048C15.7005 5.3162 15.6541 5.38487 15.5957 5.44251L10.2543 10.7836L9.76532 10.784C9.24758 10.7846 8.75123 10.9905 8.38513 11.3566C8.01904 11.7227 7.8131 12.2191 7.8125 12.7368C7.81415 12.8832 7.83244 13.0288 7.86701 13.171L6.38794 14.6501ZM18.75 13.9062L13.4762 13.909L9.67804 13.4341C9.50054 13.4119 9.33818 13.3229 9.22406 13.1851C9.10995 13.0474 9.05265 12.8713 9.06386 12.6928C9.07506 12.5142 9.15393 12.3467 9.28438 12.2243C9.41483 12.1019 9.58705 12.0338 9.76593 12.034L13.4381 12.0312C13.6039 12.0312 13.7628 11.9652 13.88 11.848C13.9971 11.7307 14.0629 11.5717 14.0628 11.4059C14.0627 11.2402 13.9968 11.0812 13.8795 10.9641C13.7623 10.8469 13.6033 10.7812 13.4375 10.7812H13.4369L12.0232 10.7823L14.7716 8.0341L16.188 9.0941C16.2961 9.17505 16.4275 9.21879 16.5625 9.21875H18.75V13.9062Z" fill="#222222"/>
<path d="M3.125 5.15625C3.47018 5.15625 3.75 4.87643 3.75 4.53125C3.75 4.18607 3.47018 3.90625 3.125 3.90625C2.77982 3.90625 2.5 4.18607 2.5 4.53125C2.5 4.87643 2.77982 5.15625 3.125 5.15625Z" fill="#FFCC00"/>
</g>
<defs>
<clipPath id="clip0_1067_8001">
<rect width="20" height="20" fill="white"/>
</clipPath>
</defs>
</svg>
