<svg width="36" height="36" viewBox="0 0 36 36" fill="none" xmlns="http://www.w3.org/2000/svg">
  <g opacity="0.4">
    <path d="M30.4954 6.26124C28.1651 5.20487 25.6734 4.43715 23.0683 4C22.7484 4.56041 22.3747 5.31417 22.117 5.91379C19.3477 5.5103 16.604 5.5103 13.8857 5.91379C13.6281 5.31417 13.2458 4.56041 12.923 4C10.3152 4.43715 7.82063 5.2077 5.49029 6.26684C0.789964 13.1485 -0.484217 19.8593 0.152875 26.4748C3.27038 28.7304 6.29161 30.1006 9.26186 30.9972C9.99523 30.0193 10.6493 28.9798 11.2128 27.8842C10.1396 27.4891 9.11179 27.0016 8.14061 26.4356C8.39826 26.2506 8.65028 26.0573 8.89377 25.8583C14.8173 28.5427 21.2534 28.5427 27.1061 25.8583C27.3525 26.0573 27.6044 26.2506 27.8593 26.4356C26.8852 27.0044 25.8546 27.4919 24.7814 27.887C25.3449 28.9798 25.9962 30.0221 26.7323 31C29.7055 30.1034 32.7295 28.7332 35.847 26.4748C36.5945 18.8058 34.57 12.1566 30.4954 6.26124ZM12.0198 22.4063C10.2416 22.4063 8.78333 20.798 8.78333 18.8394C8.78333 16.8808 10.2104 15.2696 12.0198 15.2696C13.8291 15.2696 15.2873 16.878 15.2562 18.8394C15.259 20.798 13.8291 22.4063 12.0198 22.4063ZM23.9801 22.4063C22.2019 22.4063 20.7437 20.798 20.7437 18.8394C20.7437 16.8808 22.1707 15.2696 23.9801 15.2696C25.7894 15.2696 27.2477 16.878 27.2165 18.8394C27.2165 20.798 25.7894 22.4063 23.9801 22.4063Z" fill="white"/>
  </g>
</svg>
