<svg width="16" height="20" viewBox="0 0 16 20" fill="none" xmlns="http://www.w3.org/2000/svg">
<path d="M7.68619 11.5374H9.56119C9.72529 11.5354 9.88198 11.4689 9.99732 11.3521C10.1127 11.2354 10.1773 11.0779 10.1773 10.9138C10.1773 10.7497 10.1126 10.5922 9.9973 10.4754C9.88196 10.3587 9.72526 10.2921 9.56117 10.2902H8.62369V9.97836C8.621 9.81437 8.55396 9.65802 8.43704 9.54301C8.32012 9.428 8.16268 9.36355 7.99868 9.36356C7.83468 9.36356 7.67724 9.42802 7.56033 9.54303C7.44341 9.65805 7.37638 9.8144 7.37369 9.97838V10.3183C5.13712 10.742 5.39427 13.9787 7.68623 14.0319H8.31119C8.39321 14.0317 8.47445 14.0477 8.55027 14.079C8.62609 14.1102 8.69501 14.1561 8.75306 14.2141C8.81112 14.272 8.85718 14.3408 8.88861 14.4166C8.92004 14.4923 8.93621 14.5735 8.93621 14.6555C8.93621 14.7375 8.92004 14.8187 8.88861 14.8945C8.85718 14.9703 8.81112 15.0391 8.75306 15.097C8.69501 15.1549 8.62609 15.2008 8.55027 15.2321C8.47445 15.2633 8.39321 15.2793 8.31119 15.2791H6.43619C6.27215 15.2812 6.11551 15.3478 6.00023 15.4645C5.88495 15.5813 5.82031 15.7387 5.82031 15.9028C5.82032 16.0668 5.88497 16.2243 6.00025 16.341C6.11554 16.4577 6.27217 16.5243 6.43622 16.5264H7.37369V16.8382C7.37639 17.0022 7.44343 17.1585 7.56035 17.2735C7.67727 17.3886 7.8347 17.453 7.99871 17.453C8.16271 17.453 8.32014 17.3885 8.43706 17.2735C8.55397 17.1585 8.621 17.0022 8.62369 16.8382V16.4982C10.8598 16.0751 10.6035 12.8378 8.31116 12.7847H7.68619C7.52217 12.7826 7.36556 12.716 7.25031 12.5992C7.13505 12.4825 7.07042 12.3251 7.07042 12.161C7.07042 11.997 7.13505 11.8396 7.25031 11.7228C7.36556 11.6061 7.52217 11.5395 7.68619 11.5374V11.5374Z" fill="#F4F4F4"/>
<path d="M11.1408 4.02068L11.5384 1.83839C11.5774 1.61368 11.567 1.38316 11.5078 1.16289C11.4487 0.942622 11.3422 0.737889 11.1959 0.562946C11.0496 0.388002 10.8669 0.247051 10.6605 0.149904C10.4542 0.0527563 10.2291 0.00174728 10.0011 0.000427246H5.99778C5.76971 0.00175132 5.54466 0.0527646 5.33832 0.149916C5.13197 0.247067 4.94927 0.388022 4.80295 0.562969C4.65662 0.737916 4.55018 0.942651 4.49104 1.16292C4.43189 1.38319 4.42146 1.61371 4.46047 1.83842L4.8581 4.0207C2.48759 5.75405 0.186923 9.07415 0.186923 12.108C0.176474 13.1406 0.370833 14.1651 0.758762 15.1221C1.14669 16.0791 1.72049 16.9498 2.44699 17.6836C3.17348 18.4175 4.03826 19.0001 4.99131 19.3977C5.94435 19.7953 6.96677 20 7.99942 20C9.03208 20 10.0545 19.7953 11.0075 19.3977C11.9606 19.0001 12.8254 18.4175 13.5519 17.6836C14.2784 16.9498 14.8522 16.0791 15.2401 15.1221C15.628 14.1651 15.8224 13.1406 15.8119 12.108C15.8119 9.07415 13.5113 5.75405 11.1408 4.02068V4.02068ZM5.75775 1.35971C5.78695 1.3244 5.82363 1.29603 5.86514 1.27665C5.90666 1.25727 5.95196 1.24736 5.99778 1.24765H10.0011C10.2379 1.28311 10.316 1.37626 10.3085 1.61519L9.97788 3.43033H8.62442C8.62173 3.26635 8.5547 3.10999 8.43778 2.99498C8.32086 2.87997 8.16343 2.81551 7.99942 2.81551C7.83542 2.81551 7.67799 2.87997 7.56107 2.99498C7.44415 3.10999 7.37712 3.26635 7.37442 3.43033H6.02099L5.69031 1.61519C5.68185 1.57027 5.68352 1.52403 5.69518 1.47983C5.70685 1.43564 5.72823 1.3946 5.75775 1.35971V1.35971ZM7.99942 18.7527C6.24868 18.7398 4.57455 18.033 3.34428 16.7873C2.11401 15.5416 1.42807 13.8588 1.43692 12.1081C1.43692 9.33828 3.8299 6.07517 6.11403 4.67758H7.37442V5.3012C7.37442 5.46696 7.44027 5.62593 7.55748 5.74314C7.67469 5.86035 7.83366 5.9262 7.99942 5.9262C8.16518 5.9262 8.32416 5.86035 8.44137 5.74314C8.55858 5.62593 8.62442 5.46696 8.62442 5.3012V4.67757H9.88482C12.1689 6.07516 14.5619 9.33827 14.5619 12.108C14.5708 13.8588 13.8848 15.5416 12.6546 16.7873C11.4243 18.033 9.75017 18.7398 7.99942 18.7527V18.7527Z" fill="#F4F4F4"/>
<path d="M7.99945 8.1075C8.16345 8.10539 8.32002 8.03875 8.43525 7.92203C8.55048 7.8053 8.61508 7.64789 8.61508 7.48387C8.61508 7.31985 8.55046 7.16243 8.43523 7.04571C8.32 6.92899 8.16342 6.86237 7.99942 6.86026C7.83542 6.86237 7.67885 6.92901 7.56362 7.04573C7.44839 7.16246 7.38379 7.31988 7.38379 7.48389C7.38379 7.64791 7.44841 7.80533 7.56364 7.92205C7.67887 8.03877 7.83544 8.1054 7.99945 8.1075V8.1075Z" fill="#F4F4F4"/>
</svg>
