<svg width="20" height="20" viewBox="0 0 20 20" fill="none" xmlns="http://www.w3.org/2000/svg">
  <path d="M15.6257 11.875C14.8509 11.8759 14.0955 12.1167 13.4631 12.5644C12.8308 13.012 12.3527 13.6446 12.0944 14.375H9.06317C9.00695 13.2889 8.53976 12.2647 7.75634 11.5103C6.97292 10.7559 5.93191 10.3277 4.84442 10.3125C3.70502 10.3339 2.6207 10.8066 1.82967 11.627C1.03864 12.4473 0.605591 13.5481 0.625668 14.6875C0.605591 15.8269 1.03864 16.9277 1.82967 17.748C2.6207 18.5684 3.70502 19.0411 4.84442 19.0625C5.00109 19.0627 5.15763 19.0533 5.31317 19.0344V19.375H15.3132H15.6257C16.6202 19.375 17.5741 18.9799 18.2773 18.2767C18.9806 17.5734 19.3757 16.6196 19.3757 15.625C19.3757 14.6304 18.9806 13.6766 18.2773 12.9733C17.5741 12.2701 16.6202 11.875 15.6257 11.875Z" fill="#0A42EA"/>
  <path d="M8.74977 7.1875L10.6248 8.4375V10.9375L13.1248 10.3125L14.0623 11.875C14.0623 11.875 12.4998 16.875 5.93727 16.25C5.93727 16.25 4.68726 10.9375 8.74977 7.1875Z" fill="white" fill-opacity="0.2"/>
  <path opacity="0.1" d="M8.125 7.8124L13.125 11.8749C13.125 11.8749 11.25 15.3124 5.9375 16.2499L9.0625 16.1718L12.1875 14.5468L14.375 12.0905L14.0625 10.9374L8.96875 7.3374L8.125 7.8124Z" fill="#F4F4F4"/>
  <path d="M14.375 2.1875L17.8125 5L19.0625 4.375L19.375 3.125L16.25 0.3125L15 1.25L14.375 2.1875Z" fill="#0A42EA"/>
  <path d="M16.875 4.6875L12.8125 10L10.625 10.625V8.4375L15.625 2.8125L17.3344 3.75L16.875 4.6875Z" fill="#0A42EA"/>
  <path opacity="0.1" d="M14.875 4.0623L15.625 4.6873L10.625 10.6248L12.8125 10.3123L16.875 4.9998L16.5625 3.7498L15.3031 3.1748L14.875 4.0623Z" fill="#F4F4F4"/>
  <path opacity="0.1" d="M14.9131 12.728C14.9131 12.728 18.1256 12.8124 18.1256 15.9374C18.1256 15.9374 18.1256 18.1249 15.6256 19.0624L17.5256 18.903L19.3756 16.8749V14.3749L18.4381 12.8124L16.2975 11.9312L14.9131 12.728Z" fill="#F4F4F4"/>
  <path opacity="0.1" d="M15.3438 1.25L18.1063 3.39687C18.1303 3.4141 18.1505 3.43607 18.1656 3.46143C18.1808 3.48679 18.1906 3.515 18.1944 3.5443C18.1982 3.57361 18.196 3.60338 18.1878 3.63178C18.1796 3.66017 18.1657 3.68659 18.1469 3.70937L17.375 4.6875H18.1562L19.0938 4.0625V3.125L15.9688 0.625L15.3438 1.25Z" fill="#F4F4F4"/>
  <path d="M15.6671 11.3843C15.3763 11.3834 15.0862 11.4127 14.8015 11.4718C14.725 11.1385 14.539 10.8403 14.2734 10.6249L13.5452 10.0343L17.2952 5.39368C17.6144 5.56232 17.9821 5.61524 18.3359 5.54346C18.6897 5.47168 19.0077 5.27962 19.2359 4.99993L19.6265 4.51555C19.8844 4.19447 20.0052 3.78452 19.9625 3.37487C19.9198 2.96522 19.717 2.589 19.3984 2.32805L16.9702 0.359302C16.6488 0.101697 16.2386 -0.0185312 15.8289 0.0247766C15.4192 0.0680845 15.0432 0.271424 14.7827 0.590552L14.3765 1.06555C14.1491 1.34441 14.0249 1.69322 14.0249 2.05305C14.0249 2.41289 14.1491 2.76169 14.3765 3.04055L13.5796 4.02493C13.4837 4.15452 13.4415 4.31618 13.462 4.47613C13.4824 4.63608 13.5639 4.78193 13.6894 4.8832C13.8149 4.98447 13.9746 5.03333 14.1353 5.01956C14.2959 5.00579 14.4451 4.93045 14.5515 4.8093L15.3296 3.85305L16.2984 4.64055L12.2827 9.6093L11.1109 10.0656L11.3109 8.81555L13.0265 6.69368C13.0855 6.63107 13.1309 6.55695 13.1599 6.47597C13.189 6.395 13.201 6.3089 13.1952 6.22307C13.1894 6.13724 13.166 6.05353 13.1263 5.97717C13.0867 5.90082 13.0317 5.83347 12.9649 5.77934C12.898 5.72521 12.8207 5.68546 12.7378 5.66258C12.6549 5.63971 12.5681 5.6342 12.483 5.6464C12.3978 5.6586 12.3161 5.68824 12.2429 5.73348C12.1697 5.77872 12.1067 5.83858 12.0577 5.9093L10.6296 7.6718L9.89836 7.07805C9.5765 6.8208 9.16606 6.7011 8.75637 6.74499C8.34668 6.78889 7.97091 6.99283 7.71086 7.31243C7.16398 7.99993 6.27023 9.00618 5.91398 9.7718C-1.06102 9.0218 -2.33289 18.9312 4.62023 19.9999H15.6671C21.3827 19.7624 21.3827 11.6218 15.6671 11.3843ZM15.3546 1.85305L15.7484 1.36555C15.7741 1.33345 15.806 1.30676 15.8422 1.28702C15.8783 1.26728 15.918 1.25487 15.9589 1.25052C15.9999 1.24616 16.0413 1.24994 16.0808 1.26164C16.1202 1.27333 16.157 1.29272 16.189 1.31868L18.6171 3.28743C18.6496 3.31243 18.6764 3.344 18.6957 3.38009C18.7151 3.41617 18.7267 3.45595 18.7296 3.4968C18.7765 3.68118 18.4171 3.99055 18.2702 4.21243C18.218 4.27604 18.1427 4.31647 18.0609 4.32493C18.0199 4.32979 17.9784 4.3265 17.9387 4.31524C17.899 4.30398 17.8619 4.28496 17.8296 4.2593L15.4015 2.29055C15.3379 2.2383 15.2974 2.16306 15.289 2.08118C15.2782 2.0003 15.2995 1.91843 15.3484 1.85305H15.3546ZM8.67649 8.12493C8.72805 8.06054 8.80298 8.01915 8.88493 8.00978C8.96689 8.00041 9.04922 8.02383 9.11399 8.07493L10.0515 8.8343L9.69836 10.9374C9.68033 11.0463 9.69145 11.158 9.7306 11.2612C9.76975 11.3644 9.83553 11.4554 9.92125 11.5249C10.007 11.5945 10.1096 11.6401 10.2186 11.6571C10.3277 11.6741 10.4393 11.6619 10.5421 11.6218L12.5546 10.8406L13.4921 11.5968C13.5556 11.6493 13.5957 11.7246 13.6039 11.8066C13.6121 11.8885 13.5877 11.9703 13.5359 12.0343L12.5515 13.2499C10.6765 15.5812 7.59523 15.7812 6.48273 15.7749C6.22648 14.6874 5.80461 11.6499 7.68898 9.3218L8.67649 8.12493ZM15.6671 18.7499H4.80461C4.76685 18.7383 4.72817 18.7299 4.68898 18.7249C-0.15789 18.0406 0.232734 11.1093 5.12023 10.9593C5.21711 10.9593 5.31398 10.9593 5.40773 10.9781C5.05566 12.1284 4.9273 13.3356 5.02961 14.5343C4.97235 14.644 4.89392 14.7414 4.79885 14.8206C4.70378 14.8999 4.59396 14.9596 4.47571 14.9962C4.35746 15.0328 4.23314 15.0456 4.10991 15.0339C3.98668 15.0222 3.86699 14.9862 3.75773 14.9281C3.61141 14.8508 3.44041 14.8347 3.28224 14.8833C3.12407 14.9319 2.99164 15.0413 2.91398 15.1874C2.54523 15.9656 3.60148 16.3031 4.19523 16.2874C4.5633 16.2879 4.92552 16.1954 5.24836 16.0187C5.32024 16.3312 5.38273 16.5406 5.39211 16.5781C5.64836 17.1156 5.89211 16.9999 6.59523 17.0374C8.01086 17.0374 11.3452 16.7249 13.5171 14.0437L14.4546 12.8812C16.4046 11.9999 18.7702 13.5406 18.7234 15.6937C18.7217 16.5037 18.3992 17.2801 17.8264 17.8529C17.2536 18.4257 16.4772 18.7483 15.6671 18.7499Z" fill="#F4F4F4"/>
  <path d="M16.7188 14.375C15.9316 14.3758 15.177 14.6889 14.6204 15.2454C14.0639 15.802 13.7508 16.5566 13.75 17.3438C13.75 17.5095 13.8158 17.6685 13.9331 17.7857C14.0503 17.9029 14.2092 17.9688 14.375 17.9688C14.5408 17.9688 14.6997 17.9029 14.8169 17.7857C14.9342 17.6685 15 17.5095 15 17.3438C15.0008 16.8882 15.1822 16.4515 15.5043 16.1293C15.8265 15.8072 16.2632 15.6258 16.7188 15.625C16.8845 15.625 17.0435 15.5592 17.1607 15.4419C17.2779 15.3247 17.3438 15.1658 17.3438 15C17.3438 14.8342 17.2779 14.6753 17.1607 14.5581C17.0435 14.4408 16.8845 14.375 16.7188 14.375Z" fill="#F4F4F4"/>
  <path d="M8.75 13.4375C8.91576 13.4375 9.07473 13.3717 9.19194 13.2544C9.30915 13.1372 9.375 12.9783 9.375 12.8125C9.375 12.6467 9.30915 12.4878 9.19194 12.3706C9.07473 12.2533 8.91576 12.1875 8.75 12.1875C8.58424 12.1875 8.42527 12.2533 8.30806 12.3706C8.19085 12.4878 8.125 12.6467 8.125 12.8125C8.125 12.9783 8.19085 13.1372 8.30806 13.2544C8.42527 13.3717 8.58424 13.4375 8.75 13.4375Z" fill="#0A42EA"/>
</svg>

