<svg width="20" height="20" viewBox="0 0 20 20" fill="none" xmlns="http://www.w3.org/2000/svg">
<g clip-path="url(#clip0_1335_1793)">
<path d="M15.6257 11.875C14.8509 11.8759 14.0955 12.1167 13.4631 12.5644C12.8308 13.012 12.3527 13.6446 12.0944 14.375H9.06317C9.00695 13.2889 8.53976 12.2647 7.75634 11.5103C6.97292 10.7559 5.93191 10.3277 4.84442 10.3125C3.70502 10.3339 2.6207 10.8066 1.82967 11.627C1.03864 12.4473 0.605591 13.5481 0.625668 14.6875C0.605591 15.8269 1.03864 16.9277 1.82967 17.748C2.6207 18.5684 3.70502 19.0411 4.84442 19.0625C5.00109 19.0627 5.15763 19.0533 5.31317 19.0344V19.375H15.3132H15.6257C16.6202 19.375 17.5741 18.9799 18.2773 18.2767C18.9806 17.5734 19.3757 16.6196 19.3757 15.625C19.3757 14.6304 18.9806 13.6766 18.2773 12.9733C17.5741 12.2701 16.6202 11.875 15.6257 11.875Z" fill="#2F2542"/>
<path d="M8.74977 7.1875L10.6248 8.4375V10.9375L13.1248 10.3125L14.0623 11.875C14.0623 11.875 12.4998 16.875 5.93727 16.25C5.93727 16.25 4.68726 10.9375 8.74977 7.1875Z" fill="#7649FE"/>
<path opacity="0.1" d="M8.125 7.81252L13.125 11.875C13.125 11.875 11.25 15.3125 5.9375 16.25L9.0625 16.1719L12.1875 14.5469L14.375 12.0906L14.0625 10.9375L8.96875 7.33752L8.125 7.81252Z" fill="#F4F4F4"/>
<path d="M14.375 2.1875L17.8125 5L19.0625 4.375L19.375 3.125L16.25 0.3125L15 1.25L14.375 2.1875Z" fill="#2F2542"/>
<path d="M16.875 4.6875L12.8125 10L10.625 10.625V8.4375L15.625 2.8125L17.3344 3.75L16.875 4.6875Z" fill="#2F2542"/>
<path opacity="0.1" d="M14.875 4.06247L15.625 4.68747L10.625 10.625L12.8125 10.3125L16.875 4.99997L16.5625 3.74997L15.3031 3.17497L14.875 4.06247Z" fill="#F4F4F4"/>
<path opacity="0.1" d="M14.9131 12.7281C14.9131 12.7281 18.1256 12.8125 18.1256 15.9375C18.1256 15.9375 18.1256 18.125 15.6256 19.0625L17.5256 18.9031L19.3756 16.875V14.375L18.4381 12.8125L16.2975 11.9312L14.9131 12.7281Z" fill="#F4F4F4"/>
<path opacity="0.1" d="M15.3438 1.25L18.1063 3.39687C18.1303 3.4141 18.1505 3.43607 18.1656 3.46143C18.1808 3.48679 18.1906 3.515 18.1944 3.5443C18.1982 3.57361 18.196 3.60338 18.1878 3.63178C18.1796 3.66017 18.1657 3.68659 18.1469 3.70937L17.375 4.6875H18.1562L19.0938 4.0625V3.125L15.9688 0.625L15.3438 1.25Z" fill="#F4F4F4"/>
<path d="M15.6671 11.3844C15.3763 11.3835 15.0862 11.4128 14.8015 11.4719C14.725 11.1385 14.539 10.8404 14.2734 10.625L13.5452 10.0344L17.2952 5.39375C17.6144 5.56239 17.9821 5.61532 18.3359 5.54354C18.6897 5.47176 19.0077 5.2797 19.2359 5L19.6265 4.51563C19.8844 4.19454 20.0052 3.78459 19.9625 3.37494C19.9198 2.96529 19.717 2.58908 19.3984 2.32813L16.9702 0.359378C16.6488 0.101773 16.2386 -0.0184549 15.8289 0.0248529C15.4192 0.0681608 15.0432 0.2715 14.7827 0.590628L14.3765 1.06563C14.1491 1.34449 14.0249 1.69329 14.0249 2.05313C14.0249 2.41296 14.1491 2.76177 14.3765 3.04063L13.5796 4.025C13.4837 4.1546 13.4415 4.31626 13.462 4.47621C13.4824 4.63615 13.5639 4.78201 13.6894 4.88328C13.8149 4.98455 13.9746 5.03341 14.1353 5.01963C14.2959 5.00586 14.4451 4.93053 14.5515 4.80938L15.3296 3.85313L16.2984 4.64063L12.2827 9.60938L11.1109 10.0656L11.3109 8.81563L13.0265 6.69375C13.0855 6.63114 13.1309 6.55703 13.1599 6.47605C13.189 6.39507 13.201 6.30897 13.1952 6.22314C13.1894 6.13731 13.166 6.0536 13.1263 5.97725C13.0867 5.9009 13.0317 5.83355 12.9649 5.77941C12.898 5.72528 12.8207 5.68553 12.7378 5.66266C12.6549 5.63978 12.5681 5.63427 12.483 5.64647C12.3978 5.65867 12.3161 5.68832 12.2429 5.73356C12.1697 5.7788 12.1067 5.83865 12.0577 5.90938L10.6296 7.67188L9.89836 7.07813C9.5765 6.82088 9.16606 6.70118 8.75637 6.74507C8.34668 6.78897 7.97091 6.99291 7.71086 7.3125C7.16398 8 6.27023 9.00625 5.91398 9.77188C-1.06102 9.02188 -2.33289 18.9313 4.62023 20H15.6671C21.3827 19.7625 21.3827 11.6219 15.6671 11.3844ZM15.3546 1.85313L15.7484 1.36563C15.7741 1.33353 15.806 1.30684 15.8422 1.2871C15.8783 1.26735 15.918 1.25495 15.9589 1.25059C15.9999 1.24624 16.0413 1.25002 16.0808 1.26171C16.1202 1.27341 16.157 1.2928 16.189 1.31875L18.6171 3.2875C18.6496 3.3125 18.6764 3.34408 18.6957 3.38016C18.7151 3.41625 18.7267 3.45602 18.7296 3.49688C18.7765 3.68125 18.4171 3.99063 18.2702 4.2125C18.218 4.27612 18.1427 4.31654 18.0609 4.325C18.0199 4.32987 17.9784 4.32658 17.9387 4.31532C17.899 4.30405 17.8619 4.28504 17.8296 4.25938L15.4015 2.29063C15.3379 2.23838 15.2974 2.16314 15.289 2.08125C15.2782 2.00038 15.2995 1.9185 15.3484 1.85313H15.3546ZM8.67649 8.125C8.72805 8.06061 8.80298 8.01922 8.88493 8.00985C8.96689 8.00049 9.04922 8.02391 9.11399 8.075L10.0515 8.83438L9.69836 10.9375C9.68033 11.0464 9.69145 11.1581 9.7306 11.2613C9.76975 11.3645 9.83553 11.4555 9.92125 11.525C10.007 11.5945 10.1096 11.6401 10.2186 11.6571C10.3277 11.6742 10.4393 11.662 10.5421 11.6219L12.5546 10.8406L13.4921 11.5969C13.5556 11.6493 13.5957 11.7247 13.6039 11.8066C13.6121 11.8886 13.5877 11.9704 13.5359 12.0344L12.5515 13.25C10.6765 15.5813 7.59523 15.7813 6.48273 15.775C6.22648 14.6875 5.80461 11.65 7.68898 9.32188L8.67649 8.125ZM15.6671 18.75H4.80461C4.76685 18.7384 4.72817 18.73 4.68898 18.725C-0.15789 18.0406 0.232734 11.1094 5.12023 10.9594C5.21711 10.9594 5.31398 10.9594 5.40773 10.9781C5.05566 12.1285 4.9273 13.3357 5.02961 14.5344C4.97235 14.6441 4.89392 14.7414 4.79885 14.8207C4.70378 14.9 4.59396 14.9596 4.47571 14.9962C4.35746 15.0329 4.23314 15.0457 4.10991 15.034C3.98668 15.0223 3.86699 14.9863 3.75773 14.9281C3.61141 14.8509 3.44041 14.8348 3.28224 14.8834C3.12407 14.932 2.99164 15.0414 2.91398 15.1875C2.54523 15.9656 3.60148 16.3031 4.19523 16.2875C4.5633 16.2879 4.92552 16.1955 5.24836 16.0188C5.32024 16.3313 5.38273 16.5406 5.39211 16.5781C5.64836 17.1156 5.89211 17 6.59523 17.0375C8.01086 17.0375 11.3452 16.725 13.5171 14.0438L14.4546 12.8813C16.4046 12 18.7702 13.5406 18.7234 15.6938C18.7217 16.5038 18.3992 17.2802 17.8264 17.853C17.2536 18.4258 16.4772 18.7484 15.6671 18.75Z" fill="#F4F4F4"/>
<path d="M16.7188 14.375C15.9316 14.3758 15.177 14.6889 14.6204 15.2454C14.0639 15.802 13.7508 16.5566 13.75 17.3438C13.75 17.5095 13.8158 17.6685 13.9331 17.7857C14.0503 17.9029 14.2092 17.9688 14.375 17.9688C14.5408 17.9688 14.6997 17.9029 14.8169 17.7857C14.9342 17.6685 15 17.5095 15 17.3438C15.0008 16.8882 15.1822 16.4515 15.5043 16.1293C15.8265 15.8072 16.2632 15.6258 16.7188 15.625C16.8845 15.625 17.0435 15.5592 17.1607 15.4419C17.2779 15.3247 17.3438 15.1658 17.3438 15C17.3438 14.8342 17.2779 14.6753 17.1607 14.5581C17.0435 14.4408 16.8845 14.375 16.7188 14.375Z" fill="#F4F4F4"/>
<path d="M8.75 13.4375C8.91576 13.4375 9.07473 13.3717 9.19194 13.2544C9.30915 13.1372 9.375 12.9783 9.375 12.8125C9.375 12.6467 9.30915 12.4878 9.19194 12.3706C9.07473 12.2533 8.91576 12.1875 8.75 12.1875C8.58424 12.1875 8.42527 12.2533 8.30806 12.3706C8.19085 12.4878 8.125 12.6467 8.125 12.8125C8.125 12.9783 8.19085 13.1372 8.30806 13.2544C8.42527 13.3717 8.58424 13.4375 8.75 13.4375Z" fill="#2F2542"/>
</g>
<defs>
<clipPath id="clip0_1335_1793">
<rect width="20" height="20" fill="white"/>
</clipPath>
</defs>
</svg>
