<svg width="20" height="20" viewBox="0 0 20 20" fill="none" xmlns="http://www.w3.org/2000/svg">
  <path d="M19.375 7.00928C19.375 5.84896 18.9141 4.73616 18.0936 3.91569C17.2731 3.09521 16.1603 2.63428 15 2.63428H10V11.3843H11.1285C11.9476 14.1545 13.3058 17.0197 14.8438 17.0197C17.3463 17.0197 19.375 9.43359 19.375 7.01448L19.3749 7.01193L19.375 7.00928Z" fill="#0A42EA"/>
  <path opacity="0.1" d="M4.6875 5.13135C4.02473 5.13223 3.38935 5.3959 2.9207 5.86455C2.45205 6.3332 2.18838 6.96857 2.1875 7.63134C2.3137 10.9432 7.0618 10.9423 7.1875 7.63131C7.18661 6.96854 6.92294 6.33318 6.45429 5.86454C5.98564 5.39589 5.35027 5.13223 4.6875 5.13135ZM4.6875 8.88134C3.03881 8.8399 3.03913 6.42254 4.68754 6.38134C6.33619 6.42278 6.33587 8.84014 4.6875 8.88134Z" fill="white" fill-opacity="0.2"/>
  <path opacity="0.1" d="M14.0625 5.12939C13.8967 5.1294 13.7378 5.19525 13.6206 5.31246C13.5034 5.42967 13.4375 5.58864 13.4375 5.75439V7.00439H12.1875C12.0217 7.00439 11.8628 7.07024 11.7456 7.18745C11.6283 7.30466 11.5625 7.46363 11.5625 7.62939C11.5625 7.79515 11.6283 7.95413 11.7456 8.07134C11.8628 8.18855 12.0217 8.2544 12.1875 8.2544H13.4375V9.5044C13.4375 9.67016 13.5033 9.82913 13.6206 9.94634C13.7378 10.0635 13.8967 10.1294 14.0625 10.1294C14.2283 10.1294 14.3872 10.0635 14.5044 9.94634C14.6217 9.82913 14.6875 9.67016 14.6875 9.5044V8.2544H15.9375C16.1033 8.2544 16.2622 8.18855 16.3794 8.07134C16.4967 7.95413 16.5625 7.79515 16.5625 7.62939C16.5625 7.46363 16.4967 7.30466 16.3794 7.18745C16.2622 7.07024 16.1033 7.00439 15.9375 7.00439H14.6875V5.75439C14.6875 5.58864 14.6216 5.42967 14.5044 5.31246C14.3872 5.19525 14.2283 5.1294 14.0625 5.12939Z" fill="white" fill-opacity="0.2"/>
  <path opacity="0.1" d="M0.643555 6.61553C0.741764 5.52795 1.24318 4.51642 2.04926 3.77973C2.85534 3.04304 3.9078 2.63445 4.99981 2.63428H6.08106C6.07809 2.79825 6.011 2.95453 5.89416 3.06961C5.77733 3.18469 5.62005 3.24941 5.45606 3.2499H4.37481C3.44694 3.25077 2.55225 3.59514 1.86326 4.21662C1.17426 4.8381 0.73977 5.69266 0.643555 6.61553Z" fill="white" fill-opacity="0.2"/>
  <path opacity="0.1" d="M19.3752 6.9999C19.335 7.87328 19.2169 8.74132 19.0221 9.59365C17.2401 17.274 13.9255 20.6345 11.1283 11.3843H8.87207C5.95919 21.0119 2.55296 16.8432 0.90332 9.21553C1.54082 12.278 3.14082 16.3843 4.53145 16.3843C5.31895 16.3843 6.5877 14.7812 7.64707 11.1968C7.68528 11.0674 7.76441 10.9539 7.8726 10.8733C7.98078 10.7928 8.11218 10.7495 8.24707 10.7499H10.5033C10.6382 10.7495 10.7696 10.7928 10.8778 10.8733C10.986 10.9539 11.0651 11.0674 11.1033 11.1968C12.1627 14.7812 13.4314 16.3843 14.2189 16.3843C15.9971 16.3843 18.1252 9.65615 18.1252 7.00615C18.1257 6.01086 17.731 5.05609 17.0278 4.35172C16.3246 3.64736 15.3705 3.25104 14.3752 3.2499H13.2908C13.1268 3.24942 12.9695 3.1847 12.8527 3.06961C12.7359 2.95453 12.6688 2.79825 12.6658 2.63428H15.0002C16.1587 2.63496 17.2697 3.09483 18.0897 3.91313C18.9098 4.73143 19.372 5.84142 19.3752 6.9999Z" fill="white" fill-opacity="0.2"/>
  <path opacity="0.1" d="M8.75 3.25448C8.75244 3.41864 8.81936 3.57524 8.93631 3.69046C9.05326 3.80569 9.21084 3.87027 9.37501 3.87027C9.53919 3.87026 9.69677 3.80567 9.81371 3.69045C9.93065 3.57522 9.99757 3.41861 10 3.25446C9.99756 3.0903 9.93064 2.9337 9.81369 2.81847C9.69674 2.70325 9.53916 2.63867 9.37499 2.63867C9.21081 2.63868 9.05323 2.70327 8.93629 2.81849C8.81935 2.93372 8.75243 3.09033 8.75 3.25448Z" fill="white" fill-opacity="0.2"/>
  <path d="M5.3125 5.12965C4.81805 5.12965 4.3347 5.27628 3.92358 5.55098C3.51245 5.82568 3.19202 6.21613 3.0028 6.67295C2.81358 7.12976 2.76407 7.63243 2.86054 8.11738C2.957 8.60233 3.1951 9.04779 3.54473 9.39742C3.89437 9.74705 4.33982 9.98515 4.82478 10.0816C5.30973 10.1781 5.81239 10.1286 6.26921 9.93935C6.72603 9.75013 7.11647 9.4297 7.39118 9.01858C7.66588 8.60746 7.8125 8.12411 7.8125 7.62965C7.81162 6.96688 7.54795 6.33151 7.0793 5.86286C6.61065 5.39421 5.97527 5.13053 5.3125 5.12965ZM5.3125 8.87965C5.06527 8.87965 4.8236 8.80634 4.61804 8.66899C4.41248 8.53164 4.25226 8.33642 4.15765 8.10801C4.06304 7.8796 4.03829 7.62827 4.08652 7.38579C4.13475 7.14331 4.2538 6.92059 4.42862 6.74577C4.60343 6.57096 4.82616 6.4519 5.06864 6.40367C5.31111 6.35544 5.56245 6.3802 5.79086 6.4748C6.01926 6.56941 6.21449 6.72963 6.35184 6.93519C6.48919 7.14075 6.5625 7.38243 6.5625 7.62965C6.56255 7.79382 6.53025 7.95638 6.46744 8.10806C6.40464 8.25974 6.31257 8.39756 6.19649 8.51364C6.08041 8.62972 5.94259 8.7218 5.79091 8.7846C5.63923 8.8474 5.47667 8.8797 5.3125 8.87965Z" fill="#F4F4F4"/>
  <path d="M14.6875 5.12965C14.5217 5.12966 14.3628 5.19551 14.2456 5.31272C14.1284 5.42993 14.0625 5.5889 14.0625 5.75465V7.00465H12.8125C12.6467 7.00465 12.4878 7.0705 12.3706 7.18771C12.2533 7.30492 12.1875 7.46389 12.1875 7.62965C12.1875 7.79541 12.2533 7.95439 12.3706 8.0716C12.4878 8.18881 12.6467 8.25465 12.8125 8.25465H14.0625V9.50465C14.0625 9.67041 14.1283 9.82939 14.2456 9.9466C14.3628 10.0638 14.5217 10.1297 14.6875 10.1297C14.8533 10.1297 15.0122 10.0638 15.1294 9.9466C15.2467 9.82939 15.3125 9.67041 15.3125 9.50465V8.25465H16.5625C16.7283 8.25465 16.8872 8.18881 17.0044 8.0716C17.1217 7.95439 17.1875 7.79541 17.1875 7.62965C17.1875 7.46389 17.1217 7.30492 17.0044 7.18771C16.8872 7.0705 16.7283 7.00465 16.5625 7.00465H15.3125V5.75465C15.3125 5.5889 15.2466 5.42993 15.1294 5.31272C15.0122 5.19551 14.8533 5.12966 14.6875 5.12965Z" fill="#F4F4F4"/>
  <path d="M15 2H13.9156C13.7498 2 13.5908 2.06585 13.4736 2.18306C13.3564 2.30027 13.2906 2.45924 13.2906 2.625C13.2906 2.79076 13.3564 2.94973 13.4736 3.06694C13.5908 3.18415 13.7498 3.25 13.9156 3.25H15C15.9952 3.25149 16.9491 3.64791 17.6522 4.3522C18.3553 5.05649 18.7502 6.01106 18.75 7.00625C18.75 9.65518 16.6225 16.3843 14.8438 16.3843C14.0561 16.3843 12.787 14.7806 11.7274 11.1977C11.6892 11.0684 11.6102 10.955 11.5021 10.8743C11.3941 10.7936 11.2629 10.75 11.1281 10.75H8.87192C8.73709 10.75 8.60588 10.7936 8.49786 10.8743C8.38983 10.955 8.3108 11.0684 8.27254 11.1977C7.21298 14.7806 5.94391 16.3843 5.15625 16.3843C3.37753 16.3843 1.25 9.65518 1.25 7C1.25114 6.00578 1.64659 5.05262 2.34961 4.3496C3.05262 3.64659 4.00579 3.25114 5 3.25H6.08125C6.24701 3.25 6.40598 3.18415 6.52319 3.06694C6.6404 2.94973 6.70625 2.79076 6.70625 2.625C6.70625 2.45924 6.6404 2.30027 6.52319 2.18306C6.40598 2.06585 6.24701 2 6.08125 2H5C3.67341 2.00187 2.40178 2.53011 1.46432 3.46874C0.526868 4.40737 0.000213948 5.67966 0 7.00625C0 9.20642 1.9368 17.6343 5.15625 17.6343C7.20734 17.6343 8.61281 14.2902 9.33457 12H10.6654C11.3872 14.2902 12.7927 17.6343 14.8438 17.6343C18.0632 17.6343 20 9.20642 20 7C19.9985 5.67438 19.4712 4.40349 18.5339 3.46614C17.5965 2.52879 16.3256 2.00152 15 2Z" fill="#F4F4F4"/>
  <path d="M10 3.87962C10.3452 3.87962 10.625 3.5998 10.625 3.25462C10.625 2.90945 10.3452 2.62962 10 2.62962C9.65482 2.62962 9.375 2.90945 9.375 3.25462C9.375 3.5998 9.65482 3.87962 10 3.87962Z" fill="#F4F4F4"/>
</svg>
