<svg width="36" height="36" viewBox="0 0 36 36" fill="none" xmlns="http://www.w3.org/2000/svg">
  <g opacity="0.4">
    <path fill-rule="evenodd" clip-rule="evenodd" d="M18.4025 2C9.34591 2 2 9.34591 2 18.4025C2 25.6478 6.72956 31.7862 13.1698 34C13.9748 34.1006 14.2767 33.5975 14.2767 33.195C14.2767 32.7925 14.2767 31.7862 14.2767 30.3774C9.74843 31.3836 8.74214 28.1635 8.74214 28.1635C8.03774 26.2516 6.93082 25.7484 6.93082 25.7484C5.42138 24.7421 7.03145 24.7421 7.03145 24.7421C8.64151 24.8428 9.54717 26.4528 9.54717 26.4528C11.0566 28.9686 13.3711 28.2642 14.2767 27.8616C14.3774 26.7547 14.8805 26.0503 15.283 25.6478C11.6604 25.2453 7.83648 23.8365 7.83648 17.4969C7.83648 15.6855 8.44025 14.2767 9.54717 13.0692C9.44654 12.7673 8.84277 11.0566 9.74843 8.84277C9.74843 8.84277 11.1572 8.44025 14.2767 10.5535C15.5849 10.1509 16.9937 10.0503 18.4025 10.0503C19.8113 10.0503 21.2201 10.2516 22.5283 10.5535C25.6478 8.44025 27.0566 8.84277 27.0566 8.84277C27.9623 11.0566 27.3585 12.7673 27.2579 13.1698C28.2642 14.2767 28.9686 15.7862 28.9686 17.5975C28.9686 23.9371 25.1447 25.2453 21.522 25.6478C22.1258 26.1509 22.6289 27.1572 22.6289 28.6667C22.6289 30.8805 22.6289 32.5912 22.6289 33.195C22.6289 33.5975 22.9308 34.1006 23.7359 34C30.2767 31.7862 34.9057 25.6478 34.9057 18.4025C34.805 9.34591 27.4591 2 18.4025 2Z" fill="white"/>
  </g>
</svg>
