<svg width="66" height="19" viewBox="0 0 66 19" fill="none" xmlns="http://www.w3.org/2000/svg">
  <path d="M3.1416 7.52417L1.77415 4.26208H1.36981L0 7.52417H0.447063L0.753859 6.7854H2.38774L2.69454 7.52417H3.1416ZM1.55538 4.85934L1.56962 4.80417H1.57434L1.58629 4.85934L2.23789 6.42561H0.903713L1.55538 4.85934Z" fill="white"/>
  <path d="M5.62803 7.59128C6.41044 7.59128 6.96693 7.0468 6.96693 6.26006V4.25964H6.54598V6.23368C6.54598 6.76617 6.20355 7.19791 5.62803 7.19791C5.0382 7.19791 4.70764 6.75897 4.70764 6.22888V4.25964H4.28906V6.26006C4.28906 7.06839 4.8741 7.59128 5.62803 7.59128Z" fill="white"/>
  <path d="M9.94888 7.52417C10.9692 7.52417 11.647 6.87175 11.647 5.89073C11.647 4.9145 10.9644 4.26208 9.94172 4.26208H8.75977V7.52417H9.94888ZM9.17355 4.64106H9.92984C10.7337 4.64106 11.2212 5.14237 11.2212 5.90032C11.2212 6.65588 10.7313 7.14039 9.93936 7.14039H9.17355V4.64106Z" fill="white"/>
  <path d="M13.6798 7.52417V4.26208H13.2588V7.52417H13.6798Z" fill="white"/>
  <path d="M16.6555 7.52417V4.64346H17.6805V4.26208H15.2119V4.64346H16.2346V7.52417H16.6555Z" fill="white"/>
  <path d="M21.3881 7.52417V7.14039H19.6377V6.04663H21.1408V5.68205H19.6377V4.64825H21.3667V4.26208H19.2168V7.52417H21.3881Z" fill="white"/>
  <path d="M24.1618 7.52417C25.1821 7.52417 25.8598 6.87175 25.8598 5.89073C25.8598 4.9145 25.1773 4.26208 24.1547 4.26208H22.9727V7.52417H24.1618ZM23.3865 4.64106H24.1428C24.9466 4.64106 25.4342 5.14237 25.4342 5.90032C25.4342 6.65588 24.9443 7.14039 24.1523 7.14039H23.3865V4.64106Z" fill="white"/>
  <path d="M31.1657 7.52417C31.6699 7.52417 32.1408 7.19316 32.1408 6.6031C32.1408 6.22173 31.8674 5.90032 31.5249 5.79958C31.7651 5.69404 31.9529 5.4206 31.9529 5.12078C31.9529 4.60988 31.5676 4.26208 31.0302 4.26208H29.6484V7.52417H31.1657ZM30.0742 4.63147H31.0135C31.2989 4.63147 31.5273 4.86173 31.5273 5.15196C31.5273 5.44699 31.2989 5.67725 31.0112 5.67725H30.0742V4.63147ZM30.0742 6.00586H31.1372C31.4583 6.00586 31.708 6.26011 31.708 6.57193C31.708 6.90293 31.4559 7.14999 31.1325 7.14999H30.0742V6.00586Z" fill="white"/>
  <path d="M34.9516 7.52417L34.9493 6.2721L36.2573 4.26208H35.7579L34.7424 5.89313H34.74L33.7197 4.26208H33.2227L34.5307 6.2745V7.52417H34.9516Z" fill="white"/>
  <path d="M3.1416 7.52417L1.77415 4.26208H1.36981L0 7.52417H0.447063L0.753859 6.7854H2.38774L2.69454 7.52417H3.1416ZM1.55538 4.85934L1.56962 4.80417H1.57434L1.58629 4.85934L2.23789 6.42561H0.903713L1.55538 4.85934Z" fill="white"/>
  <path d="M5.62803 7.59128C6.41044 7.59128 6.96693 7.0468 6.96693 6.26006V4.25964H6.54598V6.23368C6.54598 6.76617 6.20355 7.19791 5.62803 7.19791C5.0382 7.19791 4.70764 6.75897 4.70764 6.22888V4.25964H4.28906V6.26006C4.28906 7.06839 4.8741 7.59128 5.62803 7.59128Z" fill="white"/>
  <path d="M9.94888 7.52417C10.9692 7.52417 11.647 6.87175 11.647 5.89073C11.647 4.9145 10.9644 4.26208 9.94172 4.26208H8.75977V7.52417H9.94888ZM9.17355 4.64106H9.92984C10.7337 4.64106 11.2212 5.14237 11.2212 5.90032C11.2212 6.65588 10.7313 7.14039 9.93936 7.14039H9.17355V4.64106Z" fill="white"/>
  <path d="M13.6798 7.52417V4.26208H13.2588V7.52417H13.6798Z" fill="white"/>
  <path d="M16.6555 7.52417V4.64346H17.6805V4.26208H15.2119V4.64346H16.2346V7.52417H16.6555Z" fill="white"/>
  <path d="M21.3881 7.52417V7.14039H19.6377V6.04663H21.1408V5.68205H19.6377V4.64825H21.3667V4.26208H19.2168V7.52417H21.3881Z" fill="white"/>
  <path d="M24.1618 7.52417C25.1821 7.52417 25.8598 6.87175 25.8598 5.89073C25.8598 4.9145 25.1773 4.26208 24.1547 4.26208H22.9727V7.52417H24.1618ZM23.3865 4.64106H24.1428C24.9466 4.64106 25.4342 5.14237 25.4342 5.90032C25.4342 6.65588 24.9443 7.14039 24.1523 7.14039H23.3865V4.64106Z" fill="white"/>
  <path d="M31.1657 7.52417C31.6699 7.52417 32.1408 7.19316 32.1408 6.6031C32.1408 6.22173 31.8674 5.90032 31.5249 5.79958C31.7651 5.69404 31.9529 5.4206 31.9529 5.12078C31.9529 4.60988 31.5676 4.26208 31.0302 4.26208H29.6484V7.52417H31.1657ZM30.0742 4.63147H31.0135C31.2989 4.63147 31.5273 4.86173 31.5273 5.15196C31.5273 5.44699 31.2989 5.67725 31.0112 5.67725H30.0742V4.63147ZM30.0742 6.00586H31.1372C31.4583 6.00586 31.708 6.26011 31.708 6.57193C31.708 6.90293 31.4559 7.14999 31.1325 7.14999H30.0742V6.00586Z" fill="white"/>
  <path d="M34.9516 7.52417L34.9493 6.2721L36.2573 4.26208H35.7579L34.7424 5.89313H34.74L33.7197 4.26208H33.2227L34.5307 6.2745V7.52417H34.9516Z" fill="white"/>
  <path d="M45.7223 1.32902C44.3704 1.32902 42.9693 0.0758742 42.9555 0.0633201C42.8623 -0.0211067 42.7204 -0.0211067 42.6273 0.0633201C42.6133 0.0759719 41.216 1.32902 39.8605 1.32902C39.7256 1.32902 39.6162 1.43838 39.6162 1.57327V4.49829C39.6162 6.86784 41.3786 7.81469 42.7043 8.32078C42.7323 8.3315 42.7618 8.33684 42.7914 8.33684C42.8209 8.33684 42.8504 8.33148 42.8785 8.32078C44.7372 7.61117 45.9665 6.50428 45.9665 4.49829V1.57327C45.9665 1.43838 45.8572 1.32902 45.7223 1.32902Z" fill="url(#paint0_linear_1900_9844)"/>
  <path d="M42.7908 2.45862C41.848 2.45862 41.0811 3.22559 41.0811 4.16832C41.0811 5.11105 41.848 5.87803 42.7908 5.87803C43.7335 5.87803 44.5005 5.11105 44.5005 4.16832C44.5005 3.22559 43.7335 2.45862 42.7908 2.45862ZM43.4519 4.09677L42.7192 4.8295C42.6715 4.8772 42.609 4.90105 42.5465 4.90105C42.484 4.90105 42.4215 4.87721 42.3738 4.8295L42.1296 4.58526C42.0342 4.48988 42.0342 4.33524 42.1296 4.23985C42.2249 4.14447 42.3796 4.14447 42.475 4.23985L42.5465 4.31138L43.1066 3.75137C43.2019 3.65598 43.3566 3.65598 43.452 3.75137C43.5473 3.84675 43.5473 4.00139 43.4519 4.09677Z" fill="url(#paint1_linear_1900_9844)"/>
  <g clip-path="url(#clip0_1900_9844)">
    <path fill-rule="evenodd" clip-rule="evenodd" d="M5.51295 10.421V12.9954H2.29535V10.4217H0V17.9732H2.29535V15.3059H5.51295V17.9719H7.80845V10.421H5.51295Z" fill="white"/>
    <path fill-rule="evenodd" clip-rule="evenodd" d="M23.2725 10.421V10.4217H22.124V17.9732H24.4457V17.9725H30.5832V15.8282H24.4457V12.5654H30.5816V10.421H23.2725Z" fill="white"/>
    <path fill-rule="evenodd" clip-rule="evenodd" d="M63.4222 10.421V13.668L60.2191 10.421L60.2126 10.4261V10.421H57.9131V17.9732H60.2126V14.6191L63.4222 17.9732H65.7215V10.421H63.4222Z" fill="white"/>
    <path fill-rule="evenodd" clip-rule="evenodd" d="M41.1793 10.421V12.9913H37.5547V10.4224H35.1377V17.9727H37.5547V15.3009H41.1774V17.9732H43.5944V15.2275H41.3403L43.5969 12.9913V10.421H41.1793Z" fill="white"/>
    <path fill-rule="evenodd" clip-rule="evenodd" d="M11.296 10.4217V10.421H18.4669V10.4217H18.8709V17.9725H16.5933V16.3376H13.3403V17.9732H11.0625V10.4217H11.296ZM16.5933 14.1065H13.3403V12.5654H16.5933V14.1065Z" fill="white"/>
    <path fill-rule="evenodd" clip-rule="evenodd" d="M47.4875 10.421V10.4216H46.8506V17.9712H47.4734V17.9732H54.6448V15.8313H49.1287V15.2683H54.6458V13.1262H49.1287V12.5631H54.659V10.421H47.4875Z" fill="white"/>
  </g>
  <defs>
    <linearGradient id="paint0_linear_1900_9844" x1="42.7914" y1="8.33684" x2="42.7914" y2="-3.97532e-06" gradientUnits="userSpaceOnUse">
      <stop stop-color="#00B59C"/>
      <stop offset="1" stop-color="#9CFFAC"/>
    </linearGradient>
    <linearGradient id="paint1_linear_1900_9844" x1="42.7908" y1="5.87803" x2="42.7908" y2="2.45862" gradientUnits="userSpaceOnUse">
      <stop stop-color="#C3FFE8"/>
      <stop offset="0.9973" stop-color="#F0FFF4"/>
    </linearGradient>
    <clipPath id="clip0_1900_9844">
      <rect width="66" height="7.64211" fill="white" transform="translate(0 10.421)"/>
    </clipPath>
  </defs>
</svg>
