<svg width="95" height="26" viewBox="0 0 95 26" fill="none" xmlns="http://www.w3.org/2000/svg">
  <path d="M4.522 10.8302L2.5537 6.1348H1.9717L0 10.8302H0.643499L1.0851 9.76685H3.4369L3.8785 10.8302H4.522ZM2.2388 6.99448L2.2593 6.91507H2.2661L2.2833 6.99448L3.2212 9.24897H1.3008L2.2388 6.99448Z" fill="white"/>
  <path d="M8.10113 10.9269C9.22733 10.9269 10.0283 10.1432 10.0283 9.01074V6.13135H9.42243V8.97277C9.42243 9.73923 8.92953 10.3607 8.10113 10.3607C7.25213 10.3607 6.77633 9.72887 6.77633 8.96586V6.13135H6.17383V9.01074C6.17383 10.1742 7.01593 10.9269 8.10113 10.9269Z" fill="white"/>
  <path d="M14.321 10.8302C15.7896 10.8302 16.7652 9.89114 16.7652 8.47906C16.7652 7.07388 15.7827 6.1348 14.3107 6.1348H12.6094V10.8302H14.321ZM13.205 6.6803H14.2936C15.4507 6.6803 16.1524 7.40187 16.1524 8.49287C16.1524 9.58041 15.4472 10.2778 14.3073 10.2778H13.205V6.6803Z" fill="white"/>
  <path d="M19.69 10.8302V6.1348H19.084V10.8302H19.69Z" fill="white"/>
  <path d="M23.9744 10.8302V6.68375H25.4498V6.1348H21.8965V6.68375H23.3685V10.8302H23.9744Z" fill="white"/>
  <path d="M30.7856 10.8302V10.2778H28.2661V8.70347H30.4296V8.17869H28.2661V6.69065H30.7548V6.1348H27.6602V10.8302H30.7856Z" fill="white"/>
  <path d="M34.778 10.8302C36.2466 10.8302 37.2222 9.89114 37.2222 8.47906C37.2222 7.07388 36.2398 6.1348 34.7678 6.1348H33.0664V10.8302H34.778ZM33.6621 6.6803H34.7507C35.9077 6.6803 36.6095 7.40187 36.6095 8.49287C36.6095 9.58041 35.9043 10.2778 34.7644 10.2778H33.6621V6.6803Z" fill="white"/>
  <path d="M44.8598 10.8302C45.5855 10.8302 46.2633 10.3538 46.2633 9.50445C46.2633 8.9555 45.8697 8.49287 45.3767 8.34786C45.7225 8.19595 45.9929 7.80236 45.9929 7.3708C45.9929 6.63541 45.4383 6.1348 44.6647 6.1348H42.6758V10.8302H44.8598ZM43.2886 6.66649H44.6407C45.0515 6.66649 45.3802 6.99793 45.3802 7.41568C45.3802 7.84034 45.0515 8.17178 44.6373 8.17178H43.2886V6.66649ZM43.2886 8.64478H44.8187C45.2809 8.64478 45.6403 9.01074 45.6403 9.45957C45.6403 9.93602 45.2775 10.2916 44.8119 10.2916H43.2886V8.64478Z" fill="white"/>
  <path d="M50.309 10.8302L50.3056 9.02801L52.1884 6.1348H51.4695L50.0078 8.48251H50.0044L48.5358 6.1348H47.8203L49.7031 9.03146V10.8302H50.309Z" fill="white"/>
  <path d="M4.522 10.8302L2.5537 6.1348H1.9717L0 10.8302H0.643499L1.0851 9.76685H3.4369L3.8785 10.8302H4.522ZM2.2388 6.99448L2.2593 6.91507H2.2661L2.2833 6.99448L3.2212 9.24897H1.3008L2.2388 6.99448Z" fill="white"/>
  <path d="M8.10113 10.9269C9.22733 10.9269 10.0283 10.1432 10.0283 9.01074V6.13135H9.42243V8.97277C9.42243 9.73923 8.92953 10.3607 8.10113 10.3607C7.25213 10.3607 6.77633 9.72887 6.77633 8.96586V6.13135H6.17383V9.01074C6.17383 10.1742 7.01593 10.9269 8.10113 10.9269Z" fill="white"/>
  <path d="M14.321 10.8302C15.7896 10.8302 16.7652 9.89114 16.7652 8.47906C16.7652 7.07388 15.7827 6.1348 14.3107 6.1348H12.6094V10.8302H14.321ZM13.205 6.6803H14.2936C15.4507 6.6803 16.1524 7.40187 16.1524 8.49287C16.1524 9.58041 15.4472 10.2778 14.3073 10.2778H13.205V6.6803Z" fill="white"/>
  <path d="M19.69 10.8302V6.1348H19.084V10.8302H19.69Z" fill="white"/>
  <path d="M23.9744 10.8302V6.68375H25.4498V6.1348H21.8965V6.68375H23.3685V10.8302H23.9744Z" fill="white"/>
  <path d="M30.7856 10.8302V10.2778H28.2661V8.70347H30.4296V8.17869H28.2661V6.69065H30.7548V6.1348H27.6602V10.8302H30.7856Z" fill="white"/>
  <path d="M34.778 10.8302C36.2466 10.8302 37.2222 9.89114 37.2222 8.47906C37.2222 7.07388 36.2398 6.1348 34.7678 6.1348H33.0664V10.8302H34.778ZM33.6621 6.6803H34.7507C35.9077 6.6803 36.6095 7.40187 36.6095 8.49287C36.6095 9.58041 35.9043 10.2778 34.7644 10.2778H33.6621V6.6803Z" fill="white"/>
  <path d="M44.8598 10.8302C45.5855 10.8302 46.2633 10.3538 46.2633 9.50445C46.2633 8.9555 45.8697 8.49287 45.3767 8.34786C45.7225 8.19595 45.9929 7.80236 45.9929 7.3708C45.9929 6.63541 45.4383 6.1348 44.6647 6.1348H42.6758V10.8302H44.8598ZM43.2886 6.66649H44.6407C45.0515 6.66649 45.3802 6.99793 45.3802 7.41568C45.3802 7.84034 45.0515 8.17178 44.6373 8.17178H43.2886V6.66649ZM43.2886 8.64478H44.8187C45.2809 8.64478 45.6403 9.01074 45.6403 9.45957C45.6403 9.93602 45.2775 10.2916 44.8119 10.2916H43.2886V8.64478Z" fill="white"/>
  <path d="M50.309 10.8302L50.3056 9.02801L52.1884 6.1348H51.4695L50.0078 8.48251H50.0044L48.5358 6.1348H47.8203L49.7031 9.03146V10.8302H50.309Z" fill="white"/>
  <path d="M65.8125 1.91299C63.8666 1.91299 61.8499 0.109213 61.8299 0.0911426C61.6959 -0.0303809 61.4916 -0.0303809 61.3576 0.0911426C61.3375 0.109354 59.3261 1.91299 57.375 1.91299C57.1808 1.91299 57.0234 2.07039 57.0234 2.26455V6.47481C57.0234 9.88553 59.5602 11.2484 61.4684 11.9769C61.5087 11.9923 61.5512 12 61.5937 12C61.6363 12 61.6788 11.9923 61.7191 11.9769C64.3946 10.9555 66.1641 9.36222 66.1641 6.47481V2.26455C66.1641 2.07039 66.0067 1.91299 65.8125 1.91299Z" fill="url(#paint0_linear_1900_9609)"/>
  <path d="M61.5937 3.53906C60.2368 3.53906 59.1328 4.64304 59.1328 6C59.1328 7.35696 60.2368 8.46094 61.5937 8.46094C62.9507 8.46094 64.0547 7.35696 64.0547 6C64.0547 4.64304 62.9507 3.53906 61.5937 3.53906ZM62.5455 5.89702L61.4908 6.9517C61.4221 7.02035 61.3322 7.05469 61.2422 7.05469C61.1522 7.05469 61.0622 7.02037 60.9936 6.9517L60.642 6.60014C60.5047 6.46284 60.5047 6.24026 60.642 6.10296C60.7793 5.96566 61.0019 5.96566 61.1392 6.10296L61.2422 6.20592L62.0483 5.39984C62.1856 5.26254 62.4082 5.26254 62.5455 5.39984C62.6828 5.53713 62.6828 5.75972 62.5455 5.89702Z" fill="url(#paint1_linear_1900_9609)"/>
  <path fill-rule="evenodd" clip-rule="evenodd" d="M7.93531 15V18.7055H3.30391V15.001H0V25.8706H3.30391V22.0312H7.93531V25.8686H11.2394V15H7.93531Z" fill="white"/>
  <path fill-rule="evenodd" clip-rule="evenodd" d="M33.4979 15V15.001H31.8447V25.8706H35.1865V25.8696H44.0208V22.783H35.1865V18.0866H44.0185V15H33.4979Z" fill="white"/>
  <path fill-rule="evenodd" clip-rule="evenodd" d="M91.2891 15V19.6737L86.6786 15L86.6692 15.0073V15H83.3594V25.8706H86.6692V21.0426L91.2891 25.8706H94.5988V15H91.2891Z" fill="white"/>
  <path fill-rule="evenodd" clip-rule="evenodd" d="M59.2735 15V18.6997H54.0561V15.0019H50.5771V25.8698H54.0561V22.024H59.2707V25.8706H62.7497V21.9185H59.5051L62.7532 18.6997V15H59.2735Z" fill="white"/>
  <path fill-rule="evenodd" clip-rule="evenodd" d="M16.259 15.001V15H26.5806V15.001H27.1623V25.8696H23.8838V23.5163H19.2015V25.8706H15.9229V15.001H16.259ZM23.8838 20.3049H19.2015V18.0866H23.8838V20.3049Z" fill="white"/>
  <path fill-rule="evenodd" clip-rule="evenodd" d="M68.3533 15V15.0008H67.4365V25.8677H68.3331V25.8706H78.6554V22.7875H70.7156V21.9772H78.6569V18.8938H70.7156V18.0833H78.6759V15H68.3533Z" fill="white"/>
  <defs>
    <linearGradient id="paint0_linear_1900_9609" x1="61.5937" y1="12" x2="61.5937" y2="-5.72205e-06" gradientUnits="userSpaceOnUse">
      <stop stop-color="#00B59C"/>
      <stop offset="1" stop-color="#9CFFAC"/>
    </linearGradient>
    <linearGradient id="paint1_linear_1900_9609" x1="61.5937" y1="8.46094" x2="61.5937" y2="3.53906" gradientUnits="userSpaceOnUse">
      <stop stop-color="#C3FFE8"/>
      <stop offset="0.9973" stop-color="#F0FFF4"/>
    </linearGradient>
  </defs>
</svg>
