<svg width="20" height="20" viewBox="0 0 20 20" fill="none" xmlns="http://www.w3.org/2000/svg">
  <g clip-path="url(#clip0_2067_3130)">
    <path d="M1.875 11.5625V19.0625H18.125V7.5L10 0.625L1.875 7.1875V11.5625Z" fill="#0A42EA"/>
    <path opacity="0.1" d="M9.99844 0.625L9.03906 1.4L16.2484 7.5V19.0625H18.1234V7.5L9.99844 0.625Z" fill="#F4F4F4"/>
    <path d="M8.125 10.625H11.875C12.2065 10.625 12.5245 10.7567 12.7589 10.9911C12.9933 11.2255 13.125 11.5435 13.125 11.875V19.375H6.875V11.875C6.875 11.5435 7.0067 11.2255 7.24112 10.9911C7.47554 10.7567 7.79348 10.625 8.125 10.625Z" fill="white" fill-opacity="0.2"/>
    <path opacity="0.1" d="M11.875 10.625H10C10.3315 10.625 10.6495 10.7567 10.8839 10.9911C11.1183 11.2255 11.25 11.5435 11.25 11.875V19.375H13.125V11.875C13.125 11.5435 12.9933 11.2255 12.7589 10.9911C12.5245 10.7567 12.2065 10.625 11.875 10.625Z" fill="#F4F4F4"/>
    <path d="M9.375 15.625C9.72018 15.625 10 15.3452 10 15C10 14.6548 9.72018 14.375 9.375 14.375C9.02982 14.375 8.75 14.6548 8.75 15C8.75 15.3452 9.02982 15.625 9.375 15.625Z" fill="#0A42EA"/>
    <path d="M19.7758 7.64396L16.5633 4.96896V2.81271C16.5633 2.64695 16.4974 2.48798 16.3802 2.37077C16.263 2.25356 16.104 2.18771 15.9383 2.18771C15.7725 2.18771 15.6136 2.25356 15.4963 2.37077C15.3791 2.48798 15.3133 2.64695 15.3133 2.81271V3.92521L11.2008 0.500215C10.8639 0.21959 10.4393 0.065918 10.0008 0.065918C9.56231 0.065918 9.1377 0.21959 8.80078 0.500215L0.225783 7.64396C0.0981471 7.75005 0.017882 7.9025 0.00264469 8.06776C-0.0125926 8.23303 0.0384459 8.39758 0.144533 8.52521C0.250619 8.65285 0.403064 8.73312 0.56833 8.74835C0.733597 8.76359 0.898147 8.71255 1.02578 8.60646L9.60078 1.45959C9.71309 1.36605 9.85462 1.31482 10.0008 1.31482C10.1469 1.31482 10.2885 1.36605 10.4008 1.45959L17.5008 7.37521V18.1252C17.5008 18.291 17.4349 18.4499 17.3177 18.5672C17.2005 18.6844 17.0415 18.7502 16.8758 18.7502H13.7508V11.8752C13.7508 11.3779 13.5532 10.901 13.2016 10.5494C12.85 10.1978 12.3731 10.0002 11.8758 10.0002H8.12578C7.6285 10.0002 7.15159 10.1978 6.79996 10.5494C6.44833 10.901 6.25078 11.3779 6.25078 11.8752V18.7502H3.12578C2.96002 18.7502 2.80105 18.6844 2.68384 18.5672C2.56663 18.4499 2.50078 18.291 2.50078 18.1252V10.6252C2.50078 10.4595 2.43493 10.3005 2.31772 10.1833C2.20051 10.0661 2.04154 10.0002 1.87578 10.0002C1.71002 10.0002 1.55105 10.0661 1.43384 10.1833C1.31663 10.3005 1.25078 10.4595 1.25078 10.6252V18.1252C1.25078 18.6225 1.44833 19.0994 1.79996 19.451C2.15159 19.8027 2.6285 20.0002 3.12578 20.0002H16.8758C17.3731 20.0002 17.85 19.8027 18.2016 19.451C18.5532 19.0994 18.7508 18.6225 18.7508 18.1252V8.41896L18.9758 8.60646C19.0882 8.69964 19.2297 8.7505 19.3758 8.75021C19.5045 8.75047 19.6301 8.71098 19.7355 8.63716C19.8409 8.56333 19.921 8.45877 19.9648 8.33774C20.0085 8.21671 20.0139 8.08512 19.98 7.96095C19.9462 7.83678 19.8749 7.72608 19.7758 7.64396ZM7.50078 18.7502V11.8752C7.50078 11.7095 7.56663 11.5505 7.68384 11.4333C7.80105 11.3161 7.96002 11.2502 8.12578 11.2502H11.8758C12.0415 11.2502 12.2005 11.3161 12.3177 11.4333C12.4349 11.5505 12.5008 11.7095 12.5008 11.8752V18.7502H7.50078Z" fill="#F4F4F4"/>
  </g>
  <defs>
    <clipPath id="clip0_2067_3130">
      <rect width="20" height="20" fill="white"/>
    </clipPath>
  </defs>
</svg>
