<svg width="20" height="20" viewBox="0 0 20 20" fill="none" xmlns="http://www.w3.org/2000/svg">
<g clip-path="url(#clip0_1311_1763)">
<path d="M1.875 11.5625V19.0625H18.125V7.5L10 0.625L1.875 7.1875V11.5625Z" fill="#2F2542"/>
<path opacity="0.1" d="M9.99941 0.625L9.04004 1.4L16.2494 7.5V19.0625H18.1244V7.5L9.99941 0.625Z" fill="#F4F4F4"/>
<path d="M8.125 10.625H11.875C12.2065 10.625 12.5245 10.7567 12.7589 10.9911C12.9933 11.2255 13.125 11.5435 13.125 11.875V19.375H6.875V11.875C6.875 11.5435 7.0067 11.2255 7.24112 10.9911C7.47554 10.7567 7.79348 10.625 8.125 10.625Z" fill="#7649FE"/>
<path opacity="0.1" d="M11.875 10.625H10C10.3315 10.625 10.6495 10.7567 10.8839 10.9911C11.1183 11.2255 11.25 11.5435 11.25 11.875V19.375H13.125V11.875C13.125 11.5435 12.9933 11.2255 12.7589 10.9911C12.5245 10.7567 12.2065 10.625 11.875 10.625Z" fill="#F4F4F4"/>
<path d="M9.375 15.625C9.72018 15.625 10 15.3452 10 15C10 14.6548 9.72018 14.375 9.375 14.375C9.02982 14.375 8.75 14.6548 8.75 15C8.75 15.3452 9.02982 15.625 9.375 15.625Z" fill="#2F2542"/>
<path d="M19.7758 7.64375L16.5633 4.96875V2.8125C16.5633 2.64674 16.4974 2.48777 16.3802 2.37056C16.263 2.25335 16.104 2.1875 15.9383 2.1875C15.7725 2.1875 15.6136 2.25335 15.4963 2.37056C15.3791 2.48777 15.3133 2.64674 15.3133 2.8125V3.925L11.2008 0.500001C10.8639 0.219377 10.4393 0.0657043 10.0008 0.0657043C9.56231 0.0657043 9.1377 0.219377 8.80078 0.500001L0.225783 7.64375C0.0981471 7.74984 0.017882 7.90228 0.00264469 8.06755C-0.0125926 8.23281 0.0384459 8.39737 0.144533 8.525C0.250619 8.65264 0.403064 8.7329 0.56833 8.74814C0.733597 8.76338 0.898147 8.71234 1.02578 8.60625L9.60078 1.45938C9.71309 1.36583 9.85462 1.31461 10.0008 1.31461C10.1469 1.31461 10.2885 1.36583 10.4008 1.45938L17.5008 7.375V18.125C17.5008 18.2908 17.4349 18.4497 17.3177 18.5669C17.2005 18.6842 17.0415 18.75 16.8758 18.75H13.7508V11.875C13.7508 11.3777 13.5532 10.9008 13.2016 10.5492C12.85 10.1975 12.3731 10 11.8758 10H8.12578C7.6285 10 7.15159 10.1975 6.79996 10.5492C6.44833 10.9008 6.25078 11.3777 6.25078 11.875V18.75H3.12578C2.96002 18.75 2.80105 18.6842 2.68384 18.5669C2.56663 18.4497 2.50078 18.2908 2.50078 18.125V10.625C2.50078 10.4592 2.43493 10.3003 2.31772 10.1831C2.20051 10.0658 2.04154 10 1.87578 10C1.71002 10 1.55105 10.0658 1.43384 10.1831C1.31663 10.3003 1.25078 10.4592 1.25078 10.625V18.125C1.25078 18.6223 1.44833 19.0992 1.79996 19.4508C2.15159 19.8025 2.6285 20 3.12578 20H16.8758C17.3731 20 17.85 19.8025 18.2016 19.4508C18.5532 19.0992 18.7508 18.6223 18.7508 18.125V8.41875L18.9758 8.60625C19.0882 8.69943 19.2297 8.75029 19.3758 8.75C19.5045 8.75025 19.6301 8.71077 19.7355 8.63694C19.8409 8.56312 19.921 8.45855 19.9648 8.33752C20.0085 8.2165 20.0139 8.08491 19.98 7.96074C19.9462 7.83657 19.8749 7.72586 19.7758 7.64375ZM7.50078 18.75V11.875C7.50078 11.7092 7.56663 11.5503 7.68384 11.4331C7.80105 11.3158 7.96002 11.25 8.12578 11.25H11.8758C12.0415 11.25 12.2005 11.3158 12.3177 11.4331C12.4349 11.5503 12.5008 11.7092 12.5008 11.875V18.75H7.50078Z" fill="#F4F4F4"/>
</g>
<defs>
<clipPath id="clip0_1311_1763">
<rect width="20" height="20" fill="white"/>
</clipPath>
</defs>
</svg>
