<svg width="14" height="15" viewBox="0 0 14 15" fill="none" xmlns="http://www.w3.org/2000/svg">
<path d="M7.79545 4.15909C7.79545 3.71978 7.43931 3.36364 7 3.36364C6.56069 3.36364 6.20455 3.71978 6.20455 4.15909C6.20455 4.5984 6.56069 4.95455 7 4.95455C7.43931 4.95455 7.79545 4.5984 7.79545 4.15909Z" fill="#C52727"/>
<path d="M5.88636 6.22727C5.88636 5.87582 6.17127 5.59091 6.52273 5.59091H7.15909C7.51054 5.59091 7.79545 5.87582 7.79545 6.22727V10.0455H8.27273C8.62418 10.0455 8.90909 10.3304 8.90909 10.6818C8.90909 11.0333 8.62418 11.3182 8.27273 11.3182H6.04545C5.694 11.3182 5.40909 11.0333 5.40909 10.6818C5.40909 10.3304 5.694 10.0455 6.04545 10.0455H6.52273V6.86364C6.17127 6.86364 5.88636 6.57873 5.88636 6.22727Z" fill="#C52727"/>
<path fill-rule="evenodd" clip-rule="evenodd" d="M7 0.5C5.06719 0.5 3.31632 1.2842 2.05025 2.55025C0.784208 3.81631 0 5.56719 0 7.5C0 9.43281 0.7842 11.1837 2.05025 12.4497C3.31632 13.7158 5.06719 14.5 7 14.5C8.93281 14.5 10.6837 13.7158 11.9497 12.4497C13.2158 11.1837 14 9.43281 14 7.5C14 5.56719 13.2158 3.81632 11.9497 2.55025C10.6837 1.2842 8.93281 0.5 7 0.5ZM2.9502 3.45021C3.98735 2.41308 5.4183 1.77273 7 1.77273C8.5817 1.77273 10.0126 2.41308 11.0498 3.45021C12.0869 4.48735 12.7273 5.9183 12.7273 7.5C12.7273 9.0817 12.0869 10.5126 11.0498 11.5498C10.0126 12.5869 8.5817 13.2273 7 13.2273C5.4183 13.2273 3.98735 12.5869 2.95021 11.5498C1.91308 10.5126 1.27273 9.0817 1.27273 7.5C1.27273 5.9183 1.91307 4.48736 2.9502 3.45021Z" fill="#C52727"/>
</svg>
