<svg width="36" height="36" viewBox="0 0 36 36" fill="none" xmlns="http://www.w3.org/2000/svg">
  <g opacity="0.4" clip-path="url(#clip0_1887_12642)">
    <path fill-rule="evenodd" clip-rule="evenodd" d="M18.0017 0C13.1131 0 12.4996 0.0213752 10.5796 0.108751C8.66334 0.196502 7.35533 0.49988 6.21081 0.94501C5.02693 1.40476 4.02267 2.01977 3.02216 3.02066C2.0209 4.02117 1.40589 5.02543 0.944635 6.20894C0.49838 7.35383 0.194627 8.66222 0.108376 10.5777C0.0225002 12.4978 0 13.1116 0 18.0002C0 22.8887 0.0217502 23.5004 0.108751 25.4204C0.196877 27.3367 0.500255 28.6447 0.94501 29.7892C1.40514 30.9731 2.02015 31.9773 3.02103 32.9778C4.02117 33.9791 5.02543 34.5956 6.20856 35.0554C7.35383 35.5005 8.66222 35.8039 10.5781 35.8916C12.4981 35.979 13.1113 36.0004 17.9994 36.0004C22.8884 36.0004 23.5 35.979 25.42 35.8916C27.3363 35.8039 28.6458 35.5005 29.7911 35.0554C30.9746 34.5956 31.9773 33.9791 32.9775 32.9778C33.9787 31.9773 34.5937 30.9731 35.055 29.7896C35.4975 28.6447 35.8012 27.3363 35.8912 25.4208C35.9775 23.5007 36 22.8887 36 18.0002C36 13.1116 35.9775 12.4981 35.8912 10.5781C35.8012 8.66184 35.4975 7.35383 35.055 6.20931C34.5937 5.02543 33.9787 4.02117 32.9775 3.02066C31.9762 2.0194 30.9749 1.40439 29.7899 0.94501C28.6424 0.49988 27.3337 0.196502 25.4174 0.108751C23.4974 0.0213752 22.8861 0 17.9961 0H18.0017ZM16.3877 3.244C16.867 3.24325 17.4017 3.244 18.0025 3.244C22.8085 3.244 23.3782 3.26125 25.2761 3.3475C27.0311 3.42775 27.9836 3.72101 28.6181 3.96738C29.4581 4.29364 30.057 4.68364 30.6866 5.31365C31.3166 5.94366 31.7066 6.54366 32.0336 7.38367C32.28 8.01743 32.5737 8.96994 32.6535 10.725C32.7398 12.6225 32.7585 13.1925 32.7585 17.9963C32.7585 22.8001 32.7398 23.3701 32.6535 25.2676C32.5733 27.0226 32.28 27.9751 32.0336 28.6089C31.7074 29.4489 31.3166 30.047 30.6866 30.6767C30.0566 31.3067 29.4585 31.6967 28.6181 32.0229C27.9844 32.2704 27.0311 32.5629 25.2761 32.6432C23.3786 32.7294 22.8085 32.7482 18.0025 32.7482C13.1961 32.7482 12.6264 32.7294 10.7289 32.6432C8.9739 32.5622 8.02139 32.2689 7.38651 32.0226C6.5465 31.6963 5.9465 31.3063 5.31649 30.6763C4.68648 30.0463 4.29648 29.4478 3.96948 28.6074C3.7231 27.9736 3.42947 27.0211 3.34959 25.2661C3.26334 23.3686 3.24609 22.7986 3.24609 17.9918C3.24609 13.185 3.26334 12.618 3.34959 10.7205C3.42985 8.96544 3.7231 8.01293 3.96948 7.37842C4.29573 6.53841 4.68648 5.93841 5.31649 5.3084C5.9465 4.67839 6.5465 4.28839 7.38651 3.96138C8.02102 3.71388 8.9739 3.42138 10.7289 3.34075C12.3894 3.26575 13.0329 3.24325 16.3877 3.2395V3.244ZM27.6092 6.23293C26.4167 6.23293 25.4492 7.19931 25.4492 8.3922C25.4492 9.58471 26.4167 10.5522 27.6092 10.5522C28.8018 10.5522 29.7693 9.58471 29.7693 8.3922C29.7693 7.19969 28.8018 6.23218 27.6092 6.23218V6.23293ZM18.0017 8.75665C12.8967 8.75665 8.75781 12.8956 8.75781 18.0005C8.75781 23.1054 12.8967 27.2425 18.0017 27.2425C23.1066 27.2425 27.244 23.1054 27.244 18.0005C27.244 12.8956 23.1062 8.75665 18.0013 8.75665H18.0017ZM18.004 12.0003C21.3175 12.0003 24.004 14.6865 24.004 18.0004C24.004 21.3139 21.3175 24.0004 18.004 24.0004C14.6901 24.0004 12.0039 21.3139 12.0039 18.0004C12.0039 14.6865 14.6901 12.0003 18.004 12.0003Z" fill="white"/>
  </g>
  <defs>
    <clipPath id="clip0_1887_12642">
      <rect width="36" height="36.0004" fill="white"/>
    </clipPath>
  </defs>
</svg>
