<svg width="30" height="30" viewBox="0 0 30 30" fill="none" xmlns="http://www.w3.org/2000/svg">
<circle cx="15" cy="15" r="15" fill="#222222"/>
<path d="M22 8V7H23V8H22ZM14.4718 16.9424C14.0813 17.3329 13.4481 17.3329 13.0576 16.9424C12.6671 16.5519 12.6671 15.9187 13.0576 15.5282L14.4718 16.9424ZM21 14.5882V8H23V14.5882H21ZM22 9H15.4118V7H22V9ZM22.7071 8.70711L14.4718 16.9424L13.0576 15.5282L21.2929 7.29289L22.7071 8.70711Z" fill="#FFCC00"/>
<path d="M21.1758 17.8824V17.8824C21.1758 18.9222 21.1758 19.4421 21.0483 19.8653C20.7581 20.8286 20.0044 21.5823 19.0411 21.8725C18.6178 22 18.0979 22 17.0581 22H13.9993C11.1709 22 9.75667 22 8.87799 21.1213C7.99931 20.2426 7.99931 18.8284 7.99931 16V12.9412C7.99931 11.9014 7.99931 11.3815 8.12682 10.9582C8.417 9.99493 9.1707 9.24122 10.134 8.95104C10.5573 8.82353 11.0772 8.82353 12.117 8.82353V8.82353" stroke="#FFCC00" stroke-width="2" stroke-linecap="round"/>
</svg>
