<?xml version="1.0" encoding="UTF-8"?>
<svg xmlns="http://www.w3.org/2000/svg" xmlns:xlink="http://www.w3.org/1999/xlink" xmlns:svgjs="http://svgjs.com/svgjs" version="1.1" width="512" height="512" x="0" y="0" viewBox="0 0 24 24" style="enable-background:new 0 0 512 512;" xml:space="preserve">
  <g>
    <path xmlns="http://www.w3.org/2000/svg" d="m23.994 24v-.001h.006v-8.802c0-4.306-.927-7.623-5.961-7.623-2.42 0-4.044 1.328-4.707 2.587h-.07v-2.185h-4.773v16.023h4.97v-7.934c0-2.089.396-4.109 2.983-4.109 2.549 0 2.587 2.384 2.587 4.243v7.801z" fill="#3162f6" data-original="#000000"/>
    <path xmlns="http://www.w3.org/2000/svg" d="m.396 7.977h4.976v16.023h-4.976z" fill="#3162f6" data-original="#000000"/>
    <path xmlns="http://www.w3.org/2000/svg" d="m2.882 0c-1.591 0-2.882 1.291-2.882 2.882s1.291 2.909 2.882 2.909 2.882-1.318 2.882-2.909c-.001-1.591-1.292-2.882-2.882-2.882z" fill="#3162f6" data-original="#000000"/>
  </g>
</svg>
