<svg width="50" height="50" viewBox="0 0 50 50" fill="none" xmlns="http://www.w3.org/2000/svg">
  <path d="M9.46094 20.8885C11.3501 20.4662 13.6204 20.0394 16.1713 19.713V15.5359C16.1713 10.6694 20.1305 6.71025 24.997 6.71025C29.8635 6.71025 33.8227 10.6694 33.8227 15.5359V19.713C36.3735 20.0394 38.6438 20.4662 40.533 20.8885V15.5359C40.533 6.96943 33.5636 0 24.997 0C16.4304 0 9.46094 6.96943 9.46094 15.536V20.8885Z" fill="white"/>
  <path d="M24.9994 31.1846C23.9906 31.1846 23.1699 32.0053 23.1699 33.0141C23.1699 34.023 23.9906 34.8437 24.9994 34.8437C26.0082 34.8437 26.8289 34.023 26.8289 33.0141C26.829 32.0053 26.0082 31.1846 24.9994 31.1846Z" fill="white"/>
  <path d="M24.9991 22.0689C15.7919 22.0689 8.12197 24.1558 5.49414 24.9652V47.103C8.12598 47.9117 15.8125 50 24.9991 50C34.2064 50 41.8763 47.9131 44.504 47.1037V24.9659C41.8723 24.1572 34.1858 22.0689 24.9991 22.0689ZM26.464 37.5417V42.3491H23.5343V37.5417C21.6248 36.9224 20.2399 35.1274 20.2399 33.0141C20.2399 30.3899 22.3749 28.2549 24.9991 28.2549C27.6233 28.2549 29.7583 30.3899 29.7583 33.0141C29.7584 35.1274 28.3735 36.9224 26.464 37.5417Z" fill="white"/>
</svg>
