<svg width="55" height="57" viewBox="0 0 55 57" fill="none" xmlns="http://www.w3.org/2000/svg">
  <g clip-path="url(#clip0_1900_9769)">
    <path d="M46.3553 23.0675C46.3738 22.8658 46.3182 22.6459 46.2071 22.4443C46.0959 22.2426 45.9291 22.096 45.7253 22.0044L27.4929 11.5934C27.1594 11.3551 26.6961 11.3185 26.307 11.5384L25.7697 11.85V14.3611V19.0167V23.6723V23.6906V23.7273V23.7456V23.764V23.7823V23.8006V23.819V23.8373V23.8556V23.8739V23.8923V23.9106V23.9289V23.9473V23.9656V23.9839V24.0022V24.0206V24.0389V24.0572V24.0756V24.0939V24.1122V24.1305V24.1489L25.7882 24.1672V24.1855V24.2039V24.2222V24.2405V24.2589L25.8068 24.2772L25.8253 24.2955L25.8438 24.3138L25.8624 24.3322L25.8809 24.3505L25.9179 24.3871L25.9365 24.4055L25.955 24.4238L25.9735 24.4421L25.9921 24.4605L26.0106 24.4788L26.0291 24.4971H26.0477L26.0662 24.5155L26.0847 24.5338L26.1032 24.5521L26.1218 24.5704L26.1403 24.5888L26.1588 24.6071L26.1773 24.6254L26.1959 24.6438L26.2144 24.6621L26.2329 24.6804L34.2559 29.2627V37.8224L26.7517 42.1115C24.2503 40.6818 21.7489 39.2521 19.2475 37.8224V8.0742C19.2475 7.54266 19.2475 7.13942 18.6731 6.80949C15.4306 4.95825 12.1695 3.107 8.92696 1.23742C8.01904 0.705875 7.16672 1.3474 7.24083 2.26386C7.24083 16.1574 7.24083 30.0325 7.24083 43.926C7.2223 44.1277 7.27788 44.3476 7.38905 44.5492C7.50022 44.7509 7.66698 44.8975 7.85227 44.9891L26.1218 55.4184C26.2885 55.5284 26.5109 55.6017 26.7332 55.6017C26.937 55.6017 27.1223 55.5467 27.2891 55.4551L45.6883 44.9525C46.0774 44.7325 46.2627 44.311 46.2256 43.9077V33.4967V23.0675H46.3553ZM17.1723 8.38579V26.7333L9.55694 22.3893V4.04179L17.1723 8.38579ZM9.55694 24.882L17.1723 29.2261V37.7858L9.55694 42.1298V24.882ZM25.7697 52.6507L10.6501 44.0177L18.2655 39.6737C20.7669 41.1034 23.2683 42.533 25.7697 43.9627V52.6507ZM27.9561 23.0675V14.3611L43.0757 22.9941L35.4603 27.3382L27.9561 23.0675ZM27.9561 52.6324V43.9444L35.4603 39.6553L43.0757 43.9994L27.9561 52.6324ZM44.1689 42.1298L36.5535 37.7858V29.2261L44.1689 24.882V33.5151C44.1689 33.4968 44.1689 39.4354 44.1689 42.1298Z" fill="url(#paint0_linear_1900_9769)"/>
  </g>
  <defs>
    <linearGradient id="paint0_linear_1900_9769" x1="7.36992" y1="28.3293" x2="46.3649" y2="28.3293" gradientUnits="userSpaceOnUse">
      <stop stop-color="#D715FF"/>
      <stop offset="1" stop-color="#1A26FF"/>
    </linearGradient>
    <clipPath id="clip0_1900_9769">
      <rect width="39.2812" height="54.6209" fill="white" transform="translate(7.23633 1.04492)"/>
    </clipPath>
  </defs>
</svg>
