<svg width="51" height="59" viewBox="0 0 51 59" fill="none" xmlns="http://www.w3.org/2000/svg">
<path fill-rule="evenodd" clip-rule="evenodd" d="M2.60254 25.5054L9.36455 9.88154L19.4351 4.1153L38.5136 13.5423L46.5556 20.9834L43.1746 41.7753L22.2124 52.4943L3.39949 39.6459L2.60254 25.5054Z" fill="white"/>
<path d="M18.324 4.76135C18.324 14.0208 18.324 26.2472 18.324 32.9466L25.3516 36.9662L32.3793 32.9466V24.9073C28.2496 22.5386 27.0904 21.8687 22.9366 19.5L31.8963 14.3797L41.339 19.7871V38.0907L25.3516 47.2306L9.36433 38.0907V9.88159L0.259766 15.0736C0.259766 24.6441 0.259766 34.2147 0.259766 43.7852C8.61567 48.5705 16.9957 53.3557 25.3516 58.141C33.7076 53.3557 42.0876 48.5705 50.4435 43.7852C50.4435 34.2147 50.4435 24.6441 50.4435 15.0736C42.0876 10.2883 33.7076 5.50307 25.3516 0.717804L18.324 4.76135Z" fill="url(#paint0_linear_1311_1863)"/>
<defs>
<linearGradient id="paint0_linear_1311_1863" x1="34.2161" y1="15.3307" x2="11.1063" y2="52.805" gradientUnits="userSpaceOnUse">
<stop stop-color="#D715FF"/>
<stop offset="1" stop-color="#1A26FF"/>
</linearGradient>
</defs>
</svg>
