<svg width="30" height="31" viewBox="0 0 30 31" fill="none" xmlns="http://www.w3.org/2000/svg">
  <g clip-path="url(#clip0_1935_1363)">
    <path d="M25.6056 12.542C25.6159 12.4307 25.5852 12.3092 25.5237 12.1978C25.4623 12.0864 25.3702 12.0054 25.2576 11.9548L15.1864 6.20398C15.0022 6.07236 14.7463 6.05211 14.5314 6.17361L14.2346 6.34573V7.73281V10.3045V12.8761V12.8863V12.9065V12.9166V12.9268V12.9369V12.947V12.9571V12.9673V12.9774V12.9875V12.9976V13.0078V13.0179V13.028V13.0381V13.0483V13.0584V13.0685V13.0786V13.0888V13.0989V13.109V13.1191V13.1293V13.1394L14.2448 13.1495V13.1596V13.1697V13.1799V13.19V13.2001L14.255 13.2102L14.2652 13.2204L14.2755 13.2305L14.2857 13.2406L14.296 13.2508L14.3164 13.271L14.3267 13.2811L14.3369 13.2912L14.3471 13.3014L14.3574 13.3115L14.3676 13.3216L14.3778 13.3317H14.3881L14.3983 13.3419L14.4085 13.352L14.4188 13.3621L14.429 13.3722L14.4393 13.3824L14.4495 13.3925L14.4597 13.4026L14.4699 13.4127L14.4802 13.4229L14.4904 13.433L18.9222 15.9642V20.6924L14.777 23.0616C13.3953 22.2718 12.0135 21.4821 10.6318 20.6924V4.26005C10.6318 3.96643 10.6318 3.74369 10.3145 3.56144C8.52342 2.53885 6.72206 1.51626 4.93094 0.483543C4.42943 0.189928 3.95862 0.544291 3.99956 1.05052C3.99956 8.72502 3.99956 16.3894 3.99956 24.0639C3.98932 24.1753 4.02002 24.2968 4.08143 24.4081C4.14284 24.5195 4.23496 24.6005 4.33731 24.6511L14.429 30.4121C14.5211 30.4728 14.6439 30.5133 14.7668 30.5133C14.8794 30.5133 14.9817 30.4829 15.0738 30.4323L25.2372 24.6309C25.4521 24.5094 25.5544 24.2765 25.534 24.0538V18.303V12.542H25.6056ZM9.48551 4.43216V14.567L5.27893 12.1674V2.03262L9.48551 4.43216ZM5.27893 13.5444L9.48551 15.9439V20.6721L5.27893 23.0717V13.5444ZM14.2346 28.8832L5.88279 24.1145L10.0894 21.715C11.4711 22.5047 12.8528 23.2944 14.2346 24.0841V28.8832ZM15.4423 12.542V7.73281L23.794 12.5015L19.5874 14.9011L15.4423 12.542ZM15.4423 28.8731V24.074L19.5874 21.7048L23.794 24.1044L15.4423 28.8731ZM24.3979 23.0717L20.1913 20.6721V15.9439L24.3979 13.5444V18.3131C24.3979 18.303 24.3979 21.5834 24.3979 23.0717Z" fill="url(#paint0_linear_1935_1363)"/>
  </g>
  <defs>
    <linearGradient id="paint0_linear_1935_1363" x1="4.07087" y1="15.4486" x2="25.6109" y2="15.4486" gradientUnits="userSpaceOnUse">
      <stop stop-color="#D715FF"/>
      <stop offset="1" stop-color="#1A26FF"/>
    </linearGradient>
    <clipPath id="clip0_1935_1363">
      <rect width="21.6982" height="30.1715" fill="white" transform="translate(3.99707 0.377075)"/>
    </clipPath>
  </defs>
</svg>
