<svg width="219" height="23" viewBox="0 0 219 23" fill="none" xmlns="http://www.w3.org/2000/svg">
  <path fill-rule="evenodd" clip-rule="evenodd" d="M24.2342 0.512024C25.1989 0.512024 26.0502 0.665246 26.7879 0.954665C27.5445 1.26111 28.1688 1.65268 28.6606 2.14639C29.1713 2.64011 29.5497 3.21895 29.7956 3.86588C30.0604 4.51282 30.1739 5.21083 30.1739 5.94289C30.1739 6.74305 30.0982 7.40701 29.9658 7.9518C29.8334 8.49659 29.474 9.05841 28.9254 9.65427C29.7388 9.77344 30.4387 10.0799 31.0251 10.5906C31.4896 10.9951 31.8947 11.4424 32.2311 11.9323V7.57744C32.2311 6.77728 32.3824 5.9601 32.704 5.12589C33.0256 4.29168 33.4795 3.52557 34.047 2.86161C34.6145 2.18062 35.3144 1.63583 36.1278 1.19319C36.9412 0.750552 37.8492 0.529231 38.8518 0.529231H58.1086C59.0922 0.529231 60.0002 0.750552 60.8136 1.19319C61.627 1.63583 62.3269 2.19765 62.9133 2.87864C63.1316 3.14054 63.333 3.41504 63.5166 3.70019V0.512024H94.2745V6.57281H79.8414V15.6299C79.8603 15.8002 79.9171 15.9874 79.9738 16.1577C80.0305 16.3279 80.2197 16.4301 80.5413 16.4301H88.0511V22.4909H77.4012C76.3986 22.4909 75.4906 22.2696 74.6772 21.8269C73.8638 21.3843 73.1639 20.8225 72.5965 20.1585C72.01 19.4775 71.575 18.7284 71.2723 17.9112C70.9696 17.077 70.8183 16.2598 70.8183 15.4597V6.57281H64.6488C64.7029 6.90934 64.7293 7.24339 64.7293 7.57744V15.4428C64.7293 16.243 64.5779 17.0602 64.2564 17.8944C63.9348 18.7286 63.4808 19.4947 62.9133 20.1587C62.3269 20.8397 61.627 21.3844 60.8136 21.8271C59.9813 22.2697 59.0922 22.4911 58.1086 22.4911H38.8518C37.8492 22.4911 36.9412 22.2697 36.1278 21.8271C35.3144 21.3844 34.6145 20.8226 34.047 20.1416C33.6026 19.6256 33.2451 19.0606 32.9581 18.4616C32.6701 19.0959 32.2933 19.6932 31.8385 20.2436C31.29 20.9076 30.6279 21.4524 29.8523 21.861C29.0768 22.2866 28.2066 22.4909 27.2608 22.4909H0.948242V0.512024H24.2342ZM23.8937 14.5744H11.6359V14.4723H11.5981V8.49659H20.5834C21.1887 8.13908 21.5102 7.81561 21.5102 7.54321C21.5102 7.32189 21.3968 7.11759 21.1887 6.94735C20.9806 6.7771 20.7725 6.67495 20.5455 6.67495H9.57407V16.2939H23.837C24.0829 16.2939 24.272 16.2088 24.4234 16.0385C24.5747 15.8683 24.6504 15.681 24.6504 15.4597C24.6504 15.3575 24.5747 15.1873 24.4234 14.966C24.272 14.7446 24.1018 14.6084 23.8937 14.5744ZM54.9874 6.60704H41.9162C41.6136 6.60704 41.4433 6.70919 41.4055 6.89646C41.3487 7.08373 41.3298 7.32207 41.3298 7.61149V15.7663C41.3298 15.9366 41.3487 16.0898 41.4055 16.209C41.4622 16.3281 41.6514 16.3962 41.9919 16.3962H55.063C55.3657 16.3962 55.5359 16.3111 55.5738 16.1238C55.6305 15.9536 55.6494 15.7663 55.6494 15.5961V7.54339C55.6494 7.21993 55.6305 6.98158 55.5738 6.82836C55.5359 6.69216 55.3279 6.60704 54.9874 6.60704Z" fill="url(#paint0_linear_4_1798)"/>
  <path d="M87.8486 16.4301H108.43C108.619 16.4301 108.789 16.3109 108.94 16.0896C109.092 15.8683 109.167 15.681 109.167 15.5788C109.167 15.4086 109.054 15.1873 108.827 14.9489C108.6 14.7106 108.392 14.5914 108.203 14.5914H94.4315C93.5235 14.5914 92.6723 14.3701 91.8778 13.9274C91.0833 13.4848 90.3834 12.923 89.797 12.242C89.2106 11.561 88.7377 10.8119 88.3972 9.99475C88.0567 9.17756 87.8865 8.3774 87.8865 7.61129C87.8865 6.81113 88.0378 5.99395 88.3594 5.15974C88.681 4.32553 89.1349 3.55942 89.7024 2.89546C90.2699 2.21447 90.9698 1.66968 91.7832 1.22704C92.5966 0.784401 93.5046 0.56308 94.5072 0.56308H117.944V6.62386H97.6473C97.3068 6.62386 97.0798 6.69196 97.0041 6.81113C96.9095 6.93031 96.8528 7.18568 96.796 7.56022C96.796 7.73047 96.8339 7.91774 96.8906 8.12203C96.9474 8.32633 97.0798 8.42848 97.2689 8.42848H111.967C112.951 8.42848 113.84 8.66682 114.653 9.16054C115.466 9.65425 116.166 10.2501 116.753 10.9822C117.339 11.7142 117.793 12.5144 118.134 13.3656C118.474 14.2169 118.644 14.983 118.644 15.7321C118.644 16.4641 118.493 17.2302 118.171 18.0134C117.85 18.8135 117.415 19.5456 116.866 20.2095C116.318 20.8735 115.656 21.4183 114.88 21.8439C114.104 22.2695 113.272 22.4909 112.364 22.4909H87.8486V16.4301Z" fill="white"/>
  <path d="M126.374 0.513062L132.976 12.5836L134.602 11.0854L128.833 0.547111H137.591L144.117 12.0898L151.154 0.513062H160.953L147.768 22.4919H140.221L138.707 19.4445L136.759 22.4919H129.325L116.575 0.513062H126.374Z" fill="white"/>
  <path d="M150.052 22.4919L164.636 0.513062H173.035L187.998 22.4919H167.152L163.388 17.4186L159.813 22.4919H150.052ZM164.144 16.2949H173.584L168.722 9.53613L164.144 16.2949Z" fill="white"/>
  <path d="M194.534 22.5089V6.72707L208.502 6.60524C209.159 6.60524 209.691 7.0844 209.691 7.67548C209.691 8.26656 209.159 8.74573 208.502 8.74573H196.702V14.8359C196.763 14.8372 196.824 14.8379 196.885 14.8379H210.972C215.014 14.8379 218.29 11.8892 218.29 8.25177V7.0992C218.29 3.46177 215.014 0.513062 210.972 0.513062H196.885H185.965H185.908V22.5089H194.534Z" fill="white"/>
  <defs>
    <linearGradient id="paint0_linear_4_1798" x1="1.22267" y1="10.6383" x2="88.8549" y2="10.6383" gradientUnits="userSpaceOnUse">
      <stop stop-color="#2824F5"/>
      <stop offset="1" stop-color="#C02FF6"/>
    </linearGradient>
  </defs>
</svg>
