<svg width="146" height="17" viewBox="0 0 146 17" fill="none" xmlns="http://www.w3.org/2000/svg">
  <path fill-rule="evenodd" clip-rule="evenodd" d="M15.9983 0.587799C16.6439 0.587799 17.2135 0.700699 17.7072 0.913956C18.2135 1.13976 18.6313 1.42828 18.9604 1.79207C19.3022 2.15586 19.5553 2.58237 19.7199 3.05906C19.8971 3.53575 19.973 4.05008 19.973 4.58949C19.973 5.17908 19.9224 5.66832 19.8338 6.06974C19.7452 6.47117 19.5047 6.88513 19.1376 7.32419C19.6819 7.412 20.1503 7.6378 20.5427 8.01414C20.8537 8.31246 21.125 8.64231 21.3502 9.00368V5.79392C21.3502 5.20433 21.4515 4.60219 21.6667 3.98751C21.8819 3.37283 22.1857 2.80833 22.5654 2.3191C22.9452 1.81732 23.4135 1.41589 23.9578 1.08974C24.5021 0.763579 25.1097 0.6005 25.7806 0.6005H38.6667C39.325 0.6005 39.9326 0.763579 40.4769 1.08974C41.0212 1.41589 41.4895 1.82986 41.8819 2.33164C42.028 2.52465 42.1629 2.72694 42.2857 2.93709V0.587799H62.8681V5.05364H53.2098V11.7273C53.2225 11.8528 53.2604 11.9907 53.2984 12.1162C53.3364 12.2416 53.463 12.3169 53.6782 12.3169H58.7035V16.7827H51.5769C50.906 16.7827 50.2984 16.6197 49.7541 16.2935C49.2098 15.9673 48.7414 15.5534 48.3617 15.0641C47.9693 14.5624 47.6782 14.0104 47.4756 13.4083C47.2731 12.7936 47.1718 12.1915 47.1718 11.6019V5.05364H43.0433C43.0795 5.30162 43.0971 5.54777 43.0971 5.79392V11.5895C43.0971 12.1791 42.9959 12.7812 42.7807 13.3959C42.5655 14.0106 42.2617 14.5751 41.8819 15.0643C41.4895 15.5661 41.0212 15.9675 40.4769 16.2937C39.9199 16.6198 39.325 16.7829 38.6667 16.7829H25.7806C25.1097 16.7829 24.5021 16.6198 23.9578 16.2937C23.4135 15.9675 22.9452 15.5535 22.5654 15.0518C22.2679 14.6713 22.0286 14.2548 21.8364 13.8131C21.6437 14.2808 21.3915 14.7211 21.087 15.1269C20.7199 15.6161 20.2768 16.0175 19.7579 16.3186C19.2389 16.6322 18.6566 16.7827 18.0237 16.7827H0.416016V0.587799H15.9983ZM15.7705 10.9495H7.56794V10.8743H7.54262V6.47117H13.5553C13.9604 6.20773 14.1756 5.96939 14.1756 5.76867C14.1756 5.6056 14.0996 5.45506 13.9604 5.32962C13.8211 5.20417 13.6819 5.1289 13.53 5.1289H6.18819V12.2165H15.7325C15.8971 12.2165 16.0237 12.1538 16.1249 12.0284C16.2262 11.9029 16.2768 11.7649 16.2768 11.6019C16.2768 11.5266 16.2262 11.4011 16.1249 11.2381C16.0237 11.075 15.9097 10.9746 15.7705 10.9495ZM36.5781 5.07889H27.8313C27.6287 5.07889 27.5148 5.15415 27.4895 5.29214C27.4515 5.43013 27.4389 5.60575 27.4389 5.81901V11.8278C27.4389 11.9533 27.4515 12.0662 27.4895 12.154C27.5275 12.2418 27.654 12.292 27.8819 12.292H36.6288C36.8313 12.292 36.9452 12.2292 36.9705 12.0913C37.0085 11.9658 37.0212 11.8278 37.0212 11.7024V5.76883C37.0212 5.53049 37.0085 5.35486 36.9705 5.24196C36.9452 5.14161 36.806 5.07889 36.5781 5.07889Z" fill="url(#paint0_linear_4_1798)"/>
  <path d="M58.5684 12.3169H72.3406C72.4672 12.3169 72.5811 12.2291 72.6823 12.066C72.7836 11.9029 72.8342 11.7649 72.8342 11.6896C72.8342 11.5642 72.7583 11.4011 72.6064 11.2255C72.4545 11.0499 72.3153 10.9621 72.1887 10.9621H62.9734C62.3658 10.9621 61.7962 10.799 61.2646 10.4728C60.7329 10.1467 60.2646 9.7327 59.8722 9.23092C59.4798 8.72914 59.1633 8.17718 58.9354 7.57505C58.7076 6.97291 58.5937 6.38332 58.5937 5.81882C58.5937 5.22923 58.6949 4.62709 58.9101 4.01241C59.1253 3.39773 59.4291 2.83323 59.8089 2.34399C60.1886 1.84221 60.657 1.44079 61.2013 1.11463C61.7456 0.788475 62.3532 0.625397 63.0241 0.625397H78.7077V5.09124H65.1253C64.8975 5.09124 64.7456 5.14141 64.695 5.22923C64.6317 5.31704 64.5937 5.5052 64.5557 5.78118C64.5557 5.90663 64.581 6.04462 64.619 6.19515C64.657 6.34569 64.7456 6.42095 64.8722 6.42095H74.7077C75.3659 6.42095 75.9608 6.59658 76.5051 6.96037C77.0495 7.32416 77.5178 7.76321 77.9102 8.30263C78.3026 8.84204 78.6064 9.43163 78.8343 10.0589C79.0621 10.6861 79.176 11.2506 79.176 11.8025C79.176 12.342 79.0748 12.9065 78.8596 13.4835C78.6444 14.0731 78.3532 14.6125 77.9862 15.1017C77.6191 15.591 77.176 15.9924 76.657 16.306C76.138 16.6196 75.5811 16.7827 74.9735 16.7827H58.5684V12.3169Z" fill="white"/>
  <path d="M84.347 0.588593L88.7648 9.48264L89.8534 8.37872L85.9926 0.613682H91.8534L96.2205 9.11884L100.929 0.588593H107.486L98.6635 16.7835H93.6129L92.6002 14.5381L91.2964 16.7835H86.3217L77.79 0.588593H84.347Z" fill="white"/>
  <path d="M100.193 16.7835L109.953 0.588593H115.573L125.586 16.7835H111.636L109.117 13.0453L106.725 16.7835H100.193ZM109.624 12.2173H115.94L112.687 7.23717L109.624 12.2173Z" fill="white"/>
  <path d="M129.96 16.7961V5.16733L139.307 5.07756C139.746 5.07756 140.103 5.43063 140.103 5.86617C140.103 6.3017 139.746 6.65477 139.307 6.65477H131.411V11.1423C131.451 11.1432 131.492 11.1437 131.533 11.1437H140.96C143.664 11.1437 145.857 8.97101 145.857 6.2908V5.44153C145.857 2.76132 143.664 0.588593 140.96 0.588593H131.533H124.225H124.188V16.7961H129.96Z" fill="white"/>
  <defs>
    <linearGradient id="paint0_linear_4_1798" x1="0.599654" y1="8.04927" x2="59.2414" y2="8.04927" gradientUnits="userSpaceOnUse">
      <stop stop-color="#2824F5"/>
      <stop offset="1" stop-color="#C02FF6"/>
    </linearGradient>
  </defs>
</svg>
