<svg width="32" height="38" viewBox="0 0 32 38" fill="none" xmlns="http://www.w3.org/2000/svg">
<path fill-rule="evenodd" clip-rule="evenodd" d="M1.53906 16.4272L5.80981 6.36437L12.1702 2.65051L24.2198 8.72212L29.2989 13.5147L27.1635 26.9061L13.9242 33.8099L2.0424 25.5346L1.53906 16.4272Z" fill="white"/>
<path d="M11.4686 3.06663C11.4686 9.03037 11.4686 16.905 11.4686 21.2198L15.9071 23.8087L20.3456 21.2198V16.042C17.7374 14.5164 17.0053 14.0849 14.3818 12.5593L20.0405 9.26152L26.0043 12.7442V24.533L15.9071 30.4197L5.80982 24.533V6.36441L0.0595703 9.70842C0.0595703 15.8725 0.0595703 22.0366 0.0595703 28.2006C5.33699 31.2827 10.6297 34.3647 15.9071 37.4467C21.1845 34.3647 26.4772 31.2827 31.7546 28.2006C31.7546 22.0366 31.7546 15.8725 31.7546 9.70842C26.4772 6.62638 21.1845 3.54435 15.9071 0.462311L11.4686 3.06663Z" fill="url(#paint0_linear_1335_1838)"/>
<defs>
<linearGradient id="paint0_linear_1335_1838" x1="21.5057" y1="9.87403" x2="6.49229" y2="33.7473" gradientUnits="userSpaceOnUse">
<stop stop-color="#D715FF"/>
<stop offset="1" stop-color="#1A26FF"/>
</linearGradient>
</defs>
</svg>
