<svg width="76" height="79" viewBox="0 0 76 79" fill="none" xmlns="http://www.w3.org/2000/svg">
<path d="M37.9155 78.6912C58.8557 78.6912 75.8311 61.0767 75.8311 39.348C75.8311 17.6193 58.8557 0.00476074 37.9155 0.00476074C16.9754 0.00476074 0 17.6193 0 39.348C0 61.0767 16.9754 78.6912 37.9155 78.6912Z" fill="#FFCC00"/>
<path d="M53.1112 58.2767L52.4863 60.4422L40.9297 52.0196H44.3876L52.2619 57.6473L53.1112 58.2767Z" fill="#E5B700"/>
<path d="M44.079 52.07L43.5694 57.8739L49.1263 61.695L46.2083 62.5196L43.2539 60.4926L31.6973 52.07H35.137L43.2539 46.0773L44.079 52.07Z" fill="#E5B700"/>
<path d="M21.6387 64.2948L39.8927 78.6409C54.6586 77.854 67.198 68.2983 72.761 54.8965L54.4887 40.0153L55.3259 45.3849L53.2694 42.4514L44.3759 42.8291L44.4062 52.0323L54.4645 59.284L48.7316 64.2885H21.6387V64.2948Z" fill="#F1C000"/>
<path d="M51.1826 59.3784L40.9545 52.07L44.0241 42.4892L35.1367 41.5323V52.07L49.1503 61.7579L51.1826 59.3784Z" fill="#F1C000"/>
<path d="M39.8927 78.6409C47.221 78.2506 53.9973 75.7012 59.6452 71.5969L47.0512 62.5574L43.6722 65.0816L21.6387 64.2948L39.8927 78.6409Z" fill="#E5B700"/>
<path d="M32.844 64.0556H40.4999L41.519 62.677L23.4227 49.3066L22.998 49.4325V57.8551L25.3882 62.0412L32.844 64.0556Z" fill="#E5B700"/>
<path d="M53.1367 15.4084C52.791 15.1188 51.8203 14.7222 51.8203 14.7222L55.9577 19.7519L57.3408 28.5648L75.6192 43.5152C75.7587 42.1429 75.8315 40.7517 75.8315 39.3417C75.8315 37.6861 75.7344 36.062 75.5403 34.4631C68.2423 28.2374 55.078 16.9947 54.7626 16.6611C54.3197 16.2078 53.4825 15.6979 53.1367 15.4084Z" fill="#F1C000"/>
<path d="M57.3521 28.5774H51.6738L70.1887 43.6663L74.9752 47.6636C75.2664 46.2535 75.4909 44.812 75.6304 43.3453L57.3521 28.5774Z" fill="#E5B700"/>
<path d="M72.7065 55.016C73.295 53.6185 73.8045 52.177 74.2292 50.6977L62.9394 41.312L44.4185 26.2356V33.7644L35.1367 26.1979V36.4586L47.209 40.7958L53.688 41.3183L51.583 39.5997L55.4109 40.8524L72.7065 55.016Z" fill="#E5B700"/>
<path d="M17.7617 49.3191H23.446V50.3137C23.446 53.4612 23.6765 55.784 24.1315 57.2759C24.5865 58.7678 25.3388 59.819 26.3883 60.4359C27.2072 60.908 28.4751 61.248 30.1859 61.4494C31.8966 61.6508 35.4213 61.7516 40.7598 61.7516C43.6596 61.7516 45.9042 61.5564 47.4997 61.1661C49.0951 60.7758 50.2842 60.1401 51.0607 59.2651C51.4914 58.7929 51.8129 57.9872 52.0192 56.8478C52.2255 55.7084 52.3286 54.1725 52.3286 52.2336C52.3286 48.3056 51.9464 45.838 51.182 44.8308C50.4176 43.8236 48.9071 43.2256 46.6443 43.0368L30.9381 41.7526C26.2366 41.3749 22.985 40.1537 21.1832 38.0953C19.3815 36.0368 18.4776 32.5683 18.4776 27.6898C18.4776 24.6116 18.7748 22.1377 19.3693 20.2681C19.9639 18.3985 20.9224 16.8499 22.2449 15.6161C23.2701 14.6719 24.7079 13.9983 26.5581 13.608C28.4084 13.2178 31.6661 13.0226 36.3434 13.0226H38.1573C43.3805 13.0226 47.0629 13.2807 49.1922 13.8032C51.3215 14.3257 53.1112 15.2258 54.5489 16.5037C55.5317 17.3535 56.2536 18.5684 56.7207 20.1422C57.1878 21.7159 57.4244 23.6736 57.4244 26.0216C57.4244 26.7078 57.4184 27.2365 57.4062 27.6016C57.3941 27.9667 57.3759 28.2941 57.3577 28.5773H51.6734V27.2617C51.6734 25.3229 51.5642 23.8373 51.3458 22.8049C51.1274 21.7725 50.7816 21.0109 50.3024 20.5136C49.5926 19.7771 48.3368 19.2672 46.523 18.9713C44.7091 18.6754 41.2694 18.5244 36.2039 18.5244C30.9563 18.5244 27.6562 19.1413 26.3155 20.3688C24.9687 21.6026 24.2953 24.0639 24.2953 27.759C24.2953 30.7869 24.7321 32.8768 25.6118 34.0287C26.4914 35.1744 28.184 35.8606 30.6955 36.0683L46.711 37.4532C50.909 37.8309 53.8513 39.0332 55.5438 41.0602C57.2303 43.0871 58.0736 46.4612 58.0736 51.2013C58.0736 54.6572 57.8552 57.257 57.4244 58.9944C56.9937 60.7318 56.2718 62.1859 55.2708 63.3442C54.0393 64.7857 52.3771 65.7992 50.2902 66.3783C48.2034 66.9574 44.3997 67.247 38.8792 67.247H36.3494C31.6479 67.247 28.3235 67.0015 26.3701 66.5042C24.4167 66.0069 22.7908 65.1445 21.4926 63.9107C20.2126 62.7713 19.2723 61.2354 18.6717 59.2965C18.065 57.3577 17.7617 54.8901 17.7617 51.9126V49.3191Z" fill="#222222"/>
<path d="M40.9375 26.2105H44.4561V52.0574H40.9375V26.2105Z" fill="#222222"/>
<path d="M31.6426 26.2105H35.1611V52.0574H31.6426V26.2105Z" fill="#222222"/>
</svg>
