<svg width="33" height="45" viewBox="0 0 33 45" fill="none" xmlns="http://www.w3.org/2000/svg">
  <g clip-path="url(#clip0_1837_1536)">
    <path d="M32.17 18.2064C32.1849 18.0448 32.1403 17.8684 32.0511 17.7067C31.962 17.5451 31.8283 17.4275 31.6648 17.354L17.0453 9.00605C16.7779 8.81499 16.4064 8.78559 16.0944 8.96196L15.6636 9.21181V11.2253V14.9584V18.6914V18.7061V18.7355V18.7502V18.7649V18.7796V18.7943V18.809V18.8237V18.8384V18.8531V18.8678V18.8825V18.8972V18.9119V18.9266V18.9413V18.956V18.9707V18.9854V19.0001V19.0148V19.0295V19.0442V19.0589V19.0736L15.6784 19.0883V19.103V19.1176V19.1324V19.147V19.1617L15.6933 19.1764L15.7082 19.1911L15.723 19.2058L15.7379 19.2205L15.7527 19.2352L15.7824 19.2646L15.7973 19.2793L15.8122 19.294L15.827 19.3087L15.8419 19.3234L15.8567 19.3381L15.8716 19.3528H15.8865L15.9013 19.3675L15.9162 19.3822L15.931 19.3969L15.9459 19.4116L15.9607 19.4263L15.9756 19.441L15.9904 19.4557L16.0053 19.4704L16.0202 19.4851L16.035 19.4998L22.4682 23.1741V30.0376L16.451 33.4767C14.4453 32.3303 12.4396 31.184 10.4338 30.0376V6.18421C10.4338 5.75799 10.4338 5.43466 9.97326 5.17011C7.37324 3.6857 4.75837 2.20129 2.15835 0.702188C1.43035 0.275972 0.746917 0.790371 0.806346 1.52523C0.806346 12.6656 0.806346 23.7913 0.806346 34.9317C0.791489 35.0934 0.83605 35.2698 0.925193 35.4314C1.01434 35.5931 1.14805 35.7107 1.29662 35.7842L15.9459 44.1468C16.0796 44.235 16.2579 44.2938 16.4362 44.2938C16.5996 44.2938 16.7482 44.2497 16.8819 44.1762L31.6351 35.7548C31.9471 35.5784 32.0957 35.2404 32.066 34.917V26.5691V18.2064H32.17ZM8.76983 6.43406V21.1459L2.6635 17.6626V2.95085L8.76983 6.43406ZM2.6635 19.6614L8.76983 23.1447V30.0082L2.6635 33.4914V19.6614ZM15.6636 41.9275L3.54007 35.0052L9.64641 31.522C11.6521 32.6684 13.6579 33.8148 15.6636 34.9611V41.9275ZM17.4167 18.2064V11.2253L29.5403 18.1476L23.4339 21.6309L17.4167 18.2064ZM17.4167 41.9129V34.9464L23.4339 31.5073L29.5403 34.9905L17.4167 41.9129ZM30.4168 33.4914L24.3105 30.0082V23.1447L30.4168 19.6614V26.5838C30.4168 26.5691 30.4168 31.3309 30.4168 33.4914Z" fill="url(#paint0_linear_1837_1536)"/>
  </g>
  <defs>
    <linearGradient id="paint0_linear_1837_1536" x1="0.909857" y1="22.4256" x2="32.1777" y2="22.4256" gradientUnits="userSpaceOnUse">
      <stop stop-color="#D715FF"/>
      <stop offset="1" stop-color="#1A26FF"/>
    </linearGradient>
    <clipPath id="clip0_1837_1536">
      <rect width="31.4974" height="43.7973" fill="white" transform="translate(0.802734 0.547455)"/>
    </clipPath>
  </defs>
</svg>
