<svg width="60" height="83" viewBox="0 0 60 83" fill="none" xmlns="http://www.w3.org/2000/svg">
  <path d="M59.3407 33.3187C59.3688 33.0137 59.2845 32.6809 59.1158 32.3759C58.9472 32.0708 58.6942 31.849 58.385 31.7103L30.7278 15.9594C30.2218 15.5989 29.5191 15.5434 28.9289 15.8762L28.1138 16.3476V34.9548L28.1419 34.9825V35.1212L28.5073 35.4817H28.5354L28.8165 35.759L40.9868 42.6916V55.6418L29.6035 62.1307C25.809 59.9678 22.0146 57.8048 18.2201 55.6418V10.6351C18.2201 9.83092 18.2201 9.22085 17.3488 8.7217C12.4301 5.92091 7.48329 3.12012 2.56456 0.291605C1.18732 -0.512581 -0.105595 0.45799 0.00683273 1.84452C0.00683273 22.8643 0.00683273 43.8563 0.00683273 64.8761C-0.0212743 65.1811 0.0630261 65.5139 0.231668 65.8189C0.40031 66.1239 0.653273 66.3458 0.934343 66.4844L28.6478 82.2631C28.9008 82.4295 29.2381 82.5404 29.5754 82.5404C29.8845 82.5404 30.1656 82.4572 30.4186 82.3186L58.3288 66.429C58.9191 66.0962 59.2001 65.4584 59.1439 64.8483V33.3187H59.3407ZM15.0722 11.1065V38.8648L3.52021 32.2927V4.53438L15.0722 11.1065ZM3.52021 36.064L15.0722 42.6362V55.5863L3.52021 62.1585V36.064ZM28.1138 78.0758L5.17849 65.0147L16.7305 58.4426C20.5249 60.6056 24.3194 62.7686 28.1138 64.9315V78.0758ZM31.4304 33.3187V20.1467L54.3657 33.2078L42.8138 39.7799L31.4304 33.3187ZM31.4304 78.0481V64.9038L42.8138 58.4149L54.3657 64.987L31.4304 78.0481ZM56.024 62.1585L44.4721 55.5863V42.6362L56.024 36.064V49.1251C56.024 49.0974 56.024 58.0821 56.024 62.1585Z" fill="url(#paint0_linear_1935_1156)"/>
  <defs>
    <linearGradient id="paint0_linear_1935_1156" x1="0.202654" y1="41.2794" x2="59.3553" y2="41.2794" gradientUnits="userSpaceOnUse">
      <stop stop-color="#D715FF"/>
      <stop offset="1" stop-color="#1A26FF"/>
    </linearGradient>
  </defs>
</svg>
