<svg width="288" height="33" viewBox="0 0 288 33" fill="none" xmlns="http://www.w3.org/2000/svg">
  <path fill-rule="evenodd" clip-rule="evenodd" d="M30.8644 0.0732422C32.14 0.0732422 33.2655 0.298346 34.241 0.723542C35.2414 1.17375 36.0668 1.74902 36.7171 2.47435C37.3924 3.19968 37.8926 4.05008 38.2178 5.00052C38.568 5.95095 38.718 6.97643 38.718 8.05192C38.718 9.22747 38.618 10.2029 38.4429 11.0033C38.2678 11.8037 37.7926 12.629 37.0673 13.5044C38.1428 13.6795 39.0682 14.1297 39.8435 14.8801C40.4579 15.4746 40.9937 16.1319 41.4385 16.852V10.4534C41.4385 9.27786 41.6386 8.07731 42.0638 6.85174C42.489 5.62618 43.0893 4.50066 43.8396 3.52521C44.59 2.52475 45.5154 1.72438 46.5909 1.07408C47.6664 0.423778 48.867 0.0986275 50.1926 0.0986275H75.6543C76.9549 0.0986275 78.1555 0.423778 79.231 1.07408C80.3065 1.72438 81.2319 2.54976 82.0072 3.55022C82.2957 3.93479 82.5619 4.33784 82.8046 4.75653V0.0732422H123.473V8.97735H104.39V22.2835C104.415 22.5336 104.49 22.8087 104.565 23.0588C104.64 23.309 104.89 23.459 105.315 23.459H115.245V32.3631H101.163C99.8374 32.3631 98.6369 32.038 97.5614 31.3877C96.4859 30.7374 95.5605 29.912 94.8101 28.9366C94.0348 27.9361 93.4595 26.8356 93.0593 25.635C92.6591 24.4095 92.459 23.2089 92.459 22.0334V8.97735H84.3019C84.3735 9.4718 84.4084 9.9626 84.4084 10.4534V22.0087C84.4084 23.1843 84.2083 24.3848 83.7831 25.6104C83.3579 26.836 82.7576 27.9615 82.0072 28.9369C81.2319 29.9374 80.3065 30.7378 79.231 31.3881C78.1305 32.0384 76.9549 32.3635 75.6543 32.3635H50.1926C48.867 32.3635 47.6664 32.0384 46.5909 31.3881C45.5154 30.7378 44.59 29.9124 43.8396 28.9119C43.2519 28.1536 42.7791 27.3233 42.3996 26.443C42.0187 27.3752 41.5205 28.2528 40.919 29.0616C40.1937 30.0371 39.3183 30.8374 38.2928 31.4377C37.2674 32.063 36.1168 32.3631 34.8662 32.3631H0.0751953V0.0732422H30.8644ZM30.4142 20.7328H14.2067V20.5827H14.1567V11.8037H26.0372C26.8375 11.2784 27.2627 10.8032 27.2627 10.403C27.2627 10.0779 27.1127 9.77772 26.8375 9.5276C26.5624 9.27749 26.2873 9.12742 25.9872 9.12742H11.4805V23.2589H30.3392C30.6643 23.2589 30.9144 23.1339 31.1145 22.8838C31.3146 22.6337 31.4147 22.3585 31.4147 22.0334C31.4147 21.8833 31.3146 21.6332 31.1145 21.308C30.9144 20.9829 30.6893 20.7828 30.4142 20.7328ZM71.5274 9.02775H54.2444C53.8443 9.02775 53.6192 9.17782 53.5691 9.45295C53.4941 9.72807 53.4691 10.0782 53.4691 10.5034V22.484C53.4691 22.7341 53.4941 22.9592 53.5691 23.1343C53.6442 23.3093 53.8943 23.4094 54.3445 23.4094H71.6275C72.0276 23.4094 72.2527 23.2843 72.3028 23.0092C72.3778 22.7591 72.4028 22.484 72.4028 22.2338V10.4034C72.4028 9.92816 72.3778 9.578 72.3028 9.3529C72.2527 9.15281 71.9776 9.02775 71.5274 9.02775Z" fill="url(#paint0_linear_4_1798)"/>
  <path d="M114.979 23.459H142.191C142.441 23.459 142.666 23.2839 142.866 22.9587C143.066 22.6336 143.167 22.3584 143.167 22.2084C143.167 21.9583 143.016 21.6331 142.716 21.2829C142.416 20.9328 142.141 20.7577 141.891 20.7577H123.683C122.482 20.7577 121.356 20.4326 120.306 19.7823C119.255 19.132 118.33 18.3066 117.555 17.3061C116.779 16.3057 116.154 15.2051 115.704 14.0046C115.254 12.804 115.029 11.6285 115.029 10.503C115.029 9.32743 115.229 8.12688 115.654 6.90131C116.079 5.67575 116.679 4.55023 117.43 3.57477C118.18 2.57431 119.105 1.77394 120.181 1.12364C121.256 0.473343 122.457 0.148193 123.783 0.148193H154.772V9.0523H127.934C127.484 9.0523 127.184 9.15235 127.084 9.32743C126.959 9.50251 126.884 9.87769 126.809 10.4279C126.809 10.6781 126.859 10.9532 126.934 11.2533C127.009 11.5535 127.184 11.7035 127.434 11.7035H146.868C148.169 11.7035 149.344 12.0537 150.42 12.779C151.495 13.5044 152.421 14.3798 153.196 15.4553C153.972 16.5308 154.572 17.7063 155.022 18.9569C155.472 20.2075 155.697 21.333 155.697 22.4335C155.697 23.509 155.497 24.6345 155.072 25.785C154.647 26.9606 154.072 28.0361 153.346 29.0115C152.621 29.987 151.745 30.7873 150.72 31.4126C149.695 32.0379 148.594 32.3631 147.393 32.3631H114.979V23.459Z" fill="white"/>
  <path d="M165.915 0.0747681L174.644 17.8079L176.795 15.6069L169.166 0.124791H180.747L189.376 17.0826L198.68 0.0747681H211.636L194.203 32.3647H184.223L182.222 27.8876L179.646 32.3647H169.817L152.959 0.0747681H165.915Z" fill="white"/>
  <path d="M197.226 32.3647L216.509 0.0747681H227.615L247.399 32.3647H219.836L214.859 24.9112L210.132 32.3647H197.226ZM215.859 23.2605H228.34L221.912 13.3309L215.859 23.2605Z" fill="white"/>
  <path d="M256.04 32.3897V9.20398L274.509 9.025C275.378 9.025 276.082 9.72896 276.082 10.5973C276.082 11.4657 275.378 12.1697 274.509 12.1697H258.907V21.1169C258.987 21.1189 259.068 21.1199 259.149 21.1199H277.775C283.119 21.1199 287.451 16.7878 287.451 11.444V9.75069C287.451 4.40682 283.119 0.0747681 277.775 0.0747681H259.149H244.71H244.635V32.3897H256.04Z" fill="white"/>
  <defs>
    <linearGradient id="paint0_linear_4_1798" x1="0.438044" y1="14.9501" x2="116.307" y2="14.9501" gradientUnits="userSpaceOnUse">
      <stop stop-color="#2824F5"/>
      <stop offset="1" stop-color="#C02FF6"/>
    </linearGradient>
  </defs>
</svg>
