<svg xmlns="http://www.w3.org/2000/svg" xmlns:xlink="http://www.w3.org/1999/xlink" data-name="Слой 1" width="183.31" height="49.56" style=""><rect id="backgroundrect" width="100%" height="100%" x="0" y="0" fill="none" stroke="none"/><defs><style>.cls-1{fill:url(#Новый_образец_градиентной_зал_2);}.cls-2{fill:url(#Новый_образец_градиентной_зал_2-2);}.cls-3{fill:url(#Новый_образец_градиентной_зал_2-3);}.cls-4{fill:url(#Новый_образец_градиентной_зал_2-4);}.cls-5{fill:#fff;}</style><linearGradient id="Новый_образец_градиентной_зал_2" x1="50.40999984741211" y1="28.260000228881836" x2="56.349998474121094" y2="11.0600004196167" gradientTransform="matrix(1, 0, 0, -1, 0, 52)" gradientUnits="userSpaceOnUse"><stop offset="0" stop-color="#d715ff"/><stop offset="1" stop-color="#1a26ff"/></linearGradient><linearGradient id="Новый_образец_градиентной_зал_2-2" x1="69.70999908447266" y1="34.93000030517578" x2="75.6500015258789" y2="17.729999542236328" xlink:href="#Новый_образец_градиентной_зал_2"/><linearGradient id="Новый_образец_градиентной_зал_2-3" x1="88.0999984741211" y1="41.279998779296875" x2="94.04000091552734" y2="24.079999923706055" xlink:href="#Новый_образец_градиентной_зал_2"/><linearGradient id="Новый_образец_градиентной_зал_2-4" x1="9.149999618530273" y1="54.09000015258789" x2="22.8799991607666" y2="3.7899999618530273" xlink:href="#Новый_образец_градиентной_зал_2"/></defs><g class="currentLayer" style=""><title>Layer 1</title><path class="cls-4" d="M35.05,19 L18.45,9.58 a1.3900000000000001,1.3900000000000001 0 0 0 -1.1400000000000001,-0.25 a0.7400000000000001,0.7400000000000001 0 0 0 -0.35000000000000003,0.29000000000000004 a1.1400000000000001,1.1400000000000001 0 0 0 -0.08000000000000002,0.49000000000000005 s0,10.77 0,10.88 s0,0.23 0.42000000000000004,0.48000000000000004 l7.3100000000000005,4.16 v7.78 L17.77,37.3 l-6.83,-3.89 v-27 c0,-0.48000000000000004 0,-0.8400000000000001 -0.52,-1.1400000000000001 C7.46,3.55 4.49,1.87 1.54,0.17 A1,1 0 0 0 0,1.11 V39 a1.07,1.07 0 0 0 0.14,0.5700000000000001 a1.1400000000000001,1.1400000000000001 0 0 0 0.42000000000000004,0.4 L17.2,49.39 a1,1 0 0 0 0.56,0.17 a1,1 0 0 0 0.5,-0.14 L35,39.88 a1,1 0 0 0 0.49000000000000005,-0.9400000000000001 V20 a1.32,1.32 0 0 0 -0.1,-0.6000000000000001 A0.8900000000000001,0.8900000000000001 0 0 0 35.05,19 zM9.05,6.67 V23.33 L2.11,19.39 V2.72 zm-6.94,15 l6.94,4 v7.77 l-6.94,4 zM16.88,46.88 L3.11,39 L10,35.09 L16.88,39 zm2,-26.88 V12.1 l13.77,7.84 l-6.93,3.94 zm0,26.86 V39 l6.84,-3.9 l6.93,4 zm14.77,-9.54 l-6.94,-4 V25.6 l6.94,-4 V37.32 z" id="svg_4"/></g></svg>