<svg width="160" height="39" viewBox="0 0 160 39" fill="none" xmlns="http://www.w3.org/2000/svg">
<path d="M18.4589 38.1949C28.6534 38.1949 36.9178 29.8571 36.9178 19.5719C36.9178 9.28671 28.6534 0.948914 18.4589 0.948914C8.26432 0.948914 0 9.28671 0 19.5719C0 29.8571 8.26432 38.1949 18.4589 38.1949Z" fill="#FFCC00"/>
<path d="M25.8572 28.5318L25.553 29.5568L19.9268 25.57H21.6102L25.4437 28.2338L25.8572 28.5318Z" fill="#E5B700"/>
<path d="M21.4596 25.5939L21.2115 28.3411L23.9168 30.1498L22.4962 30.5401L21.0579 29.5807L15.4316 25.5939H17.1062L21.0579 22.7572L21.4596 25.5939Z" fill="#E5B700"/>
<path d="M10.5342 31.3804L19.421 38.1711C26.6097 37.7986 32.7144 33.2755 35.4227 26.9317L26.527 19.8878L26.9345 22.4294L25.9333 21.0409L21.6036 21.2197L21.6184 25.576L26.5152 29.0086L23.7242 31.3774H10.5342V31.3804Z" fill="#F1C000"/>
<path d="M24.9182 29.0532L19.9388 25.5938L21.4332 21.0587L17.1064 20.6058V25.5938L23.9288 30.1795L24.9182 29.0532Z" fill="#F1C000"/>
<path d="M19.421 38.1711C22.9888 37.9863 26.2877 36.7796 29.0374 34.8368L22.9061 30.558L21.261 31.7528L10.5342 31.3804L19.421 38.1711Z" fill="#E5B700"/>
<path d="M15.9897 31.2672H19.7169L20.2131 30.6146L11.403 24.2858L11.1963 24.3454V28.3322L12.3599 30.3137L15.9897 31.2672Z" fill="#E5B700"/>
<path d="M25.8694 8.24019C25.7011 8.10312 25.2285 7.91541 25.2285 7.91541L27.2428 10.2962L27.9161 14.4677L36.8148 21.5445C36.8827 20.8949 36.9182 20.2364 36.9182 19.5689C36.9182 18.7853 36.8709 18.0165 36.7764 17.2597C33.2234 14.3128 26.8145 8.99107 26.6609 8.83315C26.4453 8.61861 26.0378 8.37726 25.8694 8.24019Z" fill="#F1C000"/>
<path d="M27.9216 14.4738H25.1572L34.1711 21.616L36.5013 23.5081C36.6431 22.8407 36.7524 22.1583 36.8203 21.4641L27.9216 14.4738Z" fill="#E5B700"/>
<path d="M35.397 26.9883C35.6835 26.3268 35.9316 25.6445 36.1383 24.9443L30.642 20.5016L21.6252 13.3652V16.9289L17.1064 13.3474V18.2042L22.9838 20.2572L26.138 20.5045L25.1132 19.6911L26.9768 20.284L35.397 26.9883Z" fill="#E5B700"/>
<path d="M8.64844 24.2917H11.4158V24.7625C11.4158 26.2523 11.528 27.3519 11.7495 28.058C11.971 28.7642 12.3373 29.2618 12.8482 29.5538C13.2469 29.7773 13.8642 29.9382 14.697 30.0336C15.5299 30.1289 17.2459 30.1766 19.8449 30.1766C21.2566 30.1766 22.3494 30.0842 23.1261 29.8995C23.9029 29.7147 24.4817 29.4138 24.8598 28.9996C25.0695 28.7761 25.226 28.3947 25.3264 27.8554C25.4268 27.3161 25.477 26.5891 25.477 25.6713C25.477 23.812 25.291 22.644 24.9188 22.1672C24.5467 21.6905 23.8113 21.4074 22.7097 21.318L15.0633 20.7101C12.7744 20.5314 11.1913 19.9533 10.3142 18.979C9.437 18.0046 8.99694 16.3628 8.99694 14.0535C8.99694 12.5965 9.14166 11.4255 9.43109 10.5405C9.72053 9.65555 10.1872 8.92254 10.831 8.33853C11.3301 7.89158 12.0301 7.57275 12.9309 7.38801C13.8317 7.20327 15.4177 7.1109 17.6948 7.1109H18.5778C21.1207 7.1109 22.9135 7.23307 23.9501 7.48038C24.9868 7.72769 25.858 8.15379 26.558 8.75866C27.0365 9.16092 27.3879 9.736 27.6153 10.4809C27.8427 11.2258 27.9579 12.1525 27.9579 13.2639C27.9579 13.5887 27.955 13.839 27.9491 14.0118C27.9432 14.1847 27.9343 14.3396 27.9254 14.4737H25.1581V13.8509C25.1581 12.9332 25.1049 12.23 24.9986 11.7413C24.8923 11.2527 24.7239 10.8921 24.4906 10.6567C24.1451 10.3081 23.5337 10.0667 22.6506 9.9267C21.7675 9.78665 20.093 9.71514 17.6268 9.71514C15.0721 9.71514 13.4655 10.0071 12.8128 10.5882C12.1571 11.1722 11.8293 12.3373 11.8293 14.0863C11.8293 15.5196 12.0419 16.5088 12.4702 17.0541C12.8984 17.5964 13.7224 17.9212 14.9451 18.0195L22.7422 18.675C24.7859 18.8538 26.2184 19.4229 27.0424 20.3824C27.8634 21.3418 28.2739 22.9389 28.2739 25.1826C28.2739 26.8185 28.1676 28.0491 27.9579 28.8715C27.7482 29.6939 27.3968 30.3822 26.9095 30.9304C26.3099 31.6128 25.5007 32.0925 24.4847 32.3666C23.4687 32.6408 21.6169 32.7778 18.9293 32.7778H17.6977C15.4088 32.7778 13.7903 32.6616 12.8393 32.4262C11.8883 32.1908 11.0968 31.7826 10.4648 31.1986C9.84162 30.6593 9.38384 29.9323 9.09145 29.0145C8.79611 28.0968 8.64844 26.9287 8.64844 25.5193V24.2917Z" fill="black"/>
<path d="M19.9297 13.3533H21.6427V25.5878H19.9297V13.3533Z" fill="black"/>
<path d="M15.4053 13.3533H17.1183V25.5878H15.4053V13.3533Z" fill="black"/>
<path d="M51.088 25.256C50.16 25.256 49.2533 25.1547 48.368 24.952C47.4933 24.7387 46.7733 24.456 46.208 24.104L47.424 21.352C47.9573 21.6613 48.5547 21.912 49.216 22.104C49.8773 22.2853 50.512 22.376 51.12 22.376C51.6427 22.376 52.016 22.328 52.24 22.232C52.464 22.1253 52.576 21.9707 52.576 21.768C52.576 21.5333 52.4267 21.3573 52.128 21.24C51.84 21.1227 51.36 20.9947 50.688 20.856C49.824 20.6747 49.104 20.4827 48.528 20.28C47.952 20.0667 47.4507 19.7253 47.024 19.256C46.5973 18.776 46.384 18.1307 46.384 17.32C46.384 16.616 46.5813 15.976 46.976 15.4C47.3707 14.824 47.9573 14.3707 48.736 14.04C49.5253 13.7093 50.48 13.544 51.6 13.544C52.368 13.544 53.12 13.6293 53.856 13.8C54.6027 13.96 55.2587 14.2 55.824 14.52L54.688 17.256C53.5893 16.7013 52.5493 16.424 51.568 16.424C50.5973 16.424 50.112 16.6587 50.112 17.128C50.112 17.352 50.256 17.5227 50.544 17.64C50.832 17.7467 51.3067 17.864 51.968 17.992C52.8213 18.152 53.5413 18.3387 54.128 18.552C54.7147 18.7547 55.2213 19.0907 55.648 19.56C56.0853 20.0293 56.304 20.6693 56.304 21.48C56.304 22.184 56.1067 22.824 55.712 23.4C55.3173 23.9653 54.7253 24.4187 53.936 24.76C53.1573 25.0907 52.208 25.256 51.088 25.256ZM63.7636 24.696C63.2196 25.0053 62.4783 25.16 61.5396 25.16C60.313 25.16 59.369 24.8667 58.7076 24.28C58.0463 23.6827 57.7156 22.792 57.7156 21.608V19.368H56.5156V16.728H57.7156V14.28H61.3316V16.728H63.1236V19.368H61.3316V21.576C61.3316 21.8427 61.401 22.0507 61.5396 22.2C61.6783 22.3493 61.8596 22.424 62.0836 22.424C62.393 22.424 62.665 22.344 62.8996 22.184L63.7636 24.696ZM68.115 17.192C68.755 16.456 69.699 16.088 70.947 16.088V19.288C70.659 19.2453 70.3923 19.224 70.147 19.224C68.9097 19.224 68.291 19.8533 68.291 21.112V25H64.675V16.248H68.115V17.192ZM76.5178 25.16C75.5471 25.16 74.6724 24.968 73.8938 24.584C73.1258 24.1893 72.5231 23.6507 72.0858 22.968C71.6484 22.2747 71.4298 21.4907 71.4298 20.616C71.4298 19.7413 71.6484 18.9627 72.0858 18.28C72.5231 17.5867 73.1258 17.048 73.8938 16.664C74.6724 16.28 75.5471 16.088 76.5178 16.088C77.4991 16.088 78.3738 16.28 79.1418 16.664C79.9204 17.048 80.5231 17.5867 80.9498 18.28C81.3871 18.9627 81.6058 19.7413 81.6058 20.616C81.6058 21.4907 81.3871 22.2747 80.9498 22.968C80.5231 23.6507 79.9204 24.1893 79.1418 24.584C78.3738 24.968 77.4991 25.16 76.5178 25.16ZM76.5178 22.344C76.9338 22.344 77.2751 22.1947 77.5418 21.896C77.8084 21.5867 77.9418 21.16 77.9418 20.616C77.9418 20.072 77.8084 19.6507 77.5418 19.352C77.2751 19.0533 76.9338 18.904 76.5178 18.904C76.1018 18.904 75.7604 19.0533 75.4938 19.352C75.2271 19.6507 75.0938 20.072 75.0938 20.616C75.0938 21.16 75.2271 21.5867 75.4938 21.896C75.7604 22.1947 76.1018 22.344 76.5178 22.344ZM88.8175 16.088C89.8948 16.088 90.7588 16.4133 91.4095 17.064C92.0708 17.7147 92.4015 18.696 92.4015 20.008V25H88.7855V20.632C88.7855 19.6293 88.4282 19.128 87.7135 19.128C87.3082 19.128 86.9775 19.272 86.7215 19.56C86.4762 19.8373 86.3535 20.28 86.3535 20.888V25H82.7375V16.248H86.1775V17.112C86.5188 16.7707 86.9135 16.5147 87.3615 16.344C87.8095 16.1733 88.2948 16.088 88.8175 16.088ZM103.904 16.248V23.256C103.904 24.92 103.44 26.168 102.512 27C101.595 27.8427 100.283 28.264 98.5761 28.264C97.7015 28.264 96.8855 28.168 96.1281 27.976C95.3708 27.7947 94.7255 27.528 94.1921 27.176L95.4081 24.712C95.7495 24.968 96.1815 25.176 96.7041 25.336C97.2268 25.496 97.7281 25.576 98.2081 25.576C98.9335 25.576 99.4615 25.4213 99.7921 25.112C100.123 24.8027 100.288 24.3493 100.288 23.752V23.592C99.7441 24.2107 98.9388 24.52 97.8721 24.52C97.1255 24.52 96.4268 24.3493 95.7761 24.008C95.1361 23.656 94.6241 23.16 94.2401 22.52C93.8561 21.8693 93.6641 21.128 93.6641 20.296C93.6641 19.464 93.8561 18.728 94.2401 18.088C94.6241 17.448 95.1361 16.9573 95.7761 16.616C96.4268 16.264 97.1255 16.088 97.8721 16.088C99.0668 16.088 99.9308 16.472 100.464 17.24V16.248H103.904ZM98.8321 21.704C99.2588 21.704 99.6108 21.576 99.8881 21.32C100.176 21.0533 100.32 20.712 100.32 20.296C100.32 19.88 100.176 19.544 99.8881 19.288C99.6108 19.032 99.2588 18.904 98.8321 18.904C98.3948 18.904 98.0321 19.032 97.7441 19.288C97.4668 19.544 97.3281 19.88 97.3281 20.296C97.3281 20.712 97.4721 21.0533 97.7601 21.32C98.0481 21.576 98.4055 21.704 98.8321 21.704ZM116.655 13.8V25H112.879V20.872H109.391V25H105.615V13.8H109.391V17.768H112.879V13.8H116.655ZM122.283 16.088C123.819 16.088 124.992 16.4347 125.803 17.128C126.613 17.8107 127.019 18.8667 127.019 20.296V25H123.659V23.848C123.243 24.7227 122.416 25.16 121.179 25.16C120.485 25.16 119.893 25.0427 119.403 24.808C118.923 24.5627 118.555 24.2373 118.299 23.832C118.053 23.416 117.931 22.952 117.931 22.44C117.931 21.576 118.261 20.92 118.923 20.472C119.584 20.024 120.587 19.8 121.931 19.8H123.387C123.269 19.1173 122.72 18.776 121.739 18.776C121.344 18.776 120.944 18.84 120.539 18.968C120.133 19.0853 119.787 19.2507 119.499 19.464L118.347 17.08C118.848 16.7707 119.451 16.5307 120.155 16.36C120.869 16.1787 121.579 16.088 122.283 16.088ZM122.266 22.984C122.523 22.984 122.752 22.9147 122.955 22.776C123.157 22.6373 123.307 22.4293 123.403 22.152V21.544H122.507C121.771 21.544 121.403 21.7893 121.403 22.28C121.403 22.4827 121.477 22.6533 121.627 22.792C121.787 22.92 122 22.984 122.266 22.984ZM134.661 16.088C135.739 16.088 136.603 16.4133 137.253 17.064C137.915 17.7147 138.245 18.696 138.245 20.008V25H134.629V20.632C134.629 19.6293 134.272 19.128 133.557 19.128C133.152 19.128 132.821 19.272 132.565 19.56C132.32 19.8373 132.197 20.28 132.197 20.888V25H128.581V16.248H132.021V17.112C132.363 16.7707 132.757 16.5147 133.205 16.344C133.653 16.1733 134.139 16.088 134.661 16.088ZM149.652 13.128V25H146.212V24.28C145.689 24.8667 144.889 25.16 143.812 25.16C143.044 25.16 142.335 24.9787 141.684 24.616C141.044 24.2427 140.532 23.7093 140.148 23.016C139.775 22.3227 139.588 21.5227 139.588 20.616C139.588 19.7093 139.775 18.9147 140.148 18.232C140.532 17.5387 141.044 17.0107 141.684 16.648C142.335 16.2747 143.044 16.088 143.812 16.088C144.783 16.088 145.524 16.3387 146.036 16.84V13.128H149.652ZM144.676 22.344C145.092 22.344 145.433 22.1947 145.7 21.896C145.967 21.5867 146.1 21.16 146.1 20.616C146.1 20.072 145.967 19.6507 145.7 19.352C145.433 19.0533 145.092 18.904 144.676 18.904C144.26 18.904 143.919 19.0533 143.652 19.352C143.385 19.6507 143.252 20.072 143.252 20.616C143.252 21.16 143.385 21.5867 143.652 21.896C143.919 22.1947 144.26 22.344 144.676 22.344ZM154.677 25.16C153.93 25.16 153.194 25.08 152.469 24.92C151.744 24.76 151.157 24.552 150.709 24.296L151.701 21.912C152.106 22.1573 152.586 22.3493 153.141 22.488C153.696 22.6267 154.234 22.696 154.757 22.696C155.173 22.696 155.461 22.664 155.621 22.6C155.792 22.5253 155.877 22.4187 155.877 22.28C155.877 22.1413 155.77 22.0453 155.557 21.992C155.354 21.9387 155.018 21.8853 154.549 21.832C153.834 21.7467 153.226 21.64 152.725 21.512C152.224 21.3733 151.781 21.112 151.397 20.728C151.024 20.344 150.837 19.7947 150.837 19.08C150.837 18.5147 151.008 18.008 151.349 17.56C151.69 17.112 152.197 16.7547 152.869 16.488C153.552 16.2213 154.368 16.088 155.317 16.088C155.978 16.088 156.624 16.152 157.253 16.28C157.893 16.3973 158.437 16.5733 158.885 16.808L157.893 19.192C157.125 18.7653 156.282 18.552 155.365 18.552C154.576 18.552 154.181 18.6907 154.181 18.968C154.181 19.1067 154.288 19.208 154.501 19.272C154.714 19.3253 155.05 19.3787 155.509 19.432C156.224 19.5173 156.826 19.6293 157.317 19.768C157.818 19.9067 158.256 20.168 158.629 20.552C159.013 20.936 159.205 21.4853 159.205 22.2C159.205 22.744 159.034 23.24 158.693 23.688C158.352 24.136 157.84 24.4933 157.157 24.76C156.474 25.0267 155.648 25.16 154.677 25.16Z" fill="black"/>
</svg>
