<svg width="45" height="57" viewBox="0 0 45 57" fill="none" xmlns="http://www.w3.org/2000/svg">
  <path d="M44.8795 22.6791C44.9008 22.4715 44.837 22.245 44.7094 22.0374C44.5819 21.8297 44.3906 21.6787 44.1568 21.5843L23.2395 10.8631C22.8568 10.6177 22.3254 10.58 21.879 10.8065L21.2626 11.1274V23.7928L21.2838 23.8116V23.906L21.5601 24.1514H21.5814L21.794 24.3402L30.9984 29.059V37.8738L22.3892 42.2907C19.5194 40.8184 16.6497 39.3461 13.7799 37.8738V7.23902C13.7799 6.69164 13.7799 6.27638 13.121 5.93662C9.40093 4.0302 5.65963 2.12378 1.93959 0.198488C0.897973 -0.348899 -0.079862 0.311741 0.00516762 1.25551C0.00516762 15.5631 0.00516762 29.8518 0.00516762 44.1594C-0.0160898 44.367 0.0476668 44.5935 0.175211 44.8011C0.302756 45.0087 0.494072 45.1597 0.706646 45.2541L21.6664 55.9942C21.8577 56.1075 22.1128 56.183 22.3679 56.183C22.6018 56.183 22.8143 56.1264 23.0057 56.032L44.1143 45.2164C44.5607 44.9899 44.7732 44.5557 44.7307 44.1405V22.6791H44.8795ZM11.3991 7.5599V26.4542L2.66234 21.9807V3.08643L11.3991 7.5599ZM2.66234 24.5478L11.3991 29.0213V37.8361L2.66234 42.3096V24.5478ZM21.2626 53.144L3.91651 44.2537L12.6533 39.7803C15.5231 41.2525 18.3928 42.7248 21.2626 44.1971V53.144ZM23.7709 22.6791V13.7133L41.1169 22.6036L32.3802 27.0771L23.7709 22.6791ZM23.7709 53.1252V44.1782L32.3802 39.7614L41.1169 44.2348L23.7709 53.1252ZM42.3711 42.3096L33.6344 37.8361V29.0213L42.3711 24.5478V33.4381C42.3711 33.4192 42.3711 39.5349 42.3711 42.3096Z" fill="url(#paint0_linear_1935_1687)"/>
  <defs>
    <linearGradient id="paint0_linear_1935_1687" x1="0.153268" y1="28.0978" x2="44.8905" y2="28.0978" gradientUnits="userSpaceOnUse">
      <stop stop-color="#D715FF"/>
      <stop offset="1" stop-color="#1A26FF"/>
    </linearGradient>
  </defs>
</svg>
