<svg width="178" height="42" viewBox="0 0 178 42" fill="none" xmlns="http://www.w3.org/2000/svg">
<path d="M30.0322 16.7109C30.0464 16.5579 30.0037 16.391 29.9184 16.238C29.833 16.0851 29.705 15.9738 29.5485 15.9042L15.5512 8.00439C15.2952 7.82358 14.9396 7.79577 14.6408 7.96267L14.2283 8.19911V17.5315L14.2426 17.5454V17.615L14.4275 17.7958H14.4417L14.584 17.9349L20.7433 21.4119V27.907L14.9822 31.1616C13.0619 30.0767 11.1415 28.9919 9.22116 27.907V5.33402C9.22116 4.93068 9.22117 4.6247 8.7802 4.37435C6.29084 2.96962 3.78727 1.56489 1.29792 0.146254C0.600899 -0.257084 -0.0534415 0.229704 0.00345803 0.925115C0.00345803 11.4675 0.00345803 21.996 0.00345803 32.5385C-0.0107668 32.6915 0.0318974 32.8584 0.117247 33.0113C0.202596 33.1643 0.33062 33.2756 0.472868 33.3451L14.4986 41.2589C14.6266 41.3424 14.7973 41.398 14.968 41.398C15.1245 41.398 15.2667 41.3563 15.3948 41.2867L29.5201 33.3173C29.8188 33.1504 29.961 32.8305 29.9326 32.5246V16.7109H30.0322ZM7.62799 5.57045V19.4926L1.78157 16.1963V2.27421L7.62799 5.57045ZM1.78157 18.0878L7.62799 21.3841V27.8792L1.78157 31.1755V18.0878ZM14.2283 39.1588L2.62082 32.608L8.46726 29.3118C10.3876 30.3966 12.308 31.4814 14.2283 32.5663V39.1588ZM15.9069 16.7109V10.1045L27.5143 16.6553L21.6679 19.9515L15.9069 16.7109ZM15.9069 39.1449V32.5524L21.6679 29.2979L27.5143 32.5941L15.9069 39.1449ZM28.3536 31.1755L22.5072 27.8792V21.3841L28.3536 18.0878V24.6386C28.3536 24.6247 28.3536 29.131 28.3536 31.1755Z" fill="url(#paint1_linear_2471_4594)"/>
  <defs>
    <linearGradient id="paint1_linear_2471_4594" x1="0.102563" y1="20.7036" x2="30.0395" y2="20.7036" gradientUnits="userSpaceOnUse">
      <stop stop-color="#D715FF"/>
      <stop offset="1" stop-color="#1A26FF"/>
    </linearGradient>
  </defs>
</svg>
