<svg id="Слой_1" data-name="Слой 1" xmlns="http://www.w3.org/2000/svg" xmlns:xlink="http://www.w3.org/1999/xlink" viewBox="0 0 183.31 49.56"><defs><style>.cls-1{fill:url(#Новый_образец_градиентной_зал_2);}.cls-2{fill:url(#Новый_образец_градиентной_зал_2-2);}.cls-3{fill:url(#Новый_образец_градиентной_зал_2-3);}.cls-4{fill:url(#Новый_образец_градиентной_зал_2-4);}.cls-5{fill:#fff;}</style><linearGradient id="Новый_образец_градиентной_зал_2" x1="50.41" y1="28.26" x2="56.35" y2="11.06" gradientTransform="matrix(1, 0, 0, -1, 0, 52)" gradientUnits="userSpaceOnUse"><stop offset="0" stop-color="#d715ff"/><stop offset="1" stop-color="#1a26ff"/></linearGradient><linearGradient id="Новый_образец_градиентной_зал_2-2" x1="69.71" y1="34.93" x2="75.65" y2="17.73" xlink:href="#Новый_образец_градиентной_зал_2"/><linearGradient id="Новый_образец_градиентной_зал_2-3" x1="88.1" y1="41.28" x2="94.04" y2="24.08" xlink:href="#Новый_образец_градиентной_зал_2"/><linearGradient id="Новый_образец_градиентной_зал_2-4" x1="9.15" y1="54.09" x2="22.88" y2="3.79" xlink:href="#Новый_образец_градиентной_зал_2"/></defs><g id="Layer_2" data-name="Layer 2"><g id="Layer_1-2" data-name="Layer 1-2"><path class="cls-1" d="M58.41,21.34a4,4,0,0,1,1.65.32A3.45,3.45,0,0,1,62,23.75a4.38,4.38,0,0,1,.25,1.48,6.24,6.24,0,0,1-.13,1.43,2.93,2.93,0,0,1-.67,1.22,2.41,2.41,0,0,1,1.35.67,4.69,4.69,0,0,1,.93,1.24,5.89,5.89,0,0,1,.54,1.39,5,5,0,0,1,.16,1.09,5,5,0,0,1-.29,1.62,6.15,6.15,0,0,1-.83,1.56A4.54,4.54,0,0,1,62,36.61a3.15,3.15,0,0,1-1.67.45H43.43V21.34ZM58.2,31.39H50.3v-.07h0V27.05h5.78c.4-.25.6-.48.6-.68a.6.6,0,0,0-.2-.43.65.65,0,0,0-.42-.19H49v6.88h9.17a.44.44,0,0,0,.38-.18.71.71,0,0,0,.14-.42.83.83,0,0,0-.14-.35A.59.59,0,0,0,58.2,31.39Z" transform="translate(0 0)"/><path class="cls-2" d="M64,26.39a5.2,5.2,0,0,1,.31-1.75A5.69,5.69,0,0,1,65.16,23a5.11,5.11,0,0,1,1.34-1.2,3.39,3.39,0,0,1,1.76-.47H79.54a3.39,3.39,0,0,1,1.76.47A5,5,0,0,1,82.64,23a5.81,5.81,0,0,1,1.15,3.38V32a5.75,5.75,0,0,1-1.15,3.36,5,5,0,0,1-1.34,1.2,3.39,3.39,0,0,1-1.76.47H68.26a3.39,3.39,0,0,1-1.76-.47,5.11,5.11,0,0,1-1.34-1.2,5.81,5.81,0,0,1-.86-1.61A5.19,5.19,0,0,1,64,32Zm6.28-.71c-.22,0-.34.05-.38.17a2,2,0,0,0,0,.49v5.93a.86.86,0,0,0,0,.32c0,.09.16.13.38.13h7.26c.22,0,.35,0,.38-.13a.86.86,0,0,0,0-.32V26.34a2,2,0,0,0,0-.49c0-.12-.16-.17-.38-.17Z" transform="translate(0 0)"/><path class="cls-3" d="M80.12,21.34h24.8v4.34h-12V37.06H87.4V25.68H80.12Z" transform="translate(0 0)"/></g></g><path class="cls-4" d="M35.05,19,18.45,9.58a1.39,1.39,0,0,0-1.14-.25.74.74,0,0,0-.35.29,1.14,1.14,0,0,0-.08.49s0,10.77,0,10.88,0,.23.42.48l7.31,4.16v7.78L17.77,37.3l-6.83-3.89v-27c0-.48,0-.84-.52-1.14C7.46,3.55,4.49,1.87,1.54.17A1,1,0,0,0,0,1.11V39a1.07,1.07,0,0,0,.14.57,1.14,1.14,0,0,0,.42.4L17.2,49.39a1,1,0,0,0,.56.17,1,1,0,0,0,.5-.14L35,39.88a1,1,0,0,0,.49-.94V20a1.32,1.32,0,0,0-.1-.6A.89.89,0,0,0,35.05,19ZM9.05,6.67V23.33L2.11,19.39V2.72Zm-6.94,15,6.94,4v7.77l-6.94,4ZM16.88,46.88,3.11,39,10,35.09,16.88,39Zm2-26.88V12.1l13.77,7.84-6.93,3.94Zm0,26.86V39l6.84-3.9,6.93,4Zm14.77-9.54-6.94-4V25.6l6.94-4V37.32Z" transform="translate(0 0)"/><path class="cls-5" d="M111.91,32.75a.38.38,0,0,0,.33-.25.82.82,0,0,0,.14-.37.75.75,0,0,0-.21-.45.59.59,0,0,0-.4-.26h-8.88a3.1,3.1,0,0,1-1.65-.48,5,5,0,0,1-1.34-1.21,6.05,6.05,0,0,1-.9-1.61,4.8,4.8,0,0,1-.33-1.71A5.26,5.26,0,0,1,99,24.66,5.52,5.52,0,0,1,99.84,23a5,5,0,0,1,1.35-1.2,3.35,3.35,0,0,1,1.75-.47H118V25.7H105c-.22,0-.36,0-.42.13a1.59,1.59,0,0,0-.13.54,1.49,1.49,0,0,0,.06.4.25.25,0,0,0,.25.21h9.47a3.11,3.11,0,0,1,1.73.52,5.41,5.41,0,0,1,1.35,1.31,6.33,6.33,0,0,1,.89,1.71,5.1,5.1,0,0,1,.32,1.73,4.74,4.74,0,0,1-.31,1.64,5.59,5.59,0,0,1-.84,1.56,4.5,4.5,0,0,1-1.28,1.18,3,3,0,0,1-1.63.46H98.65V32.75Z" transform="translate(0 0)"/><path class="cls-5" d="M117.34,21.36h6.32L127.9,30l1-1.07-3.7-7.55h5.64l4.2,8.26,4.53-8.28h6.32l-8.5,15.73h-4.86l-1-2.18-1.25,2.18h-4.8Z" transform="translate(0 0)"/><path class="cls-5" d="M148.41,21.36h5.41l9.63,15.73H150l-2.42-3.63-2.3,3.63H139Zm5.76,11.29L151,27.81l-2.94,4.84Z" transform="translate(0 0)"/><path class="cls-5" d="M179.25,21.36a2.91,2.91,0,0,1,1.68.5,5,5,0,0,1,1.28,1.24,6.15,6.15,0,0,1,.82,1.64,5.46,5.46,0,0,1,.28,1.67,5.2,5.2,0,0,1-.38,2A4.81,4.81,0,0,1,181.88,30a5.77,5.77,0,0,1-1.61,1.11,7.2,7.2,0,0,1-2,.57h-9.09V27.1h8.07a.32.32,0,0,0,.34-.25,1.25,1.25,0,0,0,.08-.44.75.75,0,0,0-.19-.48.51.51,0,0,0-.42-.25h-9.19V37.09h-5.55V21.36Z" transform="translate(0 0)"/></svg>