<svg width="18" height="18" viewBox="0 0 18 18" fill="none" xmlns="http://www.w3.org/2000/svg">
  <path d="M1.5 9L1.10957 8.68765L0.859688 9L1.10957 9.31235L1.5 9ZM8.25 9.5C8.52614 9.5 8.75 9.27614 8.75 9C8.75 8.72386 8.52614 8.5 8.25 8.5V9.5ZM4.10957 4.93765L1.10957 8.68765L1.89043 9.31235L4.89043 5.56235L4.10957 4.93765ZM1.10957 9.31235L4.10957 13.0623L4.89043 12.4377L1.89043 8.68765L1.10957 9.31235ZM1.5 9.5H8.25V8.5H1.5V9.5Z" fill="#F4F4F4"/>
  <path d="M8.23267 14.853L7.91583 15.2398L8.23267 14.853ZM7.76549 14.3015L8.19912 14.0525L7.76549 14.3015ZM15.8979 14.7614L16.2976 15.0618L15.8979 14.7614ZM14.884 15.6203L14.6533 15.1767L14.884 15.6203ZM15.8979 3.23864L15.4983 3.5391L15.8979 3.23864ZM8.23135 3.14812L8.54851 3.53466L8.23135 3.14812ZM16 7.67157V10.3284H17V7.67157H16ZM8 6.09895V5.95258H7V6.09895H8ZM10.4932 14.992C9.89539 14.8923 9.48084 14.8227 9.16269 14.7388C8.85275 14.657 8.67874 14.572 8.5495 14.4662L7.91583 15.2398C8.19912 15.4718 8.52568 15.6049 8.90749 15.7056C9.28109 15.8043 9.74945 15.8818 10.3288 15.9784L10.4932 14.992ZM7 12.0495C7 12.6366 6.9995 13.1112 7.03534 13.4958C7.07198 13.8889 7.14956 14.2329 7.33186 14.5504L8.19912 14.0525C8.11593 13.9076 8.06076 13.7221 8.03103 13.403C8.0005 13.0755 8 12.6553 8 12.0495H7ZM8.5495 14.4662C8.40856 14.3507 8.28982 14.2105 8.19912 14.0525L7.33186 14.5504C7.48304 14.8138 7.68093 15.0473 7.91583 15.2398L8.5495 14.4662ZM16 10.3284C16 11.5502 15.9993 12.4268 15.9276 13.0996C15.8565 13.7652 15.7212 14.1643 15.4983 14.4609L16.2976 15.0618C16.6767 14.5575 16.8424 13.9509 16.9219 13.2056C17.0007 12.4675 17 11.528 17 10.3284H16ZM10.3288 15.9784C11.5125 16.1757 12.4395 16.3308 13.1807 16.3745C13.9291 16.4187 14.5549 16.355 15.1147 16.0639L14.6533 15.1767C14.3242 15.3478 13.9082 15.4157 13.2396 15.3763C12.564 15.3364 11.6989 15.1929 10.4932 14.992L10.3288 15.9784ZM15.4983 14.4609C15.2737 14.7597 14.9849 15.0043 14.6533 15.1767L15.1147 16.0639C15.5789 15.8225 15.9832 15.4801 16.2976 15.0618L15.4983 14.4609ZM10.4946 3.0078C11.6998 2.80693 12.5646 2.66348 13.2399 2.62368C13.9082 2.58429 14.3242 2.65215 14.6533 2.82331L15.1147 1.93608C14.5549 1.64503 13.9293 1.58131 13.1811 1.62541C12.44 1.66909 11.5135 1.82419 10.3302 2.0214L10.4946 3.0078ZM17 7.67157C17 6.47199 17.0007 5.53253 16.9219 4.79436C16.8424 4.04913 16.6767 3.44246 16.2976 2.93818L15.4983 3.5391C15.7212 3.83565 15.8565 4.23475 15.9276 4.90043C15.9993 5.57317 16 6.44975 16 7.67157H17ZM14.6533 2.82331C14.9849 2.99574 15.2737 3.24034 15.4983 3.5391L16.2976 2.93818C15.9832 2.51992 15.5789 2.17749 15.1147 1.93608L14.6533 2.82331ZM10.3302 2.0214C9.75008 2.11809 9.2811 2.19574 8.90702 2.29455C8.52469 2.39553 8.19773 2.52893 7.91419 2.76159L8.54851 3.53466C8.67791 3.42848 8.85211 3.34334 9.16239 3.26139C9.48092 3.17726 9.89599 3.10757 10.4946 3.0078L10.3302 2.0214ZM8 5.95258C8 5.3457 8.00051 4.92482 8.03113 4.5968C8.06096 4.27727 8.1163 4.09144 8.19976 3.94635L7.33293 3.44774C7.15005 3.76568 7.07221 4.11013 7.03546 4.50385C6.99949 4.88908 7 5.36445 7 5.95258H8ZM7.91419 2.76159C7.68055 2.95329 7.48361 3.18577 7.33293 3.44774L8.19976 3.94635C8.29017 3.78917 8.40833 3.64968 8.54851 3.53466L7.91419 2.76159Z" fill="#F4F4F4"/>
</svg>
