<svg width="181" height="59" viewBox="0 0 181 59" fill="none" xmlns="http://www.w3.org/2000/svg">
<path d="M28.4367 57.7821C44.1418 57.7821 56.8733 45.1685 56.8733 29.6088C56.8733 14.0492 44.1418 1.43558 28.4367 1.43558C12.7315 1.43558 0 14.0492 0 29.6088C0 45.1685 12.7315 57.7821 28.4367 57.7821Z" fill="#FFCC00"/>
<path d="M39.8344 43.1635L39.3657 44.7142L30.6982 38.6829H33.2917L39.1974 42.7128L39.8344 43.1635Z" fill="#E5B700"/>
<path d="M33.0597 38.7189L32.6775 42.8751L36.8452 45.6112L34.6567 46.2018L32.4409 44.7503L23.7734 38.7189H26.3532L32.4409 34.4276L33.0597 38.7189Z" fill="#E5B700"/>
<path d="M16.2295 47.4729L29.92 57.746C40.9944 57.1826 50.399 50.3399 54.5712 40.7429L40.867 30.0867L41.4949 33.9318L39.9525 31.8312L33.2824 32.1016L33.3051 38.6919L40.8488 43.8848L36.5492 47.4684H16.2295V47.4729Z" fill="#F1C000"/>
<path d="M38.3869 43.9524L30.7159 38.7189L33.0181 31.8582L26.3525 31.173V38.7189L36.8627 45.6563L38.3869 43.9524Z" fill="#F1C000"/>
<path d="M29.92 57.7461C35.4163 57.4666 40.4985 55.641 44.7344 52.7019L35.2889 46.2288L32.7546 48.0364L16.2295 47.473L29.92 57.7461Z" fill="#E5B700"/>
<path d="M24.6335 47.3016H30.3754L31.1398 46.3145L17.5675 36.7401L17.249 36.8302V42.8615L19.0417 45.8592L24.6335 47.3016Z" fill="#E5B700"/>
<path d="M39.8526 12.466C39.5932 12.2586 38.8652 11.9746 38.8652 11.9746L41.9682 15.5763L43.0056 21.8871L56.7144 32.5929C56.819 31.6102 56.8736 30.614 56.8736 29.6043C56.8736 28.4188 56.8008 27.2558 56.6552 26.1108C51.1817 21.6527 41.3085 13.6019 41.0719 13.363C40.7398 13.0384 40.1119 12.6733 39.8526 12.466Z" fill="#F1C000"/>
<path d="M43.0145 21.8962H38.7559L52.6421 32.7012L56.2319 35.5636C56.4503 34.5539 56.6186 33.5216 56.7233 32.4713L43.0145 21.8962Z" fill="#E5B700"/>
<path d="M54.5299 40.8285C54.9712 39.8278 55.3534 38.7955 55.6719 37.7362L47.2046 31.0152L33.3138 20.2192V25.6104L26.3525 20.1922V27.5397L35.4068 30.6456L40.266 31.0197L38.6872 29.7891L41.5582 30.6861L54.5299 40.8285Z" fill="#E5B700"/>
<path d="M13.3223 36.7491H17.5855V37.4613C17.5855 39.7151 17.7584 41.3785 18.0996 42.4468C18.4409 43.5152 19.0051 44.2679 19.7922 44.7097C20.4064 45.0478 21.3573 45.2912 22.6404 45.4354C23.9235 45.5797 26.5669 45.6518 30.5708 45.6518C32.7457 45.6518 34.4291 45.5121 35.6257 45.2326C36.8223 44.9531 37.7141 44.4978 38.2965 43.8713C38.6195 43.5332 38.8607 42.9562 39.0154 42.1403C39.1701 41.3244 39.2474 40.2245 39.2474 38.8361C39.2474 36.0233 38.9608 34.2563 38.3875 33.5351C37.8142 32.8138 36.6813 32.3856 34.9842 32.2504L23.2046 31.3308C19.6784 31.0603 17.2397 30.1858 15.8884 28.7118C14.5371 27.2378 13.8592 24.754 13.8592 21.2605C13.8592 19.0563 14.0821 17.2847 14.528 15.946C14.9739 14.6072 15.6927 13.4983 16.6846 12.6147C17.4535 11.9386 18.5319 11.4563 19.9196 11.1768C21.3073 10.8973 23.7506 10.7576 27.2585 10.7576H28.6189C32.5364 10.7576 35.2981 10.9424 36.8951 11.3165C38.4921 11.6907 39.8344 12.3353 40.9127 13.2503C41.6497 13.8589 42.1912 14.7289 42.5415 15.8558C42.8919 16.9827 43.0693 18.3846 43.0693 20.066C43.0693 20.5573 43.0648 20.936 43.0557 21.1974C43.0466 21.4589 43.0329 21.6933 43.0193 21.8961H38.756V20.954C38.756 19.5656 38.6741 18.5018 38.5103 17.7626C38.3465 17.0233 38.0872 16.4779 37.7278 16.1218C37.1954 15.5943 36.2536 15.2292 34.8932 15.0174C33.5328 14.8055 30.953 14.6973 27.1539 14.6973C23.2182 14.6973 20.7431 15.1391 19.7376 16.0181C18.7275 16.9016 18.2225 18.6641 18.2225 21.3101C18.2225 23.4783 18.5501 24.9749 19.2098 25.7998C19.8695 26.6202 21.1389 27.1116 23.0226 27.2603L35.0342 28.252C38.1827 28.5225 40.3894 29.3835 41.6588 30.8349C42.9237 32.2864 43.5561 34.7026 43.5561 38.0969C43.5561 40.5716 43.3923 42.4333 43.0693 43.6774C42.7463 44.9216 42.2048 45.9628 41.4541 46.7923C40.5305 47.8245 39.2838 48.5503 37.7187 48.965C36.1535 49.3797 33.3007 49.587 29.1604 49.587H27.2631C23.7369 49.587 21.2436 49.4112 19.7785 49.0551C18.3135 48.699 17.0941 48.0815 16.1204 47.198C15.1604 46.3821 14.4552 45.2822 14.0047 43.8938C13.5498 42.5054 13.3223 40.7384 13.3223 38.6062V36.7491Z" fill="black"/>
<path d="M30.7031 20.2012H33.3421V38.7099H30.7031V20.2012Z" fill="black"/>
<path d="M23.7324 20.2012H26.3713V38.7099H23.7324V20.2012Z" fill="black"/>
<path d="M75.008 35.192C74.1227 35.192 73.264 35.0747 72.432 34.84C71.6107 34.5947 70.9493 34.28 70.448 33.896L71.328 31.944C71.808 32.296 72.3787 32.5787 73.04 32.792C73.7013 33.0053 74.3627 33.112 75.024 33.112C75.76 33.112 76.304 33.0053 76.656 32.792C77.008 32.568 77.184 32.2747 77.184 31.912C77.184 31.6453 77.0773 31.4267 76.864 31.256C76.6613 31.0747 76.3947 30.9307 76.064 30.824C75.744 30.7173 75.3067 30.6 74.752 30.472C73.8987 30.2693 73.2 30.0667 72.656 29.864C72.112 29.6613 71.6427 29.336 71.248 28.888C70.864 28.44 70.672 27.8427 70.672 27.096C70.672 26.4453 70.848 25.8587 71.2 25.336C71.552 24.8027 72.08 24.3813 72.784 24.072C73.4987 23.7627 74.368 23.608 75.392 23.608C76.1067 23.608 76.8053 23.6933 77.488 23.864C78.1707 24.0347 78.768 24.28 79.28 24.6L78.48 26.568C77.4453 25.9813 76.4107 25.688 75.376 25.688C74.6507 25.688 74.112 25.8053 73.76 26.04C73.4187 26.2747 73.248 26.584 73.248 26.968C73.248 27.352 73.4453 27.64 73.84 27.832C74.2453 28.0133 74.8587 28.1947 75.68 28.376C76.5333 28.5787 77.232 28.7813 77.776 28.984C78.32 29.1867 78.784 29.5067 79.168 29.944C79.5627 30.3813 79.76 30.9733 79.76 31.72C79.76 32.36 79.5787 32.9467 79.216 33.48C78.864 34.0027 78.3307 34.4187 77.616 34.728C76.9013 35.0373 76.032 35.192 75.008 35.192ZM86.9071 34.584C86.6618 34.7653 86.3578 34.904 85.9951 35C85.6431 35.0853 85.2698 35.128 84.8751 35.128C83.8511 35.128 83.0565 34.8667 82.4911 34.344C81.9365 33.8213 81.6591 33.0533 81.6591 32.04V28.504H80.3311V26.584H81.6591V24.488H84.1551V26.584H86.2991V28.504H84.1551V32.008C84.1551 32.3707 84.2458 32.6533 84.4271 32.856C84.6191 33.048 84.8858 33.144 85.2271 33.144C85.6218 33.144 85.9578 33.0373 86.2351 32.824L86.9071 34.584ZM90.6923 27.528C90.9909 27.112 91.3909 26.7973 91.8923 26.584C92.4043 26.3707 92.9909 26.264 93.6523 26.264V28.568C93.3749 28.5467 93.1883 28.536 93.0923 28.536C92.3776 28.536 91.8176 28.7387 91.4123 29.144C91.0069 29.5387 90.8043 30.136 90.8043 30.936V35H88.3083V26.392H90.6923V27.528ZM99.1543 35.128C98.2476 35.128 97.4316 34.9413 96.7063 34.568C95.9916 34.184 95.4316 33.656 95.0263 32.984C94.6209 32.312 94.4183 31.5493 94.4183 30.696C94.4183 29.8427 94.6209 29.08 95.0263 28.408C95.4316 27.736 95.9916 27.2133 96.7063 26.84C97.4316 26.456 98.2476 26.264 99.1543 26.264C100.061 26.264 100.872 26.456 101.586 26.84C102.301 27.2133 102.861 27.736 103.266 28.408C103.672 29.08 103.874 29.8427 103.874 30.696C103.874 31.5493 103.672 32.312 103.266 32.984C102.861 33.656 102.301 34.184 101.586 34.568C100.872 34.9413 100.061 35.128 99.1543 35.128ZM99.1543 33.08C99.7943 33.08 100.317 32.8667 100.722 32.44C101.138 32.0027 101.346 31.4213 101.346 30.696C101.346 29.9707 101.138 29.3947 100.722 28.968C100.317 28.5307 99.7943 28.312 99.1543 28.312C98.5143 28.312 97.9863 28.5307 97.5703 28.968C97.1543 29.3947 96.9463 29.9707 96.9463 30.696C96.9463 31.4213 97.1543 32.0027 97.5703 32.44C97.9863 32.8667 98.5143 33.08 99.1543 33.08ZM110.775 26.264C111.841 26.264 112.7 26.584 113.351 27.224C114.012 27.864 114.343 28.8133 114.343 30.072V35H111.847V30.456C111.847 29.7733 111.697 29.2667 111.399 28.936C111.1 28.5947 110.668 28.424 110.103 28.424C109.473 28.424 108.972 28.6213 108.599 29.016C108.225 29.4 108.039 29.976 108.039 30.744V35H105.543V26.392H107.927V27.4C108.257 27.0373 108.668 26.76 109.159 26.568C109.649 26.3653 110.188 26.264 110.775 26.264ZM125.579 26.392V33.56C125.579 35.1387 125.168 36.312 124.347 37.08C123.526 37.848 122.326 38.232 120.747 38.232C119.915 38.232 119.126 38.1307 118.379 37.928C117.632 37.7253 117.014 37.432 116.523 37.048L117.515 35.256C117.878 35.5547 118.336 35.7893 118.891 35.96C119.446 36.1413 120 36.232 120.555 36.232C121.419 36.232 122.054 36.0347 122.459 35.64C122.875 35.256 123.083 34.6693 123.083 33.88V33.512C122.432 34.2267 121.526 34.584 120.363 34.584C119.574 34.584 118.848 34.4133 118.187 34.072C117.536 33.72 117.019 33.2293 116.635 32.6C116.251 31.9707 116.059 31.2453 116.059 30.424C116.059 29.6027 116.251 28.8773 116.635 28.248C117.019 27.6187 117.536 27.1333 118.187 26.792C118.848 26.44 119.574 26.264 120.363 26.264C121.611 26.264 122.56 26.6747 123.211 27.496V26.392H125.579ZM120.859 32.536C121.52 32.536 122.059 32.344 122.475 31.96C122.902 31.5653 123.115 31.0533 123.115 30.424C123.115 29.7947 122.902 29.288 122.475 28.904C122.059 28.5093 121.52 28.312 120.859 28.312C120.198 28.312 119.654 28.5093 119.227 28.904C118.8 29.288 118.587 29.7947 118.587 30.424C118.587 31.0533 118.8 31.5653 119.227 31.96C119.654 32.344 120.198 32.536 120.859 32.536ZM138.35 23.8V35H135.758V30.408H130.67V35H128.078V23.8H130.67V28.216H135.758V23.8H138.35ZM144.296 26.264C145.629 26.264 146.653 26.584 147.368 27.224C148.083 27.8533 148.44 28.808 148.44 30.088V35H146.104V33.928C145.635 34.728 144.76 35.128 143.48 35.128C142.819 35.128 142.243 35.016 141.752 34.792C141.272 34.568 140.904 34.2587 140.648 33.864C140.392 33.4693 140.264 33.0213 140.264 32.52C140.264 31.72 140.563 31.0907 141.16 30.632C141.768 30.1733 142.701 29.944 143.96 29.944H145.944C145.944 29.4 145.779 28.984 145.448 28.696C145.117 28.3973 144.621 28.248 143.96 28.248C143.501 28.248 143.048 28.3227 142.6 28.472C142.163 28.6107 141.789 28.8027 141.48 29.048L140.584 27.304C141.053 26.9733 141.613 26.7173 142.264 26.536C142.925 26.3547 143.603 26.264 144.296 26.264ZM144.104 33.448C144.531 33.448 144.909 33.352 145.24 33.16C145.571 32.9573 145.805 32.664 145.944 32.28V31.4H144.232C143.208 31.4 142.696 31.736 142.696 32.408C142.696 32.728 142.819 32.984 143.064 33.176C143.32 33.3573 143.667 33.448 144.104 33.448ZM155.931 26.264C156.998 26.264 157.856 26.584 158.507 27.224C159.168 27.864 159.499 28.8133 159.499 30.072V35H157.003V30.456C157.003 29.7733 156.854 29.2667 156.555 28.936C156.256 28.5947 155.824 28.424 155.259 28.424C154.63 28.424 154.128 28.6213 153.755 29.016C153.382 29.4 153.195 29.976 153.195 30.744V35H150.699V26.392H153.083V27.4C153.414 27.0373 153.824 26.76 154.315 26.568C154.806 26.3653 155.344 26.264 155.931 26.264ZM170.623 23.128V35H168.239V34.008C167.62 34.7547 166.724 35.128 165.551 35.128C164.74 35.128 164.004 34.9467 163.343 34.584C162.692 34.2213 162.18 33.704 161.807 33.032C161.434 32.36 161.247 31.5813 161.247 30.696C161.247 29.8107 161.434 29.032 161.807 28.36C162.18 27.688 162.692 27.1707 163.343 26.808C164.004 26.4453 164.74 26.264 165.551 26.264C166.65 26.264 167.508 26.6107 168.127 27.304V23.128H170.623ZM165.983 33.08C166.612 33.08 167.135 32.8667 167.551 32.44C167.967 32.0027 168.175 31.4213 168.175 30.696C168.175 29.9707 167.967 29.3947 167.551 28.968C167.135 28.5307 166.612 28.312 165.983 28.312C165.343 28.312 164.815 28.5307 164.399 28.968C163.983 29.3947 163.775 29.9707 163.775 30.696C163.775 31.4213 163.983 32.0027 164.399 32.44C164.815 32.8667 165.343 33.08 165.983 33.08ZM175.829 35.128C175.115 35.128 174.416 35.0427 173.733 34.872C173.051 34.6907 172.507 34.4667 172.101 34.2L172.933 32.408C173.317 32.6533 173.781 32.856 174.325 33.016C174.869 33.1653 175.403 33.24 175.925 33.24C176.981 33.24 177.509 32.9787 177.509 32.456C177.509 32.2107 177.365 32.0347 177.077 31.928C176.789 31.8213 176.347 31.7307 175.749 31.656C175.045 31.5493 174.464 31.4267 174.005 31.288C173.547 31.1493 173.147 30.904 172.805 30.552C172.475 30.2 172.309 29.6987 172.309 29.048C172.309 28.504 172.464 28.024 172.773 27.608C173.093 27.1813 173.552 26.8507 174.149 26.616C174.757 26.3813 175.472 26.264 176.293 26.264C176.901 26.264 177.504 26.3333 178.101 26.472C178.709 26.6 179.211 26.7813 179.605 27.016L178.773 28.792C178.016 28.3653 177.189 28.152 176.293 28.152C175.76 28.152 175.36 28.2267 175.093 28.376C174.827 28.5253 174.693 28.7173 174.693 28.952C174.693 29.2187 174.837 29.4053 175.125 29.512C175.413 29.6187 175.872 29.72 176.501 29.816C177.205 29.9333 177.781 30.0613 178.229 30.2C178.677 30.328 179.067 30.568 179.397 30.92C179.728 31.272 179.893 31.7627 179.893 32.392C179.893 32.9253 179.733 33.4 179.413 33.816C179.093 34.232 178.624 34.5573 178.005 34.792C177.397 35.016 176.672 35.128 175.829 35.128Z" fill="black"/>
</svg>
