<svg width="36" height="38" viewBox="0 0 36 38" fill="none" xmlns="http://www.w3.org/2000/svg">
<path d="M17.96 37.2156C27.879 37.2156 35.92 29.0916 35.92 19.0701C35.92 9.04863 27.879 0.924622 17.96 0.924622C8.04096 0.924622 0 9.04863 0 19.0701C0 29.0916 8.04096 37.2156 17.96 37.2156Z" fill="#FFCC00"/>
<path d="M25.1579 27.8003L24.8619 28.799L19.3877 24.9144H21.0256L24.7556 27.5099L25.1579 27.8003Z" fill="#E5B700"/>
<path d="M20.8797 24.9376L20.6383 27.6145L23.2705 29.3767L21.8883 29.7571L20.4889 28.8222L15.0146 24.9376H16.644L20.4889 22.1737L20.8797 24.9376Z" fill="#E5B700"/>
<path d="M10.25 30.5758L18.8967 37.1924C25.891 36.8295 31.8307 32.4223 34.4658 26.2412L25.8105 19.3779L26.2071 21.8544L25.233 20.5014L21.0203 20.6756L21.0346 24.9202L25.7991 28.2648L23.0835 30.5729H10.25V30.5758Z" fill="#F1C000"/>
<path d="M24.2452 28.3083L19.4003 24.9376L20.8544 20.5188L16.6445 20.0775V24.9376L23.2825 29.4058L24.2452 28.3083Z" fill="#F1C000"/>
<path d="M18.8967 37.1924C22.368 37.0124 25.5778 35.8366 28.2531 33.9436L22.2875 29.7745L20.6869 30.9387L10.25 30.5758L18.8967 37.1924Z" fill="#E5B700"/>
<path d="M15.5574 30.4655H19.1839L19.6667 29.8297L11.0947 23.6631L10.8936 23.7212V27.6057L12.0258 29.5364L15.5574 30.4655Z" fill="#E5B700"/>
<path d="M25.1704 8.02892C25.0067 7.89537 24.5469 7.71246 24.5469 7.71246L26.5067 10.0322L27.1619 14.0968L35.82 20.9921C35.8861 20.3591 35.9206 19.7175 35.9206 19.0672C35.9206 18.3036 35.8746 17.5546 35.7827 16.8171C32.3257 13.9458 26.09 8.76055 25.9406 8.60667C25.7308 8.39764 25.3342 8.16247 25.1704 8.02892Z" fill="#F1C000"/>
<path d="M27.1672 14.1026H24.4775L33.2478 21.0618L35.515 22.9054C35.653 22.255 35.7593 21.5902 35.8254 20.9137L27.1672 14.1026Z" fill="#E5B700"/>
<path d="M34.4407 26.2963C34.7195 25.6518 34.9609 24.9869 35.162 24.3047L29.8142 19.9759L21.0411 13.0225V16.4949L16.6445 13.0051V17.7375L22.363 19.7378L25.432 19.9788L24.4349 19.1862L26.2481 19.764L34.4407 26.2963Z" fill="#E5B700"/>
<path d="M8.41406 23.6689H11.1066V24.1276C11.1066 25.5793 11.2158 26.6506 11.4313 27.3386C11.6469 28.0267 12.0032 28.5116 12.5003 28.7961C12.8883 29.0138 13.4888 29.1706 14.2992 29.2635C15.1096 29.3564 16.7791 29.4029 19.3079 29.4029C20.6815 29.4029 21.7447 29.3129 22.5005 29.1329C23.2562 28.9529 23.8194 28.6596 24.1873 28.2561C24.3913 28.0383 24.5436 27.6667 24.6413 27.1412C24.739 26.6157 24.7878 25.9073 24.7878 25.0131C24.7878 23.2015 24.6068 22.0634 24.2447 21.5989C23.8827 21.1343 23.1671 20.8585 22.0953 20.7714L14.6555 20.1792C12.4285 20.005 10.8882 19.4417 10.0348 18.4924C9.18131 17.543 8.75315 15.9433 8.75315 13.6933C8.75315 12.2735 8.89395 11.1326 9.17557 10.2703C9.45718 9.40802 9.91121 8.69381 10.5377 8.12477C11.0233 7.68928 11.7043 7.37863 12.5808 7.19862C13.4572 7.01862 15.0004 6.92862 17.2159 6.92862H18.0751C20.5493 6.92862 22.2936 7.04765 23.3022 7.28863C24.3108 7.5296 25.1585 7.94477 25.8396 8.53413C26.3051 8.92607 26.6471 9.48641 26.8683 10.2122C27.0896 10.938 27.2017 11.841 27.2017 12.9239C27.2017 13.2403 27.1988 13.4842 27.193 13.6526C27.1873 13.821 27.1787 13.972 27.1701 14.1026H24.4775V13.4958C24.4775 12.6016 24.4258 11.9164 24.3223 11.4403C24.2189 10.9642 24.0551 10.6129 23.8281 10.3835C23.4918 10.0438 22.897 9.80867 22.0378 9.67221C21.1786 9.53576 19.5493 9.46608 17.1498 9.46608C14.6641 9.46608 13.1009 9.7506 12.4658 10.3167C11.8279 10.8858 11.5089 12.021 11.5089 13.7252C11.5089 15.1217 11.7158 16.0856 12.1325 16.6169C12.5492 17.1452 13.3509 17.4617 14.5406 17.5575L22.1269 18.1962C24.1154 18.3704 25.5091 18.925 26.3109 19.8598C27.1097 20.7947 27.5091 22.3508 27.5091 24.537C27.5091 26.1309 27.4057 27.3299 27.2017 28.1312C26.9976 28.9325 26.6557 29.6032 26.1815 30.1374C25.5982 30.8023 24.8108 31.2697 23.8223 31.5368C22.8338 31.8039 21.032 31.9374 18.4171 31.9374H17.2188C14.9917 31.9374 13.417 31.8242 12.4917 31.5949C11.5664 31.3655 10.7963 30.9677 10.1813 30.3987C9.575 29.8732 9.12959 29.1648 8.8451 28.2706C8.55774 27.3764 8.41406 26.2383 8.41406 24.8651V23.6689Z" fill="black"/>
<path d="M19.3916 13.011H21.0583V24.9318H19.3916V13.011Z" fill="black"/>
<path d="M14.9883 13.011H16.655V24.9318H14.9883V13.011Z" fill="black"/>
</svg>
