<svg width="159" height="26" viewBox="0 0 159 26" fill="none" xmlns="http://www.w3.org/2000/svg">
  <path d="M15.7297 6.0675C16.318 6.0675 16.8384 6.17309 17.2909 6.38427C17.7586 6.58037 18.1432 6.85189 18.4449 7.19883C18.7617 7.53068 18.9955 7.92287 19.1463 8.3754C19.3122 8.81285 19.3952 9.28046 19.3952 9.77824C19.3952 10.3213 19.3499 10.7813 19.2594 11.1585C19.184 11.5205 18.9728 11.9051 18.6259 12.3124C19.1237 12.3878 19.5536 12.599 19.9156 12.9459C20.2776 13.2929 20.5718 13.6926 20.798 14.1451C21.0394 14.5826 21.2129 15.02 21.3184 15.4575C21.424 15.8949 21.4768 16.2419 21.4768 16.4983C21.4768 16.9961 21.3788 17.5165 21.1827 18.0595C21.0017 18.5875 20.7377 19.0777 20.3908 19.5302C20.0589 19.9828 19.6516 20.3523 19.1689 20.6389C18.7013 20.9255 18.1734 21.0688 17.5851 21.0688H1.42979V6.0675H15.7297ZM15.5261 15.6611H7.99146V15.5932H7.96884V11.5205H13.4897C13.8668 11.2791 14.0554 11.0604 14.0554 10.8643C14.0554 10.7135 13.9875 10.5777 13.8517 10.457C13.731 10.3364 13.6028 10.276 13.4671 10.276H6.72438V16.8377H15.4808C15.6317 16.8377 15.7523 16.7849 15.8428 16.6793C15.9334 16.5586 15.9786 16.4229 15.9786 16.272C15.9786 16.1966 15.9334 16.0835 15.8428 15.9326C15.7523 15.7818 15.6467 15.6913 15.5261 15.6611ZM23.1061 16.272C23.1061 16.8151 23.2042 17.3732 23.4003 17.9464C23.5964 18.5045 23.8679 19.0174 24.2148 19.485C24.5768 19.9375 25.0067 20.3146 25.5045 20.6163C26.0023 20.918 26.5604 21.0688 27.1789 21.0688H37.9491C38.5675 21.0688 39.1257 20.918 39.6234 20.6163C40.1212 20.3146 40.5436 19.9375 40.8905 19.485C41.2525 19.0174 41.5241 18.5045 41.7051 17.9464C41.9012 17.3732 41.9992 16.8151 41.9992 16.272V10.8869C41.9992 10.3439 41.9012 9.78578 41.7051 9.21258C41.5241 8.63938 41.2525 8.12651 40.8905 7.67398C40.5436 7.20637 40.1212 6.82172 39.6234 6.52003C39.1257 6.21835 38.5675 6.0675 37.9491 6.0675H27.1789C26.5604 6.0675 26.0023 6.21835 25.5045 6.52003C25.0067 6.82172 24.5768 7.20637 24.2148 7.67398C23.8679 8.12651 23.5964 8.63938 23.4003 9.21258C23.2042 9.78578 23.1061 10.3439 23.1061 10.8869V16.272ZM36.0258 10.2081C36.237 10.2081 36.3577 10.2609 36.3879 10.3665C36.418 10.4721 36.4331 10.6305 36.4331 10.8417V16.4983C36.4331 16.619 36.418 16.7246 36.3879 16.8151C36.3577 16.8905 36.237 16.9282 36.0258 16.9282H29.1021C28.8909 16.9282 28.7703 16.8905 28.7401 16.8151C28.7099 16.7246 28.6949 16.619 28.6949 16.4983V10.8417C28.6949 10.6305 28.7099 10.4721 28.7401 10.3665C28.7703 10.2609 28.8909 10.2081 29.1021 10.2081H36.0258ZM43.6334 10.2081H50.5798V21.0688H55.8517V10.2081H62.5265V6.0675H43.6334V10.2081Z" fill="url(#paint0_linear_1900_9770)"/>
  <path d="M70.5665 16.9282H83.2147C83.3354 16.9282 83.441 16.8528 83.5315 16.7019C83.622 16.536 83.6672 16.4153 83.6672 16.3399C83.6672 16.2192 83.5993 16.0759 83.4636 15.91C83.3278 15.7441 83.1996 15.6611 83.0789 15.6611H74.6166C74.0585 15.6611 73.5306 15.5103 73.0328 15.2086C72.5501 14.9069 72.1277 14.5223 71.7657 14.0546C71.4037 13.587 71.1171 13.0742 70.9059 12.516C70.6947 11.9579 70.5891 11.4149 70.5891 10.8869C70.5891 10.3439 70.6872 9.78578 70.8833 9.21258C71.0794 8.63938 71.3509 8.12651 71.6978 7.67398C72.0599 7.20637 72.4898 6.82172 72.9875 6.52003C73.4853 6.21835 74.0434 6.0675 74.6619 6.0675H89.0523V10.2081H76.5851C76.374 10.2081 76.2382 10.2534 76.1779 10.3439C76.1326 10.4193 76.0949 10.5853 76.0647 10.8417C76.0647 10.9624 76.0798 11.0906 76.11 11.2263C76.1552 11.3621 76.2382 11.43 76.3589 11.43H85.3868C85.9902 11.43 86.5408 11.5959 87.0386 11.9278C87.5364 12.2596 87.9663 12.6744 88.3283 13.1722C88.6903 13.67 88.9694 14.213 89.1655 14.8013C89.3766 15.3896 89.4822 15.9402 89.4822 16.453C89.4822 16.9508 89.3842 17.4712 89.1881 18.0143C88.992 18.5573 88.7205 19.0551 88.3735 19.5076C88.0417 19.9602 87.6344 20.3373 87.1517 20.6389C86.6841 20.9255 86.1712 21.0688 85.6131 21.0688H70.5665V16.9282ZM90.6634 6.0675L98.4922 21.0688H103.063L104.262 18.9872L105.19 21.0688H109.828L117.928 6.0675H111.91L107.588 13.9641L103.583 6.09013H98.198L101.728 13.2853L100.732 14.3035L96.682 6.0675H90.6634ZM113.599 21.0688L122.559 6.0675H127.718L136.904 21.0688H124.098L121.79 17.607L119.595 21.0688H113.599ZM122.265 16.8377H128.058L125.071 12.2219L122.265 16.8377ZM138.07 6.0675H154.226C154.814 6.0675 155.342 6.22589 155.809 6.54266C156.292 6.85943 156.699 7.25916 157.031 7.74186C157.378 8.20947 157.642 8.72988 157.823 9.30309C158.004 9.86121 158.095 10.3892 158.095 10.8869C158.095 11.5808 157.974 12.2144 157.733 12.7876C157.491 13.3608 157.152 13.8661 156.714 14.3035C156.292 14.7259 155.787 15.0728 155.198 15.3444C154.61 15.6159 153.969 15.7969 153.275 15.8874H144.609V11.5431H152.302C152.468 11.5431 152.574 11.4677 152.619 11.3168C152.679 11.1509 152.71 11.0076 152.71 10.8869C152.71 10.7361 152.649 10.5853 152.529 10.4344C152.408 10.2685 152.272 10.1855 152.121 10.1855H143.365V21.0688H138.07V6.0675Z" fill="white"/>
  <defs>
    <linearGradient id="paint0_linear_1900_9770" x1="0.829858" y1="12.6419" x2="63.4763" y2="12.6419" gradientUnits="userSpaceOnUse">
      <stop stop-color="#D715FF"/>
      <stop offset="1" stop-color="#1A26FF"/>
    </linearGradient>
  </defs>
</svg>
