<svg width="178" height="42" viewBox="0 0 178 42" fill="none" xmlns="http://www.w3.org/2000/svg">
<path fill-rule="evenodd" clip-rule="evenodd" d="M46.9983 16.5878C47.6439 16.5878 48.2135 16.7007 48.7072 16.914C49.2135 17.1398 49.6313 17.4283 49.9604 17.7921C50.3022 18.1559 50.5553 18.5824 50.7199 19.0591C50.8971 19.5358 50.973 20.0501 50.973 20.5895C50.973 21.1791 50.9224 21.6683 50.8338 22.0697C50.7452 22.4712 50.5047 22.8851 50.1376 23.3242C50.6819 23.412 51.1503 23.6378 51.5427 24.0141C51.8537 24.3125 52.125 24.6423 52.3502 25.0037V21.7939C52.3502 21.2043 52.4515 20.6022 52.6667 19.9875C52.8819 19.3728 53.1857 18.8083 53.5654 18.3191C53.9452 17.8173 54.4135 17.4159 54.9578 17.0897C55.5021 16.7636 56.1097 16.6005 56.7806 16.6005H69.6667C70.325 16.6005 70.9326 16.7636 71.4769 17.0897C72.0212 17.4159 72.4895 17.8299 72.8819 18.3316C73.028 18.5247 73.1629 18.7269 73.2857 18.9371V16.5878H93.8681V21.0536H84.2098V27.7273C84.2225 27.8528 84.2604 27.9907 84.2984 28.1162C84.3364 28.2416 84.463 28.3169 84.6782 28.3169H89.7035V32.7827H82.5769C81.906 32.7827 81.2984 32.6197 80.7541 32.2935C80.2098 31.9673 79.7414 31.5534 79.3617 31.0641C78.9693 30.5624 78.6782 30.0104 78.4756 29.4083C78.2731 28.7936 78.1718 28.1915 78.1718 27.6019V21.0536H74.0433C74.0795 21.3016 74.0971 21.5478 74.0971 21.7939V27.5895C74.0971 28.1791 73.9959 28.7812 73.7807 29.3959C73.5655 30.0106 73.2617 30.5751 72.8819 31.0643C72.4895 31.5661 72.0212 31.9675 71.4769 32.2937C70.9199 32.6198 70.325 32.7829 69.6667 32.7829H56.7806C56.1097 32.7829 55.5021 32.6198 54.9578 32.2937C54.4135 31.9675 53.9452 31.5535 53.5654 31.0518C53.2679 30.6713 53.0286 30.2548 52.8364 29.8131C52.6437 30.2808 52.3915 30.7211 52.087 31.1269C51.7199 31.6161 51.2768 32.0175 50.7579 32.3186C50.2389 32.6322 49.6566 32.7827 49.0237 32.7827H31.416V16.5878H46.9983ZM46.7705 26.9495H38.5679V26.8743H38.5426V22.4712H44.5553C44.9604 22.2077 45.1756 21.9694 45.1756 21.7687C45.1756 21.6056 45.0996 21.4551 44.9604 21.3296C44.8211 21.2042 44.6819 21.1289 44.53 21.1289H37.1882V28.2165H46.7325C46.8971 28.2165 47.0237 28.1538 47.1249 28.0284C47.2262 27.9029 47.2768 27.7649 47.2768 27.6019C47.2768 27.5266 47.2262 27.4011 47.1249 27.2381C47.0237 27.075 46.9097 26.9746 46.7705 26.9495ZM67.5781 21.0789H58.8313C58.6287 21.0789 58.5148 21.1542 58.4895 21.2921C58.4515 21.4301 58.4389 21.6058 58.4389 21.819V27.8278C58.4389 27.9533 58.4515 28.0662 58.4895 28.154C58.5275 28.2418 58.654 28.292 58.8819 28.292H67.6288C67.8313 28.292 67.9452 28.2292 67.9705 28.0913C68.0085 27.9658 68.0212 27.8278 68.0212 27.7024V21.7688C68.0212 21.5305 68.0085 21.3549 67.9705 21.242C67.9452 21.1416 67.806 21.0789 67.5781 21.0789Z" fill="url(#paint0_linear_2471_4594)"/>
<path d="M89.5684 28.3169H103.341C103.467 28.3169 103.581 28.2291 103.682 28.066C103.784 27.9029 103.834 27.7649 103.834 27.6896C103.834 27.5642 103.758 27.4011 103.606 27.2255C103.454 27.0499 103.315 26.9621 103.189 26.9621H93.9734C93.3658 26.9621 92.7962 26.799 92.2646 26.4728C91.7329 26.1467 91.2646 25.7327 90.8722 25.2309C90.4798 24.7291 90.1633 24.1772 89.9354 23.575C89.7076 22.9729 89.5937 22.3833 89.5937 21.8188C89.5937 21.2292 89.6949 20.6271 89.9101 20.0124C90.1253 19.3977 90.4291 18.8332 90.8089 18.344C91.1886 17.8422 91.657 17.4408 92.2013 17.1146C92.7456 16.7885 93.3532 16.6254 94.0241 16.6254H109.708V21.0912H96.1253C95.8975 21.0912 95.7456 21.1414 95.695 21.2292C95.6317 21.317 95.5937 21.5052 95.5557 21.7812C95.5557 21.9066 95.581 22.0446 95.619 22.1952C95.657 22.3457 95.7456 22.421 95.8722 22.421H105.708C106.366 22.421 106.961 22.5966 107.505 22.9604C108.049 23.3242 108.518 23.7632 108.91 24.3026C109.303 24.842 109.606 25.4316 109.834 26.0589C110.062 26.6861 110.176 27.2506 110.176 27.8025C110.176 28.342 110.075 28.9065 109.86 29.4835C109.644 30.0731 109.353 30.6125 108.986 31.1017C108.619 31.591 108.176 31.9924 107.657 32.306C107.138 32.6196 106.581 32.7827 105.973 32.7827H89.5684V28.3169Z" fill="white"/>
<path d="M115.347 16.5886L119.765 25.4826L120.853 24.3787L116.993 16.6137H122.853L127.22 25.1188L131.929 16.5886H138.486L129.664 32.7835H124.613L123.6 30.5381L122.296 32.7835H117.322L108.79 16.5886H115.347Z" fill="white"/>
<path d="M131.193 32.7835L140.953 16.5886H146.573L156.586 32.7835H142.636L140.117 29.0453L137.725 32.7835H131.193ZM140.624 28.2173H146.94L143.687 23.2372L140.624 28.2173Z" fill="white"/>
<path d="M160.96 32.7961V21.1673L170.307 21.0776C170.746 21.0776 171.103 21.4306 171.103 21.8662C171.103 22.3017 170.746 22.6548 170.307 22.6548H162.411V27.1423C162.451 27.1432 162.492 27.1437 162.533 27.1437H171.96C174.664 27.1437 176.857 24.971 176.857 22.2908V21.4415C176.857 18.7613 174.664 16.5886 171.96 16.5886H162.533H155.225H155.188V32.7961H160.96Z" fill="white"/>
<path d="M30.0322 16.7109C30.0464 16.5579 30.0037 16.391 29.9184 16.238C29.833 16.0851 29.705 15.9738 29.5485 15.9042L15.5512 8.00439C15.2952 7.82358 14.9396 7.79577 14.6408 7.96267L14.2283 8.19911V17.5315L14.2426 17.5454V17.615L14.4275 17.7958H14.4417L14.584 17.9349L20.7433 21.4119V27.907L14.9822 31.1616C13.0619 30.0767 11.1415 28.9919 9.22116 27.907V5.33402C9.22116 4.93068 9.22117 4.6247 8.7802 4.37435C6.29084 2.96962 3.78727 1.56489 1.29792 0.146254C0.600899 -0.257084 -0.0534415 0.229704 0.00345803 0.925115C0.00345803 11.4675 0.00345803 21.996 0.00345803 32.5385C-0.0107668 32.6915 0.0318974 32.8584 0.117247 33.0113C0.202596 33.1643 0.33062 33.2756 0.472868 33.3451L14.4986 41.2589C14.6266 41.3424 14.7973 41.398 14.968 41.398C15.1245 41.398 15.2667 41.3563 15.3948 41.2867L29.5201 33.3173C29.8188 33.1504 29.961 32.8305 29.9326 32.5246V16.7109H30.0322ZM7.62799 5.57045V19.4926L1.78157 16.1963V2.27421L7.62799 5.57045ZM1.78157 18.0878L7.62799 21.3841V27.8792L1.78157 31.1755V18.0878ZM14.2283 39.1588L2.62082 32.608L8.46726 29.3118C10.3876 30.3966 12.308 31.4814 14.2283 32.5663V39.1588ZM15.9069 16.7109V10.1045L27.5143 16.6553L21.6679 19.9515L15.9069 16.7109ZM15.9069 39.1449V32.5524L21.6679 29.2979L27.5143 32.5941L15.9069 39.1449ZM28.3536 31.1755L22.5072 27.8792V21.3841L28.3536 18.0878V24.6386C28.3536 24.6247 28.3536 29.131 28.3536 31.1755Z" fill="url(#paint1_linear_2471_4594)"/>
<defs>
<linearGradient id="paint0_linear_2471_4594" x1="31.5997" y1="24.0493" x2="90.2414" y2="24.0493" gradientUnits="userSpaceOnUse">
<stop stop-color="#2824F5"/>
<stop offset="1" stop-color="#C02FF6"/>
</linearGradient>
<linearGradient id="paint1_linear_2471_4594" x1="0.102563" y1="20.7036" x2="30.0395" y2="20.7036" gradientUnits="userSpaceOnUse">
<stop stop-color="#D715FF"/>
<stop offset="1" stop-color="#1A26FF"/>
</linearGradient>
</defs>
</svg>
