<svg width="20" height="20" viewBox="0 0 20 20" fill="none" xmlns="http://www.w3.org/2000/svg">
<path d="M15.5568 12.2039C14.334 12.2039 14.1858 11.2123 13.2221 10.9733C12.5684 12.0731 11.3718 12.8125 9.99958 12.8125C8.62703 12.8125 7.43019 12.0728 6.77663 10.9725C5.8102 11.2099 5.66316 12.2039 4.43964 12.2039C3.08961 12.2039 3.04802 10.9954 1.77148 10.9276C2.62077 14.6896 5.98089 17.5 9.99958 17.5C14.0183 17.5 17.3784 14.6896 18.2277 10.9276C16.9498 10.9954 16.9082 12.2039 15.5568 12.2039Z" fill="white"/>
<path d="M18.4375 9.0625C18.4375 4.4026 14.6599 0.625 10 0.625C5.3401 0.625 1.5625 4.4026 1.5625 9.0625C1.5625 9.70371 1.63639 10.3273 1.77191 10.9276C3.04844 10.9954 3.09004 12.2039 4.44006 12.2039C5.70288 12.2039 5.82111 11.147 6.875 10.9541V14.5312C6.875 15.3079 7.5046 15.9375 8.28125 15.9375C9.0579 15.9375 9.6875 15.3079 9.6875 14.5312V13.75C9.6875 12.8871 10.3871 12.1875 11.25 12.1875C12.1129 12.1875 12.8125 12.8871 12.8125 13.75V17.8125C12.8125 18.6754 13.5121 19.375 14.375 19.375C15.2379 19.375 15.9375 18.6754 15.9375 17.8125V12.1646C16.928 11.9616 17.0835 10.9883 18.2281 10.9276C18.3636 10.3273 18.4375 9.70371 18.4375 9.0625Z" fill="#FFCC00"/>
<path d="M10 12.8125C12.0711 12.8125 13.75 11.1336 13.75 9.0625C13.75 6.99143 12.0711 5.3125 10 5.3125C7.92893 5.3125 6.25 6.99143 6.25 9.0625C6.25 11.1336 7.92893 12.8125 10 12.8125Z" fill="white"/>
<path d="M3.25977 8.52349C3.25977 8.17971 3.53778 7.89849 3.88477 7.89849C4.2287 7.89849 4.50977 8.17971 4.50977 8.52349C4.50977 8.86727 4.2287 9.14849 3.88477 9.14849C3.53778 9.14849 3.25977 8.86727 3.25977 8.52349Z" fill="#222222"/>
<path d="M14.8438 6.64849C14.8438 6.30471 15.1218 6.02349 15.4688 6.02349C15.8124 6.02349 16.0938 6.30471 16.0938 6.64849C16.0938 6.99227 15.8124 7.27349 15.4688 7.27349C15.1218 7.27349 14.8438 6.99227 14.8438 6.64849Z" fill="#222222"/>
<path d="M9.0625 3.11105C9.0625 2.76727 9.34357 2.48605 9.68751 2.48605C10.0311 2.48605 10.3125 2.76727 10.3125 3.11105C10.3125 3.45788 10.0311 3.73605 9.68751 3.73605C9.34357 3.73605 9.0625 3.45788 9.0625 3.11105Z" fill="#222222"/>
<path d="M19.0626 9.04855C18.5642 -2.97438 1.43376 -2.97044 0.93754 9.04861C0.848826 14.8469 6.57952 19.3325 12.1897 17.8404C12.3306 20.7028 16.4804 20.6631 16.5626 17.7985C16.5626 17.7985 16.5626 15.2867 16.5626 15.2867C18.159 13.6297 19.0706 11.343 19.0626 9.04855ZM2.85223 12.2115C3.82352 13.1085 5.39222 12.9589 6.25006 12.0104V14.5173C6.25006 15.6373 7.16131 16.5485 8.28131 16.5485C9.38224 16.5677 10.3311 15.6128 10.3125 14.5173C10.3126 14.5173 10.3126 13.736 10.3126 13.736C10.3389 12.5082 12.1657 12.5023 12.1876 13.7361C12.1876 13.736 12.1876 16.5501 12.1876 16.5501C8.48661 17.6783 4.31059 15.7108 2.85223 12.2115ZM13.0985 9.44596C12.9804 10.3089 12.5007 11.1211 11.7779 11.6136C11.0573 11.4285 10.2734 11.6513 9.73757 12.1573C5.78445 11.6944 6.01983 6.06168 10.0001 5.92354C11.8633 5.90965 13.3514 7.59995 13.0985 9.44596ZM9.08838 13.4111C9.0473 13.6299 9.0661 14.2859 9.06256 14.5173C9.03805 15.5452 7.52752 15.5496 7.50006 14.5173V12.6405C7.98075 12.9752 8.53068 13.1978 9.09948 13.3305C9.09559 13.3573 9.09203 13.3842 9.08838 13.4111ZM15.3126 17.7985C15.2842 19.0349 13.4691 19.035 13.4376 17.7985V13.736C13.4373 13.2165 13.2464 12.7106 12.9136 12.3133C15.8845 9.64995 13.9996 4.67678 10 4.67357C6.97137 4.61624 4.7751 7.86994 5.93084 10.6593C5.40583 10.9813 5.11277 11.5881 4.44068 11.5641C3.93982 11.5761 3.69963 11.2933 3.3474 10.9766C3.0477 10.7008 2.69836 10.4747 2.30078 10.3669C1.45149 5.66321 5.21818 1.19136 10.0001 1.23609C14.7816 1.19118 18.5495 5.66382 17.6993 10.3674C17.3644 10.4611 17.0572 10.6322 16.794 10.8561C16.4825 11.1121 16.163 11.4886 15.8143 11.5391C15.5225 11.5978 15.3126 11.854 15.3126 12.1517V17.7985ZM16.5626 13.2868V12.599C16.779 12.497 16.96 12.3615 17.1418 12.2167C16.9773 12.588 16.7835 12.9458 16.5626 13.2868Z" fill="#222222"/>
<path opacity="0.1" d="M3.25982 9.14848C4.08093 9.13281 4.08081 7.91403 3.2598 7.89848C2.43808 7.91253 2.43819 9.13454 3.25982 9.14848Z" fill="#222222"/>
<path opacity="0.1" d="M14.8438 7.27348C15.6648 7.25765 15.6647 6.0392 14.8438 6.02348C14.0221 6.03753 14.0222 7.25954 14.8438 7.27348Z" fill="#222222"/>
<path opacity="0.1" d="M9.06319 3.73605C9.8842 3.72236 9.88451 2.50166 9.06316 2.48605C8.24168 2.50162 8.24224 3.72264 9.06319 3.73605Z" fill="#222222"/>
<path opacity="0.1" d="M12.8131 13.7375C12.8131 13.2156 12.6225 12.7094 12.2881 12.3125C15.26 9.65 13.3756 4.67812 9.37564 4.67499C6.34751 4.61561 4.15065 7.86875 5.30688 10.6594C4.78188 10.9813 4.48813 11.5875 3.81627 11.5656C3.02161 11.5767 2.68038 10.7212 1.97507 10.4732C1.9155 10.5892 1.82576 10.681 1.7207 10.7508C2.64788 15.5616 8.02356 18.8075 12.8131 17.0187V13.7375ZM11.5631 16.55C7.86313 17.6781 3.68813 15.7094 2.22876 12.2125C3.20063 13.1094 4.76939 12.9594 5.62564 12.0094V14.5187C5.62564 15.6375 6.53813 16.55 7.65689 16.55C8.75689 16.5687 9.70689 15.6125 9.68814 14.5187V13.7375C9.71627 12.5094 11.5413 12.5031 11.5631 13.7375V16.55ZM8.43814 14.5187C8.41313 15.5437 6.90377 15.55 6.87564 14.5187V12.6406C7.35688 12.975 7.90688 13.1969 8.47564 13.3312C8.41918 13.5936 8.44092 14.2407 8.43814 14.5187ZM11.1538 11.6125C10.4319 11.4281 9.65064 11.65 9.11313 12.1562C5.16002 11.6937 5.39439 6.06249 9.37564 5.92499C12.4206 5.93119 13.6527 9.87536 11.1538 11.6125Z" fill="#222222"/>
<path opacity="0.1" d="M15.9375 15.2875C21.6364 9.13922 16.8389 -0.338198 8.88721 0.744642C8.76929 1.02348 8.45566 1.16277 8.21289 1.32417C13.362 0.463874 18.0401 5.23224 17.075 10.3688C16.7406 10.4625 16.4312 10.6313 16.1687 10.8563C15.8594 11.1125 15.5375 11.4875 15.1906 11.5406C14.8969 11.5969 14.6875 11.8531 14.6875 12.1531V17.8C14.6593 19.0313 12.8562 19.0344 12.8125 17.8125C12.8416 19.6887 15.5104 19.9388 15.9062 18.1281C15.9609 18.0417 15.9306 15.4619 15.9375 15.2875ZM15.9375 12.6C16.1531 12.4969 16.3344 12.3625 16.5187 12.2156C16.3531 12.5875 16.1594 12.9469 15.9375 13.2875V12.6Z" fill="#222222"/>
<path d="M3.25977 8.52349C3.25977 8.17971 3.53778 7.89849 3.88477 7.89849C4.2287 7.89849 4.50977 8.17971 4.50977 8.52349C4.50977 8.86727 4.2287 9.14849 3.88477 9.14849C3.53778 9.14849 3.25977 8.86727 3.25977 8.52349Z" fill="#222222"/>
<path d="M14.8438 6.64849C14.8438 6.30471 15.1218 6.02349 15.4688 6.02349C15.8124 6.02349 16.0938 6.30471 16.0938 6.64849C16.0938 6.99227 15.8124 7.27349 15.4688 7.27349C15.1218 7.27349 14.8438 6.99227 14.8438 6.64849Z" fill="#222222"/>
<path d="M9.0625 3.11105C9.0625 2.76727 9.34357 2.48605 9.68751 2.48605C10.0311 2.48605 10.3125 2.76727 10.3125 3.11105C10.3125 3.45788 10.0311 3.73605 9.68751 3.73605C9.34357 3.73605 9.0625 3.45788 9.0625 3.11105Z" fill="#222222"/>
<path d="M19.0626 9.04855C18.5642 -2.97438 1.43376 -2.97044 0.93754 9.04861C0.848826 14.8469 6.57952 19.3325 12.1897 17.8404C12.3306 20.7028 16.4804 20.6631 16.5626 17.7985C16.5626 17.7985 16.5626 15.2867 16.5626 15.2867C18.159 13.6297 19.0706 11.343 19.0626 9.04855ZM2.85223 12.2115C3.82352 13.1085 5.39222 12.9589 6.25006 12.0104V14.5173C6.25006 15.6373 7.16131 16.5485 8.28131 16.5485C9.38224 16.5677 10.3311 15.6128 10.3125 14.5173C10.3126 14.5173 10.3126 13.736 10.3126 13.736C10.3389 12.5082 12.1657 12.5023 12.1876 13.7361C12.1876 13.736 12.1876 16.5501 12.1876 16.5501C8.48661 17.6783 4.31059 15.7108 2.85223 12.2115ZM13.0985 9.44596C12.9804 10.3089 12.5007 11.1211 11.7779 11.6136C11.0573 11.4285 10.2734 11.6513 9.73757 12.1573C5.78445 11.6944 6.01983 6.06168 10.0001 5.92354C11.8633 5.90965 13.3514 7.59995 13.0985 9.44596ZM9.08838 13.4111C9.0473 13.6299 9.0661 14.2859 9.06256 14.5173C9.03805 15.5452 7.52752 15.5496 7.50006 14.5173V12.6405C7.98075 12.9752 8.53068 13.1978 9.09948 13.3305C9.09559 13.3573 9.09203 13.3842 9.08838 13.4111ZM15.3126 17.7985C15.2842 19.0349 13.4691 19.035 13.4376 17.7985V13.736C13.4373 13.2165 13.2464 12.7106 12.9136 12.3133C15.8845 9.64995 13.9996 4.67678 10 4.67357C6.97137 4.61624 4.7751 7.86994 5.93084 10.6593C5.40583 10.9813 5.11277 11.5881 4.44068 11.5641C3.93982 11.5761 3.69963 11.2933 3.3474 10.9766C3.0477 10.7008 2.69836 10.4747 2.30078 10.3669C1.45149 5.66321 5.21818 1.19136 10.0001 1.23609C14.7816 1.19118 18.5495 5.66382 17.6993 10.3674C17.3644 10.4611 17.0572 10.6322 16.794 10.8561C16.4825 11.1121 16.163 11.4886 15.8143 11.5391C15.5225 11.5978 15.3126 11.854 15.3126 12.1517V17.7985ZM16.5626 13.2868V12.599C16.779 12.497 16.96 12.3615 17.1418 12.2167C16.9773 12.588 16.7835 12.9458 16.5626 13.2868Z" fill="#222222"/>
</svg>
