<svg width="20" height="20" viewBox="0 0 20 20" fill="none" xmlns="http://www.w3.org/2000/svg">
  <path d="M15.5568 12.204C14.334 12.204 14.1858 11.2125 13.2221 10.9734C12.5684 12.0732 11.3718 12.8127 9.99958 12.8127C8.62703 12.8127 7.43019 12.0729 6.77663 10.9727C5.8102 11.2101 5.66316 12.204 4.43964 12.204C3.08961 12.204 3.04802 10.9956 1.77148 10.9277C2.62077 14.6898 5.98089 17.5002 9.99958 17.5002C14.0183 17.5002 17.3784 14.6898 18.2277 10.9277C16.9498 10.9955 16.9082 12.204 15.5568 12.204Z" fill="#0A42EA"/>
  <path d="M18.4375 9.0625C18.4375 4.4026 14.6599 0.625 10 0.625C5.3401 0.625 1.5625 4.4026 1.5625 9.0625C1.5625 9.70371 1.63639 10.3273 1.77191 10.9276C3.04844 10.9954 3.09004 12.2039 4.44006 12.2039C5.70288 12.2039 5.82111 11.147 6.875 10.9541V14.5312C6.875 15.3079 7.5046 15.9375 8.28125 15.9375C9.0579 15.9375 9.6875 15.3079 9.6875 14.5312V13.75C9.6875 12.8871 10.3871 12.1875 11.25 12.1875C12.1129 12.1875 12.8125 12.8871 12.8125 13.75V17.8125C12.8125 18.6754 13.5121 19.375 14.375 19.375C15.2379 19.375 15.9375 18.6754 15.9375 17.8125V12.1646C16.928 11.9616 17.0835 10.9883 18.2281 10.9276C18.3636 10.3273 18.4375 9.70371 18.4375 9.0625Z" fill="white" fill-opacity="0.2"/>
  <path d="M10 12.8125C12.0711 12.8125 13.75 11.1336 13.75 9.0625C13.75 6.99143 12.0711 5.3125 10 5.3125C7.92893 5.3125 6.25 6.99143 6.25 9.0625C6.25 11.1336 7.92893 12.8125 10 12.8125Z" fill="#0A42EA"/>
  <path d="M3.25977 8.52344C3.25977 8.17966 3.53778 7.89844 3.88477 7.89844C4.2287 7.89844 4.50977 8.17966 4.50977 8.52344C4.50977 8.86722 4.2287 9.14844 3.88477 9.14844C3.53778 9.14844 3.25977 8.86722 3.25977 8.52344Z" fill="#F4F4F4"/>
  <path d="M14.8438 6.64844C14.8438 6.30466 15.1218 6.02344 15.4688 6.02344C15.8124 6.02344 16.0938 6.30466 16.0938 6.64844C16.0938 6.99222 15.8124 7.27344 15.4688 7.27344C15.1218 7.27344 14.8438 6.99222 14.8438 6.64844Z" fill="#F4F4F4"/>
  <path d="M9.0625 3.11084C9.0625 2.76706 9.34357 2.48584 9.68751 2.48584C10.0311 2.48584 10.3125 2.76706 10.3125 3.11084C10.3125 3.45767 10.0311 3.73584 9.68751 3.73584C9.34357 3.73584 9.0625 3.45767 9.0625 3.11084Z" fill="#F4F4F4"/>
  <path d="M19.0626 9.04842C18.5642 -2.9745 1.43376 -2.97056 0.93754 9.04849C0.848826 14.8467 6.57952 19.3324 12.1897 17.8403C12.3306 20.7026 16.4804 20.663 16.5626 17.7984C16.5626 17.7984 16.5626 15.2866 16.5626 15.2866C18.159 13.6296 19.0706 11.3428 19.0626 9.04842ZM2.85223 12.2114C3.82352 13.1084 5.39222 12.9588 6.25006 12.0103V14.5172C6.25006 15.6372 7.16131 16.5484 8.28131 16.5484C9.38224 16.5676 10.3311 15.6127 10.3125 14.5172C10.3126 14.5172 10.3126 13.7359 10.3126 13.7359C10.3389 12.5081 12.1657 12.5022 12.1876 13.736C12.1876 13.7359 12.1876 16.5499 12.1876 16.5499C8.48661 17.6782 4.31059 15.7107 2.85223 12.2114ZM13.0985 9.44584C12.9804 10.3088 12.5007 11.121 11.7779 11.6135C11.0573 11.4284 10.2734 11.6512 9.73757 12.1571C5.78445 11.6943 6.01983 6.06155 10.0001 5.92342C11.8633 5.90953 13.3514 7.59982 13.0985 9.44584ZM9.08838 13.4109C9.0473 13.6297 9.0661 14.2858 9.06256 14.5172C9.03805 15.5451 7.52752 15.5495 7.50006 14.5171V12.6403C7.98075 12.975 8.53068 13.1977 9.09948 13.3303C9.09559 13.3571 9.09203 13.3841 9.08838 13.4109ZM15.3126 17.7984C15.2842 19.0348 13.4691 19.0348 13.4376 17.7984V13.7359C13.4373 13.2164 13.2464 12.7105 12.9136 12.3132C15.8845 9.64983 13.9996 4.67666 10 4.67344C6.97137 4.61612 4.7751 7.86982 5.93084 10.6591C5.40583 10.9811 5.11277 11.588 4.44068 11.564C3.93982 11.576 3.69963 11.2932 3.3474 10.9765C3.0477 10.7007 2.69836 10.4746 2.30078 10.3668C1.45149 5.66309 5.21818 1.19124 10.0001 1.23597C14.7816 1.19106 18.5495 5.6637 17.6993 10.3672C17.3644 10.461 17.0572 10.6321 16.794 10.8559C16.4825 11.1119 16.163 11.4885 15.8143 11.539C15.5225 11.5977 15.3126 11.8539 15.3126 12.1516V17.7984ZM16.5626 13.2867V12.5988C16.779 12.4968 16.96 12.3614 17.1418 12.2166C16.9773 12.5879 16.7835 12.9457 16.5626 13.2867Z" fill="#F4F4F4"/>
  <path opacity="0.1" d="M3.25982 9.14844C4.08093 9.13276 4.08081 7.91399 3.2598 7.89844C2.43808 7.91249 2.43819 9.1345 3.25982 9.14844Z" fill="#F4F4F4"/>
  <path opacity="0.1" d="M14.8438 7.27344C15.6648 7.2576 15.6647 6.03915 14.8438 6.02344C14.0221 6.03749 14.0222 7.2595 14.8438 7.27344Z" fill="#F4F4F4"/>
  <path opacity="0.1" d="M9.06319 3.73584C9.8842 3.72215 9.88451 2.50144 9.06316 2.48584C8.24168 2.5014 8.24224 3.72243 9.06319 3.73584Z" fill="#F4F4F4"/>
  <path opacity="0.1" d="M12.8131 13.7376C12.8131 13.2157 12.6225 12.7095 12.2881 12.3126C15.26 9.65013 13.3756 4.67825 9.37564 4.67512C6.34751 4.61574 4.15065 7.86888 5.30688 10.6595C4.78188 10.9814 4.48813 11.5876 3.81627 11.5658C3.02161 11.5769 2.68038 10.7213 1.97507 10.4733C1.9155 10.5893 1.82576 10.6811 1.7207 10.751C2.64788 15.5618 8.02356 18.8076 12.8131 17.0189V13.7376ZM11.5631 16.5501C7.86313 17.6783 3.68813 15.7095 2.22876 12.2126C3.20063 13.1095 4.76939 12.9595 5.62564 12.0095V14.5189C5.62564 15.6376 6.53813 16.5501 7.65689 16.5501C8.75689 16.5689 9.70689 15.6126 9.68814 14.5189V13.7376C9.71627 12.5095 11.5413 12.5033 11.5631 13.7376V16.5501ZM8.43814 14.5189C8.41313 15.5439 6.90377 15.5501 6.87564 14.5189V12.6408C7.35688 12.9751 7.90688 13.197 8.47564 13.3314C8.41918 13.5937 8.44092 14.2409 8.43814 14.5189ZM11.1538 11.6126C10.4319 11.4283 9.65064 11.6501 9.11313 12.1564C5.16002 11.6939 5.39439 6.06262 9.37564 5.92512C12.4206 5.93132 13.6527 9.87548 11.1538 11.6126Z" fill="#F4F4F4"/>
  <path opacity="0.1" d="M15.9375 15.2873C21.6364 9.139 16.8389 -0.338412 8.88721 0.744428C8.76929 1.02327 8.45566 1.16255 8.21289 1.32396C13.362 0.46366 18.0401 5.23203 17.075 10.3685C16.7406 10.4623 16.4312 10.631 16.1687 10.856C15.8594 11.1123 15.5375 11.4873 15.1906 11.5404C14.8969 11.5967 14.6875 11.8529 14.6875 12.1529V17.7998C14.6593 19.031 12.8562 19.0342 12.8125 17.8123C12.8416 19.6885 15.5104 19.9386 15.9062 18.1279C15.9609 18.0415 15.9306 15.4617 15.9375 15.2873ZM15.9375 12.5998C16.1531 12.4967 16.3344 12.3623 16.5187 12.2154C16.3531 12.5873 16.1594 12.9467 15.9375 13.2873V12.5998Z" fill="#F4F4F4"/>
  <path d="M3.25977 8.52344C3.25977 8.17966 3.53778 7.89844 3.88477 7.89844C4.2287 7.89844 4.50977 8.17966 4.50977 8.52344C4.50977 8.86722 4.2287 9.14844 3.88477 9.14844C3.53778 9.14844 3.25977 8.86722 3.25977 8.52344Z" fill="#F4F4F4"/>
  <path d="M14.8438 6.64844C14.8438 6.30466 15.1218 6.02344 15.4688 6.02344C15.8124 6.02344 16.0938 6.30466 16.0938 6.64844C16.0938 6.99222 15.8124 7.27344 15.4688 7.27344C15.1218 7.27344 14.8438 6.99222 14.8438 6.64844Z" fill="#F4F4F4"/>
  <path d="M9.0625 3.11084C9.0625 2.76706 9.34357 2.48584 9.68751 2.48584C10.0311 2.48584 10.3125 2.76706 10.3125 3.11084C10.3125 3.45767 10.0311 3.73584 9.68751 3.73584C9.34357 3.73584 9.0625 3.45767 9.0625 3.11084Z" fill="#F4F4F4"/>
  <path d="M19.0626 9.04842C18.5642 -2.9745 1.43376 -2.97056 0.93754 9.04849C0.848826 14.8467 6.57952 19.3324 12.1897 17.8403C12.3306 20.7026 16.4804 20.663 16.5626 17.7984C16.5626 17.7984 16.5626 15.2866 16.5626 15.2866C18.159 13.6296 19.0706 11.3428 19.0626 9.04842ZM2.85223 12.2114C3.82352 13.1084 5.39222 12.9588 6.25006 12.0103V14.5172C6.25006 15.6372 7.16131 16.5484 8.28131 16.5484C9.38224 16.5676 10.3311 15.6127 10.3125 14.5172C10.3126 14.5172 10.3126 13.7359 10.3126 13.7359C10.3389 12.5081 12.1657 12.5022 12.1876 13.736C12.1876 13.7359 12.1876 16.5499 12.1876 16.5499C8.48661 17.6782 4.31059 15.7107 2.85223 12.2114ZM13.0985 9.44584C12.9804 10.3088 12.5007 11.121 11.7779 11.6135C11.0573 11.4284 10.2734 11.6512 9.73757 12.1571C5.78445 11.6943 6.01983 6.06155 10.0001 5.92342C11.8633 5.90953 13.3514 7.59982 13.0985 9.44584ZM9.08838 13.4109C9.0473 13.6297 9.0661 14.2858 9.06256 14.5172C9.03805 15.5451 7.52752 15.5495 7.50006 14.5171V12.6403C7.98075 12.975 8.53068 13.1977 9.09948 13.3303C9.09559 13.3571 9.09203 13.3841 9.08838 13.4109ZM15.3126 17.7984C15.2842 19.0348 13.4691 19.0348 13.4376 17.7984V13.7359C13.4373 13.2164 13.2464 12.7105 12.9136 12.3132C15.8845 9.64983 13.9996 4.67666 10 4.67344C6.97137 4.61612 4.7751 7.86982 5.93084 10.6591C5.40583 10.9811 5.11277 11.588 4.44068 11.564C3.93982 11.576 3.69963 11.2932 3.3474 10.9765C3.0477 10.7007 2.69836 10.4746 2.30078 10.3668C1.45149 5.66309 5.21818 1.19124 10.0001 1.23597C14.7816 1.19106 18.5495 5.6637 17.6993 10.3672C17.3644 10.461 17.0572 10.6321 16.794 10.8559C16.4825 11.1119 16.163 11.4885 15.8143 11.539C15.5225 11.5977 15.3126 11.8539 15.3126 12.1516V17.7984ZM16.5626 13.2867V12.5988C16.779 12.4968 16.96 12.3614 17.1418 12.2166C16.9773 12.5879 16.7835 12.9457 16.5626 13.2867Z" fill="#F4F4F4"/>
</svg>
