<svg width="20" height="20" viewBox="0 0 20 20" fill="none" xmlns="http://www.w3.org/2000/svg">
  <g clip-path="url(#clip0_2075_3830)">
    <path d="M19.3752 6.40625C19.434 6.37973 19.3383 8.88967 19.3659 8.75313C19.274 10.1657 17.2716 10.6676 16.5158 9.46867C16.4877 9.42351 16.4486 9.38626 16.4021 9.36044C16.3556 9.33461 16.3033 9.32107 16.2501 9.32107C16.197 9.32108 16.1447 9.33465 16.0982 9.36049C16.0517 9.38633 16.0126 9.42359 15.9845 9.46875C14.3367 11.3908 13.4167 8.82353 12.8596 9.46858C11.2198 11.3894 10.2883 8.8252 9.73461 9.46858C8.10322 11.3879 7.15968 8.82695 6.60961 9.46858C6.46367 9.67714 6.26959 9.84742 6.04383 9.965C5.81807 10.0826 5.56728 10.144 5.31273 10.144C5.05819 10.144 4.80739 10.0826 4.58162 9.96506C4.35585 9.84751 4.16175 9.67724 4.0158 9.4687C3.98772 9.42354 3.94859 9.38629 3.90211 9.36046C3.85563 9.33463 3.80333 9.32108 3.75015 9.32109C3.69698 9.32109 3.64468 9.33466 3.59821 9.36049C3.55173 9.38633 3.51261 9.4236 3.48455 9.46876C2.71519 10.6928 0.662388 10.1397 0.63146 8.68743C0.602973 8.58747 0.638813 6.50844 0.625185 6.40625H19.3752Z" fill="#0A42EA"/>
    <path d="M19.375 6.40625H0.625L2.8125 3.59375H17.1875L19.375 6.40625Z" fill="#0A42EA"/>
    <path d="M10.3125 12.6562H14.6875V18.9062H10.3125V12.6562Z" fill="#0A42EA"/>
    <path d="M5.3121 12.0313C5.18838 12.0312 5.06744 12.0679 4.96456 12.1366C4.86169 12.2054 4.78151 12.3031 4.73415 12.4174C4.6868 12.5317 4.67441 12.6574 4.69854 12.7788C4.72267 12.9001 4.78224 13.0116 4.86971 13.0991C4.95719 13.1866 5.06865 13.2461 5.18999 13.2703C5.31133 13.2944 5.4371 13.282 5.55141 13.2347C5.66571 13.1873 5.76341 13.1072 5.83214 13.0043C5.90088 12.9014 5.93756 12.7805 5.93756 12.6568C5.9371 12.491 5.87105 12.3322 5.75386 12.215C5.63666 12.0978 5.47784 12.0317 5.3121 12.0313Z" fill="#0A42EA"/>
    <path opacity="0.1" d="M19.2434 6.02188L17.1871 3.37813V1.09375L15.9371 1.71875V2.96875L16.2559 4.21875L17.4715 5.78125L18.1246 7.03125V8.59375C18.1244 8.79453 18.0598 8.98995 17.9403 9.1513C17.8208 9.31266 17.6528 9.43144 17.4608 9.49019C17.2688 9.54894 17.063 9.54456 16.8737 9.47771C16.6844 9.41085 16.5215 9.28504 16.409 9.11875C16.3224 8.9903 16.2056 8.88509 16.0688 8.81235C15.932 8.7396 15.7795 8.70156 15.6246 8.70156C15.4697 8.70156 15.3171 8.7396 15.1804 8.81235C15.0436 8.88509 14.9268 8.9903 14.8402 9.11875C14.7532 9.24457 14.6369 9.34741 14.5013 9.41843C14.3658 9.48946 14.2151 9.52657 14.0621 9.52657C13.9091 9.52657 13.7584 9.48946 13.6228 9.41843C13.4873 9.34741 13.371 9.24457 13.284 9.11875C13.1974 8.9903 13.0806 8.88509 12.9438 8.81235C12.807 8.7396 12.6545 8.70156 12.4996 8.70156C12.3447 8.70156 12.1921 8.7396 12.0554 8.81235C11.9186 8.88509 11.8018 8.9903 11.7152 9.11875C11.6282 9.24457 11.5119 9.34741 11.3764 9.41843C11.2408 9.48946 11.0901 9.52657 10.9371 9.52657C10.7841 9.52657 10.6334 9.48946 10.4978 9.41843C10.3623 9.34741 10.246 9.24457 10.159 9.11875C10.0724 8.9903 9.95557 8.88509 9.8188 8.81235C9.68204 8.7396 9.5295 8.70156 9.37459 8.70156C9.21968 8.70156 9.06715 8.7396 8.93038 8.81235C8.79362 8.88509 8.67681 8.9903 8.59022 9.11875C8.50315 9.24457 8.38687 9.34741 8.25135 9.41843C8.11583 9.48946 7.9651 9.52657 7.81209 9.52657C7.65908 9.52657 7.50836 9.48946 7.37283 9.41843C7.23731 9.34741 7.12103 9.24457 7.03397 9.11875C6.94738 8.9903 6.83057 8.88509 6.6938 8.81235C6.55704 8.7396 6.4045 8.70156 6.24959 8.70156C6.09469 8.70156 5.94215 8.7396 5.80538 8.81235C5.66862 8.88509 5.55181 8.9903 5.46522 9.11875C5.37815 9.24457 5.26188 9.34741 5.12635 9.41843C4.99083 9.48946 4.8401 9.52657 4.68709 9.52657C4.53408 9.52657 4.38336 9.48946 4.24783 9.41843C4.11231 9.34741 3.99603 9.24457 3.90897 9.11875C3.79279 8.94456 3.62187 8.81405 3.42324 8.74784C3.2246 8.68162 3.00957 8.68349 2.81211 8.75313C2.61729 8.81681 2.45055 8.94601 2.34023 9.11875C2.23235 9.27839 2.07789 9.4009 1.89789 9.46962C1.71789 9.53834 1.52108 9.54992 1.33426 9.50278C1.14744 9.45565 0.979683 9.3521 0.85382 9.20621C0.727957 9.06033 0.650105 8.87921 0.630859 8.6875C0.645241 8.93848 0.720144 9.18225 0.849175 9.39799C0.978205 9.61374 1.15753 9.79506 1.37184 9.92647C1.58614 10.0579 1.82907 10.1355 2.07987 10.1526C2.33067 10.1698 2.5819 10.126 2.81211 10.025C2.81211 10.025 3.02773 10.2219 3.12461 10.125C3.32833 10.3328 3.57145 10.4979 3.83975 10.6105C4.10804 10.7232 4.39611 10.7813 4.68711 10.7813C4.9781 10.7813 5.26618 10.7232 5.53447 10.6105C5.80276 10.4979 6.04588 10.3328 6.24961 10.125C6.45333 10.3328 6.69645 10.4979 6.96475 10.6105C7.23304 10.7232 7.52111 10.7813 7.81211 10.7813C8.1031 10.7813 8.39118 10.7232 8.65947 10.6105C8.92776 10.4979 9.17088 10.3328 9.37461 10.125C9.57833 10.3328 9.82145 10.4979 10.0897 10.6105C10.358 10.7232 10.6461 10.7813 10.9371 10.7813C11.2281 10.7813 11.5162 10.7232 11.7845 10.6105C12.0528 10.4979 12.2959 10.3328 12.4996 10.125C12.7033 10.3328 12.9465 10.4979 13.2147 10.6105C13.483 10.7232 13.7711 10.7813 14.0621 10.7813C14.3531 10.7813 14.6412 10.7232 14.9095 10.6105C15.1778 10.4979 15.4209 10.3328 15.6246 10.125C15.7207 10.2217 15.8253 10.3095 15.9371 10.3875V18.5938H14.6871V12.6562C14.6866 12.4906 14.6206 12.3319 14.5035 12.2148C14.3864 12.0977 14.2277 12.0317 14.0621 12.0312H9.68711C9.5215 12.0317 9.36281 12.0977 9.2457 12.2148C9.1286 12.3319 9.06259 12.4906 9.06211 12.6562V18.2812L9.99961 18.9062H17.1871V10.7812C17.7393 10.781 18.2709 10.5717 18.675 10.1955C19.0791 9.81919 19.3257 9.30386 19.3652 8.75313C19.3715 8.7 19.3152 6.12188 19.2434 6.02188ZM13.4371 18.2812H10.3121V13.2812H13.4371V18.2812Z" fill="white" fill-opacity="0.2"/>
    <path d="M19.9959 6.36524C19.9877 6.24102 19.9434 6.12189 19.8685 6.02249L17.8125 3.3791V1.09375C17.8125 0.927992 17.7466 0.769026 17.6294 0.651817C17.5122 0.534609 17.3533 0.468758 17.1875 0.46875H2.8125C2.64674 0.468758 2.48778 0.534609 2.37057 0.651817C2.25336 0.769026 2.18751 0.927992 2.1875 1.09375V3.3791L0.131531 6.0225C0.0494135 6.13392 0.00349952 6.26788 0 6.40625L0 8.59375C0.000676532 9.1737 0.231362 9.72971 0.641451 10.1398C1.05154 10.5499 1.60755 10.7806 2.1875 10.7812V18.2812H1.5625C1.39674 18.2812 1.23777 18.3471 1.12056 18.4643C1.00335 18.5815 0.9375 18.7405 0.9375 18.9062C0.9375 19.072 1.00335 19.231 1.12056 19.3482C1.23777 19.4654 1.39674 19.5312 1.5625 19.5312H18.4375C18.6033 19.5312 18.7622 19.4654 18.8794 19.3482C18.9967 19.231 19.0625 19.072 19.0625 18.9062C19.0625 18.7405 18.9967 18.5815 18.8794 18.4643C18.7622 18.3471 18.6033 18.2812 18.4375 18.2812H17.8125V10.7812C18.3925 10.7806 18.9485 10.5499 19.3585 10.1398C19.7686 9.72971 19.9993 9.1737 20 8.59375V6.40625C20 6.39221 19.9968 6.37906 19.9959 6.36524ZM3.4375 1.71875H16.5625V2.96875H3.4375V1.71875ZM3.11829 4.21875H16.8817L18.0972 5.78125H1.90277L3.11829 4.21875ZM14.0625 18.2812H10.9375V13.2812H14.0625V18.2812ZM16.5625 18.2812H15.3125V12.6562C15.3125 12.4905 15.2466 12.3315 15.1294 12.2143C15.0122 12.0971 14.8533 12.0313 14.6875 12.0312H10.3125C10.1467 12.0313 9.98778 12.0971 9.87057 12.2143C9.75336 12.3315 9.68751 12.4905 9.6875 12.6562V18.2812H3.4375V10.3877C3.54963 10.31 3.65425 10.222 3.75 10.1248C3.9537 10.3327 4.19681 10.4978 4.46511 10.6105C4.7334 10.7232 5.02149 10.7812 5.3125 10.7812C5.60351 10.7812 5.8916 10.7232 6.15989 10.6105C6.42819 10.4978 6.6713 10.3327 6.875 10.1248C7.0787 10.3327 7.32181 10.4978 7.59011 10.6105C7.8584 10.7232 8.14649 10.7812 8.4375 10.7812C8.72851 10.7812 9.0166 10.7232 9.28489 10.6105C9.55319 10.4978 9.7963 10.3327 10 10.1248C10.2037 10.3327 10.4468 10.4978 10.7151 10.6105C10.9834 10.7232 11.2715 10.7812 11.5625 10.7812C11.8535 10.7812 12.1416 10.7232 12.4099 10.6105C12.6782 10.4978 12.9213 10.3327 13.125 10.1248C13.3287 10.3327 13.5718 10.4978 13.8401 10.6105C14.1084 10.7232 14.3965 10.7812 14.6875 10.7812C14.9785 10.7812 15.2666 10.7232 15.5349 10.6105C15.8032 10.4978 16.0463 10.3327 16.25 10.1248C16.3457 10.222 16.4504 10.31 16.5625 10.3878V18.2812ZM18.75 8.59375C18.75 8.79456 18.6855 8.99006 18.566 9.15147C18.4465 9.31288 18.2784 9.43166 18.0863 9.49034C17.8943 9.54901 17.6885 9.54448 17.4992 9.4774C17.3099 9.41032 17.1472 9.28425 17.0349 9.11774C16.948 8.98963 16.8311 8.88474 16.6943 8.81223C16.5575 8.73972 16.4051 8.70178 16.2503 8.70174C16.0955 8.70169 15.943 8.73954 15.8062 8.81197C15.6694 8.8844 15.5524 8.98922 15.4654 9.11728C15.3787 9.2434 15.2625 9.34653 15.1271 9.4178C14.9916 9.48907 14.8408 9.52633 14.6878 9.52638C14.5347 9.52642 14.3839 9.48925 14.2484 9.41806C14.1129 9.34687 13.9967 9.2438 13.9099 9.11774C13.823 8.98963 13.7061 8.88474 13.5693 8.81223C13.4325 8.73972 13.2801 8.70178 13.1253 8.70174C12.9705 8.70169 12.818 8.73954 12.6812 8.81197C12.5444 8.8844 12.4274 8.98922 12.3404 9.11728C12.2537 9.2434 12.1375 9.34653 12.0021 9.4178C11.8666 9.48907 11.7158 9.52633 11.5628 9.52638C11.4097 9.52642 11.2589 9.48925 11.1234 9.41806C10.9879 9.34687 10.8717 9.2438 10.7849 9.11774C10.698 8.98963 10.5811 8.88474 10.4443 8.81223C10.3075 8.73972 10.1551 8.70178 10.0003 8.70174C9.84547 8.70169 9.69301 8.73954 9.5562 8.81197C9.41938 8.8844 9.30238 8.98922 9.21539 9.11728C9.12865 9.2434 9.01254 9.34653 8.87708 9.4178C8.74161 9.48907 8.59084 9.52633 8.43777 9.52638C8.2847 9.52642 8.13392 9.48925 7.99841 9.41806C7.8629 9.34687 7.74673 9.2438 7.65991 9.11774C7.573 8.98963 7.45606 8.88474 7.31929 8.81223C7.18252 8.73972 7.03008 8.70178 6.87527 8.70174C6.72047 8.70169 6.56801 8.73954 6.4312 8.81197C6.29438 8.8844 6.17738 8.98922 6.09039 9.11728C6.00365 9.2434 5.88754 9.34653 5.75207 9.4178C5.61661 9.48907 5.46584 9.52633 5.31277 9.52638C5.1597 9.52642 5.00892 9.48925 4.87341 9.41806C4.7379 9.34687 4.62173 9.2438 4.53491 9.11774C4.448 8.98963 4.33106 8.88474 4.19429 8.81223C4.05752 8.73972 3.90508 8.70178 3.75027 8.70174C3.59547 8.70169 3.44301 8.73954 3.30619 8.81197C3.16938 8.8844 3.05238 8.98922 2.96539 9.11728C2.85322 9.2839 2.6905 9.41009 2.5012 9.47726C2.31191 9.54444 2.10604 9.54905 1.91393 9.49042C1.72181 9.43179 1.55361 9.31301 1.43408 9.15158C1.31455 8.99016 1.25003 8.79461 1.25 8.59375V7.03125H18.75V8.59375Z" fill="#F4F4F4"/>
  </g>
  <defs>
    <clipPath id="clip0_2075_3830">
      <rect width="20" height="20" fill="white"/>
    </clipPath>
  </defs>
</svg>
