<svg width="32" height="38" viewBox="0 0 32 38" fill="none" xmlns="http://www.w3.org/2000/svg">
<ellipse cx="15.7842" cy="22.2158" rx="15.7842" ry="15.7842" fill="#FFEEB0"/>
<mask id="mask0_1007_24096" style="mask-type:alpha" maskUnits="userSpaceOnUse" x="0" y="0" width="32" height="38">
<path d="M31.5684 22.2158C31.5684 30.9332 24.5015 38 15.7842 38C7.06682 38 0 30.9332 0 22.2158C0 13.4985 7.06682 1.53074 15.7842 1.53074C35.9139 -5.50392 31.5684 13.4985 31.5684 22.2158Z" fill="#FFEEB0"/>
</mask>
<g mask="url(#mask0_1007_24096)">
<path d="M21.5747 29.408L24.6497 45.0347H18.6949L16.4131 34.7099L15.8884 34.6735L15.8762 45.0347H9.93359L10.2387 29.408H21.5747Z" fill="#FFCC00"/>
<path d="M24.3199 18.4403L29.9208 17.0208C31.0434 16.7053 31.7023 15.5649 31.4095 14.4487C31.1044 13.2961 29.9208 12.6167 28.7615 12.9443L23.1484 14.5336L24.3199 18.4403Z" fill="#E8ABA2"/>
<path d="M24.932 13.5145L19.4531 14.2303L21.0272 19.787L26.2499 18.6951L24.932 13.5145Z" fill="#222222"/>
<path d="M27.5423 6.58686C27.6766 5.71332 27.3471 4.59713 27.3471 4.59713L27.4691 2.63167C27.4935 2.44968 27.3715 2.2677 27.1885 2.2313C26.9932 2.18277 26.798 2.3041 26.737 2.49821L26.5784 3.77212H26.4075L26.1757 1.73387C26.1635 1.49122 25.9316 1.30923 25.6876 1.35776C25.4801 1.39416 25.3337 1.57615 25.3459 1.7824L25.5045 3.97838L25.3215 4.01477L24.6992 1.8188C24.626 1.56401 24.3697 1.41842 24.1135 1.49122C23.8816 1.56401 23.7474 1.80666 23.7962 2.03718L24.4429 4.5486L24.1989 4.6214L23.3447 2.86219C23.2471 2.65594 22.9908 2.58314 22.7956 2.70447C22.637 2.80153 22.576 2.98351 22.637 3.1655L23.5034 5.5192L22.7834 5.50707C22.4539 5.50707 22.1855 5.79825 22.2221 6.12583C22.2465 6.35634 22.4173 6.55046 22.637 6.61112L23.5888 6.80524C23.5888 6.80524 24.2233 7.67878 25.2727 8.05489C25.2727 8.06702 27.4447 7.25415 27.5423 6.58686Z" fill="#E8ABA2"/>
<path d="M23.5039 5.49494C23.5039 5.49494 24.8706 5.41001 25.6759 6.17436" stroke="#D8857D" stroke-width="0.9962" stroke-miterlimit="10"/>
<path d="M31.3224 14.2182L27.5396 6.58686L25.1602 7.59385L27.564 15.9774L31.3224 14.2182Z" fill="#E8ABA2"/>
<path d="M26.8438 13.4781L27.2098 14.7763" stroke="#D8857D" stroke-width="0.9962" stroke-miterlimit="10"/>
<path d="M14.5603 13.927L10.082 14.8491L10.2407 29.408H21.5767L21.9305 14.4487L17.6719 14.0847L14.5603 13.927Z" fill="#222222"/>
<path d="M21.8086 19.6293V17.7487" stroke="#7A7682" stroke-width="1.9923" stroke-miterlimit="10"/>
<path d="M13.1215 21.0366C12.3528 21.0366 11.7305 20.4179 11.7305 19.6535V18.2704H14.5126V19.6535C14.5126 20.4179 13.8903 21.0366 13.1215 21.0366Z" fill="#7A7682"/>
<path d="M6.83569 18.5495L3.60205 24.3731C3.04074 25.3922 3.39461 26.6782 4.40741 27.2606C5.40801 27.8308 6.68926 27.5154 7.29938 26.5448L10.655 21.2065L6.83569 18.5495Z" fill="#E8ABA2"/>
<path d="M5.83594 19.3624L10.4728 22.3227L11.2172 18.7921C11.9981 17.5304 12.9987 16.0138 11.7419 15.2131C10.4728 14.4002 8.77671 14.7763 7.97136 16.0381L5.83594 19.3624Z" fill="#222222"/>
<path d="M10.168 22.1164V18.1612" stroke="#7A7682" stroke-width="1.9923" stroke-miterlimit="10"/>
<path d="M5.18828 27.5154L13.6811 27.2849L14.2669 24.5551L4.67578 23.3539L5.18828 27.5154Z" fill="#E8ABA2"/>
<path d="M8.97035 23.8878L6.76172 23.6209" stroke="#D8857D" stroke-width="0.9962" stroke-miterlimit="10"/>
<path d="M13.6953 24.6764C13.6953 24.6764 14.7813 23.2205 16.0626 24.6764L15.5501 25.6834L13.6953 24.6764Z" fill="#E8ABA2"/>
<path d="M14.974 23.1234L14.6445 25.1617L17.2314 25.4529L17.6463 23.4874C17.6951 23.2811 17.5487 23.0749 17.3291 23.0506L15.3889 22.8201C15.1936 22.7958 15.0106 22.9293 14.974 23.1234Z" fill="#1A1A1A"/>
<path d="M14.2437 24.4944L17.3065 24.5672C17.6603 24.5793 17.941 24.8705 17.941 25.2223C17.941 25.4771 17.7946 25.6955 17.5749 25.8047L17.4163 25.8775C17.4163 25.8775 17.7336 28.1827 15.891 28.4617C14.0484 28.7408 13.0234 27.2849 13.0234 27.2849L14.2437 24.4944Z" fill="#E8ABA2"/>
<path d="M17.841 14.0847L17.7922 9.48652H14.4365L14.3633 13.9634L17.841 14.0847Z" fill="#E8ABA2"/>
<path d="M14.1554 10.8332C13.9845 10.4329 15.3268 13.0292 16.6935 12.8836C17.8649 12.7623 17.9137 10.6391 17.9137 10.6391C17.9137 10.6391 17.4988 11.3064 16.2542 11.3064C14.8753 11.3185 14.1554 10.8332 14.1554 10.8332Z" fill="#3A1616"/>
<path d="M19.5855 6.95083C19.2317 9.00122 18.0236 10.724 16.1079 10.724C14.1799 10.724 12.862 9.01336 12.6302 6.95083C12.3495 4.59713 14.1799 3.04418 16.0956 3.04418C18.0236 3.04418 19.9516 4.85192 19.5855 6.95083Z" fill="#2F1118"/>
<path d="M19.1103 8.01849C19.1103 8.01849 19.3665 7.61812 19.879 7.81224C20.3915 8.00636 20.1597 9.256 19.3909 9.41373C19.3909 9.41373 19.1103 9.47439 18.8906 9.28027C18.8906 9.2924 19.0859 8.37033 19.1103 8.01849Z" fill="#E8ABA2"/>
<path d="M19.7795 8.26114C19.7795 8.26114 19.3524 8.11555 19.0352 8.74644" stroke="#161311" stroke-width="1.0982" stroke-miterlimit="10" stroke-linecap="round" stroke-linejoin="round"/>
<path d="M13.1793 8.01849C13.1793 8.01849 12.923 7.61812 12.4105 7.81224C11.898 8.00636 12.1299 9.256 12.8986 9.41373C12.8986 9.41373 13.1793 9.47439 13.3989 9.28027C13.3989 9.2924 13.2037 8.37033 13.1793 8.01849Z" fill="#E8ABA2"/>
<path d="M12.5078 8.26114C12.5078 8.26114 12.9349 8.11555 13.2522 8.74644" stroke="#161311" stroke-width="1.0982" stroke-miterlimit="10" stroke-linecap="round" stroke-linejoin="round"/>
<path d="M19.1582 6.95083C19.1582 7.75158 19.0728 9.42586 18.5481 10.4207C18.06 11.3549 17.2547 11.8524 16.1931 11.8887C15.3511 11.9009 14.1309 11.1123 13.7038 10.3115C13.0693 9.09828 13.1059 6.96296 13.1059 6.96296C13.1059 6.96296 13.1059 4.0997 16.0954 4.0997C19.2559 4.0997 19.1582 6.95083 19.1582 6.95083Z" fill="#E8ABA2"/>
<path d="M15.0848 7.9093C15.0848 8.03062 14.9872 8.13982 14.8529 8.13982C14.7309 8.13982 14.6211 8.04276 14.6211 7.9093C14.6211 7.78797 14.7187 7.67878 14.8529 7.67878C14.9872 7.67878 15.0848 7.78797 15.0848 7.9093Z" fill="#1A1A1A"/>
<path d="M17.4754 7.9093C17.4754 8.03062 17.3778 8.13981 17.2436 8.13981C17.1215 8.13981 17.0117 8.04275 17.0117 7.9093C17.0117 7.78797 17.1093 7.67878 17.2436 7.67878C17.3778 7.67878 17.4754 7.78797 17.4754 7.9093Z" fill="#1A1A1A"/>
<path d="M15.4872 6.9751L13.8398 7.39973C13.8398 7.39973 13.9131 6.9387 14.5842 6.78098C15.2553 6.61112 15.4872 6.9751 15.4872 6.9751Z" fill="#1A1A1A"/>
<path d="M16.5234 6.9751L18.1708 7.39973C18.1708 7.39973 18.0975 6.9387 17.4264 6.78098C16.7431 6.61112 16.5234 6.9751 16.5234 6.9751Z" fill="#1A1A1A"/>
<path d="M15.8281 8.49166V9.08615H16.2552" stroke="#161311" stroke-width="1.0982" stroke-miterlimit="10" stroke-linecap="round" stroke-linejoin="round"/>
<path d="M17.3926 9.57144H14.8789C14.8789 9.57144 14.9521 10.2266 16.0747 10.2266C17.0997 10.2387 17.3926 9.57144 17.3926 9.57144Z" fill="white"/>
<path d="M13.1798 8.01849C13.1798 8.01849 14.3024 6.30781 13.4238 5.04603C13.4238 5.04603 12.8747 5.05817 12.8869 7.22988L13.1798 8.01849Z" fill="#2F1118"/>
<path d="M19.1073 8.01849C19.1073 8.01849 17.9847 6.30781 18.8632 5.04603C18.8632 5.04603 19.4124 5.05817 19.4001 7.22988L19.1073 8.01849Z" fill="#2F1118"/>
<path d="M13.1172 4.97324C13.1172 4.97324 14.5693 6.59899 17.5467 6.28355C20.2068 6.0045 20.4386 4.1361 19.8041 3.40815C18.9011 2.36476 16.8999 2.753 15.8261 3.91771L13.1172 4.97324Z" fill="#2F1118"/>
<path d="M14.3594 13.9634L16.1287 16.2322L17.8371 14.0847L14.3594 13.9634Z" fill="#E8ABA2"/>
<path d="M14.3619 13.648L13.3125 14.1818L14.4961 16.5355L15.6798 15.6498L14.3619 13.648Z" fill="#7A7682"/>
<path d="M17.8379 13.648L19.0215 14.1939L17.7769 16.5355L16.6055 15.6256L17.8379 13.648Z" fill="#7A7682"/>
</g>
</svg>
