<svg width="20" height="20" viewBox="0 0 20 20" fill="none" xmlns="http://www.w3.org/2000/svg">
  <g clip-path="url(#clip0_2075_3902)">
    <path opacity="0.1" d="M12.4528 6.41504H10.9434C11.2436 6.41504 11.5315 6.53431 11.7438 6.74661C11.9561 6.95891 12.0754 7.24685 12.0754 7.54709V15.4714C12.0754 15.7717 11.9561 16.0596 11.7438 16.2719C11.5315 16.4842 11.2436 16.6035 10.9434 16.6035H12.4528C12.753 16.6035 13.0409 16.4842 13.2532 16.2719C13.4655 16.0596 13.5848 15.7717 13.5848 15.4714V7.54709C13.5848 7.24685 13.4655 6.95891 13.2532 6.74661C13.0409 6.53431 12.753 6.41504 12.4528 6.41504Z" fill="white" fill-opacity="0.2"/>
    <path opacity="0.1" d="M4.90527 18.1881L5.65997 19.2447L7.54672 16.6033C7.08021 16.6027 6.62031 16.7137 6.20544 16.927C5.79056 17.1403 5.43275 17.4498 5.16187 17.8297L4.90527 18.1881Z" fill="white" fill-opacity="0.2"/>
    <path fill-rule="evenodd" clip-rule="evenodd" d="M5.2832 6.41504H1.88693C1.58669 6.41504 1.29875 6.53431 1.08645 6.74661C0.874152 6.95891 0.754883 7.24685 0.754883 7.54709V15.4714C0.754883 15.7717 0.874152 16.0596 1.08645 16.2719C1.29875 16.4842 1.58669 16.6035 1.88693 16.6035H3.77368L5.66043 19.2449L7.54718 16.6035H12.8301C13.1303 16.6035 13.4182 16.4842 13.6305 16.2719C13.8428 16.0596 13.9621 15.7717 13.9621 15.4714V10.9433L12.0755 13.5845L10.1888 10.9431H6.41525C6.11501 10.9431 5.82707 10.8238 5.61477 10.6115C5.40247 10.3992 5.2832 10.1113 5.2832 9.81103V6.41504Z" fill="#0A42EA"/>
    <path opacity="0.1" d="M17.7354 0.7547H15.8486C16.1489 0.7547 16.4368 0.873969 16.6491 1.08627C16.8614 1.29857 16.9807 1.58651 16.9807 1.88675V9.8111C16.9807 10.1113 16.8614 10.3993 16.6491 10.6116C16.4368 10.8239 16.1489 10.9432 15.8486 10.9432H17.7354C18.0356 10.9432 18.3236 10.8239 18.5359 10.6116C18.7482 10.3993 18.8674 10.1113 18.8674 9.8111V1.88675C18.8674 1.58651 18.7482 1.29857 18.5359 1.08627C18.3236 0.873969 18.0356 0.7547 17.7354 0.7547Z" fill="white" fill-opacity="0.2"/>
    <path d="M8.30157 7.92444H12.8298C13.0299 7.92444 13.2219 7.84492 13.3634 7.70339C13.505 7.56186 13.5845 7.3699 13.5845 7.16974C13.5845 6.96958 13.505 6.77762 13.3634 6.63609C13.2219 6.49455 13.0299 6.41504 12.8298 6.41504H8.30157C8.10142 6.41504 7.90946 6.49455 7.76792 6.63609C7.62639 6.77762 7.54688 6.96958 7.54688 7.16974C7.54688 7.3699 7.62639 7.56186 7.76792 7.70339C7.90946 7.84492 8.10142 7.92444 8.30157 7.92444Z" fill="#F4F4F4"/>
    <path d="M15.8484 7.92444C16.2653 7.92444 16.6031 7.58655 16.6031 7.16974C16.6031 6.75293 16.2653 6.41504 15.8484 6.41504C15.4316 6.41504 15.0938 6.75293 15.0938 7.16974C15.0938 7.58655 15.4316 7.92444 15.8484 7.92444Z" fill="#0A42EA"/>
    <path d="M8.30157 4.5282H15.8486C16.0487 4.5282 16.2407 4.44868 16.3822 4.30715C16.5238 4.16562 16.6033 3.97366 16.6033 3.7735C16.6033 3.57334 16.5238 3.38138 16.3822 3.23985C16.2407 3.09831 16.0487 3.0188 15.8486 3.0188H8.30157C8.10142 3.0188 7.90945 3.09831 7.76792 3.23985C7.62639 3.38138 7.54688 3.57334 7.54688 3.7735C7.54688 3.97366 7.62639 4.16562 7.76792 4.30715C7.90945 4.44868 8.10142 4.5282 8.30157 4.5282Z" fill="#F4F4F4"/>
    <path d="M6.03759 1.88675C6.03759 1.78667 6.07735 1.69069 6.14812 1.61992C6.21888 1.54915 6.31486 1.5094 6.41494 1.5094H17.7354C17.8355 1.5094 17.9315 1.54915 18.0023 1.61992C18.073 1.69069 18.1128 1.78667 18.1128 1.88675V9.81109C18.1128 9.91117 18.073 10.0071 18.0023 10.0779C17.9315 10.1487 17.8355 10.1884 17.7354 10.1884H13.9619C13.8423 10.191 13.7249 10.221 13.6186 10.2759C13.5123 10.3308 13.42 10.4093 13.3487 10.5054L12.0752 12.2865L10.8016 10.5054C10.732 10.4076 10.64 10.3278 10.5334 10.2727C10.4268 10.2176 10.3085 10.1887 10.1884 10.1884H6.41494C6.31486 10.1884 6.21888 10.1487 6.14812 10.0779C6.07735 10.0071 6.03759 9.91117 6.03759 9.81109V1.88675ZM7.54699 15.8487C7.42694 15.8489 7.30868 15.8778 7.20203 15.933C7.09539 15.9881 7.00343 16.0679 6.9338 16.1657L5.66024 17.9467L4.38669 16.1657C4.31706 16.0679 4.2251 15.9881 4.11845 15.933C4.01181 15.8778 3.89355 15.8489 3.7735 15.8487H1.88675C1.78667 15.8487 1.69069 15.8089 1.61992 15.7382C1.54915 15.6674 1.5094 15.5714 1.5094 15.4713V7.54699C1.5094 7.44691 1.54915 7.35093 1.61992 7.28017C1.69069 7.2094 1.78667 7.16964 1.88675 7.16964H4.52819V9.81109C4.52819 10.3115 4.72698 10.7914 5.08081 11.1452C5.43464 11.4991 5.91455 11.6978 6.41494 11.6978H9.81109L11.4714 14.0223C11.5412 14.1204 11.6334 14.2005 11.7404 14.2557C11.8474 14.3109 11.9661 14.3397 12.0865 14.3397C12.2069 14.3397 12.3256 14.3109 12.4326 14.2557C12.5396 14.2005 12.6318 14.1204 12.7016 14.0223L13.2072 13.2978V15.4713C13.2072 15.5714 13.1675 15.6674 13.0967 15.7382C13.0259 15.8089 12.93 15.8487 12.8299 15.8487H7.54699ZM19.6222 9.77618V1.88675C19.6222 1.38635 19.4234 0.90645 19.0696 0.552616C18.7157 0.198782 18.2358 0 17.7354 0L6.41494 0C5.91455 0 5.43464 0.198782 5.08081 0.552616C4.72698 0.90645 4.52819 1.38635 4.52819 1.88675V5.66024H1.88675C1.38635 5.66024 0.90645 5.85903 0.552616 6.21286C0.198782 6.56669 0 7.0466 0 7.54699L0 15.4713C0 15.9717 0.198782 16.4516 0.552616 16.8055C0.90645 17.1593 1.38635 17.3581 1.88675 17.3581H3.39615L5.05648 19.6826C5.12626 19.7807 5.21849 19.8607 5.3255 19.9159C5.4325 19.9711 5.55116 19.9999 5.67156 19.9999C5.79197 19.9999 5.91063 19.9711 6.01763 19.9159C6.12463 19.8607 6.21687 19.7807 6.28664 19.6826L7.92434 17.3581H12.8299C13.3303 17.3581 13.8102 17.1593 14.164 16.8055C14.5179 16.4516 14.7166 15.9717 14.7166 15.4713V11.6978H17.7354C18.0039 11.6978 18.2694 11.6405 18.514 11.5298C18.7586 11.419 18.9767 11.2572 19.1538 11.0554C19.2063 10.9943 19.2545 10.9297 19.2981 10.862C19.5096 10.5393 19.6222 10.162 19.6222 9.77618Z" fill="#F4F4F4"/>
  </g>
  <defs>
    <clipPath id="clip0_2075_3902">
      <rect width="19.6222" height="20" fill="white"/>
    </clipPath>
  </defs>
</svg>
