<svg width="42" height="42" viewBox="0 0 42 42" fill="none" xmlns="http://www.w3.org/2000/svg">
<rect width="42" height="42" rx="12" fill="black" fill-opacity="0.05"/>
<path fill-rule="evenodd" clip-rule="evenodd" d="M14.3789 30.8719L18.216 31.8828V30.5609L18.5292 30.2499H20.7219V31.8051V32.8937H18.3726L15.4752 31.6495L14.3789 30.8719Z" fill="#CDBDB2"/>
<path fill-rule="evenodd" clip-rule="evenodd" d="M26.9082 30.8719L23.1493 31.8828V30.5609L22.8361 30.2499H20.6434V31.8051V32.8937H22.9927L25.8902 31.6495L26.9082 30.8719Z" fill="#CDBDB2"/>
<path fill-rule="evenodd" clip-rule="evenodd" d="M18.5293 27.9949L18.2161 30.5609L18.6076 30.2499H22.6796L23.1495 30.5609L22.8362 27.9949L22.2098 27.6061L19.0775 27.6838L18.5293 27.9949Z" fill="#393939"/>
<path fill-rule="evenodd" clip-rule="evenodd" d="M16.415 10.6547L18.2944 15.0092L19.1558 27.6839H22.2098L23.1495 15.0092L24.8723 10.6547H16.415Z" fill="#F89C35"/>
<path fill-rule="evenodd" clip-rule="evenodd" d="M8.19263 20.219L6 26.5175L11.4816 26.2064H15.0054V23.4849L14.8488 17.8862L14.0657 18.5083L8.19263 20.219Z" fill="#F89D35"/>
<path fill-rule="evenodd" clip-rule="evenodd" d="M12.343 20.9188L18.7643 21.0743L18.0595 24.3402L15.0055 23.5626L12.343 20.9188Z" fill="#D87C30"/>
<path fill-rule="evenodd" clip-rule="evenodd" d="M12.343 20.9966L15.0055 23.4849V25.9732L12.343 20.9966Z" fill="#EA8D3A"/>
<path fill-rule="evenodd" clip-rule="evenodd" d="M15.0054 23.5626L18.1377 24.3402L19.1557 27.6839L18.4509 28.0726L15.0054 26.0509V23.5626Z" fill="#F89D35"/>
<path fill-rule="evenodd" clip-rule="evenodd" d="M15.0054 26.0509L14.3789 30.872L18.5292 27.9949L15.0054 26.0509Z" fill="#EB8F35"/>
<path fill-rule="evenodd" clip-rule="evenodd" d="M18.7643 21.0743L19.1558 27.6838L17.9812 24.3013L18.7643 21.0743Z" fill="#EA8E3A"/>
<path fill-rule="evenodd" clip-rule="evenodd" d="M11.4033 26.1287L15.0055 26.0509L14.379 30.872L11.4033 26.1287Z" fill="#D87C30"/>
<path fill-rule="evenodd" clip-rule="evenodd" d="M7.72278 32.9714L14.379 30.872L11.4033 26.1287L6 26.5175L7.72278 32.9714Z" fill="#EB8F35"/>
<path fill-rule="evenodd" clip-rule="evenodd" d="M18.2944 15.0092L14.9272 17.8085L12.343 20.9188L18.7643 21.1521L18.2944 15.0092Z" fill="#E8821E"/>
<path fill-rule="evenodd" clip-rule="evenodd" d="M14.3789 30.872L18.5292 27.9949L18.216 30.4832V31.8828L15.3969 31.3385L14.3789 30.872Z" fill="#DFCEC3"/>
<path fill-rule="evenodd" clip-rule="evenodd" d="M26.9082 30.872L22.8362 27.9949L23.1494 30.4832V31.8828L25.9685 31.3385L26.9082 30.872Z" fill="#DFCEC3"/>
<path fill-rule="evenodd" clip-rule="evenodd" d="M17.0414 22.474L17.9028 24.2625L14.8488 23.4849L17.0414 22.474Z" fill="#393939"/>
<path fill-rule="evenodd" clip-rule="evenodd" d="M7.64453 7L18.2944 15.0092L16.4934 10.6547L7.64453 7Z" fill="#E88F35"/>
<path fill-rule="evenodd" clip-rule="evenodd" d="M7.64441 7L6.23486 11.2767L7.01794 15.9423L6.46979 16.2533L7.25287 16.9531L6.6264 17.4974L7.48779 18.275L6.93964 18.7416L8.19257 20.2968L14.0657 18.5083C16.937 16.2274 18.3465 15.061 18.2943 15.0092C18.2421 14.9573 14.6921 12.2876 7.64441 7V7Z" fill="#8E5A30"/>
<path fill-rule="evenodd" clip-rule="evenodd" d="M33.0947 20.219L35.2874 26.5175L29.8058 26.2064H26.2819V23.4849L26.4385 17.8862L27.2216 18.5083L33.0947 20.219Z" fill="#F89D35"/>
<path fill-rule="evenodd" clip-rule="evenodd" d="M28.9443 20.9188L22.5231 21.0743L23.2278 24.3402L26.2819 23.5626L28.9443 20.9188Z" fill="#D87C30"/>
<path fill-rule="evenodd" clip-rule="evenodd" d="M28.9443 20.9966L26.2818 23.4849V25.9732L28.9443 20.9966Z" fill="#EA8D3A"/>
<path fill-rule="evenodd" clip-rule="evenodd" d="M26.2817 23.5626L23.1494 24.3402L22.1314 27.6839L22.8362 28.0726L26.2817 26.0509V23.5626Z" fill="#F89D35"/>
<path fill-rule="evenodd" clip-rule="evenodd" d="M26.2817 26.0509L26.9082 30.872L22.8362 28.0726L26.2817 26.0509Z" fill="#EB8F35"/>
<path fill-rule="evenodd" clip-rule="evenodd" d="M22.5231 21.0743L22.1315 27.6838L23.3062 24.3013L22.5231 21.0743Z" fill="#EA8E3A"/>
<path fill-rule="evenodd" clip-rule="evenodd" d="M29.884 26.1287L26.2819 26.0509L26.9083 30.872L29.884 26.1287Z" fill="#D87C30"/>
<path fill-rule="evenodd" clip-rule="evenodd" d="M33.5646 32.9714L26.9084 30.872L29.8841 26.1287L35.2874 26.5175L33.5646 32.9714Z" fill="#EB8F35"/>
<path fill-rule="evenodd" clip-rule="evenodd" d="M22.9929 15.0092L26.3602 17.8085L28.9443 20.9188L22.5231 21.1521L22.9929 15.0092Z" fill="#E8821E"/>
<path fill-rule="evenodd" clip-rule="evenodd" d="M24.2459 22.474L23.3845 24.2625L26.4385 23.4849L24.2459 22.474Z" fill="#393939"/>
<path fill-rule="evenodd" clip-rule="evenodd" d="M33.6428 7L22.9929 15.0092L24.794 10.6547L33.6428 7Z" fill="#E88F35"/>
<path fill-rule="evenodd" clip-rule="evenodd" d="M33.6427 7L35.0522 11.2767L34.2692 15.9423L34.8173 16.2533L34.0342 16.9531L34.6607 17.4974L33.7993 18.275L34.3475 18.7416L33.0945 20.2968L27.2214 18.5083C24.3501 16.2274 22.9406 15.061 22.9928 15.0092C23.045 14.9573 26.595 12.2876 33.6427 7V7Z" fill="#8E5A30"/>
</svg>
