<svg width="20" height="20" viewBox="0 0 20 20" fill="none" xmlns="http://www.w3.org/2000/svg">
  <g clip-path="url(#clip0_1837_1219)">
    <path d="M16.5625 7.1875C16.5625 12.1875 10 17.1875 10 17.1875C10 17.1875 3.4375 12.1875 3.4375 7.1875C3.4375 5.44702 4.1289 3.77782 5.35961 2.54711C6.59032 1.3164 8.25952 0.625 10 0.625C11.7405 0.625 13.4097 1.3164 14.6404 2.54711C15.8711 3.77782 16.5625 5.44702 16.5625 7.1875Z" fill="#7649FE"/>
    <path d="M11.5625 19.375H8.4375L8.125 16.875H11.875L11.5625 19.375Z" fill="#1F1645"/>
    <path d="M17.2923 10.8333H16.7714C16.7714 10.2808 16.5519 9.75089 16.1612 9.36019C15.7705 8.96949 15.2406 8.75 14.6881 8.75C14.1356 8.75 13.6057 8.96949 13.215 9.36019C12.8243 9.75089 12.6048 10.2808 12.6048 10.8333H12.0839C11.8101 10.833 11.539 10.8866 11.2859 10.9912C11.0328 11.0957 10.8029 11.2491 10.6091 11.4426C10.4154 11.6361 10.2617 11.8659 10.1569 12.1188C10.052 12.3717 9.99805 12.6429 9.99805 12.9167C9.99805 13.1905 10.052 13.4616 10.1569 13.7145C10.2617 13.9674 10.4154 14.1972 10.6091 14.3907C10.8029 14.5842 11.0328 14.7376 11.2859 14.8421C11.539 14.9467 11.8101 15.0003 12.0839 15H17.2923C17.5661 15.0003 17.8373 14.9467 18.0903 14.8421C18.3434 14.7376 18.5733 14.5842 18.7671 14.3907C18.9608 14.1972 19.1145 13.9674 19.2193 13.7145C19.3242 13.4616 19.3782 13.1905 19.3782 12.9167C19.3782 12.6429 19.3242 12.3717 19.2193 12.1188C19.1145 11.8659 18.9608 11.6361 18.7671 11.4426C18.5733 11.2491 18.3434 11.0957 18.0903 10.9912C17.8373 10.8866 17.5661 10.833 17.2923 10.8333Z" fill="#1F1645"/>
    <path d="M5.72935 9.58334H5.36477C5.36477 9.19656 5.21112 8.82563 4.93763 8.55214C4.66414 8.27865 4.29321 8.125 3.90643 8.125C3.51966 8.125 3.14872 8.27865 2.87523 8.55214C2.60174 8.82563 2.4481 9.19656 2.4481 9.58334H2.08352C1.89183 9.58306 1.70196 9.62057 1.52478 9.69373C1.3476 9.76689 1.18658 9.87427 1.05094 10.0097C0.915293 10.1452 0.807682 10.306 0.73426 10.4831C0.660839 10.6602 0.623047 10.85 0.623047 11.0417C0.623047 11.2334 0.660839 11.4232 0.73426 11.6002C0.807682 11.7773 0.915293 11.9382 1.05094 12.0736C1.18658 12.2091 1.3476 12.3164 1.52478 12.3896C1.70196 12.4628 1.89183 12.5003 2.08352 12.5H5.72935C5.92104 12.5003 6.1109 12.4628 6.28808 12.3896C6.46526 12.3164 6.62628 12.2091 6.76193 12.0736C6.89757 11.9382 7.00518 11.7773 7.0786 11.6002C7.15202 11.4232 7.18982 11.2334 7.18982 11.0417C7.18982 10.85 7.15202 10.6602 7.0786 10.4831C7.00518 10.306 6.89757 10.1452 6.76193 10.0097C6.62628 9.87427 6.46526 9.76689 6.28808 9.69373C6.1109 9.62057 5.92104 9.58306 5.72935 9.58334Z" fill="#1F1645"/>
    <path d="M13.75 7.18719C14.0952 7.18719 14.375 6.90737 14.375 6.56219C14.375 6.21701 14.0952 5.93719 13.75 5.93719C13.4048 5.93719 13.125 6.21701 13.125 6.56219C13.125 6.90737 13.4048 7.18719 13.75 7.18719Z" fill="#1F1645"/>
    <path opacity="0.1" d="M2.08398 9.58438C1.71703 9.58407 1.36348 9.72231 1.09406 9.97146C0.824637 10.2206 0.659208 10.5623 0.630859 10.9281C0.659494 10.7288 0.75895 10.5465 0.911025 10.4145C1.0631 10.2825 1.25762 10.2097 1.45898 10.2094H1.82148C1.90357 10.2094 1.98485 10.1933 2.06069 10.1619C2.13653 10.1305 2.20543 10.0844 2.26347 10.0264C2.32152 9.96833 2.36755 9.89942 2.39895 9.82358C2.43035 9.74775 2.44651 9.66646 2.44648 9.58438H2.08398ZM5.27148 8.96563C5.14647 8.56986 4.90642 8.22029 4.58194 7.96149C4.25747 7.70269 3.86327 7.54638 3.44961 7.51251C3.46102 7.73659 3.48502 7.95986 3.52148 8.18126C3.22878 8.26031 2.96823 8.42916 2.77651 8.66405C2.58479 8.89893 2.47155 9.18802 2.45273 9.49063C2.47657 9.27886 2.58058 9.08424 2.74341 8.94676C2.90625 8.80927 3.11554 8.73935 3.32832 8.75134C3.54109 8.76334 3.7412 8.85635 3.88754 9.01127C4.03389 9.16619 4.11536 9.37127 4.11523 9.58438C4.11521 9.66646 4.13136 9.74775 4.16277 9.82358C4.19417 9.89942 4.2402 9.96833 4.29824 10.0264C4.35629 10.0844 4.42519 10.1305 4.50103 10.1619C4.57687 10.1933 4.65815 10.2094 4.74023 10.2094H5.10273C5.2121 10.2094 5.3204 10.2309 5.42144 10.2728C5.52248 10.3146 5.61429 10.376 5.69162 10.4533C5.76896 10.5306 5.8303 10.6224 5.87215 10.7235C5.91401 10.8245 5.93555 10.9328 5.93555 11.0422C5.93555 11.1516 5.91401 11.2599 5.87215 11.3609C5.8303 11.4619 5.76896 11.5538 5.69162 11.6311C5.61429 11.7084 5.52248 11.7698 5.42144 11.8116C5.3204 11.8535 5.2121 11.875 5.10273 11.875H1.45898C1.25731 11.874 1.06272 11.8006 0.910693 11.6681C0.75867 11.5355 0.659353 11.3528 0.630859 11.1531C0.658537 11.5195 0.823663 11.8619 1.09314 12.1117C1.36263 12.3615 1.71655 12.5002 2.08398 12.5H5.48086C5.59961 12.6656 5.71836 12.8281 5.84023 12.9875C6.28282 12.8206 6.65535 12.508 6.89645 12.101C7.13755 11.6941 7.23284 11.2171 7.16661 10.7488C7.10038 10.2804 6.87658 9.84863 6.5321 9.5245C6.18761 9.20037 5.74299 9.00325 5.27148 8.96563ZM19.3652 12.7031C19.3117 12.1902 19.07 11.7152 18.6868 11.3701C18.3035 11.025 17.806 10.8341 17.2902 10.8344H16.7715C16.7722 10.2893 16.5577 9.76592 16.1746 9.37813C16.4835 8.50931 16.6056 7.5851 16.533 6.66587C16.4605 5.74663 16.1949 4.85304 15.7535 4.04343C15.3122 3.23382 14.705 2.52641 13.9717 1.96738C13.2384 1.40834 12.3954 1.01026 11.4978 0.79913C10.6002 0.587995 9.6682 0.568555 8.76258 0.742077C7.85696 0.9156 6.99813 1.27818 6.24215 1.80615C5.48617 2.33412 4.85005 3.0156 4.37532 3.8061C3.9006 4.5966 3.59794 5.47834 3.48711 6.39375C3.6011 5.56652 3.88754 4.77245 4.32789 4.06294C4.76823 3.35344 5.35267 2.74431 6.04336 2.275C5.16836 3.86563 4.99961 5.88125 4.99961 7.1875C4.99961 7.35327 5.06546 7.51224 5.18267 7.62945C5.29988 7.74666 5.45885 7.81251 5.62461 7.81251C5.79037 7.81251 5.94934 7.74666 6.06655 7.62945C6.18376 7.51224 6.24961 7.35327 6.24961 7.1875C6.24961 5.87813 6.45273 2.70938 8.34023 1.56875C8.56787 1.41021 8.82965 1.30751 9.10436 1.26896C9.37907 1.23041 9.65901 1.2571 9.92148 1.34688C10.9934 1.75938 11.7746 3.25938 12.1184 4.41875C12.1659 4.57748 12.2745 4.71087 12.4203 4.78966C12.5661 4.86844 12.7372 4.88621 12.896 4.83904C13.0549 4.79188 13.1885 4.68365 13.2677 4.53808C13.3469 4.39251 13.3651 4.22148 13.3184 4.0625C13.1164 3.38294 12.8286 2.73186 12.4621 2.125C13.3315 2.6535 14.0503 3.39678 14.5495 4.28337C15.0486 5.16997 15.3112 6.17007 15.3121 7.1875C15.3094 7.58388 15.2644 7.97883 15.1777 8.36563C14.8138 8.201 14.418 8.11895 14.0186 8.12536C13.6192 8.13178 13.2262 8.22651 12.8677 8.40274C12.5093 8.57898 12.1943 8.83237 11.9453 9.14472C11.6963 9.45707 11.5196 9.82065 11.4277 10.2094C10.8005 10.2159 10.195 10.4401 9.71479 10.8436C9.23457 11.2472 8.90946 11.805 8.79504 12.4218C8.68062 13.0385 8.78401 13.6759 9.08752 14.2248C9.39104 14.7737 9.87582 15.2002 10.459 15.4313C10.0902 15.7719 9.77461 16.05 9.53711 16.25H9.21523C8.39382 15.5562 7.61726 14.8109 6.89023 14.0188C6.79158 13.9098 6.65772 13.839 6.51211 13.8188C7.45718 14.9233 8.49423 15.9457 9.61211 16.875H8.12461L8.43711 19.375H11.5621L11.8746 16.8844V16.875H10.3871C11.0954 16.2858 11.7724 15.66 12.4152 15H17.2902C17.8065 15.0002 18.3044 14.8089 18.6877 14.4631C19.071 14.1173 19.3124 13.6416 19.3652 13.1281C19.3777 12.9867 19.3777 12.8445 19.3652 12.7031ZM10.5402 17.5L10.384 18.75H8.36523L8.20898 17.5H10.5402ZM16.6652 14.375H11.459C11.2675 14.375 11.078 14.3373 10.9011 14.264C10.7242 14.1908 10.5635 14.0834 10.4282 13.948C10.2928 13.8127 10.1854 13.6519 10.1121 13.4751C10.0389 13.2982 10.0012 13.1086 10.0012 12.9172C10.0012 12.7258 10.0389 12.5362 10.1121 12.3593C10.1854 12.1824 10.2928 12.0217 10.4282 11.8864C10.5635 11.751 10.7242 11.6436 10.9011 11.5704C11.078 11.4971 11.2675 11.4594 11.459 11.4594H11.9777C12.0598 11.4594 12.1411 11.4433 12.2169 11.4119C12.2928 11.3805 12.3617 11.3344 12.4197 11.2764C12.4778 11.2183 12.5238 11.1494 12.5552 11.0736C12.5866 10.9977 12.6028 10.9165 12.6027 10.8344C12.6027 10.4473 12.7565 10.0761 13.0302 9.80245C13.3039 9.52876 13.6751 9.37501 14.0621 9.37501C14.4492 9.37501 14.8204 9.52876 15.094 9.80245C15.3677 10.0761 15.5215 10.4473 15.5215 10.8344C15.5215 10.9165 15.5376 10.9977 15.569 11.0736C15.6004 11.1494 15.6465 11.2183 15.7045 11.2764C15.7625 11.3344 15.8314 11.3805 15.9073 11.4119C15.9831 11.4433 16.0644 11.4594 16.1465 11.4594H16.6652C16.8567 11.4594 17.0462 11.4971 17.2231 11.5704C17.4 11.6436 17.5607 11.751 17.6961 11.8864C17.8314 12.0217 17.9388 12.1824 18.0121 12.3593C18.0853 12.5362 18.123 12.7258 18.123 12.9172C18.123 13.1086 18.0853 13.2982 18.0121 13.4751C17.9388 13.6519 17.8314 13.8127 17.6961 13.948C17.5607 14.0834 17.4 14.1908 17.2231 14.264C17.0462 14.3373 16.8567 14.375 16.6652 14.375Z" fill="#F4F4F4"/>
    <path d="M17.323 10.208C17.2391 9.85677 17.0854 9.52597 16.8712 9.23524C17.0736 8.57109 17.1801 7.88139 17.1872 7.1871C17.1873 6.2178 16.9912 5.25851 16.6108 4.36699C16.2304 3.47546 15.6735 2.67012 14.9737 1.99945C14.2739 1.32878 13.4456 0.806645 12.5387 0.464474C11.6318 0.122302 10.665 -0.0328299 9.69662 0.00841526C8.7282 0.0496604 7.77814 0.28643 6.90362 0.704472C6.0291 1.12251 5.24821 1.71318 4.60796 2.44093C3.9677 3.16867 3.48132 4.01844 3.17809 4.93909C2.87485 5.85973 2.76104 6.83221 2.84349 7.798C2.4015 8.05957 2.0714 8.47484 1.91625 8.96444C1.37993 9.00761 0.881113 9.2566 0.524237 9.65927C0.167361 10.0619 -0.0198956 10.5871 0.00167679 11.1247C0.0232491 11.6623 0.251977 12.1707 0.639969 12.5435C1.02796 12.9163 1.54513 13.1245 2.08318 13.1246H5.72881C6.26686 13.1245 6.78403 12.9163 7.17202 12.5435C7.56001 12.1707 7.78874 11.6623 7.81032 11.1247C7.83189 10.5871 7.64463 10.0619 7.28776 9.65927C6.93088 9.2566 6.43206 9.00761 5.89574 8.96444C5.77114 8.56904 5.53144 8.21978 5.20729 7.96133C4.88314 7.70289 4.48927 7.54699 4.07605 7.51358C4.01827 6.49052 4.22689 5.46998 4.68152 4.55167C5.13615 3.63337 5.82124 2.84871 6.66984 2.27438C5.79282 3.86419 5.62474 5.8815 5.62474 7.1871C5.62474 7.35286 5.69059 7.51183 5.8078 7.62904C5.92501 7.74625 6.08398 7.8121 6.24974 7.8121C6.4155 7.8121 6.57448 7.74625 6.69169 7.62904C6.8089 7.51183 6.87474 7.35286 6.87474 7.1871C6.87474 5.87803 7.0786 2.71002 8.96642 1.56957C9.19389 1.4105 9.45573 1.3074 9.73059 1.26869C10.0055 1.22998 10.2856 1.25674 10.5481 1.3468C11.6172 1.76016 12.3993 3.25964 12.7442 4.41809C12.7915 4.57697 12.9 4.71055 13.0458 4.78944C13.1916 4.86834 13.3627 4.88608 13.5216 4.83877C13.6805 4.79146 13.8141 4.68298 13.893 4.53718C13.9719 4.39138 13.9896 4.22022 13.9423 4.06134C13.7401 3.3827 13.453 2.73231 13.0879 2.12557C13.9568 2.65426 14.6753 3.39747 15.1743 4.28383C15.6732 5.17019 15.936 6.16994 15.9372 7.1871C15.9337 7.58356 15.889 7.97859 15.804 8.36584C15.44 8.20099 15.044 8.11871 14.6445 8.12491C14.245 8.13112 13.8518 8.22565 13.4931 8.40173C13.1345 8.57781 12.8192 8.83108 12.5699 9.14337C12.3207 9.45566 12.1436 9.81924 12.0514 10.208C11.4244 10.2151 10.8192 10.4396 10.3393 10.8432C9.85939 11.2469 9.53451 11.8046 9.42014 12.4212C9.30578 13.0378 9.40903 13.6749 9.71226 14.2238C10.0155 14.7727 10.4999 15.1994 11.0827 15.4308C10.7168 15.7726 10.3983 16.0506 10.163 16.2496H9.84096C9.01911 15.5557 8.24241 14.8101 7.51561 14.0172C7.46029 13.9566 7.39356 13.9075 7.31924 13.8726C7.24493 13.8378 7.16447 13.8179 7.08247 13.8141C7.00048 13.8104 6.91854 13.8228 6.84135 13.8507C6.76416 13.8786 6.69322 13.9215 6.63259 13.9768C6.51013 14.0885 6.43707 14.2443 6.42949 14.4099C6.42573 14.4919 6.43817 14.5739 6.46607 14.6511C6.49398 14.7282 6.53683 14.7992 6.59215 14.8598C7.03153 15.3411 7.49791 15.8104 7.98322 16.2668C7.83311 16.3021 7.70131 16.3916 7.61301 16.518C7.52472 16.6445 7.48613 16.799 7.50463 16.9521L7.81713 19.4521C7.83599 19.6033 7.90943 19.7423 8.02362 19.8431C8.13782 19.944 8.28491 19.9996 8.43724 19.9996H11.5622C11.7146 19.9996 11.8617 19.944 11.9759 19.8431C12.0901 19.7423 12.1635 19.6033 12.1824 19.4521L12.4949 16.9521C12.5134 16.7993 12.475 16.6451 12.3871 16.5189C12.2992 16.3926 12.1678 16.3031 12.0182 16.2674C12.2277 16.07 12.4486 15.8547 12.6767 15.6246H17.2913C18.0068 15.6245 18.6933 15.3414 19.2007 14.8369C19.7081 14.3324 19.9953 13.6476 19.9995 12.9321C20.0037 12.2166 19.7246 11.5284 19.2231 11.018C18.7216 10.5076 18.0385 10.2164 17.323 10.208L17.323 10.208ZM4.73943 9.58288C4.73944 9.74863 4.80529 9.9076 4.9225 10.0248C5.03971 10.142 5.19867 10.2079 5.36443 10.2079H5.72881C5.94983 10.2079 6.1618 10.2957 6.31808 10.452C6.47437 10.6082 6.56217 10.8202 6.56217 11.0412C6.56217 11.2623 6.47437 11.4742 6.31808 11.6305C6.1618 11.7868 5.94983 11.8746 5.72881 11.8746H2.08318C1.86216 11.8746 1.65019 11.7868 1.49391 11.6305C1.33762 11.4742 1.24982 11.2623 1.24982 11.0412C1.24982 10.8202 1.33762 10.6082 1.49391 10.452C1.65019 10.2957 1.86216 10.2079 2.08318 10.2079H2.44756C2.61331 10.2079 2.77228 10.142 2.88949 10.0248C3.0067 9.9076 3.07255 9.74863 3.07256 9.58288C3.07256 9.36183 3.16037 9.14985 3.31666 8.99355C3.47296 8.83725 3.68495 8.74944 3.90599 8.74944C4.12704 8.74944 4.33902 8.83725 4.49532 8.99355C4.65162 9.14985 4.73943 9.36183 4.73943 9.58288ZM11.0105 18.7496H8.989L8.83275 17.4996H11.1667L11.0105 18.7496ZM17.2913 14.3746H12.0832C11.6964 14.3746 11.3255 14.2209 11.052 13.9474C10.7785 13.674 10.6248 13.303 10.6248 12.9162C10.6248 12.5295 10.7785 12.1585 11.052 11.885C11.3255 11.6115 11.6964 11.4579 12.0832 11.4579H12.6038C12.7696 11.4579 12.9285 11.392 13.0457 11.2748C13.1629 11.1576 13.2288 10.9986 13.2288 10.8329C13.2288 10.4461 13.3825 10.0751 13.656 9.8016C13.9295 9.52809 14.3004 9.37444 14.6872 9.37444C15.074 9.37444 15.445 9.52809 15.7185 9.8016C15.992 10.0751 16.1457 10.4461 16.1457 10.8329C16.1457 10.9986 16.2115 11.1576 16.3287 11.2748C16.446 11.392 16.6049 11.4579 16.7707 11.4579H17.2913C17.6781 11.4579 18.049 11.6115 18.3225 11.885C18.596 12.1585 18.7497 12.5295 18.7497 12.9162C18.7497 13.303 18.596 13.674 18.3225 13.9474C18.049 14.2209 17.6781 14.3746 17.2913 14.3746H17.2913Z" fill="#F4F4F4"/>
  </g>
  <defs>
    <clipPath id="clip0_1837_1219">
      <rect width="20" height="20" fill="white"/>
    </clipPath>
  </defs>
</svg>
