<svg width="21" height="18" viewBox="0 0 21 18" fill="none" xmlns="http://www.w3.org/2000/svg">
<path d="M15.796 10.4998H15.0612C14.9539 10.4998 14.8658 10.5349 14.7973 10.6054C14.7282 10.6755 14.6939 10.7654 14.6939 10.8748V14.6248C14.6939 15.1405 14.5141 15.5818 14.1545 15.949C13.7948 16.3162 13.3623 16.4996 12.8572 16.4996H3.30606C2.80096 16.4996 2.36853 16.3162 2.00879 15.949C1.64913 15.5818 1.46932 15.1405 1.46932 14.6248V4.87472C1.46932 4.3591 1.64909 3.91782 2.00879 3.55062C2.36853 3.18338 2.80096 2.99987 3.30606 2.99987H11.3876C11.4949 2.99987 11.583 2.96461 11.6518 2.89438C11.7206 2.82407 11.7549 2.7343 11.7549 2.62483V1.87471C11.7549 1.76545 11.7206 1.67552 11.6518 1.60533C11.583 1.53502 11.4949 1.49992 11.3876 1.49992H3.30606C2.39543 1.49992 1.61668 1.83002 0.969895 2.49016C0.323352 3.15026 0 3.94524 0 4.87485V14.625C0 15.5546 0.323352 16.3497 0.969936 17.0095C1.61672 17.6697 2.39547 18 3.3061 18H12.8572C13.7678 18 14.5466 17.6697 15.1933 17.0095C15.8401 16.3497 16.1634 15.5546 16.1634 14.625V10.8751C16.1634 10.7656 16.129 10.6757 16.0599 10.6054C15.9911 10.5349 15.903 10.4998 15.796 10.4998Z" fill="#222222"/>
<path d="M20.3531 0.222633C20.2077 0.07417 20.0352 0 19.8364 0H13.9589C13.76 0 13.5877 0.07417 13.4424 0.222633C13.2969 0.371014 13.2241 0.546814 13.2241 0.749951C13.2241 0.953087 13.2969 1.12893 13.4424 1.27739L15.4627 3.33987L7.97811 10.9806C7.90148 11.0587 7.86328 11.1486 7.86328 11.25C7.86328 11.3518 7.9016 11.4416 7.97811 11.5197L9.2868 12.8555C9.36332 12.9336 9.45137 12.9726 9.55085 12.9726C9.65032 12.9726 9.73842 12.9337 9.81489 12.8555L17.2995 5.21489L19.32 7.27737C19.4653 7.42583 19.6375 7.50008 19.8365 7.50008C20.0355 7.50008 20.2078 7.42583 20.3532 7.27737C20.4987 7.12894 20.5713 6.95319 20.5713 6.75005V0.749951C20.5713 0.546691 20.4984 0.371014 20.3531 0.222633Z" fill="#222222"/>
</svg>
