<svg width="20" height="20" viewBox="0 0 20 20" fill="none" xmlns="http://www.w3.org/2000/svg">
  <path d="M19.375 19.375H14.6875H10V15.9375L12.1875 13.125H17.1875L19.375 15.9375V19.375Z" fill="#0A42EA"/>
  <path d="M14.6875 10.625H10H5.3125V7.1875L7.5 4.375H12.5L14.6875 7.1875V10.625Z" fill="white" fill-opacity="0.2"/>
  <path d="M10 19.375H5.3125H0.625V15.9375L2.8125 13.125H7.8125L10 15.9375V19.375Z" fill="#0A42EA"/>
  <path opacity="0.1" d="M17.1875 13.125H12.1875L10 15.9375L7.8125 13.125H2.8125L0.625 15.9375V16.1469L2.49375 13.7469H6.88125L8.75 16.1469V18.7469H0.625V19.375H19.375V15.9344L17.1875 13.125ZM18.125 18.7469H10V16.1469L11.8687 13.7469H16.2563L18.125 16.1469V18.7469Z" fill="#F4F4F4"/>
  <path opacity="0.1" d="M12.5 4.375H7.5L5.3125 7.1875V7.39687L7.18125 4.99687H11.5688L13.4375 7.39687V9.99687H5.3125V10.625H14.6875V7.18437L12.5 4.375Z" fill="#F4F4F4"/>
  <path opacity="0.1" d="M9.37425 7.18311C9.20998 7.18537 9.05321 7.25222 8.93785 7.36918C8.82248 7.48615 8.75781 7.64383 8.75781 7.80812C8.75781 7.9724 8.82249 8.13008 8.93786 8.24704C9.05322 8.364 9.21 8.43084 9.37427 8.43311C9.53853 8.43084 9.69531 8.36399 9.81067 8.24703C9.92603 8.13006 9.9907 7.97238 9.9907 7.8081C9.9907 7.64381 9.92602 7.48613 9.81065 7.36917C9.69529 7.25221 9.53852 7.18537 9.37425 7.18311Z" fill="#F4F4F4"/>
  <path d="M10 2.18289C10.1658 2.18288 10.3247 2.11703 10.4419 1.99982C10.5591 1.88261 10.625 1.72365 10.625 1.55789V0.620389C10.6226 0.456197 10.5557 0.299538 10.4388 0.184271C10.3218 0.0690051 10.1642 0.00439084 9.99999 0.00439453C9.83578 0.00439823 9.67817 0.0690196 9.56122 0.184291C9.44427 0.299563 9.37738 0.456225 9.375 0.620417V1.55789C9.37501 1.72365 9.44086 1.88261 9.55807 1.99982C9.67528 2.11703 9.83424 2.18288 10 2.18289Z" fill="#F4F4F4"/>
  <path d="M12.363 2.49549C12.4526 2.49564 12.5411 2.47652 12.6225 2.43942C12.704 2.40232 12.7765 2.34812 12.8352 2.28049L13.4501 1.57294C13.5581 1.44771 13.6121 1.28477 13.6003 1.1198C13.5884 0.954838 13.5117 0.801295 13.3868 0.692808C13.262 0.584321 13.0992 0.529735 12.9342 0.541005C12.7692 0.552275 12.6154 0.628483 12.5065 0.752937L11.8915 1.46048C11.8147 1.55153 11.7653 1.66251 11.749 1.78053C11.7328 1.89856 11.7504 2.01877 11.7998 2.12718C11.8492 2.2356 11.9283 2.32777 12.028 2.39297C12.1277 2.45816 12.2439 2.49372 12.363 2.49549Z" fill="#F4F4F4"/>
  <path d="M7.16517 2.2805C7.27468 2.40288 7.42795 2.47726 7.59185 2.48755C7.75576 2.49784 7.91713 2.44322 8.04109 2.33549C8.16504 2.22777 8.24163 2.07559 8.25429 1.91185C8.26696 1.74812 8.21468 1.58597 8.10876 1.46047L7.49385 0.752937C7.38492 0.628483 7.2311 0.552275 7.06609 0.541005C6.90109 0.529735 6.73834 0.584321 6.6135 0.692808C6.48866 0.801295 6.4119 0.954838 6.40005 1.1198C6.38819 1.28477 6.4422 1.44771 6.55024 1.57294L7.16517 2.2805Z" fill="#F4F4F4"/>
  <path d="M17.681 12.7368C17.6225 12.6617 17.5476 12.601 17.4621 12.5592C17.3766 12.5174 17.2827 12.4956 17.1875 12.4956H12.1875C12.0923 12.4956 11.9984 12.5174 11.9129 12.5592C11.8274 12.601 11.7525 12.6617 11.694 12.7369L10 14.9149L8.30597 12.7368C8.24749 12.6617 8.17265 12.601 8.08713 12.5592C8.00162 12.5174 7.90769 12.4956 7.8125 12.4956H2.8125C2.71731 12.4956 2.62338 12.5174 2.53787 12.5592C2.45235 12.601 2.37751 12.6617 2.31903 12.7369L0.131531 15.5494C0.0463144 15.6591 4.06424e-05 15.7941 0 15.9331V19.3706C8.28727e-06 19.5364 0.065859 19.6953 0.183067 19.8125C0.300276 19.9297 0.459242 19.9956 0.625 19.9956H19.375C19.5408 19.9956 19.6997 19.9297 19.8169 19.8125C19.9341 19.6953 20 19.5364 20 19.3706V15.9331C20 15.7941 19.9537 15.6591 19.8685 15.5494L17.681 12.7368ZM1.25 16.1475L3.11829 13.7456H7.50673L9.375 16.1475V18.7456H1.25V16.1475ZM18.75 18.7456H10.625V16.1475L12.4933 13.7456H16.8817L18.75 16.1475V18.7456Z" fill="#F4F4F4"/>
  <path d="M5.3125 11.2456H14.6875C14.8533 11.2456 15.0122 11.1798 15.1294 11.0626C15.2466 10.9453 15.3125 10.7864 15.3125 10.6206V7.18311C15.3125 7.04414 15.2662 6.90914 15.181 6.79936L12.9935 3.98686C12.935 3.91175 12.8601 3.85097 12.7746 3.80917C12.6891 3.76736 12.5952 3.74562 12.5 3.74561H7.5C7.40481 3.74562 7.31088 3.76736 7.22537 3.80917C7.13985 3.85097 7.06501 3.91175 7.00653 3.98686L4.81903 6.79936C4.73381 6.90914 4.68754 7.04414 4.6875 7.18311V10.6206C4.68751 10.7864 4.75336 10.9453 4.87057 11.0626C4.98778 11.1798 5.14674 11.2456 5.3125 11.2456ZM5.9375 7.39749L7.80579 4.99561H12.1942L14.0625 7.3975V9.99563H5.9375V7.39749Z" fill="#F4F4F4"/>
  <path d="M9.99924 7.18311C9.83497 7.18537 9.6782 7.25222 9.56284 7.36919C9.44748 7.48615 9.38281 7.64383 9.38281 7.80812C9.38282 7.9724 9.4475 8.13008 9.56286 8.24704C9.67822 8.364 9.835 8.43085 9.99926 8.43311C10.1635 8.43084 10.3203 8.36399 10.4357 8.24702C10.551 8.13006 10.6157 7.97238 10.6157 7.80809C10.6157 7.64381 10.551 7.48613 10.4356 7.36917C10.3203 7.25221 10.1635 7.18537 9.99924 7.18311Z" fill="#F4F4F4"/>
</svg>
