<svg width="25" height="24" viewBox="0 0 25 24" fill="none" xmlns="http://www.w3.org/2000/svg">
<path d="M13.2705 6.46875V11.6117L16.6834 15.0246C17.0496 15.3907 17.0496 15.9843 16.6834 16.3504C16.3173 16.7166 15.7237 16.7165 15.3576 16.3504L11.6701 12.6629C11.4943 12.4871 11.3955 12.2486 11.3955 12V6.46875C11.3955 5.95097 11.8152 5.53125 12.333 5.53125C12.8508 5.53125 13.2705 5.95097 13.2705 6.46875ZM16.0205 0H8.64549C6.6819 0 4.7447 0.690094 3.19468 2.03803V0.9375C3.19468 0.419719 2.77496 0 2.25718 0C1.7394 0 1.31968 0.419719 1.31968 0.9375V4.62502C1.31968 5.1428 1.74301 5.56252 2.25718 5.56252H5.9447C6.46248 5.56252 6.8822 5.1428 6.8822 4.62502C6.8822 4.10723 6.46248 3.68752 5.9447 3.68752H4.17127C5.35787 2.54353 6.95963 1.875 8.64549 1.875H16.0205C19.5702 1.875 22.458 4.76283 22.458 8.31248V15.6875C22.458 19.2372 19.5702 22.125 16.0205 22.125H8.64549C5.09584 22.125 2.20801 19.2372 2.20801 15.6875V12C2.20801 11.4822 1.78829 11.0625 1.27051 11.0625C0.752727 11.0625 0.333008 11.4822 0.333008 12V15.6875C0.333008 20.271 4.06196 24 8.64549 24H16.0205C20.6041 24 24.333 20.271 24.333 15.6875V8.31248C24.333 3.72895 20.6041 0 16.0205 0V0Z" fill="#F4F4F4"/>
</svg>
