<svg xmlns="http://www.w3.org/2000/svg" viewBox="0 0 512 490.67"><defs><style>.cls-1{fill:#fff;}</style></defs><g id="Слой_2" data-name="Слой 2"><g id="Bold"><path class="cls-1" d="M454.93,187.9a57.11,57.11,0,0,0-40.87,17.41c-38.51-27.05-90.43-44.46-148-46.31L296,22.34,391.15,44c0,23.64,19,42.94,42.28,42.94,23.74,0,42.84-19.81,42.84-43.47S457.3,0,433.45,0c-16.62,0-30.95,10.18-38.1,24.09L290.24.45C285-1,279.76,2.86,278.36,8.23L245.55,158.89c-57.09,2.41-108.46,19.8-147.1,46.87A57,57,0,0,0,57,187.9c-60,0-79.63,81.69-24.7,109.61a124.5,124.5,0,0,0-2.82,27.06c0,91.75,101.87,166.1,227,166.1,125.61,0,227.47-74.35,227.47-166.1a106.67,106.67,0,0,0-3.32-27.5c53.82-28,34-109.12-25.67-109.17ZM119.49,303.32c0-24.09,19-43.48,42.83-43.48,23.3,0,42.31,19.26,42.31,43.48,0,23.66-19,42.94-42.31,42.94a42.8,42.8,0,0,1-42.83-42.94ZM350.72,405.67c-39.28,39.86-150.1,39.86-189.4,0-4.33-3.84-4.33-10.62,0-15a10.25,10.25,0,0,1,14.25,0c30,31.21,129.5,31.74,160.79,0a10.25,10.25,0,0,1,14.25,0c4.42,4.39,4.42,11.18.11,15Zm-.88-59.32c-23.29,0-42.28-19.27-42.28-42.9,0-24.09,19-43.48,42.28-43.48,23.75,0,42.84,19.26,42.84,43.48A43,43,0,0,1,349.84,346.35Z"/></g></g></svg>