<svg width="12" height="12" viewBox="0 0 12 12" fill="none" xmlns="http://www.w3.org/2000/svg">
<path fill-rule="evenodd" clip-rule="evenodd" d="M0.0462208 4.20034C0.810514 1.767 3.08329 0 5.77137 0C7.20624 0 8.52278 0.503477 9.55472 1.34303C9.63004 0.865314 10.0436 0.5 10.5425 0.5C11.0948 0.5 11.5425 0.947715 11.5425 1.5V4.5C11.5425 4.99375 11.1821 5.4136 10.694 5.48845C10.206 5.56329 9.73638 5.27072 9.58842 4.79966C9.07841 3.1759 7.56089 2 5.77137 2C3.98185 2 2.46432 3.1759 1.95431 4.79966C1.78882 5.32656 1.22752 5.61954 0.70061 5.45405C0.173704 5.28855 -0.119276 4.72725 0.0462208 4.20034ZM10.8421 6.54595C11.369 6.71145 11.662 7.27275 11.4965 7.79966C10.7322 10.233 8.45945 12 5.77137 12C4.33649 12 3.01995 11.4965 1.98801 10.657C1.9127 11.1347 1.49915 11.5 1.00027 11.5C0.447983 11.5 0.00026757 11.0523 0.00026757 10.5V7.5C0.00026757 7.00625 0.360639 6.5864 0.848687 6.51155C1.33674 6.43671 1.80636 6.72928 1.95431 7.20034C2.46432 8.8241 3.98185 10 5.77137 10C7.56089 10 9.07841 8.8241 9.58842 7.20034C9.75392 6.67344 10.3152 6.38046 10.8421 6.54595Z" fill="white"/>
</svg>
