<svg width="14" height="16" viewBox="0 0 14 16" fill="none" xmlns="http://www.w3.org/2000/svg">
<path d="M7.76949 15.9552C10.9975 15.5956 13.5845 13.0299 13.9527 9.82032C14.4359 5.62367 11.1553 2.05128 7.04303 2.00552V0.12291C7.04303 0.0183201 6.91154 -0.0372431 6.82279 0.0281254L2.9242 2.87492C2.85846 2.92395 2.85846 3.01873 2.9242 3.06776L6.82279 5.91456C6.91154 5.97993 7.04303 5.92109 7.04303 5.81977V3.94043C9.93245 3.98619 12.2466 6.43097 12.0494 9.35294C11.8817 11.8664 9.82069 13.9059 7.29285 14.066C4.61381 14.236 2.33579 12.3337 1.92819 9.81706C1.85258 9.34967 1.44168 9.00976 0.968331 9.00976C0.379927 9.00976 -0.0802778 9.52943 0.0117631 10.1079C0.583731 13.6934 3.91364 16.3833 7.76949 15.9552Z" fill="#3C079D"/>
</svg>
