<svg width="24" height="24" viewBox="0 0 24 24" fill="none" xmlns="http://www.w3.org/2000/svg">
<path d="M5.12869 4.17611H0.705876C0.315983 4.17611 0 3.85991 0 3.47023C0 3.08055 0.315983 2.76436 0.705876 2.76436H5.12869C5.51859 2.76436 5.83457 3.08055 5.83457 3.47023C5.83457 3.85991 5.51859 4.17611 5.12869 4.17611Z" fill="#F4F4F4"/>
<path d="M7.65612 6.70331C5.87324 6.70331 4.42285 5.25291 4.42285 3.47019C4.42285 1.6871 5.87324 0.23671 7.65612 0.23671C9.439 0.23671 10.8894 1.6871 10.8894 3.47019C10.8894 5.25297 9.439 6.70331 7.65612 6.70331ZM7.65612 1.64852C6.65171 1.64852 5.8346 2.46578 5.8346 3.47019C5.8346 4.4746 6.65171 5.2915 7.65612 5.2915C8.66053 5.2915 9.47764 4.4746 9.47764 3.47019C9.47764 2.46578 8.66053 1.64852 7.65612 1.64852Z" fill="#F4F4F4"/>
<path d="M23.294 4.17611H12.744C12.3541 4.17611 12.0381 3.85991 12.0381 3.47023C12.0381 3.08055 12.3541 2.76436 12.744 2.76436H23.2939C23.6838 2.76436 23.9998 3.08055 23.9998 3.47023C23.9998 3.85991 23.6839 4.17611 23.294 4.17611Z" fill="#F4F4F4"/>
<path d="M17.1337 15.2331C15.3507 15.2331 13.9004 13.7827 13.9004 12C13.9004 10.2173 15.3508 8.76688 17.1337 8.76688C18.9165 8.76688 20.3669 10.2173 20.3669 12C20.3669 13.7827 18.9166 15.2331 17.1337 15.2331ZM17.1337 10.1787C16.1293 10.1787 15.3121 10.9956 15.3121 12C15.3121 13.0044 16.1293 13.8213 17.1337 13.8213C18.1381 13.8213 18.9552 13.0044 18.9552 12C18.9552 10.9956 18.1381 10.1787 17.1337 10.1787Z" fill="#F4F4F4"/>
<path d="M12.0458 12.7059H0.705876C0.315983 12.7059 0 12.3897 0 12C0 11.6103 0.315983 11.2941 0.705876 11.2941H12.0458C12.4357 11.2941 12.7517 11.6103 12.7517 12C12.7517 12.3897 12.4357 12.7059 12.0458 12.7059Z" fill="#F4F4F4"/>
<path d="M23.2941 12.7059H19.661C19.2711 12.7059 18.9551 12.3897 18.9551 12C18.9551 11.6103 19.2711 11.2941 19.661 11.2941H23.2941C23.6839 11.2941 23.9999 11.6103 23.9999 12C23.9999 12.3897 23.6839 12.7059 23.2941 12.7059Z" fill="#F4F4F4"/>
<path d="M6.86608 23.7632C5.0832 23.7632 3.63281 22.3128 3.63281 20.5298C3.63281 18.747 5.0832 17.2966 6.86608 17.2966C8.64895 17.2966 10.0993 18.747 10.0993 20.5298C10.0993 22.3128 8.64895 23.7632 6.86608 23.7632ZM6.86608 18.7085C5.86167 18.7085 5.04456 19.5253 5.04456 20.5298C5.04456 21.5342 5.86167 22.3514 6.86608 22.3514C7.87048 22.3514 8.68759 21.5342 8.68759 20.5298C8.68759 19.5253 7.87048 18.7085 6.86608 18.7085Z" fill="#F4F4F4"/>
<path d="M23.2938 21.2357H11.9539C11.564 21.2357 11.248 20.9195 11.248 20.5298C11.248 20.1401 11.564 19.8239 11.9539 19.8239H23.2938C23.6837 19.8239 23.9997 20.1401 23.9997 20.5298C23.9997 20.9195 23.6837 21.2357 23.2938 21.2357Z" fill="#F4F4F4"/>
<path d="M4.33897 21.2357H0.705876C0.315983 21.2357 0 20.9195 0 20.5298C0 20.1401 0.315983 19.8239 0.705876 19.8239H4.33897C4.72887 19.8239 5.04485 20.1401 5.04485 20.5298C5.04485 20.9195 4.72887 21.2357 4.33897 21.2357Z" fill="#F4F4F4"/>
</svg>
