<svg width="20" height="20" viewBox="0 0 20 20" fill="none" xmlns="http://www.w3.org/2000/svg">
<path d="M10 2.18304C10.1658 2.18303 10.3247 2.11718 10.4419 1.99997C10.5591 1.88277 10.625 1.7238 10.625 1.55804V0.620541C10.6226 0.45635 10.5557 0.29969 10.4388 0.184424C10.3218 0.0691577 10.1642 0.00454342 9.99999 0.00454712C9.83578 0.00455081 9.67817 0.0691722 9.56122 0.184444C9.44427 0.299715 9.37738 0.456378 9.375 0.620569V1.55804C9.37501 1.7238 9.44086 1.88277 9.55807 1.99997C9.67528 2.11718 9.83424 2.18303 10 2.18304Z" fill="#F4F4F4"/>
<path d="M12.363 2.49555C12.4526 2.4957 12.5411 2.47658 12.6225 2.43948C12.704 2.40238 12.7765 2.34818 12.8352 2.28055L13.4501 1.573C13.5581 1.44777 13.6121 1.28483 13.6003 1.11987C13.5884 0.954899 13.5117 0.801356 13.3868 0.692869C13.262 0.584383 13.0992 0.529796 12.9342 0.541066C12.7692 0.552336 12.6154 0.628544 12.5065 0.752998L11.8915 1.46054C11.8147 1.55159 11.7653 1.66257 11.749 1.7806C11.7328 1.89862 11.7504 2.01883 11.7998 2.12724C11.8492 2.23566 11.9283 2.32783 12.028 2.39303C12.1277 2.45823 12.2439 2.49378 12.363 2.49555Z" fill="#F4F4F4"/>
<path d="M7.16517 2.28054C7.27468 2.40293 7.42795 2.4773 7.59185 2.48759C7.75576 2.49789 7.91713 2.44327 8.04109 2.33554C8.16504 2.22781 8.24163 2.07564 8.25429 1.9119C8.26696 1.74816 8.21468 1.58602 8.10876 1.46051L7.49385 0.752983C7.38492 0.628529 7.2311 0.552321 7.06609 0.541051C6.90109 0.529781 6.73834 0.584367 6.6135 0.692854C6.48866 0.801341 6.4119 0.954884 6.40005 1.11985C6.38819 1.28482 6.4422 1.44776 6.55024 1.57298L7.16517 2.28054Z" fill="#F4F4F4"/>
<path d="M17.681 12.7368C17.6225 12.6617 17.5476 12.6009 17.4621 12.5591C17.3766 12.5173 17.2827 12.4956 17.1875 12.4955H12.1875C12.0923 12.4956 11.9984 12.5173 11.9129 12.5591C11.8274 12.6009 11.7525 12.6617 11.694 12.7368L10 14.9148L8.30597 12.7368C8.24749 12.6617 8.17265 12.6009 8.08713 12.5591C8.00162 12.5173 7.90769 12.4956 7.8125 12.4955H2.8125C2.71731 12.4956 2.62338 12.5173 2.53787 12.5591C2.45235 12.6009 2.37751 12.6617 2.31903 12.7368L0.131531 15.5493C0.0463144 15.6591 4.06424e-05 15.7941 0 15.933V19.3705C8.28727e-06 19.5363 0.065859 19.6953 0.183067 19.8125C0.300276 19.9297 0.459242 19.9955 0.625 19.9955H19.375C19.5408 19.9955 19.6997 19.9297 19.8169 19.8125C19.9341 19.6953 20 19.5363 20 19.3705V15.933C20 15.7941 19.9537 15.6591 19.8685 15.5493L17.681 12.7368ZM1.25 16.1474L3.11829 13.7456H7.50673L9.375 16.1474V18.7456H1.25V16.1474ZM18.75 18.7456H10.625V16.1474L12.4933 13.7456H16.8817L18.75 16.1474V18.7456Z" fill="#F4F4F4"/>
<path d="M5.3125 11.2456H14.6875C14.8533 11.2456 15.0122 11.1797 15.1294 11.0625C15.2466 10.9453 15.3125 10.7863 15.3125 10.6206V7.18305C15.3125 7.04408 15.2662 6.90908 15.181 6.7993L12.9935 3.9868C12.935 3.91169 12.8601 3.85091 12.7746 3.80911C12.6891 3.7673 12.5952 3.74556 12.5 3.74554H7.5C7.40481 3.74556 7.31088 3.7673 7.22537 3.80911C7.13985 3.85091 7.06501 3.91169 7.00653 3.9868L4.81903 6.7993C4.73381 6.90908 4.68754 7.04408 4.6875 7.18305V10.6206C4.68751 10.7863 4.75336 10.9453 4.87057 11.0625C4.98778 11.1797 5.14674 11.2456 5.3125 11.2456ZM5.9375 7.39743L7.80579 4.99555H12.1942L14.0625 7.39744V9.99557H5.9375V7.39743Z" fill="#F4F4F4"/>
<path d="M9.99924 7.18304C9.83497 7.18531 9.6782 7.25216 9.56284 7.36913C9.44748 7.48609 9.38281 7.64377 9.38281 7.80806C9.38282 7.97234 9.4475 8.13002 9.56286 8.24698C9.67822 8.36394 9.835 8.43078 9.99926 8.43305C10.1635 8.43078 10.3203 8.36393 10.4357 8.24696C10.551 8.13 10.6157 7.97232 10.6157 7.80803C10.6157 7.64375 10.551 7.48607 10.4356 7.36911C10.3203 7.25215 10.1635 7.18531 9.99924 7.18304Z" fill="#F4F4F4"/>
</svg>
