<svg width="17" height="16" viewBox="0 0 17 16" fill="none" xmlns="http://www.w3.org/2000/svg">
  <path d="M1.83398 5.33334L1.48043 4.97978L1.12688 5.33334L1.48043 5.68689L1.83398 5.33334ZM14.5007 5.83334C14.7768 5.83334 15.0007 5.60948 15.0007 5.33334C15.0007 5.0572 14.7768 4.83334 14.5007 4.83334L14.5007 5.83334ZM4.1471 2.31312L1.48043 4.97978L2.18754 5.68689L4.8542 3.02023L4.1471 2.31312ZM1.48043 5.68689L4.1471 8.35356L4.8542 7.64645L2.18754 4.97978L1.48043 5.68689ZM1.83398 5.83334L14.5007 5.83334L14.5007 4.83334L1.83398 4.83334L1.83398 5.83334Z" fill="#F4F4F4"/>
  <path d="M15.166 10.6667L15.5196 10.3131L15.8731 10.6667L15.5196 11.0202L15.166 10.6667ZM9.16602 11.1667C8.88987 11.1667 8.66602 10.9428 8.66602 10.6667C8.66602 10.3905 8.88987 10.1667 9.16602 10.1667L9.16602 11.1667ZM12.8529 7.64645L15.5196 10.3131L14.8125 11.0202L12.1458 8.35355L12.8529 7.64645ZM15.5196 11.0202L12.8529 13.6869L12.1458 12.9798L14.8125 10.3131L15.5196 11.0202ZM15.166 11.1667L9.16602 11.1667L9.16602 10.1667L15.166 10.1667L15.166 11.1667Z" fill="#F4F4F4"/>
</svg>
