<svg width="20" height="20" viewBox="0 0 20 20" fill="none" xmlns="http://www.w3.org/2000/svg">
<path d="M16.25 19.0624H15.1562V17.3437C15.1554 17.1062 15.0772 16.8755 14.9335 16.6865C14.7898 16.4974 14.5884 16.3604 14.3598 16.2962C13.5053 14.8724 13.1388 13.0314 13.2803 10.8111C13.2882 10.687 13.2466 10.5649 13.1644 10.4715C13.0823 10.3782 12.9665 10.3213 12.8424 10.3133C12.7808 10.3086 12.7189 10.3163 12.6603 10.3358C12.6017 10.3554 12.5476 10.3865 12.5012 10.4274C12.4548 10.4682 12.4171 10.5178 12.3902 10.5735C12.3633 10.6291 12.3478 10.6895 12.3447 10.7512C12.2073 12.9047 12.5185 14.748 13.2641 16.2499H10.4688V10.1562C10.4688 10.0318 10.4194 9.91261 10.3315 9.8247C10.2435 9.73679 10.1243 9.68741 10 9.68741C9.87568 9.68741 9.75645 9.73679 9.66854 9.8247C9.58064 9.91261 9.53125 10.0318 9.53125 10.1562V16.2499H6.73594C7.48146 14.748 7.79274 12.9047 7.65534 10.7512C7.65155 10.6897 7.63566 10.6295 7.60858 10.5741C7.5815 10.5187 7.54376 10.4692 7.49752 10.4284C7.45127 10.3877 7.39744 10.3564 7.3391 10.3365C7.28076 10.3165 7.21906 10.3083 7.15752 10.3122C7.09599 10.3161 7.03584 10.3322 6.98052 10.3594C6.92519 10.3866 6.87578 10.4245 6.8351 10.4708C6.79443 10.5171 6.7633 10.571 6.74349 10.6294C6.72368 10.6878 6.71559 10.7495 6.71967 10.8111C6.86123 13.0314 6.49467 14.8724 5.64024 16.2962C5.41165 16.3604 5.21023 16.4974 5.06651 16.6865C4.92278 16.8755 4.84458 17.1062 4.84375 17.3437V19.0624H3.75C3.62568 19.0624 3.50645 19.1118 3.41854 19.1997C3.33064 19.2876 3.28125 19.4068 3.28125 19.5311C3.28125 19.6555 3.33064 19.7747 3.41854 19.8626C3.50645 19.9505 3.62568 19.9999 3.75 19.9999H16.25C16.3743 19.9999 16.4935 19.9505 16.5815 19.8626C16.6694 19.7747 16.7188 19.6555 16.7188 19.5311C16.7188 19.4068 16.6694 19.2876 16.5815 19.1997C16.4935 19.1118 16.3743 19.0624 16.25 19.0624ZM14.2188 19.0624H5.78125V17.3437C5.7813 17.3022 5.79778 17.2625 5.82707 17.2332C5.85636 17.2039 5.89608 17.1875 5.9375 17.1874H14.0625C14.1039 17.1875 14.1436 17.2039 14.1729 17.2332C14.2022 17.2625 14.2187 17.3022 14.2188 17.3437V19.0624Z" fill="#222222"/>
<path d="M18.4375 4.37491H16.5625C16.4382 4.37491 16.319 4.42429 16.231 4.5122C16.1431 4.60011 16.0938 4.71934 16.0938 4.84366C16.0938 4.96798 16.1431 5.08721 16.231 5.17511C16.319 5.26302 16.4382 5.31241 16.5625 5.31241H18.4375C18.5618 5.31241 18.681 5.26302 18.769 5.17511C18.8569 5.08721 18.9062 4.96798 18.9062 4.84366C18.9062 4.71934 18.8569 4.60011 18.769 4.5122C18.681 4.42429 18.5618 4.37491 18.4375 4.37491Z" fill="#222222"/>
<path d="M15.9778 2.09463L17.6209 1.19192C17.7298 1.13203 17.8105 1.03131 17.8452 0.911927C17.8798 0.792542 17.8657 0.66427 17.8058 0.555328C17.7459 0.446386 17.6452 0.365699 17.5258 0.331017C17.4064 0.296334 17.2781 0.310498 17.1692 0.370392L15.5261 1.2731C15.4172 1.333 15.3365 1.43371 15.3018 1.5531C15.2671 1.67248 15.2813 1.80076 15.3412 1.9097C15.4011 2.01864 15.5018 2.09933 15.6212 2.13401C15.7406 2.16869 15.8688 2.15453 15.9778 2.09463Z" fill="#222222"/>
<path d="M17.6209 8.49539L15.9778 7.59268C15.9238 7.56302 15.8646 7.54428 15.8034 7.53753C15.7422 7.53077 15.6803 7.53613 15.6212 7.5533C15.5621 7.57048 15.5069 7.59913 15.4589 7.63761C15.4108 7.6761 15.3708 7.72367 15.3412 7.77762C15.3115 7.83156 15.2928 7.89081 15.286 7.952C15.2793 8.01319 15.2846 8.0751 15.3018 8.13422C15.319 8.19333 15.3476 8.24848 15.3861 8.29652C15.4246 8.34457 15.4722 8.38456 15.5261 8.41421L17.1692 9.31692C17.2781 9.37681 17.4064 9.39098 17.5258 9.3563C17.6452 9.32161 17.7459 9.24093 17.8058 9.13198C17.8657 9.02304 17.8799 8.89477 17.8452 8.77539C17.8105 8.656 17.7298 8.55528 17.6209 8.49539Z" fill="#222222"/>
<path d="M3.90625 4.84366C3.90624 4.71934 3.85686 4.60012 3.76895 4.51221C3.68104 4.4243 3.56182 4.37491 3.4375 4.37491H1.5625C1.43818 4.37491 1.31895 4.42429 1.23104 4.5122C1.14314 4.60011 1.09375 4.71934 1.09375 4.84366C1.09375 4.96798 1.14314 5.08721 1.23104 5.17511C1.31895 5.26302 1.43818 5.31241 1.5625 5.31241H3.4375C3.56182 5.3124 3.68104 5.26301 3.76895 5.17511C3.85686 5.0872 3.90624 4.96798 3.90625 4.84366Z" fill="#222222"/>
<path d="M2.37866 1.19192L4.02173 2.09463C4.13067 2.15453 4.25894 2.16869 4.37833 2.13401C4.49771 2.09933 4.59843 2.01864 4.65833 1.9097C4.71822 1.80076 4.73239 1.67248 4.6977 1.5531C4.66302 1.43371 4.58233 1.333 4.47339 1.2731L2.83032 0.370392C2.72138 0.310498 2.59311 0.296334 2.47372 0.331017C2.35434 0.365699 2.25362 0.446386 2.19373 0.555328C2.13383 0.66427 2.11967 0.792542 2.15435 0.911927C2.18904 1.03131 2.26972 1.13203 2.37866 1.19192Z" fill="#222222"/>
<path d="M4.65833 7.77777C4.62873 7.72377 4.58877 7.67613 4.54074 7.6376C4.49271 7.59906 4.43755 7.57037 4.37842 7.55318C4.31929 7.53598 4.25735 7.53062 4.19614 7.5374C4.13493 7.54418 4.07567 7.56297 4.02173 7.59268L2.37866 8.49539C2.26972 8.55529 2.18903 8.656 2.15435 8.77539C2.13718 8.8345 2.13182 8.89642 2.13857 8.9576C2.14533 9.01879 2.16407 9.07805 2.19373 9.13199C2.22338 9.18593 2.26337 9.2335 2.31142 9.27199C2.35946 9.31048 2.41461 9.33913 2.47372 9.3563C2.59311 9.39098 2.72138 9.37682 2.83032 9.31692L4.47339 8.41421C4.52733 8.38458 4.5749 8.3446 4.61339 8.29657C4.65188 8.24855 4.68053 8.19341 4.6977 8.1343C4.71488 8.0752 4.72024 8.01329 4.71348 7.95212C4.70673 7.89095 4.68798 7.8317 4.65833 7.77777Z" fill="#222222"/>
<path d="M14.3462 3.08097L11.8517 2.71827L10.736 0.457984C10.6682 0.320553 10.5632 0.204837 10.4331 0.123919C10.3029 0.0430011 10.1527 0.000108789 9.99949 9.15579e-05C9.84623 7.43268e-05 9.69603 0.0429329 9.56586 0.123822C9.43569 0.20471 9.33075 0.320403 9.26289 0.457819L8.14687 2.71826L5.65266 3.08097C5.50099 3.103 5.3585 3.16703 5.24131 3.2658C5.12412 3.36458 5.03689 3.49417 4.98949 3.63992C4.94209 3.78567 4.93641 3.94178 4.97309 4.0906C5.00977 4.23941 5.08734 4.375 5.19704 4.48203L7.00216 6.24183L6.57613 8.72626C6.55038 8.8773 6.56738 9.03254 6.62519 9.17444C6.68299 9.31634 6.77932 9.43926 6.90329 9.52931C7.02725 9.61937 7.17393 9.67298 7.32675 9.68409C7.47957 9.6952 7.63245 9.66337 7.76814 9.59219L9.99928 8.4191L12.2304 9.59219C12.3661 9.66348 12.519 9.6954 12.6718 9.68434C12.8247 9.67329 12.9714 9.6197 13.0954 9.52964C13.2194 9.43958 13.3158 9.31663 13.3735 9.17469C13.4313 9.03275 13.4483 8.87747 13.4224 8.72641L12.9964 6.24182L14.8015 4.48202C14.9112 4.37501 14.9888 4.23945 15.0255 4.09066C15.0622 3.94186 15.0566 3.78577 15.0092 3.64002C14.9618 3.49428 14.8746 3.36468 14.7575 3.26589C14.6403 3.1671 14.4979 3.10304 14.3462 3.08097ZM9.99928 6.71867C9.69025 6.71867 9.38816 6.62703 9.13121 6.45534C8.87425 6.28365 8.67398 6.03962 8.55572 5.75411C8.43746 5.4686 8.40652 5.15443 8.46681 4.85134C8.5271 4.54824 8.67591 4.26983 8.89443 4.05131C9.11295 3.83279 9.39136 3.68398 9.69445 3.62369C9.99755 3.5634 10.3117 3.59434 10.5972 3.7126C10.8827 3.83087 11.1268 4.03114 11.2985 4.28809C11.4701 4.54504 11.5618 4.84713 11.5618 5.15617C11.5618 5.36136 11.5214 5.56454 11.4428 5.75411C11.3643 5.94368 11.2492 6.11593 11.1041 6.26102C10.959 6.40611 10.7868 6.5212 10.5972 6.59973C10.4077 6.67825 10.2045 6.71867 9.99928 6.71867Z" fill="#FFCC00"/>
</svg>
