<svg width="30" height="30" viewBox="0 0 30 30" fill="none" xmlns="http://www.w3.org/2000/svg">
<path fill-rule="evenodd" clip-rule="evenodd" d="M15 29C22.732 29 29 22.732 29 15C29 7.26801 22.732 1 15 1C7.26801 1 1 7.26801 1 15C1 22.732 7.26801 29 15 29Z" stroke="#F4F4F4"/>
<path fill-rule="evenodd" clip-rule="evenodd" d="M12.4326 21.4167C12.7826 21.4167 12.9373 21.2566 13.1326 21.0667L14.9993 19.2516L12.6709 17.8475" fill="#F4F4F4"/>
<path fill-rule="evenodd" clip-rule="evenodd" d="M12.6712 17.8478L18.3132 22.0162C18.957 22.3714 19.4217 22.1875 19.582 21.4185L21.8786 10.5961C22.1138 9.65343 21.5193 9.22587 20.9034 9.50549L7.41786 14.7054C6.49735 15.0747 6.50272 15.5882 7.25007 15.817L10.7108 16.8972L18.7226 11.8426C19.1008 11.6132 19.448 11.7365 19.163 11.9894" fill="#F4F4F4"/>
</svg>
