<svg width="20" height="20" viewBox="0 0 20 20" fill="none" xmlns="http://www.w3.org/2000/svg">
  <g clip-path="url(#clip0_2067_3144)">
    <path d="M10 3.39511V19.4174C11.9189 19.4046 13.7541 18.6302 15.102 17.2644C16.4499 15.8987 17.2001 14.0534 17.1875 12.1345C17.1875 8.11233 12.7546 3.39511 10 3.39511Z" fill="white" fill-opacity="0.2"/>
    <path d="M2.81266 12.1344C2.8001 14.0533 3.55028 15.8986 4.89818 17.2643C6.24608 18.6301 8.0813 19.4045 10.0002 19.4173V3.39502C7.24552 3.39502 2.81266 8.11224 2.81266 12.1344Z" fill="#0A42EA"/>
    <path d="M12.4997 4.0625H7.49973L7.07567 1.73021C7.0511 1.5951 7.05652 1.45625 7.09153 1.32347C7.12654 1.19069 7.19029 1.06722 7.27828 0.961796C7.36627 0.85637 7.47634 0.771559 7.60072 0.713361C7.72509 0.655163 7.86074 0.624999 7.99805 0.625H12.0014C12.1387 0.624999 12.2744 0.655163 12.3987 0.713361C12.5231 0.771559 12.6332 0.85637 12.7212 0.961796C12.8092 1.06722 12.8729 1.19069 12.9079 1.32347C12.9429 1.45625 12.9483 1.5951 12.9238 1.73021L12.4997 4.0625Z" fill="white" fill-opacity="0.2"/>
    <path opacity="0.1" d="M9.06315 11.5376H10.9382C11.1022 11.5356 11.2589 11.4691 11.3743 11.3523C11.4896 11.2356 11.5543 11.0781 11.5543 10.914C11.5543 10.7499 11.4896 10.5924 11.3743 10.4757C11.2589 10.3589 11.1022 10.2924 10.9381 10.2904H10.0006V9.97857C9.99795 9.81458 9.93091 9.65823 9.81399 9.54322C9.69707 9.42821 9.53963 9.36376 9.37563 9.36377C9.21162 9.36377 9.05419 9.42823 8.93728 9.54325C8.82036 9.65826 8.75333 9.81462 8.75064 9.9786V10.3185C6.51407 10.7422 6.77123 13.9789 9.06318 14.0321H9.68815C9.8522 14.0342 10.0088 14.1008 10.1241 14.2175C10.2394 14.3342 10.304 14.4917 10.304 14.6557C10.304 14.8198 10.2394 14.9773 10.1241 15.094C10.0088 15.2107 9.85217 15.2773 9.68812 15.2794H7.81314C7.64909 15.2814 7.49246 15.348 7.37718 15.4647C7.2619 15.5815 7.19726 15.7389 7.19727 15.903C7.19727 16.067 7.26192 16.2245 7.37721 16.3412C7.49249 16.4579 7.64913 16.5245 7.81318 16.5266H8.75064V16.8384C8.75334 17.0024 8.82038 17.1587 8.9373 17.2737C9.05422 17.3888 9.21165 17.4532 9.37566 17.4532C9.53966 17.4532 9.69709 17.3887 9.81401 17.2737C9.93093 17.1587 9.99796 17.0024 10.0006 16.8384V16.4984C12.2368 16.0753 11.9804 12.838 9.68811 12.7849H9.06315C8.8991 12.7828 8.74246 12.7162 8.62718 12.5995C8.5119 12.4828 8.44725 12.3253 8.44725 12.1612C8.44725 11.9972 8.5119 11.8397 8.62718 11.723C8.74246 11.6063 8.8991 11.5397 9.06315 11.5376Z" fill="#F4F4F4"/>
    <path opacity="0.1" d="M12.5141 4.02187C12.5453 3.7625 12.9859 1.68125 12.9328 1.46875C12.9097 1.23771 12.8017 1.02348 12.6296 0.867581C12.4576 0.711684 12.2337 0.625236 12.0016 0.625H7.99531C7.75893 0.624952 7.53133 0.714605 7.35848 0.875853C7.18563 1.0371 7.08041 1.25793 7.06406 1.49375C7.07802 1.4232 7.11635 1.35981 7.17234 1.31468C7.22833 1.26955 7.29841 1.24554 7.37031 1.24687H11.3766C11.6109 1.28437 11.6891 1.375 11.6828 1.61562L11.3516 3.43125H9.99844C9.99617 3.26698 9.92933 3.11021 9.81237 2.99485C9.6954 2.87948 9.53772 2.81481 9.37344 2.81481C9.20915 2.81481 9.05147 2.87948 8.93451 2.99485C8.81755 3.11021 8.7507 3.26698 8.74844 3.43125H7.39531L7.06406 1.61562C7.06063 1.5981 7.05854 1.58034 7.05781 1.5625C7.05836 1.61908 7.06359 1.67553 7.07344 1.73125L7.49844 4.0625H7.93594C5.62491 5.49407 3.90912 7.71262 3.10469 10.3094C3.9055 8.00034 5.44686 6.02063 7.48906 4.67812H8.74844V5.3C8.74844 5.46576 8.81429 5.62473 8.9315 5.74194C9.04871 5.85915 9.20768 5.925 9.37344 5.925C9.5392 5.925 9.69817 5.85915 9.81538 5.74194C9.93259 5.62473 9.99844 5.46576 9.99844 5.3V4.67812H11.2578C13.5422 6.075 15.9359 9.3375 15.9359 12.1094C15.9582 13.7048 15.3975 15.2535 14.3591 16.4649C13.3208 17.6764 11.876 18.4673 10.296 18.6894C8.71598 18.9114 7.10921 18.5493 5.77716 17.671C4.4451 16.7927 3.4793 15.4585 3.06094 13.9187C5.05781 22.0125 17.1953 20.9625 17.1797 11.825C17.0422 8.86875 14.8109 5.7 12.5141 4.02187ZM3.06094 13.9187C2.9411 13.4365 2.86063 12.9453 2.82031 12.45C2.84425 12.9472 2.92498 13.4399 3.06094 13.9187Z" fill="#F4F4F4"/>
    <path opacity="0.1" d="M9.37347 8.10759C9.53748 8.10547 9.69405 8.03884 9.80928 7.92212C9.9245 7.80539 9.98911 7.64798 9.98911 7.48396C9.98911 7.31994 9.92449 7.16253 9.80926 7.04581C9.69403 6.92909 9.53746 6.86246 9.37345 6.86035C9.20945 6.86246 9.05288 6.9291 8.93765 7.04582C8.82242 7.16254 8.75781 7.31996 8.75781 7.48398C8.75781 7.648 8.82243 7.80541 8.93766 7.92213C9.05289 8.03885 9.20947 8.10548 9.37347 8.10759Z" fill="#F4F4F4"/>
    <path d="M9.68619 11.5376H11.5612C11.7253 11.5356 11.882 11.4691 11.9973 11.3523C12.1127 11.2356 12.1773 11.0781 12.1773 10.914C12.1773 10.7499 12.1126 10.5924 11.9973 10.4757C11.882 10.3589 11.7253 10.2924 11.5612 10.2904H10.6237V9.97857C10.621 9.81459 10.554 9.65824 10.437 9.54323C10.3201 9.42822 10.1627 9.36377 9.99868 9.36377C9.83468 9.36377 9.67724 9.42823 9.56033 9.54325C9.44341 9.65826 9.37638 9.81462 9.37369 9.9786V10.3185C7.13712 10.7422 7.39427 13.9789 9.68623 14.0321H10.3112C10.3932 14.0319 10.4744 14.0479 10.5503 14.0792C10.6261 14.1104 10.695 14.1564 10.7531 14.2143C10.8111 14.2722 10.8572 14.341 10.8886 14.4168C10.92 14.4925 10.9362 14.5737 10.9362 14.6557C10.9362 14.7378 10.92 14.819 10.8886 14.8947C10.8572 14.9705 10.8111 15.0393 10.7531 15.0972C10.695 15.1551 10.6261 15.201 10.5503 15.2323C10.4744 15.2635 10.3932 15.2795 10.3112 15.2794H8.43619C8.27215 15.2814 8.11551 15.348 8.00023 15.4647C7.88495 15.5815 7.82031 15.7389 7.82031 15.903C7.82032 16.0671 7.88497 16.2245 8.00025 16.3412C8.11554 16.458 8.27217 16.5246 8.43622 16.5266H9.37369V16.8384C9.37639 17.0024 9.44343 17.1587 9.56035 17.2738C9.67727 17.3888 9.8347 17.4532 9.99871 17.4532C10.1627 17.4532 10.3201 17.3888 10.4371 17.2737C10.554 17.1587 10.621 17.0024 10.6237 16.8384V16.4984C12.8598 16.0753 12.6035 12.838 10.3112 12.7849H9.68619C9.52217 12.7828 9.36556 12.7162 9.25031 12.5995C9.13505 12.4827 9.07042 12.3253 9.07042 12.1612C9.07042 11.9972 9.13505 11.8398 9.25031 11.723C9.36556 11.6063 9.52217 11.5397 9.68619 11.5376Z" fill="#F4F4F4"/>
    <path d="M13.1417 4.02074L13.5394 1.83845C13.5784 1.61374 13.5679 1.38322 13.5088 1.16295C13.4496 0.942683 13.3432 0.73795 13.1969 0.563007C13.0505 0.388063 12.8678 0.247112 12.6615 0.149965C12.4551 0.0528173 12.2301 0.00180831 12.002 0.000488281H7.99875C7.77068 0.00181235 7.54564 0.0528256 7.33929 0.149977C7.13295 0.247128 6.95025 0.388083 6.80393 0.56303C6.6576 0.737977 6.55116 0.942712 6.49201 1.16298C6.43287 1.38325 6.42244 1.61377 6.46145 1.83848L6.85907 4.02076C4.48856 5.75411 2.1879 9.07421 2.1879 12.1081C2.17745 13.1407 2.37181 14.1651 2.75974 15.1222C3.14767 16.0792 3.72147 16.9498 4.44796 17.6837C5.17446 18.4176 6.03923 19.0002 6.99228 19.3978C7.94533 19.7953 8.96774 20.0001 10.0004 20.0001C11.0331 20.0001 12.0555 19.7953 13.0085 19.3978C13.9616 19.0002 14.8263 18.4176 15.5528 17.6837C16.2793 16.9498 16.8531 16.0792 17.2411 15.1222C17.629 14.1651 17.8233 13.1407 17.8129 12.1081C17.8129 9.07421 15.5122 5.75411 13.1417 4.02074ZM7.75873 1.35977C7.78792 1.32446 7.82461 1.29609 7.86612 1.27671C7.90763 1.25733 7.95294 1.24742 7.99875 1.24771H12.002C12.2389 1.28317 12.3169 1.37632 12.3095 1.61525L11.9789 3.43039H10.6254C10.6227 3.26641 10.5557 3.11005 10.4388 2.99504C10.3218 2.88003 10.1644 2.81557 10.0004 2.81557C9.8364 2.81557 9.67896 2.88003 9.56204 2.99504C9.44513 3.11005 9.37809 3.26641 9.3754 3.43039H8.02196L7.69129 1.61525C7.68283 1.57033 7.68449 1.52409 7.69616 1.47989C7.70783 1.4357 7.7292 1.39466 7.75873 1.35977ZM10.0004 18.7528C8.24966 18.7399 6.57552 18.033 5.34525 16.7874C4.11498 15.5417 3.42904 13.8589 3.4379 12.1081C3.4379 9.33834 5.83088 6.07524 8.11501 4.67765H9.3754V5.30126C9.3754 5.46702 9.44125 5.626 9.55846 5.74321C9.67567 5.86042 9.83464 5.92626 10.0004 5.92626C10.1662 5.92626 10.3251 5.86042 10.4423 5.74321C10.5596 5.626 10.6254 5.46702 10.6254 5.30126V4.67763H11.8858C14.1699 6.07522 16.5629 9.33833 16.5629 12.1081C16.5718 13.8589 15.8858 15.5417 14.6556 16.7874C13.4253 18.033 11.7511 18.7399 10.0004 18.7528Z" fill="#F4F4F4"/>
    <path d="M10.0004 8.10759C10.1644 8.10548 10.321 8.03885 10.4362 7.92212C10.5515 7.8054 10.6161 7.64798 10.6161 7.48396C10.6161 7.31994 10.5514 7.16252 10.4362 7.0458C10.321 6.92908 10.1644 6.86246 10.0004 6.86035C9.83639 6.86246 9.67982 6.9291 9.5646 7.04582C9.44937 7.16255 9.38476 7.31997 9.38477 7.48399C9.38477 7.64801 9.44938 7.80542 9.56462 7.92214C9.67985 8.03886 9.83642 8.10549 10.0004 8.10759Z" fill="#F4F4F4"/>
  </g>
  <defs>
    <clipPath id="clip0_2067_3144">
      <rect width="20" height="20" fill="white"/>
    </clipPath>
  </defs>
</svg>
