<svg width="20" height="20" viewBox="0 0 20 20" fill="none" xmlns="http://www.w3.org/2000/svg">
  <g clip-path="url(#clip0_1542_1589)">
    <path d="M10 3.39511V19.4174C11.9189 19.4046 13.7541 18.6302 15.102 17.2644C16.4499 15.8987 17.2001 14.0534 17.1875 12.1345C17.1875 8.11233 12.7546 3.39511 10 3.39511Z" fill="#7649FE"/>
    <path d="M12.4997 4.0625H7.49973L7.07567 1.73021C7.0511 1.5951 7.05652 1.45625 7.09153 1.32347C7.12654 1.19069 7.19029 1.06722 7.27828 0.961796C7.36627 0.85637 7.47634 0.771559 7.60072 0.713361C7.72509 0.655163 7.86074 0.624999 7.99805 0.625H12.0014C12.1387 0.624999 12.2744 0.655163 12.3987 0.713361C12.5231 0.771559 12.6332 0.85637 12.7212 0.961796C12.8092 1.06722 12.8729 1.19069 12.9079 1.32347C12.9429 1.45625 12.9483 1.5951 12.9238 1.73021L12.4997 4.0625Z" fill="#7649FE"/>
    <path opacity="0.1" d="M9.06315 11.5374H10.9382C11.1022 11.5354 11.2589 11.4689 11.3743 11.3521C11.4896 11.2354 11.5543 11.0779 11.5543 10.9138C11.5543 10.7497 11.4896 10.5922 11.3743 10.4754C11.2589 10.3587 11.1022 10.2921 10.9381 10.2902H10.0006V9.97835C9.99795 9.81437 9.93091 9.65802 9.81399 9.54301C9.69707 9.428 9.53963 9.36355 9.37563 9.36356C9.21162 9.36356 9.05419 9.42802 8.93728 9.54304C8.82036 9.65805 8.75333 9.81441 8.75064 9.97839V10.3183C6.51407 10.742 6.77123 13.9787 9.06318 14.0319H9.68815C9.8522 14.034 10.0088 14.1006 10.1241 14.2173C10.2394 14.334 10.304 14.4915 10.304 14.6555C10.304 14.8196 10.2394 14.977 10.1241 15.0938C10.0088 15.2105 9.85217 15.2771 9.68812 15.2791H7.81314C7.64909 15.2812 7.49246 15.3478 7.37718 15.4645C7.2619 15.5813 7.19726 15.7387 7.19727 15.9028C7.19727 16.0668 7.26192 16.2243 7.37721 16.341C7.49249 16.4577 7.64913 16.5243 7.81318 16.5264H8.75064V16.8382C8.75334 17.0022 8.82038 17.1585 8.9373 17.2735C9.05422 17.3885 9.21165 17.453 9.37566 17.453C9.53966 17.453 9.69709 17.3885 9.81401 17.2735C9.93093 17.1585 9.99796 17.0021 10.0006 16.8382V16.4982C12.2368 16.0751 11.9804 12.8378 9.68811 12.7847H9.06315C8.8991 12.7826 8.74246 12.716 8.62718 12.5993C8.5119 12.4825 8.44725 12.3251 8.44725 12.161C8.44725 11.997 8.5119 11.8395 8.62718 11.7228C8.74246 11.6061 8.8991 11.5395 9.06315 11.5374Z" fill="#F4F4F4"/>
    <path opacity="0.1" d="M12.516 4.02187C12.5473 3.7625 12.9879 1.68125 12.9348 1.46875C12.9117 1.23771 12.8037 1.02348 12.6316 0.867581C12.4595 0.711684 12.2357 0.625236 12.0035 0.625H7.99727C7.76088 0.624952 7.53328 0.714605 7.36044 0.875853C7.18759 1.0371 7.08236 1.25793 7.06602 1.49375C7.07998 1.4232 7.11831 1.35981 7.17429 1.31468C7.23028 1.26955 7.30036 1.24554 7.37227 1.24687H11.3785C11.6129 1.28437 11.691 1.375 11.6848 1.61562L11.3535 3.43125H10.0004C9.99813 3.26698 9.93128 3.11021 9.81432 2.99485C9.69735 2.87948 9.53967 2.81481 9.37539 2.81481C9.21111 2.81481 9.05343 2.87948 8.93646 2.99485C8.8195 3.11021 8.75266 3.26698 8.75039 3.43125H7.39727L7.06602 1.61562C7.06258 1.5981 7.06049 1.58034 7.05977 1.5625C7.06031 1.61908 7.06554 1.67553 7.07539 1.73125L7.50039 4.0625H7.93789C5.62687 5.49407 3.91107 7.71262 3.10664 10.3094C3.90745 8.00034 5.44881 6.02063 7.49102 4.67812H8.75039V5.3C8.75039 5.46576 8.81624 5.62473 8.93345 5.74194C9.05066 5.85915 9.20963 5.925 9.37539 5.925C9.54115 5.925 9.70012 5.85915 9.81733 5.74194C9.93454 5.62473 10.0004 5.46576 10.0004 5.3V4.67812H11.2598C13.5441 6.075 15.9379 9.3375 15.9379 12.1094C15.9601 13.7048 15.3995 15.2535 14.3611 16.4649C13.3227 17.6764 11.878 18.4673 10.298 18.6894C8.71793 18.9114 7.11116 18.5493 5.77911 17.671C4.44705 16.7927 3.48125 15.4585 3.06289 13.9187C5.05977 22.0125 17.1973 20.9625 17.1817 11.825C17.0441 8.86875 14.8129 5.7 12.516 4.02187ZM3.06289 13.9187C2.94306 13.4365 2.86259 12.9453 2.82227 12.45C2.8462 12.9472 2.92694 13.4399 3.06289 13.9187Z" fill="#F4F4F4"/>
    <path opacity="0.1" d="M9.37542 8.10749C9.53943 8.10538 9.696 8.03875 9.81123 7.92203C9.92646 7.8053 9.99107 7.64789 9.99106 7.48387C9.99106 7.31985 9.92645 7.16243 9.81122 7.04571C9.69598 6.92899 9.53941 6.86237 9.37541 6.86026C9.2114 6.86237 9.05483 6.929 8.9396 7.04573C8.82437 7.16245 8.75976 7.31987 8.75977 7.48389C8.75977 7.6479 8.82438 7.80532 8.93961 7.92204C9.05485 8.03876 9.21142 8.10539 9.37542 8.10749Z" fill="#F4F4F4"/>
    <path d="M9.68815 11.5374H11.5631C11.7272 11.5354 11.8839 11.4689 11.9993 11.3521C12.1146 11.2354 12.1793 11.0779 12.1793 10.9138C12.1793 10.7497 12.1146 10.5922 11.9993 10.4754C11.8839 10.3587 11.7272 10.2921 11.5631 10.2902H10.6256V9.97836C10.6229 9.81437 10.5559 9.65802 10.439 9.54301C10.3221 9.428 10.1646 9.36355 10.0006 9.36356C9.83663 9.36356 9.6792 9.42802 9.56228 9.54303C9.44537 9.65805 9.37834 9.8144 9.37565 9.97838V10.3183C7.13907 10.742 7.39623 13.9787 9.68818 14.0319H10.3131C10.3952 14.0317 10.4764 14.0477 10.5522 14.079C10.628 14.1102 10.697 14.1561 10.755 14.2141C10.8131 14.272 10.8591 14.3408 10.8906 14.4166C10.922 14.4923 10.9382 14.5735 10.9382 14.6555C10.9382 14.7375 10.922 14.8187 10.8906 14.8945C10.8591 14.9703 10.8131 15.0391 10.755 15.097C10.697 15.1549 10.628 15.2008 10.5522 15.2321C10.4764 15.2633 10.3952 15.2793 10.3131 15.2791H8.43815C8.2741 15.2812 8.11746 15.3478 8.00218 15.4645C7.8869 15.5813 7.82226 15.7387 7.82227 15.9028C7.82227 16.0668 7.88692 16.2243 8.0022 16.341C8.11749 16.4577 8.27413 16.5243 8.43818 16.5264H9.37565V16.8382C9.37835 17.0022 9.44538 17.1585 9.5623 17.2735C9.67922 17.3886 9.83666 17.453 10.0007 17.453C10.1647 17.453 10.3221 17.3885 10.439 17.2735C10.5559 17.1585 10.623 17.0022 10.6256 16.8382V16.4982C12.8618 16.0751 12.6054 12.8378 10.3131 12.7847H9.68815C9.52412 12.7826 9.36752 12.716 9.25226 12.5992C9.137 12.4825 9.07237 12.3251 9.07237 12.161C9.07237 11.997 9.137 11.8396 9.25226 11.7228C9.36752 11.6061 9.52412 11.5395 9.68815 11.5374Z" fill="#F4F4F4"/>
    <path d="M13.1417 4.02068L13.5394 1.83839C13.5784 1.61368 13.5679 1.38316 13.5088 1.16289C13.4496 0.942622 13.3432 0.737889 13.1969 0.562946C13.0505 0.388002 12.8678 0.247051 12.6615 0.149904C12.4551 0.0527563 12.2301 0.00174728 12.002 0.000427246H7.99875C7.77068 0.00175132 7.54564 0.0527646 7.33929 0.149916C7.13295 0.247067 6.95025 0.388022 6.80393 0.562969C6.6576 0.737916 6.55116 0.942651 6.49201 1.16292C6.43287 1.38319 6.42244 1.61371 6.46145 1.83842L6.85907 4.0207C4.48856 5.75405 2.1879 9.07415 2.1879 12.108C2.17745 13.1406 2.37181 14.1651 2.75974 15.1221C3.14767 16.0791 3.72147 16.9498 4.44796 17.6836C5.17446 18.4175 6.03923 19.0001 6.99228 19.3977C7.94533 19.7953 8.96774 20 10.0004 20C11.0331 20 12.0555 19.7953 13.0085 19.3977C13.9616 19.0001 14.8263 18.4175 15.5528 17.6836C16.2793 16.9498 16.8531 16.0791 17.2411 15.1221C17.629 14.1651 17.8233 13.1406 17.8129 12.108C17.8129 9.07415 15.5122 5.75405 13.1417 4.02068ZM7.75873 1.35971C7.78792 1.3244 7.82461 1.29603 7.86612 1.27665C7.90763 1.25727 7.95294 1.24736 7.99875 1.24765H12.002C12.2389 1.28311 12.3169 1.37626 12.3095 1.61519L11.9789 3.43033H10.6254C10.6227 3.26635 10.5557 3.10999 10.4388 2.99498C10.3218 2.87997 10.1644 2.81551 10.0004 2.81551C9.8364 2.81551 9.67896 2.87997 9.56204 2.99498C9.44513 3.10999 9.37809 3.26635 9.3754 3.43033H8.02196L7.69129 1.61519C7.68283 1.57027 7.68449 1.52403 7.69616 1.47983C7.70783 1.43564 7.7292 1.3946 7.75873 1.35971ZM10.0004 18.7527C8.24966 18.7398 6.57552 18.033 5.34525 16.7873C4.11498 15.5416 3.42904 13.8588 3.4379 12.1081C3.4379 9.33828 5.83088 6.07517 8.11501 4.67758H9.3754V5.3012C9.3754 5.46696 9.44125 5.62593 9.55846 5.74314C9.67567 5.86035 9.83464 5.9262 10.0004 5.9262C10.1662 5.9262 10.3251 5.86035 10.4423 5.74314C10.5596 5.62593 10.6254 5.46696 10.6254 5.3012V4.67757H11.8858C14.1699 6.07516 16.5629 9.33827 16.5629 12.108C16.5718 13.8588 15.8858 15.5416 14.6556 16.7873C13.4253 18.033 11.7511 18.7398 10.0004 18.7527Z" fill="#F4F4F4"/>
    <path d="M10.0004 8.1075C10.1644 8.10539 10.321 8.03875 10.4362 7.92203C10.5515 7.8053 10.6161 7.64789 10.6161 7.48387C10.6161 7.31985 10.5514 7.16243 10.4362 7.04571C10.321 6.92899 10.1644 6.86237 10.0004 6.86026C9.83639 6.86237 9.67982 6.92901 9.5646 7.04573C9.44937 7.16246 9.38476 7.31988 9.38477 7.48389C9.38477 7.64791 9.44938 7.80533 9.56462 7.92205C9.67985 8.03877 9.83642 8.1054 10.0004 8.1075Z" fill="#F4F4F4"/>
  </g>
  <defs>
    <clipPath id="clip0_1542_1589">
      <rect width="20" height="20" fill="white"/>
    </clipPath>
  </defs>
</svg>
