<svg width="52" height="66" viewBox="0 0 52 66" fill="none" xmlns="http://www.w3.org/2000/svg">
<path d="M22.6643 51.4525C22.4156 51.4942 22.1662 51.515 21.9219 51.515C20.8171 51.515 19.9223 51.106 19.2258 50.5389C18.4216 52.3193 18.5488 54.1162 18.5509 54.1399C18.556 54.1938 18.5581 54.2477 18.5581 54.3023C18.5581 58.41 21.8981 61.7507 26.0051 61.7522H26.0065H26.0123C30.1185 61.7486 33.4578 58.4085 33.4578 54.3023C33.4757 49.1712 30.4671 47.5159 30.4362 47.5001C30.3557 47.4598 30.2773 47.4131 30.204 47.3606C28.415 46.0928 27.3606 44.5144 27.0703 42.6693C27.035 42.4472 27.0128 42.2287 27.0005 42.0131C23.6009 45.1282 24.1169 49.2157 24.1478 49.4321C24.2829 50.3959 23.6253 51.2922 22.6643 51.4525Z" fill="url(#paint0_linear_2919_947)"/>
<path d="M43.6224 18.9147C43.0617 18.3943 42.2352 18.2865 41.5603 18.643C40.8854 19.0002 40.5095 19.7441 40.623 20.4995C41.1175 23.7864 40.8394 26.2373 39.8381 27.4002C39.7332 27.5217 39.6225 27.6259 39.5082 27.7165C39.7655 24.0544 37.7487 21.2585 36.3414 20.0984C32.5694 17.1882 30.8861 13.8194 30.8739 13.7936C28.3022 8.45253 31.8672 3.75622 32.0153 3.56503C32.5055 2.94475 32.532 2.07722 32.0814 1.42747C31.6315 0.778438 30.8092 0.498126 30.056 0.740344C19.2064 4.22197 12.4078 9.49185 9.84902 16.4034C7.79986 21.9377 9.00736 27.1336 10.184 30.2242C8.15924 29.4587 7.47211 27.342 7.38946 27.0639C7.19899 26.381 6.62471 25.8736 5.92249 25.7701C5.21884 25.663 4.5238 25.9836 4.14287 26.5816C0.250116 32.6931 0.362241 39.1 0.385241 39.7635C0.404647 53.8725 11.8881 65.3452 26.0008 65.3452H26.0044C21.7839 65.3445 18.1139 62.9611 16.2567 59.4716C15.4445 57.9457 14.9744 56.2113 14.9636 54.3677C14.9176 53.649 14.7825 49.2804 17.9364 46.1905C18.3755 45.7593 19.0045 45.5853 19.6032 45.7248C20.0596 45.8319 20.4506 46.1115 20.7 46.4953C21.321 43.0381 23.552 38.7328 29.2919 36.4874C30.0373 36.1956 30.889 36.4342 31.3756 37.0717C31.8615 37.71 31.8658 38.5926 31.3856 39.2359C31.3835 39.2395 30.3772 40.6525 30.6223 42.1296C30.7603 42.9633 31.28 43.6993 32.2093 44.3757C33.0812 44.881 37.0745 47.5655 37.0501 54.3066C37.0501 56.1675 36.5822 57.9198 35.7643 59.4601C33.9092 62.9532 30.2356 65.3416 26.0101 65.3445C40.1307 65.338 51.617 53.8495 51.617 39.734C51.6601 28.1147 46.626 21.7027 43.6224 18.9147V18.9147Z" fill="url(#paint1_linear_2919_947)"/>
<defs>
<linearGradient id="paint0_linear_2919_947" x1="7.107" y1="16.7275" x2="46.1617" y2="55.7821" gradientUnits="userSpaceOnUse">
<stop stop-color="#EA15FF"/>
<stop offset="1" stop-color="#3FDAFF"/>
</linearGradient>
<linearGradient id="paint1_linear_2919_947" x1="7.10699" y1="16.7275" x2="46.1617" y2="55.7822" gradientUnits="userSpaceOnUse">
<stop stop-color="#EA15FF"/>
<stop offset="1" stop-color="#3FDAFF"/>
</linearGradient>
</defs>
</svg>
