<svg width="44" height="67" viewBox="0 0 44 67" fill="none" xmlns="http://www.w3.org/2000/svg">
<path fill-rule="evenodd" clip-rule="evenodd" d="M39.4146 26.6964C39.4448 26.4607 39.4347 26.6118 39.4347 26.358V17.4544C39.4347 7.82573 31.6085 0.059967 22.0403 0.059967C12.4237 0.059967 4.64587 7.85795 4.64587 17.4544L4.64789 26.36C4.64789 26.6138 4.63782 26.4607 4.66803 26.6984C2.05997 27.2683 0.116516 29.5924 0.116516 32.3616V60.3775C0.116516 63.5797 2.71047 66.1737 5.91264 66.1737H38.17C41.3721 66.1737 43.9661 63.5797 43.9661 60.3775V32.3596C43.9661 29.5924 42.0247 27.2683 39.4146 26.6964ZM24.6665 46.5136V54.7768H19.3779V46.4874C18.1594 45.6415 17.3619 44.2338 17.3619 42.6387C17.3619 40.0549 19.4564 37.9583 22.0403 37.9583C24.6242 37.9583 26.7207 40.0528 26.7207 42.6387C26.7207 44.2499 25.9051 45.6717 24.6665 46.5136ZM10.2285 26.5635C10.2326 26.5353 10.2305 17.4584 10.2305 17.4564C10.2305 14.3126 11.4671 11.328 13.6885 9.10458C19.6236 3.16949 29.7356 5.15121 32.9599 12.9331C33.554 14.369 33.8501 15.9016 33.8501 17.4544C33.8501 17.4584 33.8501 26.5353 33.8541 26.5635H10.2285Z" fill="url(#paint0_linear_2922_1247)"/>
<defs>
<linearGradient id="paint0_linear_2922_1247" x1="-0.923182" y1="15.8186" x2="45.0018" y2="61.7435" gradientUnits="userSpaceOnUse">
<stop stop-color="#FC00FF"/>
<stop offset="1" stop-color="#00DBDE"/>
</linearGradient>
</defs>
</svg>
