<svg width="30" height="30" viewBox="0 0 30 30" fill="none" xmlns="http://www.w3.org/2000/svg">
<path fill-rule="evenodd" clip-rule="evenodd" d="M1 15C1 7.26801 7.26801 1 15 1C22.732 1 29 7.26801 29 15C29 22.732 22.732 29 15 29C7.26801 29 1 22.732 1 15Z" stroke="#F4F4F4"/>
<path fill-rule="evenodd" clip-rule="evenodd" d="M14.5807 12.3794L14.6101 12.8638L14.1204 12.8045C12.3382 12.5771 10.7811 11.806 9.45911 10.5109L8.81279 9.86826L8.64632 10.3428C8.29378 11.4007 8.51901 12.5178 9.25347 13.2692C9.64518 13.6844 9.55704 13.7437 8.88134 13.4966C8.64632 13.4175 8.44067 13.3581 8.42109 13.3878C8.35254 13.457 8.58756 14.3567 8.77362 14.7126C9.02823 15.2069 9.54725 15.6913 10.1152 15.978L10.5951 16.2054L10.0271 16.2153C9.4787 16.2153 9.45911 16.2252 9.51787 16.4328C9.71372 17.0754 10.4873 17.7576 11.3491 18.0542L11.9563 18.2618L11.4274 18.5781C10.644 19.0329 9.72352 19.29 8.803 19.3097C8.36233 19.3196 8 19.3592 8 19.3888C8 19.4877 9.19471 20.0413 9.88999 20.2588C11.9758 20.9014 14.4534 20.6246 16.314 19.5272C17.636 18.7462 18.958 17.1941 19.575 15.6913C19.9079 14.8905 20.2409 13.4274 20.2409 12.7254C20.2409 12.2706 20.2703 12.2113 20.8187 11.6676C21.1418 11.3512 21.4454 11.0052 21.5041 10.9063C21.6021 10.7185 21.5923 10.7185 21.0929 10.8866C20.2605 11.1832 20.143 11.1436 20.5543 10.6987C20.8578 10.3824 21.2202 9.80895 21.2202 9.64088C21.2202 9.61122 21.0733 9.66065 20.9068 9.74963C20.7305 9.84849 20.3388 9.99679 20.045 10.0858L19.5162 10.2538L19.0364 9.92758C18.772 9.74963 18.3999 9.5519 18.204 9.49258C17.7046 9.35417 16.9407 9.37395 16.4903 9.53213C15.2662 9.97701 14.4926 11.1238 14.5807 12.3794Z" fill="#F4F4F4"/>
</svg>
