<svg width="14" height="12" viewBox="0 0 14 12" fill="none" xmlns="http://www.w3.org/2000/svg">
<path fill-rule="evenodd" clip-rule="evenodd" d="M6.5807 3.3794L6.61008 3.86383L6.12044 3.80451C4.33817 3.57713 2.78113 2.80599 1.45911 1.51088L0.812795 0.868265L0.646319 1.34281C0.293781 2.40065 0.519014 3.51781 1.25347 4.26917C1.64518 4.6844 1.55704 4.74372 0.881344 4.49656C0.646319 4.41747 0.440672 4.35815 0.421087 4.38781C0.352538 4.45701 0.587563 5.35667 0.773624 5.71258C1.02823 6.2069 1.54725 6.69133 2.11523 6.97803L2.59507 7.20542L2.02709 7.21531C1.4787 7.21531 1.45911 7.22519 1.51787 7.43281C1.71372 8.07542 2.48735 8.75758 3.34911 9.05417L3.95626 9.26178L3.42745 9.57815C2.64403 10.0329 1.72352 10.29 0.803002 10.3097C0.36233 10.3196 0 10.3592 0 10.3888C0 10.4877 1.19471 11.0413 1.88999 11.2588C3.97584 11.9014 6.4534 11.6246 8.31401 10.5272C9.63603 9.74621 10.958 8.19406 11.575 6.69133C11.9079 5.89053 12.2409 4.42735 12.2409 3.72542C12.2409 3.27065 12.2703 3.21133 12.8187 2.66758C13.1418 2.35122 13.4454 2.0052 13.5041 1.90633C13.6021 1.71849 13.5923 1.71849 13.0929 1.88656C12.2605 2.18315 12.143 2.1436 12.5543 1.69872C12.8578 1.38236 13.2202 0.808946 13.2202 0.640878C13.2202 0.611219 13.0733 0.660651 12.9068 0.749628C12.7305 0.848492 12.3388 0.996787 12.045 1.08576L11.5162 1.25383L11.0364 0.927583C10.772 0.749628 10.3999 0.551901 10.204 0.492583C9.70458 0.354174 8.94074 0.373947 8.49028 0.532128C7.26619 0.977015 6.49257 2.12383 6.5807 3.3794Z" fill="#F4F4F4"/>
</svg>
