<svg width="36" height="36" viewBox="0 0 36 36" fill="none" xmlns="http://www.w3.org/2000/svg">
  <g opacity="0.4">
    <path d="M35 4.01569C33.5201 5.06973 31.8814 5.8759 30.1473 6.40316C29.2165 5.32257 27.9795 4.55668 26.6036 4.20907C25.2277 3.86146 23.7792 3.9489 22.4541 4.45956C21.129 4.97023 19.9912 5.87948 19.1946 7.06434C18.398 8.24921 17.981 9.65252 18 11.0845V12.6449C15.2841 12.716 12.5929 12.1078 10.1661 10.8745C7.73933 9.64119 5.65231 7.82103 4.09091 5.57613C4.09091 5.57613 -2.09091 19.6201 11.8182 25.8618C8.63536 28.0433 4.84379 29.1371 1 28.9827C14.9091 36.7849 31.9091 28.9827 31.9091 11.0377C31.9077 10.603 31.8663 10.1694 31.7855 9.7425C33.3628 8.17191 34.4758 6.18893 35 4.01569Z" fill="white"/>
  </g>
</svg>
