<svg width="20" height="20" viewBox="0 0 20 20" fill="none" xmlns="http://www.w3.org/2000/svg">
  <path d="M4.67355 4.05526L12.6466 1.87895L12.2244 1.0255C11.9481 0.470759 11.2743 0.241675 10.7196 0.517924L3.58203 4.05526H4.67355Z" fill="white"/>
  <path d="M15.1214 1.94183C15.0226 1.94183 14.9238 1.95531 14.8249 1.98226L12.9518 2.49433L7.23145 4.05525H13.7244H16.5543L16.2039 2.77058C16.0692 2.26974 15.6155 1.94183 15.1214 1.94183Z" fill="white"/>
  <path d="M17.7249 4.84134H17.4688H17.1207H16.7726H14.1157H4.35261H3.07243H1.99439H1.7945H1.12521C0.770354 4.84134 0.453678 5.00529 0.247052 5.26357C0.152723 5.38261 0.0808535 5.51961 0.0404267 5.67009C0.0157215 5.76442 0 5.86324 0 5.9643V6.09906V7.37924V18.4764C0 19.0963 0.503088 19.5993 1.12296 19.5993H17.7226C18.3425 19.5993 18.8456 19.0963 18.8456 18.4764V15.3433H12.1819C11.1286 15.3433 10.2729 14.4876 10.2729 13.4343V12.4056V12.0575V11.7094V10.9368C10.2729 10.4202 10.4795 9.95085 10.8142 9.60722C11.1106 9.30175 11.5081 9.09513 11.9528 9.04347C12.027 9.03451 12.1033 9.03 12.1797 9.03H17.9113H18.2594H18.6075H18.8456V5.9643C18.8478 5.34443 18.3448 4.84134 17.7249 4.84134Z" fill="white"/>
  <path d="M19.6336 10.1036C19.5213 10.0002 19.3887 9.92163 19.2405 9.86997C19.1259 9.83182 19.0047 9.80936 18.8767 9.80936H18.8475H18.825H18.4769H17.2214H12.1816C11.5617 9.80936 11.0586 10.3124 11.0586 10.9323V11.4915V11.8397V12.1878V13.432C11.0586 14.0519 11.5617 14.555 12.1816 14.555H18.8475H18.8767C19.0047 14.555 19.126 14.5325 19.2405 14.4943C19.3887 14.4449 19.5213 14.3641 19.6336 14.2608C19.8581 14.0564 19.9996 13.7599 19.9996 13.432V10.9323C19.9996 10.6044 19.8581 10.3079 19.6336 10.1036ZM14.5263 12.4056C14.5263 12.7156 14.2748 12.9671 13.9648 12.9671H13.592C13.2821 12.9671 13.0305 12.7156 13.0305 12.4056V12.0328C13.0305 11.8531 13.1136 11.6936 13.2461 11.5926C13.3427 11.5185 13.4618 11.4713 13.592 11.4713H13.6863H13.9648C14.2748 11.4713 14.5263 11.7228 14.5263 12.0328V12.4056Z" fill="white"/>
</svg>
