<svg width="20" height="20" viewBox="0 0 20 20" fill="none" xmlns="http://www.w3.org/2000/svg">
  <path d="M16.5625 5H1.5625C1.38991 5 1.25 5.13991 1.25 5.3125V17.8125C1.25 17.9851 1.38991 18.125 1.5625 18.125H16.5625C16.7351 18.125 16.875 17.9851 16.875 17.8125V5.3125C16.875 5.13991 16.7351 5 16.5625 5Z" fill="white" fill-opacity="0.2"/>
  <path d="M18.4375 9.0625H13.75C13.5774 9.0625 13.4375 9.20241 13.4375 9.375V13.75C13.4375 13.9226 13.5774 14.0625 13.75 14.0625H18.4375C18.6101 14.0625 18.75 13.9226 18.75 13.75V9.375C18.75 9.20241 18.6101 9.0625 18.4375 9.0625Z" fill="#0A42EA"/>
  <path d="M9.375 10C10.0654 10 10.625 9.44036 10.625 8.75C10.625 8.05964 10.0654 7.5 9.375 7.5C8.68464 7.5 8.125 8.05964 8.125 8.75C8.125 9.44036 8.68464 10 9.375 10Z" fill="#0A42EA"/>
  <path d="M5 15C5.69036 15 6.25 14.4404 6.25 13.75C6.25 13.0596 5.69036 12.5 5 12.5C4.30964 12.5 3.75 13.0596 3.75 13.75C3.75 14.4404 4.30964 15 5 15Z" fill="#0A42EA"/>
  <path opacity="0.1" d="M18.7156 9.2375C18.6911 9.18459 18.6518 9.13991 18.6024 9.10886C18.5531 9.0778 18.4958 9.0617 18.4375 9.0625H16.875V5.41875C16.8742 5.33532 16.8627 5.25234 16.8406 5.17187C16.8151 5.11996 16.7755 5.07629 16.7263 5.04589C16.6771 5.01548 16.6203 4.99958 16.5625 5H12.8125V2.09062C12.8121 1.9186 12.7646 1.74998 12.675 1.60312L1.5625 5C1.4797 5.00025 1.40035 5.03325 1.3418 5.0918C1.28325 5.15035 1.25025 5.22969 1.25 5.3125V5.73125H15.625V8.54375H13.125C12.8764 8.54394 12.6381 8.64278 12.4623 8.81855C12.2865 8.99432 12.1877 9.23267 12.1875 9.48125V13.8562C12.1882 14.1047 12.2872 14.3427 12.4629 14.5184C12.6385 14.694 12.8766 14.793 13.125 14.7937H15.625V17.6062H1.25V17.8125C1.25025 17.8953 1.28325 17.9746 1.3418 18.0332C1.40035 18.0917 1.4797 18.1247 1.5625 18.125H16.5625C16.6453 18.1247 16.7246 18.0917 16.7832 18.0332C16.8418 17.9746 16.8748 17.8953 16.875 17.8125V14.0625H18.4375C18.5203 14.0622 18.5996 14.0292 18.6582 13.9707C18.7167 13.9121 18.7498 13.8328 18.75 13.75V9.48125C18.7498 9.39881 18.7382 9.31679 18.7156 9.2375ZM11.5625 4.48125H5.12187L11.5625 2.5125V4.48125ZM17.5 13.5437H13.4375V9.79375H17.5V13.5437Z" fill="white" fill-opacity="0.2"/>
  <path opacity="0.1" d="M8.74999 6.98125C6.64687 7 6.17187 9.91875 8.12499 10.6219V13.2313H6.14062C5.44062 11.275 2.51875 11.7531 2.5 13.8563C2.52156 15.9576 5.43737 16.435 6.14062 14.4812L8.74999 14.4813C8.9156 14.4808 9.07429 14.4148 9.19139 14.2977C9.3085 14.1806 9.3745 14.0219 9.37499 13.8563V10.6219C9.7891 10.4722 10.1374 10.1816 10.3588 9.80095C10.5802 9.42034 10.6607 8.97397 10.5862 8.53997C10.5117 8.10598 10.287 7.71202 9.95126 7.42706C9.61556 7.14209 9.19032 6.98428 8.74999 6.98125ZM4.375 14.4813C4.21073 14.479 4.05396 14.4121 3.93859 14.2952C3.82323 14.1782 3.75855 14.0205 3.75855 13.8563C3.75855 13.692 3.82323 13.5343 3.93859 13.4173C4.05396 13.3004 4.21073 13.2335 4.375 13.2313C4.53926 13.2335 4.69604 13.3004 4.8114 13.4173C4.92676 13.5343 4.99144 13.692 4.99144 13.8563C4.99144 14.0205 4.92676 14.1782 4.8114 14.2952C4.69604 14.4121 4.53926 14.479 4.375 14.4813ZM8.74999 9.48125C8.58572 9.47899 8.42895 9.41214 8.31359 9.29518C8.19822 9.17821 8.13355 9.02053 8.13355 8.85625C8.13355 8.69197 8.19822 8.53429 8.31359 8.41732C8.42895 8.30036 8.58572 8.23352 8.74999 8.23125C8.91426 8.23352 9.07103 8.30036 9.18639 8.41732C9.30175 8.53429 9.36643 8.69197 9.36643 8.85625C9.36643 9.02053 9.30175 9.17821 9.18639 9.29518C9.07103 9.41214 8.91426 9.47899 8.74999 9.48125Z" fill="white" fill-opacity="0.2"/>
  <path opacity="0.1" d="M3.4375 7.29086C3.43512 7.12667 3.36822 6.97001 3.25127 6.85474C3.13431 6.73947 2.9767 6.67486 2.81249 6.67486C2.64828 6.67486 2.49067 6.73948 2.37372 6.85476C2.25677 6.97003 2.18988 7.12669 2.1875 7.29088C2.18988 7.45507 2.25678 7.61173 2.37373 7.727C2.49069 7.84227 2.6483 7.90688 2.81251 7.90688C2.97672 7.90688 3.13433 7.84225 3.25128 7.72698C3.36823 7.61171 3.43512 7.45505 3.4375 7.29086Z" fill="white" fill-opacity="0.2"/>
  <path d="M18.4375 8.54239H17.5V5.41739C17.4997 5.16883 17.4009 4.93053 17.2251 4.75477C17.0494 4.57902 16.8111 4.48016 16.5625 4.47989H13.4375V2.0896C13.4375 1.94306 13.4032 1.79856 13.3372 1.6677C13.2713 1.53684 13.1756 1.42326 13.0578 1.33608C12.94 1.24891 12.8034 1.19057 12.659 1.16574C12.5146 1.14092 12.3664 1.1503 12.2262 1.19314L1.42338 4.49394C1.20184 4.52692 0.999473 4.63822 0.852988 4.80765C0.706504 4.97708 0.625615 5.19341 0.625 5.41739V17.9174C0.625271 18.1659 0.724131 18.4042 0.899887 18.58C1.07564 18.7558 1.31394 18.8546 1.5625 18.8549H16.5625C16.8111 18.8546 17.0494 18.7558 17.2251 18.58C17.4009 18.4042 17.4997 18.1659 17.5 17.9174V14.7924H18.4375C18.6861 14.7921 18.9244 14.6933 19.1001 14.5175C19.2759 14.3417 19.3747 14.1034 19.375 13.8549V9.47989C19.3747 9.23133 19.2759 8.99303 19.1001 8.81727C18.9244 8.64152 18.6861 8.54266 18.4375 8.54239ZM12.1875 2.51196V4.47989H5.74677L12.1875 2.51196ZM16.25 17.6049H1.875V5.72989H16.25V8.54239H13.75C13.5014 8.54266 13.2631 8.64152 13.0874 8.81727C12.9116 8.99303 12.8128 9.23133 12.8125 9.47989V13.8549C12.8128 14.1034 12.9116 14.3417 13.0874 14.5175C13.2631 14.6933 13.5014 14.7921 13.75 14.7924H16.25V17.6049ZM18.125 13.5424H14.0625V9.79239H18.125V13.5424Z" fill="#F4F4F4"/>
  <path d="M9.375 6.97989C7.27165 7.00039 6.79694 9.91997 8.75005 10.6205L8.75 13.2299H6.76562C6.06635 11.2759 3.14317 11.7536 3.125 13.8549C3.12472 14.2971 3.28083 14.7252 3.56573 15.0633C3.85062 15.4015 4.24593 15.628 4.68174 15.7029C5.11755 15.7777 5.56577 15.6959 5.94713 15.4721C6.3285 15.2483 6.61842 14.8969 6.76562 14.4799H9.375C9.54075 14.4799 9.69972 14.414 9.81693 14.2968C9.93414 14.1796 9.99999 14.0206 9.99999 13.8549V10.6205C10.4139 10.4706 10.762 10.18 10.9833 9.79944C11.2046 9.41888 11.285 8.97262 11.2105 8.53873C11.1361 8.10485 10.9114 7.71097 10.5758 7.426C10.2403 7.14103 9.81521 6.98312 9.375 6.97989ZM5 14.4799C4.83581 14.4775 4.67915 14.4106 4.56388 14.2937C4.44862 14.1767 4.384 14.0191 4.384 13.8549C4.38401 13.6907 4.44863 13.5331 4.5639 13.4161C4.67917 13.2992 4.83584 13.2323 5.00003 13.2299C5.16422 13.2323 5.32088 13.2992 5.43614 13.4161C5.55141 13.5331 5.61602 13.6907 5.61602 13.8549C5.61602 14.0191 5.5514 14.1767 5.43612 14.2937C5.32085 14.4106 5.16419 14.4775 5 14.4799ZM9.375 9.47989C9.2108 9.4775 9.05414 9.41061 8.93888 9.29365C8.82361 9.1767 8.759 9.01908 8.759 8.85487C8.75901 8.69066 8.82363 8.53305 8.9389 8.4161C9.05417 8.29915 9.21083 8.23226 9.37502 8.22989C9.53921 8.23227 9.69587 8.29917 9.81114 8.41612C9.92641 8.53308 9.99102 8.69069 9.99102 8.8549C9.99101 9.01911 9.92639 9.17672 9.81112 9.29367C9.69585 9.41062 9.53919 9.47751 9.375 9.47989Z" fill="#F4F4F4"/>
  <path d="M4.0625 7.29086C4.06012 7.12667 3.99322 6.97001 3.87626 6.85474C3.75931 6.73948 3.60169 6.67486 3.43749 6.67487C3.27328 6.67487 3.11566 6.73949 2.99872 6.85476C2.88177 6.97003 2.81488 7.1267 2.8125 7.29089C2.81488 7.45508 2.88178 7.61174 2.99874 7.72701C3.11569 7.84227 3.27331 7.90689 3.43751 7.90688C3.60172 7.90688 3.75934 7.84226 3.87628 7.72699C3.99323 7.61171 4.06012 7.45505 4.0625 7.29086Z" fill="#F4F4F4"/>
</svg>
