<svg width="84" height="84" viewBox="0 0 84 84" fill="none" xmlns="http://www.w3.org/2000/svg">
<mask id="mask0" mask-type="alpha" maskUnits="userSpaceOnUse" x="0" y="0" width="84" height="84">
<rect width="84" height="84" fill="#C4C4C4"/>
</mask>
<g mask="url(#mask0)">
<path d="M12.5236 71.4759C28.874 87.8263 55.332 87.8263 71.5338 71.4759C87.7356 55.1255 87.8842 28.6675 71.5338 12.4657C55.1833 -3.7361 28.7254 -3.88474 12.5236 12.4657C-3.82687 28.6675 -3.82687 55.1255 12.5236 71.4759Z" fill="url(#paint0_linear)"/>
<path d="M12.7962 31.5758C13.0064 31.5758 13.2166 31.3656 13.3217 31.0503C13.3217 30.8401 13.1115 30.6299 12.7962 30.5248C12.586 30.5248 12.3758 30.735 12.2707 31.0503C12.2707 31.4707 12.4809 31.6809 12.7962 31.5758Z" fill="white"/>
<path d="M34.1738 32.615C34.1738 32.8252 34.0687 32.9303 33.7534 33.0354C33.5432 33.0354 33.4381 32.9303 33.3329 32.615C33.3329 32.4048 33.4381 32.2997 33.7534 32.1946C33.9636 32.4048 34.0687 32.5099 34.1738 32.615Z" fill="white"/>
<path d="M25.3447 14.5371C25.3447 14.7473 25.2396 14.8524 24.9243 14.9575C24.7141 14.9575 24.5038 14.7473 24.5038 14.5371C24.5038 14.3269 24.609 14.2218 24.9243 14.1167C25.1345 14.1167 25.2396 14.432 25.3447 14.5371Z" fill="white"/>
<path d="M19.458 29.2524C19.458 29.4626 19.3529 29.5678 19.0375 29.6729C18.8273 29.6729 18.7222 29.5678 18.6171 29.2524C18.6171 29.0422 18.7222 28.9371 19.0375 28.832C19.3529 28.9371 19.458 29.0422 19.458 29.2524Z" fill="white"/>
<path d="M17.5676 20.4233C17.5676 20.6341 17.4622 20.5287 17.4622 20.5287C17.2515 20.5287 17.3569 20.4233 17.3569 20.4233C17.3569 20.2126 17.4622 20.318 17.4622 20.318C17.5676 20.2126 17.5676 20.2126 17.5676 20.4233Z" fill="white"/>
<path d="M26.7114 58.156C26.7114 58.3662 26.6063 58.4713 26.5012 58.3662C26.291 58.3662 26.1859 58.2611 26.291 58.156C26.291 57.9458 26.3961 57.8407 26.5012 57.9458C26.6063 57.8407 26.7114 57.9458 26.7114 58.156Z" fill="white"/>
<path d="M56.1022 48.4575C56.1022 48.8779 55.7869 49.1932 55.3665 49.1932C54.9461 49.1932 54.6307 48.8779 54.6307 48.4575C54.6307 48.0371 54.9461 47.7218 55.3665 47.7218C55.6818 47.6167 56.1022 47.8269 56.1022 48.4575Z" fill="white"/>
<path d="M74.1237 51.23C74.1237 51.6504 73.8084 51.9657 73.388 51.9657C72.9675 51.9657 72.6522 51.6504 72.6522 51.23C72.6522 50.8096 72.9675 50.4942 73.388 50.4942C73.7033 50.3891 74.1237 50.5993 74.1237 51.23Z" fill="white"/>
<path d="M6.19644 37.3672C6.19644 37.7876 5.88113 38.1029 5.46071 38.1029C5.04029 38.1029 4.72498 37.7876 4.72498 37.3672C4.72498 36.9468 5.0403 36.6315 5.46071 36.6315C5.77603 36.5264 6.19644 36.7366 6.19644 37.3672Z" fill="white"/>
<path d="M17.9879 47.54C17.9879 47.9605 17.6726 48.2758 17.2522 48.2758C16.8318 48.2758 16.5165 47.9605 16.5165 47.54C16.5165 47.1196 16.8318 46.8043 17.2522 46.8043C17.5675 46.9094 17.9879 47.1196 17.9879 47.54Z" fill="white"/>
<path d="M63.4969 57.1054C63.7071 57.1054 63.9173 56.8952 64.0224 56.5799C64.0224 56.3697 63.8122 56.1594 63.4969 56.0543C63.2867 56.0543 63.0765 56.2645 62.9713 56.5799C62.9713 57.0003 63.1816 57.2105 63.4969 57.1054Z" fill="white"/>
<path d="M69.9091 27.9905C69.9091 28.2007 69.804 28.3058 69.4887 28.4109C69.2785 28.4109 69.1734 28.3058 69.0683 27.9905C69.0683 27.7803 69.1734 27.6752 69.4887 27.5701C69.804 27.6752 70.0142 27.8854 69.9091 27.9905Z" fill="white"/>
<path d="M11.7861 56.4741C11.7861 56.6843 11.681 56.7894 11.3657 56.8945C11.1555 56.8945 11.0504 56.7894 10.9453 56.4741C10.9453 56.2639 11.0504 56.1588 11.3657 56.0537C11.681 56.1588 11.7861 56.2639 11.7861 56.4741Z" fill="white"/>
<path d="M30.3901 42.4951C30.3901 42.7053 30.285 42.8104 29.9697 42.9155C29.7595 42.9155 29.6544 42.8104 29.5493 42.4951C29.5493 42.2849 29.6544 42.1798 29.9697 42.0747C30.1799 42.2849 30.285 42.39 30.3901 42.4951Z" fill="white"/>
<path d="M63.2871 44.2825C63.2871 44.4927 63.182 44.5978 62.8666 44.7029C62.6564 44.7029 62.5513 44.5978 62.4462 44.2825C62.4462 44.0723 62.5513 43.9672 62.8667 43.8621C63.0769 43.8621 63.2871 44.0723 63.2871 44.2825Z" fill="white"/>
<path d="M62.1311 14.5381C62.1311 14.7483 61.8158 15.0636 61.6055 15.0636C61.3953 15.0636 61.08 14.7483 61.08 14.5381C61.08 14.3279 61.3953 14.0126 61.6055 14.0126C61.8158 14.2228 62.1311 14.3279 62.1311 14.5381Z" fill="white"/>
<path d="M72.0119 38.2905C72.0119 38.5007 71.6966 38.8161 71.4864 38.8161C71.2762 38.8161 70.9609 38.5007 70.9609 38.2905C70.9609 38.0803 71.2762 37.765 71.4864 37.765C71.8017 37.8701 72.0119 38.0803 72.0119 38.2905Z" fill="white"/>
<path d="M70.938 65.6255C71.0906 65.7781 71.0906 65.9306 70.938 66.0832C70.7855 66.2357 70.6329 66.2357 70.4803 66.0831C70.3278 65.9305 70.3277 65.778 70.4803 65.6254C70.6328 65.4729 70.7854 65.4729 70.938 65.6255Z" fill="white"/>
<path d="M56.7578 46.3366C56.8343 46.4131 56.7578 46.4896 56.7578 46.4896C56.6813 46.5661 56.6048 46.4896 56.6048 46.4896C56.5283 46.4131 56.6048 46.3366 56.6048 46.3366C56.6048 46.3366 56.6813 46.2601 56.7578 46.3366Z" fill="white"/>
<path fill-rule="evenodd" clip-rule="evenodd" d="M19.8584 77.7267C19.8126 77.3087 19.7025 76.8969 19.5319 76.5102C20.0433 76.5439 20.5436 76.4195 20.9356 76.1146C21.4961 75.6662 21.7876 75.0085 21.7941 74.317C21.8307 74.2301 21.8642 74.1418 21.8945 74.0521C22.8361 74.3778 23.8777 74.1891 24.4049 73.486C24.6921 73.1032 24.7831 72.6114 24.7078 72.1198C25.0037 71.8654 25.2503 71.5553 25.4313 71.2059C26.0878 71.7106 26.9012 72.0146 27.7682 72.0146C28.7271 72.0146 29.6203 71.6429 30.3083 71.039C31.0946 71.5903 32.0637 71.9095 33.1286 71.9095C34.2639 71.9095 35.2905 71.5467 36.1026 70.9265C36.5215 71.086 36.9719 71.1738 37.4378 71.1738C39.5399 71.1738 41.3267 69.387 41.3267 67.2849C41.3267 65.8593 40.5049 64.5788 39.3204 63.9022C39.7601 63.6264 40.0949 63.2016 40.2751 62.6608C40.5301 61.8958 40.3211 61.1308 39.8123 60.53C40.8798 60.3635 41.6412 59.5051 41.6412 58.5621C41.6412 57.7257 41.0422 56.9559 40.1619 56.6763C40.4923 56.3687 40.6956 55.9557 40.6956 55.5136C40.8008 54.5677 40.065 53.8319 39.014 53.8319C38.068 53.937 37.3323 54.6728 37.3323 55.5136C37.3993 56.1164 37.7224 56.6338 38.1655 56.9299C37.5896 57.3005 37.2268 57.9111 37.2268 58.5621C37.1958 58.9031 37.2654 59.2167 37.4113 59.4894C36.4268 59.5561 35.6481 60.1455 35.3352 61.0842C35.1568 61.6195 35.2056 62.1925 35.4252 62.6991C34.7475 62.3487 33.9678 62.1754 33.1286 62.2399C31.3986 62.2399 29.9214 63.0823 29.0702 64.3938C28.6661 64.2708 28.2286 64.215 27.7682 64.2369C26.0347 64.2369 24.5156 65.4521 24.0362 67.0572C23.6383 66.8666 23.1929 66.7598 22.7228 66.7598C21.2571 66.7598 20.031 67.7977 19.7401 69.1776C19.2655 68.9917 18.7446 68.9132 18.2029 68.9674C16.6367 68.9674 15.2456 69.9592 14.6381 71.3343C13.6586 70.859 12.5462 70.7517 11.5067 70.9782C13.9809 73.5677 16.7874 75.8398 19.8584 77.7267ZM72.4763 70.4579C70.2934 72.822 67.8385 74.9336 65.161 76.7434C65.1341 76.744 65.1073 76.7443 65.0803 76.7443C62.9782 76.7443 61.1915 74.9575 61.1915 72.8555L61.1918 72.7974L61.193 72.7372C60.9254 72.8142 60.6428 72.8554 60.3506 72.8554C59.1729 72.8554 58.1499 72.1853 57.6424 71.2061C56.9859 71.711 56.1724 72.015 55.3052 72.015C54.3362 72.015 53.4343 71.6354 52.7434 71.0202C51.9807 71.5187 51.0583 71.8048 50.05 71.8048C48.9396 71.8048 47.9334 71.4578 47.13 70.8624C46.6667 71.0629 46.1608 71.1746 45.6352 71.1746C43.428 71.2797 41.6412 69.4929 41.7463 67.2857C41.7463 65.6619 42.8125 64.2263 44.2666 63.657C44.2282 63.5735 44.1939 63.4867 44.1639 63.3966C44.1106 63.2366 44.0792 63.0749 44.0677 62.9136C43.5761 62.6416 43.202 62.1933 43.0076 61.6101C42.7299 60.7772 43.094 59.9444 43.7062 59.3234C43.53 59.0669 43.4284 58.769 43.4284 58.4565C43.4284 58.2761 43.4671 58.0956 43.5363 57.9235C42.6587 57.6426 42.0619 56.8741 42.0619 56.0392C42.0619 55.3017 42.5277 54.6159 43.2415 54.2724C42.9023 53.9634 42.6929 53.5447 42.6929 53.096C42.6929 52.045 43.4286 51.5194 44.3745 51.4143C45.3205 51.5194 46.0562 52.2552 46.0562 53.096C46.0005 53.5976 45.7674 54.0401 45.4354 54.3452C46.0702 54.7071 46.4763 55.3506 46.4763 56.0392C46.5164 56.4805 46.3881 56.8758 46.144 57.1959C46.541 57.5106 46.7917 57.9657 46.7917 58.4565C46.7839 58.5269 46.7726 58.5961 46.758 58.6638C47.3133 58.9259 47.7364 59.4002 47.9475 60.0335C48.0006 60.1929 48.0336 60.3556 48.0479 60.5189C48.5374 60.7911 48.91 61.2386 49.1038 61.8201C49.1462 61.9471 49.1757 62.0762 49.1932 62.2061C49.4703 62.1595 49.7565 62.1352 50.05 62.1352C51.8103 62.1352 53.3089 63.0074 54.1525 64.3586C54.517 64.2616 54.9042 64.2182 55.3052 64.2373C56.6476 64.2373 57.8613 64.9659 58.5634 66.04C59.2654 64.9661 60.4791 64.2377 61.8213 64.2377C63.9234 64.2377 65.7101 66.0245 65.7101 68.1266C65.7101 68.4269 65.6737 68.7208 65.605 69.0039C67.0945 69.2167 68.3493 70.3171 68.7953 71.7312C68.8841 71.6477 68.977 71.567 69.0739 71.4895C70.066 70.6958 71.2922 70.3704 72.4763 70.4579Z" fill="#D5E7FA"/>
<path fill-rule="evenodd" clip-rule="evenodd" d="M70.353 72.5824C62.8837 79.5934 52.8144 83.8918 41.7309 83.8919C30.9695 83.8919 21.1642 79.8397 13.7666 73.1868C15.9007 73.3388 17.7117 74.6526 18.5018 76.4303L19.3426 76.4303C20.2885 73.172 23.3366 70.7546 26.9101 70.7546C27.751 70.7546 28.4867 70.8597 29.2224 71.175C29.9582 69.3883 31.7449 68.0219 33.847 68.0219C34.5828 68.127 35.2134 68.3372 35.844 68.5474C36.6849 66.6555 38.5767 65.3943 40.6788 65.3943C41.7299 65.3943 42.5707 65.6045 43.3064 66.13C44.2524 65.1841 45.5136 64.5535 46.9851 64.5535C49.7178 64.5535 51.8199 66.4453 52.2403 68.9678C53.0812 68.7576 53.922 68.7576 54.8679 69.2832C55.4986 69.7036 56.0241 70.2291 56.2343 70.8597C57.1803 69.7036 58.967 69.3883 60.3334 70.124C61.5946 70.7546 62.2253 72.0159 62.0151 73.2771C63.4865 72.0159 65.2733 71.2801 67.2703 71.3853C68.3795 71.5085 69.4405 71.9368 70.353 72.5824ZM55.4986 74.5384C55.3935 74.6435 55.3935 74.6435 55.3935 74.8537V74.8537C55.4986 74.7486 55.4986 74.7486 55.4986 74.5384V74.5384Z" fill="white"/>
</g>
<defs>
<linearGradient id="paint0_linear" x1="16.1051" y1="67.7728" x2="74.9703" y2="8.9077" gradientUnits="userSpaceOnUse">
<stop stop-color="#1E0D39"/>
<stop offset="1" stop-color="#5324A2"/>
</linearGradient>
</defs>
</svg>
