<svg xmlns="http://www.w3.org/2000/svg" viewBox="0 0 639.37 447.66"><defs><style>.cls-1{fill:#fff;}</style></defs><g id="Слой_2" data-name="Слой 2"><g id="Слой_1-2" data-name="Слой 1"><path class="cls-1" d="M626.2,70.05a80.11,80.11,0,0,0-56.35-56.36C519.82,0,319.68,0,319.68,0S119.55,0,69.52,13.17c-26.86,7.37-49,29.49-56.35,56.88C0,120.08,0,223.83,0,223.83S0,328.11,13.17,377.62A80.11,80.11,0,0,0,69.52,434c50.56,13.69,250.17,13.69,250.17,13.69s200.13,0,250.16-13.17a80.11,80.11,0,0,0,56.36-56.35c13.16-50,13.16-153.78,13.16-153.78S639.9,120.08,626.2,70.05ZM256,319.68V128l166.42,95.85Z"/></g></g></svg>