<svg width="380" height="187" viewBox="0 0 380 187" fill="none" xmlns="http://www.w3.org/2000/svg">
<mask id="mask0" mask-type="alpha" maskUnits="userSpaceOnUse" x="0" y="0" width="380" height="187">
<rect width="380" height="187" fill="#C4C4C4"/>
</mask>
<g mask="url(#mask0)">
<mask id="mask1" mask-type="alpha" maskUnits="userSpaceOnUse" x="163" y="-83" width="502" height="289">
<path d="M301.9 115.228C271.415 130.431 235.263 129.818 203.618 141.135C161.686 155.9 163.618 205.108 163.618 205.108L664.779 205.108L664.779 -82.7501C664.779 -82.7501 374.622 -73.2884 362.368 -39.595C340.824 19.2478 373.917 79.5326 301.9 115.228Z" fill="#C4C4C4"/>
</mask>
<g mask="url(#mask1)">
<path d="M115 -91L114.999 223L664.999 223L665 -91L115 -91Z" fill="url(#paint0_linear)"/>
<path opacity="0.2" d="M485.534 159.273C483.54 150.031 481.356 140.719 480.59 131.457C479.219 115.652 481.927 99.5417 488.511 85.1859C495.172 70.51 505.632 57.9084 514.319 44.3388L489.013 17.1443C484.374 36.6715 474.489 54.8471 468.249 73.9938C459.393 101.311 458.028 130.384 456.744 159.008C456.363 167.841 456.035 176.999 457.01 185.816L485.534 159.273ZM427.622 -6.76809C420.7 4.41144 417.644 17.6031 416.016 30.5881C413.764 48.3935 414.001 66.999 420.833 83.5825C424.402 92.1058 429.608 99.9779 432.064 108.913C435.154 120.002 433.616 132.28 427.772 142.207C423.777 149.166 417.89 154.894 414.908 162.406C412.565 168.327 412.267 174.838 412.232 181.229C412.194 193.109 413.063 204.893 414.773 216.642C415.139 219.045 415.505 221.447 415.933 223.916L366.501 269.916C362.044 253.741 367.32 236.238 373.76 220.521C380.551 203.978 388.962 187.298 389.089 169.352C389.187 143.203 371.982 120.563 363.44 95.8462C351.975 62.6293 359.57 30.8753 371.808 -0.71107L425.849 -50.9999L449.166 -25.9435C440.31 -22.0659 432.761 -15.0416 427.622 -6.76809Z" fill="url(#paint1_linear)"/>
<path opacity="0.05" d="M300.248 168.983C305.018 175.408 303.677 184.482 297.252 189.25C290.828 194.018 281.754 192.675 276.984 186.249C272.215 179.824 273.556 170.75 279.98 165.982C286.404 161.214 295.479 162.557 300.248 168.983Z" fill="white"/>
<path d="M298.317 168.584C303.304 173.942 303.003 182.328 297.646 187.314C292.288 192.299 283.902 191.997 278.916 186.638C273.929 181.279 274.229 172.893 279.587 167.907C284.944 162.922 293.33 163.225 298.317 168.584Z" fill="url(#paint2_linear)"/>
<path opacity="0.5" d="M285.086 168.068C278.736 170.458 275.306 177.168 276.859 183.64C276.648 183.177 276.436 182.714 276.225 182.251C273.661 175.4 277.123 167.781 284.009 165.258C290.859 162.696 298.479 166.16 301.004 173.046C301.176 173.546 301.348 174.046 301.444 174.543C298.432 168.55 291.435 165.678 285.086 168.068Z" fill="url(#paint3_linear)"/>
<path opacity="0.5" d="M294.703 168.794C295.118 169.948 294.386 171.288 294.801 172.442C294.972 172.942 295.338 173.335 295.588 173.762C297.885 177.489 294.723 183.07 297.527 186.398C297.674 186.555 297.82 186.712 298.003 186.908C297.489 187.459 296.903 187.932 296.241 188.401C296.212 188.135 296.26 187.871 296.231 187.604C296.103 185.891 294.593 184.583 294.35 182.904C294.199 181.798 294.58 180.711 294.733 179.615C295.101 176.781 293.946 174.044 292.55 171.678C291.762 170.358 288.812 166.873 288.143 164.343C289.474 164.277 290.758 164.476 292 164.786C291.981 165.317 292.04 165.775 292.622 166.479C293.314 167.301 294.323 167.755 294.703 168.794Z" fill="url(#paint4_linear)"/>
<path opacity="0.5" d="M298.872 185.953C298.092 184.407 297.556 182.413 297.617 181.77C297.636 181.239 297.731 180.711 297.75 180.18C297.777 179.422 297.541 178.616 297.795 177.866C297.921 177.529 298.084 177.231 298.134 176.891C298.337 175.456 296.359 174.511 296.411 173.07C296.416 172.919 296.461 172.73 296.618 172.584C296.971 172.255 297.491 172.578 297.781 172.968C298.4 173.712 298.825 174.562 299.211 175.449C299.599 176.261 299.988 177.072 300.376 177.883C300.872 178.888 301.325 180.005 301.06 181.059C300.797 182.036 300.623 182.638 300.602 183.244C300.151 184.177 299.587 185.068 298.872 185.953Z" fill="url(#paint5_linear)"/>
<path opacity="0.5" d="M289.905 188.287C290.191 187.728 290.668 187.138 290.538 186.526C290.34 185.683 289.248 185.454 288.624 184.862C287.308 183.448 289.214 181.087 288.636 179.206C288.197 177.709 286.182 176.725 286.427 175.178C286.522 174.65 286.92 174.132 286.787 173.596C286.66 172.908 285.913 172.577 285.278 172.289C283.114 171.224 281.435 169.341 280.528 167.106C281.544 166.307 282.706 165.666 283.975 165.218C284.359 165.08 284.744 164.942 285.165 164.844C285.261 165.341 285.242 165.871 285.071 166.397C284.903 166.846 284.623 167.254 284.567 167.745C284.445 169.032 285.977 169.732 287.221 169.967C288.466 170.202 290.042 170.714 290.186 171.972C290.3 173.04 289.206 173.911 289.204 175.012C289.212 176.911 292.342 177.517 292.465 179.382C292.567 180.752 290.897 181.793 291 183.163C291.114 184.231 292.23 184.878 292.419 185.948C292.744 187.478 291.058 188.974 291.613 190.437C291.649 190.476 291.686 190.515 291.647 190.552C290.919 190.715 290.232 190.842 289.546 190.894C289.391 189.939 289.499 189.032 289.905 188.287Z" fill="url(#paint6_linear)"/>
<path opacity="0.5" d="M278.838 168.678C278.868 169.969 278.822 171.259 279.134 172.067C279.478 173.067 280.471 173.976 281.538 173.862C281.92 173.8 282.344 173.626 282.762 173.603C283.56 173.594 284.212 174.452 284.297 175.253C284.383 176.053 284.049 176.876 283.831 177.666C283.705 178.003 283.579 178.34 283.681 178.685C283.85 179.261 284.561 179.552 284.882 180.133C285.127 180.712 284.799 181.383 284.403 181.824C283.969 182.302 283.427 182.586 283.065 183.143C282.423 184.107 282.605 185.404 283.215 186.375C283.826 187.346 284.748 188.101 285.594 188.853C286.294 189.448 286.992 190.118 287.613 190.786C285.304 190.589 283.093 189.788 281.204 188.467C281.616 187.57 281.952 186.671 281.563 185.86C281.318 185.282 280.649 184.878 280.598 184.193C280.547 183.507 281.214 182.886 281.239 182.204C281.296 180.611 278.532 180.398 278.092 178.901C277.887 178.286 278.178 177.575 278.011 176.924C277.741 176.003 276.698 175.434 275.844 174.91C276.155 172.567 277.256 170.443 278.838 168.678Z" fill="url(#paint7_linear)"/>
<path opacity="0.05" d="M416.903 139.899C401.072 145.203 383.942 136.671 378.641 120.842C373.34 105.012 381.877 87.8788 397.708 82.574C413.539 77.2692 430.67 85.8013 435.97 101.631C441.271 117.461 432.735 134.594 416.903 139.899Z" fill="white"/>
<path d="M426.784 130.722C416.019 141.487 398.568 141.489 387.806 130.727C377.045 119.965 377.047 102.514 387.811 91.7493C398.576 80.9846 416.027 80.9823 426.789 91.7443C437.551 102.506 437.549 119.957 426.784 130.722Z" fill="url(#paint8_linear)"/>
<path d="M392.524 113.815C388.312 114.382 384.414 116.142 380.579 118.218C380.83 119.223 381.144 120.292 381.521 121.298C382.904 124.944 385.041 128.087 387.618 130.664C396.608 129.72 404.907 125.57 412.703 121.042C419.933 116.829 427.101 112.176 434.771 109.158C434.583 106.706 434.017 104.128 433.137 101.74C428.171 102.432 423.456 103.753 419.18 106.268C415.722 108.343 412.704 111.235 408.869 112.556C403.777 114.38 397.993 112.997 392.524 113.815ZM393.778 135.316C399.562 133.303 405.158 130.725 411.13 129.53C417.292 128.272 423.83 128.271 429.174 125.064C430.368 124.372 431.5 123.492 432.506 122.612C431.248 125.504 429.425 128.081 427.287 130.345C417.04 131.541 406.667 132.359 397.99 137.264C396.544 136.698 395.099 136.007 393.778 135.316ZM414.971 84.705C416.166 85.0192 417.36 85.4591 418.491 85.9619C414.971 87.094 411.324 88.1003 407.741 88.7923C403.592 89.5472 399.442 90.0507 395.23 90.4913C392.904 90.806 390.578 90.9949 388.252 91.3095C389.572 89.9891 391.144 88.7944 392.779 87.7884C396.551 87.7879 400.26 87.976 403.969 87.6612C407.804 87.2206 411.45 86.2143 414.971 84.705ZM413.08 126.072C411.508 126.009 412.64 124.626 413.269 124.123C414.903 122.991 416.538 121.859 418.236 120.79C421.316 118.841 424.586 117.08 427.855 115.571C429.741 114.691 432.382 113.182 434.771 112.427C434.708 113.998 434.456 115.633 434.141 117.205C432.507 117.456 430.872 117.582 429.803 117.897C427.163 118.777 424.648 120.161 422.259 121.67C419.681 123.368 416.537 126.134 413.08 126.072ZM415.409 104.257C411.951 106.08 408.996 109.161 405.223 110.167C401.451 111.174 397.302 109.917 393.53 111.049C392.776 111.301 389.506 112.307 389.004 111.553C388.501 110.924 389.947 109.981 390.575 109.729C391.456 109.352 392.587 109.226 393.53 109.163C395.731 108.974 397.931 109.162 400.069 108.408C403.023 107.339 405.036 104.572 407.739 103C412.077 100.548 417.421 101.364 422.45 101.112C425.719 100.986 428.988 100.231 432.069 99.0365C432.383 99.6022 432.635 100.231 432.886 100.86C432.446 100.922 431.88 100.985 431.44 101.048C425.908 101.552 420.25 101.678 415.409 104.257ZM395.858 94.6405C399.568 93.8227 403.277 92.7535 406.798 91.2442C408.747 90.4267 411.073 89.6091 412.707 90.8663C412.078 92.1237 410.507 92.4382 409.123 92.6899C404.66 93.382 400.259 94.2627 395.795 95.2063C392.589 95.8982 389.383 96.5902 386.553 98.1622C385.233 98.8539 384.039 99.7971 382.655 100.426C382.341 100.615 381.964 100.74 381.587 100.866C382.216 99.2315 383.096 97.5969 384.039 96.1508C388.125 95.8359 392.023 95.4582 395.858 94.6405ZM386.616 102.751C388.691 101.557 390.577 99.922 392.714 98.7901C398.121 95.7718 404.659 95.7709 410.821 94.7643C415.85 94.0092 420.817 92.5626 425.469 90.4246C427.292 91.996 428.926 93.8818 430.309 96.0191C423.079 98.5976 414.781 96.7126 407.488 98.9768C403.653 100.172 400.258 102.435 396.674 104.008C392.085 105.957 387.181 106.838 382.466 108.536C381.523 108.85 380.643 109.228 379.762 109.605C379.888 108.096 380.014 106.587 380.392 105.078C382.592 104.638 384.73 103.883 386.616 102.751Z" fill="url(#paint9_linear)"/>
<path opacity="0.5" d="M427.039 103.564C421.886 90.3624 407.805 83.3231 394.351 86.8454C395.294 86.4052 396.3 85.9021 397.306 85.5248C411.514 79.9906 427.482 87.0297 433.012 101.237C438.542 115.444 431.499 131.413 417.291 136.947C416.285 137.325 415.216 137.639 414.21 137.891C426.47 131.54 432.193 116.765 427.039 103.564Z" fill="url(#paint10_linear)"/>
<path d="M379.95 115.2C380.138 116.269 380.327 117.337 380.641 118.406C376.366 120.921 373.977 122.933 374.417 124.002C374.857 125.071 377.937 125.007 382.778 123.938C389.191 122.554 398.621 119.661 408.995 115.699C419.305 111.674 428.296 107.461 433.891 104.128C438.167 101.613 440.556 99.6011 440.116 98.5324C439.676 97.4637 436.658 97.5898 431.755 98.5963C431.252 97.5905 430.686 96.6476 430.058 95.7675C445.335 91.1763 456.085 89.4775 457.028 91.9292C457.971 94.3809 448.917 100.417 434.52 107.272C427.415 110.73 418.928 114.315 409.811 117.899C400.632 121.421 391.956 124.44 384.412 126.704C369.135 131.295 358.384 132.994 357.442 130.542C356.499 128.091 365.615 122.117 379.95 115.2Z" fill="#EFEFEF"/>
<path opacity="0.4" d="M351.299 197.181C351.606 188.61 358.728 181.982 367.298 182.292C375.869 182.601 382.498 189.726 382.191 198.296C381.884 206.866 374.762 213.494 366.191 213.185C357.724 212.779 351.095 205.655 351.299 197.181Z" fill="url(#paint11_linear)"/>
<path d="M306.35 120.522L309.575 119.64C310.682 119.381 311.877 119.424 312.963 119.763L316.116 120.874C316.212 120.977 316.419 120.785 316.323 120.682L315.44 117.457C315.181 116.35 315.223 115.154 315.562 114.069L316.673 110.916C316.776 110.82 316.584 110.613 316.48 110.709L313.256 111.591C312.149 111.85 310.953 111.807 309.867 111.469L306.714 110.357C306.618 110.254 306.412 110.446 306.508 110.549L307.39 113.774C307.65 114.881 307.607 116.077 307.269 117.162L306.158 120.315C306.151 120.515 306.247 120.618 306.35 120.522Z" fill="#EFEFEF"/>
<path d="M367.75 127.926L368.961 127.571C369.366 127.386 369.861 127.504 370.156 127.614L371.338 128.056L371.441 127.96L371.085 126.75C370.9 126.344 371.018 125.849 371.128 125.554L371.57 124.372L371.474 124.269L370.264 124.624C369.858 124.809 369.363 124.692 369.068 124.581L367.886 124.139L367.783 124.236L368.139 125.446C368.324 125.852 368.206 126.346 368.096 126.642L367.75 127.926Z" fill="#EFEFEF"/>
<path d="M347.191 89.0678C347.885 89.1927 348.401 88.7124 348.526 88.0184C348.65 87.3244 348.17 86.8082 347.476 86.6833C346.782 86.5585 346.266 87.0387 346.141 87.7327C346.12 88.3307 346.497 88.943 347.191 89.0678Z" fill="#EFEFEF"/>
<path d="M366.92 167.811C368.109 168.053 369.237 167.196 369.383 165.904C369.625 164.715 368.768 163.587 367.476 163.44C366.287 163.198 365.159 164.055 365.013 165.347C364.867 166.639 365.724 167.767 366.92 167.811Z" fill="#EFEFEF"/>
<path d="M262.894 149.786C263.204 149.498 263.218 149.1 262.93 148.79C262.642 148.48 262.243 148.466 261.934 148.754C261.624 149.042 261.61 149.441 261.898 149.75C262.289 149.964 262.688 149.978 262.894 149.786Z" fill="#EFEFEF"/>
<path d="M355.457 81.1829C355.722 81.468 355.706 81.9142 355.421 82.1794C355.136 82.4447 354.69 82.4286 354.425 82.1435C354.159 81.8583 354.175 81.4122 354.46 81.1469C354.745 80.8817 355.192 80.8978 355.457 81.1829Z" fill="#EFEFEF"/>
<path d="M346.18 120.064C346.49 119.776 346.504 119.377 346.216 119.067C345.928 118.757 345.529 118.743 345.219 119.031C344.91 119.319 344.895 119.718 345.184 120.028C345.472 120.338 345.87 120.352 346.18 120.064Z" fill="#EFEFEF"/>
<path d="M377.044 158.198C377.56 157.718 377.589 156.921 377.109 156.404C376.628 155.888 375.831 155.859 375.315 156.34C374.799 156.82 374.77 157.617 375.25 158.133C375.93 158.657 376.631 158.582 377.044 158.198Z" fill="#EFEFEF"/>
</g>
<path d="M210.616 188C206.931 171.043 212.732 152.723 242.619 143.088C246.395 142.395 250.095 141.742 253.729 141.1C275.351 137.282 294.647 133.874 313.986 125.068C349.241 109.113 350.524 85.8209 351.924 60.4205C352.643 47.3732 353.392 33.7699 358.793 20.3186C368.107 0.572202 386.897 -2.83294 408 -4.37872L408 -10.8305C362.21 -11.5558 344.889 -10.1985 338.713 -1.91431C334.925 3.16646 335.328 10.8519 335.927 22.2594C336.373 30.7571 336.927 41.3199 335.938 54.4107C331.682 108.373 292.495 114.821 256.239 120.788C245.898 122.489 235.795 124.152 226.809 126.867C223.137 127.985 219.508 129.026 215.944 130.048C185.588 138.756 160.045 146.084 154 188L210.616 188Z" fill="url(#paint12_linear)"/>
</g>
<path d="M265.5 154.7C301.178 154.7 330.1 125.778 330.1 90.1C330.1 54.4224 301.178 25.5 265.5 25.5C229.823 25.5 200.9 54.4224 200.9 90.1C200.9 125.778 229.823 154.7 265.5 154.7Z" fill="url(#paint13_radial)"/>
<path opacity="0.5" d="M207.5 96.6999C207.5 60.9999 236.4 32.0999 272.1 32.0999C288.4 32.0999 303.2 38.0999 314.6 48.0999C302.8 34.4999 285.4 25.8999 266 25.8999C230.3 25.8999 201.4 54.7999 201.4 90.4999C201.4 109.9 210 127.3 223.5 139.1C213.5 127.8 207.5 112.9 207.5 96.6999Z" fill="url(#paint14_radial)"/>
<path opacity="0.5" d="M216.7 122C200.5 90.3 213 51.4 244.8 35.1C259.3 27.7 275.3 26.3 289.9 30C273.2 23.3 253.8 23.6 236.6 32.5C204.8 48.7 192.2 87.6 208.5 119.4C217.3 136.7 232.9 148.3 250.3 152.6C236.2 147 224.1 136.5 216.7 122Z" fill="url(#paint15_radial)"/>
<path opacity="0.5" d="M294.2 32.2C305.7 42.1 313.1 56.6999 313.1 73.0999C313.1 102.8 289 126.8 259.4 126.8C229.7 126.8 205.7 102.7 205.7 73.0999C205.7 69.9999 206 66.9 206.5 63.9C202.9 71.9 200.9 80.7999 200.9 90.0999C200.9 125.8 229.8 154.7 265.5 154.7C301.2 154.7 330.1 125.8 330.1 90.0999C330.1 64.6999 315.5 42.8 294.2 32.2Z" fill="url(#paint16_radial)"/>
<path opacity="0.5" d="M246.1 27.8C261.2 27 276.6 32.6 287.9 44.4C308.3 65.9 307.5 99.9 285.9 120.3C264.4 140.7 230.4 139.9 210 118.3C207.8 116 205.9 113.6 204.2 111.1C207.1 119.4 211.8 127.2 218.2 133.9C242.8 159.8 283.7 160.8 309.5 136.3C335.3 111.8 336.4 70.8 311.9 45C294.4 26.7 268.8 20.9 246.1 27.8Z" fill="url(#paint17_radial)"/>
<g opacity="0.5">
<path opacity="0.5" d="M364.5 40C360.5 31.8 347.2 30.6 323.7 36.5C318.4 37.8 312.8 39.5 306.9 41.4C308.4 42.5 309.7 43.7 311 45C312.8 46.5 314.4 48.2 316 50C318.7 49.2 321.3 48.4 323.9 47.8C347.5 41.6 353.7 44.3 354.6 44.9C354.5 46 352.8 52.6 333.3 67.2C317.6 79 295.9 91.9 272 103.4C248.1 114.9 224.6 124 205.6 129C182 135.2 175.8 132.5 174.9 131.9C175 130.8 176.7 124.2 196.2 109.6C198.3 108 200.6 106.4 202.9 104.7C201.7 100.8 201 96.9 201.1 92.8C196.2 96.1 191.7 99.3 187.6 102.5C168.4 117.3 161.1 128.5 165 136.7C167.3 141.5 172.8 143.9 181.6 143.9C187.9 143.9 196 142.7 205.8 140.2C225.9 135.2 251.1 125.6 276.7 113.1C302.4 100.7 325.5 86.8 341.9 74.2C361.1 59.4 368.5 48.2 364.5 40Z" fill="url(#paint18_radial)"/>
</g>
<path opacity="0.5" d="M278.6 105.3C355.3 68.6999 366.6 45.1999 358.5 39.3999C350.8 33.8999 327.9 39.6999 311.9 45.6999C313.4 46.9999 314.8 48.3999 316.1 49.8999C318.8 49.0999 321.4 48.2999 324 47.6999C347.6 41.4999 353.8 44.1999 354.7 44.7999C354.6 45.8999 352.9 52.4999 333.4 67.0999C317.7 78.8999 296 91.7999 272.1 103.3C248.2 114.8 224.6 124 205.6 129C182 135.2 175.8 132.5 174.9 131.9C175 130.8 176.7 124.2 196.2 109.6C198.3 108 200.6 106.4 202.9 104.7C202.1 102.3 201.6 99.7999 201.3 97.1999C192.6 103.4 162.4 125.9 169.2 133.5C177.2 142.3 201.9 141.9 278.6 105.3Z" fill="url(#paint19_radial)"/>
<g clip-path="url(#clip0)">
<path d="M32.7996 93.4C50.8593 93.4 65.4996 78.7597 65.4996 60.7C65.4996 42.6403 50.8593 28 32.7996 28C14.7399 28 0.0996094 42.6403 0.0996094 60.7C0.0996094 78.7597 14.7399 93.4 32.7996 93.4Z" fill="url(#paint20_radial)"/>
<path d="M63.0998 48.4001C62.4998 52.1001 61.1998 55.7001 59.0998 59.0001C50.2998 73.5001 31.3998 78.2001 16.8998 69.4001C8.89976 64.6001 3.89976 56.7001 2.49976 48.1001C-3.60024 62.8001 1.69976 80.2001 15.7998 88.7001C31.2998 98.1001 51.3998 93.1001 60.7998 77.6001C66.2998 68.5001 66.7998 57.7001 63.0998 48.4001Z" fill="url(#paint21_radial)"/>
<path d="M62.8997 73.5C59.8997 75.6 56.3997 77.3 52.5997 78.2C36.0997 82.3 19.4997 72.2 15.3997 55.7C13.1997 46.6 15.1997 37.5 20.1997 30.5C5.49971 36.6 -3.00029 52.7 0.999712 68.6C5.29971 86.2 23.0997 96.9 40.5997 92.6C50.9997 90 58.9997 82.7 62.8997 73.5Z" fill="url(#paint22_radial)"/>
<path d="M39.3996 47.3C38.0996 49.4 35.3996 50.1 33.2996 48.8C31.1996 47.5 30.4996 44.8 31.7996 42.7C33.0996 40.6 35.7996 39.9 37.8996 41.2C39.9996 42.4 40.6996 45.2 39.3996 47.3Z" fill="#E3AD27"/>
<path d="M31.6995 57.0999C31.6995 57.1999 31.6995 57.1999 31.7995 57.2999C32.0995 58.1999 32.7995 58.8999 33.7995 58.8999C34.7995 58.8999 35.5995 58.2999 35.8995 57.3999C35.9995 57.1999 35.9995 56.9999 35.9995 56.8999C36.0995 56.0999 35.3995 55.2999 34.6995 54.8999C33.9995 54.5999 32.9995 54.6999 32.3995 55.2999C32.3995 55.3999 32.2995 55.3999 32.2995 55.4999C31.7995 55.8999 31.3995 56.4999 31.6995 57.0999Z" fill="#E3AD27"/>
<path d="M42.4998 54.7C42.3998 54.7 42.3998 54.7 42.2998 54.7C41.6998 54.6 40.9998 54.8 40.6998 55.3C40.3998 55.9 40.4998 56.5 40.8998 57.1L40.9998 57.2C41.5998 58 42.8998 57.7 43.3998 56.9C43.8998 56.2 43.4998 55 42.4998 54.7Z" fill="#E3AD27"/>
<path d="M48.9996 47.5001C52.0996 49.4001 55.0996 44.5001 51.8996 42.6001C48.8996 40.8001 45.8996 45.6001 48.9996 47.5001Z" fill="#E3AD27"/>
<path d="M51.5998 58.3C52.5998 58.9 53.5998 57.3 52.5998 56.7C51.5998 56.1 50.5998 57.7 51.5998 58.3Z" fill="#E3AD27"/>
<path d="M23.5999 53.4001C24.5999 54.0001 26.0999 53.7001 26.6999 52.6001C27.2999 51.5001 26.9999 50.2001 25.8999 49.5001C24.8999 48.9001 23.3999 49.2001 22.7999 50.3001C22.1999 51.3001 22.4999 52.7001 23.5999 53.4001Z" fill="#E3AD27"/>
<path d="M24.5999 38.3001C26.2999 39.3001 27.8999 36.7001 26.1999 35.6001C24.4999 34.6001 22.8999 37.3001 24.5999 38.3001Z" fill="#E3AD27"/>
<path d="M18.4999 43.0001C18.3999 43.0001 18.2999 43.0001 18.2999 43.0001C17.2999 42.9001 16.4999 44.2001 16.9999 45.1001C16.9999 45.2001 17.0999 45.2001 17.0999 45.3001C17.6999 46.3001 19.1999 46.4001 19.7999 45.4001C20.3999 44.3001 19.5999 43.1001 18.4999 43.0001Z" fill="#E3AD27"/>
<path d="M37.9999 36.8C38.5999 37.2 39.3999 37.3 40.0999 37.1C40.7999 36.9 41.4999 36.4 41.7999 35.8C42.4999 34.5 42.1999 32.8 40.8999 31.9C40.2999 31.5 39.4999 31.4 38.7999 31.6C38.0999 31.8 37.3999 32.3 37.0999 32.9C36.2999 34.2 36.6999 35.9 37.9999 36.8Z" fill="#E3AD27"/>
<path d="M38.7997 67.8001C40.0997 68.6001 41.3997 66.6001 39.9997 65.8001C38.6997 64.9001 37.4997 67.0001 38.7997 67.8001Z" fill="#E3AD27"/>
<path d="M44.5 65.7C45.7 66.4 46.8 64.6 45.6 63.8C44.4 63.1 43.3 64.9 44.5 65.7Z" fill="#E3AD27"/>
<path d="M43.8998 49.9C45.1998 50.7 46.3997 48.7 45.0997 47.9C43.7997 47.1 42.5998 49.1 43.8998 49.9Z" fill="#E3AD27"/>
<path d="M40.6999 42.2999C41.7999 42.9999 42.7999 41.2999 41.6999 40.5999C40.5999 39.9999 39.5999 41.6999 40.6999 42.2999Z" fill="#E3AD27"/>
<path d="M7.8996 63.2001C8.8996 63.8001 10.4996 63.5001 11.0996 62.4001C11.6996 61.3001 11.3996 59.9001 10.2996 59.2001C9.2996 58.6001 7.6996 58.9001 7.0996 60.0001C6.4996 61.1001 6.6996 62.5001 7.8996 63.2001Z" fill="#E3AD27"/>
<path d="M15.8998 77.8001C16.2998 78.0001 16.5998 77.5001 16.1998 77.2001C15.7998 77.1001 15.4998 77.6001 15.8998 77.8001Z" fill="#E3AD27"/>
<path d="M22.1997 77.3001C23.4997 78.1001 24.7997 76.1001 23.3997 75.3001C22.1997 74.5001 20.8997 76.5001 22.1997 77.3001Z" fill="#E3AD27"/>
<path d="M22.9996 85.9999C25.3996 87.4999 27.6996 83.6999 25.2996 82.1999C22.8996 80.7999 20.5996 84.5999 22.9996 85.9999Z" fill="#E3AD27"/>
<path d="M12.8998 76.6C12.8998 76.5 12.8998 76.5 12.8998 76.4C12.9998 75.5 11.7998 74.8 11.0998 75.3L10.9998 75.4C10.5998 75.7 10.2998 76 10.2998 76.5C10.2998 77 10.4998 77.4 10.8998 77.7C11.2998 77.9 11.7998 78 12.1998 77.7C12.6998 77.5 12.7998 77 12.8998 76.6Z" fill="#E3AD27"/>
<path d="M44.9996 77.7C45.6996 78.1 46.7996 77.9 47.1996 77.2C47.5996 76.4 47.3996 75.5 46.6996 75C45.9996 74.6 44.8996 74.8 44.4996 75.5C43.9996 76.3 44.1996 77.2 44.9996 77.7Z" fill="#E3AD27"/>
<path d="M50 79.8999C50.1 79.9999 50.1 79.8999 50 79.8999V79.8999Z" fill="#E3AD27"/>
<path d="M55.4996 63.5999C56.6996 64.2999 57.7996 62.4999 56.5996 61.6999C55.4996 60.9999 54.2996 62.7999 55.4996 63.5999Z" fill="#E3AD27"/>
<path d="M52.5995 81.3C54.3995 82.4 56.0995 79.6 54.2995 78.5C52.4995 77.4 50.6995 80.2 52.5995 81.3Z" fill="#E3AD27"/>
<path d="M45.1999 64.2C41.2999 70.6 43.3999 79 49.7999 82.9C51.3999 83.9 53.1999 84.5 54.9999 84.7C57.1999 82.7 59.1999 80.3 60.7999 77.6C63.9999 72.3 65.4999 66.5 65.4999 60.7C64.9999 60.3 64.4999 59.9 63.8999 59.6C57.4999 55.7 49.0999 57.8 45.1999 64.2Z" fill="#E3AD27"/>
<path d="M62.6998 47.5C61.2998 44.2 59.2998 41.2 56.7998 38.5C56.3998 38.9 55.9998 39.3 55.6998 39.8C54.1998 42.4 54.9998 45.7 57.4998 47.2C59.1998 48.3 61.0998 48.3 62.6998 47.5Z" fill="#E3AD27"/>
<path d="M15.7999 88.7999C17.1999 89.5999 18.5999 90.2999 19.9999 90.8999C21.2999 89.9999 22.3999 88.7999 23.1999 87.2999C26.7999 81.2999 24.8999 73.5999 18.8999 69.8999C13.3999 66.5999 6.2999 67.9999 2.3999 72.9999C4.9999 79.3999 9.4999 84.9999 15.7999 88.7999Z" fill="#E3AD27"/>
<path d="M2.49971 48.3C1.29971 51.2 0.499707 54.3 0.199707 57.4C1.69971 57.2 2.99971 56.4 3.89971 55C5.19971 52.7 4.59971 49.8 2.49971 48.3Z" fill="#E3AD27"/>
<path d="M37.6995 89.3C34.7995 87.5 30.8995 88.5 29.1995 91.4C28.8995 92 28.5995 92.6 28.4995 93.2C32.4995 93.7 36.5995 93.5 40.3995 92.6C39.8995 91.3 38.9995 90.1 37.6995 89.3Z" fill="#E3AD27"/>
<path d="M34.8995 83.9C37.2995 85.3 40.3995 84.6 41.7995 82.2C43.1995 79.8 42.4995 76.7 40.0995 75.3C37.6995 73.9 34.5995 74.6 33.1995 77C31.7995 79.3 32.5995 82.4 34.8995 83.9Z" fill="#E3AD27"/>
</g>
<defs>
<linearGradient id="paint0_linear" x1="543.2" y1="-44.2953" x2="141.503" y2="184.119" gradientUnits="userSpaceOnUse">
<stop stop-color="#271A6B"/>
<stop offset="0.2115" stop-color="#2E1B71"/>
<stop offset="0.5268" stop-color="#431E81"/>
<stop offset="0.9052" stop-color="#64249B"/>
<stop offset="1" stop-color="#6D25A2"/>
</linearGradient>
<linearGradient id="paint1_linear" x1="330.002" y1="38.431" x2="462.459" y2="180.771" gradientUnits="userSpaceOnUse">
<stop stop-color="#BD1ACD"/>
<stop offset="0.193" stop-color="#B61BC9"/>
<stop offset="0.4806" stop-color="#A11EBE"/>
<stop offset="0.8258" stop-color="#8022AC"/>
<stop offset="1" stop-color="#6D25A2"/>
</linearGradient>
<linearGradient id="paint2_linear" x1="284" y1="165.186" x2="293.237" y2="189.978" gradientUnits="userSpaceOnUse">
<stop stop-color="#9796FE"/>
<stop offset="0.9927" stop-color="#FF7DFF"/>
</linearGradient>
<linearGradient id="paint3_linear" x1="284" y1="165.186" x2="289.156" y2="179.025" gradientUnits="userSpaceOnUse">
<stop stop-color="#9796FE"/>
<stop offset="0.9927" stop-color="#FF7DFF"/>
</linearGradient>
<linearGradient id="paint4_linear" x1="289.91" y1="163.706" x2="298.762" y2="187.464" gradientUnits="userSpaceOnUse">
<stop stop-color="#9796FE"/>
<stop offset="0.9927" stop-color="#FF7DFF"/>
</linearGradient>
<linearGradient id="paint5_linear" x1="296.197" y1="172.662" x2="300.867" y2="185.196" gradientUnits="userSpaceOnUse">
<stop stop-color="#9796FE"/>
<stop offset="0.9927" stop-color="#FF7DFF"/>
</linearGradient>
<linearGradient id="paint6_linear" x1="283.826" y1="165.251" x2="293.029" y2="189.952" gradientUnits="userSpaceOnUse">
<stop stop-color="#9796FE"/>
<stop offset="0.9927" stop-color="#FF7DFF"/>
</linearGradient>
<linearGradient id="paint7_linear" x1="277.782" y1="169.077" x2="286.064" y2="191.306" gradientUnits="userSpaceOnUse">
<stop stop-color="#9796FE"/>
<stop offset="0.9927" stop-color="#FF7DFF"/>
</linearGradient>
<linearGradient id="paint8_linear" x1="433.047" y1="101.267" x2="381.57" y2="121.218" gradientUnits="userSpaceOnUse">
<stop stop-color="#ED1771"/>
<stop offset="0.1382" stop-color="#EE1E73"/>
<stop offset="0.3452" stop-color="#F13378"/>
<stop offset="0.5955" stop-color="#F65481"/>
<stop offset="0.8772" stop-color="#FC838D"/>
<stop offset="0.9842" stop-color="#FF9692"/>
</linearGradient>
<linearGradient id="paint9_linear" x1="436.566" y1="102.241" x2="376.521" y2="117.601" gradientUnits="userSpaceOnUse">
<stop stop-color="#FF327E"/>
<stop offset="0.1285" stop-color="#FF397F"/>
<stop offset="0.3212" stop-color="#FF4E83"/>
<stop offset="0.5542" stop-color="#FF6F89"/>
<stop offset="0.8162" stop-color="#FF9E91"/>
<stop offset="0.9842" stop-color="#FFBF97"/>
</linearGradient>
<linearGradient id="paint10_linear" x1="433.048" y1="101.268" x2="404.312" y2="112.405" gradientUnits="userSpaceOnUse">
<stop stop-color="#9796FE"/>
<stop offset="0.9927" stop-color="#FF7DFF"/>
</linearGradient>
<linearGradient id="paint11_linear" x1="356.248" y1="186.406" x2="377.291" y2="209.019" gradientUnits="userSpaceOnUse">
<stop stop-color="#BD1ACD"/>
<stop offset="0.193" stop-color="#B61BC9"/>
<stop offset="0.4806" stop-color="#A11EBE"/>
<stop offset="0.8258" stop-color="#8022AC"/>
<stop offset="1" stop-color="#6D25A2"/>
</linearGradient>
<linearGradient id="paint12_linear" x1="192.76" y1="49.5127" x2="278.739" y2="110.817" gradientUnits="userSpaceOnUse">
<stop stop-color="#E2BAE7"/>
<stop offset="1" stop-color="#EFEFEF"/>
</linearGradient>
<radialGradient id="paint13_radial" cx="0" cy="0" r="1" gradientUnits="userSpaceOnUse" gradientTransform="translate(243.682 58.3034) scale(129.023)">
<stop stop-color="#D1E1EE"/>
<stop offset="0.337" stop-color="#8EE1EE"/>
<stop offset="0.937" stop-color="#5E8DEC"/>
</radialGradient>
<radialGradient id="paint14_radial" cx="0" cy="0" r="1" gradientUnits="userSpaceOnUse" gradientTransform="translate(252.044 45.669) scale(97.7098)">
<stop offset="0.00370374" stop-color="#8EE1EE"/>
<stop offset="0.937" stop-color="#5E8DEC"/>
</radialGradient>
<radialGradient id="paint15_radial" cx="0" cy="0" r="1" gradientUnits="userSpaceOnUse" gradientTransform="translate(233.147 56.3615) rotate(-27.0724) scale(97.7102)">
<stop offset="0.00370374" stop-color="#8EE1EE"/>
<stop offset="0.937" stop-color="#5E8DEC"/>
</radialGradient>
<radialGradient id="paint16_radial" cx="0" cy="0" r="1" gradientUnits="userSpaceOnUse" gradientTransform="translate(304.029 90.9358) scale(246.834)">
<stop offset="0.00370374" stop-color="#8EE1EE"/>
<stop offset="0.937" stop-color="#5E8DEC"/>
</radialGradient>
<radialGradient id="paint17_radial" cx="0" cy="0" r="1" gradientUnits="userSpaceOnUse" gradientTransform="translate(293.594 63.6818) rotate(-43.5252) scale(246.835)">
<stop offset="0.00370374" stop-color="#8EE1EE"/>
<stop offset="0.937" stop-color="#5E8DEC"/>
</radialGradient>
<radialGradient id="paint18_radial" cx="0" cy="0" r="1" gradientUnits="userSpaceOnUse" gradientTransform="translate(264.775 88.3272) scale(81.3521)">
<stop offset="0.00370374" stop-color="#8EE1EE"/>
<stop offset="0.937" stop-color="#5E8DEC"/>
</radialGradient>
<radialGradient id="paint19_radial" cx="0" cy="0" r="1" gradientUnits="userSpaceOnUse" gradientTransform="translate(264.458 87.7449) scale(76.8206)">
<stop offset="0.00370374" stop-color="#8EE1EE"/>
<stop offset="0.937" stop-color="#5E8DEC"/>
</radialGradient>
<radialGradient id="paint20_radial" cx="0" cy="0" r="1" gradientUnits="userSpaceOnUse" gradientTransform="translate(42.3613 37.5648) rotate(31.177) scale(63.3543)">
<stop offset="0.0814815" stop-color="#FFE245"/>
<stop offset="0.9963" stop-color="#E38427"/>
</radialGradient>
<radialGradient id="paint21_radial" cx="0" cy="0" r="1" gradientUnits="userSpaceOnUse" gradientTransform="translate(39.5805 42.5573) rotate(31.177) scale(58.8317)">
<stop offset="0.0037037" stop-color="#E38427"/>
<stop offset="0.9185" stop-color="#FFE245"/>
</radialGradient>
<radialGradient id="paint22_radial" cx="0" cy="0" r="1" gradientUnits="userSpaceOnUse" gradientTransform="translate(50.4322 52.7457) rotate(76.1778) scale(58.832)">
<stop offset="0.0037037" stop-color="#E38427"/>
<stop offset="0.9185" stop-color="#FFE245"/>
</radialGradient>
<clipPath id="clip0">
<rect width="65.5" height="65.5" fill="white" transform="translate(0 28)"/>
</clipPath>
</defs>
</svg>
