<svg width="175" height="126" viewBox="0 0 175 126" fill="none" xmlns="http://www.w3.org/2000/svg">
<g clip-path="url(#clip0)">
<path d="M79 113.349C106.952 117.6 133.062 98.3627 137.319 70.3803C141.575 42.3979 122.365 16.2671 94.4129 12.0156C66.4606 7.76398 40.3505 27.0016 36.0943 54.9839C31.8382 82.9663 51.0477 109.097 79 113.349Z" fill="url(#paint0_radial)"/>
<path d="M79.6671 108.97C105.204 112.854 129.057 95.2794 132.946 69.7152C136.834 44.1511 119.285 20.2785 93.748 16.3944C68.2113 12.5102 44.3576 30.0853 40.4693 55.6494C36.581 81.2136 54.1304 105.086 79.6671 108.97Z" fill="url(#paint1_radial)"/>
<path opacity="0.5" d="M133.167 68.2405C133.187 68.1065 133.207 67.9724 133.228 67.8384C133.289 67.4363 133.305 67.0274 133.36 66.6699C133.373 66.5806 133.394 66.4465 133.407 66.3572C133.438 65.8589 133.468 65.3606 133.498 64.8624C133.511 64.773 133.525 64.6837 133.494 64.5875C133.51 64.1786 133.527 63.7697 133.543 63.3608C133.564 63.2268 133.54 63.0859 133.553 62.9966C133.539 62.4915 133.562 62.0379 133.548 61.5329C133.533 61.0278 133.519 60.5228 133.504 60.0177C133.518 59.9284 133.487 59.8322 133.507 59.6982C133.479 59.2825 133.451 58.8668 133.423 58.4511C133.436 58.3618 133.398 58.3103 133.412 58.2209C133.353 57.7091 133.294 57.1973 133.228 56.7301L133.235 56.6854C133.169 56.2183 133.103 55.7511 133.037 55.2839C133.006 55.1878 133.012 55.1431 132.981 55.047C132.812 54.0612 132.597 53.0686 132.383 52.076C132.39 52.0313 132.352 51.9799 132.359 51.9352C132.248 51.4612 132.138 50.9873 132.02 50.558C132.027 50.5133 131.982 50.5065 131.989 50.4619C131.73 49.4625 131.42 48.501 131.065 47.5328C131.072 47.4881 131.027 47.4813 131.034 47.4366C130.679 46.4684 130.324 45.5001 129.917 44.5697C130.506 50.0077 131.157 58.3351 125.824 59.1697C118.989 60.2785 110.385 52.2957 92.7045 58.6577C75.017 65.0643 75.7068 76.1404 60.7094 77.4706C45.5984 78.6464 39.9566 63.8 39.9566 63.8L40.1572 66.9848C41.9242 86.5902 56.0333 103.41 75.6293 108.174C75.8524 108.207 76.1134 108.293 76.3366 108.327C76.5151 108.354 76.6869 108.426 76.8654 108.453C77.1778 108.5 77.5281 108.599 77.8405 108.647C77.9744 108.667 78.1529 108.694 78.2868 108.715C78.7777 108.79 79.2173 108.902 79.7082 108.977C105.237 112.86 129.1 95.2784 132.987 69.7217C133.062 69.2302 133.136 68.7388 133.167 68.2405Z" fill="url(#paint2_radial)"/>
<path opacity="0.34" d="M131.615 67.0442C131.636 66.9101 131.656 66.7761 131.676 66.642C131.738 66.2399 131.747 65.8757 131.809 65.4736C131.822 65.3842 131.843 65.2502 131.856 65.1608C131.886 64.6626 131.91 64.209 131.94 63.7107C131.953 63.6214 131.967 63.532 131.936 63.4359C131.952 63.027 131.969 62.6181 131.985 62.2091C132.006 62.0751 131.975 61.979 131.995 61.8449C131.974 61.3846 132.004 60.8863 131.983 60.4259C131.968 59.9209 131.947 59.4605 131.932 58.9554C131.946 58.8661 131.915 58.7699 131.928 58.6806C131.9 58.2649 131.872 57.8492 131.844 57.4335C131.858 57.3441 131.82 57.2927 131.834 57.2033C131.774 56.6915 131.708 56.2243 131.649 55.7125L131.656 55.6678C131.59 55.2006 131.524 54.7335 131.458 54.2663C131.427 54.1702 131.434 54.1255 131.403 54.0293C131.233 53.0435 131.057 52.1024 130.842 51.1099C130.849 51.0652 130.811 51.0137 130.818 50.969C130.708 50.4951 130.59 50.0658 130.48 49.5919C130.487 49.5472 130.442 49.5404 130.449 49.4957C130.183 48.541 129.872 47.5796 129.562 46.6181C129.569 46.5734 129.524 46.5666 129.531 46.5219C129.3 45.9383 129.114 45.3614 128.89 44.733C129.069 45.3546 129.293 45.9829 129.473 46.6045C129.466 46.6492 129.511 46.656 129.504 46.7006C129.614 47.1746 129.732 47.6039 129.842 48.0778C129.836 48.1225 129.873 48.174 129.867 48.2186C130.088 49.1665 130.302 50.1591 130.427 51.1381C130.458 51.2343 130.451 51.2789 130.482 51.3751C130.548 51.8423 130.614 52.3094 130.68 52.7766L130.673 52.8213C130.733 53.3331 130.799 53.8003 130.858 54.3121C130.844 54.4015 130.882 54.4529 130.868 54.5423C130.896 54.958 130.925 55.3737 130.953 55.7894C130.939 55.8787 130.97 55.9749 130.957 56.0642C130.971 56.5693 130.992 57.0296 131.007 57.5347C131.028 57.9951 130.998 58.4933 131.019 58.9537C130.999 59.0877 131.03 59.1839 131.01 59.3179C130.993 59.7268 130.977 60.1357 130.96 60.5446C130.946 60.634 130.933 60.7234 130.964 60.8195C130.934 61.3178 130.91 61.7714 130.88 62.2696C130.867 62.359 130.846 62.493 130.833 62.5824C130.816 62.9913 130.762 63.3487 130.701 63.7508C130.68 63.8849 130.66 64.0189 130.639 64.153C130.565 64.6444 130.535 65.1427 130.46 65.6342C126.647 90.6994 103.248 107.94 78.2097 104.131C77.7633 104.064 77.2724 103.989 76.7882 103.869C76.6543 103.849 76.5205 103.829 76.3419 103.802C76.0295 103.754 75.6793 103.655 75.3668 103.608C75.1883 103.58 75.0098 103.553 74.838 103.481C74.6149 103.448 74.3985 103.369 74.1307 103.328C59.2938 99.7 47.7137 89.0703 42.3658 75.5944C47.1391 90.4458 59.3013 102.353 75.1512 106.226C75.3744 106.26 75.5907 106.339 75.8585 106.379C76.037 106.407 76.2088 106.478 76.3873 106.506C76.6997 106.553 77.05 106.652 77.3624 106.7C77.4963 106.72 77.6302 106.74 77.8087 106.768C78.2996 106.842 78.7392 106.955 79.2301 107.029C104.268 110.838 127.668 93.5974 131.48 68.5322C131.51 68.0339 131.541 67.5356 131.615 67.0442Z" fill="url(#paint3_radial)"/>
<path opacity="0.6" d="M121.348 49.5747C121.046 49.7574 120.751 49.8953 120.412 50.0265C119.015 50.4999 117.515 50.4546 116.015 50.4093C112.926 50.3051 109.785 50.2388 106.676 50.2686C99.3646 50.2995 91.8654 50.6674 85.2043 53.6312C81.0437 55.4669 77.3341 58.2397 73.6381 60.9232C69.9422 63.6067 66.0744 66.2183 61.745 67.6626C57.4156 69.1069 52.4594 69.2673 48.4369 67.1927C38.791 62.1599 43.492 50.1667 47.1942 42.6386C55.769 25.2918 75.1121 15.2057 94.2144 18.1112C102.784 19.4145 110.883 23.2064 117.355 28.9907C122.618 33.7225 129.421 40.9286 123.477 47.8871C122.839 48.4758 122.15 49.1025 121.348 49.5747Z" fill="url(#paint4_radial)"/>
<path opacity="0.6" d="M47.8188 44.2418C56.3936 26.8951 75.7367 16.8089 94.839 19.7144C103.408 21.0178 111.508 24.8097 117.98 30.594C120.716 33.0215 123.847 36.1492 125.425 39.589C124.262 35.5265 120.542 31.7608 117.37 28.9012C110.898 23.1169 102.798 19.325 94.2288 18.0216C75.1265 15.1161 55.7834 25.2023 47.2086 42.549C44.372 48.2889 41.0074 56.5997 43.807 62.5111C42.2124 56.783 45.249 49.4279 47.8188 44.2418Z" fill="url(#paint5_radial)"/>
<path opacity="0.34" d="M77.0493 28.3C78.8353 31.2687 76.0317 36.1907 70.8571 39.2893C65.6824 42.3878 60.0121 42.4396 58.2708 39.4777C56.4848 36.5089 59.2883 31.5869 64.463 28.4884C69.6755 25.4413 75.3079 25.338 77.0493 28.3Z" fill="url(#paint6_radial)"/>
<path opacity="0.34" d="M91.7037 24.723C92.0121 26.5985 89.6056 28.6095 86.3251 29.162C83.0446 29.7144 80.1048 28.6273 79.7964 26.7518C79.4881 24.8764 81.8945 22.8653 85.175 22.3129C88.4555 21.7605 91.4021 22.8029 91.7037 24.723Z" fill="url(#paint7_radial)"/>
<path opacity="0.5" d="M115.983 48.53C115.605 48.6098 115.19 48.638 114.871 48.6352C114.507 48.6256 114.201 48.5334 113.82 48.3382C113.044 48.0373 112.168 47.4926 110.969 47.2647C110.345 47.1696 109.789 47.2222 109.329 47.2437C108.862 47.3098 108.491 47.3449 108.217 47.3488C107.898 47.346 107.719 47.3188 107.496 47.2849C107.273 47.2509 107.063 47.1276 106.847 47.049C106.421 46.8471 105.964 46.549 105.583 46.3539C104.789 45.8675 104.37 45.6209 104.37 45.6209C104.37 45.6209 103.906 45.3675 103.099 44.9704C102.292 44.5734 101.11 43.9365 99.6536 43.3036C98.1973 42.6706 96.48 41.9523 94.557 41.3855C92.634 40.8188 90.5053 40.4035 88.3222 40.3458C86.1391 40.288 83.9395 40.6391 82.0697 41.2233C80.2 41.8075 78.5223 42.3294 77.098 42.387C76.3635 42.4125 75.7319 42.3621 75.1517 42.2739C74.5782 42.1409 74.1009 41.9769 73.7196 41.7818C72.9502 41.4362 72.5961 41.0623 72.4932 41.1381C72.4418 41.176 72.6348 41.7082 73.4081 42.3287C73.7758 42.6131 74.2774 42.918 74.9265 43.1539C76.18 43.6188 77.5151 43.5476 78.7444 43.8717C80.1901 44.2745 81.4891 45.3406 83.0678 45.1693C83.7198 45.0856 84.3544 44.8164 84.9822 44.5919C86.9616 43.8873 89.1961 43.9072 91.1365 44.6595C92.3008 45.1108 93.3419 45.772 94.5197 46.134C95.914 46.5747 97.4586 46.6268 98.7024 47.4559C99.3311 47.8258 99.8366 48.4056 100.537 48.6035C101.238 48.8015 101.961 48.5459 102.651 48.5137C104.12 48.4628 105.55 49.8689 107.01 50.1823C107.449 50.2948 108.043 50.2937 108.51 50.2276C109.481 50.1467 110.198 49.9358 110.696 49.9658C111.238 50.0026 112.001 50.3929 113.045 50.7345C113.306 50.8199 113.611 50.9121 113.924 50.9596C115.434 51.2351 117.167 50.9501 118.65 50.8099C121.2 50.5578 123.58 49.3199 125.321 47.4818C126.301 46.4424 129.425 42.712 128.37 41.5457C125.06 43.1909 121.947 45.643 118.617 47.4222C117.629 47.9119 116.789 48.3327 115.983 48.53Z" fill="url(#paint8_radial)"/>
<path opacity="0.5" d="M116.459 98.8418C115.518 98.4244 113.386 97.7343 110.505 97.1591C108.51 96.7642 106.138 96.4491 103.56 96.2856C100.982 96.122 98.2293 96.2062 95.4941 96.4758C94.1076 96.5849 92.7521 96.7902 91.4345 97.0469C90.7757 97.1753 90.1168 97.3036 89.458 97.432C88.7992 97.5603 88.1782 97.7402 87.564 97.8753C85.1005 98.4606 82.8873 98.9011 81.068 98.8529C79.242 98.8495 77.8545 98.3642 76.862 97.9846C76.3914 97.7759 76.0101 97.5808 75.756 97.4507C75.5018 97.3206 75.3747 97.2556 75.3747 97.2556C75.3747 97.2556 75.2476 97.1905 74.9934 97.0604C74.7392 96.9303 74.3579 96.7352 73.8563 96.4303C72.8909 95.8721 71.5268 94.9332 69.826 93.8059C68.1252 92.6787 66.0432 91.3563 63.4915 90.4197C60.9776 89.5344 58.2483 89.165 55.7587 88.4206C55.1406 88.2809 54.4915 88.0451 53.8803 87.8607C53.2758 87.6316 52.6646 87.4472 52.0669 87.1734C50.858 86.7153 49.7073 86.1745 48.6081 85.5959C47.1721 84.829 45.8769 84.0377 44.6777 83.2153C45.0289 83.9087 45.3801 84.6021 45.7759 85.3023C46.8799 86.7502 48.1654 87.9057 49.6401 89.3185C50.0388 89.6992 50.4754 90.1313 51.0352 90.3536C51.76 90.6924 52.5905 90.6358 53.3833 90.5279C53.8053 90.4549 54.272 90.3888 54.6533 90.5839C55.0793 90.7858 55.2345 91.2666 55.4993 91.6268C56.4452 92.9135 58.4187 92.848 59.9557 92.3504C60.436 92.1948 60.923 91.9947 61.4722 91.9868C63.7135 91.962 67.4536 95.5936 69.0379 96.886C69.4056 97.1705 69.7665 97.4997 69.9731 97.9425C70.1419 98.3339 70.1254 98.7428 70.2496 99.1274C70.5842 100.23 71.8688 100.791 73.0224 101.012C74.3992 101.267 75.776 101.522 77.0537 102.128C78.5033 102.806 79.6102 103.934 81.3606 103.834C82.9703 103.759 84.3278 102.64 85.9442 102.52C87.2861 102.404 88.66 102.979 89.9776 102.722C91.2438 102.503 92.2103 101.553 93.2388 100.796C95.0902 99.4315 97.7964 98.1517 100.096 98.0443C100.741 98.0053 101.373 98.0557 101.926 98.3227C102.307 98.5178 102.675 98.8023 103.056 98.9974C104.416 99.6615 106.029 99.2668 107.456 98.8896C108.122 98.7165 114.084 98.8463 116.202 99.0313C116.305 98.9555 116.408 98.8797 116.459 98.8418Z" fill="url(#paint9_radial)"/>
<path opacity="0.5" d="M112.633 69.0485C110.947 69.0207 109.406 68.6491 108.025 68.1191C106.644 67.5891 105.452 66.7221 104.387 65.9201C103.328 65.0734 102.366 64.1956 101.479 63.4207C100.592 62.6458 99.7881 61.9292 99.0905 61.4117C98.7674 61.134 98.4375 60.901 98.1455 60.7194C97.8535 60.5379 97.6061 60.3631 97.4033 60.1951C96.9842 59.9485 96.7814 59.7805 96.7814 59.7805C96.7814 59.7805 96.7436 59.7291 96.6165 59.664C96.4894 59.599 96.3176 59.5271 96.1081 59.4038C95.8985 59.2805 95.5997 59.1437 95.3008 59.0068C95.1291 58.9349 94.9574 58.8631 94.7857 58.7913C94.6139 58.7194 94.3976 58.6408 94.1812 58.5622C92.5017 57.8953 89.9403 57.3229 86.947 57.1876C85.4538 57.0976 83.8509 57.1281 82.152 57.1897C80.4463 57.2959 78.7337 57.4469 76.9319 57.5842C73.373 57.8657 69.5909 58.1133 65.9961 57.4294L64.6707 57.1364C64.2312 57.0238 63.7985 56.8666 63.359 56.754C62.9195 56.6415 62.4867 56.4842 62.054 56.327C61.6213 56.1697 61.1886 56.0125 60.7626 55.8106C60.3367 55.6086 59.9554 55.4135 59.5227 55.2563C59.0968 55.0543 58.7223 54.8145 58.341 54.6194C57.9597 54.4242 57.5405 54.1776 57.166 53.9378C56.7915 53.698 56.4102 53.5029 56.0425 53.2184C53.0979 51.262 50.6026 49.0539 48.5847 47.0099C47.1924 45.6553 46.0612 44.3861 45.0814 43.3228C44.93 43.1169 44.9493 44.4913 44.9735 44.6321C45.153 45.2537 45.5896 45.6858 46.0329 46.0732C46.5898 46.615 47.301 47.0432 47.9025 47.5918C48.2256 47.8695 48.4972 48.1851 48.666 48.5765C49.1617 49.5204 49.1257 50.6578 49.4225 51.7086C49.7814 52.9518 50.6274 53.9947 51.5966 54.8278C52.724 55.8221 54.0124 56.6581 55.4309 57.2395C55.9907 57.4618 56.5952 57.6909 57.1346 58.0472C58.4609 58.9347 59.0642 60.6721 60.3391 61.5974C61.937 62.8005 64.1745 62.5008 66.0975 63.0676C67.4471 63.5014 68.7287 64.382 70.122 64.2283C72.7544 64.0344 75.3112 61.6348 77.9669 60.9873C81.0893 60.2737 84.4153 60.3224 87.4716 61.2444C88.2992 61.5074 89.1646 61.8219 89.9204 62.2569C92.868 63.8937 95.3468 66.5107 98.171 68.3574C100.951 70.1973 103.839 71.3223 107.074 72.2715C107.812 72.5209 108.602 72.7325 109.381 72.7138C110.39 72.6845 111.227 71.9888 112.153 71.9012C113.406 71.7718 115.141 72.6756 116.363 73.0444C117.235 73.3142 118.159 73.5461 119.041 73.4517C120.16 73.3019 121.175 72.6334 122.1 71.9514C124.504 70.2599 126.938 68.6645 129.449 67.172C130.957 66.2587 132.68 65.7436 133.419 64.4846C133.425 63.8455 133.482 63.1686 133.444 62.5227C129.899 63.3092 126.419 65.4769 123.067 66.7957C119.658 68.197 115.997 69.1488 112.633 69.0485Z" fill="url(#paint10_radial)"/>
<path opacity="0.5" d="M43.8797 72.5337C45.206 73.4211 46.6555 74.0988 47.6859 74.5298C48.2389 74.7967 48.8433 75.0258 49.475 75.0762C53.8586 75.3772 57.0258 72.5676 61.583 74.1293C63.0597 74.6282 64.1317 75.3855 65.3105 76.3419C67.2179 77.912 67.3052 78.8396 68.1734 80.9373C68.4489 81.5277 69.1358 81.8151 69.8121 81.8722C70.4951 81.8847 71.1093 81.7495 71.7992 81.7173C73.4603 81.6043 75.0301 82.3916 76.5757 83.0381C76.9637 83.1886 77.3965 83.3458 77.8049 83.3622C79.7135 83.4239 81.0943 81.8512 83.1299 81.9779C84.757 82.0883 86.0513 82.2851 87.791 81.9555C90.7591 81.3555 92.5493 80.3936 92.4805 80.246C92.4252 80.009 90.5176 80.5417 87.6039 80.7842C86.1727 80.8865 84.4806 80.9034 82.6749 80.7659C80.8693 80.6284 79.0016 80.2986 77.161 79.7901C75.3205 79.2816 73.5585 78.5564 71.9887 77.7691C70.4257 76.9371 69.048 76.0876 67.9071 75.1826C66.7593 74.3224 65.7387 73.5271 64.9897 73.0475C64.6152 72.8077 64.3299 72.5814 64.0757 72.4514C63.8662 72.3281 63.7391 72.263 63.7391 72.263C63.7391 72.263 63.612 72.198 63.4024 72.0747C63.1928 71.9514 62.8494 71.8077 62.3788 71.599C61.9461 71.4417 61.3863 71.2194 60.679 71.0662C60.0163 70.9196 59.2129 70.7975 58.396 70.7646C57.579 70.7318 56.7038 70.7815 55.8665 70.8827C55.0359 70.9393 54.2054 70.9958 53.2856 71.0387C51.5488 71.0488 49.6539 70.8978 47.7929 70.5233C45.932 70.1488 44.0983 69.5956 42.5217 68.853C41.7969 68.5142 41.1236 68.1375 40.457 67.7161C40.2541 69.6509 41.9247 71.2764 43.8797 72.5337Z" fill="url(#paint11_radial)"/>
<path opacity="0.5" d="M84.0599 31.7437C82.4047 31.2177 80.701 30.41 79.0623 29.4751C75.7917 27.5605 72.853 24.965 70.6807 23.0346C69.9143 22.3695 68.755 20.6846 67.7604 21.2191C69.2573 23.6867 71.5868 25.1838 73.6766 27.0559C75.1202 28.3726 76.0292 30.2023 77.2603 31.7152C77.2981 31.7667 77.2981 31.7667 77.336 31.8181C82.1091 37.664 88.4189 36.1095 94.9188 35.4068C95.7561 35.3056 96.9573 35.214 98.3302 35.1943C100.884 35.217 103.877 35.3523 106.268 36.4473C107.164 36.8579 108.174 37.423 109.021 36.9575C109.272 36.8128 109.44 36.6097 109.714 36.6058C109.9 36.5883 110.123 36.6222 110.294 36.694C111.359 36.9016 112.387 36.1438 113.186 35.3967C113.611 35.0042 118.562 29.1746 118.118 28.7871C117.795 28.5094 117.517 28.2385 117.187 28.0055C116.416 29.1683 115.269 30.4108 113.849 31.3377C113.136 31.8235 112.34 32.251 111.52 32.5377C110.694 32.8691 109.836 33.1044 108.909 33.192C107.094 33.4187 105.25 33.2297 103.458 33.0029C101.666 32.776 99.9256 32.5113 98.3431 32.4077C96.7606 32.3041 95.5148 32.3889 94.6396 32.4387C93.7644 32.4884 93.3045 32.5099 93.3045 32.5099C93.3045 32.5099 92.8378 32.576 92.0072 32.6326C91.1767 32.6891 90.0201 32.7874 88.6676 32.6731C87.3151 32.5589 85.7151 32.2698 84.0599 31.7437Z" fill="url(#paint12_radial)"/>
<path opacity="0.5" d="M128.471 82.6122C126.799 82.495 123.629 83.5214 122.531 83.5372C121.714 83.5044 121.089 83.4093 120.643 83.3414C120.203 83.2289 119.891 83.1813 119.891 83.1813C119.891 83.1813 119.623 83.1406 119.094 83.0145C118.603 82.9398 117.858 82.735 116.825 82.6236C115.843 82.4742 114.522 82.4561 113.286 82.7711C112.058 83.0414 110.84 83.5418 109.712 84.0559C107.448 85.1287 105.439 86.3316 103.806 86.8603C102.21 87.4405 100.985 87.3913 100.951 87.6147C100.866 87.876 103.546 87.9637 103.807 88.0491C104.546 88.2986 105.291 88.5033 106.043 88.6634C107.286 88.8982 108.652 88.9231 109.68 88.1653C110.394 87.6795 110.887 86.8402 111.738 86.6497C112.499 86.4455 113.262 86.8358 113.996 86.8104C114.775 86.7917 115.475 86.3953 116.161 86.0882C117.77 85.4187 119.947 86.1155 121.455 86.7105C123.179 87.3842 125.197 87.3255 126.915 86.5354L126.967 86.4975C127.699 85.2833 128.35 84.0108 128.955 82.7315C128.873 82.6732 128.694 82.6461 128.471 82.6122Z" fill="url(#paint13_radial)"/>
<path opacity="0.5" d="M52.8989 34.2723C52.7126 33.6954 52.5264 33.1185 52.2887 32.5795C51.6134 33.1168 51.3707 33.8113 51.2998 34.5776C51.2027 36.1171 51.9263 37.9643 52.2134 39.3793C52.3724 40.1349 52.5315 40.8905 52.838 41.5771C53.5336 43.0086 54.9152 44.133 55.0344 45.7511C55.0867 46.3076 54.9537 46.8817 55.2942 47.3449C55.5213 47.6537 55.8647 47.7974 56.2082 47.941C57.4792 48.5915 58.3426 49.8199 59.2196 50.959C60.1481 52.0602 61.3064 53.1507 62.7618 53.1892C64.6257 53.2441 66.3974 53.605 68.2681 53.6153C69.1364 53.6102 69.9776 53.7839 70.7917 54.1362C71.9045 54.6255 72.8805 55.4139 74.0584 55.776C76.6819 56.5407 80.3768 55.3656 83.0984 55.1853C85.0341 55.0683 87.0348 54.824 88.9646 55.3461C89.7544 55.5577 90.5237 55.9033 91.3029 55.8846C92.1781 55.8349 92.9291 55.4006 93.749 55.1139C96.0098 54.3606 98.7652 56.0597 100.84 56.8323C102.138 57.3041 103.539 57.7 104.915 57.9551C106.292 58.2103 107.6 58.3178 108.908 58.4253C110.216 58.5328 111.397 58.5752 112.622 58.6245C113.216 58.6234 113.81 58.6223 114.417 58.5318C115.025 58.4413 115.594 58.2994 116.081 58.0992C117.1 57.7056 117.916 57.144 118.591 56.6068C119.267 56.0695 119.764 55.5051 120.151 55.0611C120.925 54.1732 121.333 53.5952 121.25 53.537C121.168 53.4787 120.647 53.9023 119.714 54.629C119.245 55.0147 118.679 55.4315 118.017 55.8794C117.355 56.3273 116.56 56.7549 115.657 56.9833C114.748 57.2565 113.746 57.2412 112.617 57.1608C111.494 57.0358 110.237 56.8904 109.032 56.7071C107.783 56.517 106.533 56.3269 105.252 56.0407C103.972 55.7545 102.801 55.3478 101.561 54.7935C99.1117 53.781 96.6658 52.449 93.9773 51.8115C91.2887 51.174 88.8243 51.1649 86.7819 51.0828C82.6903 50.9633 80.0094 50.8755 80.0094 50.8755C80.0094 50.8755 77.315 50.8771 73.2477 50.8985C71.1985 50.8611 68.8854 51.0578 66.7528 50.3677C64.6202 49.6776 62.4382 48.1115 60.5134 46.3559C58.5885 44.6003 56.8898 42.5591 55.6131 40.445C54.4325 38.2997 53.5197 36.1952 52.8989 34.2723Z" fill="url(#paint14_radial)"/>
<path d="M51.908 31.4703C52.1389 32.054 52.3319 32.5862 52.5182 33.1631C53.1836 35.0928 54.0964 37.1973 55.3799 39.2668C56.6566 41.3809 58.3553 43.4221 60.2802 45.1777C62.205 46.9333 64.387 48.4995 66.5196 49.1895C68.6075 49.8728 70.9653 49.6829 73.0145 49.7203C77.0818 49.6989 79.7762 49.6973 79.7762 49.6973C79.7762 49.6973 82.5017 49.7919 86.5486 49.9046C88.591 49.9867 91.0555 49.9958 93.7441 50.6333C96.4258 51.3155 98.8785 52.6028 101.327 53.6153C102.529 54.1181 103.745 54.5316 105.019 54.8625C106.255 55.1419 107.543 55.3835 108.799 55.5289C110.056 55.6743 111.261 55.8576 112.383 55.9826C113.506 56.1076 114.515 56.0783 115.424 55.8051C116.333 55.532 117.122 55.1491 117.784 54.7012C118.446 54.2533 119.011 53.8365 119.481 53.4508C120.413 52.7241 120.941 52.2559 121.017 52.3588C121.1 52.417 120.692 52.995 119.918 53.8829C119.53 54.3269 118.989 54.8845 118.358 55.4286C117.683 55.9658 116.867 56.5274 115.848 56.921C115.316 57.1144 114.747 57.2564 114.184 57.3536C113.577 57.4441 112.983 57.4452 112.389 57.4463C111.208 57.4038 109.983 57.3546 108.675 57.2471C107.412 57.1464 106.059 57.0321 104.682 56.7769C103.305 56.5218 101.949 56.1327 100.606 55.6541C98.5319 54.8815 95.7765 53.1824 93.5158 53.9357C92.6959 54.2224 91.9002 54.6499 91.0696 54.7064C90.2459 54.7183 89.4765 54.3727 88.7314 54.1679C86.8462 53.6526 84.8455 53.8969 82.8652 54.0071C80.1436 54.1874 76.4487 55.3625 73.8252 54.5978C72.6473 54.2358 71.6713 53.4473 70.5584 52.9581C69.789 52.6125 68.9032 52.432 68.0348 52.4371C66.1642 52.4268 64.3925 52.0659 62.5286 52.011C61.0732 51.9725 59.9148 50.882 58.9864 49.7808C58.0579 48.6796 57.2459 47.4133 55.975 46.7628C55.6383 46.5745 55.288 46.4755 55.061 46.1667C54.7137 45.7482 54.8535 45.1294 54.8011 44.5729C54.6751 42.9995 53.3004 41.8304 52.6048 40.399C52.2983 39.7123 52.0946 38.9499 51.9802 38.2011C51.6863 36.8308 50.918 34.9768 51.0666 33.3994C50.99 32.7021 51.2327 32.0076 51.908 31.4703ZM116.625 98.044C116.697 97.8721 114.159 96.846 110.125 96.0496C108.13 95.6547 105.758 95.3396 103.18 95.1761C100.602 95.0125 97.8492 95.0967 95.114 95.3664C93.7275 95.4755 92.372 95.6807 91.0543 95.9374C90.3955 96.0658 89.7367 96.1941 89.0779 96.3225C88.4191 96.4509 87.7981 96.6307 87.1839 96.7658C84.7203 97.3511 82.5071 97.7916 80.6879 97.7435C78.8618 97.74 77.4744 97.2547 76.4819 96.8752C76.0113 96.6664 75.63 96.4713 75.3758 96.3412C75.1216 96.2111 74.9945 96.1461 74.9945 96.1461C74.9945 96.1461 74.8674 96.081 74.6132 95.9509C74.359 95.8209 73.9777 95.6257 73.4761 95.3209C72.5108 94.7626 71.1467 93.8237 69.4459 92.6965C67.7451 91.5692 65.663 90.2469 63.1113 89.3102C60.5975 88.425 57.8682 88.0555 55.3785 87.3112C54.7605 87.1714 54.1114 86.9356 53.5001 86.7512C52.8957 86.5221 52.2844 86.3377 51.6868 86.0639C50.4779 85.6058 49.3272 85.0651 48.2279 84.4864C46.7027 83.7059 45.2872 82.8049 44.0434 81.9757C45.2764 84.6775 47.0945 86.234 49.26 88.209C49.6587 88.5897 50.0953 89.0218 50.6551 89.2441C51.3799 89.5829 52.2104 89.5264 53.0031 89.4184C53.4252 89.3454 53.8919 89.2793 54.2732 89.4744C54.6991 89.6763 54.8543 90.1571 55.1192 90.5174C56.0651 91.8041 58.0386 91.7385 59.5755 91.2409C60.0558 91.0854 60.5429 90.8852 61.0921 90.8773C63.3334 90.8525 67.0734 94.4841 68.6578 95.7765C69.0255 96.061 69.3864 96.3902 69.593 96.833C69.7618 97.2244 69.7453 97.6333 69.8694 98.0179C70.2041 99.1202 71.4886 99.6813 72.6423 99.9025C74.019 100.158 75.3958 100.413 76.6736 101.019C78.1231 101.696 79.2301 102.824 80.9805 102.725C82.5901 102.65 83.9476 101.531 85.5641 101.411C86.906 101.295 88.2798 101.87 89.5975 101.613C90.8637 101.394 91.8301 100.444 92.8587 99.6861C94.7101 98.322 97.4163 97.0422 99.7158 96.9349C100.361 96.8959 100.993 96.9462 101.546 97.2132C101.927 97.4083 102.295 97.6928 102.676 97.888C104.036 98.552 105.649 98.1573 107.076 97.7801C107.934 97.5449 116.711 97.7827 116.625 98.044ZM76.9632 30.6642C81.7364 36.5101 88.0461 34.9556 94.546 34.2528C95.3833 34.1516 96.5845 34.0601 97.9574 34.0403C100.511 34.063 103.504 34.1983 105.895 35.2933C106.792 35.704 107.802 36.269 108.649 35.8036C108.899 35.6588 109.067 35.4558 109.341 35.4518C109.527 35.4343 109.75 35.4683 109.922 35.5401C110.986 35.7477 112.015 34.9899 112.813 34.2428C113.238 33.8503 118.189 28.0206 117.746 27.6332C117.422 27.3555 117.144 27.0846 116.814 26.8515C116.044 28.0143 114.896 29.2568 113.476 30.1837C112.763 30.6695 111.967 31.0971 111.147 31.3838C110.321 31.7152 109.463 31.9504 108.536 32.038C106.721 32.2648 104.878 32.0758 103.085 31.8489C101.293 31.6221 99.5528 31.3573 97.9703 31.2538C96.3878 31.1502 95.142 31.235 94.2668 31.2847C93.3916 31.3345 92.9317 31.3559 92.9317 31.3559C92.9317 31.3559 92.465 31.4221 91.6345 31.4786C90.8039 31.5351 89.6474 31.6335 88.2948 31.5192C86.9423 31.4049 85.3423 31.1159 83.6871 30.5898C82.0319 30.0638 80.3282 29.2561 78.6895 28.3211C75.4189 26.4066 72.4802 23.8111 70.308 21.8807C69.5415 21.2156 68.3822 19.5307 67.3876 20.0651C68.8845 22.5327 71.214 24.0299 73.3038 25.902C74.7474 27.2187 75.6564 29.0483 76.8875 30.5613C76.9254 30.6127 76.9186 30.6574 76.9632 30.6642ZM128.136 81.5095C126.464 81.3924 123.294 82.4188 122.196 82.4346C121.379 82.4017 120.754 82.3067 120.308 82.2388C119.869 82.1262 119.556 82.0787 119.556 82.0787C119.556 82.0787 119.288 82.038 118.76 81.9119C118.269 81.8372 117.523 81.6324 116.49 81.521C115.508 81.3716 114.187 81.3535 112.952 81.6684C111.723 81.9387 110.505 82.4392 109.377 82.9533C107.113 84.0261 105.104 85.229 103.471 85.7577C101.876 86.3379 100.65 86.2886 100.616 86.512C100.531 86.7733 103.212 86.8611 103.473 86.9465C104.211 87.196 104.956 87.4007 105.708 87.5608C106.951 87.7956 108.317 87.8205 109.346 87.0627C110.059 86.5769 110.552 85.7376 111.403 85.547C112.164 85.3429 112.927 85.7332 113.661 85.7077C114.441 85.6891 115.14 85.2927 115.826 84.9856C117.435 84.316 119.612 85.0129 121.12 85.6079C122.844 86.2816 124.862 86.2228 126.58 85.4328C127.414 85.0567 128.141 84.4816 128.62 83.7317C129.682 82.156 129.176 81.5763 128.136 81.5095ZM43.502 71.4251C44.8282 72.3125 46.2778 72.9901 47.3081 73.4211C47.8612 73.6881 48.4656 73.9171 49.0973 73.9675C53.4809 74.2685 56.6481 71.4589 61.2053 73.0206C62.682 73.5195 63.754 74.2769 64.9328 75.2333C66.8402 76.8034 66.9274 77.7309 67.7956 79.8286C68.0711 80.4191 68.7581 80.7064 69.4343 80.7636C70.1174 80.776 70.7316 80.6409 71.4215 80.6087C73.0826 80.4956 74.6524 81.283 76.1979 81.9295C76.586 82.0799 77.0188 82.2372 77.4272 82.2536C79.3357 82.3153 80.7166 80.7425 82.7522 80.8693C84.3793 80.9796 85.6736 81.1765 87.4133 80.8468C90.3814 80.2469 92.1716 79.2849 92.1027 79.1373C92.0475 78.9003 90.1399 79.433 87.2262 79.6755C85.795 79.7778 84.1029 79.7947 82.2972 79.6572C80.4916 79.5197 78.6238 79.1899 76.7833 78.6814C74.9428 78.1729 73.1808 77.4478 71.611 76.6605C70.048 75.8284 68.6703 74.9789 67.5293 74.074C66.3816 73.2137 65.3609 72.4185 64.6119 71.9388C64.2374 71.699 63.9522 71.4728 63.698 71.3427C63.4884 71.2194 63.3613 71.1543 63.3613 71.1543C63.3613 71.1543 63.2342 71.0893 63.0247 70.966C62.8151 70.8427 62.4717 70.699 62.0011 70.4903C61.5684 70.3331 61.0085 70.1108 60.3012 69.9575C59.6386 69.811 58.8352 69.6888 58.0182 69.6559C57.2013 69.6231 56.3261 69.6729 55.4888 69.7741C54.6582 69.8306 53.8277 69.8871 52.9078 69.9301C51.1711 69.9402 49.2762 69.7891 47.4152 69.4146C45.5543 69.0401 43.7205 68.4869 42.1439 67.7443C41.4192 67.4055 40.7458 67.0288 40.0793 66.6074C39.921 68.549 41.5916 70.1745 43.502 71.4251ZM115.648 47.428C115.271 47.5077 114.855 47.536 114.536 47.5331C114.172 47.5235 113.867 47.4313 113.485 47.2362C112.709 46.9352 111.833 46.3906 110.635 46.1626C110.01 46.0676 109.454 46.1201 108.994 46.1416C108.527 46.2078 108.157 46.2428 107.882 46.2468C107.563 46.2439 107.384 46.2168 107.161 46.1828C106.938 46.1489 106.729 46.0256 106.512 45.947C106.086 45.745 105.629 45.447 105.248 45.2518C104.454 44.7654 104.035 44.5188 104.035 44.5188C104.035 44.5188 103.571 44.2654 102.764 43.8684C101.957 43.4713 100.775 42.8344 99.319 42.2015C97.8627 41.5686 96.1454 40.8502 94.2223 40.2835C92.2993 39.7167 90.1706 39.3015 87.9875 39.2437C85.8044 39.1859 83.6048 39.5371 81.7351 40.1212C79.8653 40.7054 78.1877 41.2274 76.7633 41.285C76.0289 41.3104 75.3972 41.2601 74.817 41.1718C74.2436 41.0389 73.7662 40.8748 73.3849 40.6797C72.6155 40.3341 72.2614 39.9603 72.1586 40.036C72.1072 40.0739 72.3002 40.6061 73.0734 41.2266C73.4411 41.5111 73.9427 41.8159 74.5918 42.0518C75.8454 42.5168 77.1804 42.4455 78.4097 42.7697C79.8554 43.1724 81.1545 44.2385 82.7331 44.0672C83.3852 43.9836 84.0197 43.7144 84.6475 43.4899C86.6269 42.7852 88.8614 42.8051 90.8019 43.5574C91.9662 44.0088 93.0072 44.67 94.1851 45.032C95.5793 45.4726 97.1239 45.5247 98.3677 46.3539C98.9964 46.7238 99.5019 47.3035 100.202 47.5015C100.903 47.6994 101.627 47.4438 102.317 47.4116C103.786 47.3608 105.216 48.7668 106.675 49.0802C107.114 49.1928 107.708 49.1917 108.175 49.1255C109.146 49.0447 109.863 48.8337 110.361 48.8637C110.903 48.9005 111.666 49.2908 112.71 49.6324C112.971 49.7178 113.277 49.81 113.589 49.8576C115.1 50.1331 116.833 49.8481 118.315 49.7079C120.865 49.4557 123.245 48.2178 124.986 46.3798C125.966 45.3403 129.091 41.6099 128.035 40.4437C124.725 42.0888 121.612 44.541 118.282 46.3201C117.295 46.8099 116.454 47.2306 115.648 47.428ZM47.4726 46.521C47.7956 46.7987 48.0673 47.1143 48.2361 47.5057C48.7318 48.4497 48.6958 49.587 48.9926 50.6378C49.3515 51.881 50.1975 52.9239 51.1667 53.757C52.294 54.7513 53.5825 55.5873 55.001 56.1688C55.5608 56.391 56.1652 56.6201 56.7047 56.9764C58.0309 57.8639 58.6343 59.6013 59.9091 60.5266C61.507 61.7297 63.7445 61.43 65.6675 61.9968C67.0171 62.4306 68.2987 63.3112 69.6921 63.1575C72.3244 62.9636 74.8813 60.564 77.5369 59.9165C80.6593 59.2029 83.9853 59.2516 87.0416 60.1736C87.8692 60.4367 88.7347 60.7511 89.4905 61.1861C92.438 62.823 94.9168 65.4399 97.741 67.2866C100.521 69.1265 103.409 70.2515 106.644 71.2007C107.382 71.4501 108.172 71.6617 108.951 71.643C109.96 71.6137 110.797 70.9181 111.723 70.8304C112.976 70.701 114.711 71.6048 115.933 71.9736C116.805 72.2434 117.729 72.4753 118.611 72.3809C119.73 72.2311 120.745 71.5626 121.67 70.8806C124.074 69.1891 126.508 67.5937 129.019 66.1012C131.131 64.8226 133.773 64.2645 133.346 61.3654C129.675 62.0869 126.136 64.3371 122.637 65.7249C119.138 67.1127 115.477 68.0644 112.113 67.9641C110.428 67.9364 108.886 67.5647 107.506 67.0347C106.125 66.5048 104.933 65.6377 103.867 64.8357C102.809 63.989 101.847 63.1112 100.96 62.3363C100.073 61.5615 99.2688 60.8449 98.5712 60.3273C98.2482 60.0496 97.9183 59.8166 97.6262 59.635C97.3342 59.4535 97.0868 59.2787 96.884 59.1107C96.4649 58.8641 96.2621 58.6962 96.2621 58.6962C96.2621 58.6962 96.2243 58.6447 96.0972 58.5796C95.9701 58.5146 95.7984 58.4428 95.5888 58.3195C95.3792 58.1962 95.0804 58.0593 94.7816 57.9224C94.6099 57.8506 94.4381 57.7787 94.2664 57.7069C94.0947 57.6351 93.8783 57.5564 93.6619 57.4778C91.9825 56.811 89.421 56.2385 86.4278 56.1032C84.9346 56.0132 83.3317 56.0437 81.6327 56.1053C79.927 56.2116 78.2145 56.3625 76.4127 56.4999C72.8537 56.7814 69.0716 57.029 65.4769 56.345L64.1515 56.052C63.712 55.9395 63.2793 55.7822 62.8398 55.6697C62.4002 55.5571 61.9675 55.3998 61.5348 55.2426C61.1021 55.0854 60.6693 54.9281 60.2434 54.7262C59.8175 54.5243 59.4362 54.3291 59.0035 54.1719C58.5775 53.97 58.203 53.7302 57.8217 53.535C57.4404 53.3399 57.0213 53.0933 56.6468 52.8535C56.2723 52.6136 55.891 52.4185 55.5233 52.134C52.5787 50.1776 50.0834 47.9695 48.0655 45.9255C46.6732 44.5709 45.542 43.3017 44.5622 42.2384C44.4108 42.0326 44.4301 43.4069 44.4543 43.5477C44.6338 44.1693 45.0704 44.6014 45.5137 44.9888C46.1599 45.5442 46.8711 45.9724 47.4726 46.521Z" fill="url(#paint15_radial)"/>
<g opacity="0.34">
<path opacity="0.34" d="M51.8295 38.2703C51.9886 39.0259 52.1476 39.7815 52.4542 40.4681C53.1497 41.8996 54.5313 43.024 54.6505 44.6421C54.7028 45.1986 54.5698 45.7727 54.9104 46.2359C55.1374 46.5447 55.4808 46.6884 55.8243 46.832C57.0953 47.4825 57.9587 48.7109 58.8357 49.85C59.7642 50.9512 60.9226 52.0417 62.3779 52.0802C64.2418 52.1351 66.0135 52.496 67.8842 52.5063C68.7525 52.5012 69.5937 52.6749 70.4078 53.0272C71.5206 53.5165 72.4966 54.3049 73.6745 54.6669C76.298 55.4317 79.9929 54.2566 82.7145 54.0763C84.6502 53.9593 86.6509 53.715 88.5807 54.2371C89.3705 54.4487 90.1398 54.7943 90.919 54.7756C91.7942 54.7259 92.5452 54.2916 93.3651 54.0049C95.6258 53.2516 98.3812 54.9507 100.456 55.7233C101.754 56.1951 103.155 56.591 104.532 56.8461C105.908 57.1013 107.216 57.2088 108.524 57.3163C109.832 57.4238 111.013 57.4662 112.238 57.5155C112.832 57.5144 113.426 57.5133 114.033 57.4228C114.641 57.3323 115.21 57.1904 115.697 56.9902C116.716 56.5966 117.532 56.035 118.208 55.4978C118.883 54.9605 119.38 54.3961 119.767 53.9521C120.541 53.0642 120.949 52.4862 120.866 52.428C120.784 52.3697 120.263 52.7933 119.33 53.52C118.861 53.9057 118.295 54.3225 117.633 54.7704C116.971 55.2183 116.176 55.6459 115.273 55.8743C114.364 56.1475 113.362 56.1322 112.233 56.0518C112.009 56.0179 111.831 55.9907 111.601 56.0014C110.65 55.9482 109.699 55.895 108.659 55.8283C107.396 55.7275 106.043 55.6132 104.667 55.3581C103.29 55.103 101.933 54.7138 100.591 54.2353C98.5162 53.4627 95.7609 51.7636 93.5001 52.5169C92.6802 52.8036 91.8845 53.2311 91.054 53.2876C90.2302 53.2995 89.4608 52.9539 88.7157 52.7491C86.8305 52.2338 84.8298 52.4781 82.8495 52.5883C80.1279 52.7686 76.433 53.9437 73.8095 53.1789C72.6316 52.8169 71.6556 52.0285 70.5428 51.5392C69.7734 51.1937 68.8875 51.0132 68.0192 51.0183C66.1485 51.008 64.3768 50.6471 62.5129 50.5922C61.0576 50.5537 59.8992 49.4632 58.9707 48.362C58.0423 47.2608 57.2303 45.9945 55.9593 45.344C55.6226 45.1557 55.2724 45.0567 55.0454 44.7479C54.698 44.3293 54.8378 43.7106 54.7855 43.1541C54.6595 41.5807 53.2847 40.4116 52.5892 38.9801C52.2826 38.2935 52.0789 37.5311 51.9577 36.827C51.6881 35.5974 51.0644 33.994 51.0072 32.5682C50.8704 32.8674 50.8228 33.1802 50.7685 33.5376C50.7674 35.046 51.5356 36.8999 51.8295 38.2703Z" fill="url(#paint16_radial)"/>
<path opacity="0.34" d="M73.2924 25.9468C74.736 27.2634 75.645 29.0931 76.8761 30.606C76.914 30.6575 76.914 30.6575 76.9518 30.709C81.725 36.5548 88.0347 35.0003 94.5346 34.2976C95.3719 34.1964 96.5731 34.1048 97.9461 34.0851C100.5 34.1078 103.493 34.2431 105.884 35.3381C106.78 35.7487 107.79 36.3138 108.637 35.8484C108.888 35.7036 109.055 35.5005 109.33 35.4966C109.515 35.4791 109.739 35.513 109.91 35.5848C110.975 35.7925 112.003 35.0346 112.802 34.2875C113.227 33.8951 118.178 28.0654 117.734 27.678C117.614 27.5682 117.494 27.4585 117.411 27.4003C116.175 29.2236 113.348 32.4964 113.026 32.8131C112.227 33.5602 111.199 34.318 110.135 34.1104C109.956 34.0833 109.74 34.0046 109.554 34.0222C109.318 34.0776 109.105 34.2738 108.861 34.3739C108.014 34.8394 106.96 34.2675 106.108 33.8637C103.717 32.7687 100.775 32.5955 98.1703 32.6106C96.8042 32.5857 95.5962 32.722 94.7589 32.8232C88.2658 33.4812 81.956 35.0357 77.1761 29.2345C77.1314 29.2278 77.1382 29.1831 77.1004 29.1316C76.1788 27.9857 75.425 26.6368 74.4587 25.4842C72.9122 24.2433 71.455 23.0159 70.2966 21.9255C69.5301 21.2603 68.3708 19.5755 67.3763 20.1099C68.8285 22.5707 71.1648 24.0232 73.2924 25.9468Z" fill="url(#paint17_radial)"/>
<path opacity="0.34" d="M49.0951 73.9676C53.4788 74.2687 56.646 71.4591 61.2031 73.0208C62.6798 73.5197 63.7519 74.277 64.9307 75.2334C66.8381 76.8035 66.9253 77.731 67.7935 79.8288C68.069 80.4192 68.756 80.7066 69.4322 80.7637C70.1153 80.7762 70.7295 80.641 71.4193 80.6088C73.0805 80.4958 74.6503 81.2831 76.1958 81.9296C76.5839 82.0801 77.0167 82.2373 77.4251 82.2537C79.3336 82.3154 80.7145 80.7426 82.7501 80.8694C84.3772 80.9798 85.6715 81.1766 87.4112 80.847C90.3793 80.247 92.1695 79.2851 92.1007 79.1374C92.0454 78.9005 90.1378 79.4331 87.2241 79.6757C85.7929 79.778 84.1008 79.7949 82.2951 79.6574C82.0273 79.6167 81.7527 79.6206 81.4403 79.5731C80.1469 79.9706 79.0155 80.8042 77.6048 80.7725C77.1963 80.7561 76.7636 80.5988 76.3755 80.4484C74.8299 79.8019 73.2601 79.0146 71.599 79.1276C70.9537 79.1666 70.2881 79.3396 69.6119 79.2825C68.9288 79.27 68.2487 78.938 67.9732 78.3475C67.0603 76.243 67.0109 75.367 65.1103 73.7522C63.9315 72.7958 62.8595 72.0384 61.3828 71.5395C56.8256 69.9778 53.607 72.8254 49.2748 72.4864C48.6431 72.4361 48.0833 72.2138 47.4856 71.94C46.4621 71.4643 45.0125 70.7867 43.6795 69.944C42.391 69.108 41.2191 68.1069 40.6681 66.926C40.4585 66.8027 40.2936 66.6862 40.084 66.5629C39.8364 68.4909 41.5002 70.1611 43.4552 71.4184C44.7815 72.3058 46.231 72.9834 47.2614 73.4144C47.9037 73.695 48.4635 73.9173 49.0951 73.9676Z" fill="url(#paint18_radial)"/>
<path opacity="0.34" d="M72.9762 41.2577C73.3439 41.5422 73.8455 41.8471 74.4946 42.083C75.7481 42.5479 77.0832 42.4767 78.3125 42.8008C79.7582 43.2035 81.0573 44.2697 82.6359 44.0984C83.2879 44.0147 83.9225 43.7455 84.5503 43.521C86.5297 42.8164 88.7642 42.8363 90.7047 43.5885C91.8689 44.0399 92.91 44.7011 94.0878 45.0631C95.4821 45.5037 97.0267 45.5558 98.2705 46.385C98.8992 46.7549 99.4047 47.3346 100.105 47.5326C100.806 47.7306 101.53 47.475 102.219 47.4428C103.688 47.3919 105.118 48.798 106.578 49.1113C107.017 49.2239 107.611 49.2228 108.078 49.1567C109.049 49.0758 109.766 48.8649 110.264 48.8949C110.806 48.9317 111.569 49.3219 112.613 49.6636C112.874 49.749 113.179 49.8412 113.492 49.8887C115.002 50.1642 116.735 49.8792 118.218 49.739C120.768 49.4869 123.148 48.2489 124.889 46.4109C125.811 45.454 128.593 42.1744 128.076 40.7701C127.429 42.3174 125.771 44.2137 125.113 44.9365C123.328 46.7677 120.947 48.0057 118.442 48.2646C116.96 48.4048 115.22 48.7344 113.716 48.4143C113.404 48.3668 113.143 48.2813 112.837 48.1891C111.8 47.8028 111.03 47.4572 110.488 47.4205C109.997 47.3458 109.28 47.5567 108.302 47.6822C107.835 47.7484 107.293 47.7116 106.802 47.6369C105.343 47.3235 103.913 45.9175 102.444 45.9683C101.754 46.0005 100.985 46.2494 100.329 46.0582C99.6289 45.8602 99.1167 45.3252 98.4948 44.9106C97.2442 44.1261 95.6995 44.074 94.3121 43.5887C93.1342 43.2267 92.0932 42.5655 90.9289 42.1141C88.9885 41.3618 86.7539 41.342 84.7745 42.0466C84.1468 42.2711 83.5054 42.585 82.8602 42.624C81.2815 42.7953 79.9824 41.7291 78.5368 41.3264C78.3204 41.2478 78.1419 41.2206 77.9187 41.1867C77.4967 41.2596 77.0746 41.3325 76.6593 41.3608C75.9248 41.3862 75.2932 41.3359 74.713 41.2476C74.1396 41.1147 73.6622 40.9507 73.2809 40.7555C72.5115 40.4099 72.1574 40.0361 72.0546 40.1119C72.0099 40.1051 72.203 40.6373 72.9762 41.2577Z" fill="url(#paint19_radial)"/>
<path opacity="0.34" d="M129.343 64.5509C126.833 66.0433 124.399 67.6387 121.995 69.3302C121.069 70.0123 120.099 70.6875 118.936 70.8306C118.054 70.925 117.13 70.693 116.258 70.4232C115.035 70.0544 113.301 69.1506 112.048 69.2801C111.121 69.3677 110.285 70.0633 109.276 70.0927C108.497 70.1113 107.707 69.8998 106.969 69.6503C103.785 68.6633 100.89 67.5829 98.0658 65.7363C95.2415 63.8896 92.7181 61.2658 89.8152 59.6357C89.0594 59.2008 88.194 58.8863 87.3664 58.6233C84.3101 57.7013 80.9841 57.6525 77.8617 58.3661C75.1614 59.0068 72.6492 61.4132 70.0168 61.6071C68.5857 61.7094 67.3487 60.8356 65.9923 60.4464C64.0693 59.8796 61.8318 60.1793 60.2339 58.9763C58.9591 58.051 58.3557 56.3135 57.0294 55.4261C56.49 55.0698 55.9234 54.8922 55.3257 54.6184C53.9073 54.0369 52.612 53.2457 51.4915 52.2067C50.5222 51.3736 49.6763 50.3306 49.3174 49.0875C49.0448 48.1775 49.0536 47.2188 48.7228 46.3914C48.5647 46.2302 48.3619 46.0622 48.2038 45.901C47.3306 45.0368 46.5846 44.2376 45.8763 43.4899C45.6357 43.2705 45.3951 43.051 45.206 42.7937C45.01 42.581 44.8518 42.4198 44.7005 42.214C44.5492 42.0081 44.5684 43.3824 44.5927 43.5233C44.7721 44.1448 45.2087 44.5769 45.6521 44.9644C46.209 45.5062 46.9201 45.9344 47.5217 46.483C47.8447 46.7607 48.1164 47.0763 48.2852 47.4677C48.7809 48.4116 48.7449 49.549 49.0417 50.5998C49.4006 51.8429 50.2466 52.8859 51.2158 53.719C52.3431 54.7133 53.6316 55.5493 55.05 56.1307C55.6099 56.353 56.2143 56.5821 56.7537 56.9384C58.08 57.8258 58.6834 59.5633 59.9582 60.4886C61.5561 61.6916 63.7936 61.392 65.7166 61.9587C67.0662 62.3926 68.3478 63.2732 69.7411 63.1194C72.3735 62.9255 74.9304 60.5259 77.586 59.8785C80.7084 59.1648 84.0345 59.2136 87.0907 60.1356C87.9183 60.3986 88.7838 60.7131 89.5396 61.148C92.4871 62.7849 94.9659 65.4019 97.7901 67.2486C100.57 69.0885 103.458 70.2135 106.693 71.1626C107.431 71.4121 108.221 71.6236 109 71.605C110.009 71.5756 110.846 70.88 111.772 70.7924C113.025 70.6629 114.76 71.5668 115.982 71.9356C116.854 72.2054 117.778 72.4373 118.66 72.3429C119.779 72.193 120.794 71.5246 121.719 70.8425C124.123 69.151 126.557 67.5556 129.068 66.0632C131.129 64.8224 133.63 64.2886 133.437 61.6537C132.811 63.067 130.948 63.6065 129.343 64.5509Z" fill="url(#paint20_radial)"/>
<path opacity="0.34" d="M129.08 81.8824C129.022 81.965 128.957 82.0923 128.892 82.2195C128.413 82.9694 127.641 83.5378 126.852 83.9206C125.179 84.7175 123.161 84.7762 121.392 84.0958C119.884 83.5007 117.714 82.7592 116.098 83.4734C115.368 83.7737 114.668 84.1702 113.933 84.1956C113.154 84.2142 112.385 83.8686 111.675 84.0349C110.824 84.2254 110.331 85.0647 109.618 85.5505C108.596 86.2637 107.23 86.2387 105.98 86.0486C105.355 85.9536 104.699 85.7624 104.088 85.578C103.896 85.6402 103.704 85.7024 103.556 85.7714C101.961 86.3516 100.736 86.3024 100.702 86.5258C100.616 86.7871 103.297 86.8748 103.558 86.9602C104.297 87.2097 105.042 87.4144 105.794 87.5745C107.037 87.8093 108.403 87.8342 109.431 87.0764C110.144 86.5906 110.637 85.7513 111.488 85.5608C112.25 85.3566 113.013 85.7469 113.747 85.7215C114.526 85.7028 115.226 85.3064 115.912 84.9993C117.52 84.3298 119.698 85.0266 121.205 85.6217C122.929 86.2953 124.948 86.2366 126.666 85.4465C127.5 85.0705 128.226 84.4953 128.706 83.7454C129.257 82.8235 129.301 82.2359 129.08 81.8824Z" fill="url(#paint21_radial)"/>
<path opacity="0.34" d="M111.009 96.2301C109.234 96.1888 107.676 96.226 107.343 96.3126C105.871 96.6829 104.258 97.0776 102.943 96.4204C102.562 96.2253 102.194 95.9408 101.813 95.7456C101.259 95.4787 100.576 95.4662 99.9826 95.4673C97.6763 95.6194 94.9701 96.8991 93.1255 98.2185C92.097 98.9763 91.1305 99.9265 89.8643 100.145C88.5466 100.402 87.1728 99.8273 85.8309 99.9432C84.2591 100.07 82.8569 101.182 81.2473 101.257C79.4969 101.357 78.3899 100.229 76.9404 99.5509C75.6626 98.9452 74.2859 98.69 72.9091 98.4349C71.7555 98.2137 70.4641 97.6973 70.1362 96.5503C70.0121 96.1658 70.0354 95.7122 69.8598 95.3655C69.6978 94.9294 69.2923 94.5935 68.9246 94.309C67.3849 93.0234 63.6002 89.3849 61.3589 89.4097C60.8543 89.4244 60.3226 89.6178 59.8423 89.7733C58.3054 90.271 56.3833 90.2986 55.386 89.0498C55.1211 88.6895 54.9213 88.202 54.54 88.0069C54.1587 87.8117 53.692 87.8779 53.2699 87.9508C52.4772 88.0588 51.6467 88.1154 50.9219 87.7766C50.4067 87.5611 49.9701 87.1289 49.5268 86.7415C48.2481 85.5413 47.0382 84.4888 46.0409 83.24C45.3744 82.8186 44.7078 82.3972 44.0859 81.9826C45.3189 84.6844 47.137 86.2409 49.3025 88.2159C49.7012 88.5966 50.1378 89.0287 50.6976 89.251C51.4224 89.5898 52.2529 89.5333 53.0457 89.4253C53.4677 89.3523 53.9344 89.2862 54.3157 89.4813C54.7417 89.6832 54.8969 90.164 55.1617 90.5242C56.1076 91.8109 58.0811 91.7454 59.6181 91.2478C60.0984 91.0922 60.5855 90.8921 61.1346 90.8842C63.3759 90.8594 67.116 94.491 68.7003 95.7834C69.068 96.0679 69.4289 96.3971 69.6356 96.8399C69.8043 97.2313 69.7878 97.6402 69.912 98.0248C70.2466 99.1271 71.5312 99.6882 72.6848 99.9093C74.0616 100.164 75.4384 100.42 76.7162 101.025C78.1657 101.703 79.2726 102.831 81.023 102.732C82.6327 102.657 83.9902 101.537 85.6067 101.418C86.9485 101.302 88.3224 101.876 89.64 101.62C90.9062 101.401 91.8727 100.451 92.9013 99.6929C94.7526 98.3289 97.4588 97.0491 99.7584 96.9417C100.404 96.9027 101.035 96.9531 101.588 97.2201C101.97 97.4152 102.337 97.6997 102.719 97.8948C104.079 98.5589 105.691 98.1642 107.119 97.787C107.925 97.5896 116.702 97.8275 116.623 98.0441C116.695 97.8722 114.545 96.9966 111.009 96.2301Z" fill="url(#paint22_radial)"/>
</g>
<path opacity="0.35" d="M56.2844 81.6436C55.4633 83.4387 53.2977 83.5665 51.7279 82.7791C50.323 82.1083 49.3121 80.9489 49.0454 79.3998C48.8825 78.3693 49.6772 77.3473 50.6621 77.1771C51.0803 76.8293 51.6188 76.5912 52.1748 76.5387C53.1014 76.451 53.9979 76.8617 54.7401 77.386C56.0595 78.3181 57.0403 79.9758 56.2844 81.6436ZM78.7204 85.1476C77.5833 84.5175 75.6467 84.0401 74.1127 84.2182C73.941 84.1464 73.7625 84.1192 73.5839 84.0921C70.3501 83.7373 68.2269 86.8886 70.4243 89.5542C72.3947 91.911 76.8558 93.5038 79.6852 92.0142C80.9301 91.335 81.8103 90.0518 81.6193 88.6056C81.4108 86.9739 80.0739 85.8563 78.7204 85.1476ZM85.4227 88.8184C85.3334 88.8048 85.1995 88.7845 85.1103 88.7709C84.6193 88.6962 84.0051 88.8314 83.5937 89.1345C83.1823 89.4376 82.8262 89.9777 82.796 90.476C82.7591 91.0189 82.8115 91.5754 83.1588 91.994C83.5061 92.4125 83.9631 92.7106 84.4986 92.7921C84.5879 92.8056 84.7218 92.826 84.8111 92.8396C85.302 92.9142 85.9162 92.7791 86.3276 92.476C86.739 92.1728 87.0952 91.6327 87.1253 91.1345C87.1622 90.5915 87.1099 90.035 86.7625 89.6165C86.4152 89.1979 85.9583 88.8999 85.4227 88.8184ZM47.7945 60.6042C47.5917 60.4362 47.4336 60.275 47.2308 60.1071C46.8699 59.7779 46.2072 59.6314 45.7027 59.6461C45.236 59.7122 44.646 59.9882 44.3549 60.401C44.0638 60.8139 43.8415 61.3744 43.8939 61.9309C43.9977 62.4495 44.2489 62.8991 44.6477 63.2798C44.8504 63.4478 45.0086 63.609 45.2113 63.7769C45.5723 64.1061 46.2349 64.2526 46.7395 64.2379C47.2062 64.1718 47.7961 63.8958 48.0872 63.483C48.3784 63.0701 48.6006 62.5096 48.5482 61.9531C48.4513 61.3898 48.1932 60.9849 47.7945 60.6042ZM77.693 73.2888C79.1484 73.3273 80.9502 73.1899 81.8818 71.8688C82.6319 70.8401 82.5612 69.5036 81.753 68.5122C80.7935 67.3148 79.6641 67.2345 78.3728 66.718C77.0814 66.2016 76.1781 65.8357 74.9595 65.7417C74.7877 65.6699 74.6092 65.6428 74.3793 65.6535C72.9685 65.6218 70.7573 65.1483 69.523 66.0577C68.2888 66.9671 68.3944 68.6745 69.1307 69.8379C70.6897 72.4978 74.8647 73.27 77.693 73.2888ZM65.5071 66.0411C65.544 65.4982 65.4403 64.9796 65.1444 64.5231C65.0687 64.4202 64.9552 64.2658 64.8795 64.1629C64.5768 63.7511 64.0752 63.4463 63.5397 63.3648C63.0487 63.2901 62.4345 63.4253 62.0231 63.7284C61.6049 64.0762 61.2624 64.5269 61.2254 65.0699C61.1885 65.6128 61.2923 66.1315 61.5882 66.5879C61.6639 66.6908 61.7774 66.8452 61.853 66.9482C62.1557 67.3599 62.6573 67.6648 63.1929 67.7462C63.6838 67.8209 64.298 67.6858 64.7094 67.3826C65.1277 67.0348 65.4256 66.5773 65.5071 66.0411ZM62.4609 93.8743C59.8723 93.4805 59.2607 97.5017 61.8493 97.8954C64.4379 98.2892 65.0496 94.268 62.4609 93.8743ZM118.392 60.5996C117.404 61.0893 116.674 61.984 117.188 63.1135C117.387 63.601 117.735 64.0195 118.25 64.235C118.72 64.4437 119.256 64.5252 119.767 64.4658C120.279 64.4065 120.766 64.2063 121.177 63.9032C121.595 63.5554 121.887 63.1425 121.975 62.5617C122.05 62.0702 121.915 61.4554 121.612 61.0437C121.265 60.6251 120.815 60.2824 120.272 60.2456C119.737 60.1641 119.033 60.2857 118.392 60.5996ZM123.001 57.9178C124.083 58.3109 125.335 58.1815 126.392 57.8393C128.268 57.2105 130.545 55.4539 130.425 53.2414C130.309 51.8982 129.24 50.8213 127.854 50.9304C126.193 51.0435 124.642 51.6305 123.291 52.705C122.52 53.2734 121.632 54.0069 121.393 54.9763C120.966 56.2827 121.747 57.4529 123.001 57.9178ZM111.789 78.7947C112.056 78.8355 112.338 78.7868 112.581 78.6868C113.017 78.5245 113.493 78.0941 113.702 77.623C113.911 77.1519 113.954 76.5642 113.717 76.0252C113.51 75.5824 113.132 75.0677 112.654 74.9037C112.393 74.8183 112.177 74.7396 111.916 74.6542C111.662 74.5241 111.394 74.4834 111.119 74.4874C110.852 74.4466 110.57 74.4953 110.327 74.5954C109.891 74.7577 109.415 75.188 109.206 75.6591C108.997 76.1302 108.954 76.7179 109.191 77.2569C109.398 77.6997 109.776 78.2144 110.254 78.3784C110.515 78.4638 110.731 78.5425 110.992 78.6279C111.246 78.758 111.514 78.7987 111.789 78.7947ZM127.032 74.3477C126.277 72.4044 124.025 72.199 122.203 72.4704C120.233 72.8108 118.591 73.7038 117.185 75.1357C116.277 76.0033 116.878 78.0603 117.624 78.8594C118.844 80.1422 122.629 79.5751 124.077 79.0639C126.012 78.3524 127.886 76.5348 127.032 74.3477ZM116.489 93.2237C115.156 94.4837 112.403 94.5679 110.762 93.9525C109.463 93.4807 108.654 91.8949 108.814 90.5477C108.946 89.3792 110.208 88.8855 111.213 88.5813C112.545 88.2352 113.954 87.6725 115.311 88.0617C117.622 88.7789 118.203 91.5644 116.489 93.2237ZM113.804 90.1639C113.938 90.1842 113.982 90.191 113.938 90.1842C113.855 90.126 113.811 90.1192 113.804 90.1639ZM111.589 89.4155C111.366 89.3816 111.366 89.3816 111.589 89.4155V89.4155ZM98.8472 100.232C98.6755 100.16 98.5037 100.088 98.3252 100.061C97.8032 99.8899 97.2677 99.8084 96.7291 100.046C96.2935 100.209 95.817 100.639 95.6084 101.11C95.3997 101.581 95.356 102.169 95.5937 102.708C95.8003 103.151 96.1408 103.614 96.656 103.83C96.8278 103.901 96.9995 103.973 97.178 104C97.7 104.171 98.2356 104.253 98.7741 104.015C99.2098 103.852 99.6862 103.422 99.8949 102.951C100.103 102.48 100.147 101.892 99.9095 101.353C99.6651 100.859 99.3246 100.396 98.8472 100.232ZM61.2966 39.9842C62.6715 39.0505 61.8654 37.145 61.4104 35.933C60.8866 34.5734 60.0164 33.3896 58.8104 32.6119C58.4806 32.3789 58.0925 32.2284 57.7286 32.2188C57.684 32.212 57.6461 32.1605 57.6015 32.1537C56.3616 31.5994 54.8838 32.6089 54.4325 33.7745C54.0462 34.8129 54.8999 36.4056 55.4024 37.3048C56.5588 39.3093 58.8999 41.631 61.2966 39.9842ZM66.3249 46.5545C66.5306 46.403 66.6984 46.2 66.7838 45.9387C66.9275 45.5948 66.9818 45.2374 66.9469 44.8664C66.9392 44.3166 66.6773 43.6368 66.2854 43.2115C65.7799 42.6318 65.158 42.2172 64.3546 42.095C64.1761 42.0678 63.9908 42.0853 63.8501 42.1097C63.3145 42.0282 62.7518 42.1255 62.3335 42.4733C61.4457 43.2068 61.269 44.3684 61.9054 45.2881C62.1635 45.693 62.5176 46.0669 62.8853 46.3514C63.4626 46.7592 63.9399 46.9232 64.5958 47.1144C65.2138 47.2541 65.8998 46.947 66.3249 46.5545ZM106.419 44.7446C107.446 44.9007 108.615 44.1186 108.733 43.0395C108.852 41.9604 108.147 40.8931 107.031 40.7234C106.629 40.6623 106.183 40.5944 105.781 40.5333C104.755 40.3772 103.585 41.1593 103.467 42.2384C103.348 43.3175 104.054 44.3848 105.17 44.5545C105.571 44.6156 105.973 44.6767 106.419 44.7446ZM113.825 41.391C112.56 40.6959 112.609 38.8748 113.696 38.0344C114.899 37.0289 116.25 35.9543 117.66 35.3917C119.217 34.76 121.462 35.01 121.898 36.9505C122.254 38.5132 120.708 39.9695 119.539 40.7516C118.369 41.5337 117.011 42.0585 115.58 42.1608C114.794 42.2242 114.203 41.9057 113.825 41.391ZM115.632 37.9174L115.683 37.8795L115.69 37.8348C115.652 37.7834 115.638 37.8727 115.632 37.9174ZM100.54 27.2564C100.368 27.1846 100.197 27.1128 100.018 27.0856C99.496 26.9148 98.9605 26.8333 98.4219 27.0714C97.9863 27.2337 97.5098 27.6641 97.3012 28.1352C97.0925 28.6063 97.0488 29.1939 97.2865 29.7329C97.4931 30.1758 97.8336 30.639 98.3488 30.8545C98.5206 30.9263 98.6923 30.9982 98.8708 31.0253C99.3928 31.1961 99.9284 31.2776 100.467 31.0395C100.903 30.8772 101.379 30.4468 101.588 29.9757C101.796 29.5046 101.84 28.917 101.602 28.378C101.358 27.8837 101.017 27.4205 100.54 27.2564ZM104.518 31.4271C103.804 31.3185 103.195 30.8145 102.933 30.1347C102.572 29.2111 102.993 28.5438 103.434 27.7424C103.688 27.2781 103.948 26.7691 104.283 26.363C105.496 24.9932 108.079 23.9233 109.338 25.8519C110.572 26.4509 111.075 27.9446 110.566 29.1928C109.639 31.3832 106.519 31.7773 104.518 31.4271ZM108.524 29.7051C108.517 29.7498 108.517 29.7498 108.524 29.7051C108.805 29.6565 108.839 29.4331 108.524 29.7051Z" fill="url(#paint23_radial)"/>
<g opacity="0.35">
<g opacity="0.35">
<path opacity="0.35" d="M83.92 87.3094C84.7234 87.4316 84.9137 86.1806 84.1103 86.0584C83.3002 85.9809 83.1167 87.1872 83.92 87.3094Z" fill="url(#paint24_radial)"/>
</g>
<g opacity="0.35">
<path opacity="0.35" d="M81.9435 94.0031C82.7468 94.1253 82.9371 92.8743 82.1338 92.7521C81.3304 92.6299 81.1401 93.8809 81.9435 94.0031Z" fill="url(#paint25_radial)"/>
</g>
<g opacity="0.35">
<path opacity="0.35" d="M89.9689 94.6752C90.7723 94.7974 90.9626 93.5464 90.1592 93.4242C89.3558 93.302 89.1655 94.553 89.9689 94.6752Z" fill="url(#paint26_radial)"/>
</g>
<g opacity="0.35">
<path opacity="0.35" d="M107.582 80.3488C108.385 80.471 108.576 79.22 107.772 79.0978C107.007 79.0271 106.823 80.2334 107.582 80.3488Z" fill="url(#paint27_radial)"/>
</g>
<g opacity="0.35">
<path opacity="0.35" d="M110.828 81.2085C111.632 81.3307 111.822 80.0797 111.019 79.9575C110.215 79.8353 110.025 81.0863 110.828 81.2085Z" fill="url(#paint28_radial)"/>
</g>
<g opacity="0.35">
<path opacity="0.35" d="M125.987 71.6281C126.79 71.7503 126.98 70.4993 126.177 70.3771C125.373 70.2549 125.183 71.5059 125.987 71.6281Z" fill="url(#paint29_radial)"/>
</g>
<g opacity="0.35">
<path opacity="0.35" d="M46.8927 59.0496C47.6961 59.1718 47.8864 57.9208 47.083 57.7986C46.2796 57.6764 46.0893 58.9274 46.8927 59.0496Z" fill="url(#paint30_radial)"/>
</g>
<g opacity="0.35">
<path opacity="0.35" d="M49.5353 65.9883C50.3386 66.1105 50.5289 64.8594 49.7256 64.7372C48.9222 64.6151 48.7319 65.8661 49.5353 65.9883Z" fill="url(#paint31_radial)"/>
</g>
<g opacity="0.35">
<path opacity="0.35" d="M53.173 85.6046C53.9763 85.7268 54.1666 84.4757 53.3632 84.3536C52.6045 84.2381 52.3696 85.4824 53.173 85.6046Z" fill="url(#paint32_radial)"/>
</g>
<g opacity="0.35">
<path opacity="0.35" d="M57.9288 84.3621C58.7321 84.4842 58.9224 83.2332 58.1191 83.111C57.3604 82.9956 57.1255 84.2399 57.9288 84.3621Z" fill="url(#paint33_radial)"/>
</g>
<g opacity="0.35">
<path opacity="0.35" d="M65.6701 98.613C66.4734 98.7352 66.6637 97.4842 65.8603 97.362C65.057 97.2398 64.8667 98.4909 65.6701 98.613Z" fill="url(#paint34_radial)"/>
</g>
<g opacity="0.35">
<path opacity="0.35" d="M93.1192 103.977C93.9226 104.099 94.1129 102.848 93.3095 102.726C92.5062 102.604 92.3159 103.855 93.1192 103.977Z" fill="url(#paint35_radial)"/>
</g>
<g opacity="0.35">
<path opacity="0.35" d="M96.5626 106.558C97.3659 106.68 97.5562 105.429 96.7529 105.307C95.9496 105.185 95.7593 106.436 96.5626 106.558Z" fill="url(#paint36_radial)"/>
</g>
<g opacity="0.35">
<path opacity="0.35" d="M102.707 40.3398C103.511 40.462 103.701 39.211 102.897 39.0888C102.094 38.9666 101.904 40.2176 102.707 40.3398Z" fill="url(#paint37_radial)"/>
</g>
<g opacity="0.35">
<path opacity="0.35" d="M106.602 39.0582C107.405 39.1804 107.595 37.9294 106.792 37.8072C105.982 37.7297 105.798 38.936 106.602 39.0582Z" fill="url(#paint38_radial)"/>
</g>
<g opacity="0.35">
<path opacity="0.35" d="M59.9122 42.196C60.7156 42.3182 60.9059 41.0672 60.1025 40.945C59.2992 40.8228 59.1089 42.0739 59.9122 42.196Z" fill="url(#paint39_radial)"/>
</g>
<g opacity="0.35">
<path opacity="0.35" d="M61.1896 33.7967C61.9929 33.9189 62.1832 32.6679 61.3798 32.5457C60.5765 32.4235 60.3862 33.6745 61.1896 33.7967Z" fill="url(#paint40_radial)"/>
</g>
<g opacity="0.35">
<path opacity="0.35" d="M67.8361 45.0468C68.6394 45.169 68.8297 43.918 68.0264 43.7958C67.223 43.6736 67.0327 44.9246 67.8361 45.0468Z" fill="url(#paint41_radial)"/>
</g>
<g opacity="0.35">
<path opacity="0.35" d="M67.8615 47.8849C68.6648 48.0071 68.8551 46.7561 68.0517 46.6339C67.2484 46.5117 67.0581 47.7627 67.8615 47.8849Z" fill="url(#paint42_radial)"/>
</g>
<g opacity="0.35">
<path opacity="0.35" d="M92.3869 28.9413C93.1902 29.0635 93.3805 27.8125 92.5771 27.6903C91.767 27.6128 91.5835 28.8191 92.3869 28.9413Z" fill="url(#paint43_radial)"/>
</g>
<g opacity="0.35">
<path opacity="0.35" d="M93.2287 25.5045C94.0321 25.6267 94.2224 24.3757 93.419 24.2535C92.6156 24.1313 92.4253 25.3823 93.2287 25.5045Z" fill="url(#paint44_radial)"/>
</g>
<g opacity="0.35">
<path opacity="0.35" d="M101.141 26.9358C101.944 27.058 102.134 25.807 101.331 25.6848C100.528 25.5626 100.337 26.8136 101.141 26.9358Z" fill="url(#paint45_radial)"/>
</g>
<g opacity="0.35">
<path opacity="0.35" d="M103.594 25.2064C104.397 25.3286 104.588 24.0776 103.784 23.9554C102.974 23.8778 102.791 25.0842 103.594 25.2064Z" fill="url(#paint46_radial)"/>
</g>
</g>
<g opacity="0.45">
<path opacity="0.45" d="M159.843 78.1038C156.389 75.2928 151.202 72.1723 144.452 68.8143C141.058 67.1095 137.39 65.4087 133.447 63.7119C133.428 65.0348 133.32 66.344 133.079 67.633C135.246 68.694 137.273 69.7794 139.255 70.8581C154.133 79.0181 156.592 83.8718 156.281 85.0132C155.964 86.1991 151.585 88.8701 135.031 87.2209C121.131 85.8381 103.112 81.8173 84.4065 76.0009C65.6634 70.133 48.4632 63.1283 35.9484 56.2421C21.0701 48.0821 18.6119 43.2283 18.9225 42.087C19.2399 40.901 23.6189 38.23 40.1724 39.8793C41.7481 40.0275 43.4063 40.234 45.1091 40.4473C45.3323 40.4812 45.5108 40.5084 45.7339 40.5423C46.1512 39.6001 46.6578 38.6715 47.2468 37.8011C43.5114 37.1415 39.9408 36.5984 36.5799 36.1786C29.0924 35.2683 23.0613 34.991 18.6136 35.4116C13.1946 35.913 10.1731 37.4648 9.35683 40.1292C8.5406 42.7936 10.2373 45.7487 14.4645 49.1802C17.9184 51.9912 23.1061 55.1116 29.8559 58.4696C43.5205 65.3022 62.2964 72.4551 82.6394 78.6121C100.671 84.0518 118.083 88.163 132.365 90.3353C134.195 90.6137 136.032 90.8473 137.735 91.0606C145.222 91.9709 151.253 92.2482 155.701 91.8276C161.12 91.3262 164.142 89.7744 164.958 87.11C165.767 84.4904 164.071 81.5352 159.843 78.1038Z" fill="url(#paint47_radial)"/>
</g>
<g opacity="0.45">
<path opacity="0.45" d="M155.678 39.4367C154.851 37.0709 152.072 35.8255 147.222 35.5906C143.233 35.3953 137.859 35.9035 131.246 37.0463C129.654 37.307 128.055 37.6123 126.36 37.9487C127.264 38.9091 127.956 40.0657 128.551 41.2534C143.599 39.2909 147.928 41.4578 148.327 42.4328C148.72 43.4526 146.976 47.7129 134.188 55.2305C123.403 61.5899 108.332 68.2115 91.7552 73.9186C75.1341 79.6189 59.039 83.6621 46.4138 85.3074C31.3658 87.2699 27.0376 85.1031 26.638 84.128C26.2451 83.1083 27.9891 78.8479 40.7768 71.3303C40.8283 71.2924 40.8283 71.2924 40.8797 71.2545C40.6586 70.3066 40.4888 69.3209 40.4152 68.304C38.9782 69.0454 37.579 69.8382 36.2312 70.5932C30.3463 73.858 25.8682 76.8797 22.8621 79.5309C19.2185 82.7709 17.8463 85.4879 18.6737 87.8537C19.5012 90.2195 22.2799 91.4649 27.1302 91.6998C31.1189 91.8951 36.4933 91.3869 43.1057 90.2441C56.5606 87.9479 73.8627 83.174 91.8112 76.8528C107.691 71.2226 122.382 65.0002 133.848 58.9729C135.336 58.1936 136.78 57.4075 138.128 56.6525C144.013 53.3877 148.491 50.3661 151.497 47.7148C155.133 44.5195 156.506 41.8025 155.678 39.4367Z" fill="url(#paint48_radial)"/>
</g>
</g>
<defs>
<radialGradient id="paint0_radial" cx="0" cy="0" r="1" gradientUnits="userSpaceOnUse" gradientTransform="translate(87.0816 62.7429) rotate(8.64848) scale(51.1535 51.2085)">
<stop stop-color="#F20074"/>
<stop offset="0.4293" stop-color="#F00175" stop-opacity="0.5707"/>
<stop offset="0.584" stop-color="#E90578" stop-opacity="0.416"/>
<stop offset="0.6943" stop-color="#DE0B7D" stop-opacity="0.3057"/>
<stop offset="0.7834" stop-color="#CD1585" stop-opacity="0.2166"/>
<stop offset="0.8597" stop-color="#B7218E" stop-opacity="0.1403"/>
<stop offset="0.9274" stop-color="#9B309A" stop-opacity="0.0726443"/>
<stop offset="0.987" stop-color="#7C42A8" stop-opacity="0.0129876"/>
<stop offset="1" stop-color="#7446AC" stop-opacity="0"/>
</radialGradient>
<radialGradient id="paint1_radial" cx="0" cy="0" r="1" gradientUnits="userSpaceOnUse" gradientTransform="translate(67.3355 12.825) rotate(8.64848) scale(111.481 111.601)">
<stop stop-color="#F20074"/>
<stop offset="0.1407" stop-color="#ED0376"/>
<stop offset="0.3069" stop-color="#DF0B7D"/>
<stop offset="0.486" stop-color="#C71887"/>
<stop offset="0.6741" stop-color="#A62A96"/>
<stop offset="0.8675" stop-color="#7B42A9"/>
<stop offset="0.8985" stop-color="#7446AC"/>
</radialGradient>
<radialGradient id="paint2_radial" cx="0" cy="0" r="1" gradientUnits="userSpaceOnUse" gradientTransform="translate(73.8308 33.1723) rotate(8.64848) scale(50.4365 50.4907)">
<stop stop-color="#F20074"/>
<stop offset="0.1407" stop-color="#ED0376"/>
<stop offset="0.3069" stop-color="#DF0B7D"/>
<stop offset="0.486" stop-color="#C71887"/>
<stop offset="0.6741" stop-color="#A62A96"/>
<stop offset="0.8675" stop-color="#7B42A9"/>
<stop offset="0.8985" stop-color="#7446AC"/>
</radialGradient>
<radialGradient id="paint3_radial" cx="0" cy="0" r="1" gradientUnits="userSpaceOnUse" gradientTransform="translate(124.802 121.355) rotate(8.64848) scale(86.6188 86.7119)">
<stop offset="0.0518519" stop-color="#E0A326"/>
<stop offset="0.4493" stop-color="#E0A128" stop-opacity="0.5808"/>
<stop offset="0.5925" stop-color="#DF9C2F" stop-opacity="0.4298"/>
<stop offset="0.6945" stop-color="#DD923A" stop-opacity="0.3222"/>
<stop offset="0.777" stop-color="#DB844B" stop-opacity="0.2352"/>
<stop offset="0.8477" stop-color="#D87261" stop-opacity="0.1607"/>
<stop offset="0.9102" stop-color="#D45B7D" stop-opacity="0.0946935"/>
<stop offset="0.9654" stop-color="#CF419C" stop-opacity="0.0364942"/>
<stop offset="1" stop-color="#CC2DB4" stop-opacity="0"/>
</radialGradient>
<radialGradient id="paint4_radial" cx="0" cy="0" r="1" gradientUnits="userSpaceOnUse" gradientTransform="translate(70.7957 18.6895) rotate(8.64848) scale(48.4774 48.5295)">
<stop offset="0.0518519" stop-color="#E0A326"/>
<stop offset="0.4493" stop-color="#E0A128" stop-opacity="0.5808"/>
<stop offset="0.5925" stop-color="#DF9C2F" stop-opacity="0.4298"/>
<stop offset="0.6945" stop-color="#DD923A" stop-opacity="0.3222"/>
<stop offset="0.777" stop-color="#DB844B" stop-opacity="0.2352"/>
<stop offset="0.8477" stop-color="#D87261" stop-opacity="0.1607"/>
<stop offset="0.9102" stop-color="#D45B7D" stop-opacity="0.0946935"/>
<stop offset="0.9654" stop-color="#CF419C" stop-opacity="0.0364942"/>
<stop offset="1" stop-color="#CC2DB4" stop-opacity="0"/>
</radialGradient>
<radialGradient id="paint5_radial" cx="0" cy="0" r="1" gradientUnits="userSpaceOnUse" gradientTransform="translate(70.6308 18.3159) rotate(8.64848) scale(46.4642 46.5141)">
<stop offset="0.0518519" stop-color="#E0A326"/>
<stop offset="0.4493" stop-color="#E0A128" stop-opacity="0.5808"/>
<stop offset="0.5925" stop-color="#DF9C2F" stop-opacity="0.4298"/>
<stop offset="0.6945" stop-color="#DD923A" stop-opacity="0.3222"/>
<stop offset="0.777" stop-color="#DB844B" stop-opacity="0.2352"/>
<stop offset="0.8477" stop-color="#D87261" stop-opacity="0.1607"/>
<stop offset="0.9102" stop-color="#D45B7D" stop-opacity="0.0946935"/>
<stop offset="0.9654" stop-color="#CF419C" stop-opacity="0.0364942"/>
<stop offset="1" stop-color="#CC2DB4" stop-opacity="0"/>
</radialGradient>
<radialGradient id="paint6_radial" cx="0" cy="0" r="1" gradientUnits="userSpaceOnUse" gradientTransform="translate(47.3014 54.5762) rotate(8.64848) scale(73.8945 73.974)">
<stop offset="0.0518519" stop-color="#E0A326"/>
<stop offset="0.4493" stop-color="#E0A128" stop-opacity="0.5808"/>
<stop offset="0.5925" stop-color="#DF9C2F" stop-opacity="0.4298"/>
<stop offset="0.6945" stop-color="#DD923A" stop-opacity="0.3222"/>
<stop offset="0.777" stop-color="#DB844B" stop-opacity="0.2352"/>
<stop offset="0.8477" stop-color="#D87261" stop-opacity="0.1607"/>
<stop offset="0.9102" stop-color="#D45B7D" stop-opacity="0.0946935"/>
<stop offset="0.9654" stop-color="#CF419C" stop-opacity="0.0364942"/>
<stop offset="1" stop-color="#CC2DB4" stop-opacity="0"/>
</radialGradient>
<radialGradient id="paint7_radial" cx="0" cy="0" r="1" gradientUnits="userSpaceOnUse" gradientTransform="translate(71.1295 32.3566) rotate(29.7087) scale(40.8884 40.921)">
<stop offset="0.0518519" stop-color="#E0A326"/>
<stop offset="0.4493" stop-color="#E0A128" stop-opacity="0.5808"/>
<stop offset="0.5925" stop-color="#DF9C2F" stop-opacity="0.4298"/>
<stop offset="0.6945" stop-color="#DD923A" stop-opacity="0.3222"/>
<stop offset="0.777" stop-color="#DB844B" stop-opacity="0.2352"/>
<stop offset="0.8477" stop-color="#D87261" stop-opacity="0.1607"/>
<stop offset="0.9102" stop-color="#D45B7D" stop-opacity="0.0946935"/>
<stop offset="0.9654" stop-color="#CF419C" stop-opacity="0.0364942"/>
<stop offset="1" stop-color="#CC2DB4" stop-opacity="0"/>
</radialGradient>
<radialGradient id="paint8_radial" cx="0" cy="0" r="1" gradientUnits="userSpaceOnUse" gradientTransform="translate(96.4736 13.2126) rotate(8.64848) scale(105.158 105.271)">
<stop stop-color="#B22390"/>
<stop offset="0.3396" stop-color="#9E2F99"/>
<stop offset="0.8985" stop-color="#7446AC"/>
</radialGradient>
<radialGradient id="paint9_radial" cx="0" cy="0" r="1" gradientUnits="userSpaceOnUse" gradientTransform="translate(96.4745 13.2132) rotate(8.64848) scale(105.158 105.271)">
<stop stop-color="#B22390"/>
<stop offset="0.3396" stop-color="#9E2F99"/>
<stop offset="0.8985" stop-color="#7446AC"/>
</radialGradient>
<radialGradient id="paint10_radial" cx="0" cy="0" r="1" gradientUnits="userSpaceOnUse" gradientTransform="translate(96.4729 13.2125) rotate(8.64848) scale(105.158 105.271)">
<stop stop-color="#B22390"/>
<stop offset="0.3396" stop-color="#9E2F99"/>
<stop offset="0.8985" stop-color="#7446AC"/>
</radialGradient>
<radialGradient id="paint11_radial" cx="0" cy="0" r="1" gradientUnits="userSpaceOnUse" gradientTransform="translate(96.472 13.2124) rotate(8.64848) scale(105.158 105.271)">
<stop stop-color="#B22390"/>
<stop offset="0.3396" stop-color="#9E2F99"/>
<stop offset="0.8985" stop-color="#7446AC"/>
</radialGradient>
<radialGradient id="paint12_radial" cx="0" cy="0" r="1" gradientUnits="userSpaceOnUse" gradientTransform="translate(96.4739 13.2131) rotate(8.64848) scale(105.158 105.271)">
<stop stop-color="#B22390"/>
<stop offset="0.3396" stop-color="#9E2F99"/>
<stop offset="0.8985" stop-color="#7446AC"/>
</radialGradient>
<radialGradient id="paint13_radial" cx="0" cy="0" r="1" gradientUnits="userSpaceOnUse" gradientTransform="translate(96.4737 13.2132) rotate(8.64848) scale(105.158 105.271)">
<stop stop-color="#B22390"/>
<stop offset="0.3396" stop-color="#9E2F99"/>
<stop offset="0.8985" stop-color="#7446AC"/>
</radialGradient>
<radialGradient id="paint14_radial" cx="0" cy="0" r="1" gradientUnits="userSpaceOnUse" gradientTransform="translate(96.4751 13.213) rotate(8.64848) scale(105.158 105.271)">
<stop stop-color="#B22390"/>
<stop offset="0.3396" stop-color="#9E2F99"/>
<stop offset="0.8985" stop-color="#7446AC"/>
</radialGradient>
<radialGradient id="paint15_radial" cx="0" cy="0" r="1" gradientUnits="userSpaceOnUse" gradientTransform="translate(95.5583 29.6425) rotate(8.64848) scale(77.2561 77.3392)">
<stop stop-color="#F20074"/>
<stop offset="0.1407" stop-color="#ED0376"/>
<stop offset="0.3069" stop-color="#DF0B7D"/>
<stop offset="0.486" stop-color="#C71887"/>
<stop offset="0.6741" stop-color="#A62A96"/>
<stop offset="0.8675" stop-color="#7B42A9"/>
<stop offset="0.8985" stop-color="#7446AC"/>
</radialGradient>
<radialGradient id="paint16_radial" cx="0" cy="0" r="1" gradientUnits="userSpaceOnUse" gradientTransform="translate(102.767 16.6045) rotate(8.64848) scale(108.214 108.331)">
<stop offset="0.0518519" stop-color="#E0A326"/>
<stop offset="0.4493" stop-color="#E0A128" stop-opacity="0.5808"/>
<stop offset="0.5925" stop-color="#DF9C2F" stop-opacity="0.4298"/>
<stop offset="0.6945" stop-color="#DD923A" stop-opacity="0.3222"/>
<stop offset="0.777" stop-color="#DB844B" stop-opacity="0.2352"/>
<stop offset="0.8477" stop-color="#D87261" stop-opacity="0.1607"/>
<stop offset="0.9102" stop-color="#D45B7D" stop-opacity="0.0946935"/>
<stop offset="0.9654" stop-color="#CF419C" stop-opacity="0.0364942"/>
<stop offset="1" stop-color="#CC2DB4" stop-opacity="0"/>
</radialGradient>
<radialGradient id="paint17_radial" cx="0" cy="0" r="1" gradientUnits="userSpaceOnUse" gradientTransform="translate(102.766 16.6043) rotate(8.64848) scale(108.214 108.331)">
<stop offset="0.0518519" stop-color="#E0A326"/>
<stop offset="0.4493" stop-color="#E0A128" stop-opacity="0.5808"/>
<stop offset="0.5925" stop-color="#DF9C2F" stop-opacity="0.4298"/>
<stop offset="0.6945" stop-color="#DD923A" stop-opacity="0.3222"/>
<stop offset="0.777" stop-color="#DB844B" stop-opacity="0.2352"/>
<stop offset="0.8477" stop-color="#D87261" stop-opacity="0.1607"/>
<stop offset="0.9102" stop-color="#D45B7D" stop-opacity="0.0946935"/>
<stop offset="0.9654" stop-color="#CF419C" stop-opacity="0.0364942"/>
<stop offset="1" stop-color="#CC2DB4" stop-opacity="0"/>
</radialGradient>
<radialGradient id="paint18_radial" cx="0" cy="0" r="1" gradientUnits="userSpaceOnUse" gradientTransform="translate(102.769 16.6041) rotate(8.64848) scale(108.215 108.331)">
<stop offset="0.0518519" stop-color="#E0A326"/>
<stop offset="0.4493" stop-color="#E0A128" stop-opacity="0.5808"/>
<stop offset="0.5925" stop-color="#DF9C2F" stop-opacity="0.4298"/>
<stop offset="0.6945" stop-color="#DD923A" stop-opacity="0.3222"/>
<stop offset="0.777" stop-color="#DB844B" stop-opacity="0.2352"/>
<stop offset="0.8477" stop-color="#D87261" stop-opacity="0.1607"/>
<stop offset="0.9102" stop-color="#D45B7D" stop-opacity="0.0946935"/>
<stop offset="0.9654" stop-color="#CF419C" stop-opacity="0.0364942"/>
<stop offset="1" stop-color="#CC2DB4" stop-opacity="0"/>
</radialGradient>
<radialGradient id="paint19_radial" cx="0" cy="0" r="1" gradientUnits="userSpaceOnUse" gradientTransform="translate(102.77 16.6044) rotate(8.64848) scale(108.214 108.331)">
<stop offset="0.0518519" stop-color="#E0A326"/>
<stop offset="0.4493" stop-color="#E0A128" stop-opacity="0.5808"/>
<stop offset="0.5925" stop-color="#DF9C2F" stop-opacity="0.4298"/>
<stop offset="0.6945" stop-color="#DD923A" stop-opacity="0.3222"/>
<stop offset="0.777" stop-color="#DB844B" stop-opacity="0.2352"/>
<stop offset="0.8477" stop-color="#D87261" stop-opacity="0.1607"/>
<stop offset="0.9102" stop-color="#D45B7D" stop-opacity="0.0946935"/>
<stop offset="0.9654" stop-color="#CF419C" stop-opacity="0.0364942"/>
<stop offset="1" stop-color="#CC2DB4" stop-opacity="0"/>
</radialGradient>
<radialGradient id="paint20_radial" cx="0" cy="0" r="1" gradientUnits="userSpaceOnUse" gradientTransform="translate(102.768 16.6042) rotate(8.64848) scale(108.214 108.331)">
<stop offset="0.0518519" stop-color="#E0A326"/>
<stop offset="0.4493" stop-color="#E0A128" stop-opacity="0.5808"/>
<stop offset="0.5925" stop-color="#DF9C2F" stop-opacity="0.4298"/>
<stop offset="0.6945" stop-color="#DD923A" stop-opacity="0.3222"/>
<stop offset="0.777" stop-color="#DB844B" stop-opacity="0.2352"/>
<stop offset="0.8477" stop-color="#D87261" stop-opacity="0.1607"/>
<stop offset="0.9102" stop-color="#D45B7D" stop-opacity="0.0946935"/>
<stop offset="0.9654" stop-color="#CF419C" stop-opacity="0.0364942"/>
<stop offset="1" stop-color="#CC2DB4" stop-opacity="0"/>
</radialGradient>
<radialGradient id="paint21_radial" cx="0" cy="0" r="1" gradientUnits="userSpaceOnUse" gradientTransform="translate(102.767 16.6047) rotate(8.64848) scale(108.214 108.331)">
<stop offset="0.0518519" stop-color="#E0A326"/>
<stop offset="0.4493" stop-color="#E0A128" stop-opacity="0.5808"/>
<stop offset="0.5925" stop-color="#DF9C2F" stop-opacity="0.4298"/>
<stop offset="0.6945" stop-color="#DD923A" stop-opacity="0.3222"/>
<stop offset="0.777" stop-color="#DB844B" stop-opacity="0.2352"/>
<stop offset="0.8477" stop-color="#D87261" stop-opacity="0.1607"/>
<stop offset="0.9102" stop-color="#D45B7D" stop-opacity="0.0946935"/>
<stop offset="0.9654" stop-color="#CF419C" stop-opacity="0.0364942"/>
<stop offset="1" stop-color="#CC2DB4" stop-opacity="0"/>
</radialGradient>
<radialGradient id="paint22_radial" cx="0" cy="0" r="1" gradientUnits="userSpaceOnUse" gradientTransform="translate(102.769 16.6045) rotate(8.64848) scale(108.215 108.331)">
<stop offset="0.0518519" stop-color="#E0A326"/>
<stop offset="0.4493" stop-color="#E0A128" stop-opacity="0.5808"/>
<stop offset="0.5925" stop-color="#DF9C2F" stop-opacity="0.4298"/>
<stop offset="0.6945" stop-color="#DD923A" stop-opacity="0.3222"/>
<stop offset="0.777" stop-color="#DB844B" stop-opacity="0.2352"/>
<stop offset="0.8477" stop-color="#D87261" stop-opacity="0.1607"/>
<stop offset="0.9102" stop-color="#D45B7D" stop-opacity="0.0946935"/>
<stop offset="0.9654" stop-color="#CF419C" stop-opacity="0.0364942"/>
<stop offset="1" stop-color="#CC2DB4" stop-opacity="0"/>
</radialGradient>
<radialGradient id="paint23_radial" cx="0" cy="0" r="1" gradientUnits="userSpaceOnUse" gradientTransform="translate(97.8845 21.2276) rotate(8.64848) scale(94.9147 95.0168)">
<stop stop-color="#F20074"/>
<stop offset="0.1407" stop-color="#ED0376"/>
<stop offset="0.3069" stop-color="#DF0B7D"/>
<stop offset="0.486" stop-color="#C71887"/>
<stop offset="0.6741" stop-color="#A62A96"/>
<stop offset="0.8675" stop-color="#7B42A9"/>
<stop offset="0.8985" stop-color="#7446AC"/>
</radialGradient>
<radialGradient id="paint24_radial" cx="0" cy="0" r="1" gradientUnits="userSpaceOnUse" gradientTransform="translate(84.0129 86.7078) rotate(8.64848) scale(0.614628 0.615288)">
<stop stop-color="#F20074"/>
<stop offset="0.1407" stop-color="#ED0376"/>
<stop offset="0.3069" stop-color="#DF0B7D"/>
<stop offset="0.486" stop-color="#C71887"/>
<stop offset="0.6741" stop-color="#A62A96"/>
<stop offset="0.8675" stop-color="#7B42A9"/>
<stop offset="0.8985" stop-color="#7446AC"/>
</radialGradient>
<radialGradient id="paint25_radial" cx="0" cy="0" r="1" gradientUnits="userSpaceOnUse" gradientTransform="translate(82.021 93.3722) rotate(8.64848) scale(0.614643 0.615325)">
<stop stop-color="#F20074"/>
<stop offset="0.1407" stop-color="#ED0376"/>
<stop offset="0.3069" stop-color="#DF0B7D"/>
<stop offset="0.486" stop-color="#C71887"/>
<stop offset="0.6741" stop-color="#A62A96"/>
<stop offset="0.8675" stop-color="#7B42A9"/>
<stop offset="0.8985" stop-color="#7446AC"/>
</radialGradient>
<radialGradient id="paint26_radial" cx="0" cy="0" r="1" gradientUnits="userSpaceOnUse" gradientTransform="translate(90.0728 94.0526) rotate(8.64848) scale(0.614654 0.615314)">
<stop stop-color="#F20074"/>
<stop offset="0.1407" stop-color="#ED0376"/>
<stop offset="0.3069" stop-color="#DF0B7D"/>
<stop offset="0.486" stop-color="#C71887"/>
<stop offset="0.6741" stop-color="#A62A96"/>
<stop offset="0.8675" stop-color="#7B42A9"/>
<stop offset="0.8985" stop-color="#7446AC"/>
</radialGradient>
<radialGradient id="paint27_radial" cx="0" cy="0" r="1" gradientUnits="userSpaceOnUse" gradientTransform="translate(107.69 79.7496) rotate(8.64848) scale(0.614642 0.615291)">
<stop stop-color="#F20074"/>
<stop offset="0.1407" stop-color="#ED0376"/>
<stop offset="0.3069" stop-color="#DF0B7D"/>
<stop offset="0.486" stop-color="#C71887"/>
<stop offset="0.6741" stop-color="#A62A96"/>
<stop offset="0.8675" stop-color="#7B42A9"/>
<stop offset="0.8985" stop-color="#7446AC"/>
</radialGradient>
<radialGradient id="paint28_radial" cx="0" cy="0" r="1" gradientUnits="userSpaceOnUse" gradientTransform="translate(110.934 80.5699) rotate(8.64848) scale(0.614654 0.615306)">
<stop stop-color="#F20074"/>
<stop offset="0.1407" stop-color="#ED0376"/>
<stop offset="0.3069" stop-color="#DF0B7D"/>
<stop offset="0.486" stop-color="#C71887"/>
<stop offset="0.6741" stop-color="#A62A96"/>
<stop offset="0.8675" stop-color="#7B42A9"/>
<stop offset="0.8985" stop-color="#7446AC"/>
</radialGradient>
<radialGradient id="paint29_radial" cx="0" cy="0" r="1" gradientUnits="userSpaceOnUse" gradientTransform="translate(126.092 71.0089) rotate(8.64848) scale(0.614689 0.615301)">
<stop stop-color="#F20074"/>
<stop offset="0.1407" stop-color="#ED0376"/>
<stop offset="0.3069" stop-color="#DF0B7D"/>
<stop offset="0.486" stop-color="#C71887"/>
<stop offset="0.6741" stop-color="#A62A96"/>
<stop offset="0.8675" stop-color="#7B42A9"/>
<stop offset="0.8985" stop-color="#7446AC"/>
</radialGradient>
<radialGradient id="paint30_radial" cx="0" cy="0" r="1" gradientUnits="userSpaceOnUse" gradientTransform="translate(46.9908 58.4335) rotate(8.64848) scale(0.614654 0.61531)">
<stop stop-color="#F20074"/>
<stop offset="0.1407" stop-color="#ED0376"/>
<stop offset="0.3069" stop-color="#DF0B7D"/>
<stop offset="0.486" stop-color="#C71887"/>
<stop offset="0.6741" stop-color="#A62A96"/>
<stop offset="0.8675" stop-color="#7B42A9"/>
<stop offset="0.8985" stop-color="#7446AC"/>
</radialGradient>
<radialGradient id="paint31_radial" cx="0" cy="0" r="1" gradientUnits="userSpaceOnUse" gradientTransform="translate(49.6327 65.3669) rotate(8.64848) scale(0.614643 0.61531)">
<stop stop-color="#F20074"/>
<stop offset="0.1407" stop-color="#ED0376"/>
<stop offset="0.3069" stop-color="#DF0B7D"/>
<stop offset="0.486" stop-color="#C71887"/>
<stop offset="0.6741" stop-color="#A62A96"/>
<stop offset="0.8675" stop-color="#7B42A9"/>
<stop offset="0.8985" stop-color="#7446AC"/>
</radialGradient>
<radialGradient id="paint32_radial" cx="0" cy="0" r="1" gradientUnits="userSpaceOnUse" gradientTransform="translate(53.284 84.9736) rotate(8.64848) scale(0.614643 0.615317)">
<stop stop-color="#F20074"/>
<stop offset="0.1407" stop-color="#ED0376"/>
<stop offset="0.3069" stop-color="#DF0B7D"/>
<stop offset="0.486" stop-color="#C71887"/>
<stop offset="0.6741" stop-color="#A62A96"/>
<stop offset="0.8675" stop-color="#7B42A9"/>
<stop offset="0.8985" stop-color="#7446AC"/>
</radialGradient>
<radialGradient id="paint33_radial" cx="0" cy="0" r="1" gradientUnits="userSpaceOnUse" gradientTransform="translate(58.0397 83.7372) rotate(8.64848) scale(0.614622 0.61531)">
<stop stop-color="#F20074"/>
<stop offset="0.1407" stop-color="#ED0376"/>
<stop offset="0.3069" stop-color="#DF0B7D"/>
<stop offset="0.486" stop-color="#C71887"/>
<stop offset="0.6741" stop-color="#A62A96"/>
<stop offset="0.8675" stop-color="#7B42A9"/>
<stop offset="0.8985" stop-color="#7446AC"/>
</radialGradient>
<radialGradient id="paint34_radial" cx="0" cy="0" r="1" gradientUnits="userSpaceOnUse" gradientTransform="translate(65.7695 97.9759) rotate(8.64848) scale(0.614649 0.615317)">
<stop stop-color="#F20074"/>
<stop offset="0.1407" stop-color="#ED0376"/>
<stop offset="0.3069" stop-color="#DF0B7D"/>
<stop offset="0.486" stop-color="#C71887"/>
<stop offset="0.6741" stop-color="#A62A96"/>
<stop offset="0.8675" stop-color="#7B42A9"/>
<stop offset="0.8985" stop-color="#7446AC"/>
</radialGradient>
<radialGradient id="paint35_radial" cx="0" cy="0" r="1" gradientUnits="userSpaceOnUse" gradientTransform="translate(93.2248 103.35) rotate(8.64848) scale(0.61462 0.615329)">
<stop stop-color="#F20074"/>
<stop offset="0.1407" stop-color="#ED0376"/>
<stop offset="0.3069" stop-color="#DF0B7D"/>
<stop offset="0.486" stop-color="#C71887"/>
<stop offset="0.6741" stop-color="#A62A96"/>
<stop offset="0.8675" stop-color="#7B42A9"/>
<stop offset="0.8985" stop-color="#7446AC"/>
</radialGradient>
<radialGradient id="paint36_radial" cx="0" cy="0" r="1" gradientUnits="userSpaceOnUse" gradientTransform="translate(96.6374 105.937) rotate(8.64848) scale(0.61462 0.615299)">
<stop stop-color="#F20074"/>
<stop offset="0.1407" stop-color="#ED0376"/>
<stop offset="0.3069" stop-color="#DF0B7D"/>
<stop offset="0.486" stop-color="#C71887"/>
<stop offset="0.6741" stop-color="#A62A96"/>
<stop offset="0.8675" stop-color="#7B42A9"/>
<stop offset="0.8985" stop-color="#7446AC"/>
</radialGradient>
<radialGradient id="paint37_radial" cx="0" cy="0" r="1" gradientUnits="userSpaceOnUse" gradientTransform="translate(102.796 39.7064) rotate(8.64848) scale(0.614635 0.615308)">
<stop stop-color="#F20074"/>
<stop offset="0.1407" stop-color="#ED0376"/>
<stop offset="0.3069" stop-color="#DF0B7D"/>
<stop offset="0.486" stop-color="#C71887"/>
<stop offset="0.6741" stop-color="#A62A96"/>
<stop offset="0.8675" stop-color="#7B42A9"/>
<stop offset="0.8985" stop-color="#7446AC"/>
</radialGradient>
<radialGradient id="paint38_radial" cx="0" cy="0" r="1" gradientUnits="userSpaceOnUse" gradientTransform="translate(106.686 38.4476) rotate(8.64848) scale(0.614643 0.615307)">
<stop stop-color="#F20074"/>
<stop offset="0.1407" stop-color="#ED0376"/>
<stop offset="0.3069" stop-color="#DF0B7D"/>
<stop offset="0.486" stop-color="#C71887"/>
<stop offset="0.6741" stop-color="#A62A96"/>
<stop offset="0.8675" stop-color="#7B42A9"/>
<stop offset="0.8985" stop-color="#7446AC"/>
</radialGradient>
<radialGradient id="paint39_radial" cx="0" cy="0" r="1" gradientUnits="userSpaceOnUse" gradientTransform="translate(59.993 41.5782) rotate(8.64848) scale(0.614631 0.615299)">
<stop stop-color="#F20074"/>
<stop offset="0.1407" stop-color="#ED0376"/>
<stop offset="0.3069" stop-color="#DF0B7D"/>
<stop offset="0.486" stop-color="#C71887"/>
<stop offset="0.6741" stop-color="#A62A96"/>
<stop offset="0.8675" stop-color="#7B42A9"/>
<stop offset="0.8985" stop-color="#7446AC"/>
</radialGradient>
<radialGradient id="paint40_radial" cx="0" cy="0" r="1" gradientUnits="userSpaceOnUse" gradientTransform="translate(61.2712 33.1729) rotate(8.64848) scale(0.614624 0.615315)">
<stop stop-color="#F20074"/>
<stop offset="0.1407" stop-color="#ED0376"/>
<stop offset="0.3069" stop-color="#DF0B7D"/>
<stop offset="0.486" stop-color="#C71887"/>
<stop offset="0.6741" stop-color="#A62A96"/>
<stop offset="0.8675" stop-color="#7B42A9"/>
<stop offset="0.8985" stop-color="#7446AC"/>
</radialGradient>
<radialGradient id="paint41_radial" cx="0" cy="0" r="1" gradientUnits="userSpaceOnUse" gradientTransform="translate(67.9352 44.419) rotate(8.64848) scale(0.614645 0.615317)">
<stop stop-color="#F20074"/>
<stop offset="0.1407" stop-color="#ED0376"/>
<stop offset="0.3069" stop-color="#DF0B7D"/>
<stop offset="0.486" stop-color="#C71887"/>
<stop offset="0.6741" stop-color="#A62A96"/>
<stop offset="0.8675" stop-color="#7B42A9"/>
<stop offset="0.8985" stop-color="#7446AC"/>
</radialGradient>
<radialGradient id="paint42_radial" cx="0" cy="0" r="1" gradientUnits="userSpaceOnUse" gradientTransform="translate(67.9399 47.2501) rotate(8.64848) scale(0.614653 0.615304)">
<stop stop-color="#F20074"/>
<stop offset="0.1407" stop-color="#ED0376"/>
<stop offset="0.3069" stop-color="#DF0B7D"/>
<stop offset="0.486" stop-color="#C71887"/>
<stop offset="0.6741" stop-color="#A62A96"/>
<stop offset="0.8675" stop-color="#7B42A9"/>
<stop offset="0.8985" stop-color="#7446AC"/>
</radialGradient>
<radialGradient id="paint43_radial" cx="0" cy="0" r="1" gradientUnits="userSpaceOnUse" gradientTransform="translate(92.4563 28.3357) rotate(8.64848) scale(0.614651 0.615308)">
<stop stop-color="#F20074"/>
<stop offset="0.1407" stop-color="#ED0376"/>
<stop offset="0.3069" stop-color="#DF0B7D"/>
<stop offset="0.486" stop-color="#C71887"/>
<stop offset="0.6741" stop-color="#A62A96"/>
<stop offset="0.8675" stop-color="#7B42A9"/>
<stop offset="0.8985" stop-color="#7446AC"/>
</radialGradient>
<radialGradient id="paint44_radial" cx="0" cy="0" r="1" gradientUnits="userSpaceOnUse" gradientTransform="translate(93.3086 24.8736) rotate(8.64848) scale(0.61467 0.615309)">
<stop stop-color="#F20074"/>
<stop offset="0.1407" stop-color="#ED0376"/>
<stop offset="0.3069" stop-color="#DF0B7D"/>
<stop offset="0.486" stop-color="#C71887"/>
<stop offset="0.6741" stop-color="#A62A96"/>
<stop offset="0.8675" stop-color="#7B42A9"/>
<stop offset="0.8985" stop-color="#7446AC"/>
</radialGradient>
<radialGradient id="paint45_radial" cx="0" cy="0" r="1" gradientUnits="userSpaceOnUse" gradientTransform="translate(101.249 26.2985) rotate(8.64848) scale(0.614631 0.615307)">
<stop stop-color="#F20074"/>
<stop offset="0.1407" stop-color="#ED0376"/>
<stop offset="0.3069" stop-color="#DF0B7D"/>
<stop offset="0.486" stop-color="#C71887"/>
<stop offset="0.6741" stop-color="#A62A96"/>
<stop offset="0.8675" stop-color="#7B42A9"/>
<stop offset="0.8985" stop-color="#7446AC"/>
</radialGradient>
<radialGradient id="paint46_radial" cx="0" cy="0" r="1" gradientUnits="userSpaceOnUse" gradientTransform="translate(103.681 24.6002) rotate(8.64848) scale(0.614666 0.615307)">
<stop stop-color="#F20074"/>
<stop offset="0.1407" stop-color="#ED0376"/>
<stop offset="0.3069" stop-color="#DF0B7D"/>
<stop offset="0.486" stop-color="#C71887"/>
<stop offset="0.6741" stop-color="#A62A96"/>
<stop offset="0.8675" stop-color="#7B42A9"/>
<stop offset="0.8985" stop-color="#7446AC"/>
</radialGradient>
<radialGradient id="paint47_radial" cx="0" cy="0" r="1" gradientUnits="userSpaceOnUse" gradientTransform="translate(81.1302 73.326) rotate(7.59192) scale(91.843 110.197)">
<stop stop-color="#8EE1EE"/>
<stop offset="0.6169" stop-color="#5E8DEC"/>
<stop offset="0.6298" stop-color="#5F89E8"/>
<stop offset="0.745" stop-color="#6B64C7"/>
<stop offset="0.8386" stop-color="#714EB3"/>
<stop offset="0.8985" stop-color="#7446AC"/>
</radialGradient>
<radialGradient id="paint48_radial" cx="0" cy="0" r="1" gradientUnits="userSpaceOnUse" gradientTransform="translate(86.4652 74.2958) rotate(-27.624) scale(98.967 98.999)">
<stop stop-color="#8EE1EE"/>
<stop offset="0.6169" stop-color="#5E8DEC"/>
<stop offset="0.6298" stop-color="#5F89E8"/>
<stop offset="0.745" stop-color="#6B64C7"/>
<stop offset="0.8386" stop-color="#714EB3"/>
<stop offset="0.8985" stop-color="#7446AC"/>
</radialGradient>
<clipPath id="clip0">
<rect width="160.987" height="102.499" fill="white" transform="translate(15.4141) rotate(8.64848)"/>
</clipPath>
</defs>
</svg>
