<svg width="74" height="74" viewBox="0 0 74 74" fill="none" xmlns="http://www.w3.org/2000/svg">
<g clip-path="url(#clip0)">
<path opacity="0.5" d="M37.0311 74.0622C57.4828 74.0622 74.0622 57.4828 74.0622 37.0311C74.0622 16.5794 57.4828 0 37.0311 0C16.5794 0 0 16.5794 0 37.0311C0 57.4828 16.5794 74.0622 37.0311 74.0622Z" fill="url(#paint0_radial)"/>
<path d="M37.0314 66.5938C53.3584 66.5938 66.5941 53.3581 66.5941 37.0311C66.5941 20.7041 53.3584 7.46848 37.0314 7.46848C20.7044 7.46848 7.46875 20.7041 7.46875 37.0311C7.46875 53.3581 20.7044 66.5938 37.0314 66.5938Z" fill="url(#paint1_radial)"/>
<path d="M12.074 40.3297C12.074 24.0235 25.3306 10.767 41.6367 10.767C46.9891 10.767 52.0303 12.1985 56.3869 14.688C51.2212 10.1447 44.3751 7.40622 36.9689 7.40622C20.6628 7.40622 7.40625 20.6627 7.40625 36.9689C7.40625 47.9226 13.381 57.5071 22.2187 62.6106C16.0572 57.196 12.074 49.2296 12.074 40.3297Z" fill="url(#paint2_radial)"/>
<path d="M21.6582 57.1337C10.0821 45.5576 10.0821 26.8865 21.6582 15.3104C25.4546 11.5139 30.0602 8.96216 34.8524 7.65518C28.0064 8.15308 21.2225 10.9538 15.9946 16.2439C4.41847 27.82 4.41847 46.4912 15.9946 58.0673C23.712 65.7847 34.728 68.3364 44.5614 65.7225C36.3461 66.2826 27.9441 63.4197 21.6582 57.1337Z" fill="url(#paint3_radial)"/>
<path opacity="0.4" d="M60.3071 18.7956C60.805 20.9739 61.0539 23.2145 61.0539 25.5172C61.0539 41.8234 47.7974 55.0799 31.4913 55.0799C22.0312 55.0799 13.567 50.5988 8.15234 43.6905C11.202 56.7603 22.9026 66.5315 36.9682 66.5315C53.2743 66.5315 66.5308 53.275 66.5308 36.9689C66.5931 30.1228 64.228 23.8368 60.3071 18.7956Z" fill="url(#paint4_radial)"/>
<path opacity="0.4" d="M65.9094 42.7569C64.6025 44.4996 63.0465 46.18 61.2416 47.6737C48.732 58.1918 30.0608 56.5736 19.605 44.0639C13.5057 36.7822 11.5141 27.5088 13.319 18.9201C5.22819 29.6871 5.29043 44.9352 14.3148 55.64C24.8329 68.1497 43.4418 69.7679 55.9515 59.2498C61.2416 54.831 64.5402 48.9807 65.9094 42.7569Z" fill="url(#paint5_radial)"/>
<g opacity="0.2">
<path opacity="0.2" d="M17.1157 23.4012C18.6094 23.6501 20.2898 23.6501 21.908 23.4634C23.5261 23.2767 25.0821 22.841 26.5135 22.2187C27.945 21.6585 29.1897 20.9117 30.1855 20.2271C30.6834 19.8537 31.1191 19.4802 31.4925 19.169C31.6792 18.9823 31.8659 18.8579 32.0526 18.7334C32.1771 18.6089 32.3638 18.4222 32.4883 18.2977C32.9862 17.7998 33.2974 17.4886 33.2974 17.4886C33.2974 17.4886 33.3596 17.4264 33.4841 17.2397C33.6085 17.1152 33.7953 16.8663 33.982 16.6173C34.2309 16.3684 34.4799 15.995 34.7288 15.6215C35.04 15.2481 35.3512 14.7502 35.6624 14.2523C36.8449 12.4474 38.1519 10.0202 39.5211 7.53069C38.8987 7.46846 38.2763 7.46846 37.5917 7.40622C36.2847 9.52228 35.04 11.5139 33.9197 13.0076C33.6085 13.5055 33.2351 13.8789 32.9862 14.2523C32.7372 14.6257 32.426 14.9369 32.2393 15.1859C32.0526 15.4348 31.8659 15.6215 31.7414 15.746C31.617 15.8705 31.5547 15.9327 31.5547 15.9327C31.5547 15.9327 31.3058 16.1817 30.8701 16.6796C30.7456 16.804 30.6212 16.9285 30.4967 17.053C30.3722 17.1775 30.1855 17.3019 30.061 17.4886C29.7498 17.7998 29.3764 18.1733 28.9408 18.4844C27.1981 19.8537 24.5219 21.2851 21.5968 21.8452C20.1653 22.1564 18.6094 22.2809 17.2402 22.1564C15.8709 22.032 14.564 21.6585 13.6304 21.1606C13.1948 20.9739 12.8213 20.725 12.5101 20.476C12.3857 20.6627 12.2612 20.8495 12.1367 21.0984C12.4479 21.4096 12.7591 21.7208 13.1948 21.9697C14.2528 22.5921 15.5598 23.1522 17.1157 23.4012Z" fill="url(#paint6_radial)"/>
<path opacity="0.2" d="M20.1022 14.6257C20.2267 15.1236 20.5379 15.6215 20.9113 16.0572C21.2847 16.4929 21.7826 16.8663 22.405 17.053C23.5875 17.4264 24.6455 17.3019 25.6413 17.1152C26.6371 16.8663 27.4462 16.4306 28.1308 16.0572C28.8154 15.6215 29.3133 15.2481 29.6245 14.9369C29.9357 14.6257 30.1224 14.439 30.1224 14.439C30.1224 14.439 30.807 13.6922 31.6161 12.4474C32.0517 11.8251 32.4874 11.0782 32.9231 10.3314C33.3587 9.5223 33.7944 8.71321 34.23 7.90413C34.2923 7.84189 34.3545 7.71742 34.3545 7.65518C33.6699 7.71742 32.9231 7.77966 32.2384 7.90413C31.9273 8.40203 31.5538 8.89993 31.2427 9.33559C30.7448 10.0824 30.3091 10.7048 29.8734 11.2027C29.0644 12.2607 28.3797 12.8209 28.3797 12.8209C28.3797 12.8209 28.2553 13.0076 28.0063 13.2565C27.7574 13.5055 27.384 13.8789 26.8861 14.2523C26.3882 14.6257 25.7658 14.9992 25.0189 15.2481C24.3343 15.4971 23.463 15.6215 22.7784 15.4971C22.0938 15.3726 21.5337 14.8747 21.2225 14.1901C20.9735 13.5677 20.7868 12.9453 20.7246 12.323C20.4134 12.5097 20.1022 12.7586 19.791 13.0076C19.8533 13.4432 19.9155 14.0034 20.1022 14.6257Z" fill="url(#paint7_radial)"/>
<path opacity="0.2" d="M24.2104 62.3616C24.2727 61.2414 24.895 60.2456 25.8908 59.4987C26.8866 58.7519 28.0691 58.1918 29.3139 57.7561C31.8656 56.947 34.604 56.1379 37.0313 55.3288C39.4585 54.582 42.0103 53.8351 43.8151 52.3415C44.7487 51.5946 45.4333 50.7233 45.869 49.7275C46.2424 48.7317 46.3046 47.7981 46.2424 47.1135C46.1802 46.3667 46.0557 45.8066 45.869 45.4331C45.8067 45.2464 45.7445 45.1219 45.6823 44.9975C45.62 44.873 45.62 44.873 45.62 44.873C45.62 44.873 45.5578 44.6863 45.2466 44.3129C44.9976 44.0017 44.562 43.4415 43.8151 43.0681C43.0683 42.6325 41.948 42.508 40.9522 42.7569C40.4543 42.8814 40.0187 43.0059 39.583 43.1926C39.1474 43.3171 38.7117 43.4415 38.276 43.5038C36.4089 43.8772 34.0439 43.7527 31.3677 43.6905C30.0607 43.6905 28.6293 43.7527 27.1978 44.0639C25.7664 44.3751 24.3971 45.0597 23.1524 45.8688C20.7252 47.4247 18.7336 49.3541 16.493 50.4121C14.7504 51.2834 12.8833 51.6568 11.1406 51.6568C11.3273 51.968 11.514 52.3415 11.7008 52.6526C13.3812 52.6526 15.186 52.3415 16.9909 51.5946C19.4804 50.4743 21.6587 48.6072 23.9615 47.238C25.0818 46.5534 26.2643 46.0555 27.509 45.8066C28.7537 45.5576 29.9985 45.5576 31.3055 45.5576C33.8572 45.6821 36.3467 45.931 38.5872 45.5576C39.1474 45.4954 39.7075 45.3087 40.1431 45.1842C40.641 45.0597 41.0145 44.9352 41.3257 44.873C42.0103 44.7485 42.3837 44.873 42.6949 44.9975C43.0061 45.1842 43.1928 45.4331 43.3172 45.6198C43.4417 45.8066 43.504 45.931 43.504 45.931C43.504 45.931 43.5662 46.0555 43.6907 46.2422C43.8151 46.4289 43.8774 46.8023 43.9396 47.3002C44.0019 47.7981 43.9396 48.3583 43.7529 48.9806C43.5662 49.5408 43.0683 50.2254 42.3837 50.7855C41.6991 51.3457 40.8278 51.9058 39.7697 52.3415C38.7117 52.7771 37.5292 53.1505 36.3467 53.5862C33.8572 54.4575 31.3055 55.3288 28.6293 56.2624C27.3223 56.7603 25.9531 57.3827 24.8328 58.3785C24.2727 58.8764 23.7748 59.4365 23.4013 60.1211C23.0279 60.8057 22.8412 61.5526 22.8412 62.2994C22.8412 62.5484 22.8412 62.7973 22.8412 63.0463C23.2769 63.2952 23.6503 63.4819 24.086 63.6686C24.2104 63.233 24.2104 62.7973 24.2104 62.3616Z" fill="url(#paint8_radial)"/>
<path opacity="0.2" d="M38.0277 62.9218L38.4011 62.6728C38.5256 62.6106 38.65 62.5484 38.8367 62.4861C39.957 61.926 41.015 61.6148 42.0108 61.4281C43.0066 61.2414 43.8157 61.1792 44.4381 61.1792C44.9982 61.1792 45.3716 61.1792 45.3716 61.1792C45.3716 61.1792 46.7409 61.0547 48.7947 61.2414C49.8527 61.3036 51.0352 61.4281 52.3422 61.6148C52.6534 61.677 52.9646 61.677 53.2758 61.7393C53.9604 61.3036 54.645 60.8057 55.3296 60.2456C54.4583 60.1211 53.5247 59.9344 52.6534 59.7477C51.3464 59.4987 50.1017 59.2498 48.9814 59.1253C46.8031 58.8764 45.3094 58.8764 45.3094 58.8764C45.3094 58.8764 44.936 58.8764 44.3136 58.9386C43.6912 59.0008 42.6954 59.1253 41.6374 59.3743C40.4549 59.6232 39.2102 60.1211 37.9654 60.8057C37.8409 60.868 37.6542 60.9924 37.4675 61.0547L37.0319 61.3659C36.7207 61.5526 36.4095 61.8015 36.1605 62.0505C35.6004 62.5484 35.0403 63.0463 34.6046 63.6064C33.8578 64.4777 33.1732 65.2868 32.5508 66.1581C33.1109 66.2204 33.6711 66.2826 34.2312 66.3448C34.7291 65.7847 35.2892 65.2246 35.7871 64.7267C36.285 64.2288 36.7829 63.7931 37.2808 63.4197C37.4675 63.2952 37.7787 63.1085 38.0277 62.9218Z" fill="url(#paint9_radial)"/>
<path opacity="0.2" d="M45.2475 14.3768C44.5007 15.3103 43.6293 16.2439 42.6958 17.1775C40.8287 19.0446 38.5881 20.7872 36.2231 22.2809C35.0406 23.0277 33.7959 23.7124 32.5511 24.2725C31.3064 24.8326 29.9994 25.3928 28.7547 26.0774C27.5099 26.762 26.3274 27.5711 25.3939 28.6291C24.5225 29.6871 23.9002 30.9319 23.6512 32.2388C23.4023 33.5458 23.7135 34.8528 24.2736 35.7864C24.8337 36.7199 25.5806 37.3423 26.2029 37.778C26.8253 38.1514 27.3854 38.3381 27.7589 38.5248C28.1323 38.6493 28.319 38.7115 28.319 38.7115C28.319 38.7115 28.5057 38.7738 28.8791 38.836C29.2526 38.8982 29.8127 38.9605 30.4973 38.9605C31.1819 38.9605 32.0532 38.8982 32.9868 38.7115C33.9203 38.5248 34.9161 38.2759 35.9742 37.8402C37.0322 37.4045 38.1525 36.8444 39.2105 36.1598C40.3308 35.4129 41.3266 34.5416 42.3224 33.6703C43.3182 32.799 44.3762 31.9899 45.4965 31.492C46.6167 30.9941 47.9859 30.8074 49.3552 30.8074C50.7244 30.7452 52.2181 30.8696 53.7118 30.6829C55.2055 30.4962 56.6369 30.1228 57.8817 29.5626C60.4334 28.5046 62.4872 26.8864 64.0431 25.3928C63.9187 25.0816 63.7942 24.8326 63.6697 24.5837C63.6075 24.6459 63.5452 24.6459 63.483 24.7081C61.8026 26.0151 59.811 27.5088 57.3838 28.3801C56.2012 28.8158 54.8943 29.127 53.5251 29.2515C52.2181 29.3137 50.7866 29.1892 49.2929 29.1892C47.7992 29.1892 46.2433 29.2515 44.7496 29.8738C43.3182 30.434 42.0734 31.3675 41.0154 32.2388C39.9574 33.1102 39.0238 33.9193 38.028 34.4794C37.0322 35.1018 36.0364 35.5374 35.1029 35.9108C34.1693 36.2843 33.2357 36.471 32.4267 36.5954C31.6798 36.7199 30.9952 36.7822 30.4351 36.7199C29.8749 36.7199 29.4393 36.6577 29.1903 36.5954C28.8791 36.5332 28.7547 36.471 28.7547 36.471C28.7547 36.471 28.6302 36.4087 28.319 36.3465C28.0701 36.2843 27.6344 36.1598 27.1987 35.8486C26.7631 35.5997 26.3274 35.2262 25.954 34.6661C25.5806 34.106 25.4561 33.4214 25.5183 32.55C25.6428 31.6787 26.0162 30.7452 26.7008 29.9361C27.3232 29.127 28.319 28.3801 29.4393 27.7578C30.5595 27.1354 31.8043 26.5753 33.1113 25.8907C34.4182 25.206 35.663 24.4592 36.9077 23.6501C39.335 22.0319 41.5755 20.1026 43.4426 18.111C44.3762 17.1152 45.1853 16.0572 45.9321 15.0614C46.679 14.0656 47.3636 13.0076 47.7992 12.0118C48.1104 11.2649 48.3594 10.5803 48.5461 9.83346C48.2971 9.70899 48.1104 9.64675 47.8615 9.52228C47.6748 10.1446 47.3636 10.8915 46.9902 11.5761C46.679 12.5097 46.0566 13.4432 45.2475 14.3768Z" fill="url(#paint10_radial)"/>
<path opacity="0.2" d="M26.5752 53.8351C26.9486 53.524 27.3843 53.2128 27.7577 52.9016C27.82 52.8393 27.9444 52.7771 28.0689 52.6526C28.1311 52.5904 28.1934 52.5904 28.2556 52.4659C28.3179 52.4037 28.3801 52.3415 28.4423 52.217C28.6913 51.9058 28.9402 51.5946 29.0647 51.2212C29.3759 50.5988 29.3136 49.9764 29.1269 49.5408C29.0025 49.2918 28.878 49.1051 28.7535 48.9184C28.5668 48.8562 28.4423 48.7317 28.3179 48.6695C28.2556 48.6072 28.1934 48.6072 28.1311 48.545C28.0689 48.545 27.9444 48.545 27.8822 48.545C27.6955 48.545 27.571 48.545 27.4465 48.545C27.1976 48.545 27.0731 48.545 27.0731 48.545C27.0731 48.545 26.9486 48.545 26.6997 48.6072C26.5752 48.6072 26.4507 48.6695 26.264 48.7317C26.2018 48.7317 26.0773 48.7939 26.0151 48.7939C25.9528 48.7939 25.8906 48.8562 25.8284 48.8562C25.3305 49.0429 24.5836 49.3541 23.8368 49.7897C22.2808 50.7233 20.7249 52.3414 19.2312 53.8974C17.9865 55.2044 16.555 56.3246 15.248 56.947C15.497 57.1959 15.7459 57.5071 15.9949 57.7561C17.4263 57.2582 18.9823 56.2624 20.2893 55.1421C21.9697 53.7107 23.5256 52.3414 24.8326 51.6568C25.4549 51.2834 26.0151 51.0967 26.3885 51.0345C26.4507 51.0345 26.4507 51.0345 26.513 50.9722C26.5752 50.9722 26.513 50.9722 26.513 50.9722C26.513 50.9722 26.5752 50.9722 26.5752 51.0345V51.0967C26.5752 51.0967 26.513 51.2212 26.3263 51.4079C26.0151 51.7191 25.6417 52.0303 25.2682 52.4037C24.5214 53.0883 23.7123 53.7729 22.9032 54.5197C20.7872 56.3869 18.4844 58.1295 17.2396 59.1253C17.4263 59.2498 17.5508 59.4365 17.7375 59.561C19.2312 58.8141 21.5962 57.4449 23.899 55.7645C24.8948 55.1421 25.7661 54.4575 26.5752 53.8351Z" fill="url(#paint11_radial)"/>
<path opacity="0.2" d="M47.0512 63.4819C47.0512 63.4819 46.4288 63.6064 45.433 63.8553C44.4372 64.1043 43.068 64.5399 41.8855 65.5357C41.5743 65.7847 41.3254 66.0336 41.1387 66.2826C44.624 65.7847 47.9225 64.7267 50.9099 63.1085C48.8561 63.2952 47.0512 63.4819 47.0512 63.4819Z" fill="url(#paint12_radial)"/>
<path opacity="0.2" d="M65.349 37.9024C64.5399 38.1514 63.4819 38.5871 62.5484 39.2094C62.0505 39.5206 61.6148 39.894 61.2414 40.2675C61.0547 40.4542 60.868 40.6409 60.6812 40.8276L60.5568 40.9521C60.4945 41.0143 60.4323 41.0765 60.3701 41.201C60.2456 41.3877 60.1211 41.5122 59.9966 41.6367C59.561 42.259 59.561 42.8192 59.6232 43.1926C59.6854 43.3793 59.7477 43.5038 59.8099 43.6283C59.8722 43.6905 59.8722 43.7527 59.8722 43.7527C59.8722 43.7527 59.9966 43.9394 60.3078 44.1262C60.4945 44.2506 60.6812 44.3129 60.9924 44.3751C61.3036 44.4373 61.677 44.4373 61.9882 44.4373C62.7973 44.4373 63.9176 44.4373 65.1001 44.1884C65.2868 44.1262 65.4735 44.1262 65.598 44.0639C65.7225 43.566 65.8469 43.0681 65.9092 42.508C65.598 42.5702 65.2246 42.5702 64.8511 42.5702C63.8553 42.5702 62.8595 42.4458 62.1127 42.3213C62.0505 42.259 62.1127 42.259 62.1127 42.259C62.1127 42.259 62.0505 42.3213 62.0505 42.259C62.0505 42.259 62.0505 42.259 62.0505 42.1968C62.0505 42.1968 62.0505 42.1968 62.0505 42.1346L62.1127 42.0101C62.2372 41.8234 62.3616 41.6367 62.4861 41.45C62.7973 41.0765 63.1085 40.7031 63.4197 40.3919C64.1043 39.7073 64.9134 39.0849 65.5357 38.6493C65.8469 38.4003 66.1581 38.2136 66.3448 38.0892C66.3448 37.9647 66.3448 37.8402 66.3448 37.7157C66.2826 37.7157 65.9092 37.778 65.349 37.9024Z" fill="url(#paint13_radial)"/>
<path opacity="0.2" d="M62.6743 36.4088C61.4296 36.8444 60.1226 37.1556 58.8778 37.5913C57.6331 38.0269 56.4506 38.5248 55.517 39.1472C55.0814 39.4584 54.6457 39.8318 54.2723 40.143C53.9611 40.4542 53.6499 40.8276 53.4632 41.0765C53.2765 41.3877 53.0898 41.5744 53.0275 41.7611C52.9653 41.9479 52.9031 42.0101 52.9031 42.0101C52.9031 42.0101 52.8408 42.0723 52.7786 42.259C52.7164 42.4458 52.5919 42.6947 52.4674 43.0059C52.2807 43.6905 52.0318 44.6863 52.3429 45.9933C52.4674 46.6156 52.8408 47.3003 53.2765 47.8604C53.7744 48.4205 54.3968 48.9184 55.0814 49.1674C56.5128 49.7897 58.0688 49.7275 59.5002 49.4163C60.9939 49.0429 62.1764 48.3583 63.2967 47.6737C63.8568 47.3625 64.3547 47.0513 64.7904 46.7401C64.9771 46.3045 65.1016 45.8066 65.226 45.3709C64.417 45.6821 63.5456 46.1178 62.6743 46.5534C61.554 47.1135 60.3715 47.6114 59.189 47.7982C58.0065 47.9849 56.7618 47.8604 55.8905 47.4247C55.0191 46.9891 54.5212 46.18 54.3968 45.4954C54.2723 44.7485 54.459 44.1262 54.5835 43.6905C54.6457 43.4416 54.7702 43.3171 54.8324 43.1926C54.8947 43.0681 54.8947 43.0059 54.8947 43.0059C54.8947 43.0059 54.9569 42.9437 54.9569 42.8192C55.0191 42.6947 55.0814 42.508 55.2681 42.3213C55.517 41.8856 55.9527 41.3877 56.6995 40.8276C57.4464 40.2675 58.3799 39.7696 59.5002 39.3339C60.6205 38.8982 61.9275 38.4626 63.1722 37.9024C64.3547 37.4045 65.475 36.8444 66.4708 36.1598C66.4708 35.6619 66.4085 35.2262 66.4085 34.7283C65.2883 35.413 64.0435 35.9731 62.6743 36.4088Z" fill="url(#paint14_radial)"/>
<path opacity="0.2" d="M9.14942 39.5206C9.39837 39.0227 9.4606 38.5248 9.33613 38.0892C9.21165 37.6535 8.96271 37.3423 8.77599 37.1556C8.65152 36.9689 8.58928 36.9066 8.58928 36.9066C8.58928 36.9066 8.15362 36.5955 7.53125 36.2843C7.53125 36.5332 7.53125 36.7822 7.53125 37.0311C7.53125 38.2136 7.59349 39.3961 7.7802 40.5786C7.84244 40.5786 7.96691 40.5164 8.02915 40.5164C8.15362 40.4542 8.2781 40.4542 8.34033 40.3919C8.46481 40.3297 8.58928 40.2675 8.71376 40.143C8.83823 39.9563 9.02494 39.7696 9.14942 39.5206Z" fill="url(#paint15_radial)"/>
<path opacity="0.2" d="M49.8519 23.2767C49.9142 23.09 49.9764 22.9655 50.0386 22.841C50.1631 22.5921 50.2876 22.4676 50.2876 22.4676C50.2876 22.4676 50.5988 21.9075 51.2834 21.0361C51.6568 20.6005 52.0925 20.1026 52.5904 19.4802C53.0882 18.8578 53.5861 18.1732 53.9596 17.4886C54.6442 16.3061 55.2043 15.1236 55.64 14.0656C55.391 13.8789 55.0798 13.6299 54.8309 13.4432C54.2708 14.3768 53.5239 15.5593 52.6526 16.5551C52.1547 17.1774 51.6568 17.7376 51.1589 18.2355C50.5988 18.7334 50.1009 19.2313 49.6652 19.6669C49.2295 20.1026 48.8561 20.5382 48.6072 20.8494C48.3582 21.1606 48.2338 21.3473 48.2338 21.3473C48.2338 21.3473 48.1093 21.534 47.9226 21.9697C47.8603 22.1564 47.7359 22.4054 47.6736 22.7165C47.6736 22.7788 47.6114 22.9033 47.6114 23.0277C47.6114 23.1522 47.5491 23.2767 47.5491 23.4012C47.4869 23.6501 47.5491 23.8991 47.5491 24.2102C47.6114 24.4592 47.6736 24.7081 47.7359 25.0193C47.7981 25.1438 47.7981 25.2683 47.8603 25.455V25.5172H47.9226H48.047H48.2338C48.5449 25.5172 48.7939 25.5795 49.1051 25.5172C49.4163 25.5172 49.7274 25.455 50.0386 25.455C50.7855 25.3305 51.5946 25.206 52.4036 25.0193C55.64 24.3347 58.5651 22.9655 58.4406 22.6543C58.3162 22.3431 55.2666 23.2144 52.1547 23.4012C51.4078 23.4634 50.5988 23.5256 49.8519 23.5256C49.6652 23.5256 49.6652 23.5256 49.603 23.4634C49.5407 23.4634 49.603 23.4012 49.603 23.3389C49.7897 23.3389 49.7897 23.3389 49.8519 23.2767Z" fill="url(#paint16_radial)"/>
<path opacity="0.2" d="M8.40193 31.7409C8.96207 33.0479 9.95786 34.2304 11.0781 34.7906C12.1984 35.4129 13.2564 35.4752 13.8788 35.5374C14.5634 35.5997 14.8746 35.5374 14.8746 35.5374C14.8746 35.5374 14.8746 35.5374 15.0613 35.5374V35.5997V35.7241C15.0613 35.7864 15.0613 35.8486 15.0613 35.9731C15.1235 36.5954 15.0613 37.4045 14.8124 38.2759C14.3145 40.0185 12.9452 42.0101 10.9537 43.1304C10.0823 43.6283 9.14878 44.0017 8.21522 44.2506C8.33969 44.624 8.40193 45.0597 8.52641 45.4331C9.5222 45.2464 10.6425 44.9975 11.6383 44.4996C12.8208 43.9394 13.941 43.1303 14.8124 42.1346C15.6837 41.1388 16.3061 40.0185 16.7417 38.9605C17.1151 37.9024 17.3018 36.8444 17.2396 35.9731C17.2396 35.8486 17.2396 35.7864 17.2396 35.6619C17.2396 35.5374 17.2396 35.4129 17.1774 35.3507C17.1774 35.0395 17.1151 34.7283 17.0529 34.4794C16.9284 33.9815 16.8662 33.5458 16.804 33.2969C15.8082 33.3591 15.248 33.4214 14.9368 33.4214C14.7501 33.4214 14.6879 33.4214 14.6879 33.4214C14.6879 33.4214 14.3767 33.4214 13.8166 33.4214C13.2564 33.4214 12.5718 33.3591 11.825 33.0479C11.1404 32.7367 10.3935 32.0521 9.89562 31.0563C9.33549 30.0605 9.08654 28.8158 8.83759 27.5088C8.46417 28.6913 8.09075 29.8738 7.8418 31.0563C8.15298 31.1808 8.27746 31.492 8.40193 31.7409Z" fill="url(#paint17_radial)"/>
</g>
</g>
<defs>
<radialGradient id="paint0_radial" cx="0" cy="0" r="1" gradientUnits="userSpaceOnUse" gradientTransform="translate(37.0032 37.0032) scale(37.0032)">
<stop offset="0.0222222" stop-color="#E43D99"/>
<stop offset="0.4741" stop-color="#E43D99"/>
<stop offset="0.837" stop-color="#E44099" stop-opacity="0.5"/>
<stop offset="1" stop-color="#E47E99" stop-opacity="0"/>
</radialGradient>
<radialGradient id="paint1_radial" cx="0" cy="0" r="1" gradientUnits="userSpaceOnUse" gradientTransform="translate(26.6626 14.7246) scale(62.5709)">
<stop offset="0.0592593" stop-color="#E47E99"/>
<stop offset="0.5259" stop-color="#E43D99"/>
<stop offset="0.9926" stop-color="#B30058"/>
</radialGradient>
<radialGradient id="paint2_radial" cx="0" cy="0" r="1" gradientUnits="userSpaceOnUse" gradientTransform="translate(23.3623 14.2382) scale(56.0437)">
<stop offset="0.0592593" stop-color="#E47E99"/>
<stop offset="0.5259" stop-color="#E43D99"/>
<stop offset="0.9926" stop-color="#B30058"/>
</radialGradient>
<radialGradient id="paint3_radial" cx="0" cy="0" r="1" gradientUnits="userSpaceOnUse" gradientTransform="translate(11.1685 30.7102) rotate(-45) scale(56.0437)">
<stop offset="0.0592593" stop-color="#E47E99"/>
<stop offset="0.5259" stop-color="#E43D99"/>
<stop offset="0.9926" stop-color="#B30058"/>
</radialGradient>
<radialGradient id="paint4_radial" cx="0" cy="0" r="1" gradientUnits="userSpaceOnUse" gradientTransform="translate(40.6995 40.3446) scale(51.876)">
<stop offset="0.00740741" stop-color="#B30058"/>
<stop offset="1" stop-color="#5C2D7D"/>
</radialGradient>
<radialGradient id="paint5_radial" cx="0" cy="0" r="1" gradientUnits="userSpaceOnUse" gradientTransform="translate(36.7984 41.593) rotate(49.9897) scale(51.8762)">
<stop offset="0.00740741" stop-color="#B30058"/>
<stop offset="1" stop-color="#5C2D7D"/>
</radialGradient>
<radialGradient id="paint6_radial" cx="0" cy="0" r="1" gradientUnits="userSpaceOnUse" gradientTransform="translate(25.8345 15.5264) scale(11.2555)">
<stop offset="0.00740741" stop-color="#B30058"/>
<stop offset="1" stop-color="#5C2D7D"/>
</radialGradient>
<radialGradient id="paint7_radial" cx="0" cy="0" r="1" gradientUnits="userSpaceOnUse" gradientTransform="translate(27.094 12.4186) scale(6.17723)">
<stop offset="0.00740741" stop-color="#B30058"/>
<stop offset="1" stop-color="#5C2D7D"/>
</radialGradient>
<radialGradient id="paint8_radial" cx="0" cy="0" r="1" gradientUnits="userSpaceOnUse" gradientTransform="translate(28.8741 53.1339) scale(14.4584)">
<stop offset="0.00740741" stop-color="#B30058"/>
<stop offset="1" stop-color="#5C2D7D"/>
</radialGradient>
<radialGradient id="paint9_radial" cx="0" cy="0" r="1" gradientUnits="userSpaceOnUse" gradientTransform="translate(43.8915 62.638) scale(8.50826)">
<stop offset="0.00740741" stop-color="#B30058"/>
<stop offset="1" stop-color="#5C2D7D"/>
</radialGradient>
<radialGradient id="paint10_radial" cx="0" cy="0" r="1" gradientUnits="userSpaceOnUse" gradientTransform="translate(43.9004 24.2256) scale(17.694)">
<stop offset="0.00740741" stop-color="#B30058"/>
<stop offset="1" stop-color="#5C2D7D"/>
</radialGradient>
<radialGradient id="paint11_radial" cx="0" cy="0" r="1" gradientUnits="userSpaceOnUse" gradientTransform="translate(22.2808 54.074) scale(6.28651)">
<stop offset="0.00740741" stop-color="#B30058"/>
<stop offset="1" stop-color="#5C2D7D"/>
</radialGradient>
<radialGradient id="paint12_radial" cx="0" cy="0" r="1" gradientUnits="userSpaceOnUse" gradientTransform="translate(46.031 64.6849) scale(3.63627)">
<stop offset="0.00740741" stop-color="#B30058"/>
<stop offset="1" stop-color="#5C2D7D"/>
</radialGradient>
<radialGradient id="paint13_radial" cx="0" cy="0" r="1" gradientUnits="userSpaceOnUse" gradientTransform="translate(63.1003 41.0999) scale(3.41993)">
<stop offset="0.00740741" stop-color="#B30058"/>
<stop offset="1" stop-color="#5C2D7D"/>
</radialGradient>
<radialGradient id="paint14_radial" cx="0" cy="0" r="1" gradientUnits="userSpaceOnUse" gradientTransform="translate(59.4235 42.2186) scale(7.28263)">
<stop offset="0.00740741" stop-color="#B30058"/>
<stop offset="1" stop-color="#5C2D7D"/>
</radialGradient>
<radialGradient id="paint15_radial" cx="0" cy="0" r="1" gradientUnits="userSpaceOnUse" gradientTransform="translate(8.40855 38.4071) scale(1.67623)">
<stop offset="0.00740741" stop-color="#B30058"/>
<stop offset="1" stop-color="#5C2D7D"/>
</radialGradient>
<radialGradient id="paint16_radial" cx="0" cy="0" r="1" gradientUnits="userSpaceOnUse" gradientTransform="translate(53.0939 19.4568) scale(5.76366)">
<stop offset="0.00740741" stop-color="#B30058"/>
<stop offset="1" stop-color="#5C2D7D"/>
</radialGradient>
<radialGradient id="paint17_radial" cx="0" cy="0" r="1" gradientUnits="userSpaceOnUse" gradientTransform="translate(12.7149 36.3196) scale(7.15136)">
<stop offset="0.00740741" stop-color="#B30058"/>
<stop offset="1" stop-color="#5C2D7D"/>
</radialGradient>
<clipPath id="clip0">
<rect width="74" height="74" fill="white"/>
</clipPath>
</defs>
</svg>
