<svg width="64" height="50" viewBox="0 0 64 50" fill="none" xmlns="http://www.w3.org/2000/svg">
<path fill-rule="evenodd" clip-rule="evenodd" d="M62.3372 27.4125C64.5364 20.2317 63.5987 16.844 61.5871 11.9019L61.3398 24.7598L62.3372 27.4125Z" fill="url(#paint0_radial_2236_18700)"/>
<path fill-rule="evenodd" clip-rule="evenodd" d="M25.1896 5.38847C41.1638 -0.085867 57.2232 4.36626 61.0506 15.3487C64.8779 26.3312 55.0325 39.6622 39.0583 45.1365C23.0841 50.6109 7.0161 46.1587 3.18876 35.1763C-0.638572 24.1938 9.2068 10.8712 25.1896 5.38847Z" fill="url(#paint1_radial_2236_18700)"/>
<path fill-rule="evenodd" clip-rule="evenodd" d="M24.5936 3.76647C40.5679 -1.70786 56.6274 2.75269 60.4547 13.7267C64.282 24.7007 54.4452 38.0402 38.4624 43.5145C22.4797 48.9888 6.42871 44.5367 2.59285 33.5627C-1.24301 22.5887 8.61089 9.24925 24.5936 3.76647V3.76647Z" fill="url(#paint2_radial_2236_18700)"/>
<path style="mix-blend-mode:screen" opacity="0.5" fill-rule="evenodd" clip-rule="evenodd" d="M52.254 23.2645C47.9919 10.9726 31.2164 5.32933 13.418 9.48577C4.38243 16.0499 -0.220602 25.4272 2.59236 33.5289C6.42822 44.5113 22.4877 48.955 38.4619 43.4807C43.54 41.7783 48.2337 39.1095 52.2796 35.624C53.6179 31.6109 53.6179 27.2776 52.2796 23.2645H52.254Z" fill="url(#paint3_radial_2236_18700)"/>
<path fill-rule="evenodd" clip-rule="evenodd" d="M61.5877 24.8781C57.4194 21.4144 48.452 19.1081 45.5197 18.9053L45.085 19.6065C50.1949 21.067 55.187 22.9053 60.0192 25.1062L60.5477 26.8803L59.9766 28.1982L62.3463 27.4125L61.5962 24.8781H61.5877Z" fill="url(#paint4_radial_2236_18700)"/>
<path fill-rule="evenodd" clip-rule="evenodd" d="M19.0176 4.55212L19.5546 5.84467C20.7184 6.47811 21.7578 7.31365 22.6233 8.31148L23.0069 8.10028C22.2568 6.49515 19.9382 4.55212 19.0176 4.55212V4.55212Z" fill="url(#paint5_radial_2236_18700)"/>
<path fill-rule="evenodd" clip-rule="evenodd" d="M2.30273 36.925L3.49612 38.6146H4.88556L3.71774 36.0802C6.72852 32.1337 10.3304 28.6666 14.3985 25.7989L14.1257 24.9541C8.88338 28.063 3.89675 32.7939 2.30273 36.8912V36.925Z" fill="url(#paint6_radial_2236_18700)"/>
<path fill-rule="evenodd" clip-rule="evenodd" d="M41.914 1.61218L41.2321 0.0830879C38.587 1.12306 36.4082 3.07242 35.0947 5.57432H36.2711C37.5198 3.93884 39.0845 2.5661 40.8741 1.53615L41.914 1.62909V1.61218Z" fill="url(#paint7_radial_2236_18700)"/>
<path fill-rule="evenodd" clip-rule="evenodd" d="M35.1806 5.44761C39.3489 5.73484 42.8523 7.28929 44.8299 9.86594C49.436 8.50919 54.2173 7.82613 59.0226 7.83839C60.3406 9.34941 61.3561 11.0955 62.0146 12.9832C63.2964 16.8734 63.1454 21.0879 61.5884 24.8781C56.4303 22.408 51.0546 20.4115 45.5289 18.9138V18.9138C44.0286 22.2254 40.8321 25.3681 36.5615 27.5223L44.881 41.884C42.9139 42.8879 40.8772 43.7518 38.7863 44.4691C32.623 46.6446 26.0371 47.3846 19.5388 46.6318C20.3535 41.0516 21.5873 35.5395 23.2298 30.1412C19.0785 29.6935 15.6433 27.9616 13.9044 25.1738C9.77015 28.1728 4.17832 33.4106 2.31154 36.9419C1.73443 35.9975 1.2601 34.995 0.896527 33.9513C-0.76568 29.1781 0.0441184 23.9911 2.6866 19.125C6.24809 17.446 10.069 16.3722 13.9896 15.9485V15.9485C16.0571 12.4572 19.1538 9.67703 22.8632 7.98202C21.7329 6.67009 20.4282 5.51627 18.9847 4.55212C20.6468 3.75784 22.3546 3.06109 24.0992 2.46545C29.6015 0.53377 35.4408 -0.276554 41.2668 0.083094C38.8938 1.43312 36.8323 3.26048 35.2147 5.44761H35.1806Z" fill="url(#paint8_radial_2236_18700)"/>
<path fill-rule="evenodd" clip-rule="evenodd" d="M19.5303 46.6149L20.4765 48.9804C26.7971 49.8097 33.2263 49.132 39.2295 47.0035C41.4265 46.2544 43.5588 45.3306 45.6056 44.241L44.8896 41.8671C42.9224 42.871 40.8857 43.7349 38.7948 44.4522C32.6315 46.6277 26.0456 47.3677 19.5473 46.6149H19.5303Z" fill="url(#paint9_radial_2236_18700)"/>
<path style="mix-blend-mode:screen" fill-rule="evenodd" clip-rule="evenodd" d="M35.1806 5.44761C39.3489 5.73484 42.8523 7.28929 44.8299 9.86594C49.436 8.50919 54.2173 7.82613 59.0226 7.83839C60.3406 9.34941 61.3561 11.0955 62.0146 12.9832C63.2964 16.8734 63.1454 21.0879 61.5884 24.8781C56.4303 22.408 51.0546 20.4115 45.5289 18.9138V18.9138C44.0286 22.2254 40.8321 25.3681 36.5615 27.5223L44.881 41.884C42.9139 42.8879 40.8772 43.7518 38.7863 44.4691C32.623 46.6446 26.0371 47.3846 19.5388 46.6318C20.3535 41.0516 21.5873 35.5395 23.2298 30.1412C19.0785 29.6935 15.6433 27.9616 13.9044 25.1738C9.77015 28.1728 4.17832 33.4106 2.31154 36.9419C1.73443 35.9975 1.2601 34.995 0.896527 33.9513C-0.76568 29.1781 0.0441184 23.9911 2.6866 19.125C6.24809 17.446 10.069 16.3722 13.9896 15.9485V15.9485C16.0571 12.4572 19.1538 9.67703 22.8632 7.98202C21.7329 6.67009 20.4282 5.51627 18.9847 4.55212C20.6468 3.75784 22.3546 3.06109 24.0992 2.46545C29.6015 0.53377 35.4408 -0.276554 41.2668 0.083094C38.8938 1.43312 36.8323 3.26048 35.2147 5.44761H35.1806Z" fill="url(#paint10_radial_2236_18700)"/>
<path fill-rule="evenodd" clip-rule="evenodd" d="M21.0304 48.1356C21.1091 48.2236 21.219 48.278 21.3373 48.2876C27.2874 48.9353 33.3082 48.2392 38.9481 46.2516C40.7512 45.6324 42.511 44.8958 44.2161 44.0467C44.2812 44.0188 44.3393 43.9772 44.3864 43.9246C44.4336 43.8721 44.4685 43.8099 44.4888 43.7426C44.5184 43.6656 44.5237 43.5816 44.5039 43.5016C44.4841 43.4216 44.4402 43.3495 44.378 43.2948C44.3145 43.2402 44.2361 43.2055 44.1526 43.195C44.0692 43.1845 43.9845 43.1986 43.9092 43.2357C42.3242 43.9792 40.6993 44.6363 39.0419 45.2041C33.3573 47.1999 27.3195 48.0166 21.3032 47.6033C21.2385 47.5974 21.1736 47.6108 21.1167 47.6419C21.0599 47.6729 21.0137 47.7202 20.9843 47.7776C20.9549 47.835 20.9436 47.8998 20.9518 47.9636C20.96 48.0274 20.9874 48.0874 21.0304 48.1356V48.1356Z" fill="#00FFFF"/>
<path fill-rule="evenodd" clip-rule="evenodd" d="M26.1115 8.00737C33.8259 5.2871 41.5743 7.25548 43.4326 12.4088C45.2908 17.5621 40.5344 23.9488 32.82 26.6691C25.1057 29.3894 17.3572 27.421 15.5075 22.2677C13.6578 17.1144 18.3972 10.7276 26.1115 8.00737Z" fill="url(#paint11_radial_2236_18700)"/>
<g style="mix-blend-mode:screen" opacity="0.75">
<path fill-rule="evenodd" clip-rule="evenodd" d="M25.9653 8.05804C33.5689 5.37156 41.2065 7.31461 43.0136 12.3919C44.8207 17.4692 40.1666 23.7714 32.563 26.4494C24.9595 29.1274 17.3219 27.1929 15.5148 22.1156C13.7076 17.0383 18.3703 10.7361 25.9739 8.05804H25.9653Z" fill="#9CFFF8"/>
</g>
<path fill-rule="evenodd" clip-rule="evenodd" d="M25.9221 7.50047C33.6364 4.7802 41.3849 6.74859 43.2431 11.9019C45.1014 17.0552 40.3449 23.4419 32.6306 26.1622C24.9162 28.8825 17.1678 26.9141 15.318 21.7608C13.4683 16.6075 18.2077 10.2207 25.9221 7.50047Z" fill="url(#paint12_radial_2236_18700)"/>
<path style="mix-blend-mode:screen" fill-rule="evenodd" clip-rule="evenodd" d="M42.4004 16.354C40.116 10.0095 30.5774 7.58496 21.0901 10.9388C20.2198 11.2467 19.3662 11.5992 18.5328 11.9948C15.5238 14.9601 14.1685 18.5928 15.3107 21.7608C17.1605 26.9141 24.9174 28.8909 32.6232 26.1622C37.5161 24.4726 41.2156 21.237 42.7925 17.8071C42.7128 17.3123 42.5873 16.8259 42.4175 16.354H42.4004Z" fill="url(#paint13_radial_2236_18700)"/>
<path fill-rule="evenodd" clip-rule="evenodd" d="M26.4776 9.13093C31.7966 7.24702 37.1413 8.60715 38.4114 12.1638C39.6814 15.7204 36.4167 20.1303 31.0977 22.0058C25.7786 23.8812 20.4254 22.5211 19.1639 18.9645C17.9023 15.4078 21.1585 11.0064 26.4861 9.13093H26.4776Z" fill="url(#paint14_radial_2236_18700)"/>
<path fill-rule="evenodd" clip-rule="evenodd" d="M26.6553 9.63782C31.5567 7.94821 36.4751 9.16473 37.6514 12.4341C38.8278 15.7035 35.8102 19.767 30.9174 21.4904C26.0245 23.2138 21.0976 21.972 19.9213 18.6941C18.7449 15.4163 21.7625 11.3697 26.6553 9.63782Z" fill="url(#paint15_radial_2236_18700)"/>
<path fill-rule="evenodd" clip-rule="evenodd" d="M20.1774 19.277C19.5466 16.1259 22.4875 12.451 27.082 10.829C31.6765 9.20698 36.2966 10.2038 37.8224 13.0424C37.7775 12.8365 37.7206 12.6334 37.6519 12.4341C36.4756 9.16473 31.5572 7.91442 26.6558 9.63782C21.7544 11.3612 18.7454 15.4247 19.9217 18.6941C19.993 18.8942 20.0784 19.089 20.1774 19.277V19.277Z" fill="url(#paint16_radial_2236_18700)"/>
<g style="mix-blend-mode:screen" opacity="0.5">
<path fill-rule="evenodd" clip-rule="evenodd" d="M26.6734 9.79833C31.0122 8.26923 35.3765 9.0549 37.1836 11.4879C35.4788 8.95352 31.0548 8.10871 26.6563 9.62936C22.9569 10.9388 20.3314 13.5746 19.7773 16.202C20.4337 13.6675 23.0421 11.074 26.6734 9.78987V9.79833Z" fill="#9CFFF8"/>
</g>
<path fill-rule="evenodd" clip-rule="evenodd" d="M21.1922 14.8587C20.7878 15.8364 20.6204 16.8944 20.7033 17.9478C20.7862 19.0012 21.1171 20.0207 21.6696 20.9244C23.8091 22.4366 27.3722 22.7408 30.9183 21.4904C34.4643 20.2401 37.1068 17.6888 37.7376 15.1375C37.505 13.8842 36.9273 12.7191 36.0683 11.7709C35.2094 10.8227 34.1026 10.1283 32.8703 9.76455C30.8547 9.28388 28.7396 9.41637 26.8011 10.1447C24.116 11.0994 22.0105 12.8988 21.1752 14.8587H21.1922Z" fill="url(#paint17_radial_2236_18700)"/>
<path fill-rule="evenodd" clip-rule="evenodd" d="M45.1611 19.6319C43.1639 23.0634 40.1614 25.8122 36.5518 27.5139L36.7478 27.8518C40.7201 25.7398 43.7035 22.783 45.1696 19.6319H45.1611Z" fill="url(#paint18_radial_2236_18700)"/>
<path style="mix-blend-mode:screen" opacity="0.5" fill-rule="evenodd" clip-rule="evenodd" d="M23.8083 21.2454C28.6415 22.7661 37.677 18.39 35.5204 12.5778C35.1647 11.6677 34.5396 10.8854 33.7273 10.3336C32.915 9.78184 31.9534 9.48629 30.9686 9.48578C29.5552 9.44275 28.1464 9.66637 26.8173 10.1447C24.1322 11.0994 22.0267 12.8988 21.1914 14.8587C21.1006 15.0685 21.0209 15.2828 20.9527 15.5008C20.8724 15.7782 20.8098 16.0604 20.7652 16.3456C20.5866 17.3913 20.7965 18.4657 21.3561 19.3697C21.9156 20.2738 22.7868 20.9462 23.8083 21.2624V21.2454Z" fill="url(#paint19_radial_2236_18700)"/>
<path style="mix-blend-mode:screen" opacity="0.5" fill-rule="evenodd" clip-rule="evenodd" d="M24.4664 11.8512C27.0237 10.1616 29.9219 10.1616 30.9959 11.7921C32.07 13.4226 30.9107 16.1428 28.379 17.824C25.8474 19.5052 22.9236 19.5136 21.841 17.8747C20.7584 16.2358 21.9348 13.5324 24.4664 11.8512V11.8512Z" fill="url(#paint20_radial_2236_18700)"/>
<path fill-rule="evenodd" clip-rule="evenodd" d="M32.581 9.95886C32.3252 9.95886 31.8308 9.95887 31.8479 10.2039C31.8649 10.4489 32.3338 10.4995 32.6151 10.5164C32.8964 10.5333 33.3226 10.5164 33.3311 10.2799C33.3396 10.0433 32.8537 9.97575 32.581 9.95886V9.95886ZM34.4478 11.4373C34.1494 11.3612 33.638 11.3528 33.5953 11.6316C33.5527 11.9104 33.9363 12.13 34.2347 12.206C34.533 12.2821 35.0104 12.299 35.0871 12.0117C35.1638 11.7245 34.7717 11.5133 34.4818 11.4373H34.4478ZM33.7488 13.7098C33.5698 13.9886 33.9022 14.3856 34.2006 14.5546C34.4989 14.7236 35.053 14.8165 35.2064 14.5124C35.3598 14.2082 35.0871 13.8956 34.7802 13.7098C34.4733 13.5239 33.9278 13.4479 33.7488 13.7098ZM32.3423 15.8556C32.2308 15.9995 32.1769 16.1792 32.1911 16.3602C32.2052 16.5411 32.2864 16.7104 32.419 16.8356C32.5526 16.9883 32.737 17.0884 32.9388 17.1179C33.1405 17.1473 33.3463 17.1041 33.5186 16.9961C33.7573 16.7849 33.655 16.2864 33.3822 16.0077C33.251 15.8708 33.0772 15.7814 32.8887 15.7538C32.7002 15.7263 32.5078 15.7621 32.3423 15.8556ZM29.6657 17.5452C29.5263 17.667 29.4338 17.833 29.4043 18.0148C29.3747 18.1967 29.4099 18.3831 29.5038 18.5421C29.5546 18.6396 29.6263 18.725 29.7139 18.7921C29.8016 18.8592 29.9029 18.9066 30.011 18.9307C30.119 18.9549 30.2311 18.9553 30.3394 18.9319C30.4476 18.9086 30.5493 18.862 30.6375 18.7955C30.7626 18.6512 30.8348 18.4692 30.8426 18.2791C30.8503 18.089 30.7931 17.9018 30.6801 17.748C30.5725 17.588 30.4053 17.4769 30.2152 17.4389C30.025 17.4009 29.8275 17.4391 29.6657 17.5452V17.5452ZM26.9465 18.0521C26.7467 18.0564 26.5562 18.137 26.4149 18.2771C26.2735 18.4171 26.1922 18.6059 26.1879 18.804C26.1539 18.9871 26.1914 19.1761 26.2926 19.3329C26.3939 19.4897 26.5514 19.6026 26.7334 19.6488C27.0744 19.6488 27.3898 19.3277 27.4324 18.8969C27.475 18.466 27.2704 18.0521 26.9465 18.0521ZM23.4772 17.9169C23.2982 18.2633 23.2897 18.7617 23.6051 18.9391C23.9204 19.1165 24.3722 18.6603 24.4575 18.3309C24.5853 17.824 24.4575 17.5368 24.2017 17.4861C24.0478 17.4694 23.8927 17.5044 23.7613 17.5856C23.6299 17.6668 23.5298 17.7895 23.4772 17.9338V17.9169ZM22.8123 15.9147C22.6163 15.7289 22.1986 15.9147 21.9599 16.1682C21.7212 16.4216 21.4655 16.9538 21.7127 17.1819C21.9599 17.41 22.3946 17.0721 22.6077 16.8102C22.8208 16.5483 22.9998 16.1175 22.7867 15.9147H22.8123ZM21.9599 13.997C21.7212 14.2251 21.4825 14.6475 21.6189 14.7911C21.7553 14.9348 22.2071 14.6982 22.4202 14.4955C22.6333 14.2927 22.9316 13.8872 22.7782 13.7098C22.6248 13.5324 22.1986 13.7774 21.9258 13.997H21.9599ZM23.9545 12.1638C24.3722 11.8597 24.483 11.471 24.0909 11.4795C23.741 11.7126 23.4077 11.9695 23.0936 12.2483C23.0254 12.5608 23.5624 12.451 23.946 12.1638H23.9545ZM25.8299 10.4742C26.0869 10.5587 26.3655 10.5528 26.6186 10.4574C26.8718 10.362 27.0839 10.1829 27.2193 9.9504L26.776 10.094C26.4521 10.2123 26.1367 10.339 25.8299 10.4742V10.4742ZM29.0179 9.53646C28.9071 9.75611 29.3248 9.90817 29.7254 9.87437C30.126 9.84058 30.4926 9.63783 30.305 9.42663C29.8873 9.42663 29.4526 9.47732 29.0179 9.53646V9.53646Z" fill="url(#paint21_radial_2236_18700)"/>
<path style="mix-blend-mode:screen" opacity="0.65" fill-rule="evenodd" clip-rule="evenodd" d="M32.8193 26.6437C25.1475 29.3556 17.4332 27.421 15.5323 22.3184C15.4425 22.1283 15.3629 21.9337 15.2936 21.7354C14.1514 18.5674 15.5067 14.9348 18.5158 11.9695C20.6155 9.95478 23.1352 8.42066 25.8977 7.47513V7.47513C24.8407 7.47513 23.7752 7.47515 22.6841 7.54273H22.5136L22.8972 7.95668L22.4965 8.15942C18.9548 9.85283 16.0043 12.5564 14.0235 15.9232V15.9232C11.8158 16.1721 9.63397 16.6102 7.50259 17.2326C6.70984 17.4692 5.93414 17.7395 5.16697 18.0267C4.3998 18.314 3.51329 18.6941 2.67792 19.0827C0.00134586 23.9488 -0.731722 29.1359 0.887864 33.9091C1.25144 34.9527 1.72576 35.9552 2.30286 36.8997V36.8997C2.59076 36.3675 2.91249 35.8539 3.26609 35.3621L3.32577 35.2692C5.75515 31.89 10.3582 27.666 13.8957 25.1315C14.0406 25.3681 14.2026 25.5962 14.373 25.8243C16.2228 28.2066 19.4193 29.6935 23.2211 30.099C21.6868 35.1335 20.5105 40.2684 19.7006 45.466C19.641 45.8377 19.5898 46.2094 19.5301 46.5896C26.0284 47.3423 32.6143 46.6023 38.7776 44.4269C40.8685 43.7096 42.9053 42.8457 44.8724 41.8418L44.3695 40.997L36.7489 27.8434L36.5528 27.5054C40.1625 25.8038 43.165 23.0549 45.1622 19.6234C45.2901 19.3784 45.4094 19.1419 45.5202 18.8969C47.8899 19.5727 49.9698 20.2063 51.973 20.8991L51.6235 20.1894C49.6845 16.6223 46.7446 13.6881 43.159 11.7414V11.8174C43.2517 12.0073 43.3342 12.2019 43.4062 12.4004C45.256 17.5537 40.508 23.9404 32.7937 26.6606L32.8193 26.6437Z" fill="url(#paint22_radial_2236_18700)"/>
<path style="mix-blend-mode:multiply" fill-rule="evenodd" clip-rule="evenodd" d="M38.53 1.93323C39.3782 1.24435 40.282 0.625571 41.2322 0.0831091C35.426 -0.26853 29.6078 0.541683 24.1242 2.46546C22.3796 3.0611 20.6719 3.75786 19.0098 4.55213C19.3056 4.72913 19.5902 4.9238 19.8622 5.13505C20.6634 4.80557 21.4818 4.50145 22.3171 4.21421C27.509 2.39391 33.015 1.61844 38.513 1.93323H38.53ZM54.3764 8.05806C56.2241 9.7684 57.6277 11.8956 58.468 14.2589C59.4847 17.2626 59.5709 20.4992 58.7152 23.5518C59.6358 23.9488 60.582 24.3966 61.5878 24.8612C63.1448 21.071 63.2958 16.8565 62.014 12.9664C61.3555 11.0786 60.3401 9.33254 59.022 7.82152C57.471 7.80978 55.9204 7.87745 54.3764 8.02427V8.05806Z" fill="url(#paint23_radial_2236_18700)"/>
<path fill-rule="evenodd" clip-rule="evenodd" d="M21.2763 47.7638C21.012 47.7638 20.8671 48.1187 21.37 48.1694C27.3369 48.7776 33.1589 47.7385 36.6282 46.2263C30.5846 47.5864 27.6353 48.0764 21.2848 47.7638H21.2763Z" fill="#BAFFFF"/>
<path style="mix-blend-mode:screen" fill-rule="evenodd" clip-rule="evenodd" d="M25.8121 18.1957C25.8121 18.5633 25.7022 18.9226 25.4961 19.2283C25.29 19.5339 24.9972 19.7721 24.6545 19.9128C24.3118 20.0535 23.9348 20.0903 23.571 20.0185C23.2072 19.9468 22.8731 19.7698 22.6108 19.5099C22.3485 19.25 22.1699 18.9188 22.0976 18.5583C22.0252 18.1978 22.0623 17.8241 22.2043 17.4845C22.3462 17.1449 22.5866 16.8546 22.895 16.6504C23.2034 16.4461 23.5659 16.3371 23.9368 16.3371C24.4342 16.3371 24.9112 16.5329 25.2629 16.8815C25.6146 17.23 25.8121 17.7028 25.8121 18.1957V18.1957Z" fill="url(#paint24_radial_2236_18700)"/>
<path style="mix-blend-mode:screen" fill-rule="evenodd" clip-rule="evenodd" d="M25.0712 18.1957C25.0695 18.4142 25.0026 18.6274 24.8789 18.8082C24.7551 18.9891 24.5801 19.1296 24.376 19.2121C24.1718 19.2946 23.9475 19.3153 23.7315 19.2716C23.5154 19.228 23.3173 19.1219 23.1619 18.9668C23.0066 18.8117 22.9011 18.6145 22.8587 18.4001C22.8163 18.1856 22.8389 17.9635 22.9237 17.7618C23.0085 17.5601 23.1516 17.3877 23.335 17.2665C23.5185 17.1453 23.734 17.0806 23.9545 17.0806C24.1019 17.0805 24.2478 17.1095 24.3838 17.1656C24.5199 17.2217 24.6433 17.304 24.7471 17.4077C24.8509 17.5114 24.933 17.6343 24.9886 17.7696C25.0442 17.9048 25.0723 18.0497 25.0712 18.1957V18.1957Z" fill="url(#paint25_radial_2236_18700)"/>
<path style="mix-blend-mode:screen" fill-rule="evenodd" clip-rule="evenodd" d="M28.6852 18.88C28.6852 19.2479 28.575 19.6076 28.3685 19.9134C28.1621 20.2192 27.8687 20.4575 27.5256 20.5979C27.1824 20.7383 26.8049 20.7746 26.4409 20.7022C26.0769 20.6298 25.7427 20.4519 25.4808 20.1912C25.2189 19.9304 25.041 19.5984 24.9696 19.2374C24.8982 18.8763 24.9365 18.5023 25.0798 18.1629C25.223 17.8234 25.4647 17.5337 25.7742 17.3305C26.0837 17.1273 26.4472 17.0197 26.8184 17.0214C27.0643 17.0214 27.3077 17.0695 27.5348 17.163C27.7618 17.2565 27.968 17.3936 28.1414 17.5663C28.3149 17.739 28.4522 17.9439 28.5455 18.1694C28.6389 18.3948 28.6863 18.6363 28.6852 18.88V18.88Z" fill="url(#paint26_radial_2236_18700)"/>
<path style="mix-blend-mode:screen" d="M26.8178 19.9867C27.4346 19.9867 27.9345 19.4912 27.9345 18.88C27.9345 18.2688 27.4346 17.7733 26.8178 17.7733C26.2011 17.7733 25.7012 18.2688 25.7012 18.88C25.7012 19.4912 26.2011 19.9867 26.8178 19.9867Z" fill="url(#paint27_radial_2236_18700)"/>
<path style="mix-blend-mode:screen" fill-rule="evenodd" clip-rule="evenodd" d="M23.5969 16.5737C23.5969 16.8414 23.5166 17.103 23.3664 17.3255C23.2162 17.548 23.0027 17.7212 22.7529 17.8233C22.5032 17.9253 22.2286 17.9516 21.9638 17.8988C21.699 17.8459 21.456 17.7163 21.2656 17.5264C21.0752 17.3366 20.946 17.0949 20.8943 16.8321C20.8427 16.5694 20.8709 16.2974 20.9754 16.0505C21.08 15.8037 21.2561 15.5932 21.4815 15.4457C21.7069 15.2982 21.9714 15.2203 22.2415 15.222C22.4202 15.222 22.5972 15.257 22.7622 15.325C22.9272 15.3931 23.0769 15.4928 23.2029 15.6184C23.3289 15.744 23.4285 15.8931 23.4962 16.0571C23.5638 16.221 23.598 16.3966 23.5969 16.5737V16.5737Z" fill="url(#paint28_radial_2236_18700)"/>
<path style="mix-blend-mode:screen" fill-rule="evenodd" clip-rule="evenodd" d="M23.0505 16.5737C23.0503 16.7425 22.9991 16.9074 22.9034 17.0471C22.8077 17.1868 22.672 17.2949 22.5137 17.3574C22.3554 17.4199 22.1819 17.434 22.0155 17.3978C21.8491 17.3617 21.6974 17.2769 21.5801 17.1545C21.4628 17.0321 21.3851 16.8776 21.3572 16.7111C21.3293 16.5445 21.3524 16.3735 21.4235 16.22C21.4946 16.0666 21.6105 15.9378 21.7561 15.8503C21.9018 15.7627 22.0706 15.7204 22.2407 15.7289C22.4593 15.7397 22.6654 15.8335 22.8161 15.9908C22.9669 16.148 23.0508 16.3567 23.0505 16.5737Z" fill="url(#paint29_radial_2236_18700)"/>
<g opacity="0.85">
<path style="mix-blend-mode:screen" opacity="0.85" d="M30.135 19.4798C30.86 19.4798 31.4477 18.8973 31.4477 18.1788C31.4477 17.4603 30.86 16.8778 30.135 16.8778C29.41 16.8778 28.8223 17.4603 28.8223 18.1788C28.8223 18.8973 29.41 19.4798 30.135 19.4798Z" fill="url(#paint30_radial_2236_18700)"/>
<path style="mix-blend-mode:screen" opacity="0.85" fill-rule="evenodd" clip-rule="evenodd" d="M30.9181 18.1957C30.9181 18.3494 30.8721 18.4997 30.7859 18.6275C30.6997 18.7553 30.5772 18.8549 30.4339 18.9138C30.2906 18.9726 30.133 18.988 29.9808 18.958C29.8287 18.928 29.689 18.854 29.5793 18.7453C29.4696 18.6366 29.3949 18.4981 29.3647 18.3473C29.3344 18.1966 29.3499 18.0403 29.4093 17.8983C29.4687 17.7562 29.5692 17.6349 29.6981 17.5495C29.8271 17.4641 29.9787 17.4185 30.1338 17.4185C30.3411 17.4207 30.5393 17.5033 30.6859 17.6485C30.8325 17.7938 30.9158 17.9903 30.9181 18.1957Z" fill="url(#paint31_radial_2236_18700)"/>
</g>
<g opacity="0.75">
<path style="mix-blend-mode:screen" opacity="0.75" fill-rule="evenodd" clip-rule="evenodd" d="M34.0288 16.4554C34.0288 16.673 33.9635 16.8856 33.8414 17.0664C33.7193 17.2472 33.5457 17.388 33.3427 17.4708C33.1397 17.5537 32.9165 17.575 32.7013 17.5319C32.4861 17.4888 32.2887 17.3834 32.134 17.229C31.9794 17.0745 31.8746 16.878 31.8328 16.6644C31.791 16.4509 31.8141 16.2298 31.8993 16.0292C31.9845 15.8287 32.1279 15.6578 32.3112 15.5381C32.4946 15.4185 32.7096 15.3555 32.9292 15.3572C33.0743 15.3572 33.218 15.3856 33.3519 15.4409C33.4859 15.4962 33.6075 15.5772 33.7097 15.6793C33.812 15.7814 33.8928 15.9026 33.9475 16.0358C34.0023 16.169 34.0299 16.3116 34.0288 16.4554V16.4554Z" fill="url(#paint32_radial_2236_18700)"/>
<path style="mix-blend-mode:screen" opacity="0.75" fill-rule="evenodd" clip-rule="evenodd" d="M33.5944 16.4554C33.5944 16.5861 33.5552 16.7138 33.4817 16.8224C33.4083 16.9309 33.304 17.0153 33.182 17.065C33.06 17.1146 32.9259 17.1271 32.7967 17.101C32.6675 17.0749 32.549 17.0113 32.4564 16.9183C32.3637 16.8253 32.3011 16.7071 32.2764 16.5787C32.2517 16.4503 32.2661 16.3176 32.3177 16.1973C32.3694 16.0771 32.4559 15.9748 32.5664 15.9034C32.6768 15.832 32.8062 15.7948 32.9381 15.7965C33.1129 15.7987 33.2798 15.8691 33.4027 15.9924C33.5256 16.1158 33.5944 16.2821 33.5944 16.4554V16.4554Z" fill="url(#paint33_radial_2236_18700)"/>
</g>
<path style="mix-blend-mode:screen" fill-rule="evenodd" clip-rule="evenodd" d="M23.3666 14.2674C23.3682 14.4883 23.3037 14.7047 23.1811 14.8892C23.0585 15.0737 22.8833 15.2179 22.6779 15.3036C22.4724 15.3893 22.2459 15.4126 22.0271 15.3706C21.8083 15.3285 21.607 15.223 21.4488 15.0673C21.2906 14.9117 21.1826 14.713 21.1385 14.4965C21.0944 14.2799 21.1161 14.0553 21.201 13.851C21.2859 13.6468 21.4302 13.4721 21.6154 13.3492C21.8006 13.2263 22.0185 13.1607 22.2414 13.1607C22.5383 13.1607 22.8232 13.277 23.034 13.4843C23.2448 13.6916 23.3643 13.9731 23.3666 14.2674Z" fill="url(#paint34_radial_2236_18700)"/>
<path style="mix-blend-mode:screen" fill-rule="evenodd" clip-rule="evenodd" d="M22.9063 14.2674C22.908 14.4001 22.8697 14.5303 22.7964 14.6413C22.7231 14.7523 22.618 14.8392 22.4946 14.8907C22.3712 14.9423 22.2351 14.9562 22.1037 14.9307C21.9723 14.9053 21.8515 14.8415 21.7568 14.7477C21.6621 14.6538 21.5978 14.5341 21.5721 14.4039C21.5464 14.2737 21.5604 14.1388 21.6125 14.0165C21.6645 13.8942 21.7521 13.7901 21.8642 13.7174C21.9762 13.6447 22.1075 13.6067 22.2414 13.6084C22.4178 13.6084 22.5869 13.6778 22.7116 13.8014C22.8363 13.925 22.9063 14.0926 22.9063 14.2674V14.2674Z" fill="url(#paint35_radial_2236_18700)"/>
<path style="mix-blend-mode:screen" opacity="0.2" fill-rule="evenodd" clip-rule="evenodd" d="M45.5283 18.9138C51.057 20.411 56.4355 22.4075 61.5963 24.8781C63.1533 21.0879 63.3043 16.8734 62.0225 12.9833C61.364 11.0955 60.3486 9.34942 59.0306 7.8384C54.2253 7.82613 49.444 8.5092 44.8379 9.86595C45.3369 10.5214 45.7335 11.2476 46.0142 12.0202C46.7715 14.2922 46.5969 16.7682 45.5283 18.9138Z" fill="url(#paint36_radial_2236_18700)"/>
<path style="mix-blend-mode:screen" opacity="0.25" fill-rule="evenodd" clip-rule="evenodd" d="M23.2212 30.1328C21.5779 35.5279 20.3441 41.0373 19.5303 46.6149C26.0286 47.3677 32.6145 46.6277 38.7778 44.4522C40.8687 43.7349 42.9054 42.871 44.8725 41.8671L36.553 27.5054C35.5718 27.9971 34.5613 28.4287 33.5269 28.798C30.2342 29.9953 26.7133 30.4485 23.2212 30.1243V30.1328Z" fill="url(#paint37_radial_2236_18700)"/>
<path style="mix-blend-mode:screen" opacity="0.25" fill-rule="evenodd" clip-rule="evenodd" d="M13.137 23.6194C12.724 22.3537 12.5864 21.0156 12.7333 19.6934C12.8803 18.3711 13.3084 17.0948 13.9894 15.9485C10.0552 16.3623 6.21957 17.4304 2.64375 19.1081C-0.0328247 23.9741 -0.765905 29.1613 0.85368 33.9344C1.21726 34.9781 1.69159 35.9806 2.26869 36.925C4.13548 33.3937 9.72731 28.1559 13.8615 25.1569C13.554 24.6739 13.3024 24.1582 13.1114 23.6194H13.137Z" fill="url(#paint38_radial_2236_18700)"/>
<path style="mix-blend-mode:screen" opacity="0.2" fill-rule="evenodd" clip-rule="evenodd" d="M25.633 6.84154C28.6864 5.7375 31.9351 5.26317 35.1801 5.44762C36.7976 3.26049 38.8592 1.43314 41.2322 0.083109C35.426 -0.26853 29.6078 0.541682 24.1242 2.46546C22.3796 3.0611 20.6719 3.75786 19.0098 4.55213C20.4532 5.51628 21.7579 6.67011 22.8882 7.98203C23.778 7.55118 24.6915 7.17041 25.6245 6.84154H25.633Z" fill="url(#paint39_radial_2236_18700)"/>
<path d="M38.7696 5.28709C38.7293 5.28107 38.6906 5.26692 38.656 5.24553C38.6215 5.22413 38.5917 5.19594 38.5685 5.16269C38.5453 5.12944 38.5293 5.09185 38.5214 5.05222C38.5134 5.01258 38.5138 4.97175 38.5224 4.93226C38.5389 4.85144 38.5862 4.78005 38.6545 4.73286C38.7227 4.68568 38.8067 4.66633 38.8889 4.67883C40.2464 4.93205 41.5705 5.33734 42.8356 5.88689C43.9932 6.38948 45.0748 7.04911 46.0492 7.84684C46.1075 7.90535 46.1402 7.98427 46.1402 8.0665C46.1402 8.14873 46.1075 8.22763 46.0492 8.28613C46.0207 8.31448 45.9868 8.33699 45.9495 8.35234C45.9122 8.36769 45.8722 8.37559 45.8318 8.37559C45.7914 8.37559 45.7514 8.36769 45.7141 8.35234C45.6768 8.33699 45.643 8.31448 45.6145 8.28613C44.6815 7.52912 43.6492 6.90106 42.5458 6.41912C41.3253 5.88628 40.0467 5.49507 38.7355 5.25329L38.7696 5.28709ZM42.1281 2.88784C42.0457 2.87534 41.9716 2.83097 41.9221 2.76448C41.8725 2.69799 41.8516 2.61477 41.8638 2.53302C41.87 2.49283 41.8843 2.45429 41.9057 2.41965C41.9272 2.38502 41.9555 2.35501 41.9888 2.33138C42.0222 2.30775 42.06 2.29098 42.1001 2.28208C42.1401 2.27319 42.1815 2.27235 42.2219 2.27958C44.2043 2.57019 46.1464 3.08611 48.0097 3.81713C49.7185 4.48434 51.3274 5.37965 52.7918 6.47826C52.8562 6.52835 52.8985 6.6013 52.9096 6.6817C52.9207 6.76211 52.8999 6.84368 52.8514 6.90912C52.7994 6.97357 52.7243 7.01565 52.6418 7.02666C52.5592 7.03767 52.4756 7.01675 52.4082 6.96824C50.9899 5.91713 49.4324 5.06433 47.7796 4.43383C45.9584 3.72469 44.0627 3.22028 42.1281 2.93007V2.88784ZM40.9006 3.67351C40.8575 3.67006 40.8156 3.65786 40.7774 3.63767C40.7393 3.61748 40.7057 3.58971 40.6789 3.55612C40.652 3.52254 40.6324 3.48385 40.6212 3.44243C40.6101 3.40101 40.6077 3.35776 40.6141 3.31538C40.6206 3.27299 40.6358 3.23236 40.6587 3.19603C40.6817 3.15971 40.7119 3.12845 40.7476 3.1042C40.7832 3.07995 40.8235 3.06324 40.866 3.05509C40.9085 3.04693 40.9522 3.0475 40.9944 3.05679C42.7718 3.33224 44.5129 3.80259 46.1856 4.45917C47.7098 5.06656 49.1436 5.87655 50.4476 6.86687C50.5121 6.91695 50.5543 6.98993 50.5655 7.07033C50.5766 7.15074 50.5557 7.23228 50.5073 7.29772C50.4553 7.36217 50.3802 7.40427 50.2976 7.41529C50.2151 7.4263 50.1315 7.40538 50.0641 7.35687C48.8038 6.3972 47.4153 5.61535 45.9384 5.03365C44.3134 4.39332 42.6205 3.93704 40.8921 3.67351H40.9006ZM39.7839 4.46762C39.7436 4.46097 39.7051 4.44652 39.6704 4.42509C39.6358 4.40365 39.6057 4.37566 39.5819 4.34271C39.5582 4.30977 39.5412 4.27249 39.532 4.23304C39.5228 4.19359 39.5215 4.15273 39.5282 4.1128C39.535 4.07286 39.5495 4.03464 39.5712 4.00029C39.5928 3.96593 39.621 3.93614 39.6543 3.9126C39.6875 3.88907 39.7251 3.87226 39.7649 3.86313C39.8047 3.85399 39.8459 3.85271 39.8862 3.85936C41.4572 4.1141 42.9932 4.54782 44.4637 5.15191C45.8074 5.70386 47.0691 6.43427 48.2143 7.32307C48.2468 7.34857 48.2739 7.38017 48.294 7.41606C48.3142 7.45195 48.327 7.49141 48.3317 7.53221C48.3365 7.573 48.3331 7.61433 48.3217 7.65382C48.3103 7.69331 48.2912 7.73019 48.2655 7.76236C48.2405 7.79427 48.2094 7.82095 48.1739 7.84081C48.1384 7.86067 48.0993 7.87332 48.0588 7.87804C48.0184 7.88276 47.9773 7.87945 47.9382 7.86829C47.899 7.85713 47.8625 7.83834 47.8307 7.81304C46.7289 6.95555 45.5126 6.25333 44.2165 5.72637C42.792 5.14127 41.3049 4.71897 39.7839 4.46762V4.46762ZM13.4018 14.9854C13.3628 15.0217 13.3124 15.0434 13.2591 15.0468C13.2057 15.0503 13.1529 15.0352 13.1096 15.0042C13.0662 14.9733 13.0351 14.9283 13.0215 14.8771C13.008 14.8259 13.0128 14.7716 13.0352 14.7236C13.971 13.4397 15.0489 12.2637 16.2488 11.2176C17.5352 10.1029 18.9284 9.11539 20.4086 8.26924C20.4343 8.25482 20.4627 8.24558 20.4921 8.24202C20.5214 8.23846 20.5512 8.24065 20.5797 8.24849C20.6082 8.25633 20.6348 8.26967 20.6581 8.28773C20.6814 8.30578 20.7009 8.32821 20.7155 8.35373C20.73 8.37925 20.7394 8.40734 20.7429 8.43644C20.7465 8.46553 20.7443 8.49505 20.7364 8.52329C20.7285 8.55153 20.715 8.57794 20.6968 8.60102C20.6786 8.62411 20.656 8.64342 20.6302 8.65785C19.1801 9.49001 17.8155 10.4605 16.5557 11.5555C15.378 12.5781 14.3201 13.7286 13.4018 14.9854V14.9854ZM11.7566 15.2642C11.7388 15.2888 11.7163 15.3097 11.6903 15.3256C11.6644 15.3414 11.6355 15.3521 11.6053 15.3568C11.5752 15.3615 11.5444 15.3602 11.5148 15.353C11.4851 15.3458 11.4572 15.3329 11.4327 15.3149C11.4088 15.2974 11.3887 15.2754 11.3736 15.2501C11.3584 15.2248 11.3486 15.1967 11.3446 15.1676C11.3406 15.1384 11.3426 15.1088 11.3504 15.0804C11.3582 15.052 11.3717 15.0255 11.3901 15.0023C12.4607 13.5643 13.6933 12.252 15.064 11.0909C16.5216 9.84981 18.0974 8.75203 19.7693 7.81304C19.8228 7.78474 19.8853 7.77773 19.9438 7.79342C20.0024 7.80912 20.0528 7.84634 20.0847 7.89753C20.1128 7.94933 20.1196 8.00991 20.1037 8.06658C20.0878 8.12325 20.0505 8.17165 19.9994 8.20167C18.3511 9.1247 16.7979 10.2056 15.3623 11.4288C14.0207 12.5709 12.8114 13.8573 11.7566 15.2642V15.2642ZM10.0518 15.6106C10.0128 15.6469 9.96239 15.6685 9.90908 15.672C9.85576 15.6754 9.8029 15.6604 9.75956 15.6294C9.71623 15.5984 9.68511 15.5535 9.67155 15.5023C9.65798 15.4511 9.66282 15.3968 9.68523 15.3487C10.8953 13.7475 12.2851 12.2879 13.828 10.998C15.4647 9.62014 17.235 8.40615 19.1129 7.37375C19.1387 7.35989 19.1669 7.35117 19.1961 7.34813C19.2252 7.34508 19.2547 7.34775 19.2828 7.35599C19.3109 7.36423 19.337 7.37786 19.3598 7.39613C19.3826 7.4144 19.4015 7.43695 19.4155 7.46247C19.4295 7.48798 19.4383 7.51596 19.4414 7.54484C19.4445 7.57372 19.4418 7.60292 19.4334 7.63077C19.4251 7.65862 19.4114 7.68458 19.3929 7.70716C19.3745 7.72974 19.3518 7.74849 19.326 7.76236C17.4779 8.78774 15.7337 9.98729 14.1178 11.3443C12.6069 12.6125 11.2431 14.0433 10.0518 15.6106V15.6106ZM8.34695 16.033C8.32855 16.0569 8.30555 16.077 8.27927 16.0921C8.253 16.1072 8.22397 16.117 8.19386 16.121C8.16375 16.1249 8.13316 16.1229 8.10384 16.115C8.07452 16.1072 8.04705 16.0936 8.02303 16.0752C7.97667 16.0386 7.94636 15.9857 7.93842 15.9274C7.93048 15.8692 7.94551 15.8102 7.9804 15.7627C9.32942 13.9928 10.8765 12.3802 12.592 10.9557C14.407 9.43012 16.3716 8.08864 18.4566 6.95135C18.5111 6.92378 18.5743 6.91804 18.633 6.93534C18.6917 6.95264 18.7415 6.99163 18.772 7.04427C18.7994 7.09708 18.8049 7.15841 18.7874 7.2152C18.7699 7.27199 18.7307 7.31979 18.6782 7.34841C16.6195 8.47086 14.6779 9.79236 12.8818 11.2936C11.1978 12.7021 9.67684 14.2917 8.34695 16.033V16.033ZM56.0821 25.1146C56.1341 25.0026 56.2289 24.9156 56.3456 24.8729C56.4623 24.8301 56.5913 24.835 56.7043 24.8866C56.8174 24.9381 56.9051 25.032 56.9483 25.1477C56.9915 25.2633 56.9865 25.3912 56.9345 25.5032C55.6584 28.0322 53.9708 30.3355 51.9394 32.3208C49.722 34.5108 47.2194 36.3974 44.4978 37.9303C44.3937 37.9882 44.2708 38.0029 44.1558 37.9713C44.0408 37.9396 43.9431 37.8642 43.8841 37.7614C43.8245 37.658 43.8081 37.5356 43.8384 37.4203C43.8686 37.3051 43.9432 37.2062 44.046 37.1447C46.6994 35.6552 49.1392 33.8197 51.3 31.6872C53.2552 29.7704 54.8819 27.5504 56.1162 25.1146H56.0821ZM18.7549 41.6728C18.814 41.6839 18.8702 41.7065 18.9203 41.7394C18.9704 41.7723 19.0134 41.8148 19.0468 41.8644C19.0801 41.9139 19.1031 41.9696 19.1145 42.0281C19.1258 42.0866 19.1253 42.1468 19.1129 42.205C19.0882 42.3222 19.0181 42.425 18.9177 42.4913C18.8172 42.5577 18.6945 42.5823 18.5759 42.5599C16.035 42.0599 13.5935 41.1525 11.3474 39.8734C9.34433 38.7281 7.60279 37.1833 6.23295 35.3368C6.16287 35.2393 6.13474 35.1182 6.15472 35.0002C6.1747 34.8822 6.24116 34.7769 6.33951 34.7074C6.43785 34.638 6.56001 34.6101 6.6791 34.6299C6.79819 34.6497 6.90448 34.7155 6.97456 34.813C8.27768 36.5617 9.93564 38.0206 11.8418 39.0961C13.9985 40.3286 16.3458 41.1992 18.789 41.6728H18.7549ZM53.1413 23.9319C53.1976 23.8264 53.2934 23.7469 53.4081 23.7106C53.5229 23.6743 53.6474 23.684 53.755 23.7376C53.8615 23.7934 53.9417 23.8884 53.9783 24.0021C54.015 24.1158 54.0052 24.2392 53.9511 24.3459C52.7847 26.5593 51.2713 28.5753 49.4674 30.3186C47.5049 32.2363 45.2985 33.892 42.9038 35.2438C42.7994 35.3029 42.676 35.3191 42.5597 35.2891C42.4434 35.2591 42.3436 35.1853 42.2815 35.0833C42.2249 34.9784 42.211 34.856 42.2427 34.7413C42.2744 34.6266 42.3493 34.5283 42.452 34.4666C44.7761 33.1479 46.9191 31.538 48.8281 29.6766C50.5632 27.9997 52.019 26.0608 53.1413 23.9319V23.9319ZM19.3601 38.5893C19.4767 38.6156 19.5784 38.6859 19.6437 38.7852C19.7089 38.8846 19.7325 39.0052 19.7096 39.1215C19.6975 39.1793 19.6739 39.2341 19.6403 39.2828C19.6067 39.3315 19.5637 39.3732 19.5138 39.4054C19.4639 39.4376 19.408 39.4596 19.3495 39.4704C19.2909 39.4811 19.2308 39.4802 19.1726 39.4679C16.9331 39.0231 14.7803 38.2245 12.7965 37.1024C11.0156 36.1027 9.45828 34.7547 8.21908 33.1403C8.18259 33.0928 8.15605 33.0386 8.141 32.9809C8.12594 32.9231 8.12269 32.8629 8.13143 32.8039C8.14016 32.7449 8.1607 32.6882 8.19186 32.6372C8.22301 32.5861 8.26415 32.5418 8.31284 32.5067C8.36003 32.4707 8.41404 32.4446 8.47164 32.4298C8.52925 32.415 8.58928 32.4118 8.64815 32.4205C8.70701 32.4291 8.76352 32.4495 8.81428 32.4802C8.86505 32.511 8.90904 32.5516 8.94364 32.5996C10.1139 34.1164 11.5809 35.3835 13.2568 36.3252C15.1565 37.3974 17.2169 38.1618 19.3601 38.5893V38.5893ZM50.1322 22.8083C50.1899 22.7041 50.287 22.6269 50.4021 22.5936C50.5172 22.5604 50.6409 22.5738 50.746 22.6309C50.8511 22.6881 50.929 22.7842 50.9626 22.8983C50.9962 23.0124 50.9826 23.135 50.925 23.2392C49.8685 25.1145 48.5354 26.8229 46.9698 28.308C45.2683 29.9373 43.3735 31.3557 41.3268 32.532C41.2749 32.562 41.2175 32.5815 41.1579 32.5892C41.0984 32.5969 41.0378 32.5928 40.9799 32.5771C40.9219 32.5613 40.8677 32.5343 40.8205 32.4976C40.7732 32.4608 40.7338 32.4151 40.7046 32.3631C40.6741 32.3128 40.6542 32.257 40.6459 32.1989C40.6376 32.1409 40.6411 32.0818 40.6561 32.0251C40.6712 31.9684 40.6976 31.9153 40.7338 31.8689C40.7699 31.8225 40.815 31.7837 40.8665 31.7548C42.849 30.6208 44.684 29.2504 46.3305 27.6744C47.8316 26.2459 49.1125 24.6063 50.1322 22.8083V22.8083ZM20.0591 35.5226C20.1474 35.568 20.2181 35.641 20.2603 35.7302C20.3025 35.8195 20.3138 35.9201 20.2924 36.0164C20.271 36.1126 20.2182 36.1992 20.1421 36.2627C20.066 36.3262 19.9709 36.363 19.8716 36.3674C17.9555 35.9834 16.1099 35.311 14.3991 34.3737C12.86 33.5335 11.4973 32.4095 10.3842 31.0621C10.3085 30.9691 10.2731 30.8501 10.2859 30.7313C10.2987 30.6125 10.3586 30.5035 10.4524 30.4285C10.5462 30.3534 10.6663 30.3184 10.7862 30.331C10.9061 30.3437 11.016 30.4031 11.0917 30.496C12.1312 31.7547 13.4043 32.8043 14.8423 33.588C16.4747 34.4784 18.2335 35.1193 20.0591 35.4888V35.5226ZM47.0636 21.7777C47.0942 21.727 47.1347 21.6829 47.1826 21.6479C47.2305 21.6128 47.2849 21.5875 47.3428 21.5733C47.4006 21.5592 47.4607 21.5566 47.5196 21.5655C47.5784 21.5745 47.6349 21.5949 47.6858 21.6256C47.7376 21.6553 47.7829 21.6949 47.8191 21.742C47.8554 21.7892 47.8818 21.843 47.8968 21.9004C47.9119 21.9578 47.9153 22.0175 47.9069 22.0762C47.8985 22.1349 47.8784 22.1914 47.8478 22.2423C46.8995 23.7619 45.753 25.1509 44.4381 26.3734C43.017 27.6954 41.45 28.8545 39.7669 29.8286C39.7154 29.8586 39.6585 29.8782 39.5993 29.8864C39.5402 29.8945 39.48 29.891 39.4222 29.8761C39.3644 29.8612 39.3102 29.8352 39.2626 29.7995C39.2149 29.7638 39.1749 29.7192 39.1446 29.6681C39.1144 29.6171 39.0946 29.5607 39.0864 29.5021C39.0782 29.4435 39.0817 29.3838 39.0967 29.3266C39.1118 29.2693 39.1381 29.2155 39.1741 29.1683C39.2101 29.1211 39.2551 29.0814 39.3066 29.0514C40.9312 28.1175 42.4415 27.0006 43.8073 25.7229C45.0665 24.5586 46.1617 23.2316 47.0636 21.7777V21.7777ZM20.8092 32.4729C20.8975 32.5182 20.9683 32.5912 21.0104 32.6805C21.0526 32.7698 21.0639 32.8703 21.0425 32.9666C21.0212 33.0629 20.9683 33.1495 20.8923 33.2129C20.8162 33.2764 20.7211 33.3132 20.6217 33.3177C19.0494 33.0045 17.5289 32.4756 16.1039 31.7464C14.8245 31.0802 13.671 30.1999 12.6942 29.1444C12.614 29.0558 12.5725 28.9394 12.5789 28.8206C12.5853 28.7017 12.6391 28.5903 12.7284 28.5107C12.8177 28.4312 12.9352 28.3901 13.0551 28.3964C13.175 28.4028 13.2874 28.456 13.3677 28.5445C14.2849 29.5217 15.3665 30.3335 16.5642 30.9438C17.9074 31.6373 19.342 32.1406 20.8263 32.4391L20.8092 32.4729Z" fill="url(#paint40_radial_2236_18700)"/>
<defs>
<radialGradient id="paint0_radial_2236_18700" cx="0" cy="0" r="1" gradientUnits="userSpaceOnUse" gradientTransform="translate(36.4834 43.6581) scale(41.095 40.7281)">
<stop stop-color="#657D94"/>
<stop offset="1" stop-color="#293140"/>
</radialGradient>
<radialGradient id="paint1_radial_2236_18700" cx="0" cy="0" r="1" gradientUnits="userSpaceOnUse" gradientTransform="translate(21.9419 45.4322) scale(44.8028 44.4029)">
<stop stop-color="#0077FF"/>
<stop offset="0.25" stop-color="#006BEB"/>
<stop offset="0.77" stop-color="#004DB9"/>
<stop offset="0.79" stop-color="#004CB7"/>
</radialGradient>
<radialGradient id="paint2_radial_2236_18700" cx="0" cy="0" r="1" gradientUnits="userSpaceOnUse" gradientTransform="translate(13.2054 44.2833) scale(59.4899 58.9589)">
<stop stop-color="#2B8FFF"/>
<stop offset="0.32" stop-color="#1F7DEB"/>
<stop offset="0.97" stop-color="#014EB9"/>
<stop offset="1" stop-color="#004CB7"/>
</radialGradient>
<radialGradient id="paint3_radial_2236_18700" cx="0" cy="0" r="1" gradientUnits="userSpaceOnUse" gradientTransform="translate(12.1735 54.9447) scale(53.5231 53.0452)">
<stop stop-color="#00CCFF"/>
<stop offset="1"/>
</radialGradient>
<radialGradient id="paint4_radial_2236_18700" cx="0" cy="0" r="1" gradientUnits="userSpaceOnUse" gradientTransform="translate(49.8755 43.4976) scale(24.8052 24.5838)">
<stop stop-color="#748FA8"/>
<stop offset="1" stop-color="#475670"/>
</radialGradient>
<radialGradient id="paint5_radial_2236_18700" cx="0" cy="0" r="1" gradientUnits="userSpaceOnUse" gradientTransform="translate(18.3527 -1.22632) scale(11.0132 10.9148)">
<stop stop-color="#688096"/>
<stop offset="1" stop-color="#404E66"/>
</radialGradient>
<radialGradient id="paint6_radial_2236_18700" cx="0" cy="0" r="1" gradientUnits="userSpaceOnUse" gradientTransform="translate(16.1033 50.5686) scale(25.7088 25.4793)">
<stop stop-color="#89A9C7"/>
<stop offset="1" stop-color="#526482"/>
</radialGradient>
<radialGradient id="paint7_radial_2236_18700" cx="0" cy="0" r="1" gradientUnits="userSpaceOnUse" gradientTransform="translate(1852.64 1501.39) scale(169.869 136.787)">
<stop stop-color="#688096"/>
<stop offset="1" stop-color="#404E66"/>
</radialGradient>
<radialGradient id="paint8_radial_2236_18700" cx="0" cy="0" r="1" gradientUnits="userSpaceOnUse" gradientTransform="translate(14483.2 15587.4) scale(3743.66 2794.87)">
<stop stop-color="#89A9C7"/>
<stop offset="1" stop-color="#526482"/>
</radialGradient>
<radialGradient id="paint9_radial_2236_18700" cx="0" cy="0" r="1" gradientUnits="userSpaceOnUse" gradientTransform="translate(5509.69 2631.59) scale(1314.46 375.894)">
<stop stop-color="#89A9C7"/>
<stop offset="1" stop-color="#526482"/>
</radialGradient>
<radialGradient id="paint10_radial_2236_18700" cx="0" cy="0" r="1" gradientUnits="userSpaceOnUse" gradientTransform="translate(37.7123 4.62814) scale(49.5167 49.0747)">
<stop offset="0.04"/>
<stop offset="0.72"/>
<stop offset="0.74" stop-color="#050708"/>
<stop offset="0.78" stop-color="#121C1E"/>
<stop offset="0.83" stop-color="#273D41"/>
<stop offset="0.88" stop-color="#446B72"/>
<stop offset="0.94" stop-color="#6AA7B1"/>
<stop offset="1" stop-color="#99F0FF"/>
</radialGradient>
<radialGradient id="paint11_radial_2236_18700" cx="0" cy="0" r="1" gradientUnits="userSpaceOnUse" gradientTransform="translate(24.9778 28.3587) scale(25.0269 24.8035)">
<stop stop-color="#00A3DD"/>
<stop offset="0.13" stop-color="#009AD3"/>
<stop offset="0.37" stop-color="#0083B7"/>
<stop offset="0.67" stop-color="#005D8B"/>
<stop offset="1" stop-color="#002C51"/>
</radialGradient>
<radialGradient id="paint12_radial_2236_18700" cx="0" cy="0" r="1" gradientUnits="userSpaceOnUse" gradientTransform="translate(26.2801 31.2648) scale(26.7999 26.5606)">
<stop stop-color="#00A3DD"/>
<stop offset="0.21" stop-color="#009AD3"/>
<stop offset="0.57" stop-color="#0084B7"/>
<stop offset="1" stop-color="#00618E"/>
</radialGradient>
<radialGradient id="paint13_radial_2236_18700" cx="0" cy="0" r="1" gradientUnits="userSpaceOnUse" gradientTransform="translate(29.4608 -1.75858) scale(35.503 35.1861)">
<stop offset="0.44" stop-color="#000014"/>
<stop offset="0.49" stop-color="#00071A"/>
<stop offset="0.57" stop-color="#00192A"/>
<stop offset="0.65" stop-color="#003845"/>
<stop offset="0.75" stop-color="#00626A"/>
<stop offset="0.85" stop-color="#009999"/>
<stop offset="0.96" stop-color="#00DBD2"/>
<stop offset="1" stop-color="#00F7EB"/>
</radialGradient>
<radialGradient id="paint14_radial_2236_18700" cx="0" cy="0" r="1" gradientUnits="userSpaceOnUse" gradientTransform="translate(24.142 23.9488) scale(19.0003 18.8307)">
<stop stop-color="#00C9FF"/>
<stop offset="0.17" stop-color="#00C1F5"/>
<stop offset="0.47" stop-color="#00ABD9"/>
<stop offset="0.85" stop-color="#0089AD"/>
<stop offset="1" stop-color="#007999"/>
</radialGradient>
<radialGradient id="paint15_radial_2236_18700" cx="0" cy="0" r="1" gradientUnits="userSpaceOnUse" gradientTransform="translate(30.1587 16.033) scale(22.6401 22.438)">
<stop stop-color="#002C51"/>
<stop offset="0.14" stop-color="#003157"/>
<stop offset="0.32" stop-color="#003F68"/>
<stop offset="0.53" stop-color="#005784"/>
<stop offset="0.75" stop-color="#0078AA"/>
<stop offset="0.99" stop-color="#00A2DC"/>
<stop offset="1" stop-color="#00A3DD"/>
</radialGradient>
<radialGradient id="paint16_radial_2236_18700" cx="0" cy="0" r="1" gradientUnits="userSpaceOnUse" gradientTransform="translate(27.4912 12.4764) scale(7.416 7.3498)">
<stop stop-color="#002C51"/>
<stop offset="0.38" stop-color="#004872"/>
<stop offset="0.77" stop-color="#006290"/>
<stop offset="1" stop-color="#006B9B"/>
</radialGradient>
<radialGradient id="paint17_radial_2236_18700" cx="0" cy="0" r="1" gradientUnits="userSpaceOnUse" gradientTransform="translate(4009.84 3835.53) scale(252.925 189.646)">
<stop stop-color="#0077FF"/>
<stop offset="0.25" stop-color="#006BEB"/>
<stop offset="0.77" stop-color="#004DB9"/>
<stop offset="0.79" stop-color="#004CB7"/>
</radialGradient>
<radialGradient id="paint18_radial_2236_18700" cx="0" cy="0" r="1" gradientUnits="userSpaceOnUse" gradientTransform="translate(38.9556 28.8571) scale(13.6812 13.5591)">
<stop stop-color="#404E66"/>
<stop offset="1" stop-color="#688096"/>
</radialGradient>
<radialGradient id="paint19_radial_2236_18700" cx="0" cy="0" r="1" gradientUnits="userSpaceOnUse" gradientTransform="translate(22.3251 18.6181) scale(14.4655 14.3363)">
<stop stop-color="#4DB6FF"/>
<stop offset="0.15" stop-color="#3F94D9"/>
<stop offset="0.45" stop-color="#265591"/>
<stop offset="0.71" stop-color="#13275D"/>
<stop offset="0.9" stop-color="#070B3C"/>
<stop offset="1" stop-color="#030030"/>
</radialGradient>
<radialGradient id="paint20_radial_2236_18700" cx="0" cy="0" r="1" gradientUnits="userSpaceOnUse" gradientTransform="translate(2327.05 2599.18) scale(156.436 133.817)">
<stop stop-color="#4DB6FF"/>
<stop offset="0.15" stop-color="#3F94D9"/>
<stop offset="0.45" stop-color="#265591"/>
<stop offset="0.71" stop-color="#13275D"/>
<stop offset="0.9" stop-color="#070B3C"/>
<stop offset="1" stop-color="#030030"/>
</radialGradient>
<radialGradient id="paint21_radial_2236_18700" cx="0" cy="0" r="1" gradientUnits="userSpaceOnUse" gradientTransform="translate(24.7899 18.559) scale(12.8033 12.689)">
<stop stop-color="#83FFEA"/>
<stop offset="1" stop-color="#00FFFF"/>
</radialGradient>
<radialGradient id="paint22_radial_2236_18700" cx="0" cy="0" r="1" gradientUnits="userSpaceOnUse" gradientTransform="translate(13.8872 54.5138) scale(58.7483 58.2239)">
<stop stop-color="#89A5CF"/>
<stop offset="1"/>
</radialGradient>
<radialGradient id="paint23_radial_2236_18700" cx="0" cy="0" r="1" gradientUnits="userSpaceOnUse" gradientTransform="translate(22.1637 40.7774) scale(56.4724 55.9683)">
<stop offset="0.65" stop-color="white"/>
<stop offset="0.69" stop-color="#F9FAFB"/>
<stop offset="0.73" stop-color="#EAECF0"/>
<stop offset="0.79" stop-color="#CFD5DF"/>
<stop offset="0.85" stop-color="#ABB5C6"/>
<stop offset="0.91" stop-color="#7C8CA6"/>
<stop offset="0.98" stop-color="#445A7F"/>
<stop offset="1" stop-color="#2D4670"/>
</radialGradient>
<radialGradient id="paint24_radial_2236_18700" cx="0" cy="0" r="1" gradientUnits="userSpaceOnUse" gradientTransform="translate(23.9368 18.2126) scale(1.87531 1.85857)">
<stop stop-color="#00FFFF"/>
<stop offset="0.12" stop-color="#00D4D2"/>
<stop offset="0.3" stop-color="#009893"/>
<stop offset="0.47" stop-color="#00655F"/>
<stop offset="0.64" stop-color="#003E36"/>
<stop offset="0.78" stop-color="#002118"/>
<stop offset="0.91" stop-color="#001006"/>
<stop offset="1" stop-color="#000A00"/>
</radialGradient>
<radialGradient id="paint25_radial_2236_18700" cx="0" cy="0" r="1" gradientUnits="userSpaceOnUse" gradientTransform="translate(23.9375 18.2126) scale(1.11666 1.10669)">
<stop stop-color="#83FFEA"/>
<stop offset="0.12" stop-color="#66C8B5"/>
<stop offset="0.24" stop-color="#4B9686"/>
<stop offset="0.36" stop-color="#346B5D"/>
<stop offset="0.48" stop-color="#21483B"/>
<stop offset="0.61" stop-color="#132D21"/>
<stop offset="0.74" stop-color="#08190F"/>
<stop offset="0.87" stop-color="#020E04"/>
<stop offset="1" stop-color="#000A00"/>
</radialGradient>
<radialGradient id="paint26_radial_2236_18700" cx="0" cy="0" r="1" gradientUnits="userSpaceOnUse" gradientTransform="translate(910.275 1142.62) scale(8.25142 8.17776)">
<stop stop-color="#00FFFF"/>
<stop offset="0.12" stop-color="#00D4D2"/>
<stop offset="0.3" stop-color="#009893"/>
<stop offset="0.47" stop-color="#00655F"/>
<stop offset="0.64" stop-color="#003E36"/>
<stop offset="0.78" stop-color="#002118"/>
<stop offset="0.91" stop-color="#001006"/>
<stop offset="1" stop-color="#000A00"/>
</radialGradient>
<radialGradient id="paint27_radial_2236_18700" cx="0" cy="0" r="1" gradientUnits="userSpaceOnUse" gradientTransform="translate(95.9169 67.2646) scale(2.92566 2.89954)">
<stop stop-color="#83FFEA"/>
<stop offset="0.12" stop-color="#66C8B5"/>
<stop offset="0.24" stop-color="#4B9686"/>
<stop offset="0.36" stop-color="#346B5D"/>
<stop offset="0.48" stop-color="#21483B"/>
<stop offset="0.61" stop-color="#132D21"/>
<stop offset="0.74" stop-color="#08190F"/>
<stop offset="0.87" stop-color="#020E04"/>
<stop offset="1" stop-color="#000A00"/>
</radialGradient>
<radialGradient id="paint28_radial_2236_18700" cx="0" cy="0" r="1" gradientUnits="userSpaceOnUse" gradientTransform="translate(650.107 826.45) scale(4.3644 4.3254)">
<stop stop-color="#00FFFF"/>
<stop offset="0.12" stop-color="#00D4D2"/>
<stop offset="0.3" stop-color="#009893"/>
<stop offset="0.47" stop-color="#00655F"/>
<stop offset="0.64" stop-color="#003E36"/>
<stop offset="0.78" stop-color="#002118"/>
<stop offset="0.91" stop-color="#001006"/>
<stop offset="1" stop-color="#000A00"/>
</radialGradient>
<radialGradient id="paint29_radial_2236_18700" cx="0" cy="0" r="1" gradientUnits="userSpaceOnUse" gradientTransform="translate(414.616 522.751) scale(1.61959 1.60514)">
<stop stop-color="#83FFEA"/>
<stop offset="0.12" stop-color="#66C8B5"/>
<stop offset="0.24" stop-color="#4B9686"/>
<stop offset="0.36" stop-color="#346B5D"/>
<stop offset="0.48" stop-color="#21483B"/>
<stop offset="0.61" stop-color="#132D21"/>
<stop offset="0.74" stop-color="#08190F"/>
<stop offset="0.87" stop-color="#020E04"/>
<stop offset="1" stop-color="#000A00"/>
</radialGradient>
<radialGradient id="paint30_radial_2236_18700" cx="0" cy="0" r="1" gradientUnits="userSpaceOnUse" gradientTransform="translate(121.579 72.8989) scale(4.04317 4.00708)">
<stop stop-color="#00FFFF"/>
<stop offset="0.12" stop-color="#00D4D2"/>
<stop offset="0.3" stop-color="#009893"/>
<stop offset="0.47" stop-color="#00655F"/>
<stop offset="0.64" stop-color="#003E36"/>
<stop offset="0.78" stop-color="#002118"/>
<stop offset="0.91" stop-color="#001006"/>
<stop offset="1" stop-color="#000A00"/>
</radialGradient>
<radialGradient id="paint31_radial_2236_18700" cx="0" cy="0" r="1" gradientUnits="userSpaceOnUse" gradientTransform="translate(405.681 486.831) scale(1.44297 1.43009)">
<stop stop-color="#83FFEA"/>
<stop offset="0.12" stop-color="#66C8B5"/>
<stop offset="0.24" stop-color="#4B9686"/>
<stop offset="0.36" stop-color="#346B5D"/>
<stop offset="0.48" stop-color="#21483B"/>
<stop offset="0.61" stop-color="#132D21"/>
<stop offset="0.74" stop-color="#08190F"/>
<stop offset="0.87" stop-color="#020E04"/>
<stop offset="1" stop-color="#000A00"/>
</radialGradient>
<radialGradient id="paint32_radial_2236_18700" cx="0" cy="0" r="1" gradientUnits="userSpaceOnUse" gradientTransform="translate(570.861 674.168) scale(2.85903 2.83345)">
<stop stop-color="#00FFFF"/>
<stop offset="0.12" stop-color="#00D4D2"/>
<stop offset="0.3" stop-color="#009893"/>
<stop offset="0.47" stop-color="#00655F"/>
<stop offset="0.64" stop-color="#003E36"/>
<stop offset="0.78" stop-color="#002118"/>
<stop offset="0.91" stop-color="#001006"/>
<stop offset="1" stop-color="#000A00"/>
</radialGradient>
<radialGradient id="paint33_radial_2236_18700" cx="0" cy="0" r="1" gradientUnits="userSpaceOnUse" gradientTransform="translate(355.692 411.084) scale(1.02393 1.01477)">
<stop stop-color="#83FFEA"/>
<stop offset="0.12" stop-color="#66C8B5"/>
<stop offset="0.24" stop-color="#4B9686"/>
<stop offset="0.36" stop-color="#346B5D"/>
<stop offset="0.48" stop-color="#21483B"/>
<stop offset="0.61" stop-color="#132D21"/>
<stop offset="0.74" stop-color="#08190F"/>
<stop offset="0.87" stop-color="#020E04"/>
<stop offset="1" stop-color="#000A00"/>
</radialGradient>
<radialGradient id="paint34_radial_2236_18700" cx="0" cy="0" r="1" gradientUnits="userSpaceOnUse" gradientTransform="translate(540.232 676.335) scale(2.97049 2.94397)">
<stop stop-color="#00FFFF"/>
<stop offset="0.12" stop-color="#00D4D2"/>
<stop offset="0.3" stop-color="#009893"/>
<stop offset="0.47" stop-color="#00655F"/>
<stop offset="0.64" stop-color="#003E36"/>
<stop offset="0.78" stop-color="#002118"/>
<stop offset="0.91" stop-color="#001006"/>
<stop offset="1" stop-color="#000A00"/>
</radialGradient>
<radialGradient id="paint35_radial_2236_18700" cx="0" cy="0" r="1" gradientUnits="userSpaceOnUse" gradientTransform="translate(332.245 410.51) scale(1.06399 1.05449)">
<stop stop-color="#83FFEA"/>
<stop offset="0.12" stop-color="#66C8B5"/>
<stop offset="0.24" stop-color="#4B9686"/>
<stop offset="0.36" stop-color="#346B5D"/>
<stop offset="0.48" stop-color="#21483B"/>
<stop offset="0.61" stop-color="#132D21"/>
<stop offset="0.74" stop-color="#08190F"/>
<stop offset="0.87" stop-color="#020E04"/>
<stop offset="1" stop-color="#000A00"/>
</radialGradient>
<radialGradient id="paint36_radial_2236_18700" cx="0" cy="0" r="1" gradientUnits="userSpaceOnUse" gradientTransform="translate(34.1486 22.0311) scale(29.7322 29.4668)">
<stop offset="0.33" stop-color="white"/>
<stop offset="1"/>
</radialGradient>
<radialGradient id="paint37_radial_2236_18700" cx="0" cy="0" r="1" gradientUnits="userSpaceOnUse" gradientTransform="translate(5962.04 5638.51) scale(1159.92 887.715)">
<stop offset="0.33" stop-color="white"/>
<stop offset="1"/>
</radialGradient>
<radialGradient id="paint38_radial_2236_18700" cx="0" cy="0" r="1" gradientUnits="userSpaceOnUse" gradientTransform="translate(3383.75 6622.5) scale(516.348 774.243)">
<stop offset="0.33" stop-color="white"/>
<stop offset="1"/>
</radialGradient>
<radialGradient id="paint39_radial_2236_18700" cx="0" cy="0" r="1" gradientUnits="userSpaceOnUse" gradientTransform="translate(5461.06 2456.55) scale(620.672 222.851)">
<stop offset="0.33" stop-color="white"/>
<stop offset="1"/>
</radialGradient>
<radialGradient id="paint40_radial_2236_18700" cx="0" cy="0" r="1" gradientUnits="userSpaceOnUse" gradientTransform="translate(24.3638 38.9694) scale(40.2083 39.8494)">
<stop stop-color="#B3FFF2"/>
<stop offset="0.11" stop-color="#ADFCF1"/>
<stop offset="0.27" stop-color="#9BF2EF"/>
<stop offset="0.46" stop-color="#7DE2EB"/>
<stop offset="0.66" stop-color="#54CCE5"/>
<stop offset="0.88" stop-color="#21B0DE"/>
<stop offset="1" stop-color="#009FD9"/>
</radialGradient>
</defs>
</svg>
