<svg width="34" height="34" viewBox="0 0 34 34" fill="none" xmlns="http://www.w3.org/2000/svg">
<path d="M13.007 33.0055C21.8482 35.2113 30.803 29.8319 33.0056 20.9931C35.2116 12.1513 29.8295 3.20051 20.9904 0.994446C12.1508 -1.21176 3.20054 4.17049 0.99467 13.0097C-1.21131 21.8493 4.16586 30.7998 13.007 33.0055Z" stroke="white"/>
<path d="M24.9986 15.0421C25.0061 14.9593 24.9834 14.869 24.9379 14.7862C24.8925 14.7034 24.8243 14.6432 24.7409 14.6056L17.2844 10.3311C17.148 10.2333 16.9585 10.2182 16.7994 10.3085L16.5796 10.4364V15.4861L16.5872 15.4936V15.5313L16.6857 15.6291H16.6933L16.7691 15.7044L20.0503 17.5857V21.1002L16.9813 22.8612C15.9583 22.2742 14.9352 21.6872 13.9122 21.1002V8.88618C13.9122 8.66794 13.9122 8.50237 13.6773 8.36691C12.3512 7.60683 11.0175 6.84675 9.69142 6.07914C9.32011 5.86089 8.97153 6.12429 9.00184 6.50057C9.00184 12.205 9.00184 17.9018 9.00184 23.6062C8.99426 23.689 9.01699 23.7793 9.06246 23.8621C9.10793 23.9449 9.17613 24.0051 9.2519 24.0427L16.7236 28.3247C16.7918 28.3699 16.8827 28.4 16.9737 28.4C17.057 28.4 17.1328 28.3774 17.201 28.3398L24.7258 24.0276C24.8849 23.9373 24.9607 23.7642 24.9455 23.5987V15.0421H24.9986ZM13.0635 9.01411V16.5472L9.94907 14.7637V7.23055L13.0635 9.01411ZM9.94907 15.7871L13.0635 17.5707V21.0851L9.94907 22.8687V15.7871ZM16.5796 27.1884L10.3961 23.6438L13.5106 21.8603C14.5336 22.4473 15.5566 23.0343 16.5796 23.6213V27.1884ZM17.4738 15.0421V11.4675L23.6573 15.012L20.5428 16.7956L17.4738 15.0421ZM17.4738 27.1809V23.6137L20.5428 21.8527L23.6573 23.6363L17.4738 27.1809ZM24.1044 22.8687L20.9899 21.0851V17.5707L24.1044 15.7871V19.3317C24.1044 19.3242 24.1044 21.7624 24.1044 22.8687Z" fill="url(#paint0_linear_2288_300)"/>
<defs>
<linearGradient id="paint0_linear_2288_300" x1="9.05464" y1="17.2025" x2="25.0025" y2="17.2025" gradientUnits="userSpaceOnUse">
<stop stop-color="#D715FF"/>
<stop offset="1" stop-color="#1A26FF"/>
</linearGradient>
</defs>
</svg>
