<svg width="34" height="34" viewBox="0 0 34 34" fill="none" xmlns="http://www.w3.org/2000/svg">
<path d="M13.007 33.0055C21.8482 35.2113 30.803 29.8319 33.0056 20.9931C35.2116 12.1513 29.8295 3.20051 20.9904 0.994446C12.1508 -1.21176 3.20054 4.17049 0.99467 13.0097C-1.21131 21.8493 4.16586 30.7998 13.007 33.0055Z" fill="#393939" stroke="white"/>
<path fill-rule="evenodd" clip-rule="evenodd" d="M17.3109 12.0657L13.6392 15.6817L11.5027 13.5776L17.3109 7.85718L23.121 13.5795L20.9845 15.6836L17.3109 12.0657ZM12.1303 17.1671L9.99387 15.0631L7.85742 17.1672L9.99387 19.2714L12.1303 17.1671ZM17.3109 22.2692L13.6392 18.6533L11.4996 20.7546L11.5025 20.7575L17.3109 26.4778L23.121 20.7556L23.122 20.7544L20.9844 18.6515L17.3109 22.2692ZM24.6281 19.2723L26.7644 17.1681L24.628 15.064L22.4915 17.1683L24.6281 19.2723ZM19.4777 17.1662H19.4786L17.3107 15.031L15.1446 17.1703L17.3107 19.3035L19.4786 17.1684L19.4797 17.1672L19.4777 17.1662Z" fill="#F4BB2B"/>
</svg>
