<svg width="226" height="12" viewBox="0 0 226 12" fill="none" xmlns="http://www.w3.org/2000/svg">
<path d="M0.899414 11.5799H6.5256V9.64714H5.97568C5.80647 9.64714 5.55266 9.35302 5.55266 9.18496V3.09252C5.55266 2.92445 5.80647 2.63033 5.97568 2.63033H6.5256V0.613527H0.899414V2.63033H1.40705C1.61856 2.63033 1.87236 2.92445 1.87236 3.09252V9.18496C1.87236 9.35302 1.61856 9.64714 1.40705 9.64714H0.899414V11.5799ZM6.90633 11.5799H12.0249V9.64714H11.0942V5.7816C11.3481 5.73958 11.5596 5.73958 11.7288 5.73958C12.4056 5.73958 12.744 5.86563 12.744 6.45386V11.5379H16.805V9.60512H16.5512C16.382 9.60512 16.1282 9.35302 16.1282 9.18496V5.10933C16.1282 3.59672 15.0706 3.13454 13.9708 3.13454C12.6594 3.13454 11.7288 3.68075 10.9673 4.43706C10.8827 3.5547 10.6712 3.3026 10.3751 3.3026H6.77942V5.36143H7.24474C7.41395 5.36143 7.66777 5.61353 7.66777 5.7816V9.26899C7.66777 9.39504 7.41395 9.68916 7.24474 9.68916H6.82172C6.90633 9.68916 6.90633 11.5799 6.90633 11.5799ZM16.8896 5.44546H17.6934V9.39504C17.6934 11.3278 18.9202 11.79 20.7391 11.79C21.5006 11.79 22.1351 11.6639 22.5581 11.5379V9.68916H22.1351C21.3737 9.68916 21.1622 9.47907 21.1622 8.76479V5.44546H22.5158V3.38664H21.1622V1.24378H17.7357V3.38664H16.9319L16.8896 5.44546ZM31.3993 8.21857C31.3993 8.09252 31.4416 7.7984 31.4416 7.42025C31.4416 4.52109 30.0879 3.26059 27.3383 3.26059C24.5463 3.26059 22.8543 4.94126 22.8543 7.5463C22.8543 10.1513 24.1656 11.748 27.3806 11.748C29.2842 11.748 30.3841 11.4118 31.1455 10.9917V9.01689H29.3265C28.9881 9.43706 28.6074 9.68916 27.7613 9.68916C26.8307 9.68916 26.4076 9.22697 26.323 8.21857C26.2807 8.21857 31.3993 8.21857 31.3993 8.21857ZM27.3383 5.15134C27.9305 5.15134 28.1843 5.57151 28.2689 6.57991H26.2807C26.4499 5.57151 26.7038 5.15134 27.3383 5.15134ZM31.9069 11.5799H36.9409V9.64714H36.0949V6.15975C36.5602 6.0337 37.2793 5.90765 38.3369 5.90765H38.7176V3.38664C38.4638 3.3026 38.3369 3.3026 38.2523 3.3026C37.1947 3.3026 36.6448 3.80681 36.0949 4.52109C36.0102 3.63874 35.7987 3.38664 35.5026 3.38664H31.9069V5.44546H32.3723C32.5415 5.44546 32.7953 5.69756 32.7953 5.86563V9.35302C32.7953 9.52109 32.5415 9.77319 32.3723 9.77319H31.9492L31.9069 11.5799ZM39.1829 11.5799H44.3015V9.64714H43.3708V5.7816C43.6246 5.73958 43.8361 5.73958 44.0054 5.73958C44.6822 5.73958 45.0206 5.86563 45.0206 6.45386V11.5379H49.0816V9.60512H48.8278C48.6586 9.60512 48.4048 9.35302 48.4048 9.18496V5.10933C48.4048 3.59672 47.3472 3.13454 46.2474 3.13454C44.936 3.13454 44.0054 3.68075 43.2862 4.43706C43.2016 3.5547 42.9901 3.3026 42.694 3.3026H39.0983V5.36143H39.5636C39.7328 5.36143 39.9866 5.61353 39.9866 5.7816V9.26899C39.9866 9.39504 39.7328 9.68916 39.5636 9.68916H39.1406C39.1829 9.68916 39.1829 11.5799 39.1829 11.5799ZM52.0428 11.706C53.058 11.706 53.8195 11.4118 54.4117 10.7396C54.7078 11.3278 55.2154 11.706 56.273 11.706C57.0767 11.706 57.7113 11.5379 58.2189 11.2438V9.64714H57.9228C57.7536 9.64714 57.5421 9.39504 57.5421 9.22697V5.94966C57.5421 4.01689 56.3999 3.17655 53.8195 3.17655C52.1274 3.17655 50.816 3.47067 49.9277 3.72277V6.0337H51.3236C51.6621 5.73958 52.0851 5.48748 52.9311 5.48748C53.7349 5.48748 54.0733 5.7816 54.0733 6.32781V6.79C53.608 6.70597 53.1849 6.66395 52.5927 6.66395C50.6468 6.66395 49.42 7.42025 49.42 9.22697C49.4623 10.9497 50.6468 11.706 52.0428 11.706ZM53.4388 9.77319C53.0157 9.77319 52.6773 9.60512 52.6773 9.01689C52.6773 8.42865 52.9734 8.21857 53.5234 8.21857C53.7349 8.21857 53.9887 8.26059 54.1579 8.3026V9.56311C53.9464 9.68916 53.7349 9.77319 53.4388 9.77319ZM58.3458 5.44546H59.1496V9.39504C59.1496 11.3278 60.3763 11.79 62.1953 11.79C62.9567 11.79 63.5913 11.6639 64.0143 11.5379V9.68916H63.549C62.7875 9.68916 62.576 9.47907 62.576 8.76479V5.44546H63.9297V3.38664H62.576V1.24378H59.1496V3.38664H58.3458V5.44546ZM64.395 11.5799H69.3867V9.64714H68.9637C68.7944 9.64714 68.5406 9.39504 68.5406 9.22697V4.14294C68.5406 3.63874 68.3714 3.34462 68.0753 3.34462H64.3104V5.40344H64.7757C64.9449 5.40344 65.1565 5.65554 65.1565 5.82361V9.31101C65.1565 9.47907 64.9449 9.73118 64.7757 9.73118H64.3527V11.5799H64.395ZM66.8485 3.09252C67.7792 3.09252 68.4137 2.5463 68.4137 1.66395C68.4137 0.781595 67.7792 0.193359 66.8485 0.193359C65.9179 0.193359 65.2834 0.781595 65.2834 1.66395C65.2834 2.46227 65.9602 3.09252 66.8485 3.09252ZM74.2937 11.748C77.0011 11.748 78.947 10.1934 78.947 7.5463C78.947 4.94126 77.0011 3.26059 74.2937 3.26059C71.5864 3.26059 69.6405 4.94126 69.6405 7.5463C69.6828 10.1513 71.6287 11.748 74.2937 11.748ZM74.2937 9.68916C73.5746 9.68916 73.1093 9.01689 73.1093 7.50428C73.1093 5.99168 73.5746 5.36143 74.2937 5.36143C75.0129 5.36143 75.4782 5.99168 75.4782 7.50428C75.5205 9.05891 75.0129 9.68916 74.2937 9.68916ZM79.2854 11.5799H84.404V9.64714H83.4733V5.7816C83.7271 5.73958 83.9386 5.73958 84.1078 5.73958C84.7847 5.73958 85.1231 5.86563 85.1231 6.45386V11.5379H89.1841V9.60512H88.9303C88.7611 9.60512 88.5073 9.35302 88.5073 9.18496V5.10933C88.5073 3.59672 87.4497 3.13454 86.3499 3.13454C85.0385 3.13454 84.1078 3.68075 83.3464 4.43706C83.2618 3.5547 83.0503 3.3026 82.7542 3.3026H79.1585V5.36143H79.6238C79.793 5.36143 80.0468 5.61353 80.0468 5.7816V9.26899C80.0468 9.39504 79.793 9.68916 79.6238 9.68916H79.2008C79.2854 9.68916 79.2854 11.5799 79.2854 11.5799ZM92.1453 11.706C93.1605 11.706 93.922 11.4118 94.5142 10.7396C94.8103 11.3278 95.3179 11.706 96.3755 11.706C97.1792 11.706 97.8138 11.5379 98.3214 11.2438V9.64714H98.0253C97.8561 9.64714 97.6446 9.39504 97.6446 9.22697V5.94966C97.6446 4.01689 96.5024 3.17655 93.922 3.17655C92.2299 3.17655 90.9185 3.47067 90.0302 3.72277V6.0337H91.4261C91.7645 5.73958 92.1876 5.48748 93.0336 5.48748C93.8374 5.48748 94.1758 5.7816 94.1758 6.32781V6.79C93.7104 6.70597 93.2874 6.66395 92.6952 6.66395C90.7493 6.66395 89.5225 7.42025 89.5225 9.22697C89.6071 10.9497 90.7916 11.706 92.1453 11.706ZM93.5835 9.77319C93.1182 9.77319 92.8221 9.60512 92.8221 9.01689C92.8221 8.42865 93.1182 8.21857 93.6681 8.21857C93.8797 8.21857 94.1335 8.26059 94.3027 8.3026V9.56311C94.0489 9.68916 93.8374 9.77319 93.5835 9.77319ZM98.7444 11.5799H103.821V9.64714H103.355C103.186 9.64714 102.975 9.39504 102.975 9.22697V1.32781C102.975 0.907645 102.763 0.655544 102.509 0.655544H98.7021V2.67235H99.1674C99.3366 2.67235 99.5481 2.92445 99.5481 3.09252V9.26899C99.5481 9.43706 99.3366 9.68916 99.1674 9.68916H98.7021V11.5799H98.7444ZM106.655 11.5799H111.985C114.946 11.5799 116.765 10.5295 116.765 8.42865C116.765 6.95807 115.877 6.15975 114.269 5.90765V5.82361C115.623 5.48748 116.469 4.85722 116.469 3.51269C116.469 1.62193 114.904 0.697561 111.985 0.697561H106.697V2.67235H107.163C107.374 2.67235 107.628 2.96647 107.628 3.13454V9.22697C107.628 9.39504 107.374 9.68916 107.163 9.68916H106.697V11.5799H106.655ZM111.139 9.60512V7.00008H111.731C112.704 7.00008 113.085 7.42025 113.085 8.3026C113.085 9.18496 112.704 9.64714 111.731 9.64714H111.139V9.60512ZM111.139 2.75638H111.689C112.577 2.75638 112.916 3.17655 112.916 3.93286C112.916 4.68916 112.535 5.10933 111.689 5.10933H111.139V2.75638ZM119.896 11.748C121.249 11.748 122.095 11.2438 122.814 10.4875C122.899 11.3698 123.153 11.6219 123.407 11.6219H126.918V9.68916H126.537C126.368 9.68916 126.156 9.43706 126.156 9.26899V3.38664H121.926V5.44546H122.73V9.22697C122.476 9.26899 122.264 9.31101 122.138 9.31101C121.461 9.31101 121.122 9.18496 121.122 8.5547V3.47067H117.019V5.52949H117.357C117.484 5.52949 117.738 5.7816 117.738 5.94966V9.85723C117.696 11.3278 118.796 11.748 119.896 11.748ZM130.767 11.748C133.517 11.748 134.701 10.6976 134.701 8.80681C134.701 6.87403 133.644 6.41185 131.571 6.15975C130.598 6.0337 130.302 5.94966 130.302 5.69756C130.302 5.40344 130.556 5.23538 131.232 5.23538C131.867 5.23538 132.29 5.44546 132.586 5.7816H134.363V3.63874C133.559 3.38664 132.628 3.21857 131.148 3.21857C128.864 3.21857 127.341 4.10092 127.341 5.99168C127.341 7.84042 128.398 8.47067 130.175 8.68076C131.232 8.80681 131.529 8.89084 131.529 9.22697C131.529 9.60512 131.148 9.68916 130.598 9.68916C130.006 9.68916 129.414 9.39504 129.16 8.97487H127.341V11.2438C128.06 11.4959 129.075 11.748 130.767 11.748ZM135.167 11.5799H140.158V9.64714H139.735C139.566 9.64714 139.312 9.39504 139.312 9.22697V4.14294C139.312 3.63874 139.143 3.34462 138.847 3.34462H135.082V5.40344H135.547C135.717 5.40344 135.928 5.65554 135.928 5.82361V9.31101C135.928 9.47907 135.717 9.73118 135.547 9.73118H135.124L135.167 11.5799ZM137.62 3.09252C138.551 3.09252 139.228 2.5463 139.228 1.66395C139.228 0.781595 138.593 0.193359 137.62 0.193359C136.689 0.193359 136.055 0.781595 136.055 1.66395C136.055 2.46227 136.732 3.09252 137.62 3.09252ZM140.581 11.5799H145.658V9.64714H144.727V5.7816C144.981 5.73958 145.192 5.73958 145.361 5.73958C146.038 5.73958 146.377 5.86563 146.377 6.45386V11.5379H150.438V9.60512H150.184C150.015 9.60512 149.761 9.35302 149.761 9.18496V5.10933C149.761 3.59672 148.703 3.13454 147.603 3.13454C146.292 3.13454 145.361 3.68075 144.6 4.43706C144.515 3.5547 144.304 3.3026 144.008 3.3026H140.412V5.36143H140.877C141.047 5.36143 141.3 5.61353 141.3 5.7816V9.26899C141.3 9.39504 141.047 9.68916 140.877 9.68916H140.454C140.581 9.68916 140.581 11.5799 140.581 11.5799ZM159.279 8.21857C159.279 8.09252 159.321 7.7984 159.321 7.42025C159.321 4.52109 158.01 3.26059 155.218 3.26059C152.426 3.26059 150.734 4.94126 150.734 7.5463C150.734 10.1513 152.045 11.748 155.26 11.748C157.164 11.748 158.264 11.4118 158.983 10.9917V9.01689H157.164C156.825 9.43706 156.445 9.68916 155.599 9.68916C154.668 9.68916 154.245 9.22697 154.16 8.21857H159.279ZM155.218 5.15134C155.81 5.15134 156.064 5.57151 156.148 6.57991H154.16C154.287 5.57151 154.583 5.15134 155.218 5.15134ZM163.213 11.748C165.963 11.748 167.147 10.6976 167.147 8.80681C167.147 6.87403 166.09 6.41185 164.017 6.15975C163.044 6.0337 162.79 5.94966 162.79 5.69756C162.79 5.40344 163.044 5.23538 163.721 5.23538C164.355 5.23538 164.778 5.44546 165.032 5.7816H166.809V3.63874C166.005 3.38664 165.074 3.21857 163.594 3.21857C161.309 3.21857 159.786 4.10092 159.786 5.99168C159.786 7.84042 160.844 8.47067 162.621 8.68076C163.678 8.80681 163.974 8.89084 163.974 9.22697C163.974 9.60512 163.594 9.68916 163.044 9.68916C162.452 9.68916 161.817 9.39504 161.605 8.97487H159.786V11.2438C160.506 11.4959 161.521 11.748 163.213 11.748ZM170.954 11.748C173.704 11.748 174.888 10.6976 174.888 8.80681C174.888 6.87403 173.831 6.41185 171.758 6.15975C170.785 6.0337 170.489 5.94966 170.489 5.69756C170.489 5.40344 170.743 5.23538 171.42 5.23538C172.054 5.23538 172.477 5.44546 172.773 5.7816H174.55V3.63874C173.746 3.38664 172.816 3.21857 171.335 3.21857C169.051 3.21857 167.528 4.10092 167.528 5.99168C167.528 7.84042 168.585 8.47067 170.362 8.68076C171.42 8.80681 171.716 8.89084 171.716 9.22697C171.716 9.60512 171.335 9.68916 170.785 9.68916C170.193 9.68916 169.601 9.39504 169.347 8.97487H167.528V11.2438C168.289 11.4959 169.304 11.748 170.954 11.748ZM180.092 11.5799H185.675V9.64714H185.168C184.956 9.64714 184.702 9.35302 184.702 9.18496V2.75638H185.591L185.845 4.77319H188.044V0.697561H177.807V4.77319H180.007L180.261 2.75638H181.149V9.18496C181.149 9.35302 180.895 9.64714 180.684 9.64714H180.176L180.092 11.5799ZM188.467 11.5799H193.459V9.64714H193.036C192.867 9.64714 192.613 9.39504 192.613 9.22697V4.14294C192.613 3.63874 192.444 3.34462 192.148 3.34462H188.383V5.40344H188.848C189.017 5.40344 189.229 5.65554 189.229 5.82361V9.31101C189.229 9.47907 189.017 9.73118 188.848 9.73118H188.425C188.467 9.68916 188.467 11.5799 188.467 11.5799ZM190.963 3.09252C191.894 3.09252 192.571 2.5463 192.571 1.66395C192.571 0.781595 191.936 0.193359 190.963 0.193359C190.033 0.193359 189.398 0.781595 189.398 1.66395C189.398 2.46227 190.033 3.09252 190.963 3.09252ZM193.882 11.5799H198.831V9.64714H198.112V5.7816C198.366 5.73958 198.578 5.73958 198.705 5.73958C199.424 5.73958 199.551 5.86563 199.551 6.45386V11.5379H203.654V9.60512H202.935V5.73958C203.189 5.69756 203.4 5.69756 203.527 5.69756C204.246 5.69756 204.331 5.82361 204.331 6.41185V11.4959H208.392V9.56311H208.138C207.969 9.56311 207.715 9.31101 207.715 9.14294V5.06731C207.715 3.5547 206.7 3.09252 205.6 3.09252C204.246 3.09252 203.442 3.72277 202.808 4.43706C202.554 3.38664 201.666 3.09252 200.735 3.09252C199.424 3.09252 198.578 3.72277 197.943 4.43706C197.858 3.47067 197.647 3.21857 197.351 3.21857H193.755V5.27739H194.22C194.39 5.27739 194.644 5.52949 194.644 5.69756V9.18496C194.644 9.31101 194.39 9.60512 194.22 9.60512H193.797V11.5799H193.882ZM217.233 8.21857C217.233 8.09252 217.275 7.7984 217.275 7.42025C217.275 4.52109 215.964 3.26059 213.172 3.26059C210.422 3.26059 208.688 4.94126 208.688 7.5463C208.688 10.1513 209.999 11.748 213.214 11.748C215.118 11.748 216.218 11.4118 216.937 10.9917V9.01689H215.118C214.779 9.43706 214.399 9.68916 213.553 9.68916C212.622 9.68916 212.199 9.22697 212.114 8.21857H217.233ZM213.13 5.15134C213.722 5.15134 213.976 5.57151 214.06 6.57991H212.072C212.199 5.57151 212.537 5.15134 213.13 5.15134ZM221.167 11.748C223.917 11.748 225.101 10.6976 225.101 8.80681C225.101 6.87403 224.044 6.41185 221.971 6.15975C220.998 6.0337 220.744 5.94966 220.744 5.69756C220.744 5.40344 220.998 5.23538 221.675 5.23538C222.309 5.23538 222.732 5.44546 222.986 5.7816H224.763V3.63874C223.959 3.38664 223.028 3.21857 221.548 3.21857C219.263 3.21857 217.74 4.10092 217.74 5.99168C217.74 7.84042 218.798 8.47067 220.575 8.68076C221.632 8.80681 221.928 8.89084 221.928 9.22697C221.928 9.60512 221.548 9.68916 220.998 9.68916C220.406 9.68916 219.771 9.39504 219.56 8.97487H217.74V11.2438C218.46 11.4959 219.475 11.748 221.167 11.748Z" fill="white"/>
</svg>
