<svg width="72" height="73" viewBox="0 0 72 73" fill="none" xmlns="http://www.w3.org/2000/svg">
<path style="mix-blend-mode:screen" fill-rule="evenodd" clip-rule="evenodd" d="M10.9917 57.7632C11.3253 59.6947 13.1528 59.9177 13.8217 61.9781C14.4905 64.0384 14.8717 64.9215 16.5811 65.7828C18.2905 66.644 19.6869 67.1117 21.2666 67.8594C22.8463 68.6072 25.2046 70.1259 26.9465 69.5259C27.4924 69.3074 28.023 69.0522 28.5347 68.7622C29.3908 68.4406 30.2732 68.1939 31.172 68.025C33.7622 67.3673 34.007 64.5794 35.1762 63.2688C36.7202 61.5364 38.7592 59.7234 40.6003 57.8367C45.5566 52.681 44.4345 49.5419 46.5084 46.7626C44.3983 47.5011 43.8507 49.2733 43.1398 49.9607C41.6707 51.37 40.364 49.8433 40.7177 48.323C40.8537 47.6703 41.1605 47.0662 41.6065 46.5728C42.0525 46.0795 42.6217 45.7147 43.2554 45.5161C52.4633 41.5223 48.3857 33.2766 52.019 25.9564C46.6021 30.7109 47.9357 35.6097 45.5924 37.1959C43.2492 38.7821 40.5089 35.6709 43.1203 31.212C44.1706 29.5858 45.4031 28.0862 46.7938 26.7425C48.7187 24.7444 52.0401 22.6846 53.4706 20.3728C55.8663 16.5657 53.5053 12.2993 55.9803 7.43583C52.3784 10.9072 53.296 12.6228 51.5885 15.9624C50.4112 18.3 47.4224 17.2117 48.1735 14.4754C49.6577 9.10883 55.9836 8.11082 57.183 -0.01059C55.2935 3.84823 50.8468 5.93472 47.3897 7.72488C43.3568 9.80768 41.3247 11.4275 40.4131 18.0341C40.2716 19.3776 40.0287 20.7082 39.6865 22.0144C37.6182 28.7006 33.2533 25.9005 33.9571 23.1988C34.661 20.4971 38.2797 19.4318 39.0582 14.7287C35.5243 19.174 28.3032 19.2505 27.968 25.6995C27.8205 29.5327 29.1394 33.5793 26.066 36.7926C24.9935 37.9097 23.3462 36.8074 24.3594 35.4125C25.3726 34.0176 26.1748 33.1156 25.9036 30.9881C24.1299 34.8175 19.2846 37.3206 16.5767 39.8103C12.1528 43.8847 9.99141 52.0138 10.9998 57.795L10.9917 57.7632Z" fill="url(#paint0_radial_2236_18750)"/>
<path style="mix-blend-mode:screen" opacity="0.75" fill-rule="evenodd" clip-rule="evenodd" d="M32.3912 66.1611C35.332 60.6161 40.4377 57.4612 42.6541 53.6095C43.2752 52.5005 43.7699 51.3246 44.1288 50.1038C42.9347 52.2429 40.5511 53.6704 39.3071 50.9339C38.3105 48.6865 39.1456 45.8838 43.0705 44.3466C46.1191 43.1107 47.8309 41.7299 48.3817 37.3662C48.7017 34.8746 48.5445 32.8871 49.5593 30.174C47.2782 33.7267 47.9457 37.6797 45.3131 39.9363C41.5285 43.2176 38.731 39.1747 40.0348 34.6424C41.0508 31.0955 44.8773 26.6547 48.2828 23.9991C49.66 23.0743 50.8843 21.9388 51.9115 20.6335C53.7959 17.9023 53.1816 14.026 53.8933 10.7816C52.6722 13.3444 52.9352 14.8657 51.6219 17.4181C49.4783 21.6005 45.1364 19.2001 46.0281 15.5608C47.3125 10.29 53.3038 8.23934 55.5736 3.45046C52.3538 7.45558 48.9585 7.85592 45.5935 10.7152C42.7429 13.1286 42.0819 15.9546 41.0778 20.8726C40.7148 23.0915 40.0393 25.2465 39.0714 27.2729C37.7769 29.3699 34.9641 30.8726 32.9012 28.8396C31.932 27.8918 31.7141 25.3565 32.2475 23.9258C33.0568 21.7717 36.0728 19.7894 37.1325 18.18C34.7645 20.1104 31.1426 21.0751 29.8946 24.0614C28.8969 26.4886 30.3796 30.0768 29.6267 33.5119C29.2737 35.1569 28.5986 36.7144 27.6405 38.0936C24.9491 41.2662 20.8843 38.9418 23.552 35.2346C21.6316 37.6032 18.3595 39.5041 16.0933 42.3209C13.1066 46.0078 10.9768 50.8625 11.8714 58.1819C11.9824 58.5498 12.1792 58.886 12.4454 59.1625C13.5403 60.3853 14.383 61.8138 14.9248 63.365C15.3262 64.0994 15.8968 64.727 16.5888 65.1951C19.7348 67.1044 23.3021 68.1997 26.9699 68.3824C28.1498 67.9759 29.3613 67.6683 30.5921 67.4627C31.2958 67.2315 31.9111 66.7882 32.3544 66.1929L32.3912 66.1611Z" fill="url(#paint1_radial_2236_18750)"/>
<path style="mix-blend-mode:screen" fill-rule="evenodd" clip-rule="evenodd" d="M24.1517 40.3312L39.0183 51.0749C38.3719 48.2204 37.6909 46.9066 40.4863 45.0704C44.1613 42.5491 45.751 43.7336 47.7567 37.1984C46.4534 41.2913 43.5393 43.1013 41.0005 42.4168C39.0872 41.9002 37.5306 39.9189 37.8216 36.8714C38.0551 35.2191 38.6069 33.6291 39.4462 32.1901C43.1771 25.4308 48.0139 23.9098 50.2007 21.5749C52.1171 19.4551 52.5808 18.3236 53.0073 14.9714C52.3685 17.4877 50.5869 21.8598 47.3134 21.2831C45.4695 20.9515 44.5711 18.2962 45.3882 15.5995C46.1144 13.1624 46.845 12.7291 48.3807 10.92C45.2313 13.1276 44.4684 13.9633 43.4441 17.9629C43.087 19.3376 42.8646 20.7569 42.5841 22.1685C41.9712 25.14 40.7471 28.706 38.2338 30.5493C33.8268 33.7634 30.4749 29.5234 31.5157 25.1029C30.6113 26.6616 30.809 27.2196 30.8276 28.8819C30.9357 37.6062 29.4631 39.9287 24.2574 40.3945L24.1517 40.3312Z" fill="url(#paint2_radial_2236_18750)"/>
<path fill-rule="evenodd" clip-rule="evenodd" d="M14.0325 48.2845C13.6955 49.5802 13.1389 50.8074 12.387 51.9125C12.1367 52.2535 11.9797 52.6544 11.9314 53.0756C11.7381 54.6038 11.7058 56.1486 11.8351 57.6843C11.8718 58.2429 12.1051 58.7705 12.4933 59.1729C13.5881 60.3958 14.4309 61.8242 14.9726 63.3754C15.4662 64.0388 16.0235 64.6518 16.6366 65.2056C19.7826 67.1149 23.3499 68.2101 27.0178 68.3928C28.1976 67.9864 29.4091 67.6788 30.6399 67.4731C31.281 67.1303 31.8736 66.7033 32.4023 66.2034C34.2598 62.8932 36.4834 59.8046 39.031 56.9962C39.2719 55.0452 39.2677 53.071 39.0184 51.1199C38.3623 49.1709 37.4718 47.309 36.3666 45.5758C34.0241 42.6476 30.6436 40.744 26.9371 40.2659C26.0071 40.2417 25.0767 40.2785 24.1518 40.3762C22.7313 41.1667 21.2609 41.8637 19.7499 42.4626C19.2605 42.734 18.8108 43.0718 18.4133 43.4665C17.6965 44.2489 16.8407 44.8902 15.8896 45.3576C15.3782 46.4122 14.7557 47.4085 14.0327 48.3296L14.0325 48.2845Z" fill="url(#paint3_radial_2236_18750)"/>
<path style="mix-blend-mode:multiply" opacity="0.5" fill-rule="evenodd" clip-rule="evenodd" d="M31.1265 54.7345L31.1103 54.671C31.0362 54.8496 30.949 55.0223 30.8493 55.1878C29.2431 57.6907 25.6351 61.5353 24.4365 62.2001C22.0916 63.3342 19.6558 64.2691 17.1547 64.9952C16.7967 65.0861 16.3051 64.7829 15.8788 64.3843C16.1225 64.6378 16.374 64.878 16.6334 65.105C19.7794 67.0143 23.3467 68.1096 27.0146 68.2923C28.1944 67.8858 29.4059 67.5782 30.6367 67.3725C31.2778 67.0297 31.8704 66.6027 32.3991 66.1028C34.2566 62.7926 36.4803 59.704 39.0279 56.8957C38.7656 57.0425 38.4766 57.1351 38.1779 57.1678C36.0419 57.0301 33.9368 56.5779 31.9303 55.8257C31.5528 55.5525 31.2595 55.178 31.0843 54.7452L31.1265 54.7345Z" fill="url(#paint4_radial_2236_18750)"/>
<path style="mix-blend-mode:multiply" fill-rule="evenodd" clip-rule="evenodd" d="M14.4839 62.159C13.118 57.6626 14.3194 47.2091 17.2002 44.5178C16.7936 44.8241 16.3579 45.0894 15.8994 45.3099C15.388 46.3645 14.7655 47.3609 14.0425 48.2819C13.7026 49.5791 13.1424 50.8073 12.3865 51.9125C12.1362 52.2535 11.9792 52.6544 11.9309 53.0756C11.7376 54.6038 11.7053 56.1486 11.8346 57.6843C11.8713 58.2429 12.1046 58.7705 12.4928 59.1729C13.309 60.0569 13.9811 61.0647 14.4839 62.159V62.159Z" fill="url(#paint5_radial_2236_18750)"/>
<path style="mix-blend-mode:multiply" fill-rule="evenodd" clip-rule="evenodd" d="M31.1261 54.7345C31.3013 55.1673 31.5946 55.5418 31.9721 55.815C33.9627 56.5861 36.0543 57.0606 38.1804 57.2234C38.4792 57.1907 38.7682 57.0981 39.0304 56.9512C39.2713 55.0003 39.2671 53.026 39.0178 51.0749C38.3617 49.1259 37.4711 47.264 36.3659 45.5308C35.4798 45.2031 34.5449 45.0291 33.6014 45.0164C33.148 44.9963 31.4837 45.2838 31.2195 45.7C31.1386 45.8686 31.0783 46.0466 31.0402 46.2299C31.8727 47.7869 32.1833 52.6301 31.1261 54.7345V54.7345Z" fill="url(#paint6_radial_2236_18750)"/>
<path style="mix-blend-mode:multiply" fill-rule="evenodd" clip-rule="evenodd" d="M24.8627 62.5537C24.7404 62.435 24.5817 62.3614 24.4126 62.345C24.2435 62.3286 24.074 62.3704 23.9319 62.4634C21.7322 63.4589 19.4681 64.3047 17.1548 64.9952C16.7968 65.0861 16.3052 64.7829 15.8789 64.3843C16.1226 64.6378 16.3741 64.878 16.6335 65.105C19.7795 67.0143 23.3468 68.1096 27.0147 68.2923C27.3914 67.67 27.5415 66.9353 27.4395 66.2133C26.7456 64.888 25.8868 63.6565 24.8837 62.5483L24.8627 62.5537Z" fill="url(#paint7_radial_2236_18750)"/>
<path style="mix-blend-mode:multiply" fill-rule="evenodd" clip-rule="evenodd" d="M16.6266 48.0424C16.173 49.6106 17.4327 51.2168 19.0714 49.9897C19.5696 49.683 19.9726 49.2429 20.2354 48.7187C20.4982 48.1944 20.6103 47.6067 20.5593 47.0213C20.4717 46.4838 20.1803 46.0007 19.7463 45.6734C19.1121 45.3388 16.9949 46.8 16.6477 48.0371L16.6266 48.0424Z" fill="url(#paint8_radial_2236_18750)"/>
<path style="mix-blend-mode:multiply" fill-rule="evenodd" clip-rule="evenodd" d="M22.8985 42.3276C22.2069 42.6496 21.4841 43.5991 21.5754 43.9588C21.6668 44.3186 21.7917 44.5459 22.0841 44.5055C22.8848 44.454 23.6472 44.1459 24.2595 43.6264C24.6267 43.2629 24.6072 41.95 23.8672 42.0816C23.5072 42.1302 23.1539 42.2199 22.8143 42.3489L22.8985 42.3276Z" fill="url(#paint9_radial_2236_18750)"/>
<path style="mix-blend-mode:multiply" fill-rule="evenodd" clip-rule="evenodd" d="M28.6532 41.9927C27.8405 42.1886 27.1305 42.6822 26.6621 43.3769C26.5399 43.5682 26.4803 43.7933 26.4918 44.0206C26.5033 44.2479 26.5853 44.4661 26.7262 44.6446C26.9852 44.9219 27.299 45.1417 27.6475 45.2899C27.9959 45.4381 28.3712 45.5114 28.7493 45.5051C29.024 45.44 29.2775 45.3057 29.4859 45.1149C29.6943 44.924 29.8508 44.6828 29.9405 44.4142C30.0425 44.1629 30.0905 43.8929 30.0815 43.6215C30.0724 43.3502 30.0065 43.0836 29.8881 42.8393C29.6514 42.3926 29.1351 41.9042 28.6613 42.0245L28.6532 41.9927Z" fill="url(#paint10_radial_2236_18750)"/>
<path style="mix-blend-mode:multiply" opacity="0.5" fill-rule="evenodd" clip-rule="evenodd" d="M33.4628 47.3831C33.633 47.248 33.8298 47.1505 34.0403 47.097C34.2508 47.0436 34.4702 47.0354 34.6843 47.073C34.8468 47.1137 34.9942 47.2007 35.1089 47.3234C35.2235 47.4462 35.3006 47.5994 35.3307 47.7649C35.4233 48.9749 35.3116 50.1914 35.0002 51.363C34.9413 51.5095 34.8338 51.6311 34.6959 51.7071C34.558 51.7832 34.3981 51.8091 34.2432 51.7805C33.5642 51.6807 32.95 51.3196 32.5304 50.7737C32.3355 50.1711 32.3186 49.5252 32.4817 48.914C32.6448 48.3029 32.9809 47.7527 33.4494 47.3302L33.4628 47.3831Z" fill="url(#paint11_radial_2236_18750)"/>
<path style="mix-blend-mode:multiply" opacity="0.5" fill-rule="evenodd" clip-rule="evenodd" d="M33.7999 54.3598C33.642 54.3999 33.4314 54.4534 33.4087 54.6731C33.3688 55.1889 33.4411 55.7074 33.6204 56.1928C33.7998 56.6782 34.082 57.1189 34.4476 57.4843C34.6018 57.5841 34.7799 57.6405 34.9631 57.6475C35.1463 57.6545 35.3279 57.6118 35.4888 57.524C36.2933 57.117 37.1891 55.9659 37.008 55.032C36.8269 54.098 34.4843 54.186 33.7999 54.3598Z" fill="url(#paint12_radial_2236_18750)"/>
<path style="mix-blend-mode:multiply" fill-rule="evenodd" clip-rule="evenodd" d="M22.4212 64.6828C22.2892 64.7234 22.1698 64.7971 22.0741 64.8969C21.9784 64.9968 21.9096 65.1194 21.8742 65.2534C21.8387 65.3874 21.8378 65.5283 21.8714 65.663C21.9051 65.7976 21.9722 65.9215 22.0666 66.023C22.8624 66.6196 23.8334 66.9321 24.8251 66.9108C25.5657 66.9142 25.4125 66.3111 25.1339 65.92C24.8082 65.4405 24.37 65.0489 23.8581 64.7797C23.3996 64.602 22.8985 64.5681 22.4212 64.6828Z" fill="url(#paint13_radial_2236_18750)"/>
<path style="mix-blend-mode:multiply" opacity="0.5" fill-rule="evenodd" clip-rule="evenodd" d="M16.5404 48.1882C16.7825 47.7593 17.1297 47.3998 17.549 47.1436C17.9683 46.8873 18.446 46.7428 18.937 46.7237C19.1517 46.7839 19.3522 46.8872 19.5264 47.0272C19.7005 47.1673 19.8447 47.3412 19.9503 47.5385C20.0559 47.7359 20.1207 47.9525 20.1409 48.1755C20.161 48.3984 20.136 48.623 20.0673 48.8358C20.0393 48.9392 20.0009 49.0395 19.9528 49.1352C20.4063 48.5404 20.6175 47.7943 20.5436 47.0478C20.456 46.5103 20.1647 46.0272 19.7306 45.6999C19.0965 45.3653 16.9793 46.8265 16.6321 48.0636C16.6103 48.1059 16.5954 48.1516 16.5879 48.1987L16.5404 48.1882Z" fill="url(#paint14_radial_2236_18750)"/>
<path style="mix-blend-mode:multiply" fill-rule="evenodd" clip-rule="evenodd" d="M21.614 43.7575C21.8024 43.4288 22.0769 43.1581 22.4076 42.9749C22.7384 42.7917 23.1129 42.7028 23.4908 42.7178C23.6696 42.7387 23.8417 42.7988 23.995 42.8939C24.368 43.1709 24.2275 43.5445 24.0601 43.8122C24.1446 43.7573 24.2222 43.6922 24.2911 43.6184C24.6583 43.2549 24.6388 41.942 23.8988 42.0736C23.5388 42.1222 23.1855 42.2119 22.8459 42.3409C22.2493 42.6543 21.7844 43.1719 21.5351 43.8001L21.614 43.7575Z" fill="url(#paint15_radial_2236_18750)"/>
<path style="mix-blend-mode:multiply" fill-rule="evenodd" clip-rule="evenodd" d="M17.4612 52.6964C17.1055 53.3729 16.9123 54.1239 16.8973 54.8895C16.8586 55.6202 17.6719 56.4837 18.3398 56.1565C19.3306 55.6831 20.193 54.9774 20.8547 54.0987C21.04 53.8493 21.1699 53.5629 21.2357 53.2587C21.3016 52.9544 21.3017 52.6394 21.2363 52.3348C21.2187 52.1324 21.1384 51.9405 21.0067 51.786C20.875 51.6316 20.6985 51.5224 20.502 51.4737C19.9303 51.3878 19.3464 51.4559 18.8103 51.6712C18.2741 51.8866 17.8049 52.2413 17.4507 52.6991L17.4612 52.6964Z" fill="url(#paint16_radial_2236_18750)"/>
<path style="mix-blend-mode:multiply" fill-rule="evenodd" clip-rule="evenodd" d="M17.0292 55.453C17.0862 54.8076 17.3327 54.1941 17.7376 53.6902C18.1424 53.1864 18.6873 52.815 19.3032 52.6229C20.1092 52.5309 21.018 52.9759 20.9214 53.6988C20.9033 53.8316 20.8685 53.9616 20.8178 54.0855V54.0855C21.0031 53.8362 21.133 53.5498 21.1988 53.2455C21.2646 52.9413 21.2648 52.6263 21.1993 52.3217C21.1818 52.1193 21.1015 51.9273 20.9698 51.7729C20.8381 51.6184 20.6616 51.5092 20.4651 51.4606C19.8934 51.3746 19.3095 51.4428 18.7733 51.6581C18.2372 51.8734 17.7679 52.2281 17.4138 52.6859C17.058 53.3624 16.8649 54.1135 16.8498 54.8791C16.8543 55.0743 16.903 55.2661 16.9922 55.4399L17.0292 55.453Z" fill="url(#paint17_radial_2236_18750)"/>
<path style="mix-blend-mode:multiply" fill-rule="evenodd" clip-rule="evenodd" d="M13.6628 51.9939C13.2627 52.0955 13.064 54.0495 13.0174 55.3229C12.8869 57.7664 14.3041 55.9761 14.9857 54.6879C15.2291 54.1414 15.2863 53.5291 15.1486 52.9458C15.0541 52.6319 14.8422 52.3667 14.5573 52.2061C14.2936 52.0306 13.9764 51.9554 13.6628 51.9939V51.9939Z" fill="url(#paint18_radial_2236_18750)"/>
<path style="mix-blend-mode:multiply" fill-rule="evenodd" clip-rule="evenodd" d="M13.6647 52.9733C14.5177 52.2274 14.7504 54.0267 14.7129 54.453C14.6701 54.8324 14.5844 55.2056 14.4574 55.5654C14.6497 55.2831 14.826 54.9901 14.9855 54.6879C15.2289 54.1414 15.2861 53.5291 15.1484 52.9458C15.0539 52.6319 14.8419 52.3667 14.5571 52.2061C14.2934 52.0306 13.9762 51.9554 13.6626 51.9939C13.3889 52.0635 13.2167 52.9745 13.1135 53.9806C13.2041 53.6012 13.3945 53.2533 13.6647 52.9733V52.9733Z" fill="url(#paint19_radial_2236_18750)"/>
<path style="mix-blend-mode:multiply" fill-rule="evenodd" clip-rule="evenodd" d="M26.3253 47.9226C25.7667 48.1855 25.2672 48.5594 24.8568 49.0218C24.4464 49.4841 24.1336 50.0253 23.9373 50.6127C23.848 51.7617 25.1302 55.3108 26.6632 53.4911C27.2155 52.6196 27.679 51.6944 28.0468 50.7294C28.4882 49.9077 28.9363 49.3772 29.3231 48.6933C29.3697 48.5955 29.3914 48.4875 29.3861 48.3791C29.3809 48.2707 29.3489 48.1652 29.2931 48.0721C29.2372 47.9791 29.1592 47.9014 29.0661 47.846C28.9731 47.7907 28.8678 47.7594 28.7598 47.755C27.9296 47.6331 27.0838 47.6793 26.2724 47.891L26.3253 47.9226Z" fill="url(#paint20_radial_2236_18750)"/>
<path style="mix-blend-mode:multiply" opacity="0.5" fill-rule="evenodd" clip-rule="evenodd" d="M26.7402 48.6283C27.5172 48.5099 28.0796 48.7388 27.9626 49.602C27.8455 50.4652 27.6563 51.1327 27.5312 51.9642C27.69 51.5337 27.8709 51.1118 28.0733 50.7002C28.5148 49.8785 28.9629 49.348 29.3496 48.6641C29.3908 48.5656 29.4072 48.4584 29.3976 48.3519C29.3879 48.2455 29.3525 48.1429 29.2944 48.0532C29.2362 47.9636 29.1571 47.8895 29.064 47.8375C28.9709 47.7855 28.8666 47.7572 28.7601 47.755C27.9299 47.6331 27.0842 47.6793 26.2728 47.891C25.7142 48.1539 25.2147 48.5278 24.8043 48.9901C24.3939 49.4524 24.0811 49.9936 23.8848 50.5811V50.5811C24.1419 50.0278 24.5426 49.5545 25.045 49.2109C25.5475 48.8674 26.133 48.6661 26.7402 48.6283Z" fill="url(#paint21_radial_2236_18750)"/>
<path style="mix-blend-mode:multiply" fill-rule="evenodd" clip-rule="evenodd" d="M27.9505 42.8468C28.1385 42.7705 28.3424 42.7418 28.5442 42.7631C28.7461 42.7845 28.9398 42.8553 29.1082 42.9694C29.2766 43.0835 29.4147 43.2373 29.5102 43.4173C29.6057 43.5974 29.6558 43.7981 29.656 44.0019C29.7019 44.3093 29.6436 44.6231 29.4906 44.8928C29.3375 45.1625 29.0985 45.3725 28.8119 45.489C29.071 45.409 29.3078 45.2692 29.5032 45.0807C29.6986 44.8922 29.8473 44.6603 29.9374 44.4036C30.0393 44.1524 30.0873 43.8823 30.0783 43.6109C30.0692 43.3396 30.0034 43.073 29.8849 42.8287C29.6482 42.382 29.1319 41.8936 28.6581 42.0139C27.8454 42.2098 27.1353 42.7033 26.667 43.398C26.5448 43.5894 26.4852 43.8144 26.4967 44.0417C26.5082 44.2691 26.5902 44.4872 26.7311 44.6658C26.7821 44.7315 26.8388 44.7925 26.9007 44.848C26.5714 44.3459 26.5478 43.8113 27.191 43.2988C27.4069 43.1078 27.6616 42.9662 27.9375 42.8839L27.9505 42.8468Z" fill="url(#paint22_radial_2236_18750)"/>
<path style="mix-blend-mode:multiply" fill-rule="evenodd" clip-rule="evenodd" d="M35.3763 48.4742C35.2258 47.8816 34.7391 47.5096 33.903 47.9247C33.3037 48.257 32.4092 49.6781 32.5919 50.3976C32.709 50.7468 32.9467 51.0425 33.2619 51.2311C33.5771 51.4197 33.949 51.4887 34.31 51.4256C34.5115 51.348 34.695 51.2298 34.8493 51.0783C35.0035 50.9268 35.1253 50.7452 35.2071 50.5446C35.1584 50.8385 35.086 51.1272 35.0136 51.4159C34.9547 51.5624 34.8472 51.684 34.7093 51.76C34.5714 51.8361 34.4115 51.862 34.2566 51.8334C33.5777 51.7336 32.9634 51.3726 32.5439 50.8266C32.3489 50.224 32.332 49.5781 32.4951 48.9669C32.6582 48.3558 32.9944 47.8056 33.4628 47.3831C33.633 47.248 33.8298 47.1505 34.0403 47.097C34.2508 47.0436 34.4702 47.0354 34.6843 47.073C34.8468 47.1137 34.9942 47.2007 35.1089 47.3234C35.2235 47.4462 35.3006 47.5995 35.3307 47.7649L35.3629 48.4213L35.3763 48.4742Z" fill="url(#paint23_radial_2236_18750)"/>
<path style="mix-blend-mode:multiply" fill-rule="evenodd" clip-rule="evenodd" d="M29.9498 53.4113C29.3286 53.569 29.0009 55.0151 28.6761 55.9874C28.481 56.5334 28.2402 57.0618 27.9563 57.5668C27.9198 57.7333 27.9226 57.9062 27.9646 58.0716C28.0066 58.237 28.0866 58.3903 28.1981 58.5192C28.3237 58.6233 28.4771 58.6879 28.6389 58.705C28.8008 58.722 28.9639 58.6906 29.1079 58.6148C30.1999 57.8924 31.1645 56.9928 31.9625 55.9526C32.1038 55.5347 32.1212 55.0842 32.0124 54.6559C31.9037 54.2277 31.6735 53.84 31.3499 53.5401C30.9115 53.3183 30.4075 53.2659 29.9339 53.3928L29.9498 53.4113Z" fill="url(#paint24_radial_2236_18750)"/>
<path style="mix-blend-mode:multiply" fill-rule="evenodd" clip-rule="evenodd" d="M29.5022 55.0906C29.7044 54.7797 30.0158 54.5565 30.3746 54.4654C30.7333 54.3743 31.1134 54.4219 31.4396 54.5987C31.6308 54.7557 31.7744 54.9634 31.8538 55.1982C31.9332 55.433 31.9454 55.6853 31.8888 55.9264C31.7226 56.2547 31.5082 56.5559 31.2526 56.82C31.5059 56.545 31.743 56.2554 31.9627 55.9526C32.104 55.5347 32.1213 55.0842 32.0126 54.6559C31.9039 54.2277 31.6737 53.84 31.3501 53.5401C30.9117 53.3183 30.4077 53.2659 29.9341 53.3928C29.3129 53.5506 28.9851 54.9967 28.6604 55.9689C28.5469 56.3147 28.4075 56.6513 28.2435 56.9758C28.7463 56.3075 29.1121 55.629 29.4598 55.0563L29.5022 55.0906Z" fill="url(#paint25_radial_2236_18750)"/>
<path style="mix-blend-mode:multiply" fill-rule="evenodd" clip-rule="evenodd" d="M34.6217 57.5977C34.3184 57.2741 34.1165 56.8681 34.0413 56.4305C33.966 55.9929 34.0208 55.543 34.1987 55.137C34.5261 54.9089 34.8992 54.7551 35.2921 54.6865C35.685 54.6178 36.0883 54.6359 36.4739 54.7395C36.9972 55.0347 36.8929 55.8158 36.7347 56.3403C36.9865 55.9614 37.0895 55.5019 37.0236 55.0505C36.7872 54.1193 34.4654 54.1569 33.8155 54.3783C33.6575 54.4184 33.447 54.4719 33.4243 54.6916C33.3844 55.2073 33.4566 55.7259 33.636 56.2113C33.8154 56.6967 34.0976 57.1374 34.4631 57.5028C34.5097 57.544 34.5635 57.5762 34.6217 57.5977V57.5977Z" fill="url(#paint26_radial_2236_18750)"/>
<path style="mix-blend-mode:multiply" fill-rule="evenodd" clip-rule="evenodd" d="M15.7973 61.8143C15.7737 61.986 15.7913 62.1609 15.8484 62.3246C15.9056 62.4884 16.0007 62.6362 16.126 62.7558C16.8562 63.3363 18.3515 62.4272 18.8204 61.8463C18.918 61.6916 18.9658 61.5103 18.9574 61.3271C18.949 61.1439 18.8847 60.9676 18.7733 60.822C18.4486 60.3994 17.976 60.1166 17.4517 60.0313C16.6658 59.938 15.923 61.1178 15.834 61.7824L15.7973 61.8143Z" fill="url(#paint27_radial_2236_18750)"/>
<path style="mix-blend-mode:multiply" fill-rule="evenodd" clip-rule="evenodd" d="M16.041 62.5072C16.0667 62.1213 16.1906 61.7487 16.4008 61.4251C16.6111 61.1016 16.9007 60.8378 17.2418 60.6592C17.4943 60.5582 17.768 60.522 18.0382 60.5536C18.3084 60.5853 18.5667 60.6839 18.7898 60.8405V60.8405C18.4651 60.4179 17.9925 60.1351 17.4682 60.0498C16.6823 59.9565 15.9395 61.1363 15.8505 61.8009C15.827 61.9726 15.8445 62.1475 15.9016 62.3113C15.9588 62.475 16.054 62.6228 16.1792 62.7424L16.2612 62.8004C16.1779 62.7159 16.1198 62.6097 16.0937 62.4938L16.041 62.5072Z" fill="url(#paint28_radial_2236_18750)"/>
<path style="mix-blend-mode:multiply" fill-rule="evenodd" clip-rule="evenodd" d="M20.8155 60.6078C19.6769 60.0521 21.2881 58.0549 22.4546 57.8375C23.1168 57.7081 23.801 57.7473 24.445 57.9516C24.9328 58.0889 25.3485 58.4117 25.6038 58.8513C25.9576 59.5386 24.3268 60.7524 23.7316 60.836C22.7593 61.0542 21.7437 60.9747 20.8155 60.6078V60.6078Z" fill="url(#paint29_radial_2236_18750)"/>
<path style="mix-blend-mode:multiply" fill-rule="evenodd" clip-rule="evenodd" d="M20.8287 60.0413C21.2826 59.3768 21.95 58.8892 22.7196 58.6601C23.4567 58.4729 25.7733 58.4591 25.4571 59.5531C25.536 59.4579 25.5891 59.3437 25.6111 59.2217C25.6331 59.0997 25.6234 58.9739 25.5828 58.8566C25.3275 58.417 24.9119 58.0943 24.4241 57.9569C23.7801 57.7527 23.0958 57.7134 22.4337 57.8428C21.2356 58.0682 19.6349 60.0628 20.7945 60.6131L20.9451 60.6763C20.8562 60.6024 20.7929 60.5021 20.7644 60.3899C20.7359 60.2776 20.7437 60.1593 20.7866 60.052L20.8287 60.0413Z" fill="url(#paint30_radial_2236_18750)"/>
<path style="mix-blend-mode:multiply" opacity="0.5" fill-rule="evenodd" clip-rule="evenodd" d="M21.9153 65.7799C22.0296 65.4355 22.8437 65.3752 23.5986 65.6115C24.3536 65.8479 25.1286 66.4282 25.0589 66.7275C25.0372 66.7745 25.0047 66.8156 24.9641 66.8475C24.9234 66.8793 24.8758 66.901 24.8252 66.9108C25.5658 66.9142 25.4127 66.3111 25.134 65.92C24.8083 65.4405 24.3701 65.0489 23.8582 64.7797C23.3997 64.602 22.8986 64.5681 22.4213 64.6828C22.3121 64.7153 22.2112 64.7707 22.1251 64.8455C22.039 64.9202 21.9697 65.0125 21.9219 65.1162C21.874 65.22 21.8487 65.3328 21.8476 65.4472C21.8464 65.5616 21.8695 65.675 21.9153 65.7799V65.7799Z" fill="url(#paint31_radial_2236_18750)"/>
<path style="mix-blend-mode:multiply" fill-rule="evenodd" clip-rule="evenodd" d="M28.6175 64.0556C27.5465 63.8545 28.4171 61.8538 29.348 61.4147C29.868 61.1643 30.4402 61.0422 31.0172 61.0585C31.4452 61.072 31.853 61.2456 32.1608 61.5453C32.6007 62.0418 31.5109 63.3998 31.0691 63.6021C30.3158 63.9956 29.462 64.1536 28.6175 64.0556V64.0556Z" fill="url(#paint32_radial_2236_18750)"/>
<path style="mix-blend-mode:multiply" fill-rule="evenodd" clip-rule="evenodd" d="M28.4993 63.5901C28.7239 62.9309 29.1741 62.3736 29.77 62.0172C30.3166 61.6982 32.2381 61.1877 32.2165 62.1619C32.2595 62.0628 32.277 61.9544 32.2672 61.8466C32.2575 61.7388 32.2209 61.6352 32.1608 61.5453C31.853 61.2456 31.4452 61.072 31.0172 61.0585C30.4402 61.0422 29.868 61.1643 29.348 61.4147C28.4198 61.8644 27.5465 63.8545 28.6175 64.0556L28.7468 64.0791C28.6586 64.0352 28.5869 63.9638 28.5423 63.8757C28.4977 63.7875 28.4826 63.6874 28.4993 63.5901Z" fill="url(#paint33_radial_2236_18750)"/>
<path style="mix-blend-mode:multiply" opacity="0.6" fill-rule="evenodd" clip-rule="evenodd" d="M32.2205 59.2661C32.1571 59.3333 32.1105 59.4146 32.0844 59.5035C32.0582 59.5923 32.0533 59.6861 32.0701 59.7773C32.1937 60.264 33.1272 60.3649 33.5168 60.266C33.6084 60.232 33.6874 60.1705 33.7431 60.0899C33.7988 60.0093 33.8285 59.9134 33.8282 59.8152C33.8248 59.6708 33.793 59.5284 33.7344 59.3963C33.6759 59.2643 33.5918 59.1451 33.4872 59.0458C33.1879 58.7501 32.4802 59.0086 32.2205 59.2661Z" fill="url(#paint34_radial_2236_18750)"/>
<path style="mix-blend-mode:multiply" fill-rule="evenodd" clip-rule="evenodd" d="M32.1174 59.6528C32.2526 59.4962 32.4259 59.3775 32.6204 59.3084C32.815 59.2392 33.0243 59.2219 33.2277 59.2582C33.3698 59.2939 33.5003 59.366 33.6065 59.4673C33.7128 59.5686 33.7912 59.6958 33.8341 59.8364C33.8307 59.692 33.7988 59.5496 33.7403 59.4175C33.6817 59.2854 33.5977 59.1663 33.493 59.067C33.1938 58.7713 32.486 59.0298 32.2263 59.2872C32.163 59.3545 32.1164 59.4358 32.0902 59.5246C32.0641 59.6135 32.0592 59.7073 32.076 59.7985V59.7985C32.0692 59.7341 32.0798 59.6692 32.1067 59.6105L32.1174 59.6528Z" fill="url(#paint35_radial_2236_18750)"/>
<path style="mix-blend-mode:multiply" opacity="0.5" fill-rule="evenodd" clip-rule="evenodd" d="M34.0096 45.0365C37.666 47.3858 40.8737 55.6046 37.4104 57.1936C37.5151 57.6062 37.4582 57.8234 36.657 58.376C33.6598 60.4324 33.0563 61.543 31.6989 65.3343C31.1684 66.8206 28.5051 67.632 27.4656 66.3191C26.2453 68.4874 22.166 67.5184 19.3513 66.4534C21.7577 67.5771 24.3638 68.2025 27.0139 68.2923C28.1937 67.8858 29.4052 67.5782 30.636 67.3725C31.2771 67.0297 31.8697 66.6027 32.3984 66.1028C34.2559 62.7926 36.4796 59.704 39.0272 56.8957C39.268 54.9447 39.2638 52.9704 39.0146 51.0193C38.3585 49.0703 37.4679 47.2085 36.3627 45.4753C34.0202 42.547 30.6397 40.6434 26.9332 40.1654L26.5826 40.153C29.6557 40.6905 32.8008 41.9531 34.0175 45.0233L34.0096 45.0365Z" fill="url(#paint36_radial_2236_18750)"/>
<path style="mix-blend-mode:screen" opacity="0.3" fill-rule="evenodd" clip-rule="evenodd" d="M21.1189 51.0354C20.3472 50.6006 18.729 51.1579 17.8303 52.2534C18.5779 51.6565 19.5295 51.3785 20.4806 51.4791C20.6771 51.5277 20.8536 51.6369 20.9853 51.7914C21.117 51.9458 21.1973 52.1378 21.2149 52.3402C21.3072 52.8513 21.2282 53.3785 20.9902 53.8389C22.0137 52.3964 21.8429 51.4148 21.1189 51.0354Z" fill="url(#paint37_radial_2236_18750)"/>
<path style="mix-blend-mode:screen" opacity="0.3" fill-rule="evenodd" clip-rule="evenodd" d="M13.6628 51.9939C13.9764 51.9554 14.2936 52.0306 14.5573 52.2061C14.8421 52.3667 15.0541 52.6319 15.1486 52.9458C15.2014 53.2418 15.2214 53.5427 15.2083 53.8429C15.3342 53.3801 15.319 52.8896 15.1646 52.4348C14.8394 51.6839 13.992 51.3922 13.6633 51.5545C13.3346 51.7168 13.1209 52.1991 13.1823 53.4563C13.276 52.6778 13.4363 52.0289 13.6628 51.9939Z" fill="url(#paint38_radial_2236_18750)"/>
<path style="mix-blend-mode:screen" opacity="0.3" fill-rule="evenodd" clip-rule="evenodd" d="M19.8933 44.9266C19.3364 44.7639 17.6989 45.6865 16.8644 47.5204C17.5312 46.4387 19.1813 45.389 19.7545 45.6601C20.1886 45.9874 20.4799 46.4705 20.5675 47.0081C20.6206 47.5228 20.5357 48.0421 20.3218 48.5122C21.0804 46.2471 20.5082 45.0971 19.8933 44.9266Z" fill="url(#paint39_radial_2236_18750)"/>
<path style="mix-blend-mode:screen" opacity="0.3" fill-rule="evenodd" clip-rule="evenodd" d="M23.9374 50.6127C24.1338 50.0253 24.4465 49.4841 24.8569 49.0218C25.2674 48.5594 25.7669 48.1856 26.3254 47.9226C27.0017 47.7485 27.7024 47.6886 28.3988 47.7453C27.7651 47.5064 27.0865 47.4131 26.4129 47.4724C25.7325 47.6345 25.1176 48.0002 24.6496 48.5213C24.1815 49.0424 23.8822 49.6943 23.7914 50.3907C23.7921 51.2432 24.0239 52.0799 24.462 52.8111C24.1195 52.1288 23.9399 51.3761 23.9374 50.6127V50.6127Z" fill="url(#paint40_radial_2236_18750)"/>
<path style="mix-blend-mode:screen" opacity="0.3" fill-rule="evenodd" clip-rule="evenodd" d="M22.454 57.8375C23.1162 57.7081 23.8004 57.7473 24.4444 57.9516C24.6964 58.0304 24.9326 58.1535 25.142 58.3151C24.7824 57.9219 24.3243 57.633 23.8157 57.4787C23.3072 57.3244 22.7669 57.3105 22.2518 57.4383C21.7601 57.5868 21.3248 57.8809 21.0028 58.2822C20.6808 58.6835 20.487 59.1733 20.4467 59.6875C20.6145 59.2432 20.8834 58.8446 21.2318 58.5235C21.5803 58.2023 21.9988 57.9674 22.454 57.8375V57.8375Z" fill="url(#paint41_radial_2236_18750)"/>
<g opacity="0.3">
<path style="mix-blend-mode:screen" opacity="0.3" fill-rule="evenodd" clip-rule="evenodd" d="M17.4151 60.0631C17.8186 60.1123 18.198 60.283 18.5034 60.5527C17.5324 59.2449 16.0482 59.7119 15.8309 61.6368C16.0174 60.9587 16.6978 59.9749 17.4151 60.0631Z" fill="url(#paint42_radial_2236_18750)"/>
<path opacity="0.3" fill-rule="evenodd" clip-rule="evenodd" d="M15.8045 62.1504C15.8085 62.1867 15.8175 62.2224 15.8313 62.2562V62.2562L15.8045 62.1504Z" fill="#999999"/>
</g>
<path style="mix-blend-mode:screen" opacity="0.25" fill-rule="evenodd" clip-rule="evenodd" d="M17.1894 44.5205C14.3085 47.2118 13.1072 57.6652 14.4731 62.1617C14.6462 62.5345 14.8009 62.9232 14.9584 63.3225C15.1158 63.7218 15.547 64.0516 15.857 64.3896C16.167 64.7277 16.7987 65.0967 17.1329 65.0005C19.634 64.2745 22.0697 63.3395 24.4147 62.2054C25.6133 61.5406 29.1897 57.704 30.8274 55.1932C32.1878 53.0907 31.813 46.4503 30.6818 45.7914C27.0003 43.6963 20.0057 43.2084 17.9775 44.005L17.5806 44.2071L17.1999 44.5178L17.1894 44.5205Z" fill="url(#paint43_radial_2236_18750)"/>
<path style="mix-blend-mode:screen" fill-rule="evenodd" clip-rule="evenodd" d="M14.0325 48.2845C13.6955 49.5802 13.1389 50.8074 12.387 51.9125C12.1367 52.2535 11.9797 52.6544 11.9314 53.0756C11.7381 54.6038 11.7058 56.1486 11.8351 57.6843C11.8718 58.2429 12.1051 58.7705 12.4933 59.1729C13.5881 60.3958 14.4309 61.8242 14.9726 63.3754C15.4662 64.0388 16.0235 64.6518 16.6366 65.2056C19.7826 67.1149 23.3499 68.2101 27.0178 68.3928C28.1976 67.9864 29.4091 67.6788 30.6399 67.4731C31.281 67.1303 31.8736 66.7033 32.4023 66.2034C34.2598 62.8932 36.4834 59.8046 39.031 56.9962C39.2719 55.0452 39.2677 53.071 39.0184 51.1199C38.3623 49.1709 37.4718 47.309 36.3666 45.5758C34.0241 42.6476 30.6436 40.744 26.9371 40.2659C26.0071 40.2417 25.0767 40.2785 24.1518 40.3762C22.7313 41.1667 21.2609 41.8637 19.7499 42.4626C19.2605 42.734 18.8108 43.0718 18.4133 43.4665C17.6965 44.2489 16.8407 44.8902 15.8896 45.3576C15.3782 46.4122 14.7557 47.4085 14.0327 48.3296L14.0325 48.2845Z" fill="url(#paint44_radial_2236_18750)"/>
<path style="mix-blend-mode:screen" fill-rule="evenodd" clip-rule="evenodd" d="M14.0325 48.2845C13.6955 49.5802 13.1389 50.8074 12.387 51.9125C12.1367 52.2535 11.9797 52.6544 11.9314 53.0756C11.7381 54.6038 11.7058 56.1486 11.8351 57.6843C11.8718 58.2429 12.1051 58.7705 12.4933 59.1729C13.5881 60.3958 14.4309 61.8242 14.9726 63.3754C15.4662 64.0388 16.0235 64.6518 16.6366 65.2056C19.7826 67.1149 23.3499 68.2101 27.0178 68.3928C28.1976 67.9864 29.4091 67.6788 30.6399 67.4731C31.281 67.1303 31.8736 66.7033 32.4023 66.2034C34.2598 62.8932 36.4834 59.8046 39.031 56.9962C39.2719 55.0452 39.2677 53.071 39.0184 51.1199C38.3623 49.1709 37.4718 47.309 36.3666 45.5758C34.0241 42.6476 30.6436 40.744 26.9371 40.2659C26.0071 40.2417 25.0767 40.2785 24.1518 40.3762C22.7313 41.1667 21.2609 41.8637 19.7499 42.4626C19.2605 42.734 18.8108 43.0718 18.4133 43.4665C17.6965 44.2489 16.8407 44.8902 15.8896 45.3576C15.3782 46.4122 14.7557 47.4085 14.0327 48.3296L14.0325 48.2845Z" fill="url(#paint45_radial_2236_18750)"/>
<path style="mix-blend-mode:screen" opacity="0.5" fill-rule="evenodd" clip-rule="evenodd" d="M17.0135 45.1059C14.8477 48.9696 13.9473 53.422 14.4394 57.8339C14.5489 58.6622 15.2576 59.158 16.3271 59.0441C17.1226 58.9548 18.2503 57.7899 19.1869 56.3581C23.3086 50.2993 25.0423 49.0932 27.5122 46.9905C28.3416 46.2843 28.5302 45.4818 27.8962 45.1922C25.8042 44.2367 18.398 43.0986 17.0135 45.1059V45.1059Z" fill="url(#paint46_radial_2236_18750)"/>
<path style="mix-blend-mode:screen" opacity="0.3" fill-rule="evenodd" clip-rule="evenodd" d="M17.1894 44.5205C14.3085 47.2118 13.1072 57.6652 14.4731 62.1617C14.6462 62.5345 14.8009 62.9232 14.9584 63.3225C15.1158 63.7218 15.547 64.0516 15.857 64.3896C16.167 64.7277 16.7987 65.0967 17.1329 65.0005C19.634 64.2745 22.0697 63.3395 24.4147 62.2054C25.6133 61.5406 29.1897 57.704 30.8274 55.1932C32.1878 53.0907 31.813 46.4503 30.6818 45.7914C27.0003 43.6963 20.0057 43.2084 17.9775 44.005L17.5806 44.2071L17.1999 44.5178L17.1894 44.5205Z" fill="url(#paint47_radial_2236_18750)"/>
<path style="mix-blend-mode:screen" fill-rule="evenodd" clip-rule="evenodd" d="M14.0325 48.2845C13.6955 49.5802 13.1389 50.8074 12.387 51.9125C12.1367 52.2535 11.9797 52.6544 11.9314 53.0756C11.7381 54.6038 11.7058 56.1486 11.8351 57.6843C11.8718 58.2429 12.1051 58.7705 12.4933 59.1729C13.5881 60.3958 14.4309 61.8242 14.9726 63.3754C15.4662 64.0388 16.0235 64.6518 16.6366 65.2056C19.7826 67.1149 23.3499 68.2101 27.0178 68.3928C28.1976 67.9864 29.4091 67.6788 30.6399 67.4731C31.281 67.1303 31.8736 66.7033 32.4023 66.2034C34.2598 62.8932 36.4834 59.8046 39.031 56.9962C39.2719 55.0452 39.2677 53.071 39.0184 51.1199C38.3623 49.1709 37.4718 47.309 36.3666 45.5758C34.0241 42.6476 30.6436 40.744 26.9371 40.2659C26.0071 40.2417 25.0767 40.2785 24.1518 40.3762C22.7313 41.1667 21.2609 41.8637 19.7499 42.4626C19.2605 42.734 18.8108 43.0718 18.4133 43.4665C17.6965 44.2489 16.8407 44.8902 15.8896 45.3576C15.3782 46.4122 14.7557 47.4085 14.0327 48.3296L14.0325 48.2845Z" fill="url(#paint48_radial_2236_18750)"/>
<defs>
<radialGradient id="paint0_radial_2236_18750" cx="0" cy="0" r="1" gradientUnits="userSpaceOnUse" gradientTransform="translate(29.3386 55.684) rotate(-14.2473) scale(75.6755 76.048)">
<stop stop-color="#FF008B"/>
<stop offset="1"/>
</radialGradient>
<radialGradient id="paint1_radial_2236_18750" cx="0" cy="0" r="1" gradientUnits="userSpaceOnUse" gradientTransform="translate(56.5743 46.3242) rotate(-14.2473) scale(45.8551 46.0808)">
<stop stop-color="#FF8080"/>
<stop offset="1"/>
</radialGradient>
<radialGradient id="paint2_radial_2236_18750" cx="0" cy="0" r="1" gradientUnits="userSpaceOnUse" gradientTransform="translate(60.4121 45.2372) rotate(-14.2473) scale(35.6107 35.786)">
<stop stop-color="#FFED00"/>
<stop offset="1"/>
</radialGradient>
<radialGradient id="paint3_radial_2236_18750" cx="0" cy="0" r="1" gradientUnits="userSpaceOnUse" gradientTransform="translate(34.6276 52.7642) rotate(-14.2473) scale(25.2469 25.3712)">
<stop stop-color="#473C96"/>
<stop offset="0.27" stop-color="#493C95"/>
<stop offset="0.42" stop-color="#523D91"/>
<stop offset="0.54" stop-color="#603F8B"/>
<stop offset="0.65" stop-color="#734283"/>
<stop offset="0.74" stop-color="#8D4678"/>
<stop offset="0.83" stop-color="#AD4A6A"/>
<stop offset="0.92" stop-color="#D24F5B"/>
<stop offset="0.99" stop-color="#FC5548"/>
<stop offset="1" stop-color="#FF5547"/>
</radialGradient>
<radialGradient id="paint4_radial_2236_18750" cx="0" cy="0" r="1" gradientUnits="userSpaceOnUse" gradientTransform="translate(26.4118 53.7352) rotate(-14.2473) scale(27.1915 27.3253)">
<stop stop-color="white"/>
<stop offset="0.08" stop-color="#ECECF7"/>
<stop offset="0.3" stop-color="#B9BCE1"/>
<stop offset="0.52" stop-color="#9196D0"/>
<stop offset="0.71" stop-color="#747BC3"/>
<stop offset="0.88" stop-color="#626ABC"/>
<stop offset="1" stop-color="#5C64B9"/>
</radialGradient>
<radialGradient id="paint5_radial_2236_18750" cx="0" cy="0" r="1" gradientUnits="userSpaceOnUse" gradientTransform="translate(24.9563 57.495) rotate(-14.2473) scale(18.7614 18.8537)">
<stop offset="0.57" stop-color="#DBFFFF"/>
<stop offset="0.75" stop-color="#AAC3E4"/>
<stop offset="1" stop-color="#5C64B9"/>
</radialGradient>
<radialGradient id="paint6_radial_2236_18750" cx="0" cy="0" r="1" gradientUnits="userSpaceOnUse" gradientTransform="translate(21.5588 48.7049) rotate(-14.2473) scale(22.0965 22.2052)">
<stop stop-color="white"/>
<stop offset="0.18" stop-color="#FCFCFE"/>
<stop offset="0.34" stop-color="#F1F2F9"/>
<stop offset="0.49" stop-color="#DFE1F1"/>
<stop offset="0.63" stop-color="#C6C9E6"/>
<stop offset="0.77" stop-color="#A5AAD9"/>
<stop offset="0.9" stop-color="#7E84C8"/>
<stop offset="1" stop-color="#5C64B9"/>
</radialGradient>
<radialGradient id="paint7_radial_2236_18750" cx="0" cy="0" r="1" gradientUnits="userSpaceOnUse" gradientTransform="translate(24.1634 60.197) rotate(-14.2473) scale(10.2986 10.3493)">
<stop stop-color="white"/>
<stop offset="0.27" stop-color="#FDFDFE"/>
<stop offset="0.43" stop-color="#F4F5FA"/>
<stop offset="0.56" stop-color="#E6E7F4"/>
<stop offset="0.67" stop-color="#D2D4EC"/>
<stop offset="0.77" stop-color="#B8BCE1"/>
<stop offset="0.87" stop-color="#999ED3"/>
<stop offset="0.95" stop-color="#747AC3"/>
<stop offset="1" stop-color="#5C64B9"/>
</radialGradient>
<radialGradient id="paint8_radial_2236_18750" cx="0" cy="0" r="1" gradientUnits="userSpaceOnUse" gradientTransform="translate(18.4319 50.7378) rotate(-14.2473) scale(5.87719 5.90611)">
<stop stop-color="white"/>
<stop offset="1" stop-color="#B1C6F2"/>
</radialGradient>
<radialGradient id="paint9_radial_2236_18750" cx="0" cy="0" r="1" gradientUnits="userSpaceOnUse" gradientTransform="translate(477.751 -224.741) rotate(-14.2473) scale(12.9618 8.28034)">
<stop stop-color="white"/>
<stop offset="1" stop-color="#B1C6F2"/>
</radialGradient>
<radialGradient id="paint10_radial_2236_18750" cx="0" cy="0" r="1" gradientUnits="userSpaceOnUse" gradientTransform="translate(550.612 -341.471) rotate(-14.2473) scale(17.5264 16.4907)">
<stop stop-color="white"/>
<stop offset="1" stop-color="#B1C6F2"/>
</radialGradient>
<radialGradient id="paint11_radial_2236_18750" cx="0" cy="0" r="1" gradientUnits="userSpaceOnUse" gradientTransform="translate(36.2063 51.6988) rotate(-14.2473) scale(5.46438 5.49127)">
<stop stop-color="white"/>
<stop offset="1" stop-color="#7682BA"/>
</radialGradient>
<radialGradient id="paint12_radial_2236_18750" cx="0" cy="0" r="1" gradientUnits="userSpaceOnUse" gradientTransform="translate(574.701 -294.591) rotate(-14.2473) scale(11.3441 11.1054)">
<stop stop-color="white"/>
<stop offset="1" stop-color="#7682BA"/>
</radialGradient>
<radialGradient id="paint13_radial_2236_18750" cx="0" cy="0" r="1" gradientUnits="userSpaceOnUse" gradientTransform="translate(470.026 -198.402) rotate(-14.2473) scale(12.9384 11.2782)">
<stop stop-color="white"/>
<stop offset="1" stop-color="#B1C6F2"/>
</radialGradient>
<radialGradient id="paint14_radial_2236_18750" cx="0" cy="0" r="1" gradientUnits="userSpaceOnUse" gradientTransform="translate(18.4981 48.6147) rotate(-14.2473) scale(3.83484 3.85372)">
<stop offset="0.38" stop-color="white"/>
<stop offset="0.62" stop-color="#C3C6E5"/>
<stop offset="1" stop-color="#5C64B9"/>
</radialGradient>
<radialGradient id="paint15_radial_2236_18750" cx="0" cy="0" r="1" gradientUnits="userSpaceOnUse" gradientTransform="translate(487.449 -209.024) rotate(-14.2473) scale(8.30816 4.60074)">
<stop offset="0.38" stop-color="white"/>
<stop offset="0.62" stop-color="#C3C6E5"/>
<stop offset="1" stop-color="#5C64B9"/>
</radialGradient>
<radialGradient id="paint16_radial_2236_18750" cx="0" cy="0" r="1" gradientUnits="userSpaceOnUse" gradientTransform="translate(727.773 -537.774) rotate(-23.532) scale(26.4774 23.1268)">
<stop stop-color="white"/>
<stop offset="1" stop-color="#B1C6F2"/>
</radialGradient>
<radialGradient id="paint17_radial_2236_18750" cx="0" cy="0" r="1" gradientUnits="userSpaceOnUse" gradientTransform="translate(752.881 -489.641) rotate(-23.532) scale(24.0653 16.1242)">
<stop offset="0.38" stop-color="white"/>
<stop offset="0.62" stop-color="#C3C6E5"/>
<stop offset="1" stop-color="#5C64B9"/>
</radialGradient>
<radialGradient id="paint18_radial_2236_18750" cx="0" cy="0" r="1" gradientUnits="userSpaceOnUse" gradientTransform="translate(355.712 -324.573) rotate(-14.2473) scale(14.8262 22.8394)">
<stop stop-color="white"/>
<stop offset="1" stop-color="#B1C6F2"/>
</radialGradient>
<radialGradient id="paint19_radial_2236_18750" cx="0" cy="0" r="1" gradientUnits="userSpaceOnUse" gradientTransform="translate(278.325 -265.942) rotate(-14.2473) scale(7.41596 12.1785)">
<stop offset="0.38" stop-color="white"/>
<stop offset="0.62" stop-color="#C3C6E5"/>
<stop offset="1" stop-color="#5C64B9"/>
</radialGradient>
<radialGradient id="paint20_radial_2236_18750" cx="0" cy="0" r="1" gradientUnits="userSpaceOnUse" gradientTransform="translate(867.537 -548.525) rotate(-14.2473) scale(52.1344 50.8732)">
<stop stop-color="white"/>
<stop offset="1" stop-color="#B1C6F2"/>
</radialGradient>
<radialGradient id="paint21_radial_2236_18750" cx="0" cy="0" r="1" gradientUnits="userSpaceOnUse" gradientTransform="translate(890.256 -464.759) rotate(-14.2473) scale(24.8984 17.9678)">
<stop offset="0.38" stop-color="white"/>
<stop offset="0.62" stop-color="#C3C6E5"/>
<stop offset="1" stop-color="#5C64B9"/>
</radialGradient>
<radialGradient id="paint22_radial_2236_18750" cx="0" cy="0" r="1" gradientUnits="userSpaceOnUse" gradientTransform="translate(553.648 -343.874) rotate(-14.2473) scale(12.8624 12.0245)">
<stop offset="0.38" stop-color="white"/>
<stop offset="0.62" stop-color="#C3C6E5"/>
<stop offset="1" stop-color="#5C64B9"/>
</radialGradient>
<radialGradient id="paint23_radial_2236_18750" cx="0" cy="0" r="1" gradientUnits="userSpaceOnUse" gradientTransform="translate(530.418 -398.931) rotate(-14.2473) scale(17.2134 23.3905)">
<stop offset="0.38" stop-color="white"/>
<stop offset="0.62" stop-color="#C3C6E5"/>
<stop offset="1" stop-color="#5C64B9"/>
</radialGradient>
<radialGradient id="paint24_radial_2236_18750" cx="0" cy="0" r="1" gradientUnits="userSpaceOnUse" gradientTransform="translate(764.149 -713.418) rotate(-34.0769) scale(30.2204 30.9284)">
<stop stop-color="white"/>
<stop offset="1" stop-color="#B1C6F2"/>
</radialGradient>
<radialGradient id="paint25_radial_2236_18750" cx="0" cy="0" r="1" gradientUnits="userSpaceOnUse" gradientTransform="translate(686.434 -614.355) rotate(-34.0768) scale(17.6665 15.2336)">
<stop offset="0.38" stop-color="white"/>
<stop offset="0.62" stop-color="#C3C6E5"/>
<stop offset="1" stop-color="#5C64B9"/>
</radialGradient>
<radialGradient id="paint26_radial_2236_18750" cx="0" cy="0" r="1" gradientUnits="userSpaceOnUse" gradientTransform="translate(575.692 -287.151) rotate(-14.2473) scale(14.4276 13.3568)">
<stop offset="0.38" stop-color="white"/>
<stop offset="0.62" stop-color="#C3C6E5"/>
<stop offset="1" stop-color="#5C64B9"/>
</radialGradient>
<radialGradient id="paint27_radial_2236_18750" cx="0" cy="0" r="1" gradientUnits="userSpaceOnUse" gradientTransform="translate(486.039 -379.264) rotate(-31.0851) scale(12.5073 10.4388)">
<stop stop-color="white"/>
<stop offset="1" stop-color="#B1C6F2"/>
</radialGradient>
<radialGradient id="paint28_radial_2236_18750" cx="0" cy="0" r="1" gradientUnits="userSpaceOnUse" gradientTransform="translate(471.868 -357.786) rotate(-31.0851) scale(12.2237 9.33813)">
<stop offset="0.38" stop-color="white"/>
<stop offset="0.62" stop-color="#C3C6E5"/>
<stop offset="1" stop-color="#5C64B9"/>
</radialGradient>
<radialGradient id="paint29_radial_2236_18750" cx="0" cy="0" r="1" gradientUnits="userSpaceOnUse" gradientTransform="translate(858.132 -482.674) rotate(-23.4315) scale(52.7245 31.8803)">
<stop stop-color="white"/>
<stop offset="1" stop-color="#B1C6F2"/>
</radialGradient>
<radialGradient id="paint30_radial_2236_18750" cx="0" cy="0" r="1" gradientUnits="userSpaceOnUse" gradientTransform="translate(873.766 -454.696) rotate(-23.4315) scale(29.0943 13.1028)">
<stop offset="0.38" stop-color="white"/>
<stop offset="0.62" stop-color="#C3C6E5"/>
<stop offset="1" stop-color="#5C64B9"/>
</radialGradient>
<radialGradient id="paint31_radial_2236_18750" cx="0" cy="0" r="1" gradientUnits="userSpaceOnUse" gradientTransform="translate(470.228 -201.872) rotate(-14.2473) scale(10.2456 8.939)">
<stop offset="0.38" stop-color="white"/>
<stop offset="0.62" stop-color="#C3C6E5"/>
<stop offset="1" stop-color="#5C64B9"/>
</radialGradient>
<radialGradient id="paint32_radial_2236_18750" cx="0" cy="0" r="1" gradientUnits="userSpaceOnUse" gradientTransform="translate(700.352 -260.749) rotate(-14.2473) scale(28.2522 17.3635)">
<stop stop-color="white"/>
<stop offset="1" stop-color="#7682BA"/>
</radialGradient>
<radialGradient id="paint33_radial_2236_18750" cx="0" cy="0" r="1" gradientUnits="userSpaceOnUse" gradientTransform="translate(702.985 -246.594) rotate(-14.2473) scale(25.3309 14.3128)">
<stop offset="0.38" stop-color="white"/>
<stop offset="0.62" stop-color="#C3C6E5"/>
<stop offset="1" stop-color="#5C64B9"/>
</radialGradient>
<radialGradient id="paint34_radial_2236_18750" cx="0" cy="0" r="1" gradientUnits="userSpaceOnUse" gradientTransform="translate(290.62 -89.3624) rotate(-14.2473) scale(4.94338 4.14388)">
<stop stop-color="white"/>
<stop offset="1" stop-color="#7682BA"/>
</radialGradient>
<radialGradient id="paint35_radial_2236_18750" cx="0" cy="0" r="1" gradientUnits="userSpaceOnUse" gradientTransform="translate(295.852 -71.3473) rotate(-14.2473) scale(3.77212 2.37307)">
<stop offset="0.38" stop-color="white"/>
<stop offset="0.62" stop-color="#C3C6E5"/>
<stop offset="1" stop-color="#5C64B9"/>
</radialGradient>
<radialGradient id="paint36_radial_2236_18750" cx="0" cy="0" r="1" gradientUnits="userSpaceOnUse" gradientTransform="translate(3069.68 -2615.89) rotate(-14.2473) scale(394.968 473.125)">
<stop offset="0.57" stop-color="#DBFFFF"/>
<stop offset="0.75" stop-color="#AAC3E4"/>
<stop offset="1" stop-color="#5C64B9"/>
</radialGradient>
<radialGradient id="paint37_radial_2236_18750" cx="0" cy="0" r="1" gradientUnits="userSpaceOnUse" gradientTransform="translate(19.7871 53.0293) rotate(-14.2473) scale(2.66158 2.67467)">
<stop stop-color="#8CB1FF"/>
<stop offset="1"/>
</radialGradient>
<radialGradient id="paint38_radial_2236_18750" cx="0" cy="0" r="1" gradientUnits="userSpaceOnUse" gradientTransform="translate(290.032 -201.06) rotate(-14.2473) scale(2.42 2.89271)">
<stop stop-color="#8CB1FF"/>
<stop offset="1"/>
</radialGradient>
<radialGradient id="paint39_radial_2236_18750" cx="0" cy="0" r="1" gradientUnits="userSpaceOnUse" gradientTransform="translate(567.581 -364.09) rotate(-14.2473) scale(9.64379 8.75179)">
<stop stop-color="#8CB1FF"/>
<stop offset="1"/>
</radialGradient>
<radialGradient id="paint40_radial_2236_18750" cx="0" cy="0" r="1" gradientUnits="userSpaceOnUse" gradientTransform="translate(778.628 -469.362) rotate(-14.2473) scale(16.4139 14.6474)">
<stop stop-color="#8CB1FF"/>
<stop offset="1"/>
</radialGradient>
<radialGradient id="paint41_radial_2236_18750" cx="0" cy="0" r="1" gradientUnits="userSpaceOnUse" gradientTransform="translate(743.804 -232.764) rotate(-14.2473) scale(13.0526 4.63461)">
<stop stop-color="#8CB1FF"/>
<stop offset="1"/>
</radialGradient>
<radialGradient id="paint42_radial_2236_18750" cx="0" cy="0" r="1" gradientUnits="userSpaceOnUse" gradientTransform="translate(417.088 -130.935) rotate(-14.2473) scale(4.3428 2.20031)">
<stop stop-color="#8CB1FF"/>
<stop offset="1"/>
</radialGradient>
<radialGradient id="paint43_radial_2236_18750" cx="0" cy="0" r="1" gradientUnits="userSpaceOnUse" gradientTransform="translate(14.2509 46.1902) rotate(-14.2473) scale(21.5642 21.6703)">
<stop stop-color="#7888B6"/>
<stop offset="1"/>
</radialGradient>
<radialGradient id="paint44_radial_2236_18750" cx="0" cy="0" r="1" gradientUnits="userSpaceOnUse" gradientTransform="translate(40.9411 51.9383) rotate(-14.2473) scale(30.972 31.1245)">
<stop offset="0.8"/>
<stop offset="0.89" stop-color="#793F00"/>
<stop offset="0.97" stop-color="#D56E00"/>
<stop offset="1" stop-color="#F98100"/>
</radialGradient>
<radialGradient id="paint45_radial_2236_18750" cx="0" cy="0" r="1" gradientUnits="userSpaceOnUse" gradientTransform="translate(11.5269 49.5403) rotate(-14.2473) scale(30.972 31.1245)">
<stop offset="0.73"/>
<stop offset="0.76" stop-color="#060002"/>
<stop offset="0.79" stop-color="#160007"/>
<stop offset="0.83" stop-color="#300010"/>
<stop offset="0.87" stop-color="#55001C"/>
<stop offset="0.91" stop-color="#84002C"/>
<stop offset="0.96" stop-color="#BD003F"/>
<stop offset="1" stop-color="#F90053"/>
</radialGradient>
<radialGradient id="paint46_radial_2236_18750" cx="0" cy="0" r="1" gradientUnits="userSpaceOnUse" gradientTransform="translate(27.0412 56.9656) rotate(-14.2473) scale(19.3154 19.4105)">
<stop offset="0.59"/>
<stop offset="1" stop-color="#9C88B6"/>
</radialGradient>
<radialGradient id="paint47_radial_2236_18750" cx="0" cy="0" r="1" gradientUnits="userSpaceOnUse" gradientTransform="translate(18.6974 43.5293) rotate(-14.2473) scale(21.5642 21.6703)">
<stop offset="0.64"/>
<stop offset="0.68" stop-color="#060002"/>
<stop offset="0.72" stop-color="#160007"/>
<stop offset="0.77" stop-color="#300010"/>
<stop offset="0.83" stop-color="#55001C"/>
<stop offset="0.89" stop-color="#84002C"/>
<stop offset="0.94" stop-color="#BD003F"/>
<stop offset="1" stop-color="#F90053"/>
</radialGradient>
<radialGradient id="paint48_radial_2236_18750" cx="0" cy="0" r="1" gradientUnits="userSpaceOnUse" gradientTransform="translate(24.4799 62.9888) rotate(-14.2473) scale(21.8901 21.9978)">
<stop offset="0.56"/>
<stop offset="0.6" stop-color="#060300"/>
<stop offset="0.66" stop-color="#160B00"/>
<stop offset="0.72" stop-color="#301800"/>
<stop offset="0.79" stop-color="#552B00"/>
<stop offset="0.86" stop-color="#844200"/>
<stop offset="0.93" stop-color="#BD5F00"/>
<stop offset="1" stop-color="#F97D00"/>
</radialGradient>
</defs>
</svg>
