<svg width="529" height="338" viewBox="0 0 529 338" fill="none" xmlns="http://www.w3.org/2000/svg">
<path d="M15.5 30.3284V132.672L2.58579 145.586L2 146.172V147V315V315.828L2.58579 316.414L16.0858 329.914L16.6716 330.5H17.5H86.1716L91.0858 335.414L91.6716 336H92.5H309.5H310.328L310.914 335.414L315.828 330.5H510.5H511.328L511.914 329.914L526.414 315.414L527 314.828V314V18.5V17.6716L526.414 17.0858L511.914 2.58579L511.328 2H510.5H232.5H231.672L231.086 2.58579L223.172 10.5H146.328L138.414 2.58579L137.828 2H137H18H17.1716L16.5858 2.58579L8.08579 11.0858L7.5 11.6716V12.5V21.5V22.3284L8.08579 22.9142L15.5 30.3284Z" fill="#281787" stroke="#31A7E4" stroke-width="4"/>
</svg>
