<svg width="26" height="26" viewBox="0 0 26 26" fill="none" xmlns="http://www.w3.org/2000/svg">
<path d="M9.97501 25.1254C16.6729 26.7965 23.4569 22.7212 25.1255 16.025C26.7967 9.3266 22.7193 2.54579 16.0231 0.874555C9.3263 -0.796839 2.54582 3.2807 0.874722 9.97701C-0.796483 16.6737 3.27717 23.4544 9.97501 25.1254Z" fill="#1D125B" stroke="white"/>
<path d="M9.27051 11.0132C9.72391 10.9119 10.2688 10.8094 10.881 10.7311V9.72862C10.881 8.56066 11.8312 7.61046 12.9992 7.61046C14.1671 7.61046 15.1173 8.56066 15.1173 9.72862V10.7311C15.7295 10.8094 16.2744 10.9119 16.7278 11.0132V9.72862C16.7278 7.67266 15.0551 6 12.9992 6C10.9432 6 9.27051 7.67266 9.27051 9.72865V11.0132Z" fill="white"/>
<path d="M12.9996 13.4843C12.7575 13.4843 12.5605 13.6813 12.5605 13.9234C12.5605 14.1655 12.7575 14.3625 12.9996 14.3625C13.2417 14.3625 13.4387 14.1655 13.4387 13.9234C13.4387 13.6813 13.2417 13.4843 12.9996 13.4843V13.4843Z" fill="white"/>
<path d="M12.9996 11.2965C10.7898 11.2965 8.94904 11.7974 8.31836 11.9916V17.3047C8.95 17.4988 10.7948 18 12.9996 18C15.2093 18 17.0501 17.4991 17.6807 17.3049V11.9918C17.0491 11.7977 15.2044 11.2965 12.9996 11.2965V11.2965ZM13.3511 15.01V16.1638H12.648V15.01C12.1897 14.8614 11.8574 14.4305 11.8574 13.9234C11.8574 13.2935 12.3697 12.7812 12.9996 12.7812C13.6294 12.7812 14.1418 13.2935 14.1418 13.9234C14.1418 14.4305 13.8094 14.8614 13.3511 15.01Z" fill="white"/>
</svg>
