<svg xmlns="http://www.w3.org/2000/svg" xmlns:xlink="http://www.w3.org/1999/xlink" viewBox="0 0 222.42 49.59">
  <defs>
    <style>
      .cls-1 {
        fill: url(#linear-gradient);
      }

      .cls-2 {
        fill: #fff;
      }

      .cls-3 {
        fill: url(#linear-gradient-2);
      }

      .cls-4 {
        fill: url(#linear-gradient-3);
      }

      .cls-5 {
        fill: url(#linear-gradient-4);
      }
    </style>
    <linearGradient id="linear-gradient" x1="14.39" y1="17.78" x2="21.84" y2="45.08" gradientUnits="userSpaceOnUse">
      <stop offset="0" stop-color="#d715ff"/>
      <stop offset="1" stop-color="#3168ff"/>
    </linearGradient>
    <linearGradient id="linear-gradient-2" x1="50.41" y1="23.74" x2="56.35" y2="40.94" xlink:href="#linear-gradient"/>
    <linearGradient id="linear-gradient-3" x1="69.71" y1="17.07" x2="75.65" y2="34.27" xlink:href="#linear-gradient"/>
    <linearGradient id="linear-gradient-4" x1="85.87" y1="11.49" x2="91.81" y2="28.69" xlink:href="#linear-gradient"/>
  </defs>
  <g id="Layer_2" data-name="Layer 2">
    <g id="Layer_1-2" data-name="Layer 1">
      <g>
        <path class="cls-1" d="M35.18,20a1.12,1.12,0,0,0-.14-.57,1,1,0,0,0-.43-.4L18.21,9.59a1,1,0,0,0-1.06-.05l-.49.28V20.57h0v0h0v0h0v0h0v0h0v0h0v0h0v0h0v0h0v0l0,0h0v0h0v0l0,0h0l0,0,0,0h0l0,0h0l0,0,0,0h0l0,0,0,0h0l0,0v0h0l0,0v0h0l0,0v0h0l7.22,4.17v7.78l-6.75,3.9-6.75-3.9v-27c0-.48,0-.85-.52-1.15L1.52.18A1,1,0,0,0,0,1.11V39a1.12,1.12,0,0,0,.14.57,1,1,0,0,0,.41.4L17,49.43a1,1,0,0,0,.55.16,1.06,1.06,0,0,0,.5-.13l16.55-9.55a1,1,0,0,0,.48-.95V20ZM8.93,6.67V23.35l-6.84-4V2.72Zm-6.84,15,6.84,3.95V33.4l-6.84,4ZM16.66,46.91,3.07,39.06l6.85-4L16.66,39Zm2-26.89V12.1L32.23,20,25.38,23.9Zm0,26.87V39l6.75-3.9,6.85,3.95Zm14.58-9.54-6.85-4V25.62l6.85-3.95V37.35Z"/>
        <g>
          <g>
            <path class="cls-2" d="M104.62,21.36h16.92a2.9,2.9,0,0,1,1.67.5,4.47,4.47,0,0,1,1.25,1.24,6.25,6.25,0,0,1,.8,1.64,5.46,5.46,0,0,1,.28,1.67v3a4.32,4.32,0,0,1-.39,1.92,4,4,0,0,1-1.07,1.37,5,5,0,0,1-1.61.87,10.26,10.26,0,0,1-2,.47h-9.08V29.49h8.06a.44.44,0,0,0,.27-.14A1.69,1.69,0,0,0,120,29a3.84,3.84,0,0,0,.22-.39.67.67,0,0,0,.1-.28V26.79a.59.59,0,0,0-.11-.29,2.14,2.14,0,0,0-.6-.6.59.59,0,0,0-.29-.11h-9.17V37.07h-5.54Z"/>
            <path class="cls-2" d="M127.25,32.05V21.36h5.83V32.17a1.84,1.84,0,0,0,.08.38c0,.12.16.19.37.19H147v4.33H131.51a3.37,3.37,0,0,1-1.75-.47,5,5,0,0,1-1.34-1.2,5.54,5.54,0,0,1-.86-1.61A5.16,5.16,0,0,1,127.25,32.05Z"/>
            <path class="cls-2" d="M158.85,37.09h-6.26l-2-3.64h-.19l-2.23,3.62H134.81l9.65-15.71h5.38Zm-8.68-4.45L147.42,28a.24.24,0,0,0-.19-.21l-.12,0-.09,0-2.94,4.83Z"/>
            <path class="cls-2" d="M179.43,21.36V37.07h-8.27l-7.77-9.19v9.19h-5.52V21.36h8.27l7.77,9.19V21.36Z"/>
            <path class="cls-2" d="M187,31.41v1.33h14v4.33H181.14V26.41a5.31,5.31,0,0,1,.31-1.76,5.47,5.47,0,0,1,.86-1.62,5,5,0,0,1,1.34-1.2,3.37,3.37,0,0,1,1.75-.47h15.53V25.7H187.42c-.22,0-.34.06-.36.17s0,.31-.07.56v.62h9.65v4.36Z"/>
            <path class="cls-2" d="M207.33,32.05V25.7h-4.7V21.36h19.79V25.7h-9.29v6.47a3,3,0,0,0,.09.38c0,.12.16.19.36.19h4.84v4.33h-6.85a3.41,3.41,0,0,1-1.76-.47,4.92,4.92,0,0,1-1.33-1.2,5.31,5.31,0,0,1-.86-1.61A5.67,5.67,0,0,1,207.33,32.05Z"/>
          </g>
          <g>
            <path class="cls-3" d="M58.41,21.34a4.08,4.08,0,0,1,1.65.32,3.67,3.67,0,0,1,1.21.85A3.6,3.6,0,0,1,62,23.75a4.26,4.26,0,0,1,.25,1.48,6.4,6.4,0,0,1-.13,1.43,2.93,2.93,0,0,1-.67,1.22,2.41,2.41,0,0,1,1.35.67,4.69,4.69,0,0,1,.93,1.24,5.86,5.86,0,0,1,.54,1.39,4.9,4.9,0,0,1,.16,1.09,5,5,0,0,1-.29,1.62,6,6,0,0,1-.83,1.56A4.7,4.7,0,0,1,62,36.61a3.19,3.19,0,0,1-1.67.45H43.43V21.34ZM58.2,31.39H50.3v-.07h0V27.05h5.78c.4-.25.6-.48.6-.68a.6.6,0,0,0-.2-.43.62.62,0,0,0-.42-.19H49v6.88h9.17a.45.45,0,0,0,.38-.18.68.68,0,0,0,.14-.42.85.85,0,0,0-.14-.35A.6.6,0,0,0,58.2,31.39Z"/>
            <path class="cls-4" d="M64,26.39a5.26,5.26,0,0,1,.31-1.75A5.52,5.52,0,0,1,65.16,23a5.11,5.11,0,0,1,1.34-1.2,3.41,3.41,0,0,1,1.76-.47H79.54a3.38,3.38,0,0,1,1.76.47A5,5,0,0,1,82.64,23a5.84,5.84,0,0,1,1.15,3.38V32a5.71,5.71,0,0,1-1.15,3.36,5,5,0,0,1-1.34,1.2,3.38,3.38,0,0,1-1.76.47H68.26a3.41,3.41,0,0,1-1.76-.47,5.11,5.11,0,0,1-1.34-1.2,5.54,5.54,0,0,1-.86-1.61A5.26,5.26,0,0,1,64,32Zm6.28-.71c-.22,0-.34.05-.38.17a2,2,0,0,0,0,.49v5.93a1,1,0,0,0,0,.32c0,.09.16.13.38.13h7.26c.22,0,.35,0,.38-.13a1,1,0,0,0,0-.32V26.34a1.93,1.93,0,0,0,0-.49c0-.12-.16-.17-.38-.17Z"/>
            <path class="cls-5" d="M80.12,21.34h19.8v4.34h-7V37.06H87.4V25.68H80.12Z"/>
          </g>
        </g>
      </g>
    </g>
  </g>
</svg>
