<svg width="14" height="14" viewBox="0 0 14 14" fill="none" xmlns="http://www.w3.org/2000/svg">
<path d="M7.79545 3.65909C7.79545 3.21978 7.43931 2.86364 7 2.86364C6.56069 2.86364 6.20455 3.21978 6.20455 3.65909C6.20455 4.0984 6.56069 4.45455 7 4.45455C7.43931 4.45455 7.79545 4.0984 7.79545 3.65909Z" fill="#C630F6"/>
<path d="M5.88636 5.72727C5.88636 5.37582 6.17127 5.09091 6.52273 5.09091H7.15909C7.51054 5.09091 7.79545 5.37582 7.79545 5.72727V9.54545H8.27273C8.62418 9.54545 8.90909 9.83036 8.90909 10.1818C8.90909 10.5333 8.62418 10.8182 8.27273 10.8182H6.04545C5.694 10.8182 5.40909 10.5333 5.40909 10.1818C5.40909 9.83036 5.694 9.54545 6.04545 9.54545H6.52273V6.36364C6.17127 6.36364 5.88636 6.07873 5.88636 5.72727Z" fill="#C630F6"/>
<path fill-rule="evenodd" clip-rule="evenodd" d="M7 0C5.06719 0 3.31632 0.784201 2.05025 2.05025C0.784208 3.31631 0 5.06719 0 7C0 8.93281 0.7842 10.6837 2.05025 11.9497C3.31632 13.2158 5.06719 14 7 14C8.93281 14 10.6837 13.2158 11.9497 11.9497C13.2158 10.6837 14 8.93281 14 7C14 5.06719 13.2158 3.31632 11.9497 2.05025C10.6837 0.784204 8.93281 0 7 0ZM2.9502 2.95021C3.98735 1.91308 5.4183 1.27273 7 1.27273C8.5817 1.27273 10.0126 1.91308 11.0498 2.95021C12.0869 3.98735 12.7273 5.4183 12.7273 7C12.7273 8.5817 12.0869 10.0126 11.0498 11.0498C10.0126 12.0869 8.5817 12.7273 7 12.7273C5.4183 12.7273 3.98735 12.0869 2.95021 11.0498C1.91308 10.0126 1.27273 8.5817 1.27273 7C1.27273 5.4183 1.91307 3.98736 2.9502 2.95021Z" fill="#C630F6"/>
</svg>
