<svg width="25" height="26" viewBox="0 0 25 26" fill="none" xmlns="http://www.w3.org/2000/svg">
<g clip-path="url(#clip0_2416_1618)">
<path d="M21.3736 10.5193C21.3822 10.4259 21.3566 10.324 21.3053 10.2305C21.254 10.1371 21.1771 10.0692 21.0832 10.0267L12.6762 5.20349C12.5224 5.0931 12.3088 5.07611 12.1294 5.17801L11.8817 5.32237V6.48573V8.64261V10.7995V10.808V10.825V10.8335V10.8419V10.8504V10.8589V10.8674V10.8759V10.8844V10.8929V10.9014V10.9099V10.9184V10.9269V10.9354V10.9439V10.9523V10.9608V10.9693V10.9778V10.9863V10.9948V11.0033V11.0118V11.0203L11.8902 11.0288V11.0373V11.0457V11.0542V11.0627V11.0712L11.8987 11.0797L11.9073 11.0882L11.9158 11.0967L11.9244 11.1052L11.9329 11.1137L11.95 11.1307L11.9585 11.1392L11.9671 11.1476L11.9756 11.1561L11.9842 11.1646L11.9927 11.1731L12.0013 11.1816H12.0098L12.0184 11.1901L12.0269 11.1986L12.0354 11.2071L12.044 11.2156L12.0525 11.2241L12.0611 11.2326L12.0696 11.2411L12.0782 11.2495L12.0867 11.258L12.0952 11.2665L15.7946 13.3894V17.3551L12.3345 19.3421C11.1811 18.6797 10.0277 18.0174 8.87429 17.3551V3.57309C8.87429 3.32683 8.87429 3.14002 8.60944 2.98717C7.1143 2.12951 5.61062 1.27185 4.11548 0.405702C3.69685 0.159444 3.30384 0.456652 3.33801 0.881235C3.33801 7.31791 3.33801 13.7461 3.33801 20.1828C3.32947 20.2762 3.3551 20.3781 3.40636 20.4715C3.45762 20.5649 3.53451 20.6328 3.61995 20.6753L12.044 25.507C12.1209 25.558 12.2234 25.592 12.3259 25.592C12.4199 25.592 12.5053 25.5665 12.5822 25.524L21.0661 20.6583C21.2455 20.5564 21.3309 20.3611 21.3138 20.1743V15.351V10.5193H21.3736ZM7.91741 3.71745V12.2176L4.40597 10.2051V1.70493L7.91741 3.71745ZM4.40597 11.3599L7.91741 13.3725V17.3381L4.40597 19.3506V11.3599ZM11.8817 24.2248L4.91004 20.2252L8.42148 18.2127C9.57487 18.8751 10.7283 19.5374 11.8817 20.1998V24.2248ZM12.8898 10.5193V6.48573L19.8614 10.4853L16.35 12.4978L12.8898 10.5193ZM12.8898 24.2163V20.1913L16.35 18.2042L19.8614 20.2167L12.8898 24.2163ZM20.3655 19.3506L16.8541 17.3381V13.3725L20.3655 11.3599V15.3595C20.3655 15.351 20.3655 18.1023 20.3655 19.3506Z" fill="url(#paint0_linear_2416_1618)"/>
</g>
<defs>
<linearGradient id="paint0_linear_2416_1618" x1="3.39754" y1="12.957" x2="21.3781" y2="12.957" gradientUnits="userSpaceOnUse">
<stop stop-color="#D715FF"/>
<stop offset="1" stop-color="#1A26FF"/>
</linearGradient>
<clipPath id="clip0_2416_1618">
<rect width="18.1125" height="25.3051" fill="white" transform="translate(3.33594 0.316406)"/>
</clipPath>
</defs>
</svg>
