<svg width="28" height="28" viewBox="0 0 28 28" fill="none" xmlns="http://www.w3.org/2000/svg">
<path d="M22.8748 16.3488C22.4498 16.6047 21.9539 16.6512 21.576 16.4419C21.1038 16.1628 20.8204 15.5349 20.8204 14.6744V12.0465C20.8204 10.7907 20.3245 9.88372 19.4744 9.65116C18.0339 9.23256 16.9477 10.9767 16.5463 11.6279L13.9959 15.6512V10.6977C13.9723 9.55814 13.5945 8.88372 12.8861 8.67442C12.4138 8.53489 11.7054 8.60465 11.0206 9.62791L5.32958 18.6046C4.57393 17.186 4.17249 15.6047 4.17249 14C4.17249 8.5814 8.58832 4.18604 13.9959 4.18604C19.4035 4.18604 23.8194 8.5814 23.8194 14V14.0233V14.0465C23.8666 15.093 23.536 15.9302 22.8748 16.3488ZM25.9919 14V13.9767V13.9535C25.9683 7.37209 20.5842 2 13.9959 2C7.384 2 2 7.37209 2 14C2 20.6047 7.384 26 13.9959 26C17.0421 26 19.9231 24.8605 22.1428 22.7907C22.5914 22.3721 22.6151 21.6977 22.19 21.2558C21.7886 20.814 21.1038 20.7907 20.6551 21.186C20.6551 21.186 20.6551 21.186 20.6315 21.2093C18.8368 22.8837 16.4282 23.8372 13.9487 23.8372C11.0442 23.8372 8.44663 22.5814 6.65197 20.5814L11.7762 12.4884V16.2326C11.7762 18.0233 12.4846 18.6047 13.075 18.7674C13.6653 18.9302 14.5627 18.814 15.5308 17.3023L18.3409 12.814C18.4354 12.6744 18.5062 12.5349 18.6007 12.4419V14.7209C18.6007 16.3954 19.2855 17.7442 20.4662 18.3953C21.5288 19 22.8748 18.9302 23.9847 18.2558C25.3543 17.3721 26.0863 15.8372 25.9919 14Z" fill="white"/>
</svg>
