<svg width="28" height="28" viewBox="0 0 28 28" fill="none" xmlns="http://www.w3.org/2000/svg">
<path d="M27.9999 13.9382C28.0121 16.7072 27.2029 19.4176 25.6747 21.7266C24.1465 24.0357 21.9679 25.8397 19.4144 26.9106C16.8609 27.9815 14.0472 28.2711 11.3291 27.7428C8.61094 27.2146 6.11053 25.8922 4.14401 23.9428C2.17748 21.9934 0.833182 19.5047 0.2811 16.7913C-0.270983 14.078 -0.00604859 11.2618 1.0424 8.69901C2.09085 6.13621 3.87571 3.94187 6.17129 2.39348C8.46687 0.845091 11.1701 0.012199 13.939 0.000133105C17.6519 -0.0160461 21.2191 1.44332 23.856 4.0572C26.4929 6.67108 27.9835 10.2254 27.9999 13.9382Z" fill="#8DC63F"/>
<path d="M26.9485 13.9435C26.9602 16.5043 26.2121 19.0111 24.799 21.1469C23.3859 23.2826 21.3712 24.9513 19.0097 25.942C16.6482 26.9327 14.0459 27.2009 11.532 26.7126C9.0181 26.2243 6.70542 25.0016 4.88645 23.1989C3.06749 21.3963 1.82392 19.0947 1.31302 16.5853C0.802123 14.0759 1.04684 11.4713 2.01621 9.10096C2.98559 6.73062 4.6361 4.70097 6.759 3.26868C8.88191 1.83639 11.3819 1.06579 13.9427 1.05432C17.3765 1.03922 20.6757 2.38861 23.1147 4.80571C25.5536 7.22281 26.9327 10.5097 26.9485 13.9435V13.9435Z" fill="#F9E988"/>
<path d="M14.2373 1.89326C15.0604 1.74717 15.9028 1.74717 16.7259 1.89326C17.5569 2.02485 18.3603 2.294 19.1028 2.68964C19.8414 3.09544 20.4795 3.64631 21.1146 4.16268C21.7497 4.67906 22.3817 5.20761 22.9833 5.78587C23.5974 6.35512 24.1333 7.00328 24.5771 7.71341C25.0339 8.41791 25.4084 9.17257 25.693 9.96254C26.2337 11.5512 26.4214 13.2627 26.1515 14.895H26.0714C25.8005 13.2769 25.4333 11.7349 24.854 10.2679C24.5821 9.5292 24.2622 8.80906 23.8963 8.1121C23.5146 7.41504 23.0939 6.74001 22.6363 6.09022C22.171 5.43331 21.6006 4.8575 20.9482 4.38587C20.2908 3.91718 19.535 3.61384 18.8036 3.32573C18.0721 3.03761 17.3468 2.73935 16.5839 2.52022C15.821 2.30109 15.0459 2.13674 14.2363 1.97747L14.2373 1.89326Z" fill="white"/>
<path d="M20.568 9.37284C19.6286 9.10096 18.6546 8.71545 17.6686 8.32589C17.6117 8.07835 17.3926 7.76994 16.9493 7.39357C16.3051 6.83458 15.0948 6.84879 14.0488 7.09632C12.8944 6.82444 11.7541 6.72806 10.6594 6.99487C1.70653 9.4611 6.78305 15.4781 3.49609 21.5265C3.96377 22.5186 9.00479 28.3073 16.299 26.7541C16.299 26.7541 13.8044 20.7595 19.4338 17.8824C24 15.5399 27.2991 11.206 20.568 9.37284Z" fill="#8BC53F"/>
<path d="M21.6714 13.3102C21.672 13.4176 21.6408 13.5227 21.5817 13.6123C21.5225 13.7019 21.4381 13.7719 21.3392 13.8135C21.2403 13.8552 21.1312 13.8665 21.0258 13.8462C20.9204 13.8258 20.8234 13.7747 20.7471 13.6992C20.6707 13.6237 20.6185 13.5273 20.597 13.4221C20.5754 13.317 20.5856 13.2078 20.6261 13.1084C20.6666 13.009 20.7357 12.9238 20.8246 12.8637C20.9135 12.8035 21.0183 12.7711 21.1256 12.7705C21.2695 12.77 21.4077 12.8265 21.51 12.9276C21.6123 13.0288 21.6704 13.1664 21.6714 13.3102V13.3102Z" fill="white"/>
<path d="M14.0488 7.09247C14.7011 7.13914 17.0598 7.90406 17.6685 8.32203C17.1613 6.85102 15.4539 6.65522 14.0488 7.09247Z" fill="#009345"/>
<path d="M14.6696 10.8128C14.6698 11.3081 14.5232 11.7922 14.2482 12.2041C13.9732 12.616 13.5822 12.9371 13.1247 13.1267C12.6672 13.3164 12.1638 13.3661 11.678 13.2696C11.1923 13.1731 10.7461 12.9347 10.3958 12.5846C10.0455 12.2345 9.80698 11.7884 9.71029 11.3027C9.6136 10.8169 9.66313 10.3135 9.8526 9.85591C10.0421 9.39835 10.363 9.00725 10.7748 8.73209C11.1865 8.45693 11.6706 8.31006 12.1659 8.31006C12.4946 8.30993 12.8202 8.37456 13.124 8.50028C13.4277 8.62599 13.7037 8.81032 13.9362 9.04274C14.1688 9.27516 14.3532 9.5511 14.479 9.85482C14.6049 10.1585 14.6696 10.4841 14.6696 10.8128Z" fill="white"/>
<path d="M13.9266 10.8349C13.9266 11.1832 13.8233 11.5237 13.6298 11.8133C13.4363 12.103 13.1612 12.3287 12.8394 12.462C12.5176 12.5953 12.1635 12.6302 11.8219 12.5622C11.4802 12.4943 11.1664 12.3265 10.9201 12.0802C10.6738 11.8339 10.5061 11.5201 10.4381 11.1785C10.3702 10.8368 10.4051 10.4827 10.5384 10.1609C10.6717 9.83911 10.8974 9.56406 11.187 9.37054C11.4766 9.17702 11.8171 9.07373 12.1655 9.07373C12.6325 9.07373 13.0805 9.25928 13.4108 9.58956C13.7411 9.91984 13.9266 10.3678 13.9266 10.8349V10.8349Z" fill="#58595B"/>
<path d="M23.7013 14.4142C21.6723 15.8436 19.3653 16.9281 16.0926 16.9281C14.5607 16.9281 14.2503 15.3049 13.2378 16.0983C12.7153 16.5101 10.873 17.4313 9.41113 17.3613C7.94924 17.2913 5.57939 16.4341 4.91895 13.3135C4.65721 16.4341 4.5233 18.7329 3.35156 21.3675C5.6849 25.1039 11.2484 27.9861 16.2985 26.7443C15.7558 22.9552 19.0671 19.2442 20.9327 17.3451C21.6429 16.6258 22.9921 15.452 23.7013 14.4122V14.4142Z" fill="#8BC53F"/>
<path d="M23.6223 14.5075C22.9923 15.0817 22.2425 15.5068 21.4796 15.8822C20.7074 16.2488 19.9024 16.5419 19.0753 16.7577C18.2475 16.9717 17.3841 17.133 16.5096 17.0539C15.6352 16.9748 14.7414 16.6775 14.1621 16.0222L14.1895 15.9907C14.8996 16.4513 15.7194 16.6136 16.535 16.6369C17.3618 16.6621 18.1887 16.594 19.0002 16.434C19.82 16.2624 20.6219 16.0145 21.3954 15.6935C22.1695 15.3739 22.9354 15.0036 23.5949 14.4761L23.6223 14.5075Z" fill="#58595B"/>
</svg>
