<svg width="28" height="28" viewBox="0 0 28 28" fill="none" xmlns="http://www.w3.org/2000/svg">
<path fill-rule="evenodd" clip-rule="evenodd" d="M7.55724 5.10213C7.52261 3.53053 6.39875 2.3335 4.57376 2.3335C2.74878 2.3335 1.55566 3.53053 1.55566 5.10213C1.55566 6.64118 2.71351 7.87268 4.50451 7.87268H4.53861C6.39875 7.87268 7.55724 6.64118 7.55724 5.10213ZM7.20639 10.0604H1.87163V26.0892H7.20639V10.0604ZM20.3022 9.68406C23.8127 9.68406 26.4445 11.9755 26.4445 16.8988L26.4443 26.0892H21.1097V17.5138C21.1097 15.3598 20.3377 13.89 18.4065 13.89C16.9327 13.89 16.0548 14.8809 15.6693 15.8379C15.5282 16.1809 15.4936 16.6588 15.4936 17.1378V26.0896H10.1582C10.1582 26.0896 10.2285 11.5649 10.1582 10.0609H15.4936V12.3312C16.2016 11.2398 17.4698 9.68406 20.3022 9.68406Z" fill="white"/>
</svg>
