<svg width="28" height="28" viewBox="0 0 28 28" fill="none" xmlns="http://www.w3.org/2000/svg">
<path d="M3.32026 7.64599C3.35505 7.30228 3.22398 6.96255 2.96732 6.73122L0.352941 3.58178V3.11133H8.47059L14.7451 16.8721L20.2614 3.11133H28V3.58178L25.7647 5.72497C25.572 5.87186 25.4764 6.11329 25.5163 6.35224V22.0994C25.4764 22.3384 25.572 22.5798 25.7647 22.7267L27.9477 24.8699V25.3403H16.9673V24.8699L19.2288 22.6744C19.451 22.4523 19.451 22.3869 19.451 22.0472V9.31872L13.1634 25.2881H12.3137L4.99346 9.31872V20.0216C4.93243 20.4716 5.08188 20.9246 5.39869 21.25L8.33987 24.8176V25.2881H0V24.8176L2.94118 21.25C3.25569 20.924 3.39642 20.468 3.32026 20.0216V7.64599Z" fill="white"/>
</svg>
