<svg width="151" height="23" viewBox="0 0 151 23" fill="none" xmlns="http://www.w3.org/2000/svg">
<g clip-path="url(#clip0_2772_21275)">
<path d="M28.8346 17.7295C28.5674 17.7559 28.3001 17.6797 28.089 17.517C27.9388 17.3227 27.8674 17.0806 27.8887 16.8377V6.50637C27.8774 6.38472 27.8907 6.26209 27.9279 6.14551C27.9651 6.02893 28.0254 5.92071 28.1054 5.82705C28.2042 5.74135 28.3199 5.67653 28.4454 5.63664C28.5708 5.59676 28.7033 5.58267 28.8346 5.59525H33.295C34.9942 5.59525 36.2445 5.94618 37.046 6.64802C37.8474 7.34987 38.2481 8.3962 38.2481 9.78702C38.2481 11.1671 37.8474 12.2081 37.046 12.9099C36.2445 13.6118 34.9942 13.9573 33.295 13.9466H31.5641V16.8441C31.5854 17.0897 31.5076 17.3336 31.3473 17.5234C31.1361 17.6862 30.8689 17.7623 30.6017 17.7359L28.8346 17.7295ZM33.0027 11.3581C33.2114 11.3721 33.4209 11.3445 33.6185 11.277C33.816 11.2095 33.9976 11.1035 34.1523 10.9654C34.301 10.8078 34.4149 10.6218 34.4866 10.419C34.5584 10.2162 34.5866 10.001 34.5694 9.78702C34.5873 9.57052 34.5595 9.35272 34.4878 9.14722C34.416 8.94171 34.3018 8.75291 34.1523 8.59259C33.9972 8.45509 33.8155 8.34949 33.6181 8.28202C33.4206 8.21455 33.2114 8.1866 33.0027 8.19981H31.5641V11.3581H33.0027ZM42.5475 17.9967C42.0383 18.0187 41.5301 17.9349 41.0563 17.7506C40.5825 17.5664 40.1538 17.286 39.7984 16.9278C39.1174 16.2002 38.7769 15.1829 38.7769 13.8758C38.7641 12.9581 39.0096 12.0547 39.4864 11.2648C39.9601 10.514 40.6442 9.91276 41.4571 9.53268C42.3805 9.10488 43.392 8.89117 44.4132 8.9081C45.2381 8.90125 46.0598 9.00966 46.8536 9.23005C47.5501 9.40923 48.2146 9.6915 48.8243 10.0671V17.2047C48.835 17.2839 48.8292 17.3644 48.8072 17.4414C48.7852 17.5183 48.7474 17.59 48.6962 17.6522C48.5425 17.7402 48.364 17.7774 48.1871 17.7585H46.3313C46.2254 17.7649 46.1195 17.7462 46.0226 17.7037C45.9418 17.6516 45.878 17.5779 45.8387 17.4912L45.6022 16.9568C45.2518 17.3235 44.8138 17.599 44.3278 17.7585C43.7536 17.9412 43.1507 18.0219 42.5475 17.9967V17.9967ZM43.9139 15.5692C44.3136 15.593 44.7085 15.4728 45.0241 15.2312C45.1603 15.1098 45.267 14.96 45.3363 14.7928C45.4056 14.6257 45.4359 14.4454 45.4248 14.2653V11.4805C45.149 11.3652 44.8508 11.3103 44.5511 11.3195C44.26 11.3065 43.9697 11.3577 43.7014 11.4691C43.4332 11.5805 43.1938 11.7494 43.0008 11.9634C42.5926 12.5039 42.3946 13.1695 42.4424 13.8404C42.4424 14.9929 42.9285 15.5692 43.9139 15.5692V15.5692ZM51.3632 17.7295C51.095 17.7557 50.8268 17.6796 50.6144 17.517C50.4541 17.3272 50.3762 17.0832 50.3976 16.8377V9.71619C50.3794 9.56529 50.4179 9.41305 50.506 9.288C50.6543 9.18649 50.8354 9.14181 51.0151 9.16244H52.8906C53.0051 9.15499 53.1193 9.18074 53.219 9.23649C53.2614 9.25448 53.2976 9.28411 53.3233 9.32181C53.3489 9.35951 53.3629 9.40367 53.3635 9.44897L53.4555 9.98341C53.8335 9.62815 54.2881 9.36077 54.7857 9.20107C55.3797 8.98598 56.0082 8.87694 56.6415 8.87912C57.5146 8.84089 58.3691 9.13505 59.0261 9.70009C59.6337 10.2377 59.9359 11.033 59.9359 12.0922V16.8216C59.9573 17.0671 59.8794 17.3111 59.7191 17.5009C59.618 17.5819 59.5015 17.6424 59.3763 17.6789C59.2511 17.7154 59.1198 17.7271 58.9899 17.7134H57.2229C56.9508 17.7371 56.6794 17.6615 56.4608 17.5009C56.3801 17.4076 56.3191 17.2995 56.2813 17.1829C56.2435 17.0663 56.2298 16.9435 56.2408 16.8216V12.3143C56.268 12.0383 56.183 11.763 56.0043 11.5481C55.9016 11.4633 55.783 11.3992 55.655 11.3595C55.5271 11.3197 55.3924 11.305 55.2587 11.3163C54.9415 11.2998 54.6296 11.4009 54.385 11.5996C54.2763 11.7 54.1908 11.8221 54.1341 11.9575C54.0775 12.093 54.051 12.2388 54.0566 12.3851V16.8119C54.0779 17.0575 54.0001 17.3014 53.8398 17.4912C53.7387 17.5723 53.6221 17.6328 53.497 17.6692C53.3718 17.7057 53.2405 17.7174 53.1106 17.7037L51.3632 17.7295ZM66.3736 17.9967C64.6722 17.9967 63.3584 17.6104 62.4321 16.8377C61.5059 16.065 61.045 14.9403 61.0494 13.4637C61.0321 12.6249 61.2527 11.798 61.6866 11.0748C62.1228 10.371 62.7632 9.81056 63.5259 9.46507C64.4286 9.06372 65.4122 8.8678 66.4031 8.89201C67.1145 8.87753 67.8246 8.95548 68.5151 9.12381C69.0713 9.26669 69.5957 9.50899 70.0621 9.83853C70.1219 9.86968 70.172 9.91599 70.2072 9.97263C70.2425 10.0293 70.2616 10.0941 70.2625 10.1605C70.2472 10.2949 70.1975 10.4234 70.1179 10.5339L69.3756 11.8056C69.2902 11.973 69.1884 12.0535 69.0669 12.0535C68.9476 12.0323 68.8351 11.9837 68.7384 11.9119C68.4477 11.7273 68.1357 11.5771 67.8089 11.4644C67.4676 11.3616 67.1115 11.3138 66.7546 11.3227C66.4815 11.3117 66.2092 11.357 65.9551 11.4557C65.7011 11.5544 65.471 11.7043 65.2798 11.8958C64.895 12.3281 64.6981 12.8909 64.7313 13.4637C64.7121 13.7494 64.7522 14.036 64.8493 14.306C64.9465 14.5761 65.0985 14.824 65.2963 15.0348C65.5053 15.2196 65.7497 15.362 66.0152 15.4537C66.2807 15.5454 66.5622 15.5847 66.8433 15.5692C67.2026 15.5748 67.5602 15.5204 67.9009 15.4082C68.2372 15.2924 68.5607 15.1435 68.8665 14.964C68.9744 14.8903 69.0979 14.8419 69.2278 14.8223C69.3395 14.8223 69.4348 14.9028 69.5202 15.0702L70.338 16.4449C70.3902 16.5325 70.4216 16.6304 70.43 16.7314C70.4223 16.7955 70.3984 16.8568 70.3606 16.9096C70.3227 16.9624 70.2721 17.0052 70.2132 17.0341C69.6969 17.3577 69.1315 17.5989 68.5381 17.7488C67.8315 17.9279 67.1032 18.0113 66.3736 17.9967V17.9967ZM75.0316 17.9967C74.5224 18.0187 74.0142 17.9349 73.5404 17.7506C73.0665 17.5664 72.6378 17.286 72.2824 16.9278C71.6015 16.2002 71.261 15.1829 71.261 13.8758C71.239 12.955 71.479 12.0465 71.954 11.2519C72.427 10.5006 73.1114 9.89912 73.9247 9.5198C74.848 9.09168 75.8596 8.87795 76.8808 8.89522C77.7047 8.88838 78.5253 8.99678 79.3179 9.21717C80.0143 9.39664 80.6789 9.67889 81.2887 10.0542V17.1918C81.2994 17.271 81.2935 17.3516 81.2715 17.4285C81.2495 17.5054 81.2118 17.5772 81.1606 17.6393C81.0068 17.7273 80.8284 17.7645 80.6515 17.7456H78.7957C78.6833 17.7543 78.5704 17.7355 78.4672 17.6909C78.3884 17.6375 78.3259 17.564 78.2866 17.4784L78.0501 16.9439C77.6992 17.31 77.2614 17.5854 76.7757 17.7456C76.2138 17.9285 75.6235 18.0135 75.0316 17.9967V17.9967ZM76.3947 15.5692C76.7944 15.593 77.1892 15.4728 77.5049 15.2312C77.6418 15.1103 77.749 14.9607 77.8184 14.7934C77.8878 14.6261 77.9176 14.4455 77.9056 14.2653V11.4805C77.6299 11.3646 77.3316 11.3096 77.0319 11.3195C76.7413 11.3066 76.4515 11.3577 76.1837 11.4691C75.916 11.5806 75.6772 11.7495 75.4849 11.9634C75.0788 12.4979 74.8787 13.1559 74.9199 13.821C74.9199 14.9865 75.4115 15.5692 76.3947 15.5692V15.5692ZM92.7484 17.0502C92.8307 17.138 92.8764 17.2529 92.8765 17.3721C92.8781 17.4219 92.869 17.4714 92.8497 17.5174C92.8305 17.5634 92.8016 17.605 92.7648 17.6393C92.6831 17.7033 92.5802 17.7354 92.4758 17.7295H89.6544C89.5253 17.7332 89.3962 17.7213 89.2701 17.6941C89.1792 17.644 89.0989 17.5774 89.0336 17.4977L86.5571 14.1977V16.8377C86.5784 17.0832 86.5006 17.3272 86.3403 17.517C86.129 17.6794 85.8619 17.7555 85.5947 17.7295H83.8276C83.5604 17.7559 83.2931 17.6797 83.082 17.517C82.9318 17.3227 82.8604 17.0806 82.8817 16.8377V6.50637C82.8606 6.38063 82.8707 6.25177 82.9111 6.13065C82.9514 6.00954 83.0209 5.8997 83.1136 5.81039C83.2063 5.72109 83.3196 5.65493 83.4438 5.61749C83.5681 5.58005 83.6997 5.57242 83.8276 5.59525H85.5947C85.7285 5.58196 85.8637 5.59566 85.9919 5.63553C86.1202 5.6754 86.2387 5.74058 86.3403 5.82705C86.42 5.92022 86.4802 6.0279 86.5174 6.14392C86.5546 6.25994 86.5681 6.38202 86.5571 6.50315V12.4817L88.9613 9.41356C89.0205 9.32822 89.1022 9.26031 89.1978 9.21717C89.3201 9.17549 89.4494 9.15692 89.5788 9.16244H92.4035C92.4545 9.15862 92.5057 9.16653 92.5531 9.18553C92.6004 9.20453 92.6425 9.23411 92.6761 9.2719C92.7125 9.3022 92.7413 9.34035 92.7601 9.38336C92.7789 9.42638 92.7873 9.47308 92.7845 9.5198C92.7844 9.63905 92.7387 9.75393 92.6564 9.84175L89.5427 13.3413L92.7484 17.0502ZM98.6606 17.9967C97.7245 18.0139 96.7948 17.8441 95.9278 17.4977C95.1672 17.1868 94.5155 16.6655 94.0524 15.9974C93.5747 15.2704 93.3342 14.4181 93.3626 13.5538C93.3626 12.0514 93.8006 10.8977 94.6764 10.0929C95.5523 9.288 96.8081 8.88878 98.4438 8.89522C100.047 8.89522 101.261 9.288 102.086 10.0736C102.912 10.8591 103.33 11.9323 103.341 13.293C103.341 13.8886 103.075 14.1881 102.54 14.1881H96.8245C96.8132 14.416 96.8605 14.643 96.9621 14.8484C97.0637 15.0537 97.2163 15.2307 97.4059 15.3632C97.9516 15.6738 98.5795 15.8173 99.2091 15.7753C99.6256 15.784 100.042 15.7418 100.447 15.6497C100.801 15.5497 101.142 15.4126 101.466 15.2408C101.558 15.196 101.656 15.1656 101.758 15.1507C101.866 15.1507 101.958 15.2215 102.03 15.3632L102.651 16.5061C102.699 16.5884 102.729 16.6793 102.74 16.7733C102.735 16.8408 102.713 16.906 102.675 16.9624C102.637 17.0189 102.585 17.0646 102.523 17.0952C102.004 17.4228 101.431 17.6582 100.828 17.7907C100.116 17.9385 99.3887 18.0076 98.6606 17.9967V17.9967ZM100.063 12.4302C100.075 12.237 100.046 12.0435 99.9766 11.8622C99.9076 11.6809 99.8005 11.5157 99.6624 11.3774C99.3266 11.104 98.8956 10.9689 98.4602 11.0008C98.0162 10.9703 97.5777 11.1113 97.2384 11.3935C97.0966 11.5266 96.986 11.6881 96.914 11.8671C96.842 12.046 96.8103 12.2381 96.8212 12.4302H100.063ZM109.588 17.9967C108.615 18.0021 107.645 17.9006 106.695 17.6941C105.911 17.5311 105.164 17.2288 104.491 16.8023C104.284 16.6703 104.182 16.5351 104.182 16.3902C104.187 16.2811 104.225 16.1758 104.29 16.0875L105.184 14.6967C105.279 14.5519 105.377 14.481 105.476 14.481C105.587 14.5007 105.692 14.5435 105.785 14.6066C106.267 14.8696 106.78 15.0739 107.312 15.2151C107.864 15.3669 108.434 15.4449 109.007 15.4469C109.441 15.477 109.875 15.3902 110.262 15.1958C110.4 15.1126 110.512 14.9939 110.586 14.8525C110.66 14.7112 110.693 14.5526 110.682 14.3941C110.686 14.2273 110.647 14.0623 110.567 13.915C110.487 13.7677 110.369 13.6433 110.225 13.5538C109.707 13.242 109.157 12.9851 108.583 12.7876C107.547 12.4358 106.575 11.9227 105.706 11.268C105.369 10.9819 105.102 10.6248 104.926 10.2233C104.749 9.82191 104.668 9.38658 104.688 8.94995C104.658 8.43109 104.76 7.91311 104.986 7.4427C105.211 6.97228 105.552 6.56421 105.979 6.25525C106.843 5.63711 107.991 5.32803 109.421 5.32803C110.278 5.31182 111.135 5.4016 111.97 5.59525C112.624 5.73487 113.242 6.00202 113.789 6.38081C113.996 6.53534 114.098 6.677 114.098 6.809C114.091 6.91178 114.053 7.01026 113.99 7.09231L113.099 8.48635C112.988 8.628 112.892 8.69883 112.807 8.69883C112.696 8.68032 112.59 8.63739 112.498 8.57327C111.747 8.11013 110.873 7.87491 109.986 7.89718C109.57 7.87411 109.155 7.95966 108.784 8.14508C108.644 8.2314 108.531 8.3535 108.457 8.49819C108.383 8.64287 108.35 8.80465 108.363 8.96605C108.352 9.20002 108.431 9.42954 108.583 9.60995C108.748 9.79242 108.945 9.94406 109.165 10.0575C109.421 10.1766 109.821 10.3311 110.331 10.5211L110.659 10.6434C111.394 10.9109 112.101 11.2461 112.771 11.6447C113.262 11.9241 113.67 12.3234 113.957 12.8037C114.241 13.3303 114.379 13.921 114.357 14.5164C114.374 15.0037 114.272 15.4878 114.06 15.9286C113.847 16.3693 113.53 16.7539 113.136 17.0502C112.33 17.6812 111.144 17.9967 109.578 17.9967H109.588ZM118.227 17.7295C118.082 17.7385 117.937 17.7073 117.809 17.6393C117.692 17.5522 117.613 17.4243 117.589 17.282L115.241 9.57453C115.222 9.52272 115.209 9.46857 115.205 9.41356C115.205 9.24615 115.326 9.16244 115.569 9.16244H117.974C118.096 9.15346 118.217 9.18523 118.319 9.25259C118.359 9.28284 118.392 9.32066 118.417 9.36379C118.442 9.40693 118.457 9.4545 118.463 9.50371L119.448 13.5538L120.674 10.2989C120.712 10.1912 120.775 10.0933 120.857 10.0124C120.965 9.94193 121.094 9.91007 121.222 9.92224H122.368C122.485 9.91151 122.602 9.94362 122.697 10.0124C122.792 10.0866 122.862 10.1861 122.9 10.2989L124.119 13.5635L125.104 9.51336C125.126 9.41726 125.176 9.3297 125.249 9.26224C125.343 9.19263 125.46 9.16042 125.577 9.1721H127.998C128.241 9.1721 128.363 9.25581 128.363 9.42322C128.358 9.47823 128.346 9.53238 128.327 9.58419L125.958 17.2916C125.934 17.433 125.857 17.5605 125.742 17.649C125.621 17.7185 125.481 17.7499 125.341 17.7391H123.557C123.423 17.7485 123.289 17.717 123.173 17.649C123.07 17.5499 122.995 17.427 122.953 17.2916L121.754 14.0722L120.552 17.2916C120.521 17.4314 120.444 17.5571 120.332 17.649C120.217 17.7164 120.084 17.7478 119.951 17.7391L118.227 17.7295ZM133.007 17.9967C132.498 18.0187 131.99 17.9349 131.516 17.7506C131.042 17.5664 130.613 17.286 130.258 16.9278C129.577 16.2002 129.236 15.1829 129.236 13.8758C129.216 12.9552 129.456 12.0472 129.929 11.2519C130.403 10.5012 131.087 9.89989 131.9 9.5198C132.823 9.09201 133.835 8.8783 134.856 8.89522C135.681 8.88838 136.503 8.99678 137.297 9.21717C137.993 9.39636 138.658 9.67863 139.267 10.0542V17.1918C139.278 17.271 139.272 17.3516 139.25 17.4285C139.228 17.5054 139.19 17.5772 139.139 17.6393C138.985 17.7273 138.807 17.7645 138.63 17.7456H136.774C136.668 17.7521 136.562 17.7333 136.466 17.6909C136.385 17.6387 136.321 17.565 136.282 17.4784L136.045 16.9439C135.695 17.3106 135.257 17.5861 134.771 17.7456C134.204 17.9304 133.608 18.0154 133.01 17.9967H133.007ZM134.373 15.5692C134.773 15.593 135.168 15.4728 135.484 15.2312C135.62 15.1098 135.726 14.96 135.796 14.7928C135.865 14.6257 135.895 14.4454 135.884 14.2653V11.4805C135.608 11.3652 135.31 11.3103 135.011 11.3195C134.719 11.3065 134.429 11.3577 134.161 11.4691C133.893 11.5805 133.653 11.7494 133.46 11.9634C133.051 12.5035 132.852 13.1691 132.899 13.8404C132.899 14.9929 133.391 15.5692 134.377 15.5692H134.373ZM141.803 21.3353C141.535 21.3625 141.267 21.285 141.057 21.1196C140.906 20.927 140.835 20.6856 140.857 20.4435V10.2152C141.487 9.79565 142.181 9.47721 142.913 9.2719C143.75 9.0193 144.622 8.89231 145.498 8.89522C149.164 8.89522 150.996 10.418 150.996 13.4637C150.996 14.8438 150.609 15.9448 149.834 16.7669C149.059 17.5889 147.964 17.9989 146.549 17.9967C146.156 17.997 145.764 17.9494 145.383 17.855C145.059 17.7763 144.751 17.6434 144.473 17.4623V20.4435C144.484 20.5646 144.471 20.6867 144.434 20.8027C144.396 20.9188 144.336 21.0264 144.257 21.1196C144.047 21.285 143.779 21.3625 143.511 21.3353H141.803ZM145.744 15.5885C145.973 15.6011 146.2 15.5552 146.405 15.4553C146.609 15.3553 146.783 15.2049 146.91 15.0187C147.199 14.545 147.338 13.9985 147.311 13.4476C147.311 12.6749 147.153 12.1308 146.838 11.8217C146.648 11.6494 146.423 11.5178 146.179 11.4352C145.934 11.3526 145.674 11.3209 145.416 11.342C145.08 11.3269 144.744 11.3818 144.431 11.503V14.3394C144.419 14.509 144.443 14.6792 144.503 14.8389C144.562 14.9986 144.655 15.1443 144.775 15.2666C144.909 15.3813 145.065 15.4688 145.234 15.524C145.402 15.5793 145.58 15.6012 145.758 15.5885H145.744Z" fill="white"/>
<path fill-rule="evenodd" clip-rule="evenodd" d="M11.1777 23.0002C7.72895 23.0002 4.93709 22.1857 3.00907 20.7465C2.06467 20.0597 1.29968 19.1633 0.776731 18.1309C0.253785 17.0984 -0.0122446 15.9592 0.000432737 14.8066C-0.00460398 13.8623 0.189767 12.9272 0.571317 12.0601C0.952868 11.1929 1.51334 10.4126 2.21749 9.76811C2.99642 9.04649 3.89071 8.45485 4.86483 8.01671C4.70717 7.537 4.50682 6.90598 4.32617 6.25243C4.06317 5.39262 3.90442 4.50545 3.8532 3.60923C3.81766 2.72951 4.07345 1.86212 4.58236 1.13667C4.86596 0.772941 5.23434 0.481116 5.65664 0.285626C6.07895 0.0901363 6.5429 -0.00332344 7.00963 0.0130681C7.37959 0.00907098 7.74673 0.0766866 8.08998 0.212041C8.43323 0.347395 8.74584 0.547826 9.00991 0.801841C9.5058 1.30104 9.87486 1.90763 10.0872 2.57256C10.4885 3.89559 10.6943 5.26817 10.6982 6.64843H11.6835C11.6826 5.26852 11.885 3.89572 12.2846 2.57256C12.4958 1.90784 12.8637 1.30123 13.3586 0.801841C13.6233 0.547727 13.9365 0.34726 14.2803 0.211913C14.6241 0.0765665 14.9917 0.0089982 15.3622 0.0130681C15.8289 -0.00279011 16.2926 0.0909093 16.7148 0.286358C17.1371 0.481807 17.5055 0.77334 17.7895 1.13667C18.2984 1.86212 18.5542 2.72951 18.5186 3.60923C18.4662 4.50556 18.3064 5.39273 18.0424 6.25243C17.865 6.89632 17.6647 7.54022 17.5037 8.01671C18.4794 8.45388 19.3749 9.0456 20.1544 9.76811C20.8579 10.4129 21.4178 11.1934 21.7987 12.0604C22.1797 12.9275 22.3736 13.8625 22.3681 14.8066C22.3809 15.9585 22.1153 17.0969 21.5929 18.1288C21.0705 19.1607 20.3063 20.0566 19.3628 20.7433C17.4216 22.1985 14.6429 22.997 11.1941 22.997L11.1777 23.0002Z" fill="#633001"/>
<path d="M7.00892 0.84375C5.51774 0.84375 4.83127 1.94481 4.83127 3.47085C4.83127 4.68137 5.62942 7.10887 5.95459 8.05218C5.98995 8.15517 5.98338 8.26757 5.93626 8.36594C5.88914 8.4643 5.80511 8.54105 5.70168 8.58017C4.50611 9.047 0.978516 10.7565 0.978516 14.6682C0.978516 18.7924 4.56523 21.9024 11.177 21.9056H11.1934C17.8052 21.9056 21.3755 18.7924 21.3755 14.6682C21.3755 10.7565 17.8479 9.047 16.6523 8.58017C16.5499 8.53978 16.4669 8.46287 16.42 8.36491C16.373 8.26696 16.3657 8.15522 16.3994 8.05218C16.7279 7.10887 17.526 4.68137 17.526 3.47085C17.526 1.94481 16.8395 0.84375 15.3484 0.84375C13.2003 0.84375 12.6649 3.85719 12.6255 7.08955C12.6255 7.19287 12.5836 7.29195 12.5091 7.36501C12.4345 7.43807 12.3335 7.47911 12.2281 7.47911H10.1128C10.0083 7.47492 9.90952 7.43081 9.83771 7.35621C9.7659 7.28161 9.72671 7.18244 9.72851 7.07989C9.69238 3.86041 9.15701 0.84375 7.00892 0.84375Z" fill="#D1884F"/>
<path d="M11.1934 20.6016C6.33559 20.6016 0.988369 18.026 0.978516 14.6938V14.7099C0.978516 18.8341 4.57179 21.9473 11.1934 21.9473C17.815 21.9473 21.4215 18.818 21.4215 14.6938V14.6777C21.3985 18.026 16.0512 20.6016 11.1934 20.6016Z" fill="#FEDC90"/>
<path d="M8.49378 13.6537C8.49378 14.7773 7.95511 15.3664 7.29491 15.3664C6.63472 15.3664 6.09277 14.7773 6.09277 13.6537C6.09277 12.5301 6.6413 11.9409 7.2982 11.9409C7.95511 11.9409 8.49378 12.5269 8.49378 13.6537ZM16.2913 13.6537C16.2913 14.7773 15.7559 15.3664 15.0924 15.3664C14.4289 15.3664 13.8935 14.7773 13.8935 13.6537C13.8935 12.5301 14.4289 11.9409 15.0924 11.9409C15.7559 11.9409 16.2913 12.5269 16.2913 13.6537Z" fill="#633001"/>
</g>
<defs>
<clipPath id="clip0_2772_21275">
<rect width="151" height="23" fill="white"/>
</clipPath>
</defs>
</svg>
