<svg width="12" height="12" viewBox="0 0 12 12" fill="none" xmlns="http://www.w3.org/2000/svg">
<path d="M9.21437 6.85704H8.78575C8.72315 6.85704 8.67179 6.87709 8.63182 6.91739C8.59152 6.95745 8.57147 7.00879 8.57147 7.07132V9.21417C8.57147 9.50883 8.46663 9.76101 8.25683 9.97086C8.04702 10.1807 7.79474 10.2855 7.50008 10.2855H1.92854C1.63391 10.2855 1.38165 10.1807 1.1718 9.97086C0.961997 9.76103 0.857107 9.50885 0.857107 9.21417V3.64271C0.857107 3.34807 0.961973 3.09591 1.1718 2.88608C1.38165 2.67624 1.63391 2.57137 1.92854 2.57137H6.64281C6.70541 2.57137 6.75678 2.55122 6.79691 2.51109C6.83704 2.47091 6.85709 2.41962 6.85709 2.35706V1.92843C6.85709 1.86599 6.83704 1.8146 6.79691 1.7745C6.75678 1.73432 6.70541 1.71426 6.64281 1.71426H1.92854C1.39734 1.71426 0.943069 1.90289 0.565776 2.28011C0.188623 2.65731 0 3.11158 0 3.64278V9.21426C0 9.74544 0.188623 10.1998 0.565799 10.5769C0.943092 10.9541 1.39736 11.1428 1.92857 11.1428H7.50008C8.03126 11.1428 8.48558 10.9541 8.86283 10.5769C9.2401 10.1998 9.42872 9.74546 9.42872 9.21426V7.07148C9.42872 7.00888 9.40864 6.95752 9.36835 6.91739C9.32817 6.87709 9.2768 6.85704 9.21437 6.85704Z" fill="white"/>
<path d="M11.8728 0.984396C11.7879 0.89956 11.6874 0.857178 11.5714 0.857178H8.14281C8.02676 0.857178 7.92625 0.89956 7.84149 0.984396C7.75665 1.06918 7.71418 1.16964 7.71418 1.28572C7.71418 1.4018 7.75665 1.50228 7.84149 1.58711L9.02002 2.76566L4.65399 7.13178C4.60929 7.17642 4.58701 7.22778 4.58701 7.28572C4.58701 7.34386 4.60936 7.3952 4.65399 7.43984L5.4174 8.20315C5.46203 8.24778 5.5134 8.27004 5.57142 8.27004C5.62945 8.27004 5.68084 8.2478 5.72545 8.20315L10.0915 3.8371L11.2701 5.01565C11.3549 5.10049 11.4554 5.14292 11.5714 5.14292C11.6875 5.14292 11.788 5.10049 11.8729 5.01565C11.9577 4.93084 12.0001 4.83041 12.0001 4.71433V1.28572C12.0001 1.16957 11.9575 1.06918 11.8728 0.984396Z" fill="white"/>
</svg>
