<svg width="24" height="24" viewBox="0 0 24 24" fill="none" xmlns="http://www.w3.org/2000/svg">
<path d="M1.10587 9.33723L9.33675 1.10635C10.8073 -0.364227 13.1917 -0.364227 14.6623 1.10635L22.8932 9.33723C24.3638 10.8078 24.3638 13.1922 22.8932 14.6628L14.6623 22.8937C13.1917 24.3643 10.8073 24.3643 9.33675 22.8937L1.10587 14.6628C-0.364716 13.1922 -0.364716 10.8078 1.10587 9.33723Z" fill="#FCD600"/>
<path fill-rule="evenodd" clip-rule="evenodd" d="M10.0439 1.81346L1.81297 10.0443C0.732915 11.1244 0.732915 12.8756 1.81297 13.9557L10.0439 22.1866C11.1239 23.2666 12.8752 23.2666 13.9552 22.1866L22.1861 13.9557C23.2661 12.8756 23.2661 11.1244 22.1861 10.0443L13.9552 1.81346C12.8752 0.733404 11.1239 0.733404 10.0439 1.81346ZM9.33675 1.10635L1.10587 9.33723C-0.364716 10.8078 -0.364716 13.1922 1.10587 14.6628L9.33675 22.8937C10.8073 24.3643 13.1917 24.3643 14.6623 22.8937L22.8932 14.6628C24.3638 13.1922 24.3638 10.8078 22.8932 9.33723L14.6623 1.10635C13.1917 -0.364227 10.8073 -0.364227 9.33675 1.10635Z" fill="#212121"/>
<path d="M11.9992 6.72803C12.4151 6.72803 12.7523 7.06524 12.7523 7.48115V13.5062C12.7523 13.9221 12.4151 14.2593 11.9992 14.2593C11.5833 14.2593 11.2461 13.9221 11.2461 13.5062V7.48115C11.2461 7.06524 11.5833 6.72803 11.9992 6.72803Z" fill="#212121"/>
<path d="M11.2461 15.7656H12.7523V17.2719H11.2461V15.7656Z" fill="#212121"/>
</svg>
