<svg width="14" height="14" viewBox="0 0 14 14" fill="none" xmlns="http://www.w3.org/2000/svg">
<g opacity="0.5">
<path d="M13.125 10.5V11.5938C13.125 12.1971 12.6341 12.6875 12.0312 12.6875H2.625C1.65987 12.6875 0.875 11.9026 0.875 10.9375C0.875 10.9375 0.875 3.50656 0.875 3.5C0.875 2.53487 1.65987 1.75 2.625 1.75H10.7188C11.0814 1.75 11.375 2.044 11.375 2.40625C11.375 2.7685 11.0814 3.0625 10.7188 3.0625H2.625C2.38394 3.0625 2.1875 3.2585 2.1875 3.5C2.1875 3.7415 2.38394 3.9375 2.625 3.9375H12.0312C12.6341 3.9375 13.125 4.42794 13.125 5.03125V6.125H10.9375C9.73131 6.125 8.75 7.10631 8.75 8.3125C8.75 9.51869 9.73131 10.5 10.9375 10.5H13.125Z" fill="#FFFFFF"/>
<path d="M13.125 7V9.625H10.9375C10.2126 9.625 9.625 9.03744 9.625 8.3125C9.625 7.58756 10.2126 7 10.9375 7H13.125Z" fill="#FFFFFF"/>
</g>
</svg>
