<svg width="348" height="220" viewBox="0 0 348 220" fill="none" xmlns="http://www.w3.org/2000/svg">
<path fill-rule="evenodd" clip-rule="evenodd" d="M156.098 -218.959C156.293 -218.808 156.49 -218.657 156.689 -218.504C166.213 -211.176 179.961 -200.597 155.814 -182.05C135.338 -166.358 119.192 -145.787 108.885 -122.148L108.77 -121.891C90.1128 -78.916 92.5752 -29.7702 114.95 11.4334C143.867 64.8701 114.234 78.5807 93.0336 88.3897C90.7764 89.434 88.6148 90.4341 86.6297 91.4332C81.7288 93.9538 77.3607 96.9872 73.146 100.326C36.0381 130.04 37.837 190.807 39.3098 215.389C40.7826 239.971 43.9715 282.925 66.7202 312.038C89.469 341.151 140.97 360.622 193.106 358.449C163.037 345.696 110.739 313.325 100.534 279.785L89.1603 242.302C72.9812 189.085 87.849 139.382 124.957 109.669C129.172 106.33 133.54 103.296 138.441 100.776C140.426 99.7766 142.587 98.7765 144.845 97.7322C166.045 87.9232 195.678 74.2126 166.761 20.7759C144.386 -20.4277 141.924 -69.5735 160.581 -112.549L160.696 -112.806C171.003 -136.445 187.148 -157.016 207.624 -172.707C231.772 -191.254 218.023 -201.833 208.5 -209.161C208.301 -209.314 208.104 -209.466 207.909 -209.616L156.098 -218.959Z" fill="url(#paint0_linear)"/>
<mask id="mask0" mask-type="alpha" maskUnits="userSpaceOnUse" x="13" y="-225" width="424" height="675">
<path d="M177.378 -214.633L176.55 -215.271L436.116 -168.467L324.613 449.9L274.444 440.854C275.704 432.544 276.242 425.683 275.904 421.04C275.161 410.137 272.334 401.152 267.999 393.214C266.646 390.772 265.335 388.31 264.033 385.866C254.143 367.292 244.807 349.76 221.705 350.198C213.266 350.914 209.52 351.702 206.445 352.349L206.408 352.357L205.655 352.515C146.396 364.826 87.036 332.237 69.4127 274.313L58.039 236.83C41.8595 183.613 56.7279 133.91 93.8352 104.197C98.0501 100.858 102.418 97.8243 107.319 95.3037C109.304 94.3049 111.465 93.305 113.722 92.2609C134.923 82.4512 164.557 68.7406 135.64 15.3039C113.265 -25.8997 110.802 -75.0455 129.459 -118.021L129.575 -118.278C139.882 -141.917 156.027 -162.488 176.503 -178.179C200.65 -196.726 186.902 -207.305 177.378 -214.633Z" fill="#FF1515"/>
</mask>
<g mask="url(#mask0)">
<path fill-rule="evenodd" clip-rule="evenodd" d="M444.455 -213.508L444.56 -212.352L325.126 449.995L274.955 440.948C276.215 432.638 276.754 425.777 276.416 421.135C275.672 410.232 272.846 401.246 268.511 393.309C267.158 390.868 265.848 388.407 264.547 385.964L264.546 385.963L264.545 385.96C254.654 367.387 245.318 349.854 222.216 350.293C213.779 351.008 210.031 351.797 206.957 352.444L206.951 352.445C206.686 352.501 206.425 352.556 206.166 352.61C146.908 364.92 87.5474 332.332 69.9244 274.408L58.5503 236.925C42.3713 183.708 57.2391 134.005 94.3469 104.291C98.5617 100.952 102.93 97.9189 107.831 95.3984C109.814 94.4003 111.973 93.4014 114.227 92.3582L114.233 92.3556L114.235 92.3547C135.435 82.5458 165.068 68.8352 136.151 15.3985C113.776 -25.8051 111.314 -74.9509 129.971 -117.926L130.086 -118.183C140.393 -141.822 156.539 -162.393 177.015 -178.084C201.162 -196.632 187.414 -207.21 177.89 -214.539C172.592 -218.615 168.601 -221.685 173.168 -224.562C178.461 -227.909 186.151 -228.939 193.691 -229.949C205.03 -231.468 216.03 -232.942 218.029 -242.178C219.495 -248.783 213.138 -247.97 205.83 -247.035C198.353 -246.079 189.881 -244.996 187.769 -251.595C186.794 -254.639 185.555 -257.617 184.065 -260.461L444.455 -213.508Z" fill="#F9F9F9"/>
<path fill-rule="evenodd" clip-rule="evenodd" d="M444.455 -213.508L444.56 -212.352L325.126 449.995L274.955 440.948C276.215 432.638 276.754 425.777 276.416 421.135C275.672 410.232 272.846 401.246 268.511 393.309C267.158 390.868 265.848 388.407 264.547 385.964L264.546 385.963L264.545 385.96C254.654 367.387 245.318 349.854 222.216 350.293C213.779 351.008 210.031 351.797 206.957 352.444L206.951 352.445C206.686 352.501 206.425 352.556 206.166 352.61C146.908 364.92 87.5474 332.332 69.9244 274.408L58.5503 236.925C42.3713 183.708 57.2391 134.005 94.3469 104.291C98.5617 100.952 102.93 97.9189 107.831 95.3984C109.814 94.4003 111.973 93.4014 114.227 92.3582L114.233 92.3556L114.235 92.3547C135.435 82.5458 165.068 68.8352 136.151 15.3985C113.776 -25.8051 111.314 -74.9509 129.971 -117.926L130.086 -118.183C140.393 -141.822 156.539 -162.393 177.015 -178.084C201.162 -196.632 187.414 -207.21 177.89 -214.539C172.592 -218.615 168.601 -221.685 173.168 -224.562C178.461 -227.909 186.151 -228.939 193.691 -229.949C205.03 -231.468 216.03 -232.942 218.029 -242.178C219.495 -248.783 213.138 -247.97 205.83 -247.035C198.353 -246.079 189.881 -244.996 187.769 -251.595C186.794 -254.639 185.555 -257.617 184.065 -260.461L444.455 -213.508Z" fill="url(#paint1_radial)"/>
<path d="M2.08594 -293.526L444.856 -213.686L325.212 449.83L-117.559 369.99L2.08594 -293.526Z" fill="url(#paint2_linear)"/>
<path opacity="0.2" d="M250.309 -148.726C255.821 -129.872 261.054 -110.698 268.827 -93.0245C281.974 -62.8003 302.869 -36.0634 329.104 -16.3729C355.794 3.82683 387.367 16.4709 416.661 32.6409L397.391 107.395C369.588 76.3311 333.546 52.9371 303.197 24.1552C259.98 -16.9543 228.702 -68.6977 198.015 -119.701C188.573 -135.454 178.907 -151.853 171.957 -168.923L250.309 -148.726ZM308.999 211.929C285.292 198.375 266.652 177.312 250.823 155.211C229.081 124.926 211.092 90.7114 207.143 53.6521C205.218 34.5478 206.928 15.0092 202.565 -3.74441C197.225 -27.0591 182.261 -47.9578 161.762 -60.2934C147.58 -69.0421 131.16 -73.6666 118.28 -84.4302C108.14 -92.9203 101.149 -104.516 94.7559 -116.154C82.9227 -137.812 72.8417 -160.195 64.3292 -183.348C62.6183 -188.098 60.9076 -192.848 59.2441 -197.782L-76.542 -232.785C-68.6624 -198.826 -41.6999 -172.092 -14.3823 -149.772C14.3974 -126.291 46.2668 -104.169 64.268 -71.5182C90.3375 -23.8598 81.3484 34.5447 90.2291 88.1535C102.188 160.185 147.495 210.647 201.112 256.201L349.559 294.467L367.314 225.59C347.308 227.289 326.573 221.944 308.999 211.929Z" fill="url(#paint3_linear)"/>
<path opacity="0.4" d="M68.498 123.138C59.0254 129.71 56.7052 142.577 63.2858 152.043C69.8665 161.51 82.7464 163.832 92.2189 157.26C101.691 150.689 104.012 137.821 97.4311 128.355C91.0371 118.923 77.9705 116.566 68.498 123.138Z" fill="url(#paint4_linear)"/>
<path opacity="0.4" d="M342.359 -12.4277C332.887 -5.85616 330.566 7.01135 337.147 16.4776C343.728 25.9438 356.608 28.2663 366.08 21.6948C375.553 15.1232 377.873 2.25573 371.292 -7.21051C364.678 -16.4903 351.798 -18.8128 342.359 -12.4277Z" fill="url(#paint5_linear)"/>
<path d="M98.2887 192.543L99.6359 196.829C100.147 198.269 101.065 199.59 102.051 200.538L105.414 203.262C105.601 203.296 105.534 203.669 105.347 203.635L101.244 205.014C99.8026 205.524 98.4809 206.441 97.6855 207.645L94.926 211.191C94.8924 211.378 94.5191 211.31 94.5527 211.124L93.2055 206.838C92.6943 205.397 91.776 204.077 90.7906 203.129L87.4271 200.404C87.2405 200.37 87.3077 199.998 87.4944 200.031L91.5976 198.653C93.0388 198.143 94.3605 197.226 95.1559 196.021L97.9154 192.475C97.949 192.289 98.1357 192.322 98.2887 192.543Z" fill="#EFEFEF"/>
<path d="M216.049 88.7232L217.396 93.0097C217.907 94.4497 218.825 95.7706 219.998 96.7521L223.548 99.5103C223.734 99.544 223.667 99.917 223.48 99.8833L219.191 101.228C217.749 101.738 216.428 102.655 215.446 103.826L212.686 107.372C212.652 107.558 212.279 107.491 212.313 107.304L210.966 103.018C210.454 101.578 209.536 100.257 208.364 99.2756L204.814 96.5174C204.627 96.4837 204.694 96.1108 204.881 96.1444L209.171 94.7999C210.612 94.2896 211.934 93.3726 212.916 92.2019L215.675 88.6559C215.896 88.5031 216.082 88.5367 216.049 88.7232Z" fill="#EFEFEF"/>
<path d="M157.995 -9.33525L158.856 -6.5927C159.182 -5.67135 159.769 -4.82629 160.518 -4.19837L162.788 -2.43391C162.907 -2.4124 162.864 -2.17375 162.745 -2.19526L160.002 -1.33454C159.081 -1.00785 158.236 -0.420975 157.608 0.328244L155.843 2.5974C155.822 2.71673 155.583 2.6737 155.605 2.55437L154.744 -0.188162C154.417 -1.10951 153.83 -1.95459 153.081 -2.58251L150.812 -4.34695C150.693 -4.36846 150.736 -4.60711 150.855 -4.58559L153.598 -5.44634C154.519 -5.77303 155.364 -6.35989 155.992 -7.1091L157.756 -9.37828C157.897 -9.47609 158.016 -9.45458 157.995 -9.33525Z" fill="#EFEFEF"/>
<path d="M188.375 50.3188L188.852 51.9453C188.938 52.5384 189.431 53.0124 189.771 53.2662L191.13 54.2814L191.096 54.4679L189.468 54.9446C188.874 55.0301 188.4 55.5222 188.146 55.8615L187.131 57.2188L186.944 57.1851L186.466 55.5586C186.38 54.9655 185.888 54.4915 185.548 54.2377L184.189 53.2225L184.223 53.036L185.851 52.5593C186.444 52.4738 186.919 51.9817 187.172 51.6424L188.375 50.3188Z" fill="#EFEFEF"/>
<path d="M144.58 117.375L145.602 120.255C145.994 121.288 146.606 122.169 147.439 122.897L149.783 124.86C149.97 124.893 149.936 125.08 149.749 125.046L146.867 126.067C145.833 126.458 144.952 127.069 144.223 127.901L142.259 130.242C142.226 130.429 142.039 130.395 142.073 130.209L141.05 127.328C140.658 126.295 140.046 125.415 139.214 124.687L136.869 122.724C136.683 122.69 136.716 122.504 136.903 122.537L139.785 121.517C140.819 121.125 141.701 120.514 142.429 119.683L144.393 117.341C144.393 117.341 144.393 117.341 144.58 117.375Z" fill="#EFEFEF"/>
<path d="M94.295 149.847C94.0932 150.966 92.9918 151.73 91.8718 151.528C90.7518 151.326 89.9866 150.225 90.1883 149.106C90.3901 147.987 91.4916 147.223 92.6116 147.425C93.7652 147.441 94.5304 148.541 94.295 149.847Z" fill="#EFEFEF"/>
<path d="M275.307 200.971C275.105 202.09 274.004 202.854 272.884 202.652C271.764 202.45 270.999 201.35 271.2 200.231C271.402 199.112 272.504 198.348 273.624 198.55C274.744 198.752 275.509 199.852 275.307 200.971Z" fill="#EFEFEF"/>
<path d="M270.303 118.621C270.101 119.74 269 120.504 267.88 120.302C266.76 120.1 265.995 118.999 266.197 117.88C266.398 116.762 267.5 115.997 268.62 116.199C269.74 116.401 270.505 117.502 270.303 118.621Z" fill="#EFEFEF"/>
<path d="M264.392 39.1871C264.804 39.2614 265.199 38.9877 265.273 38.5757C265.347 38.1638 265.073 37.7695 264.661 37.6952C264.248 37.6208 263.854 37.8945 263.78 38.3065C263.705 38.7184 263.979 39.1127 264.392 39.1871Z" fill="#EFEFEF"/>
<path d="M261.878 111.903C262.394 111.996 262.887 111.654 262.98 111.139C263.073 110.624 262.73 110.131 262.215 110.039C261.699 109.946 261.206 110.288 261.113 110.803C261.02 111.318 261.363 111.81 261.878 111.903Z" fill="#EFEFEF"/>
<path d="M277.343 107.375C277.242 107.935 276.802 108.24 276.242 108.139C275.682 108.038 275.376 107.598 275.476 107.038C275.577 106.479 276.018 106.173 276.578 106.274C277.104 106.562 277.41 107.002 277.343 107.375Z" fill="#EFEFEF"/>
<path d="M129.465 55.2934C130.111 55.9875 129.943 56.9199 129.248 57.5649C128.554 58.2098 127.62 58.0415 126.975 57.3474C126.329 56.6533 126.497 55.7209 127.191 55.076C127.852 54.6175 128.819 54.5993 129.465 55.2934Z" fill="#EFEFEF"/>
<path d="M232.893 20.414C234.032 21.582 233.882 23.4806 232.527 24.584C231.358 25.7211 229.458 25.571 228.353 24.2165C227.214 23.0484 227.364 21.1499 228.719 20.0465C230.075 18.943 231.975 19.0931 232.893 20.414Z" fill="#EFEFEF"/>
<path d="M126.554 70.3653C127.07 70.4582 127.563 70.1161 127.656 69.6011C127.748 69.0862 127.406 68.5934 126.89 68.5004C126.375 68.4075 125.882 68.7496 125.789 69.2645C125.696 69.7795 126.039 70.2723 126.554 70.3653Z" fill="#EFEFEF"/>
<path d="M163.796 31.6379C163.695 32.1973 163.255 32.503 162.695 32.402C162.135 32.301 161.829 31.8607 161.93 31.3013C162.03 30.7418 162.471 30.4362 163.031 30.5371C163.591 30.6381 163.897 31.0784 163.796 31.6379Z" fill="#EFEFEF"/>
<path d="M229.378 38.8425C229.209 39.775 228.328 40.3863 227.395 40.218C226.462 40.0497 225.85 39.1691 226.018 38.2367C226.186 37.3043 227.067 36.693 228 36.8612C229.087 37.2497 229.512 38.0966 229.378 38.8425Z" fill="#EFEFEF"/>
<path d="M106.788 143.629C106.687 144.188 106.247 144.494 105.687 144.393C105.127 144.292 104.821 143.852 104.922 143.292C105.023 142.733 105.463 142.427 106.023 142.528C106.583 142.629 106.856 143.256 106.788 143.629Z" fill="#EFEFEF"/>
<path d="M47.5775 206.98C56.6189 208.378 65.0819 202.182 66.48 193.14C67.8782 184.099 61.682 175.636 52.6405 174.238C43.5991 172.84 35.1361 179.036 33.738 188.077C32.3399 197.119 38.536 205.582 47.5775 206.98Z" fill="#E0A326"/>
<path opacity="0.34" d="M65.7476 187.568L65.7694 187.448C65.7912 187.327 65.6922 187.184 65.7139 187.064L65.7357 186.943C65.6367 186.8 65.6803 186.559 65.5813 186.416C65.5813 186.416 65.5813 186.416 65.6031 186.295C65.6249 186.175 65.5259 186.032 65.5476 185.911L65.5694 185.791C65.4704 185.648 65.4922 185.527 65.415 185.264C65.316 185.121 65.3378 185.001 65.2606 184.737C65.2606 184.737 65.2606 184.737 65.2824 184.617C65.1834 184.474 65.2052 184.353 65.1062 184.211C65.1062 184.211 65.1062 184.211 65.1279 184.09C65.029 183.948 64.93 183.805 64.9735 183.563C64.8745 183.421 64.7756 183.278 64.7973 183.158C64.7973 183.158 64.7973 183.158 64.8191 183.037C64.6211 182.752 64.5657 182.368 64.3677 182.083C64.2688 181.94 64.1698 181.798 64.0708 181.655C63.8728 181.37 63.6749 181.085 63.4769 180.8C63.3779 180.657 63.1582 180.493 63.0809 180.23C63.1799 180.372 63.3779 180.657 63.4769 180.8C63.5759 180.942 63.6749 181.085 63.7738 181.228C63.9718 181.513 64.1698 181.798 64.2252 182.182C64.2252 182.182 64.2252 182.182 64.2034 182.302C64.3024 182.445 64.4014 182.588 64.3796 182.708C64.4786 182.851 64.5776 182.993 64.534 183.235C64.534 183.235 64.534 183.235 64.5123 183.356C64.348 183.575 64.3262 183.696 64.4252 183.839C64.4252 183.839 64.4252 183.839 64.4034 183.959C64.5024 184.102 64.4806 184.223 64.5578 184.486C64.6568 184.629 64.635 184.749 64.7122 185.013L64.6905 185.133C64.7894 185.276 64.7677 185.397 64.7459 185.517C64.7459 185.517 64.7459 185.517 64.7241 185.638C64.8231 185.781 64.7795 186.022 64.8785 186.165L64.8568 186.286C64.835 186.406 64.934 186.549 64.9122 186.67L64.8904 186.79C64.8686 186.911 64.9458 187.174 64.9241 187.295C66.0565 196.227 59.8563 204.336 51.0449 205.49C50.9241 205.468 50.6608 205.546 50.5401 205.524L50.4193 205.502C50.2985 205.48 50.1778 205.459 50.0352 205.558C49.9145 205.536 49.9145 205.536 49.7937 205.514C49.673 205.492 49.673 205.492 49.5522 205.47C44.1418 205.742 39.2323 203.236 35.9777 199.157C39.0244 203.697 44.3734 206.532 50.1461 206.326C50.2669 206.347 50.2669 206.347 50.3876 206.369C50.5084 206.391 50.5084 206.391 50.6292 206.413C50.7499 206.435 50.8707 206.456 51.0132 206.357L51.134 206.379C51.2547 206.401 51.518 206.324 51.6388 206.345C60.571 205.213 66.7929 196.984 65.518 188.15C65.803 187.952 65.8248 187.832 65.7476 187.568Z" fill="#E0A326"/>
<path opacity="0.6" d="M35.0916 188.149C36.3111 181.387 41.8897 176.034 48.6601 175.135C51.7325 174.692 54.8722 175.258 57.6398 176.505C58.7821 177.085 60.1441 177.829 61.0785 178.871C60.3084 177.61 58.6059 176.679 57.2221 176.056C54.4763 174.688 51.3148 174.242 48.2424 174.686C41.472 175.585 35.8933 180.938 34.6739 187.7C34.282 189.874 33.9573 193.057 35.5074 194.833C34.4622 193.023 34.7215 190.202 35.0916 188.149Z" fill="#E0A326"/>
<path opacity="0.34" d="M43.4331 179.928C44.2903 180.706 43.8211 182.616 42.4076 184.232C40.9942 185.847 39.0304 186.366 38.1732 185.588C37.217 184.667 37.6861 182.757 39.2204 181.163C40.7546 179.57 42.5976 179.029 43.4331 179.928Z" fill="#E0A326"/>
<path opacity="0.34" d="M48.0275 177.266C48.3026 177.815 47.7444 178.836 46.6694 179.266C45.5727 179.816 44.4641 179.741 44.2107 179.072C43.9355 178.523 44.4938 177.502 45.5687 177.072C46.6655 176.522 47.7741 176.597 48.0275 177.266Z" fill="#E0A326"/>
<path opacity="0.4" d="M58.6025 182.913C58.46 183.012 58.3393 182.991 58.1967 183.09C58.076 183.068 57.9334 183.167 57.8127 183.145C57.5711 183.102 57.2089 183.036 56.7041 183.07C56.4408 183.147 56.32 183.125 56.1775 183.224C56.0349 183.323 55.9142 183.301 55.7716 183.4C55.6509 183.379 55.6291 183.499 55.5084 183.478C55.3876 183.456 55.3876 183.456 55.2668 183.434C55.1461 183.412 54.9046 183.369 54.7838 183.347C54.4215 183.282 54.3008 183.26 54.3008 183.26C54.3008 183.26 54.0592 183.216 53.8177 183.173C53.4554 183.108 53.0932 183.042 52.4894 182.933C51.8856 182.824 51.26 182.836 50.5137 182.826C49.7673 182.817 48.9992 182.927 48.3519 183.06C47.562 183.292 46.8929 183.545 46.3228 183.941C45.7744 184.216 45.3468 184.513 44.8202 184.668C44.5569 184.745 44.2936 184.822 44.1729 184.8C43.9313 184.757 43.7888 184.856 43.6681 184.834C43.4265 184.79 43.185 184.747 43.185 184.747C43.185 184.747 43.284 184.889 43.6245 185.075C43.7453 185.097 43.9868 185.141 44.2283 185.184C44.7113 185.271 45.1172 185.095 45.622 185.061C46.1268 185.028 46.7088 185.257 47.2354 185.103C47.4987 185.026 47.663 184.806 47.8055 184.707C48.3757 184.311 49.1655 184.08 49.9119 184.089C50.3949 184.177 50.7572 184.242 51.262 184.208C51.6243 184.274 52.1509 184.119 52.6339 184.206C52.8754 184.25 53.0952 184.414 53.3367 184.458C53.5782 184.501 53.8633 184.303 54.0058 184.204C54.5324 184.05 55.0926 184.4 55.5974 184.367C55.7182 184.388 55.9815 184.311 56.124 184.212C56.3873 184.135 56.6724 183.937 56.7932 183.959C56.9357 183.86 57.298 183.925 57.6602 183.99C57.781 184.012 57.9018 184.034 58.0225 184.056C58.5273 184.022 59.0757 183.747 59.6023 183.592C60.4139 183.24 61.1484 182.624 61.5423 181.823C61.7502 181.361 62.5381 179.758 61.9561 179.528C61.0573 180.364 60.214 181.583 59.1727 182.518C59.1727 182.518 58.8876 182.715 58.6025 182.913Z" fill="white"/>
<path opacity="0.4" d="M63.7667 199.929C63.4044 199.864 62.6581 199.854 61.5277 199.899C60.7596 200.01 59.9915 200.121 59.0808 200.331C58.1702 200.541 57.2378 200.871 56.3054 201.202C55.8995 201.378 55.3729 201.533 54.9453 201.83C54.6821 201.907 54.5395 202.006 54.2544 202.204C54.1119 202.303 53.8486 202.38 53.6843 202.6C52.8509 203.073 52.16 203.447 51.6334 203.601C50.9861 203.734 50.4812 203.768 50.119 203.702C49.8774 203.659 49.7567 203.637 49.6359 203.615C49.5152 203.594 49.5152 203.594 49.5152 203.594C49.5152 203.594 49.5152 203.594 49.3944 203.572C49.2737 203.55 49.1529 203.528 48.9114 203.485C48.5491 203.419 47.9671 203.19 47.2643 202.938C46.5615 202.687 45.7162 202.534 44.7501 202.36C43.7623 202.307 42.8734 202.396 41.9846 202.485C41.743 202.441 41.4797 202.519 41.2382 202.475C40.9967 202.432 40.7552 202.388 40.4919 202.465C40.0089 202.378 39.6466 202.313 39.1635 202.226C38.5597 202.117 38.0767 202.03 37.6154 201.822C37.8352 201.986 38.0332 202.271 38.2529 202.436C38.8131 202.786 39.3734 203.136 39.9554 203.366C40.1969 203.41 40.2959 203.552 40.5374 203.596C40.779 203.639 41.0422 203.562 41.3273 203.364C41.4698 203.265 41.5906 203.287 41.7114 203.309C41.8321 203.33 41.9311 203.473 42.1509 203.637C42.5903 203.966 43.2595 203.712 43.6871 203.415C43.8296 203.316 43.9721 203.217 44.1147 203.119C44.9045 202.887 46.4863 203.796 47.1891 204.047C47.3098 204.069 47.5296 204.233 47.6286 204.376C47.7275 204.518 47.7058 204.639 47.8048 204.781C48.0027 205.066 48.4858 205.154 48.9906 205.12C49.4954 205.086 50.0002 205.053 50.4832 205.14C51.087 205.249 51.5483 205.456 52.0749 205.302C52.6015 205.148 52.9519 204.587 53.4784 204.433C53.8843 204.257 54.4881 204.366 54.9157 204.069C55.3215 203.892 55.5294 203.431 55.8362 203.112C56.3291 202.453 57.0853 201.717 57.8752 201.485C58.1385 201.408 58.2811 201.309 58.5226 201.353C58.6433 201.374 58.8849 201.418 59.0056 201.44C59.4887 201.527 60.037 201.252 60.4646 200.955C61.013 200.679 62.9768 200.161 63.7667 199.929Z" fill="white"/>
<path opacity="0.4" d="M59.537 190.189C59.0104 190.343 58.3849 190.355 57.9018 190.268C57.4188 190.181 56.9357 190.094 56.4745 189.886C56.0132 189.678 55.6727 189.492 55.2115 189.284C54.871 189.098 54.5305 188.912 54.1682 188.847C54.0474 188.825 53.9267 188.803 53.8277 188.661C53.7069 188.639 53.5862 188.617 53.4654 188.595C53.3446 188.573 53.2239 188.552 53.2239 188.552C53.2239 188.552 53.2239 188.552 53.1031 188.53C53.1031 188.53 52.9824 188.508 52.8616 188.486C52.7408 188.465 52.6201 188.443 52.4993 188.421C52.3786 188.399 52.3786 188.399 52.2578 188.377C52.1371 188.356 52.1371 188.356 52.0163 188.334C51.3907 188.346 50.4029 188.292 49.4705 188.623C48.9439 188.777 48.4173 188.932 47.8907 189.086C47.3641 189.241 46.695 189.494 46.1466 189.769C44.9509 190.177 43.7334 190.706 42.4605 190.85L41.9557 190.884C41.835 190.862 41.5934 190.818 41.4509 190.917C41.3301 190.896 41.0886 190.852 40.9461 190.951C40.8253 190.929 40.5838 190.886 40.4631 190.864C40.3423 190.842 40.1008 190.799 39.98 190.777C39.8593 190.755 39.6177 190.712 39.497 190.69C39.3762 190.668 39.1347 190.624 39.0139 190.603C38.8932 190.581 38.6517 190.537 38.5309 190.516C37.3451 190.177 36.3236 189.619 35.4011 189.203C34.8408 188.853 34.2588 188.623 33.8193 188.294C33.6986 188.273 33.8747 188.679 33.853 188.799C33.952 188.942 34.1717 189.106 34.4132 189.15C34.633 189.314 34.9952 189.379 35.215 189.544C35.3357 189.565 35.4347 189.708 35.5555 189.73C35.8742 190.037 35.9296 190.421 36.1276 190.706C36.4246 191.133 36.7651 191.319 37.2263 191.527C37.6876 191.735 38.2696 191.965 38.7744 191.931C39.0159 191.975 39.2575 192.018 39.3782 192.04C39.9602 192.27 40.2572 192.697 40.8392 192.927C41.542 193.178 42.2329 192.804 42.9792 192.814C43.484 192.78 43.9453 192.988 44.4719 192.834C45.4043 192.503 45.9625 191.482 46.796 191.008C47.7719 190.436 48.9459 190.149 50.0762 190.104C50.4385 190.169 50.7018 190.092 51.0641 190.157C52.2717 190.375 53.2714 191.054 54.4572 191.392C55.643 191.731 56.6309 191.784 57.8603 191.881C58.1018 191.925 58.4858 191.87 58.7491 191.792C59.1332 191.737 59.3193 191.396 59.6043 191.198C60.0102 191.022 60.7347 191.153 61.1188 191.097C61.481 191.163 61.7443 191.086 62.0076 191.008C62.4135 190.832 62.5995 190.492 62.9064 190.173C63.5418 189.415 64.1991 188.536 64.9553 187.799C65.4047 187.382 65.8541 186.964 66.0619 186.503C65.9847 186.239 65.8857 186.097 65.9293 185.855C64.8108 186.526 63.8685 187.603 62.8707 188.296C61.8294 189.231 60.7109 189.902 59.537 190.189Z" fill="white"/>
<path opacity="0.4" d="M36.5352 198.136C37.1172 198.366 37.622 198.332 37.9843 198.398C38.2258 198.441 38.4674 198.485 38.6099 198.386C40.1679 198.043 40.8904 196.802 42.6246 196.865C43.1294 196.832 43.5907 197.039 44.052 197.247C44.8537 197.641 44.9309 197.905 45.4476 198.496C45.5466 198.639 45.9089 198.704 46.0514 198.605C46.3147 198.528 46.4572 198.429 46.7205 198.352C47.2471 198.197 47.8509 198.306 48.4765 198.294C48.5973 198.316 48.718 198.338 48.9813 198.261C49.6286 198.128 50.0008 197.447 50.6482 197.315C51.1748 197.16 51.6796 197.126 52.2279 196.851C53.1821 196.4 53.6533 195.861 53.6533 195.861C53.6533 195.861 52.9841 196.115 52.03 196.566C51.5034 196.721 50.9768 196.875 50.3294 197.008C49.6821 197.14 49.0347 197.273 48.4092 197.285C47.7836 197.297 47.059 197.166 46.4553 197.057C45.8515 196.948 45.2694 196.719 44.7864 196.632C44.3251 196.424 43.8421 196.337 43.6224 196.172C43.5016 196.151 43.3808 196.129 43.2601 196.107C43.1393 196.085 43.1393 196.085 43.1393 196.085C43.1393 196.085 43.1393 196.085 43.0186 196.063C42.8978 196.042 42.777 196.02 42.6563 195.998C42.5355 195.976 42.294 195.933 42.0307 196.01C41.7892 195.966 41.5259 196.044 41.2626 196.121C40.9993 196.198 40.736 196.275 40.451 196.473C40.1877 196.55 39.9026 196.748 39.6393 196.826C38.992 196.958 38.3446 197.091 37.6973 197.224C37.0717 197.235 36.3254 197.226 35.7216 197.117C35.48 197.073 35.1178 197.008 34.8763 196.964C35.0089 197.612 35.8107 198.006 36.5352 198.136Z" fill="white"/>
<path opacity="0.4" d="M46.0892 180.407C45.4637 180.419 44.8599 180.31 44.1353 180.18C42.8287 179.819 41.5657 179.218 40.6432 178.802C40.4234 178.638 39.885 178.166 39.5999 178.364C40.3363 179.121 41.2806 179.416 42.0824 179.81C42.6644 180.039 43.1811 180.631 43.7414 180.981C45.9606 182.504 47.9125 181.36 50.0624 180.5C50.3257 180.423 50.7315 180.247 51.2581 180.093C52.1687 179.883 53.2219 179.574 54.0672 179.726C54.4295 179.792 54.7918 179.857 55.0769 179.659C55.0986 179.538 55.2194 179.56 55.2412 179.439C55.2412 179.439 55.3619 179.461 55.5045 179.362C55.8885 179.307 56.1954 178.988 56.3814 178.647C56.5457 178.428 57.6068 176.001 57.3653 175.957C57.2445 175.935 57.1456 175.793 57.0248 175.771C56.8169 176.232 56.5873 176.814 56.2587 177.254C56.0944 177.473 55.8093 177.671 55.645 177.891C55.3599 178.089 55.0749 178.287 54.8116 178.364C54.1424 178.618 53.4951 178.75 52.8478 178.883C52.2004 179.016 51.5748 179.027 51.0483 179.182C50.5217 179.336 50.1158 179.512 49.7318 179.568C49.4685 179.645 49.326 179.744 49.326 179.744C49.326 179.744 49.2052 179.722 48.9201 179.92C48.6568 179.998 48.251 180.174 47.7462 180.207C47.3404 180.384 46.7148 180.395 46.0892 180.407Z" fill="white"/>
<path opacity="0.4" d="M66.2137 193.263C65.5663 193.396 64.6893 194.11 64.3053 194.166C64.042 194.243 63.7787 194.32 63.6579 194.298C63.5372 194.276 63.3946 194.375 63.3946 194.375C63.3946 194.375 63.2739 194.354 63.1314 194.453C63.0106 194.431 62.6265 194.486 62.3632 194.564C61.9792 194.619 61.5734 194.795 61.1675 194.971C60.7617 195.148 60.4549 195.466 60.0273 195.763C59.4136 196.401 58.8217 196.917 58.2515 197.313C57.8021 197.731 57.2973 197.765 57.3963 197.907C57.3745 198.028 58.2852 197.818 58.4277 197.719C58.6692 197.763 58.9325 197.685 59.2948 197.751C59.6789 197.695 60.2054 197.541 60.5123 197.222C60.6766 197.003 60.7419 196.64 61.027 196.442C61.2903 196.365 61.5536 196.288 61.8169 196.211C62.0802 196.133 62.2445 195.914 62.5295 195.716C62.9789 195.298 63.846 195.33 64.3291 195.417C64.9328 195.526 65.602 195.272 66.1721 194.876C66.2592 194.393 66.3463 193.91 66.4334 193.427C66.3562 193.164 66.3562 193.164 66.2137 193.263Z" fill="white"/>
<path opacity="0.4" d="M35.7891 184.286C35.6901 184.143 35.5912 184 35.3932 183.715C35.2289 183.935 35.1853 184.177 35.2625 184.44C35.417 184.967 35.8129 185.537 36.1098 185.964C36.187 186.228 36.4068 186.392 36.484 186.655C36.9017 187.105 37.4837 187.334 37.6381 187.861C37.7371 188.003 37.6936 188.245 37.9133 188.409C38.0341 188.431 38.1548 188.453 38.2756 188.474C38.7586 188.562 39.1981 188.89 39.6376 189.219C40.0771 189.547 40.5384 189.755 41.0649 189.601C41.7123 189.468 42.3596 189.336 43.007 189.203C43.2703 189.126 43.6543 189.07 43.8958 189.114C44.3789 189.201 44.7194 189.387 45.2242 189.353C46.212 189.407 47.3523 188.615 48.2847 188.284C48.9539 188.031 49.623 187.778 50.2485 187.766C50.4901 187.809 50.8741 187.754 51.1374 187.677C51.4007 187.599 51.6858 187.401 51.8501 187.182C52.5628 186.687 53.6278 187.003 54.4949 187.035C54.9779 187.122 55.4827 187.089 55.9876 187.055C56.4924 187.021 56.8764 186.966 57.403 186.811C57.7871 186.756 58.3136 186.602 58.6977 186.546C58.6977 186.546 58.961 186.469 59.1035 186.37C59.2461 186.271 59.5094 186.194 59.6519 186.095C59.937 185.897 60.2438 185.578 60.4081 185.358C60.5724 185.139 60.7367 184.919 60.7803 184.677C60.9664 184.337 61.0099 184.095 61.0099 184.095C61.0099 184.095 60.8456 184.315 60.5388 184.634C60.3745 184.854 60.2319 184.952 60.0676 185.172C59.9033 185.392 59.6182 185.59 59.3332 185.788C59.0481 185.986 58.664 186.041 58.28 186.097C57.8959 186.152 57.5119 186.208 56.9853 186.362C56.6012 186.417 56.0964 186.451 55.5916 186.485C55.0868 186.518 54.7245 186.453 54.2197 186.487C53.2319 186.433 52.2876 186.138 51.3987 186.227C50.3891 186.295 49.5992 186.526 48.9519 186.659C47.5146 187.023 46.604 187.233 46.604 187.233C46.604 187.233 45.6716 187.564 44.3551 187.95C43.686 188.203 42.8961 188.435 42.1498 188.425C41.4035 188.415 40.4592 188.12 39.6574 187.726C38.8556 187.332 38.0756 186.818 37.4382 186.204C36.68 185.568 36.1851 184.856 35.7891 184.286Z" fill="white"/>
<path d="M35.1936 183.431C35.2926 183.574 35.5124 183.738 35.5896 184.001C35.9855 184.571 36.5022 185.163 37.1397 185.777C37.7771 186.391 38.5571 186.905 39.3589 187.299C40.1606 187.693 41.1049 187.988 41.8513 187.998C42.5976 188.008 43.3875 187.776 44.0566 187.523C45.4938 187.159 46.4262 186.828 46.4262 186.828C46.4262 186.828 47.3369 186.618 48.7741 186.254C49.4214 186.121 50.3538 185.791 51.2209 185.822C52.2306 185.755 53.1749 186.05 54.0419 186.082C54.525 186.169 54.909 186.113 55.4138 186.08C55.9187 186.046 56.3027 185.991 56.8075 185.957C57.1916 185.902 57.6964 185.868 58.1022 185.692C58.607 185.658 58.8703 185.581 59.1554 185.383C59.4405 185.185 59.6048 184.965 59.8898 184.767C60.0541 184.547 60.2185 184.328 60.361 184.229C60.5471 183.888 60.7114 183.668 60.7114 183.668C60.7114 183.668 60.6678 183.91 60.4817 184.25C60.4382 184.492 60.2739 184.712 60.1096 184.931C59.9453 185.151 59.7592 185.492 59.3534 185.668C59.2108 185.767 59.0683 185.866 58.805 185.943C58.6625 186.042 58.3992 186.119 58.1359 186.196C57.7518 186.252 57.346 186.428 56.8412 186.462C56.4571 186.517 55.9305 186.672 55.4257 186.705C54.9209 186.739 54.4161 186.773 53.9331 186.685C53.1867 186.676 52.0009 186.337 51.2883 186.832C51.0032 187.03 50.8389 187.25 50.5756 187.327C50.532 187.568 50.1698 187.503 49.9282 187.46C49.1819 187.45 48.6335 187.725 47.9644 187.978C47.032 188.309 45.8917 189.101 44.9039 189.047C44.5198 189.103 44.0586 188.895 43.5755 188.808C43.334 188.764 42.95 188.82 42.6867 188.897C42.0393 189.029 41.392 189.162 40.7446 189.295C40.2181 189.449 39.7786 189.121 39.3173 188.913C38.8778 188.584 38.4383 188.255 37.9553 188.168C37.8345 188.147 37.7138 188.125 37.593 188.103C37.4723 188.081 37.5158 187.84 37.4386 187.576C37.2842 187.05 36.7022 186.82 36.2844 186.371C36.0647 186.207 35.9875 185.943 35.9103 185.68C35.6133 185.252 35.2174 184.682 35.063 184.156C34.964 184.013 35.0293 183.651 35.1936 183.431ZM63.8077 199.688C63.8295 199.567 62.8416 199.514 61.448 199.636C60.6798 199.747 59.9117 199.858 59.0011 200.068C58.0905 200.278 57.158 200.608 56.2256 200.939C55.8198 201.115 55.2932 201.27 54.8656 201.567C54.6023 201.644 54.4598 201.743 54.1747 201.941C54.0322 202.04 53.7689 202.117 53.6046 202.337C52.7712 202.81 52.0803 203.184 51.5537 203.338C50.9063 203.471 50.4015 203.505 50.0392 203.439C49.7977 203.396 49.677 203.374 49.5562 203.352C49.4354 203.33 49.4354 203.33 49.4354 203.33C49.4354 203.33 49.4354 203.33 49.3147 203.309C49.1939 203.287 49.0732 203.265 48.8316 203.222C48.4694 203.156 47.8873 202.927 47.1846 202.675C46.4818 202.424 45.6365 202.271 44.6704 202.097C43.6826 202.044 42.7937 202.133 41.9048 202.222C41.6633 202.178 41.4 202.256 41.1585 202.212C40.917 202.168 40.6755 202.125 40.4122 202.202C39.9291 202.115 39.5669 202.05 39.0838 201.963C38.48 201.854 37.898 201.624 37.415 201.537C38.1514 202.293 38.8324 202.665 39.7549 203.081C39.9964 203.125 40.0954 203.267 40.337 203.311C40.5785 203.354 40.8418 203.277 41.1268 203.079C41.2694 202.98 41.3901 203.002 41.5109 203.024C41.6316 203.045 41.7306 203.188 41.9504 203.352C42.3899 203.681 43.059 203.428 43.4866 203.131C43.6291 203.032 43.7716 202.933 43.9142 202.834C44.7041 202.602 46.2858 203.511 46.9886 203.762C47.1094 203.784 47.3291 203.948 47.4281 204.091C47.5271 204.233 47.5053 204.354 47.6043 204.496C47.8022 204.782 48.2853 204.869 48.7901 204.835C49.2949 204.801 49.7997 204.768 50.2827 204.855C50.8865 204.964 51.3478 205.172 51.8744 205.017C52.401 204.863 52.7514 204.302 53.278 204.148C53.6838 203.972 54.2876 204.081 54.7152 203.784C55.121 203.608 55.3289 203.146 55.6357 202.828C56.1286 202.168 56.8849 201.432 57.6747 201.2C57.938 201.123 58.0806 201.024 58.3221 201.068C58.4429 201.089 58.6844 201.133 58.8051 201.155C59.2882 201.242 59.8365 200.967 60.2641 200.67C60.8343 200.274 63.8295 199.567 63.8077 199.688ZM43.6626 180.719C45.8818 182.241 47.8337 181.097 49.9836 180.238C50.2469 180.161 50.6527 179.984 51.1793 179.83C51.991 179.478 53.0224 179.289 53.8677 179.442C54.23 179.507 54.5922 179.573 54.8773 179.375C54.8991 179.254 55.0198 179.276 55.0416 179.155C55.0416 179.155 55.1624 179.177 55.3049 179.078C55.689 179.022 55.9958 178.703 56.1819 178.363C56.3462 178.143 57.4073 175.716 57.1658 175.673C57.045 175.651 56.946 175.508 56.8252 175.487C56.6174 175.948 56.3878 176.53 56.0591 176.969C55.8948 177.189 55.6098 177.387 55.4454 177.607C55.1604 177.805 54.8753 178.003 54.612 178.08C54.0637 178.355 53.4163 178.488 52.7907 178.5C52.1434 178.632 51.5178 178.644 50.9912 178.799C50.4646 178.953 50.0588 179.129 49.6748 179.185C49.4115 179.262 49.2689 179.361 49.2689 179.361C49.2689 179.361 49.0056 179.438 48.7424 179.515C48.4791 179.592 48.0732 179.769 47.5684 179.802C47.0418 179.957 46.537 179.99 45.9115 180.002C45.2859 180.014 44.6821 179.905 43.9575 179.775C42.651 179.414 41.3879 178.812 40.4654 178.397C40.1249 178.211 39.5864 177.74 39.2796 178.058C40.016 178.814 40.9821 178.989 41.9046 179.404C42.5856 179.777 43.0033 180.226 43.6626 180.719C43.5418 180.697 43.6626 180.719 43.6626 180.719ZM66.0367 192.858C65.3894 192.991 64.5124 193.705 64.1284 193.761C63.8651 193.838 63.6018 193.915 63.481 193.893C63.3602 193.872 63.2177 193.971 63.2177 193.971C63.2177 193.971 63.097 193.949 62.9544 194.048C62.8337 194.026 62.4496 194.081 62.1863 194.159C61.8023 194.214 61.3964 194.39 60.9906 194.566C60.5848 194.743 60.2779 195.061 59.8503 195.358C59.2366 195.996 58.6447 196.512 58.0746 196.908C57.6252 197.326 57.1204 197.36 57.2194 197.502C57.1976 197.623 58.1083 197.413 58.2508 197.314C58.4923 197.358 58.7556 197.281 59.1179 197.346C59.5019 197.29 60.0285 197.136 60.3354 196.817C60.4997 196.598 60.565 196.235 60.8501 196.037C61.1134 195.96 61.3767 195.883 61.6399 195.806C61.9032 195.728 62.0675 195.509 62.3526 195.311C62.802 194.893 63.6691 194.925 64.1521 195.012C64.7559 195.121 65.425 194.867 65.9952 194.471C66.2802 194.273 66.4446 194.054 66.5099 193.691C66.6405 192.967 66.4208 192.802 66.0367 192.858ZM36.334 197.851C36.9161 198.081 37.4209 198.047 37.7832 198.112C38.0247 198.156 38.2662 198.199 38.4087 198.1C39.9667 197.758 40.6893 196.517 42.4234 196.58C42.9283 196.546 43.3895 196.754 43.8508 196.962C44.6525 197.356 44.7298 197.619 45.2464 198.211C45.3454 198.354 45.7077 198.419 45.8502 198.32C46.1135 198.243 46.2561 198.144 46.5194 198.067C47.046 197.912 47.6497 198.021 48.2753 198.009C48.3961 198.031 48.5168 198.053 48.7801 197.975C49.4275 197.843 49.7996 197.162 50.447 197.029C50.9736 196.875 51.4784 196.841 52.0267 196.566C52.9809 196.115 53.4521 195.576 53.4521 195.576C53.4521 195.576 52.783 195.83 51.8288 196.281C51.3022 196.435 50.7756 196.59 50.1283 196.722C49.4809 196.855 48.8336 196.988 48.208 197C47.7032 197.033 46.9786 196.903 46.3748 196.794C45.771 196.685 45.189 196.455 44.706 196.368C44.2447 196.16 43.7617 196.073 43.5419 195.909C43.4212 195.887 43.3004 195.865 43.1797 195.843C43.0589 195.822 43.0589 195.822 43.0589 195.822C43.0589 195.822 43.0589 195.822 42.9382 195.8C42.8174 195.778 42.6966 195.756 42.5759 195.735C42.4551 195.713 42.2136 195.669 41.9503 195.746C41.7088 195.703 41.4455 195.78 41.1822 195.857C40.9189 195.935 40.6556 196.012 40.3705 196.21C40.1072 196.287 39.8222 196.485 39.5589 196.562C38.9115 196.695 38.2642 196.827 37.6168 196.96C36.9913 196.972 36.2449 196.962 35.6412 196.853C35.3996 196.81 35.0374 196.744 34.7958 196.701C34.8295 197.206 35.5105 197.578 36.334 197.851ZM58.4269 182.508C58.2843 182.607 58.1418 182.706 58.021 182.685C57.9003 182.663 57.7577 182.762 57.637 182.74C57.3955 182.696 57.0332 182.631 56.5284 182.665C56.2651 182.742 56.1443 182.72 56.0018 182.819C55.8592 182.918 55.7385 182.896 55.5959 182.995C55.4752 182.974 55.4534 183.094 55.3327 183.073C55.2119 183.051 55.2119 183.051 55.0911 183.029C54.9704 183.007 54.7289 182.964 54.6081 182.942C54.2458 182.877 54.1251 182.855 54.1251 182.855C54.1251 182.855 53.8835 182.811 53.642 182.768C53.2798 182.702 52.9175 182.637 52.3137 182.528C51.7099 182.419 51.0843 182.431 50.338 182.421C49.7342 182.312 48.9879 182.303 48.198 182.534C47.4081 182.766 46.739 183.019 46.1688 183.415C45.5987 183.811 45.0286 184.207 44.6227 184.383C44.3594 184.46 44.1179 184.417 43.8546 184.494C43.6131 184.451 43.4706 184.55 43.3498 184.528C43.1083 184.484 42.8668 184.441 42.8668 184.441C42.8668 184.441 42.9658 184.583 43.3063 184.769C43.427 184.791 43.6685 184.835 43.9101 184.878C44.3931 184.965 44.7989 184.789 45.3037 184.755C45.8086 184.722 46.3906 184.951 46.9172 184.797C47.1805 184.72 47.3448 184.5 47.4873 184.401C48.0574 184.005 48.8473 183.773 49.5936 183.783C50.0767 183.87 50.439 183.936 50.9438 183.902C51.4486 183.868 51.9534 183.835 52.4364 183.922C52.6779 183.965 52.8977 184.13 53.1392 184.173C53.3807 184.217 53.6658 184.019 53.8083 183.92C54.3349 183.765 54.8952 184.116 55.4 184.082C55.5207 184.104 55.784 184.027 55.9266 183.928C56.1899 183.851 56.4749 183.653 56.5957 183.674C56.7382 183.575 57.1005 183.641 57.4628 183.706C57.5835 183.728 57.7043 183.75 57.825 183.771C58.3299 183.738 58.8782 183.463 59.4048 183.308C60.2165 182.956 60.9509 182.34 61.3449 181.538C61.5527 181.077 62.3406 179.474 61.7586 179.244C60.8598 180.079 60.0165 181.299 58.9752 182.233C58.9752 182.233 58.6901 182.431 58.4269 182.508ZM35.1798 189.039C35.3006 189.061 35.3996 189.204 35.5203 189.226C35.8391 189.532 35.8945 189.916 36.0925 190.201C36.3894 190.629 36.7299 190.815 37.1912 191.023C37.6524 191.231 38.2345 191.461 38.7393 191.427C38.9808 191.47 39.2223 191.514 39.3431 191.536C39.9251 191.765 40.222 192.193 40.8041 192.423C41.4851 192.795 42.176 192.421 42.9223 192.431C43.4271 192.397 43.8884 192.605 44.4149 192.45C45.3474 192.12 45.9056 191.098 46.739 190.625C47.715 190.053 48.8889 189.766 50.0193 189.72C50.3816 189.786 50.6449 189.708 51.0072 189.774C52.2148 189.992 53.2145 190.671 54.4003 191.009C55.5861 191.348 56.574 191.401 57.8033 191.498C58.0449 191.542 58.4289 191.486 58.6922 191.409C59.0763 191.353 59.2623 191.013 59.5474 190.815C59.9532 190.639 60.6778 190.769 61.0618 190.714C61.4241 190.779 61.6874 190.702 61.9507 190.625C62.3565 190.449 62.5426 190.108 62.8495 189.789C63.4849 189.031 64.1422 188.152 64.8984 187.416C65.5121 186.778 66.3455 186.305 65.8941 185.351C64.7756 186.022 63.7126 187.077 62.6931 187.891C61.6735 188.705 60.555 189.376 59.3811 189.663C58.8545 189.817 58.2289 189.829 57.7459 189.742C57.2629 189.655 56.7798 189.568 56.3186 189.36C55.8573 189.152 55.5168 188.966 55.0556 188.758C54.7151 188.572 54.3745 188.386 54.0123 188.321C53.8915 188.299 53.7708 188.277 53.6718 188.135C53.551 188.113 53.4303 188.091 53.3095 188.069C53.1887 188.047 53.068 188.026 53.068 188.026C53.068 188.026 53.068 188.026 52.9472 188.004C52.9472 188.004 52.8265 187.982 52.7057 187.96C52.5849 187.939 52.4642 187.917 52.3434 187.895C52.2227 187.873 52.2227 187.873 52.1019 187.852C51.9811 187.83 51.9811 187.83 51.8604 187.808C51.2348 187.82 50.247 187.766 49.3146 188.097C48.788 188.251 48.2614 188.406 47.7348 188.56C47.2082 188.715 46.5391 188.968 45.9907 189.243C44.795 189.651 43.5775 190.18 42.3046 190.324L41.7998 190.358C41.679 190.336 41.4375 190.293 41.295 190.391C41.1742 190.37 40.9327 190.326 40.7902 190.425C40.6694 190.403 40.4279 190.36 40.3071 190.338C40.1864 190.316 39.9449 190.273 39.8241 190.251C39.7033 190.229 39.4618 190.186 39.3411 190.164C39.2203 190.142 38.9788 190.099 38.858 190.077C38.7373 190.055 38.4958 190.011 38.375 189.99C37.1892 189.651 36.1677 189.093 35.2452 188.677C34.6849 188.327 34.1029 188.097 33.6634 187.769C33.5426 187.747 33.7188 188.153 33.6971 188.273C33.796 188.416 34.0158 188.58 34.2573 188.624C34.5978 188.81 34.9601 188.875 35.1798 189.039Z" fill="#E0A326"/>
<path opacity="0.34" d="M35.8898 185.8C35.967 186.063 36.1867 186.228 36.2639 186.491C36.6817 186.94 37.2637 187.17 37.4181 187.697C37.5171 187.839 37.4735 188.081 37.715 188.124C37.8358 188.146 37.9566 188.168 38.0773 188.189C38.5604 188.277 38.9998 188.605 39.4393 188.934C39.7581 189.241 40.3401 189.47 40.8449 189.437C41.4922 189.304 42.1396 189.171 42.7869 189.039C43.0502 188.961 43.4343 188.906 43.6758 188.95C44.1588 189.037 44.4993 189.223 45.0041 189.189C45.992 189.243 47.1323 188.451 48.0647 188.12C48.7338 187.867 49.4029 187.613 50.0285 187.601C50.27 187.645 50.6541 187.59 50.9174 187.512C51.1806 187.435 51.4657 187.237 51.63 187.017C52.3427 186.522 53.4078 186.839 54.2748 186.871C54.7579 186.958 55.2627 186.924 55.7675 186.891C56.2723 186.857 56.6564 186.802 57.183 186.647C57.567 186.592 58.0936 186.437 58.4776 186.382C58.7409 186.305 58.8835 186.206 59.1468 186.128C59.2893 186.029 59.5526 185.952 59.6951 185.853C59.9802 185.655 60.287 185.337 60.4513 185.117C60.6157 184.897 60.78 184.677 60.8235 184.436C60.6691 183.909 60.7126 183.668 60.7126 183.668C60.7126 183.668 60.5483 183.887 60.2415 184.206C60.0772 184.426 59.9347 184.525 59.7703 184.745C59.7268 184.986 59.4199 185.305 59.1567 185.382C58.8716 185.58 58.4875 185.636 58.1035 185.691C57.9827 185.669 57.9827 185.669 57.8402 185.768C57.5769 185.845 57.1928 185.901 56.8088 185.956C56.5237 186.154 56.0189 186.188 55.5141 186.222C55.0093 186.255 54.5045 186.289 54.0214 186.202C53.2751 186.192 52.0893 185.853 51.3766 186.348C51.0916 186.546 50.9272 186.766 50.6639 186.843C50.4007 186.92 50.1591 186.877 49.7751 186.932C49.0288 186.922 48.4804 187.198 47.8113 187.451C46.8789 187.782 45.7386 188.573 44.7507 188.52C44.3667 188.575 43.9054 188.368 43.4224 188.28C43.1809 188.237 42.7968 188.292 42.5335 188.37C41.8862 188.502 41.2388 188.635 40.5915 188.767C40.0649 188.922 39.6254 188.593 39.1642 188.385C38.7247 188.057 38.2852 187.728 37.8021 187.641C37.6814 187.619 37.5606 187.598 37.4399 187.576C37.3409 187.433 37.2419 187.291 37.1647 187.027C37.2518 186.544 36.549 186.293 36.2521 185.865C36.0323 185.701 35.9551 185.438 35.8779 185.174C35.7017 184.769 35.284 184.319 35.1296 183.793C35.1078 183.913 35.086 184.034 35.185 184.177C35.1969 184.802 35.5928 185.372 35.8898 185.8Z" fill="#E0A326"/>
<path opacity="0.34" d="M41.9069 179.403C42.4889 179.633 43.0056 180.225 43.5658 180.575C45.785 182.098 47.737 180.953 49.8869 180.094C50.1502 180.017 50.556 179.841 51.0826 179.686C51.9932 179.477 53.0246 179.288 53.8699 179.441C54.2322 179.506 54.5945 179.572 54.8795 179.374C54.9013 179.253 55.0221 179.275 55.0439 179.154C55.0439 179.154 55.1646 179.176 55.3071 179.077C55.6912 179.021 55.998 178.702 56.1841 178.362C56.3484 178.142 57.4095 175.715 57.168 175.672L57.0472 175.65C56.7958 176.353 56.1722 177.736 56.1287 177.978C55.9426 178.318 55.6358 178.637 55.2517 178.693C55.131 178.671 55.131 178.671 54.9884 178.77C54.8677 178.748 54.8459 178.869 54.8241 178.989C54.539 179.187 54.1768 179.122 53.8145 179.057C52.8484 178.883 51.916 179.213 51.0054 179.423C50.4788 179.577 50.1937 179.775 49.8097 179.831C47.6598 180.69 45.7078 181.834 43.4886 180.312C43.0709 179.863 42.774 179.435 42.3127 179.227C41.6099 178.976 41.0497 178.625 40.4677 178.396C40.1272 178.21 39.5887 177.738 39.2818 178.057C40.0401 178.693 40.9843 178.988 41.9069 179.403Z" fill="#E0A326"/>
<path opacity="0.34" d="M38.4107 198.101C39.9687 197.758 40.6912 196.517 42.4254 196.58C42.9302 196.547 43.3915 196.755 43.8527 196.962C44.6545 197.356 44.7317 197.62 45.2484 198.212C45.3474 198.354 45.7097 198.419 45.8522 198.32C46.1155 198.243 46.258 198.144 46.5213 198.067C47.0479 197.913 47.6517 198.021 48.2773 198.01C48.398 198.031 48.5188 198.053 48.7821 197.976C49.4294 197.843 49.8016 197.162 50.4489 197.03C50.9755 196.875 51.4803 196.842 52.0287 196.566C52.9829 196.115 53.454 195.577 53.454 195.577C53.454 195.577 52.7849 195.83 51.8307 196.281C51.3041 196.436 50.7776 196.59 50.1302 196.723C50.0095 196.701 49.8669 196.8 49.8669 196.8C49.4393 197.097 49.1325 197.416 48.7266 197.592C48.5841 197.691 48.4634 197.669 48.2218 197.626C47.618 197.517 47.0142 197.408 46.4659 197.683C46.2026 197.76 46.0601 197.859 45.7968 197.936C45.5335 198.014 45.292 197.97 45.193 197.827C44.6763 197.236 44.5991 196.972 43.7973 196.578C43.3578 196.25 42.9955 196.184 42.3917 196.076C40.6576 196.012 39.935 197.253 38.377 197.596C38.1137 197.673 37.993 197.651 37.7514 197.608C37.3892 197.542 36.7854 197.434 36.3023 197.347C35.8411 197.139 35.2591 196.909 34.9403 196.602C34.8196 196.58 34.8196 196.58 34.6988 196.559C34.8314 197.206 35.5125 197.578 36.336 197.851C36.918 198.081 37.4228 198.047 37.7851 198.113C38.0266 198.156 38.2681 198.2 38.4107 198.101Z" fill="#E0A326"/>
<path opacity="0.34" d="M43.3276 184.648C43.4484 184.669 43.6899 184.713 43.9314 184.757C44.4145 184.844 44.8203 184.667 45.3251 184.634C45.8299 184.6 46.4119 184.83 46.9385 184.675C47.2018 184.598 47.3661 184.378 47.5087 184.279C48.0788 183.883 48.8687 183.652 49.615 183.662C50.098 183.749 50.4603 183.814 50.9651 183.78C51.4699 183.747 51.9747 183.713 52.4578 183.8C52.6993 183.844 52.919 184.008 53.1606 184.052C53.4021 184.095 53.6871 183.897 53.8297 183.798C54.3563 183.644 54.9165 183.994 55.4213 183.961C55.5421 183.982 55.8054 183.905 55.9479 183.806C56.2112 183.729 56.4963 183.531 56.617 183.553C56.7596 183.454 57.1218 183.519 57.4841 183.584C57.6049 183.606 57.7256 183.628 57.8464 183.65C58.3512 183.616 58.8996 183.341 59.4262 183.187C60.2378 182.834 60.9723 182.218 61.3662 181.417C61.5741 180.955 62.1976 179.572 61.9007 179.144C61.7918 179.748 61.5186 180.571 61.3325 180.912C60.9386 181.714 60.2042 182.329 59.3925 182.682C58.8659 182.836 58.3176 183.111 57.8127 183.145C57.692 183.123 57.5712 183.101 57.4505 183.08C57.0882 183.014 56.7259 182.949 56.5834 183.048C56.4626 183.026 56.1775 183.224 55.9143 183.301C55.7717 183.4 55.6292 183.499 55.3877 183.456C54.8829 183.489 54.2019 183.117 53.796 183.293C53.5327 183.371 53.3684 183.59 53.1269 183.547C52.8854 183.503 52.6439 183.46 52.4241 183.295C51.9411 183.208 51.4363 183.242 50.9315 183.276C50.5474 183.331 50.0862 183.123 49.5813 183.157C48.835 183.147 48.0669 183.258 47.475 183.775C47.3325 183.874 47.0474 184.072 46.9049 184.171C46.2575 184.303 45.7963 184.095 45.1707 184.107C45.0499 184.085 45.0499 184.085 44.9292 184.064C44.9074 184.184 44.7649 184.283 44.6223 184.382C44.359 184.46 44.1175 184.416 43.8542 184.493C43.6127 184.45 43.4702 184.549 43.3494 184.527C43.1079 184.483 42.8664 184.44 42.8664 184.44C42.8664 184.44 42.9653 184.582 43.3276 184.648Z" fill="#E0A326"/>
<path opacity="0.34" d="M64.7241 187.01C63.9679 187.747 63.3324 188.505 62.6752 189.384C62.3683 189.703 62.1822 190.043 61.7764 190.219C61.5131 190.297 61.1291 190.352 60.8876 190.308C60.3827 190.342 59.7789 190.233 59.3731 190.409C59.1098 190.487 58.803 190.805 58.5179 191.003C58.2546 191.081 58.0131 191.037 57.629 191.092C56.3779 191.116 55.4118 190.942 54.226 190.603C53.0402 190.265 52.0405 189.586 50.8329 189.368C50.4706 189.303 50.2291 189.259 49.845 189.315C48.7146 189.36 47.5407 189.647 46.5648 190.219C45.7313 190.693 45.0305 191.813 44.2407 192.045C43.8348 192.221 43.2528 191.991 42.748 192.025C42.0017 192.015 41.3108 192.389 40.608 192.138C40.026 191.908 39.729 191.481 39.147 191.251C38.9055 191.207 38.664 191.164 38.5432 191.142C38.0602 191.055 37.4564 190.946 36.9951 190.738C36.5338 190.53 36.2151 190.224 35.8964 189.917C35.6984 189.632 35.6212 189.368 35.4232 189.083C35.3025 189.061 35.3025 189.061 35.2035 188.919C34.863 188.733 34.5225 188.547 34.182 188.361C34.0612 188.339 33.9623 188.196 33.8415 188.175C33.7207 188.153 33.7425 188.032 33.6218 188.01C33.501 187.989 33.6772 188.394 33.6554 188.515C33.7544 188.658 33.9741 188.822 34.2157 188.865C34.4354 189.03 34.7977 189.095 35.0174 189.259C35.1382 189.281 35.2372 189.424 35.3579 189.446C35.841 189.533 35.8964 189.917 36.0944 190.202C36.3913 190.629 36.7318 190.815 37.1931 191.023C37.6543 191.231 38.2364 191.461 38.7412 191.427C38.9827 191.471 39.2242 191.514 39.345 191.536C39.927 191.766 40.2239 192.193 40.806 192.423C41.487 192.795 42.1779 192.421 42.9242 192.431C43.429 192.397 43.8903 192.605 44.4168 192.451C45.3493 192.12 45.9075 191.098 46.7409 190.625C47.7169 190.053 48.8908 189.766 50.0212 189.721C50.3835 189.786 50.6468 189.709 51.0091 189.774C52.2167 189.992 53.2164 190.671 54.4022 191.009C55.588 191.348 56.5759 191.401 57.8052 191.498C58.0468 191.542 58.4308 191.486 58.6941 191.409C59.0782 191.354 59.2642 191.013 59.5493 190.815C59.9551 190.639 60.6797 190.77 61.0637 190.714C61.426 190.78 61.6893 190.702 61.9526 190.625C62.3584 190.449 62.5445 190.108 62.8514 189.79C63.4868 189.032 64.1441 188.153 64.9003 187.416C65.514 186.779 66.2049 186.405 65.995 185.494C65.7436 186.197 65.1952 186.472 64.7241 187.01Z" fill="#E0A326"/>
<path opacity="0.34" d="M66.4031 192.923L66.3813 193.044C66.316 193.406 66.1517 193.626 65.8666 193.824C65.4172 194.242 64.7481 194.495 64.0235 194.364C63.4197 194.255 62.6734 194.245 62.224 194.663C62.0597 194.883 61.7747 195.081 61.5114 195.158C61.2481 195.235 61.0066 195.192 60.7215 195.39C60.4364 195.588 60.3929 195.829 60.2068 196.17C59.8999 196.488 59.4941 196.665 58.9893 196.698C58.726 196.776 58.4845 196.732 58.3637 196.71L58.2212 196.809C57.7718 197.227 57.267 197.261 57.366 197.403C57.3442 197.524 58.2549 197.314 58.3974 197.215C58.6389 197.259 58.9022 197.181 59.2645 197.247C59.6485 197.191 60.1751 197.037 60.482 196.718C60.6463 196.498 60.7116 196.136 60.9967 195.938C61.26 195.861 61.5233 195.784 61.7865 195.706C62.0498 195.629 62.2142 195.41 62.4992 195.212C62.9486 194.794 63.8157 194.826 64.2987 194.913C64.9025 195.021 65.5716 194.768 66.1418 194.372C66.4268 194.174 66.5912 193.954 66.6565 193.592C66.601 193.208 66.5238 192.945 66.4031 192.923Z" fill="#E0A326"/>
<path opacity="0.34" d="M61.7126 199.559C61.0653 199.692 60.5387 199.846 60.5169 199.967C60.0893 200.264 59.5409 200.539 59.0579 200.452C58.9371 200.43 58.6956 200.387 58.5749 200.365C58.3333 200.321 58.07 200.398 57.9275 200.497C57.1376 200.729 56.3814 201.465 55.8885 202.125C55.5816 202.443 55.3738 202.905 54.9679 203.081C54.4414 203.235 53.9583 203.148 53.4317 203.303C52.9052 203.457 52.5548 204.017 52.0282 204.172C51.4798 204.447 50.9196 204.096 50.4365 204.009C49.9535 203.922 49.4487 203.956 48.9439 203.99C48.5598 204.045 48.0768 203.958 47.7581 203.651C47.6591 203.509 47.6808 203.388 47.5819 203.245C47.4611 203.223 47.3403 203.202 47.2414 203.059C46.5386 202.808 44.9568 201.899 44.1669 202.131C44.0244 202.23 43.8819 202.329 43.7393 202.428C43.3117 202.725 42.6426 202.978 42.2031 202.649C42.1041 202.507 42.0052 202.364 41.7636 202.321C41.6429 202.299 41.5004 202.398 41.3796 202.376C41.1163 202.453 40.8312 202.651 40.5897 202.608C40.3482 202.564 40.2274 202.543 40.0077 202.378C39.4257 202.149 38.9862 201.82 38.5467 201.491C38.3052 201.448 37.9429 201.382 37.7232 201.218C38.4596 201.974 39.1406 202.347 40.0631 202.762C40.3046 202.806 40.4036 202.948 40.6451 202.992C40.8867 203.035 41.15 202.958 41.435 202.76C41.5776 202.661 41.6983 202.683 41.8191 202.705C41.9398 202.727 42.0388 202.869 42.2586 203.033C42.6981 203.362 43.3672 203.109 43.7948 202.812C43.9373 202.713 44.0798 202.614 44.2224 202.515C45.0123 202.283 46.594 203.192 47.2968 203.443C47.4175 203.465 47.6373 203.629 47.7363 203.772C47.8353 203.914 47.8135 204.035 47.9125 204.178C48.1104 204.463 48.5935 204.55 49.0983 204.516C49.6031 204.483 50.1079 204.449 50.5909 204.536C51.1947 204.645 51.656 204.853 52.1826 204.698C52.7092 204.544 53.0596 203.984 53.5862 203.829C53.992 203.653 54.5958 203.762 55.0234 203.465C55.4292 203.289 55.6371 202.827 55.9439 202.509C56.4368 201.85 57.1931 201.113 57.9829 200.881C58.2462 200.804 58.3888 200.705 58.6303 200.749C58.751 200.771 58.9926 200.814 59.1133 200.836C59.5964 200.923 60.1447 200.648 60.5723 200.351C60.8574 200.153 63.8526 199.446 63.8526 199.446C63.8308 199.567 62.9637 199.535 61.7126 199.559Z" fill="#E0A326"/>
<path opacity="0.4" d="M41.6739 200.06C41.5432 200.785 40.8741 201.038 40.2703 200.929C39.7873 200.842 39.227 200.492 39.0508 200.086C38.8528 199.801 39.0607 199.34 39.3458 199.142C39.4883 199.043 39.6526 198.823 39.7952 198.724C40.0584 198.647 40.4207 198.712 40.783 198.777C41.2443 198.985 41.7827 199.456 41.6739 200.06ZM49.5964 198.995C49.1134 198.908 48.4878 198.92 47.9395 199.195C47.9395 199.195 47.8187 199.173 47.6979 199.151C46.5458 199.318 46.1855 200.624 47.1852 201.303C48.0642 201.961 49.7984 202.024 50.5764 201.167C50.8832 200.848 51.1128 200.266 50.9367 199.86C50.7822 199.334 50.2002 199.104 49.5964 198.995ZM52.2313 199.595C51.9681 199.672 51.7048 199.749 51.683 199.87C51.5405 199.969 51.4969 200.211 51.5959 200.353C51.6949 200.496 51.6513 200.737 51.8928 200.781C51.9918 200.923 52.2333 200.967 52.3759 200.868L52.4966 200.89C52.6174 200.911 52.9025 200.713 52.9242 200.593C53.0668 200.494 53.1103 200.252 53.0113 200.11C52.9124 199.967 52.9559 199.725 52.7144 199.682C52.5936 199.66 52.4946 199.518 52.2313 199.595ZM36.693 193.801C36.5722 193.779 36.5722 193.779 36.4732 193.636C36.3525 193.614 36.111 193.571 35.9684 193.67C35.8259 193.769 35.6834 193.868 35.6398 194.109C35.5963 194.351 35.5745 194.472 35.6735 194.614C35.6517 194.735 35.7507 194.877 35.8714 194.899C35.9922 194.921 35.9922 194.921 36.0912 195.064C36.2119 195.085 36.4535 195.129 36.596 195.03C36.7385 194.931 36.8811 194.832 36.9246 194.59C36.9682 194.349 36.9899 194.228 36.891 194.086C37.0335 193.987 36.8138 193.822 36.693 193.801ZM48.0542 195.101C48.5808 194.947 49.1074 194.792 49.337 194.21C49.5449 193.749 49.3687 193.343 48.9075 193.135C48.468 192.807 48.0839 192.862 47.5791 192.896C47.0961 192.809 46.712 192.864 46.328 192.919C46.2072 192.898 46.2072 192.898 46.0647 192.997C45.5381 193.151 44.7918 193.141 44.4631 193.581C44.1345 194.02 44.2889 194.547 44.7284 194.875C45.6074 195.533 47.1436 195.311 48.0542 195.101ZM43.2892 193.868C43.1902 193.725 43.2338 193.484 42.9922 193.44C42.9922 193.44 42.8715 193.418 42.8933 193.298C42.7943 193.155 42.5528 193.112 42.4102 193.211C42.2895 193.189 42.0044 193.387 41.9826 193.507C41.8401 193.606 41.7965 193.848 41.8955 193.991C41.9945 194.133 41.951 194.375 42.1925 194.418C42.1925 194.418 42.3132 194.44 42.2915 194.561C42.3904 194.703 42.632 194.747 42.7745 194.648C42.8953 194.67 43.1803 194.472 43.2021 194.351C43.2239 194.23 43.2674 193.989 43.2892 193.868ZM45.0373 203.534C44.1485 203.624 44.2712 205.017 45.2808 204.95C46.0489 204.839 45.9262 203.445 45.0373 203.534ZM60.6527 186.775C60.3458 187.093 60.1598 187.434 60.4785 187.741C60.5775 187.883 60.7972 188.047 60.9397 187.948C61.0605 187.97 61.3238 187.893 61.4446 187.915C61.5871 187.816 61.7296 187.717 61.8722 187.618C62.0147 187.519 62.0582 187.277 61.9593 187.135C61.981 187.014 61.7831 186.729 61.6623 186.707C61.5633 186.565 61.3218 186.521 61.1793 186.62C61.0803 186.478 60.817 186.555 60.6527 186.775ZM61.9018 185.379C62.2641 185.444 62.6699 185.268 63.0975 184.971C63.6677 184.575 64.3031 183.817 63.9508 183.005C63.7746 182.599 63.3351 182.271 62.8085 182.425C62.2819 182.58 61.8325 182.997 61.5039 183.437C61.3396 183.657 61.011 184.096 61.0882 184.359C61.1001 184.985 61.5396 185.314 61.9018 185.379ZM60.1796 193.547C60.3004 193.569 60.3221 193.448 60.4429 193.47C60.5854 193.371 60.7497 193.151 60.6508 193.008C60.6943 192.767 60.5953 192.624 60.4963 192.482C60.3974 192.339 60.1776 192.175 60.0351 192.274C59.9143 192.252 59.9143 192.252 59.7936 192.23C59.6728 192.209 59.552 192.187 59.5303 192.308C59.4095 192.286 59.3877 192.407 59.267 192.385C59.1462 192.363 59.1027 192.605 59.0591 192.846C59.0156 193.088 59.1145 193.23 59.2135 193.373C59.3125 193.515 59.5323 193.68 59.6748 193.581C59.7956 193.602 59.7956 193.602 59.9163 193.624C60.0371 193.646 60.1578 193.668 60.1796 193.547ZM64.9604 190.544C64.5645 189.974 63.6756 190.063 63.1273 190.338C62.4582 190.591 61.987 191.13 61.6366 191.69C61.4505 192.031 61.8247 192.721 62.1652 192.907C62.7254 193.258 63.9647 192.609 64.3923 192.312C64.9407 192.036 65.4554 191.256 64.9604 190.544ZM63.2481 197.965C62.8977 198.526 61.9653 198.856 61.3615 198.747C60.8785 198.66 60.4608 198.211 60.4053 197.827C60.3499 197.443 60.6567 197.124 61.0626 196.948C61.4902 196.651 61.9178 196.354 62.4226 196.32C63.1689 196.33 63.6203 197.284 63.2481 197.965ZM62.0069 197.243C62.0069 197.243 62.1276 197.265 62.0069 197.243V197.243ZM61.2605 197.233C61.1398 197.211 61.1398 197.211 61.2605 197.233V197.233ZM58.008 202.133C57.8872 202.111 57.8872 202.111 57.7665 202.089C57.525 202.046 57.3824 202.145 57.2399 202.244C57.0974 202.343 56.9331 202.562 57.032 202.705C56.9885 202.946 57.0875 203.089 57.1865 203.231C57.2854 203.374 57.5052 203.538 57.6477 203.439C57.7685 203.461 57.7685 203.461 57.8892 203.483C58.1307 203.526 58.2733 203.427 58.4158 203.328C58.5584 203.229 58.7227 203.01 58.6237 202.867C58.6672 202.626 58.5682 202.483 58.4693 202.341C58.3485 202.319 58.1288 202.154 58.008 202.133ZM39.2051 185.401C39.5337 184.961 39.1378 184.391 38.8408 183.964C38.5221 183.657 38.0826 183.328 37.6214 183.12C37.5006 183.099 37.3798 183.077 37.2591 183.055C36.776 182.968 36.4256 183.528 36.3603 183.89C36.295 184.253 36.8335 184.724 37.0314 185.009C37.5481 185.601 38.5696 186.159 39.2051 185.401ZM41.6223 187.208C41.644 187.087 41.644 187.087 41.6658 186.967C41.6876 186.846 41.7094 186.725 41.6104 186.583C41.5114 186.44 41.4342 186.177 41.1927 186.133C40.9947 185.848 40.7532 185.805 40.5117 185.761C40.5117 185.761 40.3909 185.739 40.3691 185.86C40.2484 185.838 39.9633 186.036 39.9415 186.157C39.7555 186.498 39.8109 186.882 40.1296 187.188C40.2286 187.331 40.4701 187.375 40.5909 187.396C40.8324 187.44 40.9532 187.462 41.1947 187.505C41.3154 187.527 41.4797 187.307 41.6223 187.208ZM55.0601 182.524C55.4442 182.469 55.751 182.15 55.6956 181.766C55.6402 181.382 55.3214 181.075 54.9374 181.131C54.8166 181.109 54.6741 181.208 54.4326 181.164C54.0485 181.22 53.7417 181.538 53.7971 181.922C53.8525 182.307 54.1713 182.613 54.5553 182.558C54.6761 182.58 54.9176 182.623 55.0601 182.524ZM57.2635 180.677C56.7804 180.59 56.6478 179.943 56.8339 179.602C57.1625 179.163 57.5129 178.603 57.9405 178.306C58.3899 177.888 59.158 177.777 59.5321 178.468C59.8073 179.016 59.4569 179.577 59.1283 180.016C58.7997 180.455 58.3721 180.752 57.9662 180.929C57.604 180.863 57.3624 180.82 57.2635 180.677ZM51.277 177.229C51.1562 177.207 51.1562 177.207 51.0354 177.185C50.7939 177.142 50.6514 177.241 50.5089 177.34C50.3663 177.439 50.202 177.658 50.301 177.801C50.2574 178.042 50.3564 178.185 50.4554 178.327C50.5544 178.47 50.7741 178.634 50.9167 178.535C51.0374 178.557 51.0374 178.557 51.1582 178.579C51.3997 178.622 51.5422 178.523 51.6848 178.424C51.8273 178.325 51.9916 178.106 51.8926 177.963C51.9362 177.722 51.8372 177.579 51.7382 177.437C51.6392 177.294 51.5185 177.272 51.277 177.229ZM53.1002 178.181C52.8369 178.258 52.6172 178.094 52.3974 177.93C52.1995 177.644 52.243 177.403 52.3084 177.041C52.3519 176.799 52.3737 176.678 52.4172 176.437C52.6469 175.855 53.5021 175.261 54.0405 175.732C54.5236 175.819 54.8205 176.247 54.7334 176.73C54.8007 177.739 53.7258 178.169 53.1002 178.181ZM54.2623 177.268C54.4048 177.169 54.2841 177.148 54.2623 177.268V177.268Z" fill="white"/>
<path opacity="0.35" d="M51.5499 199.223C51.8132 199.146 51.7577 198.762 51.4945 198.839C51.2529 198.796 51.2866 199.301 51.5499 199.223Z" fill="#E0A326"/>
<path opacity="0.35" d="M51.5968 201.725C51.8601 201.647 51.8046 201.263 51.5413 201.341C51.2998 201.297 51.3552 201.681 51.5968 201.725Z" fill="#E0A326"/>
<path opacity="0.35" d="M54.4495 201.117C54.7128 201.04 54.6573 200.656 54.394 200.733C54.0318 200.668 54.0654 201.173 54.4495 201.117Z" fill="#E0A326"/>
<path opacity="0.35" d="M58.9925 194.58C59.2557 194.503 59.2003 194.119 58.937 194.196C58.5747 194.131 58.6302 194.515 58.9925 194.58Z" fill="#E0A326"/>
<path opacity="0.35" d="M60.1241 194.534C60.3874 194.457 60.332 194.073 60.0687 194.15C59.8272 194.107 59.8826 194.491 60.1241 194.534Z" fill="#E0A326"/>
<path opacity="0.35" d="M64.3663 189.688C64.6296 189.611 64.5742 189.227 64.3109 189.304C64.0476 189.381 64.103 189.765 64.3663 189.688Z" fill="#E0A326"/>
<path opacity="0.35" d="M36.2737 193.35C36.537 193.273 36.4816 192.889 36.2183 192.966C35.856 192.901 35.9114 193.285 36.2737 193.35Z" fill="#E0A326"/>
<path opacity="0.35" d="M37.7804 195.368C38.0436 195.291 37.9882 194.907 37.7249 194.984C37.4834 194.94 37.5171 195.445 37.7804 195.368Z" fill="#E0A326"/>
<path opacity="0.35" d="M41.0069 201.685C41.2702 201.608 41.2148 201.224 40.9515 201.301C40.71 201.257 40.7436 201.762 41.0069 201.685Z" fill="#E0A326"/>
<path opacity="0.35" d="M42.5315 200.837C42.7948 200.76 42.7394 200.376 42.4761 200.453C42.1138 200.388 42.1692 200.772 42.5315 200.837Z" fill="#E0A326"/>
<path opacity="0.35" d="M46.5538 204.805C46.8171 204.728 46.7617 204.344 46.4984 204.421C46.2351 204.498 46.2905 204.882 46.5538 204.805Z" fill="#E0A326"/>
<path opacity="0.35" d="M56.4299 203.968C56.6932 203.891 56.6378 203.507 56.3745 203.584C56.0122 203.519 56.0459 204.024 56.4299 203.968Z" fill="#E0A326"/>
<path opacity="0.35" d="M57.8334 204.471C58.0967 204.394 58.0413 204.01 57.778 204.087C57.394 204.142 57.5702 204.548 57.8334 204.471Z" fill="#E0A326"/>
<path opacity="0.35" d="M53.3792 181.473C53.6425 181.396 53.587 181.012 53.3237 181.089C52.9615 181.023 53.0169 181.408 53.3792 181.473Z" fill="#E0A326"/>
<path opacity="0.35" d="M54.5382 180.56C54.8015 180.483 54.746 180.099 54.4827 180.176C54.2194 180.254 54.2749 180.638 54.5382 180.56Z" fill="#E0A326"/>
<path opacity="0.35" d="M38.9093 186.345C39.1726 186.268 39.1171 185.884 38.8538 185.961C38.6123 185.918 38.6677 186.302 38.9093 186.345Z" fill="#E0A326"/>
<path opacity="0.35" d="M38.5859 183.295C38.8274 183.338 38.7938 182.833 38.5305 182.911C38.2672 182.988 38.3226 183.372 38.5859 183.295Z" fill="#E0A326"/>
<path opacity="0.35" d="M41.9946 186.527C42.2579 186.449 42.2024 186.065 41.9609 186.022C41.5769 186.077 41.6323 186.461 41.9946 186.527Z" fill="#E0A326"/>
<path opacity="0.35" d="M42.2022 187.438C42.4655 187.361 42.4101 186.977 42.1468 187.054C41.9053 187.01 41.9389 187.515 42.2022 187.438Z" fill="#E0A326"/>
<path opacity="0.35" d="M48.6554 178.627C48.9186 178.549 48.8632 178.165 48.5999 178.242C48.3584 178.199 48.4138 178.583 48.6554 178.627Z" fill="#E0A326"/>
<path opacity="0.35" d="M48.6319 177.376C48.8952 177.299 48.8398 176.915 48.5765 176.992C48.335 176.948 48.3904 177.333 48.6319 177.376Z" fill="#E0A326"/>
<path opacity="0.35" d="M51.4405 177.008C51.7038 176.931 51.6484 176.547 51.3851 176.624C51.1436 176.581 51.1772 177.085 51.4405 177.008Z" fill="#E0A326"/>
<path opacity="0.35" d="M52.0733 176.25C52.3366 176.173 52.2812 175.789 52.0179 175.866C51.7764 175.822 51.8318 176.206 52.0733 176.25Z" fill="#E0A326"/>
</g>
<defs>
<linearGradient id="paint0_linear" x1="130.755" y1="326.647" x2="-49.2835" y2="93.2225" gradientUnits="userSpaceOnUse">
<stop stop-color="#E2BAE7"/>
<stop offset="1" stop-color="#EFEFEF"/>
</linearGradient>
<radialGradient id="paint1_radial" cx="0" cy="0" r="1" gradientUnits="userSpaceOnUse" gradientTransform="translate(-186.704 82.0278) rotate(100.222) scale(419.804 518.119)">
<stop stop-color="#F8F8F8"/>
<stop offset="1" stop-color="white"/>
</radialGradient>
<linearGradient id="paint2_linear" x1="-41.0599" y1="322.856" x2="383.791" y2="-185.732" gradientUnits="userSpaceOnUse">
<stop stop-color="#271A6B"/>
<stop offset="0.2115" stop-color="#2E1B71"/>
<stop offset="0.5268" stop-color="#431E81"/>
<stop offset="0.9052" stop-color="#64249B"/>
<stop offset="1" stop-color="#6D25A2"/>
</linearGradient>
<linearGradient id="paint3_linear" x1="86.038" y1="226.162" x2="186.9" y2="-165.113" gradientUnits="userSpaceOnUse">
<stop stop-color="#BD1ACD"/>
<stop offset="0.193" stop-color="#B61BC9"/>
<stop offset="0.4806" stop-color="#A11EBE"/>
<stop offset="0.8258" stop-color="#8022AC"/>
<stop offset="1" stop-color="#6D25A2"/>
</linearGradient>
<linearGradient id="paint4_linear" x1="59.9723" y1="136.532" x2="100.853" y2="143.904" gradientUnits="userSpaceOnUse">
<stop stop-color="#BD1ACD"/>
<stop offset="0.193" stop-color="#B61BC9"/>
<stop offset="0.4806" stop-color="#A11EBE"/>
<stop offset="0.8258" stop-color="#8022AC"/>
<stop offset="1" stop-color="#6D25A2"/>
</linearGradient>
<linearGradient id="paint5_linear" x1="333.768" y1="0.994205" x2="374.648" y2="8.36576" gradientUnits="userSpaceOnUse">
<stop stop-color="#BD1ACD"/>
<stop offset="0.193" stop-color="#B61BC9"/>
<stop offset="0.4806" stop-color="#A11EBE"/>
<stop offset="0.8258" stop-color="#8022AC"/>
<stop offset="1" stop-color="#6D25A2"/>
</linearGradient>
</defs>
</svg>
