<svg width="44" height="44" viewBox="0 0 44 44" fill="none" xmlns="http://www.w3.org/2000/svg">
<circle cx="22" cy="22" r="22" fill="white"/>
<path fill-rule="evenodd" clip-rule="evenodd" d="M22.1096 12C22.6619 12 23.1096 12.4477 23.1096 13V14.5C23.1096 15.0523 22.6619 15.5 22.1096 15.5C21.5574 15.5 21.1096 15.0523 21.1096 14.5V13C21.1096 12.4477 21.5574 12 22.1096 12ZM15.5211 14.398C15.9441 14.043 16.5749 14.0982 16.9299 14.5213L17.8941 15.6704C18.2491 16.0934 18.1939 16.7242 17.7708 17.0792C17.3478 17.4342 16.717 17.379 16.362 16.9559L15.3978 15.8069C15.0428 15.3838 15.098 14.7531 15.5211 14.398ZM28.6982 14.398C29.1213 14.7531 29.1765 15.3838 28.8215 15.8069L27.8573 16.9559C27.5023 17.379 26.8715 17.4342 26.4485 17.0792C26.0254 16.7242 25.9702 16.0934 26.3252 15.6704L27.2894 14.5213C27.6444 14.0982 28.2752 14.043 28.6982 14.398ZM22.1096 19C19.9005 19 18.1096 20.7909 18.1096 23V30H26.1096V23C26.1096 20.7909 24.3188 19 22.1096 19ZM28.1096 30V23C28.1096 19.6863 25.4233 17 22.1096 17C18.796 17 16.1096 19.6863 16.1096 23V30H13.1096C12.5574 30 12.1096 30.4477 12.1096 31C12.1096 31.5523 12.5574 32 13.1096 32H31.6096C32.1619 32 32.6096 31.5523 32.6096 31C32.6096 30.4477 32.1619 30 31.6096 30H28.1096ZM12.0154 20.4701C12.1113 19.9262 12.6299 19.563 13.1738 19.6589L14.651 19.9194C15.1949 20.0153 15.5581 20.5339 15.4622 21.0778C15.3663 21.6217 14.8476 21.9849 14.3037 21.889L12.8265 21.6286C12.2826 21.5327 11.9195 21.014 12.0154 20.4701ZM32.204 20.4701C32.2999 21.014 31.9367 21.5326 31.3928 21.6286L29.9156 21.8891C29.3717 21.985 28.853 21.6218 28.7571 21.0779C28.6612 20.534 29.0243 20.0154 29.5682 19.9194L31.0455 19.6589C31.5894 19.563 32.108 19.9262 32.204 20.4701Z" fill="#222222"/>
</svg>
