<svg width="133" height="138" viewBox="0 0 133 138" fill="none" xmlns="http://www.w3.org/2000/svg">
<mask id="mask0" mask-type="alpha" maskUnits="userSpaceOnUse" x="-1" y="0" width="134" height="138">
<rect x="-0.000488281" width="133" height="138" fill="#C4C4C4"/>
</mask>
<g mask="url(#mask0)">
<mask id="mask1" mask-type="alpha" maskUnits="userSpaceOnUse" x="-1" y="0" width="134" height="138">
<rect x="-0.000488281" width="133" height="138" fill="#C4C4C4"/>
</mask>
<g mask="url(#mask1)">
<path d="M12.37 114.603C29.3964 78.9821 62.827 55.9062 99.1161 51.9172C114.634 49.968 129.396 40.8819 131.349 26.4436C133.725 12.2083 113.837 -1.22343 89.878 4.76139C38.5136 17.9469 -0.850137 56.1605 -16.1982 103.529C-23.0707 124.992 -17.2633 144.448 -10.4255 144.856C-2.96118 145.043 4.75974 129.98 12.37 114.603Z" fill="url(#paint0_radial)"/>
<path d="M2.10566 122.455C14.689 73.2419 58.6608 40.1011 107.004 40.3208C114.358 40.1943 120.9 35.7709 121.526 29.5566C122.355 22.9183 115.424 17.2546 106.394 17.6202C47.822 21.3616 0.349248 64.5514 -9.81911 119.611C-11.4586 127.946 -9.11724 135.581 -5.85503 135.841C-2.90612 136.21 0.134303 129.849 2.10566 122.455Z" fill="url(#paint1_radial)"/>
<path d="M101.896 12.8607C104.734 12.917 107.572 12.9733 109.692 13.9883C114.06 17.3829 116.346 21.8648 116.955 26.5858C115.26 31.767 109.233 35.6559 102.819 35.4508C54.4764 35.231 10.4124 69.1095 -1.43365 118.416C-2.50214 123.376 -4.41847 127.93 -6.48248 130.068C-10.1136 126.766 -12.5656 118.817 -12.2164 108.823C-0.00195207 56.5662 45.7386 16.4554 101.896 12.8607Z" fill="url(#paint2_radial)"/>
<path d="M-5.74699 124.168C4.62407 68.6835 51.7835 25.6043 110.779 22.0659C118.022 21.6258 124.289 25.4083 125.635 30.2218C124.677 35.4955 121.599 39.7542 117.674 43.6069C115.794 44.2701 113.49 44.7303 111.389 44.7665C63.0463 44.5467 18.7611 77.7981 6.49109 126.901C6.399 127.639 6.19631 128.063 5.99362 128.487C2.82406 133.483 -0.253419 137.742 -3.47857 139.585C-5.6167 137.519 -6.77842 131.23 -5.74699 124.168Z" fill="url(#paint3_radial)"/>
<path d="M89.8799 40.7205C97.2898 49.7406 110.763 50.9808 119.774 43.5709C128.786 36.1609 130.02 22.6812 122.61 13.6612C115.2 4.64113 101.727 3.4009 92.7154 10.8109C83.7036 18.2208 82.47 31.7005 89.8799 40.7205Z" fill="url(#paint4_radial)"/>
<path opacity="0.5" d="M87.9092 42.1211C96.3882 52.1742 111.335 53.5994 121.49 45.4337C131.534 36.9546 132.951 21.9997 124.472 11.9466C116.307 1.78301 101.359 0.357862 91.205 8.5235C80.848 17.1132 79.4302 32.068 87.9092 42.1211Z" fill="url(#paint5_radial)"/>
<path d="M123.497 16.1692C116.087 7.14914 102.614 5.90891 93.6021 13.3189C87.2809 18.3694 84.9042 26.6115 86.3978 33.8408C83.5218 25.689 85.88 16.3958 93.0305 10.7001C101.618 3.08715 115.091 4.32738 122.612 13.661C124.971 16.3541 126.39 19.3789 127.294 22.9382C126.409 20.43 124.897 18.1428 123.497 16.1692Z" fill="url(#paint6_radial)"/>
<path opacity="0.25" d="M108.423 43.3454C117.435 35.9354 118.668 22.4557 111.258 13.4357C108.364 10.226 104.641 7.66147 100.734 6.57211C108.788 4.43581 117.45 7.02052 122.611 13.6609C130.021 22.681 128.788 36.1606 119.776 43.5706C114.081 48.4001 106.746 49.5777 100.093 47.6944C103.226 46.5891 105.935 45.2808 108.423 43.3454Z" fill="url(#paint7_radial)"/>
<path opacity="0.25" d="M84.9778 24.8223C85.6414 26.7034 86.9317 28.3636 88.222 30.0237C95.5213 38.7302 108.257 39.8779 116.955 32.5785C122.134 28.2837 124.548 22.1438 124.326 15.5235C129.948 24.4692 128.161 36.3812 119.979 43.146C110.967 50.556 97.4943 49.3158 90.0845 40.2957C86.1215 36.053 84.4438 30.2989 84.9778 24.8223Z" fill="url(#paint8_radial)"/>
<path d="M112.751 14.672C114.87 15.687 117.395 15.8538 118.317 14.4711C118.925 13.1989 117.837 11.1147 115.607 9.78622C113.377 8.45771 110.962 8.6044 110.354 9.87659C109.746 11.1488 110.834 13.2329 112.751 14.672Z" fill="url(#paint9_radial)"/>
<path d="M110.154 10.3005C110.984 9.6554 113.085 9.61926 114.891 10.7448C116.697 11.8703 117.988 13.5304 117.803 15.0056C116.661 15.7612 114.762 15.3733 112.753 14.6719C110.947 13.5464 109.86 11.4622 110.154 10.3005Z" fill="url(#paint10_radial)"/>
<path d="M106.669 21.4006C107.517 21.8066 108.567 21.7885 108.659 21.0509C109.175 20.5163 108.843 19.5758 107.996 19.1698C107.461 18.6532 106.411 18.6713 106.005 19.5194C105.489 20.054 105.821 20.9946 106.669 21.4006Z" fill="url(#paint11_radial)"/>
<path d="M106.669 21.4006C107.517 21.8066 108.567 21.7885 108.659 21.0509C109.175 20.5163 108.843 19.5758 107.996 19.1698C107.461 18.6532 106.411 18.6713 106.005 19.5194C105.489 20.054 105.821 20.9946 106.669 21.4006Z" fill="url(#paint12_radial)"/>
<path d="M106.005 19.5194C106.318 19.4089 106.945 19.1878 107.793 19.5938C108.327 20.1103 108.862 20.6269 108.456 21.475C107.94 22.0096 107.203 21.9171 106.668 21.4006C106.134 20.8841 105.599 20.3675 106.005 19.5194Z" fill="url(#paint13_radial)"/>
<path d="M104.422 31.007C103.242 29.6604 101.768 29.4755 100.939 30.1206C100.109 30.7657 99.7225 32.665 100.902 34.0116C101.658 35.1551 103.556 35.5431 104.386 34.8979C105.528 34.1423 105.602 32.3536 104.422 31.007Z" fill="url(#paint14_radial)"/>
<path d="M104.9 34.3625C103.96 34.6941 102.688 34.0852 101.73 33.3656C100.974 32.2221 100.845 30.8574 101.563 29.8988C102.503 29.5672 103.664 29.8626 104.42 31.0062C105.489 32.0392 105.416 33.8279 104.9 34.3625Z" fill="url(#paint15_radial)"/>
<path d="M112.161 28.9822C113.028 30.4393 114.723 31.2513 115.976 30.8092C117.119 30.0535 117.617 28.4678 116.75 27.0107C115.884 25.5536 114.188 24.7416 112.935 25.1837C111.792 25.9394 111.295 27.5251 112.161 28.9822Z" fill="url(#paint16_radial)"/>
<path d="M112.309 25.4038C113.673 25.2752 114.945 25.8842 115.498 27.4518C116.364 28.9089 115.867 30.4947 115.038 31.1398C113.987 31.1579 112.715 30.5489 111.96 29.4053C111.406 27.8377 111.591 26.3625 112.309 25.4038Z" fill="url(#paint17_radial)"/>
<path d="M106.503 11.9403C107.774 12.5493 108.714 12.2177 108.806 11.4801C108.899 10.7425 108.364 10.226 107.092 9.617C105.931 9.32155 104.881 9.33962 104.788 10.0772C104.696 10.8148 105.342 11.6449 106.503 11.9403Z" fill="url(#paint18_radial)"/>
<path d="M105.009 10.7039C105.525 10.1693 106.152 9.9482 107 10.3542C108.161 10.6496 108.696 11.1662 108.603 11.9038C108.401 12.3278 107.35 12.3459 106.502 11.9399C105.765 11.8475 105.12 11.0174 105.009 10.7039Z" fill="url(#paint19_radial)"/>
<path d="M118.629 20.3535C119.809 21.7001 121.284 21.885 121.8 21.3504C122.629 20.7053 122.389 19.0271 121.007 18.1046C119.624 17.182 118.353 16.5731 117.523 17.2182C116.694 17.8633 117.56 19.3204 118.629 20.3535Z" fill="url(#paint20_radial)"/>
<path d="M118.629 20.3535C119.809 21.7001 121.284 21.885 121.8 21.3504C122.629 20.7053 122.389 19.0271 121.007 18.1046C119.624 17.182 118.353 16.5731 117.523 17.2182C116.694 17.8633 117.56 19.3204 118.629 20.3535Z" fill="url(#paint21_radial)"/>
<path d="M117.635 17.5323C118.575 17.2007 119.423 17.6067 120.492 18.6397C121.561 19.6728 122.003 20.9269 121.598 21.775C120.971 21.9961 119.81 21.7007 118.741 20.6676C117.561 19.321 117.119 18.0669 117.635 17.5323Z" fill="url(#paint22_radial)"/>
<path d="M91.8526 33.3273C90.673 31.9807 89.5118 31.6852 88.6825 32.3304C87.8532 32.9755 88.4063 34.5431 89.162 35.6867C90.3417 37.0333 91.5028 37.3287 92.3321 36.6836C93.1614 36.0385 92.9217 34.3603 91.8526 33.3273Z" fill="url(#paint23_radial)"/>
<path d="M92.9564 36.4619C92.3298 36.683 91.058 36.074 89.9889 35.0409C88.9199 34.0079 88.7907 32.6432 89.1961 31.7951C89.8227 31.574 91.0945 32.183 92.1636 33.2161C92.9193 34.3597 93.0485 35.7243 92.9564 36.4619Z" fill="url(#paint24_radial)"/>
<g opacity="0.5">
<path opacity="0.5" d="M103.776 42.1605C102.505 41.5515 101.454 41.5696 101.049 42.4177C100.533 42.9523 101.288 44.0959 102.56 44.7048C103.721 45.0003 104.772 44.9822 105.288 44.4476C105.693 43.5995 105.048 42.7695 103.776 42.1605Z" fill="url(#paint25_radial)"/>
<path opacity="0.5" d="M103.776 42.1605C102.505 41.5515 101.454 41.5696 101.049 42.4177C100.533 42.9523 101.288 44.0959 102.56 44.7048C103.721 45.0003 104.772 44.9822 105.288 44.4476C105.693 43.5995 105.048 42.7695 103.776 42.1605Z" fill="url(#paint26_radial)"/>
<path opacity="0.5" d="M105.18 44.1364C104.664 44.671 103.816 44.265 102.655 43.9695C101.807 43.5635 101.162 42.7335 101.254 41.9959C101.77 41.4613 102.618 41.8673 103.779 42.1627C104.94 42.4582 105.272 43.3988 105.18 44.1364Z" fill="url(#paint27_radial)"/>
</g>
<path d="M97.6591 34.8043C96.8112 34.3983 95.7607 34.4164 95.558 34.8404C95.3553 35.2645 95.6872 36.2051 96.535 36.6111C97.3828 37.0171 98.4334 36.999 98.6361 36.5749C98.8388 36.1509 98.5069 35.2103 97.6591 34.8043Z" fill="url(#paint28_radial)"/>
<path d="M98.5276 36.2608C98.2143 36.3714 97.2744 36.703 96.7399 36.1864C95.892 35.7805 95.6708 35.1534 95.4496 34.5263C95.7629 34.4158 96.7028 34.0842 97.2373 34.6007C98.1958 35.3202 98.7303 35.8368 98.5276 36.2608Z" fill="url(#paint29_radial)"/>
<path d="M93.9151 19.2015C94.6153 17.1917 94.2649 15.2 92.9932 14.591C91.7214 13.982 90.0628 15.2723 89.1599 17.7061C88.4597 19.7159 88.6074 22.1317 90.0819 22.3166C91.3536 22.9256 93.0123 21.6353 93.9151 19.2015Z" fill="url(#paint30_radial)"/>
<path d="M93.9151 19.2015C94.6153 17.1917 94.2649 15.2 92.9932 14.591C91.7214 13.982 90.0628 15.2723 89.1599 17.7061C88.4597 19.7159 88.6074 22.1317 90.0819 22.3166C91.3536 22.9256 93.0123 21.6353 93.9151 19.2015Z" fill="url(#paint31_radial)"/>
<path d="M90.5092 22.5194C89.8641 21.6893 89.6243 20.0111 90.3245 18.0014C91.0247 15.9916 92.37 14.8119 93.4205 14.7938C94.0657 15.6238 94.3054 17.302 93.6052 19.3118C93.2184 21.211 91.8731 22.3908 90.5092 22.5194Z" fill="url(#paint32_radial)"/>
<path d="M96.4416 13.3756C97.1603 12.417 97.2524 11.6794 96.7179 11.1629C96.1833 10.6463 95.2434 10.9779 94.838 11.8261C94.0087 12.4712 94.0273 13.5223 94.4512 13.7253C94.9857 14.2418 95.6123 14.0208 96.4416 13.3756Z" fill="url(#paint33_radial)"/>
<path d="M94.5618 14.0387C94.4512 13.7252 94.5432 12.9876 95.3726 12.3424C95.8886 11.8078 96.8285 11.4762 97.2524 11.6792C97.363 11.9928 97.2709 12.7304 96.4416 13.3755C95.9256 13.9101 94.9857 14.2417 94.5618 14.0387Z" fill="url(#paint34_radial)"/>
<path d="M122.592 30.5895C122.187 31.4376 122.519 32.3782 122.943 32.5812C123.367 32.7842 124.196 32.1391 124.601 31.2909C125.007 30.4428 124.675 29.5022 124.251 29.2992C123.403 28.8932 122.887 29.4278 122.592 30.5895Z" fill="url(#paint35_radial)"/>
<path d="M122.592 30.5895C122.187 31.4376 122.519 32.3782 122.943 32.5812C123.367 32.7842 124.196 32.1391 124.601 31.2909C125.007 30.4428 124.675 29.5022 124.251 29.2992C123.403 28.8932 122.887 29.4278 122.592 30.5895Z" fill="url(#paint36_radial)"/>
<path d="M123.829 29.0958C124.253 29.2988 124.272 30.35 124.18 31.0875C123.774 31.9357 123.258 32.4703 122.945 32.5808C122.521 32.3778 122.502 31.3267 122.595 30.5891C123 29.741 123.516 29.2064 123.829 29.0958Z" fill="url(#paint37_radial)"/>
<path d="M97.1078 39.229C95.3015 38.1035 93.2005 38.1396 92.5924 39.4118C91.9843 40.684 92.9613 42.4547 95.0809 43.4696C96.8872 44.5951 98.9882 44.559 99.5963 43.2868C99.8911 42.1252 98.9141 40.3545 97.1078 39.229Z" fill="url(#paint38_radial)"/>
<path d="M99.486 42.972C98.6567 43.6171 96.8689 43.5427 95.1733 42.7307C93.4776 41.9187 92.6112 40.4616 92.5927 39.4105C93.422 38.7654 95.2098 38.8398 96.9054 39.6517C98.6011 40.4637 99.7808 41.8103 99.486 42.972Z" fill="url(#paint39_radial)"/>
<path opacity="0.5" d="M89.1255 27.5904C89.2361 27.9039 89.9734 27.9963 90.176 27.5723C90.4893 27.4617 90.5814 26.7242 90.1575 26.5212C90.0469 26.2076 89.3097 26.1152 89.107 26.5392C88.9043 26.9633 89.0149 27.2768 89.1255 27.5904Z" fill="url(#paint40_radial)"/>
<path opacity="0.5" d="M91.7984 30.173C91.909 30.4865 92.2223 30.376 92.5356 30.2655C92.8489 30.1549 92.7383 29.8414 92.6277 29.5279C92.5171 29.2144 92.2038 29.3249 91.8905 29.4354C91.6878 29.8595 91.7984 30.173 91.7984 30.173Z" fill="url(#paint41_radial)"/>
<path opacity="0.5" d="M121.561 25.6653C121.672 25.9789 122.409 26.0713 122.612 25.6473C122.925 25.5367 123.017 24.7991 122.593 24.5961C122.483 24.2826 121.856 24.5037 121.543 24.6142C121.34 25.0383 121.137 25.4623 121.561 25.6653Z" fill="url(#paint42_radial)"/>
<path opacity="0.5" d="M116.658 21.7548C116.769 22.0683 117.082 21.9578 117.395 21.8472C117.709 21.7367 117.598 21.4232 117.487 21.1097C117.377 20.7961 116.953 20.5931 116.75 21.0172C116.437 21.1277 116.548 21.4413 116.658 21.7548Z" fill="url(#paint43_radial)"/>
<path opacity="0.5" d="M116.807 36.1569C117.452 36.9869 118.927 37.1718 120.07 36.4162C120.899 35.771 121.083 34.2959 120.327 33.1523C119.682 32.3222 118.208 32.1373 117.065 32.893C116.346 33.8516 116.162 35.3268 116.807 36.1569Z" fill="url(#paint44_radial)"/>
<path opacity="0.5" d="M112.364 34.551C112.474 34.8646 113.212 34.957 113.414 34.533C113.728 34.4224 113.82 33.6849 113.396 33.4819C113.285 33.1683 112.548 33.0759 112.345 33.4999C112.143 33.924 111.94 34.3481 112.364 34.551Z" fill="url(#paint45_radial)"/>
<path opacity="0.5" d="M114.099 37.4647C114.523 37.6677 114.837 37.5572 115.15 37.4466C115.463 37.3361 115.353 37.0226 115.242 36.709C115.131 36.3955 114.818 36.506 114.505 36.6166C113.878 36.8376 113.989 37.1512 114.099 37.4647Z" fill="url(#paint46_radial)"/>
<path opacity="0.5" d="M124.877 23.0851C124.988 23.3987 125.301 23.2881 125.615 23.1776C125.928 23.0671 125.817 22.7535 125.707 22.44C125.596 22.1265 125.283 22.237 124.97 22.3475C124.656 22.4581 124.454 22.8821 124.877 23.0851Z" fill="url(#paint47_radial)"/>
<path opacity="0.5" d="M113.34 18.342C113.451 18.6555 113.764 18.545 114.077 18.4344C114.39 18.3239 114.28 18.0104 114.169 17.6968C114.059 17.3833 113.745 17.4938 113.432 17.6044C113.229 18.0284 113.34 18.342 113.34 18.342Z" fill="url(#paint48_radial)"/>
<path opacity="0.5" d="M100.75 13.6169C101.285 14.1334 102.022 14.2259 102.648 14.0048C103.164 13.4702 103.146 12.4191 102.611 11.9026C102.077 11.386 101.34 11.2936 100.824 11.8282C100.308 12.3628 100.216 13.1004 100.75 13.6169Z" fill="url(#paint49_radial)"/>
<path opacity="0.5" d="M107.203 15.9242C107.313 16.2378 107.627 16.1272 107.94 16.0167C108.253 15.9062 108.143 15.5926 108.032 15.2791C107.921 14.9656 107.608 15.0761 107.295 15.1866C106.981 15.2972 106.779 15.7212 107.203 15.9242Z" fill="url(#paint50_radial)"/>
<path opacity="0.5" d="M100.899 10.0396C101.01 10.3531 101.747 10.4456 101.95 10.0215C102.153 9.59744 102.355 9.17338 101.931 8.97038C101.821 8.65685 101.084 8.56439 100.881 8.98846C100.568 9.09899 100.789 9.72605 100.899 10.0396Z" fill="url(#paint51_radial)"/>
<path opacity="0.5" d="M106.227 8.16008C106.338 8.47361 106.651 8.36307 106.964 8.25254C107.278 8.142 107.167 7.82847 107.056 7.51495C106.946 7.20142 106.632 7.31195 106.319 7.42248C106.116 7.84655 106.227 8.16008 106.227 8.16008Z" fill="url(#paint52_radial)"/>
<path opacity="0.5" d="M95.3903 19.3863C96.0354 20.2164 97.1966 20.5118 98.3392 19.7562C99.1685 19.111 99.0394 17.7464 98.3942 16.9163C97.7491 16.0863 96.5879 15.7908 95.5559 16.86C94.7266 17.5051 94.7451 18.5563 95.3903 19.3863Z" fill="url(#paint53_radial)"/>
<path opacity="0.5" d="M102.246 20.8457C102.357 21.1593 103.094 21.2517 103.297 20.8277C103.61 20.7171 103.702 19.9795 103.278 19.7765C103.168 19.463 102.43 19.3705 102.228 19.7946C102.228 19.7946 102.136 20.5322 102.246 20.8457Z" fill="url(#paint54_radial)"/>
<path opacity="0.5" d="M87.3724 23.6257C87.483 23.9392 87.7963 23.8287 88.1096 23.7182C88.4229 23.6076 88.3123 23.2941 88.2017 22.9806C87.9805 22.3535 87.6672 22.4641 87.3539 22.5746C87.1512 22.9986 87.2618 23.3122 87.3724 23.6257Z" fill="url(#paint55_radial)"/>
<path opacity="0.5" d="M94.3034 29.2889C94.7273 29.4919 95.1512 29.6949 95.4645 29.5844C95.6672 29.1603 95.8699 28.7362 95.7593 28.4227C95.3354 28.2197 94.9115 28.0167 94.5982 28.1273C93.9715 28.3483 93.8795 29.0859 94.3034 29.2889Z" fill="url(#paint56_radial)"/>
<path opacity="0.5" d="M97.0855 32.1851C97.1961 32.4986 97.9333 32.5911 98.136 32.167C98.4493 32.0565 98.5414 31.3189 98.1175 31.1159C98.0069 30.8024 97.2696 30.7099 97.0669 31.134C96.7536 31.2445 96.6616 31.9821 97.0855 32.1851Z" fill="url(#paint57_radial)"/>
<path opacity="0.5" d="M107.814 32.6314C107.925 32.9449 108.662 33.0374 108.865 32.6133C109.178 32.5028 109.27 31.7652 108.846 31.5622C108.736 31.2486 107.999 31.1562 107.796 31.5803C107.593 32.0043 107.704 32.3178 107.814 32.6314Z" fill="url(#paint58_radial)"/>
<path opacity="0.5" d="M100.977 38.2161C101.087 38.5296 101.824 38.6221 102.027 38.198C102.34 38.0875 102.433 37.3499 102.009 37.1469C101.898 36.8334 101.161 36.7409 100.958 37.165C100.645 37.2755 100.755 37.589 100.977 38.2161Z" fill="url(#paint59_radial)"/>
<path opacity="0.5" d="M102.689 40.0798C102.799 40.3933 103.112 40.2827 103.426 40.1722C103.739 40.0617 103.628 39.7481 103.518 39.4346C103.407 39.1211 103.094 39.2316 102.781 39.3422C102.781 39.3422 102.578 39.7662 102.689 40.0798Z" fill="url(#paint60_radial)"/>
<path opacity="0.5" d="M107.096 45.5763C107.631 46.0929 108.368 46.1853 108.884 45.6507C109.4 45.1161 109.492 44.3785 108.958 43.862C108.423 43.3455 107.686 43.253 107.17 43.7876C106.654 44.3222 106.562 45.0598 107.096 45.5763Z" fill="url(#paint61_radial)"/>
<path opacity="0.5" d="M105.122 46.9775C105.233 47.291 105.546 47.1805 105.859 47.0699C106.173 46.9594 106.062 46.6459 105.951 46.3323C105.841 46.0188 105.528 46.1293 105.214 46.2399C105.012 46.6639 105.122 46.9775 105.122 46.9775Z" fill="url(#paint62_radial)"/>
<path opacity="0.5" d="M100.277 46.2192C100.388 46.5327 100.701 46.4222 100.701 46.4222C101.015 46.3116 100.904 45.9981 100.904 45.9981C100.793 45.6846 100.48 45.7951 100.48 45.7951C100.056 45.5921 100.167 45.9056 100.277 46.2192Z" fill="url(#paint63_radial)"/>
<path opacity="0.5" d="M89.8433 38.6181C89.9539 38.9316 90.2672 38.8211 90.5805 38.7105C90.8938 38.6 90.7832 38.2865 90.6726 37.973C90.562 37.6594 90.2487 37.77 89.9354 37.8805C89.7327 38.3046 89.8433 38.6181 89.8433 38.6181Z" fill="url(#paint64_radial)"/>
<path opacity="0.5" d="M86.2301 30.3742C86.3407 30.6877 86.654 30.5772 86.654 30.5772C86.9673 30.4667 86.8567 30.1531 86.8567 30.1531C86.7461 29.8396 86.4328 29.9501 86.4328 29.9501C86.4328 29.9501 86.1195 30.0607 86.2301 30.3742Z" fill="url(#paint65_radial)"/>
<path opacity="0.5" d="M95.4845 30.6352C99.7793 35.8185 107.465 36.6325 112.957 32.2272C118.135 27.9323 118.835 19.9293 114.54 14.746C110.245 9.5627 102.246 8.85916 97.0679 13.154C91.8893 17.4489 91.0791 25.1383 95.4845 30.6352Z" fill="url(#paint66_radial)"/>
</g>
</g>
<defs>
<radialGradient id="paint0_radial" cx="0" cy="0" r="1" gradientUnits="userSpaceOnUse" gradientTransform="translate(114.344 6.72985) rotate(140.342) scale(183.094 145.983)">
<stop offset="0.0814815" stop-color="#FFE245"/>
<stop offset="0.5259" stop-color="#DE007B" stop-opacity="0.4741"/>
<stop offset="1" stop-color="#E38427" stop-opacity="0"/>
</radialGradient>
<radialGradient id="paint1_radial" cx="0" cy="0" r="1" gradientUnits="userSpaceOnUse" gradientTransform="translate(107.027 15.2406) rotate(140.342) scale(171.021 60.5884)">
<stop offset="0.0814815" stop-color="#FFE245"/>
<stop offset="0.5259" stop-color="#DE007B" stop-opacity="0.4741"/>
<stop offset="1" stop-color="#E38427" stop-opacity="0"/>
</radialGradient>
<radialGradient id="paint2_radial" cx="0" cy="0" r="1" gradientUnits="userSpaceOnUse" gradientTransform="translate(101.868 11.2994) rotate(140.341) scale(155.123 155.207)">
<stop offset="0.0814815" stop-color="#FFE245"/>
<stop offset="0.5259" stop-color="#DE007B" stop-opacity="0.4741"/>
<stop offset="1" stop-color="#E38427" stop-opacity="0"/>
</radialGradient>
<radialGradient id="paint3_radial" cx="0" cy="0" r="1" gradientUnits="userSpaceOnUse" gradientTransform="translate(111.073 19.3552) rotate(140.341) scale(160.39 160.477)">
<stop offset="0.0814815" stop-color="#FFE245"/>
<stop offset="0.5259" stop-color="#DE007B" stop-opacity="0.4741"/>
<stop offset="1" stop-color="#E38427" stop-opacity="0"/>
</radialGradient>
<radialGradient id="paint4_radial" cx="0" cy="0" r="1" gradientUnits="userSpaceOnUse" gradientTransform="translate(102.147 13.2267) rotate(140.427) scale(33.4404 33.4585)">
<stop offset="0.0814815" stop-color="#FFE245"/>
<stop offset="0.9963" stop-color="#E38427"/>
</radialGradient>
<radialGradient id="paint5_radial" cx="0" cy="0" r="1" gradientUnits="userSpaceOnUse" gradientTransform="translate(101.66 11.5924) rotate(140.427) scale(37.3895 37.4098)">
<stop offset="0.0814815" stop-color="#FFE245"/>
<stop offset="0.9963" stop-color="#E38427"/>
</radialGradient>
<radialGradient id="paint6_radial" cx="0" cy="0" r="1" gradientUnits="userSpaceOnUse" gradientTransform="translate(101.198 11.2733) rotate(140.427) scale(27.7722 27.7872)">
<stop offset="0.0814815" stop-color="#FFE245"/>
<stop offset="0.9963" stop-color="#E38427"/>
</radialGradient>
<radialGradient id="paint7_radial" cx="0" cy="0" r="1" gradientUnits="userSpaceOnUse" gradientTransform="translate(104.226 13.6435) rotate(140.427) scale(31.3778 31.3947)">
<stop offset="0.0814815" stop-color="#FFE245"/>
<stop offset="0.9963" stop-color="#E38427"/>
</radialGradient>
<radialGradient id="paint8_radial" cx="0" cy="0" r="1" gradientUnits="userSpaceOnUse" gradientTransform="translate(120.704 62.2717) rotate(140.427) scale(29.0444 29.0601)">
<stop offset="0.0814815" stop-color="#FFE245"/>
<stop offset="0.9963" stop-color="#E38427"/>
</radialGradient>
<radialGradient id="paint9_radial" cx="0" cy="0" r="1" gradientUnits="userSpaceOnUse" gradientTransform="translate(108.419 10.1557) rotate(120.484) scale(10.2004 10.2017)">
<stop offset="0.0814815" stop-color="#FFE245"/>
<stop offset="0.9963" stop-color="#E38427"/>
</radialGradient>
<radialGradient id="paint10_radial" cx="0" cy="0" r="1" gradientUnits="userSpaceOnUse" gradientTransform="translate(108.364 10.5182) rotate(120.484) scale(9.8671 9.8683)">
<stop offset="0.0814815" stop-color="#FFE245"/>
<stop offset="0.9963" stop-color="#E38427"/>
</radialGradient>
<radialGradient id="paint11_radial" cx="0" cy="0" r="1" gradientUnits="userSpaceOnUse" gradientTransform="translate(105.229 19.6381) rotate(120.485) scale(4.98063 3.66555)">
<stop offset="0.0814815" stop-color="#FFE245"/>
<stop offset="0.9963" stop-color="#E38427"/>
</radialGradient>
<radialGradient id="paint12_radial" cx="0" cy="0" r="1" gradientUnits="userSpaceOnUse" gradientTransform="translate(105.229 19.6381) rotate(120.485) scale(4.98063 3.66555)">
<stop offset="0.0814815" stop-color="#FFE245"/>
<stop offset="0.9963" stop-color="#E38427"/>
</radialGradient>
<radialGradient id="paint13_radial" cx="0" cy="0" r="1" gradientUnits="userSpaceOnUse" gradientTransform="translate(105.185 19.8063) rotate(120.485) scale(4.81761 3.54557)">
<stop offset="0.0814815" stop-color="#FFE245"/>
<stop offset="0.9963" stop-color="#E38427"/>
</radialGradient>
<radialGradient id="paint14_radial" cx="0" cy="0" r="1" gradientUnits="userSpaceOnUse" gradientTransform="translate(105.869 34.9311) rotate(-37.453) scale(8.87497 6.53492)">
<stop offset="0.0814815" stop-color="#FFE245"/>
<stop offset="0.9963" stop-color="#E38427"/>
</radialGradient>
<radialGradient id="paint15_radial" cx="0" cy="0" r="1" gradientUnits="userSpaceOnUse" gradientTransform="translate(106.051 34.6805) rotate(-37.4529) scale(8.58512 6.32148)">
<stop offset="0.0814815" stop-color="#FFE245"/>
<stop offset="0.9963" stop-color="#E38427"/>
</radialGradient>
<radialGradient id="paint16_radial" cx="0" cy="0" r="1" gradientUnits="userSpaceOnUse" gradientTransform="translate(111.453 24.7937) rotate(153.494) scale(9.66559 7.11812)">
<stop offset="0.0814815" stop-color="#FFE245"/>
<stop offset="0.9963" stop-color="#E38427"/>
</radialGradient>
<radialGradient id="paint17_radial" cx="0" cy="0" r="1" gradientUnits="userSpaceOnUse" gradientTransform="translate(111.207 25.0212) rotate(153.494) scale(9.34959 6.88539)">
<stop offset="0.0814815" stop-color="#FFE245"/>
<stop offset="0.9963" stop-color="#E38427"/>
</radialGradient>
<radialGradient id="paint18_radial" cx="0" cy="0" r="1" gradientUnits="userSpaceOnUse" gradientTransform="translate(104.264 10.6012) rotate(109.039) scale(4.47813 4.47741)">
<stop offset="0.0814815" stop-color="#FFE245"/>
<stop offset="0.9963" stop-color="#E38427"/>
</radialGradient>
<radialGradient id="paint19_radial" cx="0" cy="0" r="1" gradientUnits="userSpaceOnUse" gradientTransform="translate(104.27 10.7616) rotate(109.039) scale(4.33188 4.33119)">
<stop offset="0.0814815" stop-color="#FFE245"/>
<stop offset="0.9963" stop-color="#E38427"/>
</radialGradient>
<radialGradient id="paint20_radial" cx="0" cy="0" r="1" gradientUnits="userSpaceOnUse" gradientTransform="translate(116.613 17.0203) rotate(135.565) scale(6.59927 6.60227)">
<stop offset="0.0814815" stop-color="#FFE245"/>
<stop offset="0.9963" stop-color="#E38427"/>
</radialGradient>
<radialGradient id="paint21_radial" cx="0" cy="0" r="1" gradientUnits="userSpaceOnUse" gradientTransform="translate(116.613 17.0203) rotate(135.565) scale(6.59927 6.60227)">
<stop offset="0.0814815" stop-color="#FFE245"/>
<stop offset="0.9963" stop-color="#E38427"/>
</radialGradient>
<radialGradient id="paint22_radial" cx="0" cy="0" r="1" gradientUnits="userSpaceOnUse" gradientTransform="translate(116.517 17.2376) rotate(135.565) scale(6.38395 6.38686)">
<stop offset="0.0814815" stop-color="#FFE245"/>
<stop offset="0.9963" stop-color="#E38427"/>
</radialGradient>
<radialGradient id="paint23_radial" cx="0" cy="0" r="1" gradientUnits="userSpaceOnUse" gradientTransform="translate(93.7349 36.8406) rotate(-41.0012) scale(6.599 6.60242)">
<stop offset="0.0814815" stop-color="#FFE245"/>
<stop offset="0.9963" stop-color="#E38427"/>
</radialGradient>
<radialGradient id="paint24_radial" cx="0" cy="0" r="1" gradientUnits="userSpaceOnUse" gradientTransform="translate(93.8424 36.629) rotate(-41.0012) scale(6.38337 6.38667)">
<stop offset="0.0814815" stop-color="#FFE245"/>
<stop offset="0.9963" stop-color="#E38427"/>
</radialGradient>
<radialGradient id="paint25_radial" cx="0" cy="0" r="1" gradientUnits="userSpaceOnUse" gradientTransform="translate(106.127 44.1331) rotate(-61.3563) scale(5.05206 5.05245)">
<stop offset="0.0814815" stop-color="#FFE245"/>
<stop offset="0.9963" stop-color="#E38427"/>
</radialGradient>
<radialGradient id="paint26_radial" cx="0" cy="0" r="1" gradientUnits="userSpaceOnUse" gradientTransform="translate(106.127 44.1331) rotate(-61.3563) scale(5.05206 5.05245)">
<stop offset="0.0814815" stop-color="#FFE245"/>
<stop offset="0.9963" stop-color="#E38427"/>
</radialGradient>
<radialGradient id="paint27_radial" cx="0" cy="0" r="1" gradientUnits="userSpaceOnUse" gradientTransform="translate(106.153 43.9549) rotate(-61.3563) scale(4.88722 4.88759)">
<stop offset="0.0814815" stop-color="#FFE245"/>
<stop offset="0.9963" stop-color="#E38427"/>
</radialGradient>
<radialGradient id="paint28_radial" cx="0" cy="0" r="1" gradientUnits="userSpaceOnUse" gradientTransform="translate(99.2627 36.3655) rotate(-61.3562) scale(3.99718 3.99749)">
<stop offset="0.0814815" stop-color="#FFE245"/>
<stop offset="0.9963" stop-color="#E38427"/>
</radialGradient>
<radialGradient id="paint29_radial" cx="0" cy="0" r="1" gradientUnits="userSpaceOnUse" gradientTransform="translate(99.2828 36.2225) rotate(-61.3563) scale(3.86691 3.8672)">
<stop offset="0.0814815" stop-color="#FFE245"/>
<stop offset="0.9963" stop-color="#E38427"/>
</radialGradient>
<radialGradient id="paint30_radial" cx="0" cy="0" r="1" gradientUnits="userSpaceOnUse" gradientTransform="translate(90.6287 23.9854) rotate(20.8337) scale(9.32822 9.32931)">
<stop offset="0.0814815" stop-color="#FFE245"/>
<stop offset="0.9963" stop-color="#E38427"/>
</radialGradient>
<radialGradient id="paint31_radial" cx="0" cy="0" r="1" gradientUnits="userSpaceOnUse" gradientTransform="translate(90.6287 23.9854) rotate(20.8337) scale(9.32822 9.32931)">
<stop offset="0.0814815" stop-color="#FFE245"/>
<stop offset="0.9963" stop-color="#E38427"/>
</radialGradient>
<radialGradient id="paint32_radial" cx="0" cy="0" r="1" gradientUnits="userSpaceOnUse" gradientTransform="translate(90.9676 23.9816) rotate(20.8338) scale(9.02379 9.02484)">
<stop offset="0.0814815" stop-color="#FFE245"/>
<stop offset="0.9963" stop-color="#E38427"/>
</radialGradient>
<radialGradient id="paint33_radial" cx="0" cy="0" r="1" gradientUnits="userSpaceOnUse" gradientTransform="translate(94.3571 14.5737) rotate(43.5626) scale(3.99851 3.99684)">
<stop offset="0.0814815" stop-color="#FFE245"/>
<stop offset="0.9963" stop-color="#E38427"/>
</radialGradient>
<radialGradient id="paint34_radial" cx="0" cy="0" r="1" gradientUnits="userSpaceOnUse" gradientTransform="translate(94.4906 14.6275) rotate(43.5625) scale(3.86754 3.86593)">
<stop offset="0.0814815" stop-color="#FFE245"/>
<stop offset="0.9963" stop-color="#E38427"/>
</radialGradient>
<radialGradient id="paint35_radial" cx="0" cy="0" r="1" gradientUnits="userSpaceOnUse" gradientTransform="translate(123.89 28.4722) rotate(-161.586) scale(3.99732 3.99802)">
<stop offset="0.0814815" stop-color="#FFE245"/>
<stop offset="0.9963" stop-color="#E38427"/>
</radialGradient>
<radialGradient id="paint36_radial" cx="0" cy="0" r="1" gradientUnits="userSpaceOnUse" gradientTransform="translate(123.89 28.4722) rotate(-161.586) scale(3.99732 3.99802)">
<stop offset="0.0814815" stop-color="#FFE245"/>
<stop offset="0.9963" stop-color="#E38427"/>
</radialGradient>
<radialGradient id="paint37_radial" cx="0" cy="0" r="1" gradientUnits="userSpaceOnUse" gradientTransform="translate(123.748 28.4793) rotate(-161.586) scale(3.86672 3.8674)">
<stop offset="0.0814815" stop-color="#FFE245"/>
<stop offset="0.9963" stop-color="#E38427"/>
</radialGradient>
<radialGradient id="paint38_radial" cx="0" cy="0" r="1" gradientUnits="userSpaceOnUse" gradientTransform="translate(100.945 42.9775) rotate(-61.5428) scale(8.84029 8.84092)">
<stop offset="0.0814815" stop-color="#FFE245"/>
<stop offset="0.9963" stop-color="#E38427"/>
</radialGradient>
<radialGradient id="paint39_radial" cx="0" cy="0" r="1" gradientUnits="userSpaceOnUse" gradientTransform="translate(100.984 42.6604) rotate(-61.5428) scale(8.55149 8.5521)">
<stop offset="0.0814815" stop-color="#FFE245"/>
<stop offset="0.9963" stop-color="#E38427"/>
</radialGradient>
<radialGradient id="paint40_radial" cx="0" cy="0" r="1" gradientUnits="userSpaceOnUse" gradientTransform="translate(88.9107 26.7815) rotate(140.427) scale(1.54862 1.54946)">
<stop offset="0.0814815" stop-color="#FFE245"/>
<stop offset="0.9963" stop-color="#E38427"/>
</radialGradient>
<radialGradient id="paint41_radial" cx="0" cy="0" r="1" gradientUnits="userSpaceOnUse" gradientTransform="translate(91.7725 29.6935) rotate(140.427) scale(0.995427 0.995963)">
<stop offset="0.0814815" stop-color="#FFE245"/>
<stop offset="0.9963" stop-color="#E38427"/>
</radialGradient>
<radialGradient id="paint42_radial" cx="0" cy="0" r="1" gradientUnits="userSpaceOnUse" gradientTransform="translate(121.181 24.6871) rotate(140.427) scale(1.7699 1.77086)">
<stop offset="0.0814815" stop-color="#FFE245"/>
<stop offset="0.9963" stop-color="#E38427"/>
</radialGradient>
<radialGradient id="paint43_radial" cx="0" cy="0" r="1" gradientUnits="userSpaceOnUse" gradientTransform="translate(116.458 20.9699) rotate(140.427) scale(1.32734 1.32806)">
<stop offset="0.0814815" stop-color="#FFE245"/>
<stop offset="0.9963" stop-color="#E38427"/>
</radialGradient>
<radialGradient id="paint44_radial" cx="0" cy="0" r="1" gradientUnits="userSpaceOnUse" gradientTransform="translate(115.927 33.0992) rotate(140.427) scale(5.08875 5.0915)">
<stop offset="0.0814815" stop-color="#FFE245"/>
<stop offset="0.9963" stop-color="#E38427"/>
</radialGradient>
<radialGradient id="paint45_radial" cx="0" cy="0" r="1" gradientUnits="userSpaceOnUse" gradientTransform="translate(111.914 33.5884) rotate(140.427) scale(1.88087 1.88189)">
<stop offset="0.0814815" stop-color="#FFE245"/>
<stop offset="0.9963" stop-color="#E38427"/>
</radialGradient>
<radialGradient id="paint46_radial" cx="0" cy="0" r="1" gradientUnits="userSpaceOnUse" gradientTransform="translate(113.892 36.4544) rotate(140.427) scale(1.43798 1.43877)">
<stop offset="0.0814815" stop-color="#FFE245"/>
<stop offset="0.9963" stop-color="#E38427"/>
</radialGradient>
<radialGradient id="paint47_radial" cx="0" cy="0" r="1" gradientUnits="userSpaceOnUse" gradientTransform="translate(124.434 22.1852) rotate(140.427) scale(1.43798 1.43876)">
<stop offset="0.0814815" stop-color="#FFE245"/>
<stop offset="0.9963" stop-color="#E38427"/>
</radialGradient>
<radialGradient id="paint48_radial" cx="0" cy="0" r="1" gradientUnits="userSpaceOnUse" gradientTransform="translate(113.224 17.7487) rotate(140.427) scale(1.1064 1.107)">
<stop offset="0.0814815" stop-color="#FFE245"/>
<stop offset="0.9963" stop-color="#E38427"/>
</radialGradient>
<radialGradient id="paint49_radial" cx="0" cy="0" r="1" gradientUnits="userSpaceOnUse" gradientTransform="translate(100.114 11.8085) rotate(140.427) scale(3.09758 3.09925)">
<stop offset="0.0814815" stop-color="#FFE245"/>
<stop offset="0.9963" stop-color="#E38427"/>
</radialGradient>
<radialGradient id="paint50_radial" cx="0" cy="0" r="1" gradientUnits="userSpaceOnUse" gradientTransform="translate(106.917 15.2202) rotate(140.427) scale(1.32767 1.32839)">
<stop offset="0.0814815" stop-color="#FFE245"/>
<stop offset="0.9963" stop-color="#E38427"/>
</radialGradient>
<radialGradient id="paint51_radial" cx="0" cy="0" r="1" gradientUnits="userSpaceOnUse" gradientTransform="translate(100.687 8.96619) rotate(140.427) scale(1.54895 1.54979)">
<stop offset="0.0814815" stop-color="#FFE245"/>
<stop offset="0.9963" stop-color="#E38427"/>
</radialGradient>
<radialGradient id="paint52_radial" cx="0" cy="0" r="1" gradientUnits="userSpaceOnUse" gradientTransform="translate(106.106 7.59911) rotate(140.427) scale(1.1064 1.107)">
<stop offset="0.0814815" stop-color="#FFE245"/>
<stop offset="0.9963" stop-color="#E38427"/>
</radialGradient>
<radialGradient id="paint53_radial" cx="0" cy="0" r="1" gradientUnits="userSpaceOnUse" gradientTransform="translate(94.5697 16.7631) rotate(140.427) scale(4.53556 4.53801)">
<stop offset="0.0814815" stop-color="#FFE245"/>
<stop offset="0.9963" stop-color="#E38427"/>
</radialGradient>
<radialGradient id="paint54_radial" cx="0" cy="0" r="1" gradientUnits="userSpaceOnUse" gradientTransform="translate(102.036 19.6796) rotate(140.427) scale(1.7699 1.77086)">
<stop offset="0.0814815" stop-color="#FFE245"/>
<stop offset="0.9963" stop-color="#E38427"/>
</radialGradient>
<radialGradient id="paint55_radial" cx="0" cy="0" r="1" gradientUnits="userSpaceOnUse" gradientTransform="translate(87.0843 22.6288) rotate(140.427) scale(1.43798 1.43876)">
<stop offset="0.0814815" stop-color="#FFE245"/>
<stop offset="0.9963" stop-color="#E38427"/>
</radialGradient>
<radialGradient id="paint56_radial" cx="0" cy="0" r="1" gradientUnits="userSpaceOnUse" gradientTransform="translate(93.9284 28.1082) rotate(140.427) scale(1.99152 1.99259)">
<stop offset="0.0814815" stop-color="#FFE245"/>
<stop offset="0.9963" stop-color="#E38427"/>
</radialGradient>
<radialGradient id="paint57_radial" cx="0" cy="0" r="1" gradientUnits="userSpaceOnUse" gradientTransform="translate(96.596 31.1191) rotate(140.427) scale(1.77023 1.77119)">
<stop offset="0.0814815" stop-color="#FFE245"/>
<stop offset="0.9963" stop-color="#E38427"/>
</radialGradient>
<radialGradient id="paint58_radial" cx="0" cy="0" r="1" gradientUnits="userSpaceOnUse" gradientTransform="translate(107.584 31.6749) rotate(140.427) scale(1.54862 1.54946)">
<stop offset="0.0814815" stop-color="#FFE245"/>
<stop offset="0.9963" stop-color="#E38427"/>
</radialGradient>
<radialGradient id="paint59_radial" cx="0" cy="0" r="1" gradientUnits="userSpaceOnUse" gradientTransform="translate(100.723 37.0724) rotate(140.427) scale(1.65926 1.66016)">
<stop offset="0.0814815" stop-color="#FFE245"/>
<stop offset="0.9963" stop-color="#E38427"/>
</radialGradient>
<radialGradient id="paint60_radial" cx="0" cy="0" r="1" gradientUnits="userSpaceOnUse" gradientTransform="translate(102.571 39.2454) rotate(140.427) scale(1.43798 1.43876)">
<stop offset="0.0814815" stop-color="#FFE245"/>
<stop offset="0.9963" stop-color="#E38427"/>
</radialGradient>
<radialGradient id="paint61_radial" cx="0" cy="0" r="1" gradientUnits="userSpaceOnUse" gradientTransform="translate(106.53 43.7936) rotate(140.427) scale(2.8763 2.87785)">
<stop offset="0.0814815" stop-color="#FFE245"/>
<stop offset="0.9963" stop-color="#E38427"/>
</radialGradient>
<radialGradient id="paint62_radial" cx="0" cy="0" r="1" gradientUnits="userSpaceOnUse" gradientTransform="translate(105.091 46.4796) rotate(140.427) scale(0.885117 0.885596)">
<stop offset="0.0814815" stop-color="#FFE245"/>
<stop offset="0.9963" stop-color="#E38427"/>
</radialGradient>
<radialGradient id="paint63_radial" cx="0" cy="0" r="1" gradientUnits="userSpaceOnUse" gradientTransform="translate(100.055 45.6133) rotate(140.427) scale(0.774481 0.7749)">
<stop offset="0.0814815" stop-color="#FFE245"/>
<stop offset="0.9963" stop-color="#E38427"/>
</radialGradient>
<radialGradient id="paint64_radial" cx="0" cy="0" r="1" gradientUnits="userSpaceOnUse" gradientTransform="translate(89.742 38.0408) rotate(140.427) scale(1.1064 1.10699)">
<stop offset="0.0814815" stop-color="#FFE245"/>
<stop offset="0.9963" stop-color="#E38427"/>
</radialGradient>
<radialGradient id="paint65_radial" cx="0" cy="0" r="1" gradientUnits="userSpaceOnUse" gradientTransform="translate(86.007 29.8255) rotate(140.427) scale(0.774484 0.774894)">
<stop offset="0.0814815" stop-color="#FFE245"/>
<stop offset="0.9963" stop-color="#E38427"/>
</radialGradient>
<radialGradient id="paint66_radial" cx="0" cy="0" r="1" gradientUnits="userSpaceOnUse" gradientTransform="translate(102.518 14.5719) rotate(140.427) scale(19.4829 19.4934)">
<stop offset="0.0814815" stop-color="#FFE245"/>
<stop offset="0.9963" stop-color="#E38427"/>
</radialGradient>
</defs>
</svg>
