<svg xmlns="http://www.w3.org/2000/svg" viewBox="0 0 182.69 62.87"><defs><style>.cls-1{fill:none;stroke:#fff;stroke-width:3px;}.cls-2{fill:#fff;}</style></defs><g id="Слой_2" data-name="Слой 2"><g id="Слой_1-2" data-name="Слой 1"><path class="cls-1" d="M1.5,61.37H20a25.5,25.5,0,0,0,25.5-25.5h0A25.5,25.5,0,0,0,20,10.37H1.5Z"/><path class="cls-1" d="M63.5,61.37H45a25.5,25.5,0,0,1-25.5-25.5h0A25.5,25.5,0,0,1,45,10.37H63.5Z"/><path class="cls-2" d="M84.71,29.37V16.09h3.65a5.6,5.6,0,0,1,3.06.82,5.36,5.36,0,0,1,2,2.3,8,8,0,0,1,.72,3.51,8,8,0,0,1-.72,3.52,5.44,5.44,0,0,1-2,2.31,5.69,5.69,0,0,1-3.06.82Zm3.42-11.66H86.68v10h1.45a3.64,3.64,0,0,0,2.08-.62,3.93,3.93,0,0,0,1.44-1.73,6.16,6.16,0,0,0,.53-2.68A6.13,6.13,0,0,0,91.65,20a4,4,0,0,0-1.44-1.73A3.7,3.7,0,0,0,88.13,17.71Zm17.36,8.65a3,3,0,0,1-.63,1.51,4.11,4.11,0,0,1-1.59,1.22,6,6,0,0,1-2.52.47,5.29,5.29,0,0,1-2.62-.62,4.55,4.55,0,0,1-1.76-1.75,5.58,5.58,0,0,1,0-5.17,4.53,4.53,0,0,1,1.77-1.73,5.24,5.24,0,0,1,2.6-.63,5.1,5.1,0,0,1,2.59.63A4.33,4.33,0,0,1,105,22a5.27,5.27,0,0,1,.59,2.55c0,.11,0,.24,0,.4a1.7,1.7,0,0,1,0,.3H97.7a3,3,0,0,0,1,1.95,3.13,3.13,0,0,0,2.13.71,3.81,3.81,0,0,0,1.51-.25,2.17,2.17,0,0,0,.89-.6,1.3,1.3,0,0,0,.33-.72Zm-4.72-5.08a3.14,3.14,0,0,0-2,.65,3,3,0,0,0-1,1.82h5.86a2.73,2.73,0,0,0-.77-1.74A2.69,2.69,0,0,0,100.77,21.28Zm10.61,8.28a6.36,6.36,0,0,1-2.09-.33,3.54,3.54,0,0,1-1.5-1,2.36,2.36,0,0,1-.56-1.59v-.24h2v.18a1.07,1.07,0,0,0,.6,1,3.37,3.37,0,0,0,1.66.34,4.12,4.12,0,0,0,1.57-.28,1,1,0,0,0,.66-.9,1,1,0,0,0-.65-.93,8.15,8.15,0,0,0-1.94-.5,10,10,0,0,1-1.79-.48A3.57,3.57,0,0,1,107.9,24a2.13,2.13,0,0,1-.53-1.5,2.27,2.27,0,0,1,.54-1.53,3.34,3.34,0,0,1,1.45-.95,6,6,0,0,1,2-.32,5.49,5.49,0,0,1,2,.34,3.43,3.43,0,0,1,1.48,1,2.36,2.36,0,0,1,.56,1.59v.16h-1.94v-.13a1,1,0,0,0-.3-.76,1.77,1.77,0,0,0-.77-.45,3.27,3.27,0,0,0-1-.14,4.73,4.73,0,0,0-1,.1,2,2,0,0,0-.81.36.76.76,0,0,0-.32.66,1,1,0,0,0,.69.93,10,10,0,0,0,1.85.48,11.18,11.18,0,0,1,1.79.47,3.59,3.59,0,0,1,1.41.87,2.1,2.1,0,0,1,.55,1.52,2.29,2.29,0,0,1-.6,1.63,3.57,3.57,0,0,1-1.54.95A6.79,6.79,0,0,1,111.38,29.56Zm7.17-11.73a1.41,1.41,0,0,1-.87-.27.9.9,0,0,1-.36-.77.85.85,0,0,1,.36-.74,1.35,1.35,0,0,1,.87-.28,1.32,1.32,0,0,1,.85.28.86.86,0,0,1,.37.74.89.89,0,0,1-.37.77A1.37,1.37,0,0,1,118.55,17.83Zm-1,11.54V19.81h1.92v9.56Zm10.61-.77a4.36,4.36,0,0,1,2,.59,1.7,1.7,0,0,1,.76,1.56,2.21,2.21,0,0,1-1.24,2,7.28,7.28,0,0,1-3.69.74,7.5,7.5,0,0,1-3.56-.67A2,2,0,0,1,121.21,31a2.39,2.39,0,0,1,.08-.62,1.89,1.89,0,0,1,.2-.45l1.82.27a.84.84,0,0,0-.14.27,1.73,1.73,0,0,0,0,.42c0,.43.26.73.78.91a6.92,6.92,0,0,0,2.17.27,6.22,6.22,0,0,0,2.27-.31q.75-.32.75-.84a.62.62,0,0,0-.46-.67,5.15,5.15,0,0,0-1.1-.18l-3.63-.3a2.86,2.86,0,0,1-1.55-.57,1.52,1.52,0,0,1-.59-1.22,1.71,1.71,0,0,1,.34-1,2.51,2.51,0,0,1,.7-.69,3.37,3.37,0,0,1-1.19-2.7,3.54,3.54,0,0,1,.55-2,4,4,0,0,1,1.53-1.37,4.77,4.77,0,0,1,2.24-.5,4.44,4.44,0,0,1,2,.41,3.39,3.39,0,0,1,1.32,1l.16-1.26h1.77l-.73,3.73a5.38,5.38,0,0,1-.72,1.89,3.82,3.82,0,0,1-1.43,1.33,4.62,4.62,0,0,1-2.22.48,5.84,5.84,0,0,1-2.11-.36,1.06,1.06,0,0,0-.27.29.63.63,0,0,0-.12.37.6.6,0,0,0,.25.5,2,2,0,0,0,1,.26Zm-2.14-3a2.78,2.78,0,0,0,1.85-.57,2.25,2.25,0,0,0,0-3.22,2.68,2.68,0,0,0-1.84-.59,2.76,2.76,0,0,0-1.83.6,2,2,0,0,0-.71,1.62,2,2,0,0,0,.68,1.59A2.78,2.78,0,0,0,126.05,25.65Zm6.78,3.72V19.81h2v1.42a4,4,0,0,1,3.2-1.57,3.54,3.54,0,0,1,2.65,1,3.59,3.59,0,0,1,1,2.63v6.11h-2V23.8a2.72,2.72,0,0,0-.51-1.71,2,2,0,0,0-1.74-.67,2.53,2.53,0,0,0-1.33.36,2.65,2.65,0,0,0-.93,1,2.84,2.84,0,0,0-.34,1.4v5.21Zm14.35.19a4.27,4.27,0,0,1-2.62-.76,2.76,2.76,0,0,1-.49-3.7,3.32,3.32,0,0,1,1.41-1,7.28,7.28,0,0,1,2-.46,23.46,23.46,0,0,0,2.4-.33c.46-.11.7-.29.7-.53v0a1.22,1.22,0,0,0-.62-1.11,3.49,3.49,0,0,0-1.78-.38,3.44,3.44,0,0,0-1.88.44,1.47,1.47,0,0,0-.65,1.35h-1.92a3,3,0,0,1,.57-1.87,3.57,3.57,0,0,1,1.58-1.16,6.15,6.15,0,0,1,2.31-.4,6,6,0,0,1,2.18.37A3.47,3.47,0,0,1,152,21.11a2.73,2.73,0,0,1,.58,1.79v4.56c0,.22,0,.44,0,.65a2.33,2.33,0,0,0,.11.55,1.63,1.63,0,0,0,.19.46,1.36,1.36,0,0,0,.18.25h-1.94a1.92,1.92,0,0,1-.16-.23,2.2,2.2,0,0,1-.18-.41,2.47,2.47,0,0,1-.11-.45,3.45,3.45,0,0,1-1.42.93A5.77,5.77,0,0,1,147.18,29.56Zm.41-1.62a4.47,4.47,0,0,0,1.53-.26,2.45,2.45,0,0,0,1.09-.82,2.17,2.17,0,0,0,.42-1.37v-.83a9.37,9.37,0,0,1-1.25.27c-.47.07-.94.12-1.42.17a5.48,5.48,0,0,0-1.82.42,1.07,1.07,0,0,0-.62,1C145.52,27.47,146.21,27.94,147.59,27.94Zm11,1.59a4.45,4.45,0,0,1-1.25-.18,2,2,0,0,1-1-.73,2.67,2.67,0,0,1-.4-1.61V21.43h-2.3V19.81h1.21a3.22,3.22,0,0,0,.74-.06.44.44,0,0,0,.29-.35,4.68,4.68,0,0,0,.06-.9V16.65h1.95v3.16h2.93v1.62h-2.93v4.93a3.18,3.18,0,0,0,.17,1.14.79.79,0,0,0,.81.41,3,3,0,0,0,.52-.05l.36-.09v1.59a2.26,2.26,0,0,1-.45.11A3.54,3.54,0,0,1,158.6,29.53Zm13-3.17a3,3,0,0,1-.63,1.51,4.11,4.11,0,0,1-1.59,1.22,6,6,0,0,1-2.52.47,5.29,5.29,0,0,1-2.62-.62,4.55,4.55,0,0,1-1.76-1.75,5.58,5.58,0,0,1,0-5.17,4.53,4.53,0,0,1,1.77-1.73,5.25,5.25,0,0,1,2.61-.63,5.08,5.08,0,0,1,2.58.63A4.26,4.26,0,0,1,171.11,22a5.28,5.28,0,0,1,.6,2.55c0,.11,0,.24,0,.4a2.86,2.86,0,0,1,0,.3h-7.89a3,3,0,0,0,1,1.95,3.13,3.13,0,0,0,2.13.71,3.81,3.81,0,0,0,1.51-.25,2.11,2.11,0,0,0,.89-.6,1.4,1.4,0,0,0,.34-.72Zm-4.72-5.08a3.14,3.14,0,0,0-2,.65,3,3,0,0,0-1,1.82h5.86a2.58,2.58,0,0,0-2.81-2.47Zm10.81,8.28a4.29,4.29,0,0,1-2.17-.57,4.21,4.21,0,0,1-1.58-1.68,5.75,5.75,0,0,1-.59-2.74,5.49,5.49,0,0,1,.6-2.67,4.16,4.16,0,0,1,3.74-2.24A4.21,4.21,0,0,1,180.73,21V15.3h2V29.37h-2V28.2a4.25,4.25,0,0,1-1.36,1A4.06,4.06,0,0,1,177.66,29.56Zm.39-1.78a2.66,2.66,0,0,0,1.33-.34,2.63,2.63,0,0,0,1-1,2.55,2.55,0,0,0,.37-1.38V24a2.4,2.4,0,0,0-.38-1.32,2.76,2.76,0,0,0-1-.92,2.58,2.58,0,0,0-1.3-.34,2.64,2.64,0,0,0-1.94.78,3.25,3.25,0,0,0-.79,2.42,3.31,3.31,0,0,0,.79,2.43A2.64,2.64,0,0,0,178.05,27.78ZM94.83,46.67a5.1,5.1,0,0,1-.3,1.68,5.35,5.35,0,0,1-.93,1.59A4.81,4.81,0,0,1,92,51.12a5.26,5.26,0,0,1-2.22.44,5,5,0,0,1-3-.88A5.47,5.47,0,0,1,85,48.27a10.23,10.23,0,0,1,0-7.07,5.47,5.47,0,0,1,1.86-2.41,5.54,5.54,0,0,1,5.43-.3A4.58,4.58,0,0,1,93.9,40a5,5,0,0,1,.81,1.85,4.45,4.45,0,0,1,.12,1h-2a3.74,3.74,0,0,0-.05-.55,3.23,3.23,0,0,0-.92-1.86,2.8,2.8,0,0,0-2.09-.78,3,3,0,0,0-2.51,1.29,6.39,6.39,0,0,0-1,3.84,6.5,6.5,0,0,0,1,3.87,3,3,0,0,0,2.51,1.29,2.78,2.78,0,0,0,1.66-.47,2.94,2.94,0,0,0,1-1.2,3.49,3.49,0,0,0,.36-1.55Zm5.26,4.89a4.27,4.27,0,0,1-2.62-.76,2.5,2.5,0,0,1-1-2.11A2.45,2.45,0,0,1,97,47.1a3.29,3.29,0,0,1,1.4-1,7.28,7.28,0,0,1,2-.46,23.46,23.46,0,0,0,2.4-.33c.47-.11.7-.29.7-.53v0a1.22,1.22,0,0,0-.62-1.11,4.3,4.3,0,0,0-3.66.06,1.49,1.49,0,0,0-.65,1.34H96.68a3,3,0,0,1,.57-1.86,3.57,3.57,0,0,1,1.58-1.16,6.18,6.18,0,0,1,2.31-.4,6,6,0,0,1,2.18.37,3.45,3.45,0,0,1,1.58,1.07,2.76,2.76,0,0,1,.58,1.8v4.56c0,.22,0,.44,0,.65a3,3,0,0,0,.11.55,2,2,0,0,0,.19.46,1.29,1.29,0,0,0,.19.25H104a1.92,1.92,0,0,1-.16-.23,3.15,3.15,0,0,1-.18-.41,2.47,2.47,0,0,1-.11-.45,3.45,3.45,0,0,1-1.42.93A5.77,5.77,0,0,1,100.09,51.56Zm.41-1.62a4.17,4.17,0,0,0,1.53-.27,2.36,2.36,0,0,0,1.09-.8,2.22,2.22,0,0,0,.42-1.38v-.83a9.37,9.37,0,0,1-1.25.27c-.46.07-.93.12-1.41.17a5.61,5.61,0,0,0-1.83.42,1.07,1.07,0,0,0-.61,1C98.44,49.47,99.12,49.94,100.5,49.94Zm7.17,5.36V41.81h2V43A4.09,4.09,0,0,1,111,42a4.14,4.14,0,0,1,1.7-.35,4.16,4.16,0,0,1,3.74,2.24,5.38,5.38,0,0,1,.61,2.67,5.87,5.87,0,0,1-.59,2.74,4.15,4.15,0,0,1-3.76,2.25,4.15,4.15,0,0,1-1.7-.36,4.35,4.35,0,0,1-1.38-1V55.3Zm2-8.12a2.42,2.42,0,0,0,.37,1.33,2.93,2.93,0,0,0,1,.93,2.71,2.71,0,0,0,1.33.34,2.62,2.62,0,0,0,1.93-.78,3.31,3.31,0,0,0,.79-2.43,3.25,3.25,0,0,0-.79-2.42,2.62,2.62,0,0,0-1.93-.78,2.65,2.65,0,0,0-1.32.34,2.84,2.84,0,0,0-1,.92,2.39,2.39,0,0,0-.37,1.32h0v1.14h0ZM120,39.83a1.45,1.45,0,0,1-.87-.27.92.92,0,0,1-.36-.77.88.88,0,0,1,.36-.74,1.39,1.39,0,0,1,.87-.28,1.35,1.35,0,0,1,.86.28.89.89,0,0,1,.37.74.92.92,0,0,1-.37.77A1.4,1.4,0,0,1,120,39.83Zm-1,11.54V41.81H121v9.56Zm8.43.16a4.45,4.45,0,0,1-1.25-.18,2,2,0,0,1-1-.73,2.67,2.67,0,0,1-.4-1.61V43.43h-2.3V41.81h1.21a3.22,3.22,0,0,0,.74-.06.42.42,0,0,0,.28-.35,3.87,3.87,0,0,0,.07-.91V38.65h2v3.16h2.93v1.62h-2.93v4.93a3.09,3.09,0,0,0,.17,1.13.78.78,0,0,0,.81.42,2.76,2.76,0,0,0,.51,0,1.44,1.44,0,0,0,.37-.1v1.6a2.92,2.92,0,0,1-.46.12A4.4,4.4,0,0,1,127.5,51.53Zm6.92,0a4.27,4.27,0,0,1-2.62-.76,2.5,2.5,0,0,1-1-2.11,2.45,2.45,0,0,1,.51-1.59,3.29,3.29,0,0,1,1.4-1,7.28,7.28,0,0,1,2-.46,23.46,23.46,0,0,0,2.4-.33c.47-.11.7-.29.7-.53v0a1.22,1.22,0,0,0-.62-1.11,3.47,3.47,0,0,0-1.77-.38,3.42,3.42,0,0,0-1.88.44,1.47,1.47,0,0,0-.66,1.34H131a3,3,0,0,1,.57-1.86,3.57,3.57,0,0,1,1.58-1.16,6.16,6.16,0,0,1,2.32-.4,6,6,0,0,1,2.17.37,3.45,3.45,0,0,1,1.58,1.07,2.76,2.76,0,0,1,.58,1.8v4.56c0,.22,0,.44,0,.65a2.33,2.33,0,0,0,.11.55,2,2,0,0,0,.19.46,1.29,1.29,0,0,0,.19.25h-1.95a1.92,1.92,0,0,1-.16-.23c-.06-.12-.12-.26-.18-.41a2.47,2.47,0,0,1-.11-.45,3.45,3.45,0,0,1-1.42.93A5.77,5.77,0,0,1,134.42,51.56Zm.41-1.62a4.2,4.2,0,0,0,1.53-.27,2.5,2.5,0,0,0,1.1-.8,2.28,2.28,0,0,0,.41-1.38v-.83a9.37,9.37,0,0,1-1.25.27c-.46.07-.94.12-1.41.17a5.61,5.61,0,0,0-1.83.42,1.07,1.07,0,0,0-.61,1C132.77,49.47,133.45,49.94,134.83,49.94Zm9.24-12.64V51.37h-1.93V37.3Z"/><path class="cls-2" d="M72.65,6.89a3.76,3.76,0,0,1-1.83-.45,3.57,3.57,0,0,1-1.31-1.22A3.32,3.32,0,0,1,69,3.44a3.3,3.3,0,0,1,.48-1.76A3.52,3.52,0,0,1,70.82.45a3.95,3.95,0,0,1,3.66,0,3.49,3.49,0,0,1,1.3,1.23,3.3,3.3,0,0,1,.48,1.76,3.32,3.32,0,0,1-.48,1.78,3.55,3.55,0,0,1-1.3,1.22A3.76,3.76,0,0,1,72.65,6.89Zm0-.56A3.28,3.28,0,0,0,74.22,6a2.59,2.59,0,0,0,1-1,3,3,0,0,0,.38-1.52,2.93,2.93,0,0,0-.38-1.5,2.53,2.53,0,0,0-1-1,3.6,3.6,0,0,0-3.14,0,2.55,2.55,0,0,0-1,1,2.93,2.93,0,0,0-.38,1.5A3,3,0,0,0,70,5a2.62,2.62,0,0,0,1,1A3.28,3.28,0,0,0,72.65,6.33ZM71.3,5.45V1.37h1.45c.91,0,1.36.37,1.36,1.11a.94.94,0,0,1-.22.68.83.83,0,0,1-.55.25.61.61,0,0,1,.62.67V5a1.42,1.42,0,0,0,0,.33.31.31,0,0,0,.06.14h-.71a1.2,1.2,0,0,0,0-.14,1.42,1.42,0,0,1,0-.33V4.31c0-.29-.08-.45-.25-.5a1.59,1.59,0,0,0-.55-.09H72V5.45ZM72,3.14h.58A1,1,0,0,0,73.23,3a.61.61,0,0,0,.21-.47c0-.38-.24-.56-.72-.56H72Z"/></g></g></svg>