<svg xmlns="http://www.w3.org/2000/svg" viewBox="0 0 929 755.66"><defs><style>.cls-1{fill:#fff;}</style></defs><g id="Слой_2" data-name="Слой 2"><g id="Слой_1-2" data-name="Слой 1"><path class="cls-1" d="M438.5.22c-52.6,4.1-91,12.3-134.3,28.6-7.3,2.8-13,5.4-12.5,5.9s5.5.7,11.3.7,78-.1,160.5-.4c140.4-.4,164.9-.1,177,2.2,10.7,2.1-18.3-9.7-42.2-17.1-25.2-7.9-28.5-8.5-37.3-6.7-5.8,1.1-18.4,1.5-56.5,1.8-99.2.7-142.3.6-145-.5-1.6-.7-.9-1.1,3.5-2,16.1-3.3,20.8-3.4,104-4,84-.6,84.4-.6,75-2.3-5.2-1-13.8-2.2-19-2.8s-12.9-1.5-17-2C498.2.62,447.3-.48,438.5.22Zm160,22.2C605.4,24,613,26.92,613,28c0,.2-66.5.4-147.7.4l-147.8.1,7-2.4a48.38,48.38,0,0,1,13.5-2.5,58.4,58.4,0,0,0,10.5-1c2.5-.6,44.3-1,108.5-1.1,57.5-.1,107-.5,110-.9C574.7,19.42,589,20.32,598.5,22.42Z"/><path class="cls-1" d="M639,40.72c-2.5.4-85.6.8-184.6.8H274.2L268.6,44c-3.1,1.4-5.6,2.8-5.6,3.1s88.3.5,196.3.5c121.7-.1,197.1.2,198.7.8,3.4,1.3,13,2.6,13,1.7,0-.3-4.7-2.9-10.5-5.6C649.7,39.52,647.6,39.12,639,40.72Z"/><path class="cls-1" d="M244.8,56.42a84.19,84.19,0,0,0-7.5,4.6c-.4.5,3.9.5,9.7.1s99.2-.7,207.5-.6c179.4.1,210.1.5,232.8,2.6,3.1.3,5.7.2,5.7-.3s-3.3-2.6-7.2-4.8l-7.3-3.9-104.5.5c-105.9.5-308.3-.4-317.5-1.5C252,52.62,250.8,52.92,244.8,56.42Z"/><path class="cls-1" d="M212,76.72c-7.4,4.9-14.2,9.7-15,10.6-1.3,1.4-1.1,1.4,2.5.8,2.2-.5,122.4-1.1,267-1.4l263-.6-3.5-2.5-3.5-2.5-255-.5-255-.5,5-2.1c2.8-1.2,8.8-2.5,13.5-3s114.6-.9,244.3-.9,235.7-.2,235.7-.5-2-1.7-4.4-3.3l-4.3-2.7H225.4Z"/><path class="cls-1" d="M735.8,93.22c-.3.3-123.5.5-273.8.4l-273.2-.1-4.9,3.7c-2.7,1.9-4.7,3.9-4.5,4.2s4.2.4,8.8-.1c7.4-.7,149.4-3.1,172.3-3,5,.1,89.2.3,187.2.6s178.8.9,179.5,1.3,4.8.7,9.1.5c5.8-.1,8.5.2,10.3,1.4,3.3,2.1,3.1,4.5-.3,4.6-1.6,0-131.3,0-288.3-.1l-285.5-.1-3.5,3-3.5,3h597l-3.5-3c-8.4-7.4-20.6-16.9-21.6-16.9A2.58,2.58,0,0,0,735.8,93.22Z"/><path class="cls-1" d="M153.9,123.22l-3.4,3.6,8.9-.6c15.6-1.2,559.8-.8,566.6.4,5.9,1.1,6.1,1,11.6-2.2l5.5-3.3-7.3-.6c-4-.4-135.8-.7-292.9-.8l-285.5-.1Z"/><path class="cls-1" d="M720,131.62a58,58,0,0,1-11,.9l-8.5.2,2.9,2.3c5.7,4.7,13.7,4.2,20.1-1.2,3.7-3,3.8-3.2,1.5-3.1A29.19,29.19,0,0,0,720,131.62Z"/><path class="cls-1" d="M495.5,132.92c-70.4.5-134.5.9-142.5.9s-58.1-.4-111.5-.7l-97-.6-3.5,3.6-3.5,3.7,8.5-.6c4.7-.4,111.6-.7,237.5-.7,190.5,0,229.8-.2,234-1.4,2.8-.7,12-1.6,20.5-1.9,15.1-.6,15.6-.6,20.8,1.9,7.3,3.4,9.6,3.3,11.2-.5.7-1.7,1.1-3.2.9-3.4C669.7,132.12,608.6,132,495.5,132.92Z"/><path class="cls-1" d="M711.3,142.12a4.38,4.38,0,0,0,3.3.8c2.5-1,1.5-2.3-1.8-2.3C709.7,140.72,709.6,140.82,711.3,142.12Z"/><path class="cls-1" d="M620.5,144.72c-2.2.4-113.2.8-246.6.8l-242.6.1-3.3,4.2c-2.4,3-2.8,3.9-1.4,3.2,1.1-.5,98.9-1.1,246.9-1.4,134.8-.3,245.1-.6,245.3-.8a4.23,4.23,0,0,0,.2-1.6c0-1.9,3.1-2.8,7.2-2.1,3.3.5,6.9-.8,5.6-2.1C630.7,143.92,624.9,143.82,620.5,144.72Z"/><path class="cls-1" d="M352.1,158.32l-231.5.3-2.3,2.2c-1.3,1.2-2.3,2.6-2.3,3.1s66.8.6,165.3.2c90.8-.3,169-.6,173.7-.6,40.1-.1,114.5.8,122.8,1.5l10.3.9-.6-2.5c-.5-1.9-.2-2.9,1.2-3.7s1.4-1,.3-1.1a23.61,23.61,0,0,1-3.5-.3C584.4,158.22,479.4,158.22,352.1,158.32Z"/><path class="cls-1" d="M736,162.42c0,1,2.2,3.2,3.2,3.2,1.5,0,.8-1.5-1.2-2.8C736.9,162.12,736,161.92,736,162.42Z"/><path class="cls-1" d="M633.5,167c1.1,1.7,1.3,2.6.6,2.6-1.3,0,12.6,16.4,14.7,17.4,1.4.6,4.2-.2,4.2-1.3s-17-19-19.2-20.2C631.9,164.52,631.9,164.52,633.5,167Z"/><path class="cls-1" d="M644.2,166.42c-2.1.6-1.6,1.4,6.2,9.1,5.8,5.8,8.9,8.2,10,7.8.9-.4,1.6-1.1,1.6-1.8,0-1.2-13.9-16-14.9-15.8C646.8,165.82,645.5,166.12,644.2,166.42Z"/><path class="cls-1" d="M660.3,167.22c-1.1,3,13.9,15.6,16.7,13.9,1.6-1,1.2-2.3-1.2-4.4C661,164.22,661.4,164.42,660.3,167.22Z"/><path class="cls-1" d="M683,169.42c0,2.2,5.8,7.9,8.5,8.4,3.9.6,2.7-2.9-2.3-6.6C683.5,167.12,683,166.92,683,169.42Z"/><path class="cls-1" d="M796,169.52c0,.5,2.8,3.5,6.3,6.7s16.5,15.4,29.1,27.2c14.9,14,22.2,20.4,21.1,18.3-5.8-11.4-8.2-13.9-44.1-45.9C801.2,169.42,796,166.72,796,169.52Z"/><path class="cls-1" d="M570,170.62c-1.4.4-105.6.8-231.5.9l-229.1.1-6,8.2c-3.4,4.6-6.5,8.9-6.9,9.7-.7,1.2,14.2,1.3,106.6.6,126.8-.9,119.9-.9,160.4-.1,39.2.8,60.8-.1,61.3-2.6.2-1.3-.7-1.8-4-2.2s-179.7,0-250.8.7c-26.5.2-68.1-1.4-67.7-2.7.2-.6,2.8-2.1,5.8-3.3l5.4-2.2,107.5-.1c59.1-.1,124.8-.5,146-1,23.5-.5,54.8-.5,80.5.1,23.1.5,61.2,1,84.8,1.2l42.7.2v-4.3C575,169.42,574.6,169.12,570,170.62Z"/><path class="cls-1" d="M699,174c0,.9,4,1.3,4.6.5.3-.5-.6-.9-2-.9S699,173.82,699,174Z"/><path class="cls-1" d="M783.5,174.62a2,2,0,0,1-2.3.3c-.9-.3,1.2,2,4.8,5.2,12.5,11.1,87.1,87,89,90.7,2.2,4.1,1.4,5-1.5,1.8-2-2.2-3.5-2.6-3.5-.9,0,1.4,7.6,12,13,17.9l4,4.5-1.9-5c-5.8-15.2-10.5-26.3-12.6-29.9-2.7-4.5-70.2-72.2-80.3-80.4C785.7,173.52,784.6,172.92,783.5,174.62Z"/><path class="cls-1" d="M759.2,176.52c.6,1.9,21.8,24.8,27.8,30.1,3.3,3,13.2,12.6,21.8,21.4s18.9,18.3,22.9,21.2,8,6.5,8.9,7.9,5.4,5.6,9.9,9.5c6.4,5.3,9.1,7,11.4,7,5.2,0,4.2-1.5-6.9-11.1-20.7-17.8-47.8-43-68.5-63.8-17-17.1-23.6-23.1-25.3-23.1C759.9,175.62,759,176,759.2,176.52Z"/><path class="cls-1" d="M740.5,195.92c9.1,9.5,18.8,19,21.5,21.2a57,57,0,0,1,7.4,7.3,41.21,41.21,0,0,0,7.3,7c2.7,2,10.8,9.9,18.2,17.4,8.4,8.7,13.8,13.5,14.7,13.1,2.5-1,1.5-2.9-4.8-8.9-3.5-3.3-19.8-19.8-36.3-36.7s-31.7-32.1-33.8-33.8a15.68,15.68,0,0,0-7.2-3.4C724.1,178.82,724.6,179.42,740.5,195.92Z"/><path class="cls-1" d="M746.2,182.42c-.8.6,3.9,5.9,15.1,17.1,9,8.9,17.7,17.1,19.4,18.1a36.91,36.91,0,0,1,6.9,6.6,42.52,42.52,0,0,0,8.4,7.6c5.3,3.4,17.5,14.3,28,25,5.3,5.4,8.5,8,10.8,8.4,1.8.4,3.2.2,3.2-.3,0-1.5-5.6-7.2-15-15.4-17.4-15.1-38.8-34.5-49-44.4-9.2-8.9-25.5-23.5-26.2-23.5A7.43,7.43,0,0,0,746.2,182.42Z"/><path class="cls-1" d="M521,184.72c-30.5.3-56.7.9-58.3,1.4-9.4,2.6,1.1,3.3,68.3,4.1l52.5.6-3.4-3.6a35.35,35.35,0,0,0-3.5-3.4C576.5,183.92,551.5,184.32,521,184.72Z"/><path class="cls-1" d="M633.5,184.62c-.7,1.1,6.3,8,8.2,8,3.2,0,1.3-3.8-3.7-7.3C635.2,183.32,634.4,183.22,633.5,184.62Z"/><path class="cls-1" d="M433.2,186.22c-1.6,1.2-1.5,1.3.7,2.2s7.1-.4,7.1-1.9C441,185.22,434.9,185,433.2,186.22Z"/><path class="cls-1" d="M719,192.82c.1,1.4,1.5,3.4,3.8,5.1,2,1.5,12.1,10.9,22.3,20.7s19.4,18,20.3,18a2.74,2.74,0,0,0,2.3-1.6c.4-1.2-1.1-3.3-5.4-7.3-3.3-3.1-10.3-9.8-15.6-14.8-9.6-9.2-25.4-22.3-26.9-22.3C719.3,190.62,719,191.62,719,192.82Z"/><path class="cls-1" d="M88.6,200.72l-1.8,3,200.2-.3c110.1-.2,200.4-.7,200.7-1.1s-.3-1.6-1.3-2.5c-1.8-1.6-15.4-1.8-198.9-2l-197.1-.2Z"/><path class="cls-1" d="M514.2,198.72c-2.3.7-3.2,1.5-3,2.7.3,1.5,3.5,1.8,35.8,2.4,19.5.3,37.6.9,40.3,1.3,4.7.7,4.7.7,4.7-2.2a6.67,6.67,0,0,0-1.2-4.1C589.3,197.32,519.3,197.32,514.2,198.72Z"/><path class="cls-1" d="M81,212.32c-.8,1.5-1.6,3-1.7,3.3s101.2.6,225.2.7c198.6.3,225.9.5,228.5,1.8a14.3,14.3,0,0,0,5.2,1.5c1.9,0,2.3-.5,2.4-3.3a15,15,0,0,1,.9-5.1c.8-1.7.5-1.8-4.1-1.1-5.5.9-448.4.9-452.5,0C82.8,209.62,82.1,210,81,212.32Z"/><path class="cls-1" d="M672,211.82c.1.7,4.6,4.4,10,8.2s10,7.4,10,8.1c0,1.5,14.4,14.7,25,23,4.1,3.2,9.6,7.8,12.2,10.3,4.7,4.5,7,5.1,5.2,1.3-1.3-2.8-31.3-30.2-46.1-42.1C676.9,211.42,671.9,208.72,672,211.82Z"/><path class="cls-1" d="M655.7,214.42c-1.4.6-.7,1.7,4.5,6.8A151.17,151.17,0,0,0,672.8,232c3.4,2.6,6.2,5.1,6.2,5.6s2.6,2.8,5.8,5.2,7.6,5.9,9.9,8,4.9,3.8,5.7,3.8,2.7,1.6,4.2,3.6c4.3,5.6,19.4,16.2,19.4,13.6,0-1.3-4.4-5.7-11.5-11.7-3.8-3.3-11-9.5-16-14s-12.6-10.9-17-14.5-10.9-9.1-14.4-12.3-6.8-5.7-7.1-5.6A21.89,21.89,0,0,0,655.7,214.42Z"/><path class="cls-1" d="M697,215c0,1.9,18.8,19.6,20.9,19.6,1.8,0,11.7,8.5,19.7,16.9,3.6,3.8,5.6,5.2,6.8,4.8,1.7-.7,2.1-2.5.8-4.2-.4-.6-7.2-6.5-15.2-13.2s-17.9-15.1-22-18.7C700.7,213.92,697,212.12,697,215Z"/><path class="cls-1" d="M720,214.82c0,.7,6.9,7.9,15.3,15.9,26.4,25.3,30.5,28.9,32.2,28.3a2.26,2.26,0,0,0,1.5-1.8c0-1.4-5.7-6.9-11.5-11.1-2.2-1.6-8.2-7.2-13.4-12.3-10.5-10.5-21.6-20.2-23.1-20.2A1.12,1.12,0,0,0,720,214.82Z"/><path class="cls-1" d="M100.2,223.62l-26.2.5-2,3.3c-2.4,3.9-1.1,5,3.6,3.1,4.5-1.8,29.7-2.1,187.9-2.4,80.3-.1,147.4-.4,149-.5s18.6.1,37.7.6c27,.5,34.5,1,34.1,2-1,2.7,2,2.5,4.6-.4a30.49,30.49,0,0,1,5.9-4.6,11.39,11.39,0,0,0,3.2-2C498,222.62,131.4,223,100.2,223.62Z"/><path class="cls-1" d="M649,225c0,1.7,7.3,8.5,12.9,12,2.2,1.5,4.1,3.3,4.1,4,0,2.1,8,8.6,10.6,8.6,1.5,0,3.9,1.9,7.1,5.6,7.3,8.5,12.8,13.8,18.8,17.9,5,3.5,5.5,3.6,7.5,2.2s2-1.6-6.2-7.8c-9.2-7-18.5-15-32.8-27.9C655.6,225.62,649,221.22,649,225Z"/><path class="cls-1" d="M80.2,237.22c1.2.7,3.8.9,5.8.7,2.5-.4,4.9.1,7.9,1.6,3.7,2,5.5,2.1,17.9,1.9,7.5-.2,88.6-.2,180.1-.1,166.3.3,166.4.3,164.6,2.3-2.1,2.3-1.5,2.4,3.7.9,2.9-.7,3.9-1.6,4.4-3.7.3-1.5.8-3.3,1-4.1.4-1.1-3.9-1.2-26.8-.6-15,.4-35.2.7-44.8.7C101,236.12,78.2,236.22,80.2,237.22Z"/><path class="cls-1" d="M773.6,245.72c3.6,4.1,11.6,9.9,13.6,9.9,1.5,0,.4-1.5-4.4-6-4-3.8-7.2-6-8.7-6C771.7,243.62,771.7,243.62,773.6,245.72Z"/><path class="cls-1" d="M415,247.62c-1.9.4-68.6,1.1-148.3,1.4l-144.7.6-2.1,2.1c-1.9,1.9-2.8,2-7.8,1.4-7.1-1-9.1-.9-10.5.5-1.6,1.6,213.4.7,232.6-.9,10.5-1,16.2-1,25,0,6.2.6,19.9,1.5,30.3,1.9s20,1,21.3,1.5,2.2.3,2.2-.4.7-1.1,1.5-1.1,1.5-.9,1.5-2a7.35,7.35,0,0,1,2.2-4C420.5,246.42,420.3,246.42,415,247.62Z"/><path class="cls-1" d="M471.6,248.32c-.8.9,10.4,12.3,12.1,12.3,3,0,.9-3.8-4.6-8.3C472.9,247.32,472.7,247.22,471.6,248.32Z"/><path class="cls-1" d="M499.4,249.12c-.8,2,3.2,6.5,5.8,6.5,2.8,0,2.1-2.2-1.7-5.3C500.5,247.92,499.9,247.72,499.4,249.12Z"/><path class="cls-1" d="M551,248.82c.1,2,2.3,4.4,9,9.8a61.89,61.89,0,0,1,7.7,7,29.78,29.78,0,0,0,5.8,4.9c3.3,2.2,5.1,2.8,6.6,2.3,1.9-.7.8-1.9-8.7-9.8C552.1,247.12,551,246.42,551,248.82Z"/><path class="cls-1" d="M510.6,249.52c-.8,1.2,2.5,3.1,5.3,3.1,2.6,0,2.8-1.6.4-2.3a19.57,19.57,0,0,1-3.4-1.2C511.9,248.82,510.9,248.92,510.6,249.52Z"/><path class="cls-1" d="M658,250.62c0,.5,1.9,2.2,4.3,3.9a96.32,96.32,0,0,1,9.5,8c5,4.9,9.2,6.6,9.2,3.8,0-1.9-18.8-16.7-21.1-16.7C658.8,249.62,658,250,658,250.62Z"/><path class="cls-1" d="M576.2,253.32c.2.9,3.6,4.3,7.5,7.6,5.4,4.3,7.8,5.7,9.3,5.2,1.1-.3,2-1,2-1.5,0-1.3-15.9-13-17.6-13C576.5,251.62,576,252.32,576.2,253.32Z"/><path class="cls-1" d="M607,252.52c0,1.5,9.4,8.6,11.7,8.8,3.9.3,2.5-2-3.5-6C609.4,251.62,607,250.82,607,252.52Z"/><path class="cls-1" d="M627,253.92c0,2.2,4.5,5.8,6.3,5.1,2.4-.9,2.1-1.9-.9-4.3S627,252,627,253.92Z"/><path class="cls-1" d="M465,255.62c0,1.5,6.7,7.8,10.3,9.6s3.6,2-2.7-5.9C469.2,255.12,465,253,465,255.62Z"/><path class="cls-1" d="M492,257.42c2.3,3.2,4,4.1,4,2.3,0-.5-1.4-2-3.2-3.2l-3.1-2.3Z"/><path class="cls-1" d="M540,256.52c0,1.5,3,4.5,12.8,12.7,10.2,8.6,13.4,10.7,15.8,10.2,2.7-.5-1.6-4.9-14.6-14.7C542.5,256,540,254.52,540,256.52Z"/><path class="cls-1" d="M409.7,258.62c-4.8.8-6.5,1.6-5.6,2.4.7.7,9.3-1.4,10.4-2.5.5-.5.7-.8.5-.8S412.3,258.22,409.7,258.62Z"/><path class="cls-1" d="M60,261.42c0,1.7,9.7,10.2,11.5,10.2,1.5-.1.5-1.4-4-5.5C61.7,260.82,60,259.72,60,261.42Z"/><path class="cls-1" d="M69.6,261.52c-.8,1.2,8.7,9.1,11,9.1,1.4,0,1.1-.7-1.7-3.6C75,262.92,70.4,260.22,69.6,261.52Z"/><path class="cls-1" d="M445.4,262.12c-.7,1.7,3,5.5,5.3,5.5,1.6,0,1.6-.5.3-3C449.4,261.62,446.1,260.12,445.4,262.12Z"/><path class="cls-1" d="M456.6,261.52c-.9,1.4,3.3,6.1,5.5,6.1,2.4,0,2.4-1.1-.2-4.4C459.8,260.62,457.6,259.82,456.6,261.52Z"/><path class="cls-1" d="M97.2,262.72c-2.6.8-3.3,1.5-3,3.2.3,1.9.8,2.2,4.3,1.8,2.2-.2,51.3-.5,109-.7,110.4-.3,126.5-.7,126.5-3a3.57,3.57,0,0,0-.2-1.5c-.2,0-52.7-.2-116.8-.4C142.2,261.82,99.3,262.12,97.2,262.72Z"/><path class="cls-1" d="M352,262.52c0,2,2.8,2.5,19.9,3.7,14.9,1,17.7,1,18.6-.2.5-.7,2.8-2,5-2.8,3.7-1.3,2.2-1.5-19.7-1.5C361.5,261.62,352,262,352,262.52Z"/><path class="cls-1" d="M52.5,265.62c-.7,1.1,2.1,5,3.7,5s.8-2.7-1.1-4.4C53.8,265,53,264.82,52.5,265.62Z"/><path class="cls-1" d="M536,269.12c0,.8,1.2,2.6,2.8,4,3.7,3.5,16.8,12.5,18.1,12.5,2.4,0,.9-3.7-2.1-5.5-1.8-1-6.4-4.3-10.3-7.2C537,267.22,536,266.82,536,269.12Z"/><path class="cls-1" d="M108,272.92c0,.2.5,1.8,1.1,3.6.9,2.5,1.6,3.1,4,3.1a16.56,16.56,0,0,0,6-1.5c2.5-1.3,3.6-1.4,7.2-.3,2.3.7,4.7,1.7,5.2,2.4.7.9,4.3.9,13.5.3,6.9-.5,31.3-.8,54.2-.6,29.8.1,42-.1,42.8-.9s.3-1.3-2.2-1.8c-9-1.7-36.8-2.6-80.1-2.6-31,0-48.5-.4-49.8-1C108.9,273,108,272.72,108,272.92Z"/><path class="cls-1" d="M303.1,277.22c3.3,3.4,3.5,3.5,10.4,3.2,5.3-.2,7-.7,7.2-1.8.6-3-1.4-3.7-11.1-4.3l-9.9-.6Z"/><path class="cls-1" d="M255,276c0,.9-.5,1.6-1.2,1.6s-.9.2-.6.5c.9.9,35.8,2.6,37.1,1.8,1.7-1-3.6-2.3-14.3-3.4-5.2-.5-12.1-1.2-15.2-1.5C255.9,274.42,255,274.62,255,276Z"/><path class="cls-1" d="M326.5,275.62c-.7,1.1,1,2.7,3.5,3.4,1.4.4,28.6.9,60.5,1.1,57.5.4,58,.4,55.6-1.6s-6.7-2.6-7.3-.8c-.8,2.4-8.6,2.2-15.3-.5l-6.5-2.6-45.1.2C347.1,275,326.7,275.32,326.5,275.62Z"/><path class="cls-1" d="M486.4,278.72c-5.3,4.2-5.3,4.3-1.9,3.5a19.78,19.78,0,0,1,5-.6,40.18,40.18,0,0,0,5.3-.5l3.3-.6-3.6-2.5a37.11,37.11,0,0,0-3.9-2.4A33,33,0,0,0,486.4,278.72Z"/><path class="cls-1" d="M868,281.42a1.37,1.37,0,0,1-1.5,1.2c-1.9,0-1.9,1.4.1,3.1.8.7,4.9,5.8,9.1,11.3s9.8,12.9,12.4,16.3a54.18,54.18,0,0,1,6.4,9.6c1.4,3.4,3.2,5.4,4,4.5.2-.2-.9-4.2-2.6-8.8s-3.4-9.8-3.9-11.4c-1.4-4.4-4.1-8.1-4.9-6.7-.5.7-2.8-1.5-6.4-6.1C874.4,286.22,868,279.62,868,281.42Z"/><path class="cls-1" d="M740,282.52c0,1.6,9.2,12.1,10.6,12.1,2.9,0,1.2-3.9-3.6-8.4S740,280.62,740,282.52Z"/><path class="cls-1" d="M652.9,287.32c10.9,12.8,11.8,13.6,13.4,13,1-.4,1.7-1.1,1.7-1.6,0-1.4-16.3-16.1-17.8-16.1C649.4,282.62,650.6,284.72,652.9,287.32Z"/><path class="cls-1" d="M848.1,283.52c-1.8,1.2-.2,4,4.2,7.4a47.85,47.85,0,0,1,7.3,7.9,56.76,56.76,0,0,0,6.6,7.6c1.6,1.3,2.8,2.9,2.8,3.5s1.9,2.9,4.3,5.2a84.07,84.07,0,0,1,7.2,7.8c2.2,2.8,3.5,3.7,4.8,3.2.9-.4,1.7-1.1,1.7-1.5,0-2.1-35-42-36.8-42A5.62,5.62,0,0,0,848.1,283.52Z"/><path class="cls-1" d="M660,285.12c0,1.7,4.7,6.3,7.3,7.1,3.6,1.2,3.1-.9-1.2-4.7C661.4,283.32,660,282.72,660,285.12Z"/><path class="cls-1" d="M717,284.72c0,1.5,19.2,21.9,20.6,21.9,3.4,0,1.6-2.8-8-12.5C719.8,284.22,717,282.12,717,284.72Z"/><path class="cls-1" d="M503.2,286.32c-1,1.7-3.5,1.8-53.1,1.5-43.3-.2-52.1,0-52.1,1.1,0,2,29.4,3.6,79,4.2l41.5.6-5-2.7a43.28,43.28,0,0,1-7.2-4.6C504.3,284.52,504.2,284.52,503.2,286.32Z"/><path class="cls-1" d="M146.8,287.52c3.3,2.1,4.2,4.5,2,5.5-.7.3,6.1.3,15.2,0,32.7-1.2,109.6.1,111.8,1.9,1.1.8,1.8.5,3.3-1.3,5.3-6.8,7-6.3-21.7-5.6-27.4.6-105.8-.7-110.9-1.9l-3-.7Z"/><path class="cls-1" d="M538.4,286.82c-.9,1.4,3.1,4.8,5.7,4.8,2.8,0,2.4-3.5-.6-4.8C540.3,285.32,539.3,285.32,538.4,286.82Z"/><path class="cls-1" d="M832.4,287c-.9.8,1.3,3.7,9,11.7,5.5,5.8,13.5,14.4,17.6,19.2,6.5,7.6,7.8,8.7,10,8.1a8.6,8.6,0,0,0,2.8-.9c.7-.6-25.4-28.8-31-33.6C834.1,285.82,833.7,285.62,832.4,287Z"/><path class="cls-1" d="M732,291.52c4,4.7,7,6.5,7,4.1,0-1.3-4.9-5.8-8.4-7.7C727.9,286.52,728,286.82,732,291.52Z"/><path class="cls-1" d="M317.5,290.62l2.8,3,18.6-.6c10.2-.3,19.5-1,20.6-1.5a26.8,26.8,0,0,1,6.4-1.1c2.5-.2,4.6-.9,4.9-1.6.3-.9-5.7-1.2-27.9-1.2H314.6Z"/><path class="cls-1" d="M556.5,289.72c-6.8,2.3-11.3,5.7-6,4.4,1.7-.4,7.9-.7,13.9-.6,8.9.1,11.3.4,12.9,1.9,1.8,1.6,1.9,1.6,1.6-.3a5.25,5.25,0,0,0-2.8-3.1,10.44,10.44,0,0,1-3-2.2C571.7,287.52,562.7,287.52,556.5,289.72Z"/><path class="cls-1" d="M630.6,289.22c-.4,1.1,2.1,4.4,8.1,10.6,10.3,10.5,11.6,11.4,13.4,9.2,1.1-1.4,0-2.8-8.2-10.6C633,288,631.5,287,630.6,289.22Z"/><path class="cls-1" d="M645,290.22c0,1.7,9.3,12,12.3,13.6,1.2.6,2.3.6,2.8.1s-1.6-3.7-5.7-8.1C648,288.82,645,287,645,290.22Z"/><path class="cls-1" d="M755,289.62c0,.5,1.6,2.2,3.6,3.7a64.5,64.5,0,0,1,5.3,4.4c.9.9,6.1,6.2,11.6,11.9,11.3,11.5,14.6,13.8,16.5,11.5,1.4-1.7,1-2.1-15.1-16.4C760.1,289.92,755,286.42,755,289.62Z"/><path class="cls-1" d="M96,291.52c1.1,2.1,14.3,12.1,16,12.1,2.1,0,.8-1.9-3.7-5.6-2.7-2.1-5-4.1-5.3-4.4-1.1-1.2-6-4-7-4C95.3,289.62,95.2,290.22,96,291.52Z"/><path class="cls-1" d="M107,292.52c0,1.1,6.7,7.1,8,7.1,2.3,0,.7-3.1-2.7-5.5C108.3,291.42,107,291,107,292.52Z"/><path class="cls-1" d="M121,292.92a5.77,5.77,0,0,0,2,3.2,5.77,5.77,0,0,1,2,3.2c0,.7,1.1,1.3,2.6,1.3s4.7,1.4,7.3,3.1l4.6,3.2,14.5-.8c20.1-1.1,41.7-1.4,53-.6,5.2.3,15.9.2,23.7-.3,11.5-.7,16-.6,23,.7,10.9,1.9,14.5,1.4,17.8-2.5,1.4-1.7,2.5-3.1,2.3-3.2-.8-.4-34.7,1.3-38.1,1.9-2.3.5-4.3.3-5.1-.4-1-.8-7-1-20.7-.5-27.1.8-35.9.8-55.9,0-24.7-1-28.4-1.4-26.9-3.2,1-1.2.7-1.9-1.1-3.9C123.4,291.42,121,290.82,121,292.92Z"/><path class="cls-1" d="M622.2,293c.5,2.2,14.5,16.6,16.1,16.6,2.8,0,2.7-1.6-.4-5.3-3.4-4.2-13.6-12.7-15.1-12.7C622.3,291.62,622,292.22,622.2,293Z"/><path class="cls-1" d="M703,293c0,2,19.7,18,22.6,18.4,5.2.7,2-3.5-9.5-12.7C707.7,292,703,289.92,703,293Z"/><path class="cls-1" d="M45.4,293.72c-.8,1.3,6,8.5,10.1,10.6a75.82,75.82,0,0,1,9.5,7.2c9.7,8.4,13.9,11.3,15.5,10.7s2.1-2.6.6-2.6c-1,0-12.4-9-12.9-10.2a75.35,75.35,0,0,0-7.5-6,100.88,100.88,0,0,1-9.2-7.1C48.4,293.42,46.2,292.42,45.4,293.72Z"/><path class="cls-1" d="M608.4,293.72c-.4.6.8,2.5,2.7,4.2s5.7,5.2,8.5,7.9c4.4,4.2,5.5,4.8,7.8,4.2,2.8-.7,2.8-.7-4-6.8-7.4-6.7-12.4-10.6-13.5-10.6A2.43,2.43,0,0,0,608.4,293.72Z"/><path class="cls-1" d="M816,293.72c0,1.3,10.7,11.6,16.6,15.9a58.59,58.59,0,0,1,8,7.5,90.51,90.51,0,0,0,10.7,11.2c2.2,1.7,4.7,1.6,4.7-.1,0-1.4-21.8-22.5-31.4-30.4C819.8,293.82,816,292,816,293.72Z"/><path class="cls-1" d="M802.1,295.22c-1.1,1.3.5,3.3,12.4,15,12.3,12.1,14,13.4,17.2,13.4,1.9,0,3.3-.3,3.1-.8-.6-1.4-29.7-29.2-30.5-29.2A7.22,7.22,0,0,0,802.1,295.22Z"/><path class="cls-1" d="M64,295.22c0,1.7,6.1,8.1,11,11.4a113.48,113.48,0,0,1,11.4,9.1,67.59,67.59,0,0,0,8.6,6.8,82,82,0,0,1,7,4.8c2.3,1.8,4.8,2.9,5.6,2.6,2.1-.8-3.6-6.6-9-9.2a25.67,25.67,0,0,1-7.1-5.1,88.72,88.72,0,0,0-10-8.3c-3.8-2.8-8.9-6.8-11.2-8.9C66.4,294.92,64,293.72,64,295.22Z"/><path class="cls-1" d="M38.8,299.42c-.4,1.3,1.5,3.4,7.1,7.8,8.8,6.9,13.8,10.1,14.7,9.2,1-1.1-1.6-4.7-4.4-6.2a64.45,64.45,0,0,1-9-7c-3.5-3.1-6.7-5.6-7.1-5.6S39,298.42,38.8,299.42Z"/><path class="cls-1" d="M581.6,299.32c-1.9,1.9-86.5,3.2-115.1,1.8-10.7-.6-13.5-.4-15.9.9-2.1,1.1-2.6,1.7-1.5,2,5.1,1.9,26.5,2.6,82.2,2.6H594l-4-4C586.2,298.82,583.3,297.72,581.6,299.32Z"/><path class="cls-1" d="M786,299.92c0,.7,1.5,2,3.3,2.9s8.2,6.3,14.2,12.1c9.5,9,11.3,10.3,13.3,9.6s1.6-1.5-6.9-9.6C796.7,302.12,786,295.42,786,299.92Z"/><path class="cls-1" d="M331,304.12c3.2,3.1,3.9,3.4,7.8,2.8,3.5-.5,4.2-.9,4.2-2.8,0-2.5-3-3.5-10.9-3.5h-4.6Z"/><path class="cls-1" d="M691.5,303.72c1.3,2,9.8,9.4,10.9,9.4.6,0,1.2-.8,1.4-1.7.2-1.1-1.4-3-4.5-5.2C694.7,302.82,690.1,301.32,691.5,303.72Z"/><path class="cls-1" d="M606.6,305.42c-.7,1.1.4,2.4,4.5,5.5,3.6,2.7,7.3,3.5,8.4,1.7.3-.5-1.8-2.5-4.7-4.5C609.5,304.62,607.5,303.92,606.6,305.42Z"/><path class="cls-1" d="M35.5,309.62c-.8,2.5.5,4.2,5.8,8.1,3.8,2.8,6.7,2.9,6.7.4,0-.8-2.1-3.1-4.7-5.1C36,307.22,36.2,307.32,35.5,309.62Z"/><path class="cls-1" d="M681.4,309.72c-.8,1.4,7.5,8.9,9.6,8.6,2.7-.4,1.6-3-2.8-6.4C683.5,308.32,682.5,308,681.4,309.72Z"/><path class="cls-1" d="M600,310.42a4,4,0,0,0,1.2,2c.9.9-1.3,1.2-10.2,1.2-6.3,0-16.9.5-23.5,1s-16,1-21,1.1-9.9.5-10.9.9c-5,1.8,2.8,2.5,28.9,2.6,15.4,0,39.2.1,53,.2l24.9.2-3.7,3.6c-2,2-3.7,4.4-3.6,5.3,0,1.3.2,1.3.6.1,1-2.8,3.6-5,5.8-5a7,7,0,0,0,4.3-2.5l2.1-2.4-3-2.6c-1.9-1.5-3.9-2.3-5.2-2.1s-5.8,1.2-10.1,2.2c-10.1,2.1-15.1,1.4-23.3-3.2C602.9,311.12,600,309.92,600,310.42Z"/><path class="cls-1" d="M195,311.92c-2.6.7-13.5,1.2-25.8,1.2H147.9l2.8,2.2c3.2,2.6,4.5,2.8,7.3,1.1,1.6-1,3.2-.9,8.2.5,3.5,1,8.8,2.2,11.8,2.7,5.1.8,5.9.7,13.7-3.1,4.6-2.1,9-3.9,9.9-3.9,1.8,0,9.7,3.9,10.5,5.2,1,1.5,10.7-2.3,11.2-4.4s0-2.2-5.7-.7c-3.6.9-4.9.8-7.4-.5C206.7,310.42,201.6,310.32,195,311.92Z"/><path class="cls-1" d="M279.5,312.62a14.14,14.14,0,0,0,4.8.9c1.7.1,4.6,1.5,7.3,3.7,5.2,4.3,5.9,2.7,1-2.2-3.1-3.1-3.9-3.4-9.2-3.3C279.2,311.72,278.1,312,279.5,312.62Z"/><path class="cls-1" d="M256.2,313.52l-7.4.6,3.1,2.2c3.9,2.9,4.9,2.9,9.1-.7,1.9-1.6,3.3-2.9,3-2.8S260.2,313.22,256.2,313.52Z"/><path class="cls-1" d="M340.7,314.12c2.1,3.8,4.9,5.5,8.7,5.5,9.6-.1,17-3.8,10.3-5.2C354,313.32,340.1,313,340.7,314.12Z"/><path class="cls-1" d="M385.4,315c-1,2.7.4,3.4,8.3,4,9.1.7,15.7-.3,16.1-2.4.2-1.2-1.2-1.5-7-1.7a97.33,97.33,0,0,1-12-.8C387,313.52,385.9,313.72,385.4,315Z"/><path class="cls-1" d="M478.6,315.12c-1.1.8-3.9,1.5-6.4,1.5-3,0-4.2.4-3.9,1.2.7,2.2,46.9,1.2,50.6-1.1,1.2-.8-4.5-1.3-28.4-2.6C482.4,313.62,480.1,313.82,478.6,315.12Z"/><path class="cls-1" d="M703.2,316.82a4,4,0,0,0-1.2,2c0,.4,5.5.8,12.2.8,13.1,0,14.3-1,3.7-2.8C709.4,315.32,704.7,315.32,703.2,316.82Z"/><path class="cls-1" d="M311,318.52c0,.5,1.4,1.1,3,1.4,3.9.8,3.8,2.4-.2,3.5l-3.3.9,2.7.8c1.6.4,3.5.5,4.3.1,2-.7,1.9-4-.1-6C315.8,317.52,311,317,311,318.52Z"/><path class="cls-1" d="M32,320.62v2.7c0,.5,1.2,1.1,2.8,1.5s4.7,2.8,7.2,5.3,4.8,4.5,5.4,4.5a5.78,5.78,0,0,1,2.5,1.5c.9.8,3.1,2.7,4.9,4.1,3,2.4,3.5,2.5,4.9,1.1s1.3-1.6-.8-2.8a163.85,163.85,0,0,1-13.7-10.6c-6.2-5.1-11.7-9.3-12.3-9.3S32,319.52,32,320.62Z"/><path class="cls-1" d="M67.3,320.32c-1.7.6-1.6,2.8.1,4.2,2.1,1.7,4.5-1.5,2.5-3.3A2.72,2.72,0,0,0,67.3,320.32Z"/><path class="cls-1" d="M116,321.32c0,1.3,27.4,26.9,31.8,29.8,2.3,1.5,4.8,2.5,5.7,2.3,1.8-.3,1.8-.4-15-16.4-11.6-11.2-18.2-16.4-20.6-16.4C116.9,320.62,116,320.92,116,321.32Z"/><path class="cls-1" d="M50.4,322.72a1.92,1.92,0,0,0,2.5,2.5A3,3,0,0,0,54,323C54,321.42,51.4,321.12,50.4,322.72Z"/><path class="cls-1" d="M191.7,324.32c-.9.9,3.3,5.3,5,5.3,2.2,0,1.5-2.7-1.2-4.4S192.6,323.32,191.7,324.32Z"/><path class="cls-1" d="M187,327.62c0,1.6,2.6,4,4.4,4,1.3,0,.5-2.8-1.2-4.3C187.8,325.12,187,325.22,187,327.62Z"/><path class="cls-1" d="M352.5,326.42c-.3.3.7,1.8,2.2,3.4,2.2,2.4,3.5,2.8,7.7,2.8,5.7,0,8.9-1.3,6.1-2.4a15.2,15.2,0,0,0-3.9-.6,8.07,8.07,0,0,1-4.1-1.4C358.3,326.72,353.3,325.62,352.5,326.42Z"/><path class="cls-1" d="M653.9,327.72a19.49,19.49,0,0,1-5.8,3.5c-3.3,1.2-2.6,1.3,8.4,1.4,6.6,0,20-.7,29.8-1.6,14.9-1.4,19.1-1.5,25.5-.5,9.7,1.6,45.5,2.3,58.7,1.2,7.7-.7,10.9-.5,14,.6a14.28,14.28,0,0,0,6.9.7c2.9-.6,2.8-.7-3.1-2.9-6.1-2.2-7.5-2.2-67.8-2.9-33.8-.4-62.2-.9-62.9-1.2S655.1,326.52,653.9,327.72Z"/><path class="cls-1" d="M140,327.12a55.33,55.33,0,0,0,5.3,5.8c2.8,2.9,6.4,6.7,7.9,8.3,8.4,9.3,13.4,12.2,14.5,8.8.5-1.4-24.2-23.4-26.2-23.4C140.7,326.62,140,326.82,140,327.12Z"/><path class="cls-1" d="M218.7,328.72c.9,3.2,5.1,5.5,7.4,4.1a7,7,0,0,1,3.3-1.2,2,2,0,0,0,1.8-1.1c.2-.7,1.2-.7,3.1,0s2.7.7,2.7.1c0-1.2-2.8-2.4-7.7-3.5-2.7-.5-3.3-.4-3.3,1,0,1.6-.2,1.6-2.5.1C220.1,325.92,218.1,326.12,218.7,328.72Z"/><path class="cls-1" d="M300.5,327.62a17.62,17.62,0,0,1-5.8.9c-4.1.1-5.8,2.1-3.7,4.6,1.8,2.2,4,1.8,4-.6,0-1.6.4-1.9,1.8-1.4,4.5,1.9,5.4,1.9,4.8-.2-.5-1.4,0-2.3,1.6-3.1C305.9,326.52,303.5,326.32,300.5,327.62Z"/><path class="cls-1" d="M453.5,327.62c-.7,1.2-.6,1.2,10,3.5,6.9,1.5,12.4,1.6,40.5,1.2,18.7-.2,33.8-.9,35.5-1.5,3.6-1.2,4.4-1.2-19-1.8-10.4-.3-21.4-.9-24.4-1.4C488.7,326.32,454.3,326.32,453.5,327.62Z"/><path class="cls-1" d="M582.8,327.32c-3,.5-3.9,3.3-1,3.3.9,0,9.1.5,18.1,1.1,13.4.9,16.5.8,17.2-.3,1.4-2.1,1.1-2.3-3.6-3.6C609.3,326.72,589.1,326.42,582.8,327.32Z"/><path class="cls-1" d="M825,327.62c-4.1.3-8.6,1.1-9.9,1.9a26.64,26.64,0,0,1-5,2.1c-1.4.3,3.8.4,11.6.2,13-.4,14.6-.3,18.2,1.6a26.24,26.24,0,0,0,8.8,2.5c2.6.3,3.8.2,2.5,0-1.6-.3-2.5-1.4-2.9-3.3-.3-1.6-1-3.4-1.7-3.8C845.1,327.52,834.1,327,825,327.62Z"/><path class="cls-1" d="M29,331.12c-1,2.7-.9,3.2,1.7,5.3,8.7,7.1,14.1,11,14.7,10.5,1.6-1.7.2-4.5-4.1-8a97.21,97.21,0,0,1-7.9-7.3l-3.3-3.4Z"/><path class="cls-1" d="M240,329.42c0,.5.7,1.3,1.6,1.6s1.4.1,1.2-.6C242.3,328.92,240,328.12,240,329.42Z"/><path class="cls-1" d="M304,330.42a4.18,4.18,0,0,0,1.6,2.3c1.4,1.2,1.6,1.1,1.3-.5C306.5,330.22,304,328.72,304,330.42Z"/><path class="cls-1" d="M114,336.52c0,1.6,10.8,11,13.4,11.7,3.7.9,4.4-.2,1.5-2.5-1.3-1-4.6-3.7-7.4-6C116.8,335.82,114,334.62,114,336.52Z"/><path class="cls-1" d="M368.6,342.52l3.6,3.3,8.7-.6c4.7-.4,13.9-1,20.3-1.4s11.9-1,12.2-1.3c.8-.8-23.9-2.9-37.2-3.2l-11.3-.2Z"/><path class="cls-1" d="M320,341.12c0,1.9,4.6,4.9,6,4,.8-.5.4-1.5-1.1-3.1C322.4,339.32,320,338.92,320,341.12Z"/><path class="cls-1" d="M550.5,340.22c-2.7.2-7.9.7-11.5,1.1l-6.5.8,9,.7c21.4,1.7,34.2,2,36.5.8,1.5-.8,1.9-1.5,1.2-2.2C578.1,340.32,559.4,339.52,550.5,340.22Z"/><path class="cls-1" d="M623.9,341.22a2.85,2.85,0,0,0-.3,2.7c.5,1.5,7.4,1.6,68.8,1.6,66.4,0,68.4.1,73,2.1a26.42,26.42,0,0,0,8.1,2c3.1,0,6.5-2.1,6.5-4a7.44,7.44,0,0,1,.5-2.2c.4-1-.9-1.2-6.2-1a48.3,48.3,0,0,1-11.8-.8C755.5,340,625.2,339.62,623.9,341.22Z"/><path class="cls-1" d="M25.4,345.22c-.8,3-.7,3.2,10.7,11.7,3.5,2.6,7.6,5.7,9,6.8s3.3,1.9,4,1.7-1.8-3.3-6.2-7.4c-4-3.8-8.7-8.3-10.4-9.9C26.7,342.32,26.2,342.12,25.4,345.22Z"/><path class="cls-1" d="M293.8,343.22c-.8.7,3.6,5.4,5.1,5.4,1.9,0,1.2-2.8-1.1-4.4S294.6,342.32,293.8,343.22Z"/><path class="cls-1" d="M302,344.42c0,1,1.5,3.2,3.3,5,3.5,3.4,7.7,4.3,7.7,1.7a1.44,1.44,0,0,0-1.3-1.5c-.7,0-2.7-1.6-4.4-3.5C303.9,342.22,302,341.62,302,344.42Z"/><path class="cls-1" d="M270,344.22c0,1,9.2,9.4,10.3,9.4,2.1,0-.2-3.7-4.1-6.7C272,343.72,270,342.92,270,344.22Z"/><path class="cls-1" d="M312,344.42c0,1,3.8,4.2,5,4.2,1.6,0,1.1-2.2-.7-3.6C314.3,343.52,312,343.22,312,344.42Z"/><path class="cls-1" d="M350.6,344.52c-.4.7-.5,1.5-.2,1.8.9.9,1.9-.4,1.4-1.8C351.4,343.42,351.2,343.42,350.6,344.52Z"/><path class="cls-1" d="M62.3,346.32c.9.9,1.9,1.4,2.3,1.1,1-1-.6-2.8-2.4-2.8C60.7,344.62,60.7,344.72,62.3,346.32Z"/><path class="cls-1" d="M259.6,345.42a2.2,2.2,0,0,0,.2,1.9c1.3,2,13.5,11.3,14.9,11.3,2.6,0,1.2-2.7-3.2-6-2.5-1.9-4.5-3.6-4.5-4,0-.6-5.4-4-6.3-4A1.94,1.94,0,0,0,259.6,345.42Z"/><path class="cls-1" d="M287,348.12c3.9,4.1,4,4.1,4,1.7,0-1-1.3-2.5-2.9-3.5C283.6,343.72,283.3,344.32,287,348.12Z"/><path class="cls-1" d="M182,346.42c0,1.3,12.1,14.2,17.7,18.7,5.1,4.2,9.3,5.8,9.3,3.6,0-1.4-24.9-23.1-26.4-23.1C182.3,345.62,182,345.92,182,346.42Z"/><path class="cls-1" d="M48.5,348.62c-1.2,2,8.8,9.1,10.5,7.4.5-.5-1.2-2.3-4.5-4.6C51.5,349.42,48.8,348.12,48.5,348.62Z"/><path class="cls-1" d="M199,350.42c0,.5,1.8,2.5,4.1,4.3s6.4,5.8,9.4,8.8c3.6,3.7,5.7,5.2,6.9,4.8,2.7-1.1,1.8-2.4-5.6-8.6C206,353.32,199,348.92,199,350.42Z"/><path class="cls-1" d="M295.5,352c-1.6,1.1-1.3,1.4,3,1.9,5,.7,6.6.3,4.9-1.2C301.6,351,297.3,350.62,295.5,352Z"/><path class="cls-1" d="M762,352.12a92,92,0,0,1-15,1.5l-9.5.3,6.5.7c3.6.3,7.6,1.2,8.9,1.9,2,1.1,3,1,7.5-1.2,2.8-1.3,6.2-2.9,7.6-3.5C771.2,350.42,768.9,350.62,762,352.12Z"/><path class="cls-1" d="M219,353.72a15.9,15.9,0,0,0,4.4,4,20.9,20.9,0,0,1,5.4,4.9c2.1,2.8,6.2,4.2,6.2,2,0-1.4-13.8-13-15.6-13C218.2,351.62,218.1,352,219,353.72Z"/><path class="cls-1" d="M380,352.42c0,.6,1.5,2.2,3.2,3.7,3.1,2.6,3.6,2.7,10.2,2.1a57,57,0,0,0,7.4-1c.2-.3-.1-1.4-.8-2.5-.9-1.8-2-2.1-8.3-2.1a59,59,0,0,1-9.4-.6C381,351.62,380,351.82,380,352.42Z"/><path class="cls-1" d="M819,352.52c0,.5,1.1,1.8,2.4,2.9a30.38,30.38,0,0,1,5.3,6.3c1.6,2.4,3.8,5.5,5,6.9s3.7,4.5,5.6,7c3.5,4.8,6.3,6.2,7.3,3.6.4-1.1-2.1-4.6-7.7-10.9-4.6-5.1-9.8-10.9-11.6-13C822.3,351.92,819,350.42,819,352.52Z"/><path class="cls-1" d="M897,352.52c0,.6,2.2,4.6,5,8.8,4.5,7.1,5,7.5,5,4.7,0-4.2-3-12.9-4-11.4-.5.9-.9.9-1.4.1C900.5,353,897,351.32,897,352.52Z"/><path class="cls-1" d="M409.3,354.32a2.13,2.13,0,0,0,.2,2.1c2.3,2.3,61.4-.6,59.9-2.9-.3-.5-13.8-.8-30.1-.7C415.6,352.92,409.7,353.22,409.3,354.32Z"/><path class="cls-1" d="M554.5,353.62c-.7,1.2,3.9,2.4,6,1.6.8-.3,1.5-1,1.5-1.6C562,352.32,555.3,352.32,554.5,353.62Z"/><path class="cls-1" d="M568.7,354c-.4,1.1-.1,1.6,1.1,1.7.9,0,5.8.5,10.7,1.1,12.1,1.3,120.3,2.2,121.8.9a17.8,17.8,0,0,1,5.2-1.6c6.4-1.2,7.6-2.4,2.5-2.6-9.8-.3-20.6.3-22.4,1.3-1.2.7-6.6.6-16.5-.1-8-.6-21.1-1-29.1-.9-24.7.2-42.9,0-58.1-.7C571,352.52,569.2,352.62,568.7,354Z"/><path class="cls-1" d="M880.4,354.22c1.1,2.8,15.8,21.4,17,21.4a6.17,6.17,0,0,0,2.4-.8c1.8-1.2-15.4-22.2-18.1-22.2C880.4,352.62,880,353.12,880.4,354.22Z"/><path class="cls-1" d="M134.4,355.12a8.28,8.28,0,0,0,3.9,1.5c1.6,0,1.7-.3.7-1.5a5.79,5.79,0,0,0-3.9-1.5C132.6,353.72,132.6,353.72,134.4,355.12Z"/><path class="cls-1" d="M836,355.12c0,1.2,4.3,6.6,11.4,14.2,2.5,2.7,4.4,2.9,5.3.7.4-1.1-1.7-3.9-6.8-9C838.7,353.82,836,352.12,836,355.12Z"/><path class="cls-1" d="M22.8,357c-.6,2.9.8,4.6,3.5,4.6,1.4,0,1.7-.5,1.1-2.3C25.9,354.42,23.5,353.22,22.8,357Z"/><path class="cls-1" d="M487,355.62c0,.5,1.8,1,4.1,1s3.8-.4,3.4-1-2.2-1-4.1-1S487,355,487,355.62Z"/><path class="cls-1" d="M61.2,359.22a2.77,2.77,0,0,0,2.2,2.2c1.3.3,1.7-.1,1.4-1.4a2.77,2.77,0,0,0-2.2-2.2C61.3,357.52,60.9,357.92,61.2,359.22Z"/><path class="cls-1" d="M83.7,360.22c-1.4,1.5-.6,3.4,1.4,3.4,1.4,0,1.9-.5,1.7-1.7C86.5,360.12,84.8,359.22,83.7,360.22Z"/><path class="cls-1" d="M258.5,362.22l-3,1.5,4-.4a13,13,0,0,1,7.5,1.5c3.9,2,6.6,2.3,7.5.8.3-.6,1.9-1,3.5-1,5.4,0,4-1.8-1.7-2.4-3.2-.3-7.8-.7-10.3-1A13.61,13.61,0,0,0,258.5,362.22Z"/><path class="cls-1" d="M21,365.92c0,2.8,5.2,8.6,7.8,8.7,2.4,0,1.1-2.6-3.3-7S21,363.22,21,365.92Z"/><path class="cls-1" d="M31.2,365.32c.4,2.1,3.3,2.5,3.3.3a2.11,2.11,0,0,0-1.8-1.8C31.3,363.52,30.9,363.92,31.2,365.32Z"/><path class="cls-1" d="M369.7,366.32c-.9,1.9.1,8.4,1.6,10.1a6.68,6.68,0,0,1,1.7,3.5c0,2.6-2,3-4.1.8a6.33,6.33,0,0,0-3.9-2.1,12.76,12.76,0,0,1-3.4-.6c-1-.4-2.2.5-3.6,2.8-1.6,2.7-2,5-2,12.3a61.85,61.85,0,0,0,1.5,13.9c.8,2.7,1.3,5.1,1.1,5.3s-2.8-.8-5.9-2.3c-4.3-2.1-5.9-3.6-7.6-7.1A22.53,22.53,0,0,1,343,396c0-4-7.6-19.4-9.5-19.4-1.3,0-1.6.9-1.5,3.7.1,2.1.2,6.4.1,9.5-.1,5.5-.2,5.7-3.8,7.5-5.1,2.5-6.5,6.8-6.8,21.8-.1,6.6-.6,15.3-1,19.3-.8,7.1-.8,7.2-2.8,5.5-3-2.8-10.4-18.4-11.2-23.7s-3.3-8.6-6.6-8.6c-1.7,0-2,.4-1.5,2.3s.2,2.3-1.7,2.3c-1.7-.1-3,1.4-5.9,6.9-2.1,3.8-3.8,8-3.8,9.2,0,2.1-2.4,4.4-9,8.6-3.4,2.2-20,23.1-20,25.2,0,.6-1,1.6-2.1,2.4-2.5,1.5-3.9.2-3.9-3.5,0-1.1-1.1-3-2.5-4.2A7.1,7.1,0,0,1,247,456c0-4.4-2.2-11.8-4.7-15.4a56.74,56.74,0,0,1-4.4-9.7c-1.2-3.6-2.7-6.4-3.7-6.7s-4.6.3-8.2,1.4a49.72,49.72,0,0,1-8.3,2c-1.1,0-3.8,1.7-6.2,3.7-7.2,6.4-13,10.2-14.3,9.4-.9-.5.2-3.6,3.8-10.9,4-8,6-10.9,9.2-13.2,5.6-4.1,6.5-5.6,8.7-15,1.5-6.5,2.6-9,5.3-11.9,5.6-5.9,10.3-14,8.9-15.4-1.7-1.7-4,0-8.2,6.3a35.82,35.82,0,0,1-7.5,7.9,23.6,23.6,0,0,0-9.4,13.2c-.8,2.9-2.2,4.6-5.5,6.9-2.5,1.7-4.5,3.5-4.5,4s-.8,1-1.8,1-7.1,3.4-13.5,7.5-11.9,7.5-12.3,7.5.2-1,1.4-2.3A19.23,19.23,0,0,0,175,421c.6-1.7,3.1-4.6,5.5-6.4s4.5-3.7,4.5-4.1c0-1.1,10.7-16.6,14.6-21.2,2.7-3.2,5.3-10.4,3.5-9.5-5,2.4-16.5,11.5-21.2,16.9l-6.1,6.8-16.7.4c-23.2.6-48.1,2.3-51.1,3.6-2.6,1,25.3,1.7,46.6,1.2,5.6-.2,11.5,0,13.2.4l3.2.7-2.5,3.3c-2.7,3.5-3.9,3.7-23,4.9-6.2.4-13.5,2.4-13.5,3.6,0,.6,5.7,1,14.1,1h14l-2.6,3.4c-2.5,3.2-2.7,3.3-12.8,4.1-5.6.5-21.9,1-36.2,1.1s-28.1.3-30.7.3c-6.9.1-5.9,1.6,2,3.1,4.9.9,15.4,1.1,38.1.8l31.3-.3-10.5,10.2c-10.1,9.9-10.7,10.3-14.9,10.3-3.2,0-4.6.5-5.6,2a4.35,4.35,0,0,1-3.2,2c-1.1,0-2,.4-2,1s1.9,1,4.2,1h4.3l-3.7,3.6-3.6,3.6-20.8.4c-11.5.2-22.9.5-25.4.7-23.4,1.8-35.9,1.9-44.9.3-5.2-.9-9.6-1.4-9.9-1.2a7,7,0,0,0,.2,3.1l.7,2.6,44.2-.5c24.3-.3,45.7-.2,47.6.2l3.4.7-2.8,3.3c-2.6,3.1-3,3.2-9.9,3.2-4,0-7.7.5-8.3,1.1s-5.5.9-13.9.6c-7.1-.2-23.5-.6-36.4-.8l-23.5-.4v3c0,2.8.2,3,3,2.5s17.8-.5,62.9-.1l17.9.1-2.5,3.2c-2.6,3.4-7.5,4.9-21.1,6.3-4.7.5-6.7,1.1-6.7,2.1s2.1,1.4,9.6,1.4h9.6l-2.7,3.2c-4.5,5.4-11.6,6-50.2,4.3-17-.7-17.3-.7-17.3,1.3,0,1.8.8,2.1,8.8,2.7,4.8.3,17.9.9,29.1,1.3l20.3.7-5.3,6.1c-7.6,8.5-19.7,22.8-31.2,36.8s-11.2,10.1-2.6,36c6.3,19,7.8,22.6,7.9,19a5.1,5.1,0,0,1,1.5-3.4,6.42,6.42,0,0,0,1.5-4.2c0-2.7.3-3,2.5-2.6,2,.4,2.6.1,3.1-1.9.8-2.9.2-3.6-3.1-3.6-1.7,0-2.5-.5-2.5-1.7,0-2.2,2.3-4.2,4.1-3.5,1.1.4,1.4-.7,1.4-4.7,0-4.6.3-5.3,2-5.3s2.1-.9,2.7-4.5c.3-2.5.7-6.4.7-8.7.1-5,1.7-6.5,3.1-2.9.5,1.4,1.2,2.6,1.5,2.6,1.4,0,3.6-8.2,3.6-14.2.1-3.7.5-7,1-7.4s.9-1.9.9-3.5c0-1.8.4-2.8,1-2.4a1.22,1.22,0,0,1,.5,1.6c-.4.5-.1,2.5.6,4.3,1,2.7,1,3.8.1,4.9-.8.9-.9,2.7-.5,4.8.5,2.8.8,3,1.4,1.4,1.1-3.1,5.2,7,4.4,11.1-.3,2-.1,3.5.8,4.2,1,.9,1.1,3.2.4,10.8-.4,5.3-.6,9.9-.3,10.1a2.46,2.46,0,0,0,2.1,0c1.2-.5,1.5-2.4,1.6-8.9.1-11,.2-11.8,1.4-11.8,1,0,1.1.6,1.4,8.8q.15,4.35,1.2,3.6c1.7-1,2.9,1.6,2.9,6.8,0,5,1.4,7.2,2.5,3.8.3-1.1,1.1-2,1.7-2s.9,2.4.6,6.4c-.3,5.2-.1,6.6,1.2,7a19.32,19.32,0,0,1,3.9,2.3c2.3,1.7,2.4,1.7,1.6-.6-.9-2.9,2.4-13.1,4.2-13.1.8,0,1.3,1.3,1.4,3.2.1,2.4.4,1.9,1-2.1.5-3,1.4-6,2-6.8a10.48,10.48,0,0,0,1.8-4.6c.4-2,1.4-3.3,2.5-3.5,2.3-.5,3.6,1.4,3.6,5.4,0,3.1,2.3,8.9,4,9.9.5.3,1.1,1.9,1.5,3.5s1.2,3,1.8,3c1.3.1,5.7,3.5,5.7,4.4,0,.3-.7.6-1.6.6-1.4,0-1.4.3-.4,1.5,1.4,1.7,4.2,1.9,6.8.6,6.9-3.4,10.5-3.2,10.8.7,0,.9.1,2.9.2,4.4.2,2.9,3.2,4.1,3.2,1.4s2.3-3,4.1-.8c1.6,2,2.7,2.2,11.7,2.2s10.1-.2,12.6-2.5c1.4-1.3,2.6-2.8,2.6-3.4s1.5-1.1,3.2-1.3c2.8-.2,3.4-.8,3.8-3.2.6-3.8,2.4-4,2.8-.4.3,2.2.9,2.8,2.8,2.8,1.5,0,2.4-.6,2.4-1.6,0-1.4.3-1.4,1.5-.4a4.8,4.8,0,0,1,1.5,3.1c0,1.2.5,1.6,1.5,1.3.8-.4,2.6.1,3.9.9a10,10,0,0,0,6.2,1.3c2.2-.2,4.7-.4,5.6-.5s2.6-1.7,3.5-3.7c2.2-4.5,3.6-4.5,4.3-.2.5,3.5.5,3.5,8.1,2.2,3.3-.5,3.7-1,4.3-4.2a58.06,58.06,0,0,0,.6-6.5c0-3.5,2.2-3.2,3,.4.6,2.3.7,2.2,1.3-.7a25.79,25.79,0,0,0,0-6.8q-.6-3.6.6-3.6c.6,0,1.1,1.1,1.1,2.5s.6,2.5,1.4,2.5q1.5,0,2.1-4.8a42.62,42.62,0,0,1,2.6-8.8,26.11,26.11,0,0,0,2-8c.1-3.2.2-3.5.8-1.4a4.07,4.07,0,0,0,2.4,2.8c1.4.3,1.7-.5,1.7-5.2,0-5.9,1.5-11.1,2.9-10.2.4.3,1.1,4.5,1.5,9.3,1.1,14.3,1.7,17.5,3.2,16.9,1.9-.7,2.9,1.3,2.5,5.1-.2,2.8.2,3.5,2.5,4.3,2.1.8,3.1.7,4.6-.6,1.1-1.1,2.2-1.4,2.7-.8,1,1.1,3.2,8.7,3.8,13.6.4,2.9,1,3.8,2.5,3.8,1.1,0,3.3,1.3,5,3l3,3h18.9c12.8,0,18.9-.3,18.9-1.1,0-.6-1-1-2.2-.9-3.9.3-4.8.1-4.8-1.4,0-1.8,3.4-3,6.5-2.2,2.1.5,2.4.2,3.3-5.7,2.3-13.2,2.6-14.2,4.8-14.5,1.7-.2,2.4.5,3.3,2.9a21.34,21.34,0,0,1,1.1,5.5c0,1.6.5,2.1,1.8,1.7s1.7-1.2,1.4-3.2a5.06,5.06,0,0,1,1.1-4.2c1-1,1.3-3,.9-7.9-.3-5.1-.1-6.8,1.1-7.8,1.9-1.6,2.5-.8,3.7,5.7,1.6,8.3,6.6,17.6,9.5,17.6,1.4,0,2.1.8,2.3,2.7.2,1.6,1.1,3,2.2,3.3,2.1.7,4.5,5.8,3.6,8-.4,1.2.3,1.5,3.6,1.5s3.8-.2,2.9-1.4c-1.3-1.6,0-3,3.6-3.9,3.3-.7,4,1.3,1.3,3.5l-2.2,1.8h3.5c2.9,0,3.6-.4,3.9-2.1.5-3.3,3.6-4.8,5.2-2.7.8,1.1,2.7,1.8,4.8,1.8s4.1.7,4.8,1.5c1.1,1.3,5.5,1.5,28.8,1.5,26.1,0,27.4-.1,26-1.8a52.67,52.67,0,0,1-4.8-7.5c-5.4-9.6-5.3-22.4.3-27.4,7.9-7.3,34-18.8,69.1-30.7,25.9-8.7,29.9-10.4,30.4-12.8.2-1-2.7-4.6-7.5-9.2l-7.8-7.5,5.5,2c8.8,3.3,30.4,14.6,32.8,17.2,1.5,1.5,2,3,1.6,4.1s-7.4,5.1-15.6,9.1c-16.2,8-28.8,17.1-28.8,20.8,0,4.7,15.4,15.7,39.5,28.3,12.3,6.4,28.6,13.4,31.3,13.4,1.1,0,1.3-.8.9-3.4-.6-3.9,1.7-7.3,2.9-4.2,1.1,2.9,2.4,1.7,2.4-2.4,0-4.7,1.8-5.4,2.7-1,.4,2.1,1.1,3,2.4,3,1.7,0,1.9-.8,1.9-6.1,0-5.6.2-6.1,1.9-5.6s2.1-.2,2.6-5.2c.3-3.1.8-7.2,1.1-9.1.5-3.2.7-3.3,1.9-1.7.7,1,1.6,4.4,2,7.6s1,6.3,1.4,6.9c1.1,1.8,4.1.3,4.1-1.9a1.79,1.79,0,0,1,1.5-1.9c1.2,0,1.5,1.4,1.5,6.4,0,7.3.6,9.6,2.6,9.6.9,0,1.4-1.2,1.4-3.5,0-6.4,3.9-2.9,4.1,3.7,0,1.8.3,2.7.6,2,.8-2,3-1.4,3.7,1.1.5,2.3,6.5,5.7,9.9,5.7,1,0,1.7.4,1.7,1s1.5.9,3.3.9c2.4-.1,2.6-.3.9-.6s-2.2-.9-1.8-2a13.9,13.9,0,0,0,.6-3.9c0-4.1,2.7-2.7,4,2.1l1.3,4.5h50.9c50.1,0,50.9,0,50.3-2a14.65,14.65,0,0,1,.1-5.5c.5-3,.9-3.4,2.1-2.3,2.1,1.7,5.1-2.5,5.5-7.7.2-3.3.7-4.1,2.6-4.3,3-.4,3.7-2.4,2.3-6.4a22.3,22.3,0,0,1-.5-8c.5-3.9.9-4.6,2-3.7.8.6,1.4,2.4,1.4,3.9,0,3.4.8,4.2,3.1,3,1.4-.8,1.7-2,1.4-6.1-.4-5.9.1-7.9,2-7.9,1.2,0,2.4,4.1,3.1,10.9.4,4.2.9,4.7,2.9,3.1,1.2-1,1.6-.9,2,.6,1.3,4.4,5.3,11,7.3,11.9,1.4.6,2.2,2.2,2.7,5.3A52,52,0,0,0,803,610c.8,1.7.9,1.5.7-1.4-.1-2.6.2-3.5,1.6-3.8s1.7.3,1.7,2.5c0,3.5,1.7,5.9,4.8,6.8,2.4.7,2.4.5,2.6-7.4.1-4.2,2.2-5.2,3.6-1.6,1.9,4.9,3.1,1.6,3-7.8-.2-12.8-.3-12.2,1.5-10.7a4.42,4.42,0,0,1,1.5,2.6,1.37,1.37,0,0,0,1.4,1.4c1,0,1.6-1.3,1.8-3.8.4-5,2.9-5,4,.2a14.69,14.69,0,0,0,3.8,6.6c1.7,1.5,3,3.5,3,4.4a7.55,7.55,0,0,0,1.3,5.1,14,14,0,0,1,1.2,5.5c0,3.4.1,3.5,4,3.5s4,.1,3.9,3.2l-.2,3.3h34.6l4.5-12.3c4.6-12.4,9.1-26.5,12.6-39.4l2-7.3-5.2-4.9c-6.3-5.9-17.6-15.5-23.7-20.1-7.6-5.7-24.9-23.2-24.3-24.6.3-.9-.2-1.4-1.6-1.4-1.1,0-4-1.7-6.2-3.8l-4.2-3.7,4.4-.6c9.2-1.3,44.9-2,57.4-1.1,13.2,1,14.4.8,14.5-2.6,0-1-3.2-1.2-15.7-.7-20.1.7-32.5.8-43.8.4a116.22,116.22,0,0,0-15,.4l-6,.7-5.8-5c-5.2-4.4-5.6-5-3.5-5.3,1.3-.1,22.1-.2,46.3-.2h44l.3-2.4.4-2.4-23.6.7c-13,.4-35.4.4-49.7,0l-26.1-.7-4.3-3.7-4.3-3.7,5.1-.7c2.9-.3,7.1-.6,9.4-.6s4.5-.5,4.8-1-.5-1-1.9-1-2.8-.5-3.1-1-4.9-1-10.3-1c-9.5,0-9.8-.1-15.6-3.8l-6-3.7,5.5-.7c3-.3,9.2-.7,13.9-.8,9.6-.2,14.2-1.1,12.2-2.4a9,9,0,0,0-4.5-.2c-1.8.3-10.4,0-19.2-.7l-16-1.3-4-4c-2.2-2.2-7-6.7-10.7-10l-6.8-6.1,7.4-.6a57.54,57.54,0,0,0,9.7-1.6l2.4-.9-2.8-1.1c-1.6-.6-7.5-1.1-13.3-1.1H751.9l2.7,3.5c1.5,2,2.4,3.8,2.1,4.2s.5,2.1,2,3.9l2.5,3.4-4-1.4c-5.3-1.9-11.2-5.8-19.5-12.8-3.8-3.2-7.5-5.8-8.3-5.8-1.4,0-10.2-5.7-14-9.1a6.17,6.17,0,0,0-3.2-1.9c-2.5,0-2.1,2.1,1.2,5.8,2.7,3,3.9,5.5,5,10.8a136.72,136.72,0,0,0,8.9,26.4c4.8,10.4,4.6,11.1-1.4,5.5a107.18,107.18,0,0,0-11.4-9,71.2,71.2,0,0,1-10.7-8.9c-3.4-3.7-4.9-4.8-5.8-4-1.1,1.1-.9,2.5,2.5,14.4a43.21,43.21,0,0,1,1.5,8.6,60.21,60.21,0,0,0,1.1,8.7c.6,3,.8,6.8.4,8.4l-.7,2.8-1.5-3a126.14,126.14,0,0,0-10.8-17c-5.2-6.5-10.4-18-12.7-27.8-2.3-10.1-3.1-11.7-5.9-11.7-2.4,0-3.5,2.3-4.3,9-.7,5.9-3.6,16-4.6,16-.3,0-2.3-7.2-4.4-16.1l-3.8-16.1-3.4,3.4c-1.9,1.8-4.7,4.5-6.3,6-1.7,1.7-3.4,5-4.5,8.6-.9,3.3-2.6,6.8-3.7,7.8a68.7,68.7,0,0,0-6.1,7.1c-5.5,7.5-9.3,7.1-4-.4,3.8-5.5,2.5-8.5-2.7-5.9-1.7.9-5.3,5.1-8.4,9.8-5.3,8.1-11.7,15.2-11.7,13.1,0-.5.9-4.5,2-8.8,2.5-9.6,2.6-14.1.4-14.9-1.1-.4-1.4-1.3-1-3.1.8-3.2.2-3.1-4.3.4-3.5,2.8-6.3,3.5-18.6,5a40.59,40.59,0,0,0-8.5,1.9c-2,.9-.4,1.1,8.3,1.1l10.9.1-2.9,3.4-2.8,3.5H572c-16.2.1-26,.9-26,2.1,0,.4,6.2,1,13.8,1.4s15.8.9,18.4,1.2l4.7.6-3.1,3.9c-1.7,2.2-3.7,3.9-4.4,3.9a33.2,33.2,0,0,0-6.6,2.5c-4.1,1.9-4.7,2.5-2.8,2.5,5.7.1,5.2,1.4-4.5,12.3l-9.6,10.7h-8.8c-6.7,0-9,.3-9.4,1.4-.8,2.1.3,2.7,4,2a22.89,22.89,0,0,1,6.9.1l3.7.6-3.6,3.7-3.6,3.7-11.4-.5-11.4-.5-15.9-18.2c-8.8-10.1-18.7-22-22.2-26.5-16.8-22.3-21.7-28.1-36.4-43.6-8.7-9.2-15.7-17.4-15.6-18.2s3.1-2.9,6.5-4.5,6.2-3.3,6.2-3.8-4.8-.7-10.9-.7c-10.8,0-12.5.5-9.5,3,.8.7,1.2,1.7.9,2.2s.3,1.6,1.5,2.4a4.9,4.9,0,0,1,2.1,3.5c0,4.7-8.3.6-19-9.6-3.6-3.4-8.1-7.2-10-8.6a25.89,25.89,0,0,1-5.4-4.8c-2.5-3-17.5-14.1-19.2-14.1A2.09,2.09,0,0,0,369.7,366.32Zm12.7,22.4c5.7,4.5,5.9,9.9.4,9.4-2.4-.2-3.8-1.1-5.5-3.6C372.6,387.72,376.1,383.72,382.4,388.72Zm41.8,42c6.4,7.6,14.2,17.2,18.4,22.5,2.1,2.8,6.3,8,9.1,11.5s8.3,10.1,12,14.7,10.4,12.5,14.8,17.7a141.34,141.34,0,0,1,9.8,12.4c1.7,3,1.7,3.1.1,3.8-1.3.5-2.4-.2-3.8-2.2-1.2-1.6-5.2-6.5-9.1-10.9s-12.8-15.5-20-24.7-19.3-24.5-27-34.1c-15.7-19.4-22.5-28.3-22.5-29.5C406,411,418.4,423.82,424.2,430.72Zm6.6-12.2c6.3,5,26.3,27.4,28.7,32.1,2.7,5.3,6.1,9.2,11.8,13.4a48,48,0,0,1,7.5,7.9c2.1,2.9,6,8.1,8.6,11.7a136.28,136.28,0,0,0,10.5,12.5c8.2,8.7,12.2,14.2,11.9,16.2-.2,1.1.4,1.9,1.7,2.1,1.1.2,3.2,1.6,4.8,3,2.3,2.2,2.5,2.7,1.2,3.4-2.4,1.4-7.6-1.8-12.5-7.9-2.5-3-8.6-10.1-13.5-15.7s-10.6-12.1-12.5-14.6-6.8-8.1-11-12.5c-11-11.8-22.1-25-34.2-40.8-6-7.7-10.8-14.2-10.8-14.4C423,413.92,427.7,416.12,430.8,418.52Zm-16,21.4c1.2,1.5,4.6,5.4,7.5,8.6s6.1,6.9,7.1,8.2,4,4.9,6.6,7.9,6.6,8.4,9,12c5.9,8.9,11.7,16.1,25.6,31.6,5.2,6,6.1,7.4,4.9,8.4-1,.9-2,.8-4.3-.4-3.3-1.7-10.2-9.5-10.2-11.5,0-.7-1-2.7-2.2-4.4-4.6-6.6-24.3-31.5-30.3-38.2-9.5-10.8-22.8-27.8-25.4-32.7l-2.3-4.3,5.9,6C409.9,434.42,413.5,438.42,414.8,439.92Zm-39,4.1c2.3,2,3,6,1.2,7.1-1.1.7-7-8-7-10.3C370,439.22,370.9,439.82,375.8,444Zm28.3,35.8c9.5,12.8,21,27.9,25.6,33.5s8.3,10.8,8.3,11.7c0,2.5-2,2.9-4.2.9-3.6-3.2-14.4-17.6-16.8-22.3a45.94,45.94,0,0,0-6.4-9.1c-10.1-11.2-27.6-33.8-27.6-35.6,0-1,1.4-2,3.2-2.2C386.5,456.62,394.6,467.12,404.1,479.82Zm193.6-18c3.7,3.5,4.4,6.8,1.5,6.8-2.2,0-4.3-2.2-6-6.3-1.5-3.5-1.5-3.7,0-3.7C593.9,458.62,595.9,460,597.7,461.82Zm-443,3c3.4,4.6,6.3,9.8,6.3,11.3s-2.2.1-3.4-2.3a52.91,52.91,0,0,0-5.6-7.4c-3.7-4.2-4.5-6.8-2.1-6.8C150.4,459.62,152.5,462,154.7,464.82Zm-9.1,4c.9,1.8,3.5,5.9,5.6,9.1s3.7,6.1,3.4,6.5c-1.4,1.3-14.2-16.1-13.1-17.8S143.9,465.52,145.6,468.82Zm218.4,1.9c0,.6-.4.7-1,.4a2.34,2.34,0,0,1-1-1.6c0-.6.5-.7,1-.4A2,2,0,0,1,364,470.72Zm17.1-1.1a11,11,0,0,1,3.3,4.3c1.5,3.6,9.3,14.4,14,19.4,3,3.3,3.1,5.2.2,3.6-1.8-1-19.6-23.1-19.6-24.3a10.35,10.35,0,0,0-.6-2.4C377.7,468.32,378.4,468.22,381.1,469.62Zm208,5.2c1.3,1.8,8.9,10.1,16.9,18.3,14.1,14.6,30.8,35.1,29.5,36.3-.8.8-12.8-12.1-17-18.3-3.9-5.9-12.8-14.5-14.9-14.5-.8,0-2.8-2.4-4.5-5.3a41.25,41.25,0,0,0-5.2-7.3c-2.4-2.2-10.9-12.9-10.9-13.9C583,468.72,587,471.82,589.1,474.82ZM263,474c0,.8-2.8,4.7-6.1,8.6-5.5,6.3-6.5,7.1-8.8,6.5-3.5-.9-3.4-.7-1.8-5.6,1.2-3.6,2.1-4.5,4.7-5.2a26.93,26.93,0,0,0,6.9-3.3C262,472.22,263,472,263,474Zm347.1,3.6c6.7,7.8,8.9,10.8,8.9,11.8a1.57,1.57,0,0,0,.9,1.4c.4.1,3.7,3.7,7.2,7.8s7.1,8.2,7.9,9c2.4,2.2,6,7.7,6,8.9a1.11,1.11,0,0,1-1.1,1.1c-1.2,0-4.8-4-4.9-5.4,0-1.2-11.8-15.2-19.2-22.6a35.77,35.77,0,0,1-5.1-6.6,22.86,22.86,0,0,0-4.1-5.3c-2.9-2.7-3.3-4.1-1.2-4.1C606.1,473.62,608.3,475.42,610.1,477.62Zm17.6,4.8c14.4,16.3,20.5,25.4,12.5,18.7-1.6-1.4-3.3-3.6-3.6-5s-2.6-3.8-5-5.5c-5-3.4-11-10.2-12.5-14.3C617.3,471.62,619.6,473.32,627.7,482.42Zm-490.4-4.6a53,53,0,0,0,8.8,13.3c6.8,7.5,8.9,10.3,8.9,11.9,0,3-1.8,1.6-5.6-4.2-2-3.1-5.9-8.2-8.5-11.4-4.4-5.1-6.9-9.4-6.9-11.9C134,473.52,135.7,474.72,137.3,477.82Zm95.5,3.6c.3.9-.2,1.3-1.4,1a3.1,3.1,0,0,1-2.2-1.6c-.3-.9.2-1.3,1.4-1A3.1,3.1,0,0,1,232.8,481.42Zm9.7,1.2c-.4,1.2-1.3,2-2.3,1.8-2.5-.5-2.5-2.4,0-3.5C243,479.62,243.4,479.92,242.5,482.62Zm132,2.1c.9,1.7,5,7.6,9.1,13.1s7.4,10.5,7.4,11.1-1.3-.8-2.9-3.2c-3.3-4.9-9.9-12.1-11.1-12.1s-5-7.7-5-10C372,480.82,372.7,481.12,374.5,484.72Zm-239.3,8.1c11.4,15.8,13.7,19.8,11,19.8-1,0-17.2-23.4-17.2-24.9C129,485.32,130.8,486.92,135.2,492.82Zm100.4,2.1c4.4,5.8,5,7.5,2,6.4-1.7-.7-9.6-12-9.6-13.8S230.5,488.12,235.6,494.92Zm337.9-7.3a2.33,2.33,0,0,1,0,2c-.7,1.2-4.5-.5-4.5-2C569,486.32,572.7,486.32,573.5,487.62Zm234.7,2.1c2.6,2.1,3.6,3.5,2.9,4.2-1,1-5.4-1.9-7.8-5.3C801.1,485.52,803.6,486.12,808.2,489.72Zm-488.1,3.1c2.3,2.9,5,6.2,6.1,7.3,1.8,1.8,13,15.6,22.1,27.1,2.2,2.8,3.4,5,2.7,5.2-1.7.6-4.4-2.2-13.8-14.8-4.8-6.3-10.5-13.3-12.7-15.5-3.8-3.7-10.5-12.6-10.5-13.9C314,486.42,316.5,488.32,320.1,492.82Zm483.3.2c8.3,6,13.3,11.3,11.9,12.7-.8.8-3.8-1.4-10.7-7.7-5.3-4.8-9.6-8.9-9.6-9.1C795,487.72,798.1,489.22,803.4,493Zm-573,5.2c5.5,6.2,7.4,9,6.7,9.7-1.8,1.8-16.1-13.2-16.1-17C221,488.42,222.6,489.62,230.4,498.22Zm-105.2-4.4c2.6,3.1,3.7,6.8,2.1,6.8-1.3,0-6.3-6.8-6.3-8.4C121,489.82,122.2,490.32,125.2,493.82Zm467.1,12.7c4,4.7,9.5,11,12.2,14.1,5.9,6.7,12.5,15.7,12.5,17.1,0,2.5-3.3-.2-11.5-9.4-4.9-5.5-10.2-12.2-11.8-14.9s-3.1-4.8-3.6-4.8c-1.6,0-10.2-8.2-11.7-11.2-.9-1.6-1.3-3.7-.9-4.6C578.2,490.92,581.9,494.32,592.3,506.52ZM693.7,494c2,1.8,2.5,2.8,1.7,3.6-1.3,1.3-6.4-2.3-6.4-4.6C689,490.92,690.5,491.32,693.7,494Zm-377.4,11.7c4.6,5.2,12,16.8,9.8,15.5-2.9-1.9-20.2-25.7-19.4-26.9.3-.5,1.5.7,2.7,2.6A82,82,0,0,0,316.3,505.72Zm370.9-3.6c3.1,3.4,3.4,4.5,1.4,4.5-1.7,0-7.6-6.9-7.6-8.9C681,496,683,497.42,687.2,502.12Zm120.1,6.2c6.2,5.8,11.6,11,12.1,11.4s.7,1.1.4,1.5c-1.3,1.3-6.8-3-16.8-13C788.9,494,792.4,494.12,807.3,508.32Zm-687.2-4c1.8,3.2,4.6,7.6,6.1,9.7,2.8,3.9,3.8,9.1,1.7,8.4-.6-.2-1.7-2.1-2.4-4.2a20.28,20.28,0,0,0-3.2-5.9c-3.1-3.6-7.3-10.5-7.3-12.2C115,497.12,116.9,498.72,120.1,504.32Zm446.9-4.7c1,.5,4,3.8,6.7,7.2s8.2,9.8,12.1,14.1c6.4,7,16.2,20.4,16.2,22.1,0,2-6.6-3.3-10.1-8.2a165.59,165.59,0,0,0-11.9-13.7,161.75,161.75,0,0,1-11.4-13.2c-2.1-2.9-4.5-5.7-5.3-6.2a1.46,1.46,0,0,1-.9-2C563.3,498.32,564.6,498.32,567,499.62Zm119,16.8c0,3-3.9.2-9.7-7.1-9.1-11.2-7.9-13.1,1.7-2.7C682.4,511.32,686,515.72,686,516.42Zm-463.4-12.6c4.1,4.3,6.4,7.8,6.4,9.7s-2,1.3-2.7-.7a42.58,42.58,0,0,0-5-6.6C214.6,498.72,215.7,496.72,222.6,503.82Zm-87.5,4a51.31,51.31,0,0,0,4,6.7c1.9,2.4,1.7,4.1-.4,4.1-1.1,0-8.7-12.6-8.7-14.4,0-.3.7-.6,1.5-.6S133.9,505.52,135.1,507.82Zm84.1,3.5c4.4,6.7,4.7,7.8,2.6,7.8-1.2,0-9.8-11.9-9.8-13.6C212,502.72,215.4,505.42,219.2,511.32Zm86.4-3.5c1.7,1.8,5.5,5.5,8.4,8.3a52.7,52.7,0,0,1,7.8,9.5,175.43,175.43,0,0,0,11.2,16.2c1.5,1.9,1.7,2.9.8,3.4-1.2.8-7.6-5.9-12.5-13.1a221.69,221.69,0,0,0-15.5-19.3c-4.3-4.8-6-8.2-4.1-8.2C302.1,504.62,303.8,506.12,305.6,507.82ZM682,526.62c0,1.6-3,1.2-3.6-.5a2.54,2.54,0,0,0-1.9-1.5c-1.3,0-4.7-3.7-10.2-11.3-6.2-8.3-3.3-7.2,6.2,2.6C677.7,521.22,682,526.12,682,526.62Zm-565.8-9.9c2.6,4.6,4.8,9,4.8,9.6,0,2.1-1.8,1.5-3.1-1-.6-1.2-3.2-5.2-5.6-8.9-4.1-6-4.9-9.5-2-8.5C110.8,508,113.5,512,116.2,516.72Zm421.9-5.4a32.09,32.09,0,0,1-4.9,5.6l-3.9,3.8-3.3-4.3c-1.9-2.4-3.8-4.9-4.3-5.6-.7-.9,1.1-1.2,8.2-1.2C538.3,509.62,539,509.72,538.1,511.32Zm265.4,3.3c3.4,2.7,7,6.1,7.8,7.4s5.2,5.2,9.7,8.6c7.8,6.1,9.4,8,6.6,8-2.1,0-13.4-9.1-21.1-17-3.8-3.9-7.8-7.6-8.7-8.1-1.7-.9-2.6-3.9-1.2-3.9A53.59,53.59,0,0,1,803.5,514.62Zm-45.6,6.9c5,4.9,9.1,9.4,9.1,10,0,2.1-2.2,1.1-7.6-3.7-7.5-6.5-13.7-15.2-10.9-15.2C748.6,512.62,752.8,516.62,757.9,521.52Zm-34.5-2.7c3.3,2.9,9.6,8.4,13.8,12.2s9.6,8.7,11.9,10.6c3.1,2.6,3.8,3.6,2.6,3.8-.9.2-3.2-.7-4.9-1.9-5.3-3.6-22.9-19-23.5-20.4-.2-.8-2.2-2.5-4.4-3.9-3.7-2.5-5.2-5.6-2.8-5.6C716.7,513.62,720,515.92,723.4,518.82Zm46.6-1.2a2,2,0,0,1-1.1,1.5c-1.2.8-6.1-3.4-5.3-4.6C764.2,513.42,770,516.22,770,517.62Zm33.7,7.6c4.8,5.3,11.4,11.4,14.6,13.6,3.9,2.6,5.6,4.3,4.9,5-1.7,1.7-11.2-5.7-22.4-17.6-9.9-10.5-12.2-14-7.7-11.6A137.11,137.11,0,0,1,803.7,525.22ZM214,519c3.4,5,3.6,5.6,1.6,5.6-1.4,0-6.6-6.8-6.6-8.8C209,513.42,211,514.72,214,519Zm165.8,1.9c5.3,7.1,5.5,7.7,4,7.7s-9.8-10.7-9.8-12.8S375.7,515.22,379.8,520.92Zm357.8-2.6c2.1,2.1,5.7,5.8,8,8.3a65.49,65.49,0,0,0,8.7,8c4,3,6,6,4.1,6-1.6,0-12.9-9.4-16.7-13.8a94.61,94.61,0,0,0-7.4-7.7c-1.8-1.5-3.3-3.1-3.3-3.6C731,513.52,733.9,514.82,737.6,518.32Zm-439.3-1.5c.6,1.7,13.8,18,19.1,23.8,5.9,6.4,10.8,13.7,10.4,15.7-.2,1.1-1.6-.4-4.2-4.3a147.55,147.55,0,0,0-9.5-12.4c-8.5-9.7-18.1-22-18.1-23.1C296,515.22,297.7,515.42,298.3,516.82Zm73.3,5.4c2.7,3.6,7.7,9.8,11.2,13.9s6.2,7.5,6.2,7.9c0,1.5-3,.4-4.1-1.6a47.44,47.44,0,0,0-5.5-6.8c-4.7-5-14.4-18-14.4-19.2C365,514.32,367.2,516.22,371.6,522.22ZM785.9,519c3.5,3.7,2.1,5.3-1.7,2.1-1.8-1.5-3.2-3.1-3.2-3.6C781,515.82,783.7,516.62,785.9,519Zm-677.5,1.2c1.1,3,.6,3.7-1.4,1.9a6.18,6.18,0,0,1-2-2.7C105,517.92,107.8,518.52,108.4,520.22Zm559.7,5.6c3.5,2.8,5.3,6.8,3,6.8-1.1,0-8.1-7.7-8.1-9C663,522,663.8,522.42,668.1,525.82Zm-299.8,7.4c10.2,13.6,14.6,19.8,14.7,20.6.1,2.2-2.2.3-4.6-3.7-1.4-2.5-3-4.5-3.5-4.5-1.9,0-15.9-18.6-15.9-21.1S361.7,524.52,368.3,533.22Zm350.4-6.4a25.55,25.55,0,0,1,4.2,4.2,11.39,11.39,0,0,0,2.3,2.5,11.68,11.68,0,0,1,2.9,3.8c.4,1.2,2.3,2.9,4.2,3.6,4.2,1.8,14.4,11.4,15.2,14.5.6,2.2.5,2.3-1.5,1.2-2.3-1.2-33.3-30.6-33.8-32.1C711.4,522.52,715.2,523.82,718.7,526.82Zm-511.3-.6c.4,1.1.1,1.4-1.1,1.2a3.19,3.19,0,0,1-2.1-1.6C203.6,524,206.7,524.32,207.4,526.22Zm85.2,2.6c.8,1.6,1.3,3.2,1.1,3.4-.8.8-5.7-5.7-5.1-6.7C289.4,524.22,290.8,525.32,292.6,528.82Zm41.9.8c2,2.7,4,5,4.4,5,.7,0,4.1,5.3,4.1,6.4,0,1.8-3.1.1-4.9-2.7-1.1-1.7-3.6-5.6-5.6-8.5C328.1,523.22,329.6,523,334.5,529.62Zm327.3,5c.8,1.4.9,2.1,0,2.6-1.2.7-4.9-3.5-4.2-4.8C658.3,531.32,660.4,532.42,661.8,534.62Zm-270,1.8c.4,2.7-1.4,2.9-2.8.3s-1.3-3.3.8-2.9A3.13,3.13,0,0,1,391.8,536.42Zm-87.1,7.7c6.5,7.7,12.3,15.8,12.3,17.3,0,.6,1.6,3.3,3.5,6.2s3.5,5.6,3.5,6.1c0,3.2-5-2.2-8.5-9.1-2-3.9-5.3-8.3-13.7-18.3-5.6-6.6-7.3-10.2-4.4-9.5C298.1,537,301.4,540.22,304.7,544.12Zm-21.2-4.5c2.1,2.3,1.2,3.9-1.3,2.4-1.9-1.2-2.9-4.4-1.4-4.4A6.18,6.18,0,0,1,283.5,539.62Zm80.8,6.8c6.9,7.4,9.5,12.2,6.7,12.2a1,1,0,0,1-1-.9c0-.4-3.4-4.5-7.5-9s-7.5-8.8-7.5-9.7C355,536.72,355.9,537.32,364.3,546.42Zm-172.1-.3c1.8,2.5,3.5,4.5,4,4.5s.8.7.8,1.5c0,2.9-2.8,1.5-6.9-3.4-2.3-2.7-4.1-5.4-4.1-6C186,540.12,189.3,541.92,192.2,546.12Zm645.3-.5c2.1,2.3,1.2,3.9-1.3,2.4-1.9-1.2-2.9-4.4-1.4-4.4A6.18,6.18,0,0,1,837.5,545.62Zm-655,2.2c5.8,8.5,8.6,13.1,8.2,14.1-.2.7-1.1.1-2.3-1.2a52.23,52.23,0,0,0-3.6-4.2,10.11,10.11,0,0,1-2.2-3.7,4.7,4.7,0,0,0-2.1-2.6c-1.6-.6-2.1-4.6-.5-4.6C180.5,545.62,181.6,546.62,182.5,547.82Zm101.1,6.4c2.2,3,6.2,8.4,8.9,12,4.6,6.2,6.8,9.3,9.5,13.6.7,1.2.7,1.9-.2,2.4-1.4.9-4.8-3.1-4.8-5.7,0-1-.4-1.9-.9-1.9s-4.6-5.4-9-11.9-8.6-12.3-9.1-12.6c-1.5-.9-1.2-2.5.4-1.9C279.1,548.52,281.5,551.22,283.6,554.22Zm19,8.6a119.68,119.68,0,0,0,8,10.9c1.7,1.4,1.9,4.2.2,3.7-2.2-.7-21.9-27.8-21.1-29.1C290.6,546.82,295.8,552.62,302.6,562.82Zm532-10.7c1.9,2.9,1.1,4.4-1.4,2.9-1.9-1.2-2.9-5.4-1.3-5.4C832.5,549.62,833.7,550.72,834.6,552.12Zm-655.1,11.5c3,4.1,5.5,7.8,5.5,8.2,0,1.9-2,.4-5.7-4-5.4-6.3-8.3-11.2-8.3-13.7l.1-2,1.5,2C173.4,555.22,176.5,559.52,179.5,563.62Zm-12.8-3.5c.3.9.3,1.9-.1,2.2-.7.7-3.6-1.6-3.6-2.8C163,558,166,558.52,166.7,560.12Zm545,9.3c3.1,3,4.3,4.8,3.8,6s-2.3-.2-8.6-6.6c-4.4-4.6-7.7-8.8-7.3-9.3.4-.7,2,.3,4.1,2.3C705.6,563.62,709.2,567,711.7,569.42Zm2-7.6c3.5,3.4,4.1,4.8,2.1,4.8-1.4,0-7.8-5.9-7.8-7.2C708,557.72,710.6,558.72,713.7,561.82Zm-14.7,6.1c0,.5,3.2,3.9,7.1,7.7s6.7,7,6.2,7.3c-1.3.8-11.6-7.9-15.1-12.8a59.76,59.76,0,0,0-5-5.9c-1.2-1-1.9-2.3-1.6-2.7C691.2,560.52,699,566.42,699,567.92Zm-2,7.9c10.7,11,13.6,14.8,11.3,14.8-2.7,0-26.3-23.3-26.3-25.9C682,561.62,686.2,564.72,697,575.82ZM285.8,570c3.5,5.2,3.9,6.6,2,6.5-1.3,0-7.8-9.3-7.8-11.1C280,563.32,282.7,565.42,285.8,570Zm-111.2,2.2c7.4,8.5,8.5,12.9,1.9,7.8-5.1-3.8-10.5-13.4-7.6-13.4C169.4,566.62,171.9,569.12,174.6,572.22Zm-10.7.1c1.9,3.1,2.6,4.9,1.9,5.2-1.3.4-3.6-2.5-5.5-7.1C158.4,566,160.4,567.12,163.9,572.32Zm517.1,2.8a1.5,1.5,0,1,1-1.5-1.5A1.54,1.54,0,0,1,681,575.12Zm-521,4c2.6,3.8,2.9,4.6,1.5,5.1-.9.4-1.7.5-1.9.3-1.5-2.1-4.6-7.9-4.6-8.8C155,573.42,157,574.72,160,579.12Zm520.8,8.2c5.9,6.1,7.3,8.3,5.2,8.3-.9,0-6-4.9-10.6-10.1a76,76,0,0,0-5.7-5.7c-2-1.9-3.7-3.8-3.7-4.4C666,573.92,673.7,580.12,680.8,587.32Zm-11.6.8c9.2,9.1,11.8,12.1,10.4,12.3-1,.2-3.1-.8-4.6-2.5-1.6-1.5-4.8-4.4-7.2-6.3C662.1,587,655,578.92,655,577c0-.9.4-1.4,1-1.2S662.4,581.52,669.2,588.12Zm21.6-4.2c2.8,2.7,4.2,5.7,2.6,5.7-1.3,0-10.4-8.4-10.4-9.7C683,578,686.4,579.82,690.8,583.92Zm-36.3,2.7c3,3.1,3.6,4.3,2.7,5.2s-2.1.3-5.2-2.7c-2.2-2.1-4-4.5-4-5.2C648,581.52,650.6,582.62,654.5,586.62Zm-500.5-1a1,1,0,0,1-.9,1,2.14,2.14,0,0,1-1.6-1c-.3-.6.1-1,.9-1S154,585,154,585.62Z"/><path class="cls-1" d="M395.4,367.12c1.5,1.1,4.6,1.5,12,1.5,5.6.1,14.8.5,20.6,1,14.5,1.4,46.5,1.2,58.2-.2,8.3-1,10.9-.9,18.5.5s16.7,1.7,71.3,1.7c51.9,0,63.2-.3,66.5-1.5a42.94,42.94,0,0,1,10.7-1.5c6,0,6.8.2,8.5,2.6s2.2,2.5,4.3,1.4l2.4-1.3-2.3-.9c-2.3-.8-2.3-.9-.5-3l1.9-2.1-27.5.6c-35.3.9-93.1.9-178.5.2C400.3,365.62,393.7,365.72,395.4,367.12Z"/><path class="cls-1" d="M817,367.12c0,1.2,5.7,8.9,9.2,12.5a25.29,25.29,0,0,1,4.1,5.2,2.37,2.37,0,0,0,4.2.8,3,3,0,0,0-.2-2.4C833.3,381.42,817,366.22,817,367.12Z"/><path class="cls-1" d="M53,368.62c0,1.4,4,3.2,5.7,2.6,1.2-.5,1.3-.9.3-2.1C57.6,367.42,53,367,53,368.62Z"/><path class="cls-1" d="M173.8,369.92c-3.7,3-3.5,3.7.8,2.5,4-1.1,13,.7,13.8,2.8,1,2.5-8.3,3.4-36.1,3.4-15.4,0-28.3.4-28.9.9s-3.3,1.2-6.1,1.5-7.5.9-10.2,1.2c-3.8.4-5.7.1-8.9-1.5a19.17,19.17,0,0,0-7.1-2.1c-2,0-3.4-.7-4.1-2-1-1.9-1.3-1.9-4-.5-3.8,2-9.6,2-10.8,0-.7-1.4-1.4-1.2-5.3.9-2.4,1.4-8.2,3.2-12.9,4.2-9,1.9-29.8,2.5-33.7,1.1-1.8-.7-2.3-.5-2.3.9s2,1.6,26.8,1c14.7-.3,29.4-.5,32.7-.4,11.8.6,74.3,0,87.5-.7a110.64,110.64,0,0,1,20.8.4l7.2,1.1,3-3.2c3.7-4.1,3.7-4.8.3-4.8-3.2,0-8.7-3-12.1-6.6C181.3,367,177.4,367,173.8,369.92Z"/><path class="cls-1" d="M38,370.62c0,2.4,2.9,3.8,4,2a2.48,2.48,0,0,0-2.1-4A1.77,1.77,0,0,0,38,370.62Z"/><path class="cls-1" d="M233,369.62c-4.7.3-9.5,1.1-10.7,1.7a5.06,5.06,0,0,1-3.6.7c-1.5-.5-3.4,1.3-2.4,2.3.3.2,2.9,0,5.9-.6s8.2-1.2,11.8-1.5c7.2-.6,11.8-1.5,12.4-2.5C246.9,369,244.2,368.92,233,369.62Z"/><path class="cls-1" d="M681.2,372c.6,2.7,17.1,18.9,19.5,19.2,1.3.1,2.3-.1,2.3-.5,0-1.2-19.9-20.1-21.1-20.1C681.3,370.62,681,371.22,681.2,372Z"/><path class="cls-1" d="M729,372.52c0,1.9,10.1,12.1,11.9,12.1,2.2,0,1-2.3-4.1-8.1C731.4,370.52,729,369.22,729,372.52Z"/><path class="cls-1" d="M737.9,373.22c2.6,3.4,9.5,10.4,10.3,10.4.4,0,.8-.7.8-1.7,0-1.8-4.2-5.8-9.2-8.7C736.5,371.22,736.5,371.22,737.9,373.22Z"/><path class="cls-1" d="M630.4,375.12c-1.7.8-3.4,2.1-3.7,3-.8,2,0,1.9,3-.5a9.33,9.33,0,0,1,4.4-2,3.17,3.17,0,0,0,2.4-1C637.4,373.22,634.1,373.52,630.4,375.12Z"/><path class="cls-1" d="M882.7,376c-1.7,1.3-1.7,1.5.6,4.2,1.6,1.8,2.9,2.5,4.1,2.1,1.8-.7,1.4-2.1-1.6-5.9C884.7,374.92,884.2,374.92,882.7,376Z"/><path class="cls-1" d="M722.6,378.32c-1.1,1.1-.6,2.2,1.4,3.3,1.7.9,2,.8,2-.9C726,378.82,723.7,377.22,722.6,378.32Z"/><path class="cls-1" d="M814,378.72c0,1.3,9.1,11.9,10.2,11.9,2,0,.4-4.1-3.3-8.4S814,376.32,814,378.72Z"/><path class="cls-1" d="M407,379.32c0,.5,1.1,2,2.4,3.2,2.3,2.1,3.1,2.3,8.9,1.7,3.6-.4,7.3-1.3,8.3-2,1.4-1.1.6-1.4-5.7-2-4.1-.3-8.9-.9-10.6-1.2S407,378.82,407,379.32Z"/><path class="cls-1" d="M592,379.82c-1.6.6-7.1.7-14.9.3-8.5-.5-12.1-.3-11.7.4,1.4,2.3,9.3,3.2,25.9,3.1,9.5-.1,20.9.2,25.3.5l8.1.8-.1-3-.1-2.9-6,.9a35.18,35.18,0,0,1-12.1-.2C599,378.42,595.3,378.42,592,379.82Z"/><path class="cls-1" d="M549.5,380.52c-1.1,1.8,3.2,3.2,5.9,1.9,1.4-.6,2.6-1.5,2.6-2C558,379.32,550.3,379.42,549.5,380.52Z"/><path class="cls-1" d="M647,381.42c0,2.6,5.3,7.4,7.3,6.6,2.3-.9,2.2-1.2-1.8-5C648.7,379.22,647,378.72,647,381.42Z"/><path class="cls-1" d="M680.6,380.52c-.7,1,.7,2.8,6.6,8,7.2,6.5,8.1,4,1.2-3C682.5,379.52,681.5,378.92,680.6,380.52Z"/><path class="cls-1" d="M787,381.62c-1.5,2.8-1,3.2,3.8,2.8,3.5-.3,3.9-.5,2.9-1.9C791.6,379.72,788.3,379.22,787,381.62Z"/><path class="cls-1" d="M870.7,380.32c-1.4,1.3-.6,3.5,2.1,5.8a20.15,20.15,0,0,1,4.1,4.9c1.5,2.8,4.1,3.5,4.1,1.2a4.15,4.15,0,0,0-1.6-2.6,35.7,35.7,0,0,1-4.1-5.7C872.8,379.72,872,379,870.7,380.32Z"/><path class="cls-1" d="M896.6,380.52c-4.8.7-7.6,2.9-7.6,5.9,0,1.1.9,1.3,3.8.8a90.27,90.27,0,0,1,10.5-.6H910v-2.9C910,379.52,907.8,379,896.6,380.52Z"/><path class="cls-1" d="M460,382.22c0,1,.7,1.4,2.2,1.2,3.2-.5,3.5-2.8.4-2.8C460.9,380.62,460,381.12,460,382.22Z"/><path class="cls-1" d="M661.4,383.72c-.3.6.9,2.6,2.7,4.5,5.6,5.8,8.4,3.6,3-2.4C664,382.42,662.6,381.92,661.4,383.72Z"/><path class="cls-1" d="M674.7,383.52c-1.7.6-1.7.8.3,3.4,2.2,2.8,6,3.7,6,1.4S676.7,382.82,674.7,383.52Z"/><path class="cls-1" d="M237.3,393.12c-5.9,6.4-8.9,12.7-7.7,15.9.9,2.2,1.9,2,3.8-.9.9-1.4,2.4-2.5,3.4-2.5,1.8,0,9.2-6.8,9.2-8.4a6.51,6.51,0,0,0-2.1-2.5c-2.1-1.7-2.1-1.8-.5-4.9C246,384.82,243.7,386,237.3,393.12Z"/><path class="cls-1" d="M813,388.42c0,2.3,4,6.2,6.4,6.2,1.5,0,1.2-.7-1.4-4C814.6,386.32,813,385.62,813,388.42Z"/><path class="cls-1" d="M631.3,390.92c1.5.6,2.7,1.4,2.7,1.9s-17.4.5-38.7.2c-29-.3-38.5-.2-37.6.7,1.9,1.9,14.6,2.9,49.3,3.7l33.5.7,2.2-2.5a15.19,15.19,0,0,0,2.3-3c0-.3-2.3-.7-5.1-.8a22.64,22.64,0,0,1-6.9-1.2,6.26,6.26,0,0,0-3.2-.9C629.1,389.82,629.7,390.32,631.3,390.92Z"/><path class="cls-1" d="M16.6,393.12c-1.4,3.7-.8,4.4,2.2,3,2.2-1.1,6-1.1,20.4-.2,17.4,1,22.6.6,21-1.9-.4-.7-8.2-1.4-21.8-1.8C19.3,391.52,17.2,391.62,16.6,393.12Z"/><path class="cls-1" d="M84.7,392.22c-1,1.1.5,3.4,2.2,3.4,2.3,0,3.1-.9,2.4-2.6C88.8,391.62,85.9,391.12,84.7,392.22Z"/><path class="cls-1" d="M487,392.12a23,23,0,0,0,5.2,3.1c5.1,2.6,5.4,2.6,12.3,1.4l7-1.3-7-1.8C498.1,391.82,487,390.92,487,392.12Z"/><path class="cls-1" d="M652.8,392.32a2,2,0,0,0,1.9-.1c.4-.3-.2-.6-1.3-.5S652,392,652.8,392.32Z"/><path class="cls-1" d="M672.1,392.32c-.8.3.2,1.1,2.5,1.9,5,1.8,6.2,1.7,4.4,0S674,391.62,672.1,392.32Z"/><path class="cls-1" d="M710,392.52c-1.4.5-4.3,1.9-6.5,3l-4,2.2,3.5-.7a59.89,59.89,0,0,0,7.8-2c5.6-1.8,6.6-1.8,8.6.5,1.7,1.9,4,1.9,66.4,1.8,39.3,0,63.3-.4,61.2-.9-1.9-.5-5.6-1.5-8.1-2.3-4.2-1.3-4.9-1.3-8,.2-5.1,2.6-18.2,3-23.9.6-3.9-1.5-7.6-1.8-26.5-1.9-12.1-.1-24.6-.2-27.7-.3-3.8-.1-6.9.4-9,1.5-4.2,2.2-12,2.2-15.4,0C725.5,392.22,713.8,391.22,710,392.52Z"/><path class="cls-1" d="M94,394.12c0,.8.1,1.6.3,1.6.9.5,50.2.7,50.9.3.5-.3.4-1.2-.2-1.9-.9-1.1-6.5-1.4-26.1-1.4C97.4,392.62,94,392.82,94,394.12Z"/><path class="cls-1" d="M882.3,396.22c-2.8,3.1-2.9,3.4-1,3.4a6.66,6.66,0,0,0,3.7-1.5c1.7-1.6,5.1-1.8,20.8-1.2,6.3.2,6.7,0,5.6-2.7-.5-1.4-2.6-1.6-13.3-1.5l-12.6.2Z"/><path class="cls-1" d="M865,394.92c0,1.7,4.5,6,5.9,5.6,1.8-.7-1.6-6.9-3.9-6.9C865.9,393.62,865,394.22,865,394.92Z"/><path class="cls-1" d="M633.9,403.12c-.3.2-13.1.9-28.5,1.5-39.7,1.6-38.4,3.2,3.6,4.6l19.5.6,4-3.6c2.2-2,3.5-3.6,2.9-3.6A2.07,2.07,0,0,0,633.9,403.12Z"/><path class="cls-1" d="M507,404.82a6,6,0,0,0,2,3.3c1.8,1.6,2.6,1.7,9.5.5,8.5-1.5,8.7-2.6.5-3.3-3-.3-7-.9-8.7-1.2C507.8,403.52,507,403.72,507,404.82Z"/><path class="cls-1" d="M871.3,404.82a126.53,126.53,0,0,1-15.5,1.4c-12.1.7-14.9,1.4-11.2,2.8.9.3,13.4.4,27.8.2s28.8-.1,32.1.3c7.4,1,8.5.6,8.5-2.8v-2.6H893.5C882.8,404.12,872.8,404.42,871.3,404.82Z"/><path class="cls-1" d="M20.8,405.32c-5,.3-5.8.7-5.8,2.3,0,1.8.7,2,6.9,2,8.2,0,10.1-.6,10.1-3.1,0-1.5-.7-1.9-2.7-1.7C27.7,404.92,23.9,405.12,20.8,405.32Z"/><path class="cls-1" d="M730,407.12c1.4,1.5,3,2.3,4.1,2a60,60,0,0,1,9.2-.7c8.4-.1,11.8-1.2,7.4-2.3a10.89,10.89,0,0,0-4.7-.2c-1.1.3-2.3.1-2.6-.4s-3.9-.9-8.1-.9h-7.6Z"/><path class="cls-1" d="M40.2,406.82c.5,1.5,3.7,1.8,4.1.3.1-.6-.9-1.2-2.2-1.3C40.5,405.52,39.9,405.92,40.2,406.82Z"/><path class="cls-1" d="M259.3,411.32a52.37,52.37,0,0,1-7.5,9.4c-4.7,4.4-5.9,7.1-3.7,8.5.6.3,2.5,3.6,4.3,7.3,5.9,12.2,6.8,13,10.2,8.3,9.7-13.1,12-17.7,10.9-21.9l-.7-2.8-2.2,2.7c-2,2.6-4.6,3.7-4.6,2a49.81,49.81,0,0,1,1.4-5.8c1.1-4.3,1.1-5.6-.1-8.7C265.2,405.12,262.7,405.52,259.3,411.32Z"/><path class="cls-1" d="M621.6,415.52a18.82,18.82,0,0,1-8.3,3.6l-4.8.8,4.3.9,4.3.9-1.6,2.6c-1.6,2.5-1.4,5.3.4,5.3.5,0,2.3-2.4,4-5.3a37.47,37.47,0,0,1,5.5-7.6C630.5,411.92,627.3,411,621.6,415.52Z"/><path class="cls-1" d="M736.7,414.22c-1,1,.4,3.2,3.1,5,2.3,1.5,5.9,1.8,23.5,2.2,22,.4,29.7-.1,29.7-2.2,0-.9-4.2-1.2-17.2-1.2-27.5,0-31.5-.3-35.2-2.5C738.8,414.52,737.1,413.92,736.7,414.22Z"/><path class="cls-1" d="M14,419.42v2.8l7.8-.8c4.2-.3,8.2-.7,8.7-.8,3-.4-4.7-2.2-8.6-2.1-2.6.2-5-.2-5.4-.8C15.3,415.72,14,416.62,14,419.42Z"/><path class="cls-1" d="M517.6,419c1.4,2.2,2.1,2.4,6.7,2a60.22,60.22,0,0,0,7.7-1.2c2.7-.6,3.9-.9,5.5-1.1.6-.1.3-.6-.5-1.1s-5.9-1-11.3-1H516Z"/><path class="cls-1" d="M121,419.12c0,1.9,2.4,3,4.1,1.9.9-.5.7-1.1-.6-2.1C122.1,417.22,121,417.22,121,419.12Z"/><path class="cls-1" d="M902.5,418.32c-5.2.7-5.9,1.1-4.5,2.8.9,1.1,3.3,1.5,8.6,1.5,7.2,0,7.4-.1,7.4-2.5s-.3-2.5-4.2-2.4C907.4,417.82,904.2,418.12,902.5,418.32Z"/><path class="cls-1" d="M25.8,430.32l-12.8.4v2.6c0,2.5.2,2.5,4.8,2,2.6-.3,9.9-1.1,16.2-1.7,7-.7,12.1-1.7,13-2.6,1.2-1.2.7-1.4-3.5-1.2C40.7,429.92,32.8,430.22,25.8,430.32Z"/><path class="cls-1" d="M523,431.82c0,3.4.7,3.8,3.8,2.2a12.64,12.64,0,0,1,5-1.4c1.2,0,2.2-.5,2.2-1s-1.5-1-3.2-1a28,28,0,0,1-5.5-.6C523.4,429.52,523,429.82,523,431.82Z"/><path class="cls-1" d="M888.2,431.92c-2.3.5-4.2,1.2-4.2,1.6,0,1,12.4,2.1,23.2,2.1,7.7,0,7.8,0,7.8-2.6v-2.5l-11.3.3C897.5,431,890.5,431.52,888.2,431.92Z"/><path class="cls-1" d="M859.7,433.32c-1.7,1.6-.3,2.4,4,2.1,6.2-.4,7.1-2.8,1.1-2.8C862.3,432.62,860,432.92,859.7,433.32Z"/><path class="cls-1" d="M13,446.62v6.3l2.3-2.1c2.3-2.2,2.8-2.2,35.9-2.2,18.5,0,34.3-.3,35.2-.6a2.24,2.24,0,0,0,1.6-1.7c0-.7-6.1-.8-18.7-.4-10.4.3-19.7.2-20.8-.3s-1.5-.9-1-1,.1-.5-1-1-8.5-.9-16.5-.9c-9.9-.1-15-.5-15.8-1.3S13,441.62,13,446.62Z"/><path class="cls-1" d="M905.5,443.32c-8.1.5-9.3,1-6.9,2.8,1.2.9,4.4,1.4,9.2,1.5,7,0,7.2-.1,7.2-2.5,0-1.8-.5-2.4-1.7-2.3C912.3,442.92,908.8,443.12,905.5,443.32Z"/><path class="cls-1" d="M525,447.12c0,3.4,1.2,4.6,2.5,2.5.4-.6,6-1,13.6-1,9,0,12.8-.3,12.4-1.1-.4-.6-2.9-.9-5.6-.8-5.2.3-7.3-.6-4.9-2.1,1-.7-1.8-1-8.2-1H525Z"/><path class="cls-1" d="M836.6,445.52c-1.6,1.8-1.5,1.9,4.3,2.5,7.1.8,19.3-.3,20.3-1.8,1.3-2-1.6-2.6-12.3-2.6C839.8,443.62,838.1,443.92,836.6,445.52Z"/><path class="cls-1" d="M565,446.62c0,.5.9,1,2.1,1s1.7-.5,1.4-1a2.52,2.52,0,0,0-2.1-1C565.6,445.62,565,446,565,446.62Z"/><path class="cls-1" d="M13,458.62v3h7c4.5,0,8.2-.6,10.1-1.5,1.6-.9,7.5-2,13-2.5s10.3-1.1,10.7-1.4-8.8-.6-20.1-.6H13Z"/><path class="cls-1" d="M854.5,457.52c-.9,1.6.5,1.9,11,2.6,10.7.6,18.6-.3,19.3-2.3.3-.9-3.2-1.2-14.7-1.2C861.9,456.62,854.9,457,854.5,457.52Z"/><path class="cls-1" d="M893.4,457.72c-1.2,1.9,1.8,2.9,9.9,3.1,4.2.1,8.5.2,9.5.2s1.8-.8,2-2.2c.3-2.2.2-2.2-10.2-2.2C898,456.62,893.9,457,893.4,457.72Z"/><path class="cls-1" d="M518.6,471.12a11,11,0,0,0-1.6,3c0,.8,4.6.6,12.2-.7l7.2-1.2-6.5-1.8C521.6,468.12,520.5,468.12,518.6,471.12Z"/><path class="cls-1" d="M893.2,470.32c-3.8.5-3.8,2.4-.1,3.4,1.3.4,6.5.7,11.5.8,9.2.1,10.4-.3,10.4-4C915,469.62,899.9,469.52,893.2,470.32Z"/><path class="cls-1" d="M556.4,471.72c-.8,1.4,1.4,2.9,3.3,2.2A2.22,2.22,0,0,0,561,472C561,470.32,557.4,470.12,556.4,471.72Z"/><path class="cls-1" d="M510,485.12c-4,4.1-3.4,5.3,1.7,3.7a182.54,182.54,0,0,1,20.8-3.6c1.7-.1-.1-.4-4-.5s-8.2-.8-9.9-1.6C514.6,481,513.8,481.22,510,485.12Z"/><path class="cls-1" d="M15.7,497.22a2.26,2.26,0,0,0,0,2c.4,1,2.4,1.4,7.7,1.4h7.1l-3.3-2C24.2,496.72,17.1,495.92,15.7,497.22Z"/><path class="cls-1" d="M865.6,510c.5,1.2,2.2,1.4,8.8.9,5.7-.4,8.5-.2,9,.6s5.2,1.1,14.2,1.1c12.7,0,13.4-.1,13.4-2s-.7-2-23-2C868.4,508.62,865.1,508.82,865.6,510Z"/><path class="cls-1" d="M18.5,521.62c.3.6,5.2,1,11.1,1,6.3,0,10.4-.4,10.4-1s-4.4-1-11.1-1C21.8,520.62,18.1,521,18.5,521.62Z"/><path class="cls-1" d="M886.5,522.62c-.4.6.6,1,2.3,1a36,36,0,0,1,7.8,1.5,37.83,37.83,0,0,0,8.7,1.5c3.3,0,3.7-.3,3.7-2.5v-2.5H898.1C891.8,521.62,886.9,522,886.5,522.62Z"/><path class="cls-1" d="M865,523.42c0,.5,2.7.9,6,.9s6-.3,6-.8-2.7-.9-6-.9S865,523,865,523.42Z"/><path class="cls-1" d="M546.2,542.42c-2.5,1.9-2.1,3.5.6,2.5,1.8-.7,3.2-2.2,3.2-3.6C550,540.12,548.7,540.52,546.2,542.42Z"/><path class="cls-1" d="M556.6,545.52a27.32,27.32,0,0,1-6.8,5.2c-1.6.6-2.7,1.4-2.4,1.6.7.8,9.3-3.8,11.6-6.2C562.9,542,560.6,541.42,556.6,545.52Z"/><path class="cls-1" d="M532,553.62c-1.2.8-1.1,1,.8,1,1.2,0,2.2-.5,2.2-1C535,552.32,533.9,552.32,532,553.62Z"/><path class="cls-1" d="M537.5,556.72c-.4.6-.5,1.2-.2,1.5.7.7,3.7-.7,3.7-1.7C541,555.22,538.3,555.42,537.5,556.72Z"/><path class="cls-1" d="M528.6,563.22c-1.6,1.5-2.1,3.4-1.1,3.4,1.5,0,5.4-3.3,4.9-4.1C531.6,561.22,530.3,561.42,528.6,563.22Z"/><path class="cls-1" d="M503.4,564.12c-1.6,1.2-1.6,1.4-.3,1.5a4.57,4.57,0,0,0,2.9-1.5C507.6,562.22,506,562.22,503.4,564.12Z"/><path class="cls-1" d="M511.5,565.62c-.3.5-.2,1,.4,1a2.34,2.34,0,0,0,1.6-1c.3-.6.2-1-.4-1A2,2,0,0,0,511.5,565.62Z"/><path class="cls-1" d="M68.2,567.82c-1.3,1.3-1.7,10-.5,11.1.3.4,1.7-.8,2.9-2.7,1.7-2.5,2.1-4,1.5-6.2C71.3,566.82,70,566,68.2,567.82Z"/><path class="cls-1" d="M487.5,570.52c-4.9,1.7-17.7,7.1-22.4,9.4a44.17,44.17,0,0,0-6.7,5.2c-4,3.7-4.4,4.6-4.4,8.7a26.94,26.94,0,0,0,.6,6.2c1.1,3,2.4,1.6,2.4-2.6,0-3.9.5-4.7,6.1-10,4.4-4.3,8.9-7.2,16.7-10.9C495,569.32,498.2,566.82,487.5,570.52Z"/><path class="cls-1" d="M62,570.62a1.08,1.08,0,0,0,1,1,1,1,0,0,0,1-1,.94.94,0,0,0-1-1A1,1,0,0,0,62,570.62Z"/><path class="cls-1" d="M487.2,575.52c-5.7,2.6-10.2,6.4-8.9,7.8.3.3,2.3-.9,4.4-2.6a44,44,0,0,1,7.6-4.6c2-.8,3.7-2,3.7-2.5s-.1-1-.2-.9S490.7,574,487.2,575.52Z"/><path class="cls-1" d="M516,575.42c-3.5,3.6-3.7,5.7-.9,11.1s6.7,9.1,9.5,9.1c3.2,0,3-.4-1-2.9-5.9-3.7-8.4-12.1-5-16.9C521.1,572.22,519.4,572,516,575.42Z"/><path class="cls-1" d="M71,580.12a1.5,1.5,0,1,0,1.5-1.5A1.54,1.54,0,0,0,71,580.12Z"/><path class="cls-1" d="M59.5,580.62c-.9,1.4.4,5.2,1.6,4.5s1.2-4.2,0-5A1.22,1.22,0,0,0,59.5,580.62Z"/><path class="cls-1" d="M249.6,585.62a9.13,9.13,0,0,0,.3,4.8,21.69,21.69,0,0,1,1.5,3.5c.7,2.3,2.6,1.2,2.6-1.5s-2.2-9.8-3-9.8C250.6,582.62,250,584,249.6,585.62Z"/><path class="cls-1" d="M470,587.92c-3.8,1.9-4.6,7.8-1.8,13.6,1.3,2.5,2.7,4.8,3.2,5a11.22,11.22,0,0,1,2.5,2c1.7,1.7,6.5,4.1,8.1,4.1.6,0,1-.9,1-2,0-1.5-.8-2.2-2.9-2.6-3.5-.7-8.9-7-9.7-11.4a4.93,4.93,0,0,1,1.1-5,4.6,4.6,0,0,0,1.3-3.4C472.6,586.92,472.1,586.82,470,587.92Z"/><path class="cls-1" d="M59.6,590.72c-.7,3.6-.1,4.9,2.1,4.9,1,0,1.3-.6.9-1.6a15.32,15.32,0,0,1-.6-4C62,586.62,60.4,587,59.6,590.72Z"/><path class="cls-1" d="M254.8,594.82c-.5,4.3.5,7.8,2.1,7.8,1.3,0,1.9-4.6,1.2-8.2C257.1,589.62,255.3,589.92,254.8,594.82Z"/><path class="cls-1" d="M786.1,597.82c.4,7.2-.4,9.8-1.5,4.7s-1.9-2.5-1.8,5.1c.1,3.8-.3,7-.8,7-.9,0-3-6.1-3-8.8,0-1.9-1.7-1.4-3.4,1-.9,1.2-1.6,2-1.7,1.8s-.2-1.5-.3-2.7c-.3-2.8-1.6-4.3-1.6-2a9.42,9.42,0,0,1-1.2,3.7c-1.1,1.7-1,2.2.2,3a4.71,4.71,0,0,0,3.3.6c2.4-.6,3.3,1.9,1.9,5l-1.2,2.4h8c6.3,0,8-.3,8-1.4a2.52,2.52,0,0,0-1-2.1c-1.5-.9-1.2-2.5.5-2.5a8.1,8.1,0,0,1,3.5,1.2c2.1,1.3,3.6.6,2.5-1.2a9.33,9.33,0,0,0-3.3-2.2c-2.2-.9-2.4-1.2-.9-1.5,2.2-.6,2.2-2.9-.2-5.9-1.8-2.3-2-2.4-3-.7s-1,1.6-1.1-.4a3.85,3.85,0,0,1,1.3-3c1.1-.6.8-1.5-1.1-4.3l-2.4-3.5Z"/><path class="cls-1" d="M247.5,600.12c-.4,1.1-1.1,3-1.5,4.2a2.91,2.91,0,0,0,.7,3.8c1.2,1.2,1.4,2.7.9,6.1l-.6,4.4h9.5c8.3,0,9.5-.2,9.5-1.7,0-1.3-.3-1.4-1.2-.5-1.9,1.9-4.5,1.4-6.3-1.1-1.2-1.8-1.7-1.9-2.4-.8-2.2,3.4-5.9-2.6-6.2-9.9a12.87,12.87,0,0,0-.9-4.5l-.8-2Z"/><path class="cls-1" d="M828.1,599.52c-.7.5-.9,1-.4,1.2,1.3.5,2.7,9.9,1.5,9.9-.5,0-1.4-1.8-2.1-4-1.7-5.7-3.1-5-3.1,1.5v5.5l-2.5-1.6c-2.6-1.7-3-1.4-3.7,3.1-.2,1.6.2,1.9,1.9,1.7a31.58,31.58,0,0,1,7.8.7c3,.6,6.2.8,7,.5,1.9-.8,2-5.8.1-7.3-.8-.6-1.7-3.1-2-5.6C831.8,600.42,830.2,598.32,828.1,599.52Z"/><path class="cls-1" d="M58.5,602.62c-1.4,1.6-2.1,4.1-2.3,9.1-.4,6.8-.4,6.9,2.1,6.9s2.5-.2,2.2-5a24.66,24.66,0,0,1,.7-8.1C62.6,601.52,61,599.82,58.5,602.62Z"/><path class="cls-1" d="M620,603.12c0,.8.5,1.5,1,1.5s1-.7,1-1.5-.4-1.5-1-1.5S620,602.32,620,603.12Z"/><path class="cls-1" d="M113,605.12c0,1.8-.5,2.5-1.9,2.5a3.57,3.57,0,0,1-2.7-1.1c-1-1.7-3.3,3-3.4,6.8s2.3,4.5,3.5,1c.7-2,.8-1.9,1.2,1,.4,2.7.9,3.3,2.9,3.3,2.5,0,2.5-.1,2.3-8-.2-4.4-.7-8-1.1-8S113,603.72,113,605.12Z"/><path class="cls-1" d="M537.3,604.22c-1.2,3.1,8,7.7,12.2,6,2.6-1,1.7-2.1-4.2-4.9C538.5,602.12,538.1,602.12,537.3,604.22Z"/><path class="cls-1" d="M264.4,604.72c-.3.6-1.6.9-2.9.7l-2.2-.5,1.8,3.2a27,27,0,0,0,3.8,4.9c1.7,1.5,1.8,1.5,2.9-.9.7-1.5.8-2.7.2-3s-1-1.7-1-3.1C267,603.52,265.6,602.82,264.4,604.72Z"/><path class="cls-1" d="M72.3,607.32c.3,1,1,3.9,1.7,6.5l1.3,4.8H97.1l-1.8-2.3c-1.1-1.5-2.4-2.2-3.6-1.9a4.74,4.74,0,0,1-3.5-1.1,4.43,4.43,0,0,0-3.9-1.1c-1.5.4-3.2-.5-6.1-3C73.9,605.32,71.6,604.62,72.3,607.32Zm9.9,7.8a1.6,1.6,0,0,1-1.1,1.3c-.6.2-1.1-.4-1.1-1.3s.5-1.5,1.1-1.3A1.6,1.6,0,0,1,82.2,615.12Z"/><path class="cls-1" d="M86,606.62c0,1.3,1.8,2.2,2.4,1.1.3-.5-.1-1.1-.9-1.5S86,606.12,86,606.62Z"/><path class="cls-1" d="M64.7,607.32c-.4.3-.7,3-.7,6,0,4,.4,5.3,1.5,5.3s1.5-1.2,1.5-4.8C67,609,65.9,606,64.7,607.32Z"/><path class="cls-1" d="M620,609.12c0,1.5.6,2.5,1.4,2.5,2.2,0,3-1.9,1.6-3.5C621.2,605.92,620,606.32,620,609.12Z"/><path class="cls-1" d="M236.7,608.22a3.61,3.61,0,0,0-.7,2.2c0,.8-1.1,3-2.6,4.9l-2.5,3.3h8.9l-.5-4.8C238.7,608.92,237.9,607.12,236.7,608.22Z"/><path class="cls-1" d="M615.7,608.32a2.82,2.82,0,0,0-.7,2c0,1.5,2.6,1.8,3.4.4C619.1,609.62,616.6,607.42,615.7,608.32Z"/><path class="cls-1" d="M458,610.92a6.53,6.53,0,0,0,1.9,4.1c1.9,1.7,2,1.7,3.1-.5,1.1-1.9.9-2.5-1.1-4C458.7,608.12,458,608.12,458,610.92Z"/><path class="cls-1" d="M345,610.62a9.61,9.61,0,0,1-4.2,1c-2.3,0-2.8.5-2.8,2.3a4,4,0,0,1-2.2,3.5c-1.9.9-1,1.1,4.9,1.1,3.9.1,7.5-.4,7.8-.9s1.9-1,3.5-1a17.3,17.3,0,0,0,4.4-.6c3-1.2,1.6-2.4-2.8-2.4-3.2,0-4.7-.5-5.7-2S346.1,609.92,345,610.62Z"/><path class="cls-1" d="M49.7,611.72a4.66,4.66,0,0,0-1.7,3.9c0,2.6.4,3,2.8,3,2.6,0,2.8-.2,2.4-3.5C52.7,611,52.1,610.42,49.7,611.72Z"/><path class="cls-1" d="M121,612.52c0,2.4,1.8,3.7,3.2,2.3.8-.8.7-1.6-.2-2.7C122.3,610,121,610.22,121,612.52Z"/><path class="cls-1" d="M185.5,612.72c-.3.9-1.9,1.9-3.4,2.2s-3.1,1.3-3.4,2.1c-.5,1.3.4,1.6,5.3,1.6,6.6,0,7.3-.8,4-5C186.4,611.52,186,611.42,185.5,612.72Z"/><path class="cls-1" d="M138.1,615.52c-1.1,1.9-1.7,2-6.6,1.5-3.8-.5-5.5-.3-5.5.5s2.6,1.1,7.5,1.1c7.6,0,8.7-.6,6.6-3.9C139.4,613.62,139,613.82,138.1,615.52Z"/><path class="cls-1" d="M804,617.22c0,1.4.3,1.4,1.5.4A6,6,0,0,0,807,616c0-.2-.7-.4-1.5-.4A1.56,1.56,0,0,0,804,617.22Z"/><path class="cls-1" d="M224.5,617.62c-.4.6.7,1,2.7,1,2.5,0,2.9-.3,1.8-1C227.1,616.32,225.3,616.32,224.5,617.62Z"/><path class="cls-1" d="M276,617.62c-1.1.7-.5,1,2.3,1,2.3,0,3.6-.4,3.2-1C280.7,616.32,278,616.32,276,617.62Z"/><path class="cls-1" d="M630.5,617.62c-.3.5.1,1,.9,1s1.6-.5,1.6-1a.92.92,0,0,0-.9-1A1.9,1.9,0,0,0,630.5,617.62Z"/><path class="cls-1" d="M331.2,691.52c-7.7,2.7-13.2,7-17,13.2-4.4,7.2-5.5,12-5,20.6.9,12.8,6.9,21.6,18.8,27.2,4.9,2.3,6.7,2.6,16.5,2.6s11.6-.3,16.7-2.7a35.52,35.52,0,0,0,16-15.6c1.9-3.9,2.3-6.3,2.3-14.2,0-8.4-.3-10.1-2.8-14.7a32.19,32.19,0,0,0-15.6-15.1C353.6,689.32,339.2,688.72,331.2,691.52Zm21,5.8c6.5,3.8,10.1,18.4,8.1,33-1.2,9.6-3.5,14.6-7.8,17.3-3.9,2.4-11.3,2.7-15.6.4-4.5-2.3-7.7-10-8.5-20.5-1.2-15,2.2-27,8.4-30.4C340.6,695.12,348.5,695.22,352.2,697.32Z"/><path class="cls-1" d="M544.8,690.32c-5.4.4-5.8.6-5.8,2.8,0,2,.5,2.5,2.4,2.5,5.4,0,5.6,1.1,5.6,27,0,23.5,0,23.9-2.2,25.4a8.2,8.2,0,0,1-4,1.6c-1.3,0-1.8.8-1.8,2.5v2.5h17.8c9.7,0,20.8-.5,24.5-1,17.2-2.5,26.9-13.4,27-30.5.1-18-10.3-29.8-28.9-32.5C572.8,689.72,557.2,689.62,544.8,690.32Zm32.8,7.2c8.6,3.9,13.2,15.1,12,29.5s-6.8,21.6-17.2,21.6c-8.6,0-8.4.7-8.4-28.1v-24.9h4.8A25.64,25.64,0,0,1,577.6,697.52Z"/><path class="cls-1" d="M635.7,692.82c-.8,1.8-5.4,13.4-10.2,25.8-9.7,24.7-11.7,28.4-15.7,30.2-1.9.9-2.8,2.1-2.8,3.5,0,2.2.3,2.3,10.5,2.3,10.4,0,10.5,0,10.5-2.4,0-1.8-.7-2.5-2.9-2.9-3.6-.8-4.3-2.7-2.7-7.4l1.3-3.8,10.2-.3,10.2-.3,1.4,3.5c2.3,5.5,2,7.6-1.5,8.2-2.3.5-3,1.2-3,3v2.4h16c16,0,16,0,16-2.3,0-1.6-.9-2.6-3-3.4a10.82,10.82,0,0,1-4.7-4.1c-1-1.6-6.5-14.7-12.3-29.1-10.1-25.2-10.6-26.1-13.2-26.1C637.6,689.62,636.7,690.32,635.7,692.82Zm2.4,29.8,3.8,9H626l2.1-5.3c1.2-2.8,2.8-7.1,3.7-9.4s1.8-4,2.1-3.8S636,717.72,638.1,722.62Z"/><path class="cls-1" d="M802,691.62c-9.6,3.6-14,7.5-19.1,17-2,3.8-2.4,5.9-2.4,14,0,8.4.3,10.2,2.8,15.2,3.3,6.7,8,11.1,15.7,14.7,4.9,2.3,6.7,2.6,16.5,2.6s11.6-.3,16.7-2.7a35.52,35.52,0,0,0,16-15.6c1.9-3.9,2.3-6.3,2.3-13.7,0-7.6-.4-9.8-2.6-14.5a32.37,32.37,0,0,0-15.8-15.8C824.4,689.32,810,688.72,802,691.62Zm21,5.7c6.6,3.9,10.3,18.3,8.3,33-1.8,13.9-6.2,19.3-15.8,19.3-10,0-14.9-6.8-16.1-22.2-.7-9.1.7-20.2,3.2-25C805.8,696.22,816.6,693.52,823,697.32Z"/><path class="cls-1" d="M0,693c0,1.9.7,2.6,3,3.1,1.7.4,3.5,1.5,4,2.5S8,710,8,723c0,21.3-.1,22.7-2,24.6a6.92,6.92,0,0,1-4,2c-1.5,0-2,.7-2,2.6v2.6l22.3-.4c21.3-.3,22.4-.4,27.2-2.8,6.3-3.1,9.5-7.8,9.5-13.7,0-8-4-12.8-13.3-15.9l-5.2-1.7,3.7-1.3c8.2-2.8,11.8-7.2,11.8-14.3,0-3.1-.7-4.9-3.1-7.6-4.9-5.5-9.9-6.5-33.1-6.5H0Zm33.3,3.8c3.7,1.9,4.6,4,4.7,10.1,0,7.6-2.7,10.7-9.5,10.7H24v-22h3.6A13.73,13.73,0,0,1,33.3,696.82Zm2.9,27.9c5.8,3.1,6.4,19.9.8,22.9-3,1.6-9.6,1.2-11.1-.6-.9-1.1-1.5-5.3-1.7-12.5l-.4-10.9H29A20.85,20.85,0,0,1,36.2,724.72Z"/><path class="cls-1" d="M66,699.62c0,8.8,0,9,2.4,9,1.9,0,2.5-.7,3-3.5,1.2-6,4.2-8.4,11.4-9.2l6.2-.6v25.6c0,25.3,0,25.6-2.2,27.1a9.11,9.11,0,0,1-4.5,1.6c-1.8,0-2.3.6-2.3,2.5v2.5h35v-2.5c0-1.9-.5-2.5-2.3-2.5a9.11,9.11,0,0,1-4.5-1.6c-2.2-1.5-2.2-1.8-2.2-27.1v-25.6l5.6.6c7.1.7,9.9,2.6,11.6,7.9,1.2,3.5,2,4.4,4.1,4.6l2.7.3v-18.1H66Z"/><path class="cls-1" d="M132,693.12c0,1.8.5,2.5,2,2.5,1.1,0,2.7,1.2,3.6,2.6,1.5,2.1,8.6,24.2,16.3,50.1l2.2,7.3h7.8l6.8-21c3.7-11.5,7.1-21,7.4-21s4.2,9.3,8.6,20.7l8,20.8h7.6l6.3-22.5c3.5-12.4,7.1-24.8,8-27.5,1.7-5.3,4.8-9.5,7.1-9.5.7,0,1.3-1.1,1.3-2.5v-2.5H215c-9.9,0-10,0-10,2.4,0,1.7.7,2.6,2.5,3,4.1,1.1,4.1,4.5,0,20-2.1,7.8-4.1,14.4-4.4,14.8s-4.2-8.5-8.6-19.8l-7.9-20.4h-7.2l-6.4,19.7c-3.5,10.9-6.7,20.2-7.1,20.6s-1-.4-1.3-2-2.5-8.4-4.7-15.1c-4.7-14.8-4.8-16.9-1.4-17.8,1.8-.4,2.5-1.3,2.5-3v-2.4H132Z"/><path class="cls-1" d="M250,693.12c0,2.1.5,2.5,2.9,2.5,5.9,0,6.1.7,6.1,27,0,23.5,0,23.9-2.2,25.4a8.2,8.2,0,0,1-4,1.6c-1.3,0-1.8.8-1.8,2.5v2.5h34v-2.5c0-1.9-.5-2.5-2.3-2.5a9.11,9.11,0,0,1-4.5-1.6c-2.1-1.4-2.2-2.3-2.2-13v-11.4h2.8c5.4,0,7.1,1.1,8.4,5.1.9,3.1,1.6,3.9,3.5,3.9,2.3,0,2.3-.1,2.3-11s0-11-2.4-11c-1.9,0-2.7.8-3.6,3.4-1.1,3.5-3.1,4.6-8.2,4.6H276v-23.2l7.9.3c8.9.5,12,2.3,14.3,8.6.9,2.4,1.8,3.3,3.5,3.3,2.2,0,2.3-.3,2.3-8.5v-8.5H250Z"/><path class="cls-1" d="M387,693.12c0,2,.5,2.5,2.3,2.5,5.1,0,5.7,2.2,5.7,21.2,0,24.3,2.1,30.2,12.3,35.5,11,5.6,26.6,4,35-3.6,6.4-5.7,6.9-8.1,7.5-29.9.5-19.1.5-19.3,3-21.2a8.7,8.7,0,0,1,3.8-2c.8,0,1.4-1.1,1.4-2.5v-2.5H434v2.5c0,1.9.5,2.5,2.3,2.5,3.2,0,6.5,3.3,7.3,7.5a188.63,188.63,0,0,1,.3,19.2c-.5,18.4-1.5,21.2-8.9,25.1-8.1,4.2-18.5,1.1-21.6-6.4-1-2.5-1.4-8.5-1.4-22.8,0-21.1.4-22.6,5.6-22.6,1.9,0,2.4-.5,2.4-2.5v-2.5H387Z"/><path class="cls-1" d="M462,693.12c0,1.8.5,2.5,1.9,2.5,1.1,0,3.3,1.1,4.8,2.4l2.8,2.4v44.4l-2.8,2.4c-1.5,1.3-3.5,2.4-4.3,2.4s-1.4,1-1.4,2.5v2.5h24v-2.5c0-1.8-.5-2.5-1.9-2.5-1.1,0-3.3-1.1-4.8-2.4l-2.8-2.4-.3-17.6c-.2-9.7,0-17.6.5-17.6s10,10.3,21.2,23c17.7,19.9,20.7,23,23.2,23H525v-26.4c0-15.4.4-27.6,1-29.1a7.46,7.46,0,0,1,4-3.8c2.1-.8,3-1.8,3-3.4,0-2.3-.2-2.3-11.5-2.3s-11.5,0-11.5,2.4c0,1.8.7,2.5,3,2.9,5.3,1.1,6.1,3.8,5.8,19.4l-.3,14-17.3-19.4-17.3-19.3H462Z"/><path class="cls-1" d="M669,699.62c0,8.8,0,9,2.4,9,1.9,0,2.5-.7,3-3.5,1.2-6.1,4.2-8.6,11.4-9.2l6.2-.6v25.6c0,25.3,0,25.6-2.2,27.1a9.11,9.11,0,0,1-4.5,1.6c-1.8,0-2.3.6-2.3,2.5v2.5h35v-2.5c0-1.9-.5-2.5-2.3-2.5a9.11,9.11,0,0,1-4.5-1.6c-2.2-1.5-2.2-1.8-2.2-27.1v-25.6l5.6.6c7.1.7,9.9,2.6,11.6,7.9,1.2,3.5,2,4.4,4.1,4.6l2.7.3v-18.1H669Z"/><path class="cls-1" d="M739,693.12c0,2,.5,2.5,2.4,2.5,5.4,0,5.6,1.1,5.6,27,0,23.5,0,23.9-2.2,25.4a8.2,8.2,0,0,1-4,1.6c-1.3,0-1.8.8-1.8,2.5v2.5h33v-2.5c0-1.7-.5-2.5-1.8-2.5a8.2,8.2,0,0,1-4-1.6c-2.2-1.5-2.2-1.9-2.2-25.4,0-25.9.2-27,5.6-27,1.9,0,2.4-.5,2.4-2.5v-2.5H739Z"/><path class="cls-1" d="M858,693.12c0,1.8.5,2.5,1.9,2.5,1.1,0,3.3,1.1,4.8,2.4l2.8,2.4v44.4l-2.8,2.4c-1.5,1.3-3.5,2.4-4.3,2.4s-1.4,1-1.4,2.5v2.5h24v-2.5c0-1.8-.5-2.5-1.9-2.5a9.33,9.33,0,0,1-4.4-2c-3.3-2.6-3.9-6.6-3.5-24.9l.3-14.3L894.4,732c18.1,20.5,21.2,23.6,23.7,23.6H921v-26.4c0-15.4.4-27.6,1-29.1a7.46,7.46,0,0,1,4-3.8c2.1-.8,3-1.8,3-3.4,0-2.3-.2-2.3-11.5-2.3s-11.5,0-11.5,2.4c0,1.8.7,2.5,3,2.9,5.3,1.1,6.1,3.8,5.8,19.4l-.3,13.9-17.3-19.3-17.4-19.3H858Z"/></g></g></svg>