<svg xmlns="http://www.w3.org/2000/svg" viewBox="0 0 573.41 126"><defs><style>.cls-1{fill:#fff;}</style></defs><g id="Слой_2" data-name="Слой 2"><g id="Layer_1" data-name="Layer 1"><path class="cls-1" d="M237.39,81.9a15,15,0,0,0-14.68,9.17,13.24,13.24,0,0,0-13.78-9.17,14.47,14.47,0,0,0-13.81,8.23V83.24H180.89v41.34h14.23V105.13c0-8.1,2.65-11.75,8.2-11.75,4.72,0,6.89,2.89,6.89,8.2v23h13.95V105.13c0-8.1,2.59-11.75,8.2-11.75,4.72,0,6.89,2.89,6.89,8.2v23h14V99.44C253.24,88.59,248.28,81.9,237.39,81.9Zm23.23-3.72h14.67V69.47H260.71Zm.31,46.41h14.36V83.25H260.93ZM312.6,81.94a15.57,15.57,0,0,0-14.88,9V83.26H283.46V124.6h14.25V105.13c0-8.1,3.44-11.75,9-11.75,5,0,7.2,3,7.2,8.44v22.77h14.2V99.44c0-10.85-4.58-17.54-15.54-17.54ZM368,66.71V88.86A16,16,0,0,0,353.5,82c-13.78,0-19,10.34-19,21.92s5.38,22,19,22A16,16,0,0,0,368,119v5.55H382.1V66.68Zm-9.75,48.23c-6.89,0-9.44-3.23-9.44-10.92s2.41-10.89,9.44-10.89S368,96.58,368,104.05s-2.51,10.79-9.78,10.79ZM416,82.7a10.92,10.92,0,0,0-11.74,9.09V83.25H390.43v41.34h14.28V108.05c0-8.33,2.9-11.64,9.75-11.64h5.07V82.63ZM445.84,126c17.53,0,23.73-10.88,23.73-22s-6.2-22-23.73-22S422.2,92.89,422.2,104s6.06,21.85,23.6,21.85Zm-9.48-22.08C436.36,95.65,439,93,445.8,93s9.44,2.65,9.44,10.92-2.65,10.92-9.44,10.92-9.44-2.71-9.44-10.92Zm37.55,0c0,11.16,6.45,22,23.57,22,15.37,0,22.26-9,22.57-18.85H506.27a8,8,0,0,1-8.08,7.84,5.08,5.08,0,0,1-.78,0c-5.89,0-9.09-2.65-9.09-10.92s3.44-10.92,9.33-10.92A7.49,7.49,0,0,1,506,99.51a8.55,8.55,0,0,1,0,1.24h13.87C519.6,90.41,512.33,82,497.34,82c-17.16-.11-23.43,10.71-23.43,21.91Zm82.69,20.67h16.81L554.88,101l17.71-17.23v-.48H555.71L544.27,96.06c-1.38,1.73-3,3.73-4.37,5.79V66.68H525.71v57.91h14.23v-9.13l5.85-5.72Z"/><path class="cls-1" d="M33.94,124.68H3.45A3.43,3.43,0,0,1,0,121.27,3.49,3.49,0,0,1,.24,120L14,84.37l.09-.24a3.48,3.48,0,0,1,.38-.64h0l24.61-33.8q.15-.19.33-.39L69.1,19.2,79.71,1.79c0-.09.11-.18.17-.27A3.43,3.43,0,0,1,84.66.59,3.47,3.47,0,0,1,86.16,3L98.71,34.37l9.18,4.8.15.09a3.82,3.82,0,0,1,1,.88c.09.13.18.27.26.41h0a4.49,4.49,0,0,1,.33.86v.16l11,55L132,107.13a3.49,3.49,0,0,1,.92,1.44l3.83,11.56a3.45,3.45,0,0,1-2.19,4.35,3.34,3.34,0,0,1-1.08.17H33.94Zm77.89-6.89h16.88l-2-6.17-8.12-7.49Zm-40.93,0h33.25l8.56-17.32L91.62,93.35Zm-22.61,0H61.87l24.2-28.57L62.65,59.52Zm-12.16,0h5.06l14.1-57.22-33.74,26Zm-27.65,0H28.53l-11-23.47Zm85.25-31L113,93.28l-9.39-47L90,49.21ZM67,54,85.92,78,83.22,50.6ZM44.53,54,34.22,68.13,58,49.75l5.32-14.9ZM75,22.81,66.3,47.13l16.28-3.44-2.44-29.4Zm13.09,3.58,1.33,15.9,6.82-1.44-1.85-1a3.34,3.34,0,0,1-1.6-1.77Z"/></g></g></svg>