<svg width="128" height="58" viewBox="0 0 128 58" fill="none" xmlns="http://www.w3.org/2000/svg">
<path d="M38 0L23 37H32L35 30H53V37H61V0H38ZM38 22L43.5 8H53V22H38Z" fill="white"/>
<path d="M31 0L16 37H11.5L26.5 0H31Z" fill="white"/>
<path d="M21.5 0L6.5 37H0L15 0H21.5Z" fill="white"/>
<path d="M100 0L85 37H65V0H73V29H79.5L91 0H100Z" fill="white"/>
<path d="M128 0V12H120V8H110L102 29H120.4V24H112L115.5 16H128V37H90L105 0H128Z" fill="white"/>
<path d="M2.68078 51.042H3.57079L5.88818 57.0034H4.89741L4.26769 55.3829H1.96709L1.34575 57.0034H0.346588L2.68078 51.042ZM4.08297 54.686L3.12578 52.0747L2.13501 54.686H4.08297Z" fill="white"/>
<path d="M9.15863 57.0454C8.68843 57.0454 8.28821 56.9642 7.95795 56.8019C7.62769 56.6396 7.36181 56.4184 7.1603 56.1386C6.95878 55.8531 6.81325 55.534 6.72369 55.1814C6.63413 54.8231 6.58934 54.4509 6.58934 54.0647V51.042H7.52974V54.0647C7.52974 54.339 7.55772 54.6048 7.6137 54.8623C7.66968 55.1142 7.75924 55.3409 7.88238 55.5424C8.00553 55.7439 8.17066 55.9035 8.37777 56.021C8.59048 56.1386 8.85076 56.1973 9.15863 56.1973C9.47209 56.1973 9.73238 56.1386 9.93949 56.021C10.1522 55.8979 10.3201 55.7355 10.4433 55.534C10.5664 55.3269 10.6532 55.0974 10.7036 54.8455C10.7595 54.5936 10.7875 54.3334 10.7875 54.0647V51.042H11.7363V54.0647C11.7363 54.4733 11.6859 54.8567 11.5852 55.215C11.49 55.5732 11.3389 55.8895 11.1318 56.1638C10.9303 56.438 10.6644 56.6535 10.3341 56.8103C10.0095 56.967 9.61763 57.0454 9.15863 57.0454Z" fill="white"/>
<path d="M17.6553 51.8732H15.6738V57.0034H14.725V51.8732H12.7351V51.042H17.6553V51.8732Z" fill="white"/>
<path d="M21.0698 57.0454C20.6444 57.0454 20.2553 56.9614 19.9027 56.7935C19.5556 56.6256 19.2562 56.3989 19.0043 56.1134C18.7524 55.8223 18.5565 55.4976 18.4165 55.1394C18.2822 54.7756 18.215 54.4033 18.215 54.0227C18.215 53.6253 18.2878 53.2474 18.4333 52.8892C18.5789 52.5253 18.7804 52.2035 19.0379 51.9236C19.2954 51.6381 19.5976 51.4142 19.9447 51.2519C20.2973 51.084 20.678 51 21.0866 51C21.512 51 21.8982 51.0868 22.2453 51.2603C22.5979 51.4338 22.8974 51.6661 23.1437 51.9572C23.3956 52.2483 23.5887 52.5729 23.723 52.9312C23.863 53.2894 23.9329 53.656 23.9329 54.0311C23.9329 54.4285 23.8602 54.8091 23.7146 55.173C23.5747 55.5312 23.376 55.8531 23.1185 56.1386C22.861 56.4184 22.5559 56.6396 22.2033 56.8019C21.8562 56.9642 21.4784 57.0454 21.0698 57.0454ZM19.1722 54.0227C19.1722 54.3977 19.2506 54.7532 19.4073 55.089C19.564 55.4193 19.7823 55.688 20.0622 55.8951C20.3477 56.0966 20.6863 56.1973 21.0782 56.1973C21.3748 56.1973 21.6407 56.1358 21.8758 56.0126C22.1109 55.8895 22.3096 55.7244 22.472 55.5172C22.6343 55.3045 22.7574 55.0694 22.8414 54.8119C22.9254 54.5545 22.9674 54.2914 22.9674 54.0227C22.9674 53.6477 22.889 53.295 22.7323 52.9647C22.5811 52.6345 22.3628 52.3686 22.0773 52.1671C21.7919 51.96 21.4588 51.8564 21.0782 51.8564C20.7759 51.8564 20.5072 51.918 20.2721 52.0411C20.037 52.1643 19.8383 52.3294 19.676 52.5365C19.5137 52.7436 19.3877 52.9759 19.2981 53.2334C19.2142 53.4909 19.1722 53.754 19.1722 54.0227Z" fill="white"/>
<path d="M30.213 57.0034V52.7548L28.4582 55.979H27.904L26.1408 52.7548V57.0034H25.2004V51.042H26.208L28.1811 54.686L30.1542 51.042H31.1618V57.0034H30.213Z" fill="white"/>
<path d="M34.5213 51.042H35.4114L37.7287 57.0034H36.738L36.1082 55.3829H33.8076L33.1863 57.0034H32.1871L34.5213 51.042ZM35.9235 54.686L34.9663 52.0747L33.9756 54.686H35.9235Z" fill="white"/>
<path d="M42.5686 51.8732H40.587V57.0034H39.6383V51.8732H37.6483V51.042H42.5686V51.8732Z" fill="white"/>
<path d="M43.6619 57.0034V51.042H44.6023V57.0034H43.6619Z" fill="white"/>
<path d="M45.8656 53.9807C45.8656 53.6169 45.93 53.2586 46.0587 52.906C46.1875 52.5533 46.375 52.2343 46.6213 51.9488C46.8732 51.6633 47.1754 51.4366 47.5281 51.2687C47.8863 51.0952 48.2949 51.0084 48.7539 51.0084C49.2913 51.0084 49.7559 51.1287 50.1477 51.3694C50.5396 51.6101 50.8306 51.9236 51.021 52.3098L50.2821 52.8052C50.1701 52.5645 50.0274 52.377 49.8539 52.2427C49.6859 52.1027 49.5012 52.0048 49.2997 51.9488C49.1038 51.8872 48.9107 51.8564 48.7204 51.8564C48.4069 51.8564 48.1326 51.9208 47.8975 52.0495C47.6624 52.1727 47.4637 52.3378 47.3014 52.5449C47.1446 52.752 47.0243 52.9843 46.9403 53.2418C46.862 53.4993 46.8228 53.7568 46.8228 54.0143C46.8228 54.4005 46.904 54.7616 47.0663 55.0974C47.2342 55.4277 47.4609 55.6964 47.7464 55.9035C48.0375 56.105 48.3705 56.2057 48.7456 56.2057C48.9359 56.2057 49.1346 56.1722 49.3417 56.105C49.5488 56.0378 49.7391 55.9343 49.9126 55.7943C50.0862 55.6488 50.2261 55.4585 50.3325 55.2234L51.1133 55.6684C50.9902 55.965 50.7971 56.2169 50.534 56.424C50.2765 56.6312 49.9854 56.7879 49.6608 56.8942C49.3417 57.0006 49.0254 57.0538 48.712 57.0538C48.2921 57.0538 47.9087 56.967 47.5617 56.7935C47.2146 56.6144 46.9151 56.3793 46.6633 56.0882C46.4114 55.7915 46.2154 55.4613 46.0755 55.0974C45.9356 54.728 45.8656 54.3557 45.8656 53.9807Z" fill="white"/>
<path d="M54.7362 51.042L56.533 55.8531L58.3215 51.042H59.3206L56.978 57.0034H56.088L53.7371 51.042H54.7362Z" fill="white"/>
<path d="M64.4318 56.1722V57.0034H60.3428V51.042H64.3562V51.8732H61.2831V53.5693H63.9448V54.3501H61.2831V56.1722H64.4318Z" fill="white"/>
<path d="M66.6361 52.7884V57.0034H65.6958V51.042H66.4682L69.8436 55.3493V51.0504H70.7923V57.0034H69.9695L66.6361 52.7884Z" fill="white"/>
<path d="M76.8008 51.8732H74.8192V57.0034H73.8705V51.8732H71.8805V51.042H76.8008V51.8732Z" fill="white"/>
<path d="M80.3794 57.0454C79.9092 57.0454 79.509 56.9642 79.1787 56.8019C78.8485 56.6396 78.5826 56.4184 78.3811 56.1386C78.1796 55.8531 78.034 55.534 77.9445 55.1814C77.8549 54.8231 77.8101 54.4509 77.8101 54.0647V51.042H78.7505V54.0647C78.7505 54.339 78.7785 54.6048 78.8345 54.8623C78.8905 55.1142 78.98 55.3409 79.1032 55.5424C79.2263 55.7439 79.3914 55.9035 79.5985 56.021C79.8113 56.1386 80.0715 56.1973 80.3794 56.1973C80.6929 56.1973 80.9532 56.1386 81.1603 56.021C81.373 55.8979 81.5409 55.7355 81.6641 55.534C81.7872 55.3269 81.874 55.0974 81.9243 54.8455C81.9803 54.5936 82.0083 54.3334 82.0083 54.0647V51.042H82.9571V54.0647C82.9571 54.4733 82.9067 54.8567 82.806 55.215C82.7108 55.5732 82.5597 55.8895 82.3526 56.1638C82.151 56.438 81.8852 56.6535 81.5549 56.8103C81.2302 56.967 80.8384 57.0454 80.3794 57.0454Z" fill="white"/>
<path d="M84.5016 57.0034V51.042H87.0961C87.3648 51.042 87.6111 51.098 87.835 51.2099C88.0589 51.3219 88.252 51.4702 88.4143 51.6549C88.5823 51.8396 88.711 52.0467 88.8006 52.2762C88.8957 52.5057 88.9433 52.7408 88.9433 52.9815C88.9433 53.2502 88.8929 53.5049 88.7922 53.7456C88.697 53.9807 88.5627 54.185 88.3891 54.3585C88.2156 54.5321 88.0113 54.658 87.7762 54.7364L89.1784 57.0034H88.1205L86.8274 54.9295H85.442V57.0034H84.5016ZM85.442 54.0983H87.0877C87.2612 54.0983 87.4152 54.0479 87.5495 53.9471C87.6838 53.8408 87.7902 53.7036 87.8686 53.5357C87.9469 53.3678 87.9861 53.1831 87.9861 52.9815C87.9861 52.7744 87.9413 52.5897 87.8518 52.4274C87.7622 52.2595 87.6447 52.1251 87.4991 52.0244C87.3536 51.9236 87.1997 51.8732 87.0373 51.8732H85.442V54.0983Z" fill="white"/>
<path d="M94.4356 56.1722V57.0034H90.3466V51.042H94.3601V51.8732H91.287V53.5693H93.9486V54.3501H91.287V56.1722H94.4356Z" fill="white"/>
<path d="M100.503 57.0454C100.105 57.0454 99.7361 56.9642 99.3946 56.8019C99.0587 56.6396 98.7621 56.4157 98.5046 56.1302C98.2527 55.8447 98.054 55.52 97.9084 55.1562C97.7685 54.7924 97.6985 54.4061 97.6985 53.9975C97.6985 53.5945 97.7685 53.2138 97.9084 52.8556C98.0484 52.4918 98.2471 52.1727 98.5046 51.8984C98.7621 51.6185 99.0615 51.4002 99.403 51.2435C99.75 51.0812 100.128 51 100.537 51C101.102 51 101.578 51.1203 101.964 51.361C102.35 51.5961 102.644 51.9096 102.846 52.3014L102.123 52.822C101.961 52.4974 101.737 52.2539 101.452 52.0915C101.166 51.9292 100.853 51.848 100.511 51.848C100.136 51.848 99.8088 51.9516 99.5289 52.1587C99.2491 52.3602 99.0336 52.6261 98.8824 52.9564C98.7313 53.2866 98.6557 53.6421 98.6557 54.0227C98.6557 54.4257 98.7397 54.7924 98.9076 55.1226C99.0755 55.4473 99.3022 55.7076 99.5877 55.9035C99.8788 56.0994 100.209 56.1973 100.578 56.1973C101.194 56.1973 101.748 55.9035 102.241 55.3157V54.686H100.99V53.9891H103.03V57.0034H102.241V56.2645C101.743 56.7851 101.163 57.0454 100.503 57.0454Z" fill="white"/>
<path d="M104.397 57.0034V51.042H106.991C107.26 51.042 107.506 51.098 107.73 51.2099C107.954 51.3219 108.147 51.4702 108.309 51.6549C108.477 51.8396 108.606 52.0467 108.696 52.2762C108.791 52.5057 108.838 52.7408 108.838 52.9815C108.838 53.2502 108.788 53.5049 108.687 53.7456C108.592 53.9807 108.458 54.185 108.284 54.3585C108.111 54.5321 107.906 54.658 107.671 54.7364L109.074 57.0034H108.016L106.723 54.9295H105.337V57.0034H104.397ZM105.337 54.0983H106.983C107.156 54.0983 107.31 54.0479 107.445 53.9471C107.579 53.8408 107.685 53.7036 107.764 53.5357C107.842 53.3678 107.881 53.1831 107.881 52.9815C107.881 52.7744 107.836 52.5897 107.747 52.4274C107.657 52.2595 107.54 52.1251 107.394 52.0244C107.249 51.9236 107.095 51.8732 106.932 51.8732H105.337V54.0983Z" fill="white"/>
<path d="M112.702 57.0454C112.277 57.0454 111.888 56.9614 111.535 56.7935C111.188 56.6256 110.889 56.3989 110.637 56.1134C110.385 55.8223 110.189 55.4976 110.049 55.1394C109.915 54.7756 109.847 54.4033 109.847 54.0227C109.847 53.6253 109.92 53.2474 110.066 52.8892C110.211 52.5253 110.413 52.2035 110.67 51.9236C110.928 51.6381 111.23 51.4142 111.577 51.2519C111.93 51.084 112.31 51 112.719 51C113.144 51 113.531 51.0868 113.878 51.2603C114.23 51.4338 114.53 51.6661 114.776 51.9572C115.028 52.2483 115.221 52.5729 115.355 52.9312C115.495 53.2894 115.565 53.656 115.565 54.0311C115.565 54.4285 115.493 54.8091 115.347 55.173C115.207 55.5312 115.008 55.8531 114.751 56.1386C114.493 56.4184 114.188 56.6396 113.836 56.8019C113.489 56.9642 113.111 57.0454 112.702 57.0454ZM110.805 54.0227C110.805 54.3977 110.883 54.7532 111.04 55.089C111.196 55.4193 111.415 55.688 111.695 55.8951C111.98 56.0966 112.319 56.1973 112.711 56.1973C113.007 56.1973 113.273 56.1358 113.508 56.0126C113.743 55.8895 113.942 55.7244 114.104 55.5172C114.267 55.3045 114.39 55.0694 114.474 54.8119C114.558 54.5545 114.6 54.2914 114.6 54.0227C114.6 53.6477 114.521 53.295 114.365 52.9647C114.214 52.6345 113.995 52.3686 113.71 52.1671C113.424 51.96 113.091 51.8564 112.711 51.8564C112.408 51.8564 112.14 51.918 111.905 52.0411C111.669 52.1643 111.471 52.3294 111.308 52.5365C111.146 52.7436 111.02 52.9759 110.931 53.2334C110.847 53.4909 110.805 53.754 110.805 54.0227Z" fill="white"/>
<path d="M119.318 57.0454C118.848 57.0454 118.448 56.9642 118.117 56.8019C117.787 56.6396 117.521 56.4184 117.32 56.1386C117.118 55.8531 116.973 55.534 116.883 55.1814C116.794 54.8231 116.749 54.4509 116.749 54.0647V51.042H117.689V54.0647C117.689 54.339 117.717 54.6048 117.773 54.8623C117.829 55.1142 117.919 55.3409 118.042 55.5424C118.165 55.7439 118.33 55.9035 118.537 56.021C118.75 56.1386 119.01 56.1973 119.318 56.1973C119.632 56.1973 119.892 56.1386 120.099 56.021C120.312 55.8979 120.48 55.7355 120.603 55.534C120.726 55.3269 120.813 55.0974 120.863 54.8455C120.919 54.5936 120.947 54.3334 120.947 54.0647V51.042H121.896V54.0647C121.896 54.4733 121.845 54.8567 121.745 55.215C121.65 55.5732 121.498 55.8895 121.291 56.1638C121.09 56.438 120.824 56.6535 120.494 56.8103C120.169 56.967 119.777 57.0454 119.318 57.0454Z" fill="white"/>
<path d="M123.44 57.0034V51.042H125.942C126.211 51.042 126.457 51.098 126.681 51.2099C126.911 51.3219 127.107 51.4702 127.269 51.6549C127.437 51.8396 127.566 52.0467 127.655 52.2762C127.745 52.5057 127.79 52.7408 127.79 52.9815C127.79 53.3174 127.714 53.6337 127.563 53.9303C127.412 54.227 127.202 54.4677 126.933 54.6524C126.665 54.8371 126.351 54.9295 125.993 54.9295H124.381V57.0034H123.44ZM124.381 54.0983H125.934C126.197 54.0983 126.413 53.9919 126.581 53.7792C126.749 53.5665 126.833 53.3006 126.833 52.9815C126.833 52.7632 126.788 52.5729 126.698 52.4106C126.609 52.2427 126.491 52.1111 126.346 52.016C126.206 51.9208 126.052 51.8732 125.884 51.8732H124.381V54.0983Z" fill="white"/>
</svg>
