<svg xmlns="http://www.w3.org/2000/svg" viewBox="0 0 492.1 396.17"><defs><style>.cls-1{fill:#fff;}</style></defs><g id="Слой_2" data-name="Слой 2"><g id="Livello_1" data-name="Livello 1"><path class="cls-1" d="M207.89,0c27.78,0,27.78,29.7,27.78,29.7V148.57s-.57,4.65-4.7,4.4-62.84-.15-66.67-.15-4.31-6.23-4.31-6.23V83.36c0-4.84-5-5.75-5-5.75H82.39s-6.43-.14-6.71,5.27,0,232.33,0,232.33,0,4,5.27,4.31,74.73,0,74.73,0a4.44,4.44,0,0,0,4.31-4.79c-.13-4.64,0-72.33,0-72.33s.78-4.61,5.27-4.79,62.61,0,66.59,0,3.83,4.79,3.83,4.79v125s0,28.74-27.78,28.74H28.74S0,396.17,0,365V29.71S0,0,28.74,0Zm76.32,0c-27.78,0-27.78,29.7-27.78,29.7V148.57s.57,4.65,4.7,4.4,62.84-.15,66.67-.15,4.31-6.23,4.31-6.23V83.36c0-4.84,5-5.75,5-5.75h72.56s6.43-.14,6.71,5.27,0,232.33,0,232.33,0,4-5.27,4.31-74.73,0-74.73,0a4.44,4.44,0,0,1-4.31-4.79c.13-4.64,0-72.33,0-72.33s-.78-4.61-5.27-4.79-62.61,0-66.59,0-3.83,4.79-3.83,4.79v125s0,28.74,27.78,28.74H463.36s28.74,0,28.74-31.14V29.71S492.1,0,463.36,0Z"/></g></g></svg>