<svg width="32" height="32" viewBox="0 0 32 32" fill="none" xmlns="http://www.w3.org/2000/svg">
<circle cx="16" cy="16" r="15.5" stroke="white"/>
<path fill-rule="evenodd" clip-rule="evenodd" d="M16.0007 8C13.828 8 13.5554 8.0095 12.702 8.04833C11.8503 8.08733 11.269 8.22217 10.7603 8.42C10.2342 8.62434 9.78784 8.89767 9.34317 9.3425C8.89817 9.78717 8.62484 10.2335 8.41983 10.7595C8.2215 11.2683 8.0865 11.8498 8.04817 12.7012C8.01 13.5545 8 13.8274 8 16C8 18.1727 8.00967 18.4445 8.04833 19.2979C8.0875 20.1495 8.22233 20.7309 8.42 21.2395C8.6245 21.7657 8.89784 22.2121 9.34267 22.6567C9.78717 23.1017 10.2335 23.3757 10.7593 23.5801C11.2683 23.7779 11.8498 23.9127 12.7013 23.9517C13.5547 23.9906 13.8272 24.0001 15.9997 24.0001C18.1725 24.0001 18.4444 23.9906 19.2977 23.9517C20.1494 23.9127 20.7314 23.7779 21.2404 23.5801C21.7664 23.3757 22.2121 23.1017 22.6566 22.6567C23.1016 22.2121 23.3749 21.7657 23.5799 21.2397C23.7766 20.7309 23.9116 20.1494 23.9516 19.298C23.9899 18.4447 23.9999 18.1727 23.9999 16C23.9999 13.8274 23.9899 13.5547 23.9516 12.7014C23.9116 11.8497 23.7766 11.2683 23.5799 10.7597C23.3749 10.2335 23.1016 9.78717 22.6566 9.3425C22.2116 8.8975 21.7665 8.62417 21.2399 8.42C20.7299 8.22217 20.1482 8.08733 19.2965 8.04833C18.4432 8.0095 18.1715 8 15.9982 8H16.0007ZM15.2834 9.44167C15.4964 9.44134 15.7341 9.44167 16.0011 9.44167C18.1371 9.44167 18.3902 9.44934 19.2337 9.48767C20.0137 9.52334 20.4371 9.65367 20.7191 9.76317C21.0924 9.90817 21.3586 10.0815 21.6384 10.3615C21.9184 10.6415 22.0918 10.9082 22.2371 11.2815C22.3466 11.5632 22.4771 11.9865 22.5126 12.7665C22.5509 13.6099 22.5593 13.8632 22.5593 15.9982C22.5593 18.1332 22.5509 18.3865 22.5126 19.2299C22.4769 20.0099 22.3466 20.4332 22.2371 20.7149C22.0921 21.0882 21.9184 21.354 21.6384 21.6339C21.3584 21.9139 21.0926 22.0872 20.7191 22.2322C20.4374 22.3422 20.0137 22.4722 19.2337 22.5079C18.3904 22.5462 18.1371 22.5546 16.0011 22.5546C13.8649 22.5546 13.6117 22.5462 12.7684 22.5079C11.9884 22.4719 11.565 22.3416 11.2829 22.2321C10.9095 22.0871 10.6429 21.9137 10.3629 21.6337C10.0829 21.3537 9.90954 21.0877 9.76421 20.7142C9.65471 20.4325 9.52421 20.0092 9.48871 19.2292C9.45037 18.3859 9.44271 18.1325 9.44271 15.9962C9.44271 13.8599 9.45037 13.6079 9.48871 12.7645C9.52437 11.9845 9.65471 11.5612 9.76421 11.2792C9.90921 10.9058 10.0829 10.6392 10.3629 10.3592C10.6429 10.0792 10.9095 9.90584 11.2829 9.76051C11.5649 9.65051 11.9884 9.52051 12.7684 9.48467C13.5064 9.45134 13.7924 9.44134 15.2834 9.43967V9.44167ZM20.2708 10.7701C19.7408 10.7701 19.3108 11.1996 19.3108 11.7298C19.3108 12.2598 19.7408 12.6898 20.2708 12.6898C20.8008 12.6898 21.2308 12.2598 21.2308 11.7298C21.2308 11.1998 20.8008 10.7698 20.2708 10.7698V10.7701ZM16.0008 11.8919C13.732 11.8919 11.8924 13.7314 11.8924 16.0002C11.8924 18.2691 13.732 20.1077 16.0008 20.1077C18.2696 20.1077 20.1085 18.2691 20.1085 16.0002C20.1085 13.7314 18.2695 11.8919 16.0006 11.8919H16.0008ZM16.0009 13.3335C17.4736 13.3335 18.6676 14.5274 18.6676 16.0002C18.6676 17.4729 17.4736 18.6669 16.0009 18.6669C14.528 18.6669 13.3342 17.4729 13.3342 16.0002C13.3342 14.5274 14.528 13.3335 16.0009 13.3335Z" fill="white"/>
</svg>
