<svg width="36" height="36" viewBox="0 0 36 36" fill="none" xmlns="http://www.w3.org/2000/svg">
    <circle cx="18" cy="18" r="17.5" stroke="#3471F6"/>
    <path fill-rule="evenodd" clip-rule="evenodd" d="M13.3403 10.0023C13.3153 8.86569 12.5025 8 11.1827 8C9.86286 8 9 8.86569 9 10.0023C9 11.1153 9.83736 12.0059 11.1326 12.0059H11.1573C12.5025 12.0059 13.3403 11.1153 13.3403 10.0023ZM13.0866 13.5881H9.22852V25.1801H13.0866V13.5881ZM22.5579 13.316C25.0967 13.316 27 14.9731 27 18.5336L26.9998 25.1801H23.1419V18.9784C23.1419 17.4207 22.5836 16.3577 21.187 16.3577C20.1211 16.3577 19.4862 17.0743 19.2074 17.7664C19.1054 18.0145 19.0803 18.3601 19.0803 18.7065V25.1804H15.2218C15.2218 25.1804 15.2726 14.6762 15.2218 13.5885H19.0803V15.2304C19.5924 14.4411 20.5095 13.316 22.5579 13.316Z" fill="#3471F6"/>
</svg>
