<svg width="36" height="36" viewBox="0 0 36 36" fill="none" xmlns="http://www.w3.org/2000/svg">
    <circle cx="18" cy="18" r="17.5" stroke="#3471F6"/>
    <path fill-rule="evenodd" clip-rule="evenodd" d="M14.8559 12.9171L9.16243 10.1041C9.11372 10.08 9.06728 10.0686 9.02533 10.0686C8.96556 10.0686 8.91501 10.0918 8.87944 10.1342C8.84463 10.1757 8.82422 10.2356 8.82422 10.3106V22.3869C8.82422 22.5924 8.97642 22.8357 9.16243 22.9276L14.4238 25.5272C14.4969 25.5634 14.5666 25.5805 14.6295 25.5805C14.8068 25.5805 14.9311 25.4449 14.9311 25.2174V13.0375C14.9311 12.9865 14.902 12.9399 14.8559 12.9171Z" fill="#3471F6"/>
    <path fill-rule="evenodd" clip-rule="evenodd" d="M21.5244 22.9971L26.637 25.5231C26.916 25.6609 27.1443 25.5215 27.1443 25.2132V13.9729L21.5244 22.9971Z" fill="#3471F6"/>
    <path fill-rule="evenodd" clip-rule="evenodd" d="M15.4707 13.821V20.01L21.0379 22.7606L15.4707 13.821Z" fill="#3471F6"/>
    <path fill-rule="evenodd" clip-rule="evenodd" d="M27.0109 12.8878L21.2075 10.0205C21.1811 10.0074 21.1525 10.0014 21.1238 10.0006C21.1219 10.0006 21.12 10 21.1181 10C21.0476 10 20.9773 10.035 20.9393 10.096L17.3623 15.8399L21.3553 22.2517L27.0665 13.0808C27.1089 13.0127 27.0831 12.9235 27.0109 12.8878Z" fill="#3471F6"/>
</svg>
