<svg width="32" height="32" viewBox="0 0 32 32" fill="none" xmlns="http://www.w3.org/2000/svg">
<g clip-path="url(#clip0_601_145)">
<path d="M22.3048 10.1129C22.194 9.98891 22.0193 9.95566 21.8745 10.0189L9.8246 15.2939C9.6911 15.3524 9.60335 15.4831 9.6001 15.6291C9.59685 15.7749 9.6786 15.9094 9.8096 15.9739L12.6868 17.3888L13.4038 21.6903C13.4271 21.8536 13.5553 21.9848 13.7223 22.0086C13.8423 22.0258 13.9616 21.9836 14.0441 21.8986L16.3156 19.6271L19.557 21.9426C19.661 22.0166 19.795 22.0328 19.913 21.9861C20.0313 21.9393 20.1178 21.8356 20.1428 21.7108L22.3928 10.4359C22.415 10.3242 22.3863 10.2044 22.3048 10.1129ZM12.9838 16.6991L10.8651 15.6571L19.2355 11.9929L12.9838 16.6991ZM14.1573 17.8138L13.8086 19.5576L13.4323 17.3001L18.0315 13.8379L14.2596 17.6226C14.2066 17.6756 14.1713 17.7446 14.1573 17.8138ZM14.3856 20.4963L14.7791 18.5296L15.6968 19.1851L14.3856 20.4963ZM19.5208 20.9948L15.1026 17.8391L21.4143 11.5064L19.5208 20.9948Z" fill="white"/>
</g>
<circle cx="16" cy="16" r="15.5" stroke="white"/>
<defs>
<clipPath id="clip0_601_145">
<rect width="12.8" height="12.8" fill="white" transform="translate(9.6 9.59998)"/>
</clipPath>
</defs>
</svg>
