<svg width="32" height="32" viewBox="0 0 32 32" fill="none" xmlns="http://www.w3.org/2000/svg">
<circle cx="16" cy="16" r="15.5" stroke="white"/>
<path fill-rule="evenodd" clip-rule="evenodd" d="M15.4498 14.3409L15.4723 14.7216L15.0966 14.675C13.729 14.4963 12.5341 13.8904 11.5197 12.8728L11.0237 12.3679L10.896 12.7408C10.6254 13.5719 10.7983 14.4497 11.3619 15.04C11.6624 15.3663 11.5948 15.4129 11.0763 15.2187C10.896 15.1566 10.7382 15.11 10.7231 15.1333C10.6705 15.1876 10.8509 15.8945 10.9937 16.1742C11.189 16.5625 11.5873 16.9432 12.0231 17.1684L12.3914 17.3471L11.9555 17.3549C11.5347 17.3549 11.5197 17.3626 11.5648 17.5258C11.715 18.0307 12.3087 18.5667 12.97 18.7997L13.4359 18.9628L13.0301 19.2114C12.4289 19.5687 11.7226 19.7707 11.0162 19.7862C10.678 19.794 10.4 19.825 10.4 19.8483C10.4 19.926 11.3168 20.361 11.8503 20.5319C13.4509 21.0368 15.3521 20.8193 16.7799 19.9571C17.7943 19.3434 18.8088 18.1239 19.2822 16.9432C19.5377 16.314 19.7932 15.1643 19.7932 14.6128C19.7932 14.2555 19.8158 14.2089 20.2366 13.7817C20.4846 13.5331 20.7175 13.2612 20.7626 13.1835C20.8377 13.0359 20.8302 13.0359 20.447 13.168C19.8082 13.401 19.7181 13.37 20.0337 13.0204C20.2666 12.7718 20.5447 12.3213 20.5447 12.1892C20.5447 12.1659 20.432 12.2048 20.3042 12.2747C20.1689 12.3524 19.8684 12.4689 19.6429 12.5388L19.2371 12.6708L18.8689 12.4145C18.666 12.2747 18.3805 12.1193 18.2302 12.0727C17.8469 11.964 17.2608 11.9795 16.9151 12.1038C15.9758 12.4533 15.3822 13.3544 15.4498 14.3409Z" fill="white"/>
</svg>
