<svg width="36" height="36" viewBox="0 0 36 36" fill="none" xmlns="http://www.w3.org/2000/svg">
    <circle cx="18" cy="18" r="17.5" stroke="#3471F6"/>
    <path fill-rule="evenodd" clip-rule="evenodd" d="M27.582 13.2447C27.352 12.3611 26.6743 11.6653 25.8138 11.4292C24.2542 11 18 11 18 11C18 11 11.7458 11 10.1861 11.4292C9.32557 11.6653 8.64784 12.3611 8.41784 13.2447C8 14.8461 8 18.1875 8 18.1875C8 18.1875 8 21.5288 8.41784 23.1303C8.64784 24.0139 9.32557 24.7097 10.1861 24.946C11.7458 25.375 18 25.375 18 25.375C18 25.375 24.2542 25.375 25.8138 24.946C26.6743 24.7097 27.352 24.0139 27.582 23.1303C28 21.5288 28 18.1875 28 18.1875C28 18.1875 28 14.8461 27.582 13.2447Z" fill="#3471F6"/>
    <path fill-rule="evenodd" clip-rule="evenodd" d="M16.125 21.625V15.375L21.125 18.5001L16.125 21.625Z" fill="white"/>
</svg>

