<svg width="46" height="46" viewBox="0 0 46 46" fill="none" xmlns="http://www.w3.org/2000/svg">
<path d="M45.3107 28.5661C42.2406 40.8866 29.7582 48.3853 17.4341 45.3106C5.10994 42.2359 -2.38524 29.7596 0.689701 17.438C3.76464 5.1163 16.2408 -2.38581 28.5622 0.689374C40.8836 3.76456 48.3857 16.2415 45.3107 28.5661Z" fill="#393939"/>
<path fill-rule="evenodd" clip-rule="evenodd" d="M23.4467 15.9069L18.1687 21.1049L15.0975 18.0802L23.4467 9.85714L31.7988 18.083L28.7276 21.1076L23.4467 15.9069ZM15.9997 23.2402L12.9286 20.2157L9.85742 23.2404L12.9286 26.2651L15.9997 23.2402ZM23.4467 30.5745L18.1687 25.3765L15.093 28.3972L15.0973 28.4013L23.4467 36.6243L31.7988 28.3986L31.8003 28.3969L28.7274 25.374L23.4467 30.5745ZM33.9653 26.2663L37.0362 23.2416L33.9651 20.217L30.8939 23.2419L33.9653 26.2663ZM26.5622 23.2388H26.5635L23.4471 20.1695L20.3334 23.2448L23.4471 26.3113L26.5635 23.242L26.5651 23.2404L26.5622 23.2388Z" fill="#F4BB2B"/>
</svg>
