<svg width="24" height="24" viewBox="0 0 24 24" fill="none" xmlns="http://www.w3.org/2000/svg">
<path d="M12.752 15.088C12.8693 15.088 12.9707 15.1307 13.056 15.216C13.1413 15.3013 13.184 15.4027 13.184 15.52V16.928C13.184 17.0453 13.1413 17.1467 13.056 17.232C12.9707 17.3173 12.8693 17.36 12.752 17.36H11.376C11.2587 17.36 11.1573 17.3173 11.072 17.232C10.9867 17.1467 10.944 17.0453 10.944 16.928V15.52C10.944 15.4027 10.9867 15.3013 11.072 15.216C11.1573 15.1307 11.2587 15.088 11.376 15.088H12.752ZM12.112 6C12.6133 6 13.0987 6.06933 13.568 6.208C14.048 6.34667 14.4693 6.55467 14.832 6.832C15.2053 7.09867 15.504 7.43467 15.728 7.84C15.952 8.23467 16.064 8.69333 16.064 9.216C16.064 9.64267 15.9947 10.016 15.856 10.336C15.728 10.6453 15.5573 10.928 15.344 11.184C15.1413 11.4293 14.9173 11.6587 14.672 11.872C14.4267 12.0747 14.192 12.272 13.968 12.464C13.7547 12.6453 13.5627 12.8373 13.392 13.04C13.232 13.2427 13.136 13.4613 13.104 13.696C13.0827 13.8133 13.0347 13.9147 12.96 14C12.8853 14.0853 12.7893 14.128 12.672 14.128H11.456C11.3387 14.128 11.232 14.0853 11.136 14C11.0507 13.9147 11.0133 13.8133 11.024 13.696C11.0453 13.28 11.1307 12.9173 11.28 12.608C11.44 12.288 11.6267 12.0053 11.84 11.76C12.064 11.504 12.2987 11.2747 12.544 11.072C12.8 10.8693 13.0347 10.6773 13.248 10.496C13.4613 10.304 13.6373 10.1173 13.776 9.936C13.9147 9.744 13.984 9.536 13.984 9.312C13.984 8.90667 13.8133 8.576 13.472 8.32C13.1307 8.05333 12.6773 7.92 12.112 7.92C11.2053 7.92 10.5387 8.37333 10.112 9.28C10.0587 9.39733 10 9.488 9.936 9.552C9.88267 9.60533 9.78667 9.632 9.648 9.632H8.352C8.256 9.632 8.17067 9.6 8.096 9.536C8.032 9.472 8 9.38667 8 9.28C8.01067 8.90667 8.12267 8.528 8.336 8.144C8.56 7.74933 8.85333 7.39733 9.216 7.088C9.58933 6.768 10.0213 6.50667 10.512 6.304C11.0133 6.10133 11.5467 6 12.112 6Z" fill="#C4C4C4"/>
<circle cx="12" cy="12" r="11.5" stroke="#C4C4C4"/>
</svg>
