<svg width="32" height="32" viewBox="0 0 32 32" fill="none" xmlns="http://www.w3.org/2000/svg">
<path d="M32 16C32 24.8367 24.8367 32.0002 16.0001 32.0002C7.16344 32.0002 0 24.8367 0 16C0 7.16344 7.16344 0 16.0001 0C24.8366 0 32 7.16344 32 16Z" fill="#434343"/>
<path fill-rule="evenodd" clip-rule="evenodd" d="M15.6416 11.8402L12.2913 15.1396L10.3418 13.2197L15.6416 8.00002L20.9432 13.2214L18.9937 15.1414L15.6416 11.8402ZM10.9145 16.495L8.96508 14.5752L7.01564 16.4951L8.96508 18.4151L10.9145 16.495ZM15.6416 21.1506L12.2913 17.8511L10.339 19.7685L10.3417 19.7711L15.6416 24.9907L20.9432 19.7694L20.9441 19.7683L18.9936 17.8495L15.6416 21.1506ZM22.3184 18.4159L24.2677 16.4959L22.3183 14.576L20.3688 16.4961L22.3184 18.4159ZM17.619 16.4942H17.6198L15.6416 14.5459L13.6652 16.498L15.6416 18.4444L17.6198 16.4962L17.6208 16.4951L17.619 16.4942Z" fill="#F4BB2B"/>
</svg>
