<svg width="32" height="32" viewBox="0 0 32 32" fill="none" xmlns="http://www.w3.org/2000/svg">
<path d="M32 15.9999C32 24.8365 24.8367 32 16.0001 32C7.16344 32 0 24.8365 0 15.9999C0 7.1634 7.16344 0 16.0001 0C24.8366 0 32 7.1634 32 15.9999" fill="#B6323A"/>
<path d="M15.9484 7.99997L15.8496 8.33587V18.083L15.9484 18.1816L20.473 15.5072L15.9484 7.99997Z" fill="white"/>
<path d="M15.9484 7.99997L11.4238 15.5072L15.9484 18.1817V13.4507V7.99997Z" fill="white"/>
<path d="M15.9483 19.6535L15.8926 19.7213V23.1935L15.9483 23.3561L20.4755 16.9804L15.9483 19.6535Z" fill="white"/>
<path d="M15.9484 23.3562V19.6535L11.4238 16.9804L15.9484 23.3562Z" fill="white"/>
<path d="M15.9492 18.182L20.4737 15.5076L15.9492 13.4511V18.182Z" fill="white"/>
<path d="M11.4238 15.5066L15.9483 18.181V13.4501L11.4238 15.5066Z" fill="white"/>
</svg>
