<svg width="34" height="34" viewBox="0 0 34 34" fill="none" xmlns="http://www.w3.org/2000/svg">
    <path d="M33 17C33 25.8367 25.8367 33.0002 17.0001 33.0002C8.16344 33.0002 1 25.8367 1 17C1 8.16344 8.16344 1 17.0001 1C25.8366 1 33 8.16344 33 17" fill="#8248E5"/>
    <path d="M33 17C33 25.8367 25.8367 33.0002 17.0001 33.0002C8.16344 33.0002 1 25.8367 1 17C1 8.16344 8.16344 1 17.0001 1C25.8366 1 33 8.16344 33 17" stroke="white"/>
    <path d="M21.6204 14.2137C21.2994 14.016 20.8637 14.016 20.4968 14.2137L17.8599 15.8692L16.0713 16.9317L13.5032 18.6119C13.1822 18.8096 12.7465 18.8096 12.3796 18.6119L10.3618 17.3023C10.0408 17.1047 9.78854 16.6846 9.78854 16.2398V13.6948C9.78854 13.2994 9.97197 12.8794 10.3618 12.6323L12.3567 11.3721C12.6777 11.1744 13.1134 11.1744 13.4803 11.3721L15.4981 12.6817C15.8191 12.8794 16.0713 13.2994 16.0713 13.7442V15.4244L17.8599 14.3125V12.5828C17.8599 12.1875 17.6764 11.7674 17.2866 11.5203L13.549 9.14826C13.228 8.95058 12.7924 8.95058 12.4255 9.14826L8.57325 11.5698C8.18344 11.7674 8 12.1875 8 12.5828V17.3517C8 17.7471 8.18344 18.1672 8.57325 18.4142L12.3567 20.7863C12.6777 20.984 13.1134 20.984 13.4803 20.7863L16.0713 19.1555L17.8599 18.0436L20.451 16.4128C20.772 16.2151 21.2076 16.2151 21.5745 16.4128L23.5924 17.673C23.9134 17.8706 24.1656 18.2907 24.1656 18.7355V21.2558C24.1656 21.6512 23.9822 22.0712 23.5924 22.3183L21.6204 23.5785C21.2994 23.7762 20.8637 23.7762 20.4968 23.5785L18.479 22.3183C18.158 22.1206 17.9057 21.7006 17.9057 21.2558V19.625L16.1172 20.7369V22.4172C16.1172 22.8125 16.3006 23.2326 16.6904 23.4797L20.4968 25.8517C20.8178 26.0494 21.2535 26.0494 21.6204 25.8517L25.4268 23.5044C25.7478 23.3067 26 22.8866 26 22.4419V17.6483C26 17.2529 25.8166 16.8328 25.4268 16.5858L21.6204 14.2137Z" fill="white"/>
</svg>
